<?xml version="1.0" encoding="utf-8"?>
<!-- Generator: Adobe Illustrator 19.0.0, SVG Export Plug-In . SVG Version: 6.00 Build 0)  -->
<svg version="1.1" id="Layer_1" xmlns="http://www.w3.org/2000/svg" xmlns:xlink="http://www.w3.org/1999/xlink" x="0px" y="0px"
	 viewBox="0 0 349.3 50" style="enable-background:new 0 0 349.3 50;" xml:space="preserve">
<style type="text/css">
	.st0{fill:#231F20;}
</style>
<g id="XMLID_71_">
	<g id="XMLID_184_">
		<path id="XMLID_185_" class="st0" d="M9.3,4c2.5,0.1,4.4,0.8,5.7,2.3c1.3,1.5,1.9,3.7,1.9,6.6s-0.6,5.2-1.9,6.6s-3.2,2.2-5.7,2.3
			H3.6V4H9.3z M8.6,20.4c1.2,0,2.2-0.1,3.1-0.4c0.9-0.3,1.6-0.7,2.1-1.3c0.6-0.6,1-1.4,1.2-2.3c0.3-0.9,0.4-2.1,0.4-3.4
			c0-1.3-0.1-2.5-0.4-3.4c-0.3-0.9-0.7-1.7-1.2-2.3c-0.6-0.6-1.3-1-2.1-1.3S9.7,5.4,8.6,5.4H5.2v14.9H8.6z"/>
		<path id="XMLID_188_" class="st0" d="M20.5,4h1.9l5.5,9l5.5-9h1.9l-6.6,10.5v7.3H27v-7.3L20.5,4z"/>
		<path id="XMLID_190_" class="st0" d="M41.1,4l9.7,15.1h0V4h1.6v17.8h-1.8L41,6.7h0v15.1h-1.6V4H41.1z"/>
		<path id="XMLID_192_" class="st0" d="M65.3,4l6.5,17.8h-1.7l-2-5.5h-7.6l-2,5.5h-1.7L63.5,4H65.3z M67.5,14.8l-3.2-9.1L61,14.8
			H67.5z"/>
		<path id="XMLID_195_" class="st0" d="M78.4,4l5.5,15.6L89.7,4H92v17.8h-1.6V6.4h0l-5.7,15.4h-1.5L77.7,6.4h0v15.4h-1.6V4H78.4z"/>
		<path id="XMLID_197_" class="st0" d="M99.7,4v17.8h-1.6V4H99.7z"/>
		<path id="XMLID_199_" class="st0" d="M117.5,7.5c-0.3-0.5-0.7-1-1.2-1.4c-0.5-0.4-1-0.6-1.5-0.8c-0.6-0.2-1.1-0.3-1.7-0.3
			c-1.1,0-2.1,0.2-2.8,0.7c-0.8,0.4-1.4,1-1.9,1.8c-0.5,0.7-0.9,1.6-1.1,2.5c-0.2,0.9-0.4,1.9-0.4,2.9c0,1,0.1,1.9,0.4,2.9
			c0.2,0.9,0.6,1.8,1.1,2.5c0.5,0.7,1.2,1.3,1.9,1.8c0.8,0.5,1.7,0.7,2.8,0.7c0.8,0,1.5-0.2,2.1-0.5c0.6-0.3,1.2-0.7,1.6-1.2
			c0.5-0.5,0.8-1.1,1.1-1.8c0.3-0.7,0.5-1.4,0.5-2.2h1.6c-0.1,1.1-0.4,2.1-0.7,3c-0.4,0.9-0.9,1.6-1.4,2.3c-0.6,0.6-1.3,1.1-2.1,1.4
			c-0.8,0.3-1.7,0.5-2.7,0.5c-1.3,0-2.5-0.3-3.4-0.8c-1-0.5-1.8-1.2-2.5-2s-1.1-1.8-1.5-2.9c-0.3-1.1-0.5-2.3-0.5-3.5
			s0.2-2.4,0.5-3.5c0.3-1.1,0.8-2.1,1.5-3s1.5-1.5,2.5-2s2.1-0.8,3.4-0.8c0.8,0,1.6,0.1,2.3,0.4s1.4,0.6,2.1,1.1
			c0.6,0.5,1.1,1.1,1.5,1.8c0.4,0.7,0.7,1.5,0.8,2.5h-1.6C118.1,8.7,117.8,8.1,117.5,7.5z"/>
		<path id="XMLID_201_" class="st0" d="M146,4v1.4h-9.9v6.4h9.3v1.4h-9.3v7h10v1.4h-11.6V4H146z"/>
		<path id="XMLID_203_" class="st0" d="M152.9,4l9.7,15.1h0V4h1.6v17.8h-1.8l-9.7-15.1h0v15.1h-1.6V4H152.9z"/>
		<path id="XMLID_205_" class="st0" d="M183.5,21.8l-0.2-3.2h0c-0.3,0.6-0.6,1.2-1,1.6s-0.9,0.8-1.4,1.1s-1,0.5-1.6,0.6
			c-0.6,0.1-1.2,0.2-1.8,0.2c-1.3,0-2.5-0.3-3.4-0.8c-1-0.5-1.8-1.2-2.5-2c-0.7-0.9-1.1-1.8-1.5-2.9c-0.3-1.1-0.5-2.3-0.5-3.5
			s0.2-2.4,0.5-3.5c0.3-1.1,0.8-2.1,1.5-3c0.7-0.9,1.5-1.5,2.5-2c1-0.5,2.1-0.8,3.4-0.8c0.9,0,1.7,0.1,2.5,0.4
			c0.8,0.3,1.5,0.6,2.1,1.1s1.1,1.1,1.5,1.8c0.4,0.7,0.7,1.6,0.9,2.6h-1.6c0-0.5-0.2-1-0.5-1.6c-0.3-0.5-0.6-1-1.1-1.4
			c-0.5-0.4-1-0.8-1.6-1.1S178.2,5,177.4,5c-1.1,0-2.1,0.2-2.8,0.7c-0.8,0.4-1.4,1-1.9,1.8c-0.5,0.7-0.9,1.6-1.1,2.5
			c-0.2,0.9-0.4,1.9-0.4,2.9c0,1,0.1,1.9,0.4,2.9c0.2,0.9,0.6,1.8,1.1,2.5c0.5,0.7,1.2,1.3,1.9,1.8c0.8,0.5,1.7,0.7,2.8,0.7
			c0.9,0,1.7-0.2,2.5-0.5c0.7-0.3,1.3-0.8,1.8-1.4c0.5-0.6,0.9-1.3,1.1-2.1s0.4-1.7,0.3-2.6h-5.7v-1.5h7.1v9.1H183.5z"/>
		<path id="XMLID_207_" class="st0" d="M192,4v16.4h9.3v1.4h-10.9V4H192z"/>
		<path id="XMLID_209_" class="st0" d="M207.5,4v17.8h-1.6V4H207.5z"/>
		<path id="XMLID_211_" class="st0" d="M214.9,18.2c0.3,0.6,0.7,1.1,1.2,1.5s1.1,0.6,1.7,0.8c0.7,0.2,1.4,0.2,2.1,0.2
			c0.4,0,0.9-0.1,1.4-0.2c0.5-0.1,1-0.3,1.4-0.6c0.4-0.3,0.8-0.7,1.1-1.1c0.3-0.5,0.4-1,0.4-1.7c0-0.5-0.1-0.9-0.3-1.3
			c-0.2-0.4-0.5-0.7-0.8-0.9c-0.3-0.2-0.7-0.5-1.1-0.6c-0.4-0.2-0.8-0.3-1.2-0.4l-3.7-1c-0.5-0.1-1-0.3-1.4-0.5
			c-0.5-0.2-0.9-0.5-1.2-0.8c-0.3-0.3-0.6-0.7-0.8-1.2c-0.2-0.5-0.3-1.1-0.3-1.8c0-0.4,0.1-0.9,0.2-1.5c0.2-0.6,0.4-1.1,0.9-1.6
			c0.4-0.5,1-1,1.8-1.3c0.7-0.4,1.7-0.5,2.9-0.5c0.8,0,1.6,0.1,2.4,0.4c0.7,0.2,1.4,0.6,2,1c0.6,0.5,1,1,1.3,1.7
			c0.3,0.7,0.5,1.5,0.5,2.4h-1.6c0-0.7-0.2-1.3-0.4-1.8c-0.3-0.5-0.6-0.9-1-1.3c-0.4-0.3-0.9-0.6-1.4-0.8c-0.5-0.2-1.1-0.3-1.7-0.3
			c-0.5,0-1.1,0.1-1.6,0.2c-0.5,0.1-0.9,0.3-1.3,0.6c-0.4,0.3-0.7,0.6-0.9,1.1c-0.2,0.5-0.4,1-0.4,1.7c0,0.4,0.1,0.8,0.2,1.1
			c0.1,0.3,0.3,0.6,0.5,0.8c0.2,0.2,0.5,0.4,0.8,0.5c0.3,0.1,0.6,0.2,1,0.3l4.1,1.1c0.6,0.2,1.1,0.4,1.7,0.6c0.5,0.2,1,0.5,1.4,0.9
			s0.7,0.8,0.9,1.3s0.3,1.1,0.3,1.9c0,0.2,0,0.5-0.1,0.8c0,0.3-0.1,0.7-0.3,1.1c-0.1,0.4-0.4,0.8-0.6,1.1c-0.3,0.4-0.6,0.7-1.1,1
			c-0.5,0.3-1.1,0.6-1.8,0.8s-1.5,0.3-2.5,0.3c-1,0-1.9-0.1-2.7-0.4s-1.6-0.6-2.1-1.1c-0.6-0.5-1-1.1-1.4-1.9
			c-0.3-0.8-0.5-1.7-0.4-2.8h1.6C214.5,16.9,214.6,17.6,214.9,18.2z"/>
		<path id="XMLID_213_" class="st0" d="M232.8,4v7.7h9.9V4h1.6v17.8h-1.6v-8.6h-9.9v8.6h-1.6V4H232.8z"/>
		<path id="XMLID_215_" class="st0" d="M260.9,18.2c0.3,0.6,0.7,1.1,1.2,1.5s1.1,0.6,1.7,0.8c0.7,0.2,1.4,0.2,2.1,0.2
			c0.4,0,0.9-0.1,1.4-0.2c0.5-0.1,1-0.3,1.4-0.6c0.4-0.3,0.8-0.7,1.1-1.1c0.3-0.5,0.4-1,0.4-1.7c0-0.5-0.1-0.9-0.3-1.3
			c-0.2-0.4-0.5-0.7-0.8-0.9c-0.3-0.2-0.7-0.5-1.1-0.6c-0.4-0.2-0.8-0.3-1.2-0.4l-3.7-1c-0.5-0.1-1-0.3-1.4-0.5
			c-0.5-0.2-0.9-0.5-1.2-0.8c-0.3-0.3-0.6-0.7-0.8-1.2c-0.2-0.5-0.3-1.1-0.3-1.8c0-0.4,0.1-0.9,0.2-1.5c0.2-0.6,0.4-1.1,0.9-1.6
			c0.4-0.5,1-1,1.8-1.3c0.7-0.4,1.7-0.5,2.9-0.5c0.8,0,1.6,0.1,2.4,0.4c0.7,0.2,1.4,0.6,2,1c0.6,0.5,1,1,1.3,1.7
			c0.3,0.7,0.5,1.5,0.5,2.4h-1.6c0-0.7-0.2-1.3-0.4-1.8c-0.3-0.5-0.6-0.9-1-1.3c-0.4-0.3-0.9-0.6-1.4-0.8c-0.5-0.2-1.1-0.3-1.7-0.3
			c-0.5,0-1.1,0.1-1.6,0.2c-0.5,0.1-0.9,0.3-1.3,0.6c-0.4,0.3-0.7,0.6-0.9,1.1c-0.2,0.5-0.4,1-0.4,1.7c0,0.4,0.1,0.8,0.2,1.1
			c0.1,0.3,0.3,0.6,0.5,0.8c0.2,0.2,0.5,0.4,0.8,0.5c0.3,0.1,0.6,0.2,1,0.3l4.1,1.1c0.6,0.2,1.1,0.4,1.7,0.6c0.5,0.2,1,0.5,1.4,0.9
			s0.7,0.8,0.9,1.3s0.3,1.1,0.3,1.9c0,0.2,0,0.5-0.1,0.8c0,0.3-0.1,0.7-0.3,1.1c-0.1,0.4-0.4,0.8-0.6,1.1c-0.3,0.4-0.6,0.7-1.1,1
			c-0.5,0.3-1.1,0.6-1.8,0.8s-1.5,0.3-2.5,0.3c-1,0-1.9-0.1-2.7-0.4s-1.6-0.6-2.1-1.1c-0.6-0.5-1-1.1-1.4-1.9
			c-0.3-0.8-0.5-1.7-0.4-2.8h1.6C260.5,16.9,260.6,17.6,260.9,18.2z"/>
		<path id="XMLID_217_" class="st0" d="M278.8,4v9.6l9.7-9.6h2.1l-7.4,7.4l7.8,10.5H289l-6.9-9.3l-3.2,3.2v6.1h-1.6V4H278.8z"/>
		<path id="XMLID_219_" class="st0" d="M296.9,4v17.8h-1.6V4H296.9z"/>
		<path id="XMLID_221_" class="st0" d="M304.7,4v16.4h9.3v1.4h-10.9V4H304.7z"/>
		<path id="XMLID_223_" class="st0" d="M320,4v16.4h9.3v1.4h-10.9V4H320z"/>
		<path id="XMLID_225_" class="st0" d="M334.9,18.2c0.3,0.6,0.7,1.1,1.2,1.5s1.1,0.6,1.7,0.8c0.7,0.2,1.4,0.2,2.1,0.2
			c0.4,0,0.9-0.1,1.4-0.2c0.5-0.1,1-0.3,1.4-0.6c0.4-0.3,0.8-0.7,1.1-1.1c0.3-0.5,0.4-1,0.4-1.7c0-0.5-0.1-0.9-0.3-1.3
			c-0.2-0.4-0.5-0.7-0.8-0.9c-0.3-0.2-0.7-0.5-1.1-0.6c-0.4-0.2-0.8-0.3-1.2-0.4l-3.7-1c-0.5-0.1-1-0.3-1.4-0.5
			c-0.5-0.2-0.9-0.5-1.2-0.8c-0.3-0.3-0.6-0.7-0.8-1.2c-0.2-0.5-0.3-1.1-0.3-1.8c0-0.4,0.1-0.9,0.2-1.5c0.2-0.6,0.4-1.1,0.9-1.6
			c0.4-0.5,1-1,1.8-1.3c0.7-0.4,1.7-0.5,2.9-0.5c0.8,0,1.6,0.1,2.4,0.4c0.7,0.2,1.4,0.6,2,1c0.6,0.5,1,1,1.3,1.7
			c0.3,0.7,0.5,1.5,0.5,2.4h-1.6c0-0.7-0.2-1.3-0.4-1.8c-0.3-0.5-0.6-0.9-1-1.3c-0.4-0.3-0.9-0.6-1.4-0.8c-0.5-0.2-1.1-0.3-1.7-0.3
			c-0.5,0-1.1,0.1-1.6,0.2c-0.5,0.1-0.9,0.3-1.3,0.6c-0.4,0.3-0.7,0.6-0.9,1.1c-0.2,0.5-0.4,1-0.4,1.7c0,0.4,0.1,0.8,0.2,1.1
			c0.1,0.3,0.3,0.6,0.5,0.8c0.2,0.2,0.5,0.4,0.8,0.5c0.3,0.1,0.6,0.2,1,0.3l4.1,1.1c0.6,0.2,1.1,0.4,1.7,0.6c0.5,0.2,1,0.5,1.4,0.9
			s0.7,0.8,0.9,1.3s0.3,1.1,0.3,1.9c0,0.2,0,0.5-0.1,0.8c0,0.3-0.1,0.7-0.3,1.1c-0.1,0.4-0.4,0.8-0.6,1.1c-0.3,0.4-0.6,0.7-1.1,1
			c-0.5,0.3-1.1,0.6-1.8,0.8s-1.5,0.3-2.5,0.3c-1,0-1.9-0.1-2.7-0.4s-1.6-0.6-2.1-1.1c-0.6-0.5-1-1.1-1.4-1.9
			c-0.3-0.8-0.5-1.7-0.4-2.8h1.6C334.5,16.9,334.6,17.6,334.9,18.2z"/>
	</g>
	<g id="XMLID_169_">
		<path id="XMLID_170_" class="st0" d="M4.1,38.9v6.9H3.2v-6.9H2v-0.8h1.2v-0.7c0-0.3,0-0.6,0.1-0.9c0-0.3,0.1-0.5,0.3-0.7
			s0.3-0.4,0.5-0.5c0.2-0.1,0.5-0.2,0.9-0.2c0.1,0,0.3,0,0.4,0c0.1,0,0.2,0,0.4,0V36c-0.1,0-0.2,0-0.3-0.1c-0.1,0-0.2,0-0.3,0
			c-0.2,0-0.4,0-0.6,0.1c-0.1,0.1-0.2,0.2-0.3,0.3s-0.1,0.3-0.1,0.5s0,0.4,0,0.6v0.7h1.4v0.8H4.1z"/>
		<path id="XMLID_172_" class="st0" d="M12.8,38.2c0.4,0.2,0.8,0.5,1.1,0.9c0.3,0.4,0.5,0.8,0.7,1.3c0.1,0.5,0.2,1,0.2,1.6
			c0,0.6-0.1,1.1-0.2,1.6c-0.1,0.5-0.4,0.9-0.7,1.3c-0.3,0.4-0.6,0.7-1.1,0.9c-0.4,0.2-0.9,0.3-1.5,0.3c-0.6,0-1-0.1-1.5-0.3
			c-0.4-0.2-0.8-0.5-1.1-0.9c-0.3-0.4-0.5-0.8-0.7-1.3C8,43,8,42.5,8,41.9c0-0.6,0.1-1.1,0.2-1.6c0.1-0.5,0.4-0.9,0.7-1.3
			c0.3-0.4,0.6-0.7,1.1-0.9c0.4-0.2,0.9-0.3,1.5-0.3C11.9,37.8,12.4,38,12.8,38.2z M10.3,38.9c-0.3,0.2-0.6,0.4-0.8,0.7
			C9.3,40,9.1,40.3,9,40.7c-0.1,0.4-0.2,0.8-0.2,1.2c0,0.4,0.1,0.8,0.2,1.2c0.1,0.4,0.3,0.7,0.5,1.1c0.2,0.3,0.5,0.6,0.8,0.8
			c0.3,0.2,0.7,0.3,1.1,0.3s0.8-0.1,1.1-0.3c0.3-0.2,0.6-0.4,0.8-0.8c0.2-0.3,0.4-0.7,0.5-1.1c0.1-0.4,0.2-0.8,0.2-1.2
			c0-0.4-0.1-0.8-0.2-1.2c-0.1-0.4-0.3-0.7-0.5-1.1c-0.2-0.3-0.5-0.6-0.8-0.7c-0.3-0.2-0.7-0.3-1.1-0.3S10.6,38.7,10.3,38.9z"/>
		<path id="XMLID_175_" class="st0" d="M18.9,38.1v1.8h0c0.2-0.6,0.6-1.1,1-1.5c0.5-0.3,1-0.5,1.7-0.5v0.9c-0.4,0-0.8,0-1.1,0.2
			s-0.6,0.3-0.8,0.6c-0.2,0.2-0.4,0.5-0.6,0.9C19,40.9,19,41.3,19,41.7v4.1h-0.9v-7.7H18.9z"/>
		<path id="XMLID_177_" class="st0" d="M33.2,38.1v0.8h-1.5v5.2c0,0.3,0,0.6,0.1,0.7s0.3,0.3,0.6,0.3c0.3,0,0.5,0,0.8,0v0.8
			c-0.1,0-0.3,0-0.4,0c-0.1,0-0.3,0-0.4,0c-0.6,0-1-0.1-1.2-0.4s-0.3-0.7-0.3-1.4v-5.3h-1.3v-0.8h1.3v-2.3h0.9v2.3H33.2z"/>
		<path id="XMLID_179_" class="st0" d="M37.3,35.1v4.3h0c0.2-0.5,0.5-0.8,0.9-1.1c0.4-0.3,0.9-0.4,1.4-0.4c0.5,0,0.9,0.1,1.3,0.2
			c0.3,0.1,0.6,0.3,0.8,0.6c0.2,0.3,0.4,0.6,0.4,0.9c0.1,0.4,0.1,0.8,0.1,1.2v5h-0.9V41c0-0.3,0-0.6-0.1-0.9
			c-0.1-0.3-0.2-0.5-0.3-0.7c-0.1-0.2-0.3-0.4-0.6-0.5c-0.2-0.1-0.5-0.2-0.9-0.2c-0.4,0-0.7,0.1-0.9,0.2s-0.5,0.3-0.7,0.6
			c-0.2,0.2-0.3,0.5-0.4,0.8c-0.1,0.3-0.2,0.7-0.2,1.1v4.5h-0.9V35.1H37.3z"/>
		<path id="XMLID_181_" class="st0" d="M46.5,43.3c0.1,0.4,0.2,0.7,0.4,1c0.2,0.3,0.4,0.5,0.7,0.7c0.3,0.2,0.7,0.3,1.1,0.3
			c0.6,0,1.1-0.2,1.5-0.5c0.4-0.4,0.6-0.8,0.8-1.4h0.9c-0.2,0.9-0.5,1.6-1,2c-0.5,0.5-1.2,0.7-2.1,0.7c-0.6,0-1.1-0.1-1.5-0.3
			c-0.4-0.2-0.8-0.5-1-0.9c-0.3-0.4-0.5-0.8-0.6-1.3c-0.1-0.5-0.2-1-0.2-1.6c0-0.5,0.1-1,0.2-1.5c0.1-0.5,0.3-0.9,0.6-1.3
			c0.3-0.4,0.6-0.7,1-0.9c0.4-0.2,0.9-0.4,1.5-0.4c0.6,0,1.1,0.1,1.5,0.4c0.4,0.2,0.7,0.6,1,1c0.3,0.4,0.4,0.9,0.6,1.4
			s0.2,1.1,0.1,1.6h-5.6C46.4,42.5,46.4,42.9,46.5,43.3z M50.9,40.4c-0.1-0.3-0.3-0.6-0.5-0.9c-0.2-0.3-0.4-0.5-0.7-0.6
			s-0.6-0.2-1-0.2c-0.4,0-0.7,0.1-1,0.2s-0.5,0.4-0.7,0.6c-0.2,0.3-0.4,0.6-0.5,0.9s-0.2,0.7-0.2,1h4.7C51.1,41,51,40.7,50.9,40.4z"
			/>
	</g>
	<g id="XMLID_122_">
		<path id="XMLID_123_" class="st0" d="M68.7,31.5L74,45.8h-1.4L71,41.4h-6.1l-1.6,4.4H62l5.4-14.3H68.7z M70.5,40.2L68,32.9
			l-2.7,7.3H70.5z"/>
		<path id="XMLID_126_" class="st0" d="M78.9,31.5v8.8c0,0.8,0.1,1.5,0.3,2.1c0.2,0.6,0.4,1.1,0.8,1.4c0.3,0.4,0.7,0.6,1.2,0.8
			c0.5,0.2,1,0.2,1.6,0.2c0.6,0,1.2-0.1,1.7-0.2c0.5-0.2,0.9-0.4,1.2-0.8c0.3-0.4,0.6-0.8,0.8-1.4c0.2-0.6,0.3-1.3,0.3-2.1v-8.8H88
			v9.1c0,0.7-0.1,1.4-0.3,2.1s-0.5,1.2-0.9,1.7c-0.4,0.5-1,0.9-1.6,1.2c-0.7,0.3-1.4,0.4-2.4,0.4c-0.9,0-1.7-0.1-2.4-0.4
			c-0.7-0.3-1.2-0.7-1.6-1.2c-0.4-0.5-0.7-1.1-0.9-1.7s-0.3-1.4-0.3-2.1v-9.1H78.9z"/>
		<path id="XMLID_128_" class="st0" d="M94.1,42.9c0.2,0.5,0.5,0.9,0.9,1.2s0.9,0.5,1.4,0.6s1.1,0.2,1.7,0.2c0.3,0,0.7-0.1,1.1-0.2
			s0.8-0.3,1.1-0.5c0.4-0.2,0.7-0.5,0.9-0.9c0.2-0.4,0.4-0.8,0.4-1.3c0-0.4-0.1-0.7-0.3-1c-0.2-0.3-0.4-0.5-0.7-0.7
			c-0.3-0.2-0.6-0.4-0.9-0.5s-0.6-0.2-1-0.3l-3-0.8c-0.4-0.1-0.8-0.2-1.1-0.4c-0.4-0.2-0.7-0.4-1-0.6c-0.3-0.3-0.5-0.6-0.7-1
			s-0.3-0.9-0.3-1.4c0-0.3,0.1-0.8,0.2-1.2c0.1-0.5,0.4-0.9,0.7-1.3s0.8-0.8,1.4-1c0.6-0.3,1.4-0.4,2.3-0.4c0.7,0,1.3,0.1,1.9,0.3
			c0.6,0.2,1.1,0.5,1.6,0.8c0.4,0.4,0.8,0.8,1.1,1.4c0.3,0.6,0.4,1.2,0.4,1.9h-1.3c0-0.5-0.1-1-0.3-1.4c-0.2-0.4-0.5-0.7-0.8-1
			c-0.3-0.3-0.7-0.5-1.1-0.6c-0.4-0.1-0.9-0.2-1.4-0.2c-0.4,0-0.9,0.1-1.3,0.2c-0.4,0.1-0.8,0.3-1.1,0.5c-0.3,0.2-0.6,0.5-0.7,0.9
			c-0.2,0.4-0.3,0.8-0.3,1.3c0,0.3,0.1,0.6,0.2,0.9c0.1,0.2,0.3,0.5,0.4,0.6c0.2,0.2,0.4,0.3,0.6,0.4c0.2,0.1,0.5,0.2,0.8,0.3
			l3.2,0.9c0.5,0.1,0.9,0.3,1.3,0.5s0.8,0.4,1.1,0.7c0.3,0.3,0.6,0.6,0.7,1c0.2,0.4,0.3,0.9,0.3,1.5c0,0.2,0,0.4,0,0.6
			s-0.1,0.5-0.2,0.8c-0.1,0.3-0.3,0.6-0.5,0.9s-0.5,0.6-0.9,0.8c-0.4,0.2-0.8,0.4-1.4,0.6s-1.2,0.2-2,0.2c-0.8,0-1.5-0.1-2.2-0.3
			c-0.7-0.2-1.2-0.5-1.7-0.9c-0.5-0.4-0.8-0.9-1.1-1.5s-0.4-1.4-0.3-2.3h1.3C93.8,41.8,93.9,42.5,94.1,42.9z"/>
		<path id="XMLID_130_" class="st0" d="M116.7,31.5v1.2H112v13.1h-1.3V32.7h-4.6v-1.2H116.7z"/>
		<path id="XMLID_132_" class="st0" d="M126.6,31.5c0.5,0,1.1,0.1,1.6,0.2s0.9,0.4,1.3,0.7s0.7,0.7,0.9,1.2s0.3,1,0.3,1.7
			c0,0.9-0.2,1.7-0.7,2.4c-0.4,0.7-1.1,1.1-1.9,1.3v0c0.4,0.1,0.8,0.2,1.1,0.4c0.3,0.2,0.5,0.4,0.7,0.7c0.2,0.3,0.3,0.6,0.4,1
			c0.1,0.4,0.1,0.8,0.2,1.2c0,0.2,0,0.5,0,0.9c0,0.3,0,0.7,0.1,1c0,0.4,0.1,0.7,0.2,1c0.1,0.3,0.2,0.6,0.3,0.7h-1.4
			c-0.1-0.1-0.1-0.3-0.2-0.5c0-0.2-0.1-0.4-0.1-0.6s0-0.4,0-0.6c0-0.2,0-0.4,0-0.5c0-0.5-0.1-1-0.1-1.5c-0.1-0.5-0.2-0.9-0.4-1.3
			c-0.2-0.4-0.4-0.7-0.8-1s-0.8-0.3-1.4-0.3h-4.8v6.3h-1.3V31.5H126.6z M126.5,38.3c0.4,0,0.8-0.1,1.1-0.2c0.3-0.1,0.7-0.3,0.9-0.5
			s0.5-0.5,0.6-0.9c0.2-0.3,0.2-0.7,0.2-1.2c0-0.9-0.2-1.6-0.7-2.1c-0.5-0.5-1.2-0.8-2.2-0.8h-4.7v5.6H126.5z"/>
		<path id="XMLID_135_" class="st0" d="M140.9,31.5l5.2,14.3h-1.4l-1.6-4.4h-6.1l-1.6,4.4h-1.3l5.4-14.3H140.9z M142.7,40.2
			l-2.6-7.3l-2.7,7.3H142.7z"/>
		<path id="XMLID_138_" class="st0" d="M151.2,31.5v13.1h7.5v1.2H150V31.5H151.2z"/>
		<path id="XMLID_140_" class="st0" d="M164,31.5v14.3h-1.3V31.5H164z"/>
		<path id="XMLID_142_" class="st0" d="M174.7,31.5l5.2,14.3h-1.4l-1.6-4.4h-6.1l-1.6,4.4h-1.3l5.4-14.3H174.7z M176.5,40.2
			l-2.6-7.3l-2.7,7.3H176.5z"/>
		<path id="XMLID_145_" class="st0" d="M185.1,31.5l7.8,12.1h0V31.5h1.3v14.3h-1.4L185,33.7h0v12.1h-1.3V31.5H185.1z"/>
		<path id="XMLID_147_" class="st0" d="M216.5,34.4c-0.3-0.4-0.6-0.8-0.9-1.1s-0.8-0.5-1.2-0.7c-0.4-0.2-0.9-0.2-1.4-0.2
			c-0.9,0-1.6,0.2-2.3,0.5c-0.6,0.4-1.2,0.8-1.6,1.4c-0.4,0.6-0.7,1.3-0.9,2c-0.2,0.7-0.3,1.5-0.3,2.3c0,0.8,0.1,1.5,0.3,2.3
			c0.2,0.8,0.5,1.4,0.9,2c0.4,0.6,0.9,1.1,1.6,1.4c0.6,0.4,1.4,0.5,2.3,0.5c0.6,0,1.2-0.1,1.7-0.4s0.9-0.6,1.3-1
			c0.4-0.4,0.7-0.9,0.9-1.4c0.2-0.6,0.4-1.2,0.4-1.8h1.3c-0.1,0.9-0.3,1.7-0.6,2.4s-0.7,1.3-1.2,1.8s-1,0.9-1.7,1.1
			c-0.6,0.3-1.4,0.4-2.1,0.4c-1,0-2-0.2-2.8-0.6c-0.8-0.4-1.4-1-2-1.6s-0.9-1.5-1.2-2.4c-0.3-0.9-0.4-1.8-0.4-2.8
			c0-1,0.1-1.9,0.4-2.8c0.3-0.9,0.7-1.7,1.2-2.4c0.5-0.7,1.2-1.2,2-1.6c0.8-0.4,1.7-0.6,2.8-0.6c0.6,0,1.3,0.1,1.9,0.3
			s1.2,0.5,1.6,0.9c0.5,0.4,0.9,0.9,1.2,1.5c0.3,0.6,0.5,1.2,0.6,2H217C216.9,35.3,216.7,34.8,216.5,34.4z"/>
		<path id="XMLID_149_" class="st0" d="M224.2,31.5v8.8c0,0.8,0.1,1.5,0.3,2.1c0.2,0.6,0.4,1.1,0.8,1.4c0.3,0.4,0.7,0.6,1.2,0.8
			c0.5,0.2,1,0.2,1.6,0.2c0.6,0,1.2-0.1,1.7-0.2c0.5-0.2,0.9-0.4,1.2-0.8c0.3-0.4,0.6-0.8,0.8-1.4c0.2-0.6,0.3-1.3,0.3-2.1v-8.8h1.3
			v9.1c0,0.7-0.1,1.4-0.3,2.1c-0.2,0.7-0.5,1.2-0.9,1.7c-0.4,0.5-1,0.9-1.6,1.2c-0.7,0.3-1.4,0.4-2.4,0.4c-0.9,0-1.7-0.1-2.4-0.4
			c-0.7-0.3-1.2-0.7-1.6-1.2c-0.4-0.5-0.7-1.1-0.9-1.7c-0.2-0.7-0.3-1.4-0.3-2.1v-9.1H224.2z"/>
		<path id="XMLID_151_" class="st0" d="M244.5,31.5c0.5,0,1.1,0.1,1.6,0.2c0.5,0.1,0.9,0.4,1.3,0.7c0.4,0.3,0.7,0.7,0.9,1.2
			s0.3,1,0.3,1.7c0,0.9-0.2,1.7-0.7,2.4c-0.4,0.7-1.1,1.1-1.9,1.3v0c0.4,0.1,0.8,0.2,1.1,0.4c0.3,0.2,0.5,0.4,0.7,0.7s0.3,0.6,0.4,1
			c0.1,0.4,0.1,0.8,0.2,1.2c0,0.2,0,0.5,0,0.9s0,0.7,0.1,1c0,0.4,0.1,0.7,0.2,1c0.1,0.3,0.2,0.6,0.3,0.7h-1.4
			c-0.1-0.1-0.1-0.3-0.2-0.5c0-0.2-0.1-0.4-0.1-0.6s0-0.4,0-0.6c0-0.2,0-0.4,0-0.5c0-0.5-0.1-1-0.1-1.5c-0.1-0.5-0.2-0.9-0.4-1.3
			c-0.2-0.4-0.4-0.7-0.8-1c-0.3-0.2-0.8-0.3-1.4-0.3h-4.8v6.3h-1.3V31.5H244.5z M244.4,38.3c0.4,0,0.8-0.1,1.1-0.2
			c0.3-0.1,0.7-0.3,0.9-0.5c0.3-0.2,0.5-0.5,0.6-0.9c0.2-0.3,0.2-0.7,0.2-1.2c0-0.9-0.2-1.6-0.7-2.1s-1.2-0.8-2.2-0.8h-4.7v5.6
			H244.4z"/>
		<path id="XMLID_154_" class="st0" d="M259.6,31.5c0.5,0,1.1,0.1,1.6,0.2c0.5,0.1,0.9,0.4,1.3,0.7c0.4,0.3,0.7,0.7,0.9,1.2
			s0.3,1,0.3,1.7c0,0.9-0.2,1.7-0.7,2.4c-0.4,0.7-1.1,1.1-1.9,1.3v0c0.4,0.1,0.8,0.2,1.1,0.4c0.3,0.2,0.5,0.4,0.7,0.7s0.3,0.6,0.4,1
			c0.1,0.4,0.1,0.8,0.2,1.2c0,0.2,0,0.5,0,0.9s0,0.7,0.1,1c0,0.4,0.1,0.7,0.2,1c0.1,0.3,0.2,0.6,0.3,0.7h-1.4
			c-0.1-0.1-0.1-0.3-0.2-0.5c0-0.2-0.1-0.4-0.1-0.6s0-0.4,0-0.6c0-0.2,0-0.4,0-0.5c0-0.5-0.1-1-0.1-1.5c-0.1-0.5-0.2-0.9-0.4-1.3
			c-0.2-0.4-0.4-0.7-0.8-1c-0.3-0.2-0.8-0.3-1.4-0.3h-4.8v6.3h-1.3V31.5H259.6z M259.5,38.3c0.4,0,0.8-0.1,1.1-0.2
			c0.3-0.1,0.7-0.3,0.9-0.5c0.3-0.2,0.5-0.5,0.6-0.9c0.2-0.3,0.2-0.7,0.2-1.2c0-0.9-0.2-1.6-0.7-2.1s-1.2-0.8-2.2-0.8h-4.7v5.6
			H259.5z"/>
		<path id="XMLID_157_" class="st0" d="M269.9,31.5v14.3h-1.3V31.5H269.9z"/>
		<path id="XMLID_159_" class="st0" d="M284.5,34.4c-0.3-0.4-0.6-0.8-0.9-1.1s-0.8-0.5-1.2-0.7c-0.4-0.2-0.9-0.2-1.4-0.2
			c-0.9,0-1.6,0.2-2.3,0.5c-0.6,0.4-1.2,0.8-1.6,1.4c-0.4,0.6-0.7,1.3-0.9,2c-0.2,0.7-0.3,1.5-0.3,2.3c0,0.8,0.1,1.5,0.3,2.3
			c0.2,0.8,0.5,1.4,0.9,2c0.4,0.6,0.9,1.1,1.6,1.4c0.6,0.4,1.4,0.5,2.3,0.5c0.6,0,1.2-0.1,1.7-0.4s0.9-0.6,1.3-1
			c0.4-0.4,0.7-0.9,0.9-1.4c0.2-0.6,0.4-1.2,0.4-1.8h1.3c-0.1,0.9-0.3,1.7-0.6,2.4s-0.7,1.3-1.2,1.8s-1,0.9-1.7,1.1
			c-0.6,0.3-1.4,0.4-2.1,0.4c-1,0-2-0.2-2.8-0.6c-0.8-0.4-1.4-1-2-1.6s-0.9-1.5-1.2-2.4c-0.3-0.9-0.4-1.8-0.4-2.8
			c0-1,0.1-1.9,0.4-2.8c0.3-0.9,0.7-1.7,1.2-2.4c0.5-0.7,1.2-1.2,2-1.6c0.8-0.4,1.7-0.6,2.8-0.6c0.6,0,1.3,0.1,1.9,0.3
			s1.2,0.5,1.6,0.9c0.5,0.4,0.9,0.9,1.2,1.5c0.3,0.6,0.5,1.2,0.6,2H285C284.9,35.3,284.8,34.8,284.5,34.4z"/>
		<path id="XMLID_161_" class="st0" d="M292.2,31.5v8.8c0,0.8,0.1,1.5,0.3,2.1c0.2,0.6,0.4,1.1,0.8,1.4c0.3,0.4,0.7,0.6,1.2,0.8
			c0.5,0.2,1,0.2,1.6,0.2c0.6,0,1.2-0.1,1.7-0.2c0.5-0.2,0.9-0.4,1.2-0.8c0.3-0.4,0.6-0.8,0.8-1.4c0.2-0.6,0.3-1.3,0.3-2.1v-8.8h1.3
			v9.1c0,0.7-0.1,1.4-0.3,2.1c-0.2,0.7-0.5,1.2-0.9,1.7c-0.4,0.5-1,0.9-1.6,1.2c-0.7,0.3-1.4,0.4-2.4,0.4c-0.9,0-1.7-0.1-2.4-0.4
			c-0.7-0.3-1.2-0.7-1.6-1.2c-0.4-0.5-0.7-1.1-0.9-1.7c-0.2-0.7-0.3-1.4-0.3-2.1v-9.1H292.2z"/>
		<path id="XMLID_163_" class="st0" d="M307.7,31.5v13.1h7.5v1.2h-8.7V31.5H307.7z"/>
		<path id="XMLID_165_" class="st0" d="M320.2,31.5v8.8c0,0.8,0.1,1.5,0.3,2.1c0.2,0.6,0.4,1.1,0.8,1.4c0.3,0.4,0.7,0.6,1.2,0.8
			c0.5,0.2,1,0.2,1.6,0.2c0.6,0,1.2-0.1,1.7-0.2c0.5-0.2,0.9-0.4,1.2-0.8c0.3-0.4,0.6-0.8,0.8-1.4c0.2-0.6,0.3-1.3,0.3-2.1v-8.8h1.3
			v9.1c0,0.7-0.1,1.4-0.3,2.1c-0.2,0.7-0.5,1.2-0.9,1.7c-0.4,0.5-1,0.9-1.6,1.2c-0.7,0.3-1.4,0.4-2.4,0.4c-0.9,0-1.7-0.1-2.4-0.4
			c-0.7-0.3-1.2-0.7-1.6-1.2c-0.4-0.5-0.7-1.1-0.9-1.7c-0.2-0.7-0.3-1.4-0.3-2.1v-9.1H320.2z"/>
		<path id="XMLID_167_" class="st0" d="M336.3,31.5l4.4,12.5l4.6-12.5h1.9v14.3h-1.3V33.5h0l-4.6,12.3h-1.2l-4.4-12.3h0v12.3h-1.3
			V31.5H336.3z"/>
	</g>
</g>
</svg>
