<svg xmlns="http://www.w3.org/2000/svg" viewBox="0 0 0 0"><defs><linearGradient y2="6.8265" x2="15.9994" y1="14.5937" x1="15.9994" gradientUnits="userSpaceOnUse" id="edu_app-SVGID_1_"> <stop style="stop-color:#FFFFFF;stop-opacity:0.5" offset="0"/> <stop style="stop-color:#4D4D4D;stop-opacity:0" offset="1"/> </linearGradient><linearGradient y2="10.4999" x2="16.9996" y1="10.4999" x1="8.9996" gradientUnits="userSpaceOnUse" id="edu_app-SVGID_2_"> <stop style="stop-color:#FFFFFF" offset="0"/> <stop style="stop-color:#FFFFFF;stop-opacity:0" offset="1"/> </linearGradient><linearGradient gradientTransform="matrix(-1 0 0 -1 109 46)" y2="24.5001" x2="94.0004" y1="24.5001" x1="86.0004" gradientUnits="userSpaceOnUse" id="edu_app-SVGID_3_"> <stop style="stop-color:#FFFFFF" offset="0"/> <stop style="stop-color:#FFFFFF;stop-opacity:0" offset="1"/> </linearGradient><radialGradient gradientUnits="userSpaceOnUse" gradientTransform="matrix(0.9643 0 0 -0.7055 7.1429 -127.3715)" r="7.1133" cy="-202.4702" cx="10.222" id="social_you-SVGID_1_"> <stop style="stop-color:#F1F1F1" offset="0"/> <stop style="stop-color:#FFFFFF" offset="1"/> </radialGradient><radialGradient gradientUnits="userSpaceOnUse" gradientTransform="matrix(0.9643 0 0 -0.7055 -9 25.954)" r="7.1134" cy="20.5298" cx="26.9626" id="social_you_hover-SVGID_1_"> <stop style="stop-color:#F1F1F1" offset="0"/> <stop style="stop-color:#FFFFFF" offset="1"/> </radialGradient></defs><symbol id="icon-account" viewBox="0 0 32 32"><title>account</title> <g id="account-icons"> <g> <path d="M25.7,14.3c0.2,0.6,0.3,1.1,0.3,1.7c0,3.3-2.7,6-6,6c0,0,0,0-0.1,0c-0.1-1-0.6-1.6-1.9-2
			c-1-0.3-1.7-0.5-2.3-0.7c-0.2-0.1-0.5-0.2-0.7-0.3c-0.5-0.2-0.8-1.1-0.5-1.6c0.1-0.3,0.5-0.7,0.7-1.4c0,0,0,0,0,0c0,0,0,0,0,0
			c0.3-0.1,0.6-0.3,0.7-0.7l0.1-0.5c0.1-0.3-0.1-0.6-0.4-0.8c0.1-0.7,0-1.3-0.2-1.9c1.1-1.3,2.8-2.2,4.6-2.2c1.1,0,2.2,0.3,3.1,0.9
			l0.7-0.7C22.7,9.4,21.4,9,20,9c-2.1,0-4,0.9-5.3,2.4C14.3,11.2,13.8,11,13,11c-2.4,0-2.7,1.4-2.5,3.1c-0.3,0.1-0.5,0.4-0.4,0.8
			l0.1,0.5c0.1,0.3,0.3,0.6,0.7,0.7c0,0,0,0,0,0c0,0,0,0,0,0c0.2,0.7,0.6,1.2,0.7,1.4c0.3,0.5,0,1.4-0.5,1.6
			c-0.2,0.1-0.5,0.2-0.7,0.3C9.7,19.5,9,19.7,8,20c-1.8,0.5-2,1.4-2,3h14c3.9,0,7-3.1,7-7c0-0.9-0.2-1.7-0.5-2.5L25.7,14.3z"/> <polygon points="18,14 17,15 20,18 28,10 27,9 20,16 		"/> </g> </g>   </symbol><symbol id="icon-activate" viewBox="0 0 32 32"><title>activate</title> <g id="activate-icons"> <g> <g> <path d="M21.7,14.3c0.2,0.6,0.3,1.1,0.3,1.7c0,3.3-2.7,6-6,6s-6-2.7-6-6s2.7-6,6-6c1.1,0,2.2,0.3,3.1,0.9l0.7-0.7
				C18.7,9.4,17.4,9,16,9c-3.9,0-7,3.1-7,7c0,3.9,3.1,7,7,7s7-3.1,7-7c0-0.9-0.2-1.7-0.5-2.5L21.7,14.3z"/> </g> <g> <polygon points="14,14 13,15 16,18 24,10 23,9 16,16 			"/> </g> </g> </g>   </symbol><symbol id="icon-arrange" viewBox="0 0 32 32"><title>arrange</title> <g id="arrange-icons"> <g> <rect height="2" width="12" fill="#777777" y="11" x="10"/> <rect height="2" width="10" fill="#777777" y="15" x="10"/> <rect height="2" width="8" fill="#777777" y="19" x="10"/> </g> </g>   </symbol><symbol id="icon-arrow_down" viewBox="0 0 32 32"><title>arrow_down</title> <g id="arrow_down-icons"> <g> <g> <path d="M10,12h12l-6,8L10,12z" fill="#777777"/> </g> </g> </g>   </symbol><symbol id="icon-arrow_right" viewBox="0 0 32 32"><title>arrow_right</title> <g id="arrow_right-icons"> <g> <g> <path d="M12,22V10l8,6L12,22z" fill="#777777"/> </g> </g> </g>   </symbol><symbol id="icon-arrow_up" viewBox="0 0 32 32"><title>arrow_up</title> <g id="arrow_up-icons"> <g> <g> <path d="M22,20H10l6-8L22,20z" fill="#777777"/> </g> </g> </g>   </symbol><symbol id="icon-breadcrumbs" viewBox="0 0 32 32"><title>breadcrumbs</title> <g id="breadcrumbs-icons"> <g> <rect height="1" width="2" fill="#777777" y="10" x="14"/> <path d="M15,22L15,22c-0.6,0-1-0.4-1-1v-4h2v4C16,21.6,15.6,22,15,22z" fill="#777777"/> <g> <polygon points="19,16 10,16 10,12 19,12 21,14 			" fill="#777777"/> </g> </g> </g>   </symbol><symbol id="icon-browse" viewBox="0 0 32 32"><title>browse</title> <g id="browse-icons"> <path d="M23.7,22.3L20,18.6c0.6-0.9,1-2,1-3.1c0-3-2.5-5.5-5.5-5.5S10,12.5,10,15.5s2.5,5.5,5.5,5.5
		c1.2,0,2.2-0.4,3.1-1l3.7,3.7c0.4,0.4,1,0.4,1.4,0C24.1,23.3,24.1,22.7,23.7,22.3z M11,15.5c0-2.5,2-4.5,4.5-4.5s4.5,2,4.5,4.5
		S18,20,15.5,20S11,18,11,15.5z"/> </g>   </symbol><symbol id="icon-contact" viewBox="0 0 32 32"><title>contact</title> <g id="contact-icons"> <path d="M22,11l-12,0c-0.6,0-1,0.4-1,1v8c0,0.6,0.4,1,1,1h12c0.6,0,1-0.4,1-1v-8C23,11.4,22.6,11,22,11z M21.2,12
		L16,16.3L10.8,12H21.2z M10,20v-7.3l6,5l6-5V20H10z"/> </g>   </symbol><symbol id="icon-cookies" viewBox="0 0 32 32"><title>cookies</title> <g id="cookies-icons"> <path d="M16,4c6.6,0,11.9,5.3,12,11.9c0.1,6.6-5.3,12-11.9,12.1L16,28C9.4,28,4.1,22.7,4,16.1
		C3.9,9.5,9.3,4.1,15.9,4L16,4 M16,2c0,0-0.1,0-0.1,0C8.1,2.1,1.9,8.4,2,16.1C2.1,23.8,8.3,30,16,30c0,0,0.1,0,0.1,0
		c7.7-0.1,13.9-6.4,13.9-14.1C29.9,8.2,23.7,2,16,2L16,2z" fill="#E6E6E6"/> <g> <path d="M16,19.7c1.1,0,1.8,0.6,1.8,1.6c0,1-0.7,1.6-1.8,1.6c-1.2,0-1.8-0.7-1.8-1.6C14.2,20.4,14.9,19.7,16,19.7z
			 M14.4,13.4V9h3.3v4.5l-0.3,5h-2.7L14.4,13.4z" fill="#E6E6E6"/> </g> </g>   </symbol><symbol id="icon-delete" viewBox="0 0 32 32"><title>delete</title> <g id="delete-icons"> <g> <path d="M25,8H13.8c-0.5,0-1,0.2-1.4,0.6L5,16l7.4,7.4c0.4,0.4,0.9,0.6,1.4,0.6H25c1.1,0,2-0.9,2-2V10
			C27,8.9,26.1,8,25,8z M23,19l-1,1l-3-3l-3,3l-1-1l3-3l-3-3l1-1l3,3l3-3l1,1l-3,3L23,19z" fill="#FA6060"/> </g> </g>   </symbol><symbol id="icon-dismiss" viewBox="0 0 32 32"><title>dismiss</title> <g id="dismiss-icons"> <g> <g> <g> <g> <path d="M21.7,10.3c-3.1-3.1-8.2-3.1-11.3,0c-3.1,3.1-3.1,8.2,0,11.3s8.2,3.1,11.3,0
						C24.8,18.5,24.8,13.5,21.7,10.3z M19.5,18.5l-1,1L16,17l-2.5,2.5l-1-1L15,16l-2.5-2.5l1-1L16,15l2.5-2.5l1,1L17,16L19.5,18.5z" fill="#E6E6E6"/> </g> </g> </g> </g> </g>   </symbol><symbol id="icon-edu_app" viewBox="0 0 32 32"><title>edu_app</title> <g id="edu_app-icons"> <g> <g> <path d="M10.8,24h10.4c1.5,0,2.8-1.3,2.8-2.8V10.8C24,9.3,22.7,8,21.2,8H10.8C9.3,8,8,9.3,8,10.8v10.4
				C8,22.7,9.3,24,10.8,24z"/> </g>  <path d="M21.2,9H10.8C9.8,9,9,9.8,9,10.8v2.9c2,0.5,4.4,0.8,7,0.8c2.6,0,4.9-0.3,7-0.8v-3
			C23,9.8,22.2,9,21.2,9z" fill="url(#edu_app-SVGID_1_)" opacity="0.64"/>  <path d="M16,10h-5c-1.4,0-2,1-2,2c0,0,0-1.7,0-1l0,0c0-1.3,0.7-2,2-2h6L16,10z" fill="url(#edu_app-SVGID_2_)" opacity="0.32"/>  <path d="M16,22h5c1.4,0,2-1,2-2c0,0,0,1.7,0,1l0,0c0,1.3-0.7,2-2,2h-6L16,22z" fill="url(#edu_app-SVGID_3_)" opacity="0.32"/> <g> <g> <path d="M17.2,20.1l0.2-1.3l-0.1,0c-0.9,0.9-1.8,1.5-2.9,1.5c-1.5,0-2.4-1-2.4-3.2c0-2.4,1-5.4,4-5.4
					c0.9,0,1.6,0.4,2.2,0.9l0.3-0.7h2c-0.1,0.7-0.3,1.4-0.4,2.1l-0.6,4.6c0,0.2,0,0.3,0.2,0.3l0.7,0.1l-0.2,1.2H17.2z M17.8,14.1
					c-0.3-0.3-0.9-0.6-1.4-0.6c-1.5,0-2,2.3-2,3.4c0,0.9,0.3,1.4,0.9,1.4c0.6,0,1.5-0.6,2.1-1.2L17.8,14.1z" fill="#333333"/> </g> <g> <path d="M16.8,20.1l0.2-1.3l-0.1,0c-0.9,0.9-1.8,1.5-2.9,1.5c-1.5,0-2.4-1-2.4-3.2c0-2.4,1-5.4,4-5.4
					c0.9,0,1.6,0.4,2.2,0.9l0.3-0.7h2c-0.1,0.7-0.3,1.4-0.4,2.1L19,18.5c0,0.2,0,0.3,0.2,0.3l0.7,0.1l-0.2,1.2H16.8z M17.4,14.1
					c-0.3-0.3-0.9-0.6-1.4-0.6c-1.5,0-2,2.3-2,3.4c0,0.9,0.3,1.4,0.9,1.4c0.6,0,1.5-0.6,2.1-1.2L17.4,14.1z" fill="#FFFFFF"/> </g> </g> </g> </g>   </symbol><symbol id="icon-edu_cdr" viewBox="0 0 32 32"><title>edu_cdr</title> <g id="edu_cdr-icons"> <g> <path d="M24.5,11.7c0-0.4-0.1-0.7-0.2-1.1c-0.1-0.3-0.3-0.7-0.6-0.9c-0.2-0.1-0.4-0.2-0.6-0.3l0.3-0.2L13.6,8
			L6,14.4l4.3,0l0.5,1.8l9.3-2.7l-0.6-1.9l3.4-2c0.2,0.1,0.4,0.2,0.6,0.4c0.2,0.2,0.3,0.5,0.4,0.8c0.1,0.3,0.1,0.6,0,0.9
			c0,0.3-0.1,0.6-0.2,0.9c-0.2,0.6-0.5,1.1-0.7,1.8c-0.2,0.7-0.3,1.4-0.1,2.1l0.1,0c0.2-0.3,0.3-0.6,0.4-0.9l0.4-0.9
			c0.1-0.3,0.3-0.6,0.4-0.9c0.1-0.3,0.2-0.7,0.2-1C24.5,12.4,24.5,12,24.5,11.7z"/> <path d="M20.4,13.7l-1.1,0.3l-1.7,2.2c-0.1,0-0.1-0.1-0.2-0.1l0.7-1.7l-7.2,2.1c-0.1,0.3-0.2,0.7-0.2,1
			c-0.3,3.2,2.1,6.1,5.4,6.4c3.2,0.3,6.1-2.1,6.4-5.4C22.5,16.7,21.8,14.9,20.4,13.7z M11.6,19.7l2.9-0.9c0.1,0.3,0.3,0.6,0.5,0.8
			L13.1,22C12.4,21.4,11.9,20.6,11.6,19.7z M14.6,22.9L14.6,22.9c-0.3-0.1-0.7-0.3-0.9-0.5l1.9-2.4c0.1,0,0.1,0.1,0.2,0.1L14.6,22.9
			z M18.3,18.3c-0.1,1-1,1.7-1.9,1.6s-1.7-1-1.6-1.9c0.1-1,1-1.7,1.9-1.6C17.7,16.4,18.4,17.3,18.3,18.3z M18.6,17.5
			c-0.1-0.3-0.2-0.6-0.5-0.8l1.9-2.4c0.7,0.6,1.2,1.4,1.4,2.3L18.6,17.5z"/> </g> </g>   </symbol><symbol id="icon-edu_epub" viewBox="0 0 32 32"><title>edu_epub</title> <g id="edu_epub-icons"> <g> <path d="M13.7,15.3c0-1.4,1-2.5,2.3-2.5c1.4,0,2.3,1.1,2.3,2.6v0.2h-3.8c0.1,0.9,0.7,1.6,1.7,1.6
			c0.6,0,1.1-0.2,1.5-0.6L18,17c-0.5,0.5-1.1,0.7-1.9,0.7C14.7,17.8,13.7,16.8,13.7,15.3z M16,13.4c-1,0-1.5,0.9-1.6,1.6h3.1
			C17.6,14.3,17.1,13.4,16,13.4z"/> </g> <path d="M21.4,8H10.6C9.7,8,9,8.7,9,9.6v12.8c0,0.9,0.7,1.6,1.6,1.6h10.8c0.9,0,1.6-0.7,1.6-1.6V9.6
		C23,8.7,22.3,8,21.4,8z M16,23c-0.3,0-0.5-0.2-0.5-0.5c0-0.3,0.2-0.5,0.5-0.5s0.5,0.2,0.5,0.5C16.5,22.8,16.3,23,16,23z M21,21H11
		V10h10V21z"/> </g>   </symbol><symbol id="icon-edu_hotmath" viewBox="0 0 32 32"><title>edu_hotmath</title> <g id="edu_hotmath-icons"> <g> <path d="M21,8H11c-1.7,0-3,1.4-3,3v10c0,1.7,1.4,3,3,3h10c1.7,0,3-1.4,3-3V11C24,9.4,22.6,8,21,8z M23,21
			c0,1.1-0.9,2-2,2H11c-1.1,0-2-0.9-2-2V11c0-1.1,0.9-2,2-2h10c1.1,0,2,0.9,2,2V21z"/> <path d="M18.3,16.6c-0.2-0.5-0.4-0.9-0.5-1.1c-0.2-0.4-0.3-1-0.4-1.7c0-0.7,0.3-1.1,0.3-1.1s-0.2,0.2-0.4,0.6
			c-0.1,0.2-0.2,0.6-0.2,1c0,0.4,0.2,0.8,0.3,1c0.1,0.5,0.3,1.1,0.4,1.7c0.1,0.6,0.1,1.4,0,1.6c-0.2,0.2-0.4,0.1-0.6-0.1
			c-0.1-0.1,0.1-1,0.2-1.5c0-0.5-0.1-1.1-0.3-1.7c-0.2-0.5-0.5-0.8-0.9-1.2c-0.2-0.3-0.3-0.6-0.4-0.7c-0.2-0.4-0.4-1-0.4-1.5
			c0-0.5,0.1-0.8,0.3-1.1c0.3-0.5,1.2-1.1,1.2-1.1s-1,0.3-1.6,1c-0.6,0.7-0.6,1.8-0.4,2.6c0.1,0.5,0.4,1.1,0.7,1.6
			c0.2,0.4,0.5,0.6,0.6,0.9c0.3,0.7,0.3,1.2,0.1,1.8c-0.1,0.3-0.3,0.6-0.5,0.8c-0.3,0.2-0.5,0.4-0.7,0.4c-0.2,0-0.3-0.1-0.3-0.2
			c0-0.1,0-0.2,0-0.3c0.1-0.3,0.5-0.8,0.5-1.7c0-0.9-0.4-1.6-0.6-1.9c-0.2-0.3-0.4-0.9-0.4-1.2c0-0.3,0.2-1,0.2-1S14.1,13,14,13.6
			c-0.1,0.6,0.2,1.1,0.3,1.3c0.1,0.2,0.2,0.7,0.2,1.4c0,0.8-0.6,1.5-0.7,1.7c-0.1,0.2-0.5,0.6-0.5,1.2c0,0.2,0.1,0.5,0.2,0.7
			c0.2,0.3,0.5,0.6,0.7,0.7c0.4,0.2,0.8,0.1,1.5,0c0.8-0.1,1.1,0.2,1.3,0.5c0.2,0.3,0.1,0.6-0.2,0.7c-0.3,0.2-0.9-0.2-1-0.2
			c-0.1-0.1-1-0.5-1-0.5s0.3,0.3,0.5,0.5c0.2,0.2,0.9,0.7,1.5,0.8c0.4,0,0.9-0.1,1.3-0.5c0.2-0.2,0.3-0.5,0.5-0.8
			c0.2-0.4,0.3-1,0.3-1.5c0-0.5,0-0.9,0-1.3C18.7,17.8,18.5,17.2,18.3,16.6z"/> </g> </g>   </symbol><symbol id="icon-edu_interactive" viewBox="0 0 32 32"><title>edu_interactive</title> <g id="edu_interactive-icons"> <g> <g> <path d="M25.3,9.4h-0.5l-1.2-1.1l-0.1-0.1c-1-0.2-1.8-0.2-2.6-0.2c-1.9,0-3.5,0.4-5.1,1.4h-1.6
				C12.6,8.4,11,8,9.1,8C8.3,8,7.4,8.1,6.5,8.2l-0.1,0L5.2,9.4H4.7L4,10.1v13.1L4.7,24h20.5l0.7-0.7V10.1L25.3,9.4z M4.9,10.2
				l1.4-1.4v12.6l-1.4,1.4V10.2z M5.2,23.1l1.4-1.4h0c0,0,0,0,0,0c0.9-0.1,1.8-0.2,2.6-0.2c2,0,3.6,0.5,5.3,1.6H5.2z M14.8,21.6
				l4.8-1.8l-0.5-1.4l0.4-0.2L19,16.7l-0.5,0.2l0.6,1.5l-0.5,0.2l0.3,0.9l-3.9,1.5L14.8,20l-0.5,0.2L14.8,21.6l0,1.3
				c-1.7-1.2-3.5-1.8-5.7-1.8c-0.6,0-1.2,0-1.9,0.1h0c-0.1,0-0.3,0-0.4,0.1h0c-0.1,0-0.1,0-0.2,0v-0.1V8.6c0.9-0.1,1.7-0.2,2.4-0.2
				c1.6,0,3,0.3,4.4,1c0.2,0.1,0.4,0.2,0.6,0.4c0.2,0.1,0.4,0.2,0.5,0.4c0.1,0,0.1,0.1,0.2,0.1V13l0.1,0l-0.5,0.2l-0.2-0.5L13.3,13
				l-0.7-1.9l-0.6,0.2l1.6,4.3l0.5-0.2l-0.7-1.9l1-0.4l0.7,1.8l0.5-0.2l-0.5-1.4l0.9-0.3l0.7,1.8l0.5-0.2l-0.5-1.4l0.5-0.2l0.2,0.5
				l0.5-0.2L17.6,13l-0.5,0.2L17,12.7l-1,0.4l-0.2-0.5l-0.6,0.2v-2.6c0.1,0,0.1-0.1,0.2-0.1c0.2-0.1,0.4-0.3,0.5-0.4
				c0.2-0.1,0.4-0.3,0.6-0.4c1.4-0.7,2.8-1,4.4-1c0.7,0,1.5,0.1,2.4,0.2v12.6v0.1c-0.1,0-0.1,0-0.2,0h0c-0.1,0-0.3,0-0.4-0.1
				c-0.7-0.1-1.3-0.1-1.9-0.1c-2.2,0-3.9,0.6-5.7,1.8v-1.5L14.8,21.6z M15.6,23.1c1.6-1.1,3.3-1.6,5.3-1.6c0.8,0,1.6,0.1,2.6,0.2h0
				l1.4,1.4H15.6z M25.1,22.8l-1.4-1.4V8.8l1.4,1.4V22.8z"/> </g> <g> <rect height="0.6" width="3.5" transform="matrix(-0.3569 -0.9342 0.9342 -0.3569 11.3289 37.7718)" y="14.7" x="16.9"/> </g> <g> <rect height="1" width="0.5" transform="matrix(-0.3565 -0.9343 0.9343 -0.3565 5.0605 26.0646)" y="10.8" x="11.3"/> </g> <g> <polygon points="13.5,19.4 13.1,18.4 12.6,18.6 12.3,17.7 11.8,17.8 11.6,17.4 11.2,17.5 10.8,16.6 11.7,16.3 
				11.9,16.7 12.3,16.5 13,18.1 13,18.1 13.5,17.9 11.1,11.7 10.6,11.9 12.2,16.1 11.7,16.2 11.6,15.7 10.1,16.3 10.7,17.8 
				11.2,17.6 11.4,18.1 11.8,17.9 12.2,18.8 12.7,18.7 13,19.6 13.5,19.4 13.8,20.4 14.3,20.2 13.9,19.2 			"/> </g> </g> </g>   </symbol><symbol id="icon-edu_online" viewBox="0 0 32 32"><title>edu_online</title> <g id="edu_online-icons"> <g> <polygon points="20,15.9 19.6,14.7 19.1,14.8 19.6,16.1 19.2,16.2 19.5,17 16.1,18.3 15.8,17.5 15.4,17.6 
			15.9,18.8 20.1,17.3 19.6,16.1 		"/> <polygon points="19.6,14.7 20,14.5 19,11.7 18.5,11.8 		"/> <polygon points="14.9,13.7 15.4,13.5 14.8,11.8 15.6,11.5 16.2,13.1 16.6,13 16.2,11.8 17,11.5 17,11.5 17.6,13.1 
			18,12.9 17.5,11.7 18,11.6 18.1,12 18.5,11.8 18.4,11.4 18,11.6 17.8,11.2 17,11.5 17,11.5 17,11.5 16.8,11 15.6,11.5 15.5,11.1 
			14.7,11.4 14.1,9.8 13.6,9.9 		"/> <polygon points="13.1,13.7 11.8,14.2 12.3,15.5 12.7,15.3 12.9,15.8 13.3,15.6 13.6,16.4 14,16.3 14.3,17.1 
			14.7,17 15,17.8 15.4,17.6 15.1,16.8 14.7,16.9 14.4,16.1 14,16.3 13.7,15.4 13.3,15.6 13.1,15.1 12.8,15.3 12.5,14.5 13.2,14.2 
			13.3,14.6 13.8,14.4 14.3,15.8 14.3,15.8 14.7,15.7 12.7,10.2 12.3,10.4 13.6,14 13.2,14.2 		"/> <polygon points="13.6,9.9 13.4,9.5 12.6,9.8 12.8,10.2 		"/> <path d="M23,8H9C8.4,8,8,8.5,8,9v10c0,0.5,0.4,1,1,1h6v1h-3l-2,2v1h12v-1l-2-2h-3v-1h6c0.6,0,1-0.5,1-1V9
			C24,8.5,23.5,8,23,8z M19.2,21.6v0.5h0.5v0.5h0.5v0.5h-8.5v-0.5h0.5v-0.5h0.5v-0.5H19.2z M23,19H9V9h14V19z"/> </g> </g>   </symbol><symbol id="icon-edu_pdf" viewBox="0 0 32 32"><title>edu_pdf</title> <g id="edu_pdf-icons"> <g> <path d="M12.6,15.6C12.6,15.6,12.7,15.6,12.6,15.6c0.1,0,0.1,0,0.2,0c0.1,0,0.2,0,0.3,0c0.1,0,0.2-0.1,0.3-0.1
			c0.1,0,0.1-0.1,0.2-0.2c0-0.1,0.1-0.2,0.1-0.3c0-0.1,0-0.2-0.1-0.3c0-0.1-0.1-0.1-0.2-0.2c-0.1,0-0.1-0.1-0.2-0.1
			c-0.1,0-0.2,0-0.3,0c-0.1,0-0.1,0-0.2,0c-0.1,0-0.1,0-0.2,0v1.2C12.5,15.6,12.5,15.6,12.6,15.6C12.6,15.6,12.6,15.6,12.6,15.6z"/> <path d="M15.5,16.9C15.5,16.9,15.5,16.9,15.5,16.9c0.1,0,0.1,0,0.2,0c0,0,0.1,0,0.1,0c0,0,0.1,0,0.1,0
			c0.2,0,0.4,0,0.5-0.1c0.1-0.1,0.2-0.2,0.3-0.3c0.1-0.1,0.1-0.3,0.2-0.4c0-0.2,0-0.3,0-0.5c0-0.1,0-0.3,0-0.4
			c0-0.1-0.1-0.3-0.2-0.4c-0.1-0.1-0.2-0.2-0.3-0.3c-0.1-0.1-0.3-0.1-0.5-0.1c-0.1,0-0.2,0-0.2,0c-0.1,0-0.1,0-0.2,0V16.9z"/> <path d="M26.3,9.4h-0.5l-1.2-1.1l-0.1-0.1c-1-0.2-1.8-0.2-2.6-0.2c-1.9,0-3.5,0.4-5.1,1.4h-1.6
			C13.6,8.4,12,8,10.1,8C9.3,8,8.4,8.1,7.5,8.2L7.4,8.3L6.2,9.4H5.7L5,10.1v13.1L5.7,24h20.5l0.7-0.7V10.1L26.3,9.4z M21.9,8.4
			c0.7,0,1.5,0.1,2.4,0.2v3.5l-3.9-3.6C20.9,8.4,21.4,8.4,21.9,8.4z M20.1,11.2V8.6l3.8,3.6c-0.5,0-1-0.1-1.4-0.1
			c-0.9,0-1.8,0.1-2.4,0.2V11.2z M20.3,15.4V16h-1.4v1.5h-0.7v-3.7h2.2v0.7h-1.5v0.9H20.3z M16.2,10.3c0.1,0,0.1-0.1,0.2-0.1
			c0.2-0.1,0.4-0.3,0.5-0.4c0.2-0.1,0.4-0.3,0.6-0.4C18.3,9,19,8.7,19.8,8.6v2.7c-1.3,0.3-2.5,0.8-3.6,1.6V10.3z M16.7,13.9
			c0.2,0.1,0.4,0.2,0.6,0.4c0.1,0.2,0.3,0.4,0.3,0.6c0.1,0.2,0.1,0.5,0.1,0.8c0,0.3,0,0.5-0.1,0.7c-0.1,0.2-0.2,0.4-0.3,0.6
			c-0.1,0.2-0.3,0.3-0.6,0.4c-0.2,0.1-0.5,0.2-0.9,0.2c-0.1,0-0.1,0-0.2,0c-0.1,0-0.2,0-0.3,0c-0.1,0-0.2,0-0.3,0
			c-0.1,0-0.2,0-0.2,0v-3.7c0.1,0,0.2,0,0.3,0c0.1,0,0.2,0,0.3,0c0.1,0,0.2,0,0.3,0c0.1,0,0.2,0,0.3,0
			C16.2,13.7,16.5,13.8,16.7,13.9z M7.7,8.6c0.9-0.1,1.7-0.2,2.4-0.2c1.6,0,3,0.3,4.4,1c0.2,0.1,0.4,0.2,0.6,0.4
			c0.2,0.1,0.4,0.2,0.5,0.4c0.1,0,0.1,0.1,0.2,0.1v2.6c-2.3-1.7-5.4-2.1-8.1-1.6V8.6z M14.3,15c0,0.2,0,0.4-0.1,0.6
			c-0.1,0.2-0.2,0.3-0.3,0.4c-0.1,0.1-0.3,0.2-0.5,0.2c-0.2,0-0.3,0.1-0.5,0.1c0,0,0,0-0.1,0c0,0-0.1,0-0.1,0c0,0-0.1,0-0.1,0
			c0,0-0.1,0-0.1,0v1.3h-0.7v-3.7c0.1,0,0.3-0.1,0.5-0.1c0.2,0,0.4,0,0.5,0c0.2,0,0.4,0,0.6,0c0.2,0,0.4,0.1,0.5,0.2
			c0.2,0.1,0.3,0.2,0.4,0.4C14.3,14.5,14.3,14.7,14.3,15z M5.9,10.2l1.4-1.4v12.6l-1.4,1.4V10.2z M6.2,23.1l1.4-1.4h0
			c0.9-0.1,1.8-0.2,2.6-0.2c2,0,3.6,0.5,5.3,1.6H6.2z M15.8,22.9c-1.8-1.2-3.5-1.8-5.7-1.8c-0.6,0-1.2,0-1.9,0.1
			c-0.1,0-0.3,0-0.4,0.1c-0.1,0-0.1,0-0.2,0v-0.1V19c2.8-0.5,5.8-0.2,8.1,1.6V22.9z M16.2,20.5c2.3-1.7,5.4-2.1,8.1-1.6v2.3v0.1
			c-0.1,0-0.1,0-0.2,0c-0.1,0-0.3,0-0.4-0.1c-0.7-0.1-1.3-0.1-1.9-0.1c-2.2,0-3.9,0.6-5.7,1.8V20.5z M16.6,23.1
			c1.6-1.1,3.3-1.6,5.3-1.6c0.8,0,1.6,0.1,2.6,0.2l1.4,1.4H16.6z M26.1,22.8l-1.4-1.4V8.8l1.4,1.4V22.8z"/> </g> </g>   </symbol><symbol id="icon-edu_tlkt" viewBox="0 0 32 32"><title>edu_tlkt</title> <g id="edu_tlkt-icons"> <g> <g> <polygon points="21.7,16.9 23.8,16.9 21.8,14.1 21.7,14.1 			"/> <polygon points="10.3,14.1 10.2,14.1 8.2,16.9 10.3,16.9 			"/> <rect height="0.7" width="0.7" transform="matrix(-0.7071 -0.7071 0.7071 -0.7071 16.5403 48.7022)" y="20.6" x="18"/> <path d="M8,17.2v6.6L8.2,24h15.7l0.2-0.2v-6.6H8z M13.4,22.5c-0.7,0-1.2-0.4-1.5-1H13l0.2-0.2v-0.9L13,20.3h-1.1
				c0.2-0.6,0.8-1,1.5-1c0.9,0,1.6,0.7,1.6,1.6C15,21.8,14.3,22.5,13.4,22.5z M19.3,21.4l-0.4,0.4h-3.8l0,0c0.1-0.3,0.2-0.6,0.2-0.9
				c0-0.3-0.1-0.6-0.2-0.9l0,0h3.8l0.4,0.4V21.4z"/> <path d="M11.7,14.1h-1v2.8h1h8.7h1v-2.8h-1v-0.3h1.4V9.3l-0.2-0.2h-1.2V8h-8.7v1.2h-1.2l-0.2,0.2v4.4h1.3V14.1z
				 M12,9.2V8.3h8v0.9v7.4h-8V9.2z"/> </g> <g> <g> <g> <polygon points="18.1,12.6 18.1,13 16.7,13 16.7,13.6 16.7,13.6 16.4,13.6 16.4,12.6 16.4,12.6 16.7,12.6 
						17.4,12.6 17.4,12.4 17.7,12.4 17.7,12.6 					"/> <polygon points="17.7,14.9 17.7,15.6 17.4,15.6 17.4,15.6 17.4,14.9 17.4,14.9 					"/> <rect height="0.3" width="0.3" y="12" x="17"/> <polygon points="17.4,14.3 17.4,14.9 17.4,14.9 17,14.9 17,14.3 17,14.3 					"/> <polygon points="17.4,15.6 17.4,15.9 16.7,15.9 16.7,15.6 16.7,15.6 17.4,15.6 					"/> <rect height="0.3" width="0.3" y="11.7" x="16.7"/> <polygon points="17,13.6 17,14.3 17,14.3 16.7,14.3 16.7,13.6 16.7,13.6 					"/> <polygon points="16.7,14.9 16.7,15.6 16.7,15.6 16.4,15.6 16.4,14.9 					"/> <rect height="0.3" width="0.3" y="11.3" x="16.4"/> <polygon points="16.4,14.9 16.4,15 16,15 16,14.3 16,14.3 16.4,14.3 					"/> <rect height="0.3" width="0.3" y="11" x="16"/> <polygon points="16,13.6 16,14.3 16,14.3 15.7,14.3 15.7,13.6 15.7,13.6 					"/> <rect height="0.3" width="0.3" y="10.7" x="15.7"/> <rect height="0.3" width="0.3" y="10.3" x="15.4"/> <polygon points="15.7,13.6 15.7,13.6 15.4,13.6 15.3,13.6 15.3,13 15.7,13 					"/> <rect height="0.3" width="0.3" y="10" x="15"/> <polygon points="15.4,13.6 15.4,14 15,14 15,13.6 15.3,13.6 					"/> <rect height="0.3" width="0.3" y="14" x="14.7"/> <rect height="0.3" width="0.3" y="9.7" x="14.7"/> <polygon points="14.7,14.3 14.7,14.6 14.3,14.6 14.3,14.9 14,14.9 14,9 14.3,9 14.3,9.3 14.7,9.3 14.7,9.6 
						14.3,9.6 14.3,14.3 					"/> </g> </g> </g> </g> </g>   </symbol><symbol id="icon-edu_trp" viewBox="0 0 32 32"><title>edu_trp</title> <g id="edu_trp-icons"> <g> <polygon points="12.9,13.8 12.9,13.8 12.9,17.4 19.1,17.4 19.1,11.9 16.8,12.6 16.8,12.8 17.1,12.8 17.1,13 
			17.4,13 17.4,13.3 17.6,13.3 17.6,13.6 17.9,13.6 17.9,13.8 18.2,13.8 18.2,14.5 17.1,14.5 17.1,14.6 17.4,14.6 17.4,15.1 
			17.6,15.1 17.6,15.7 17.9,15.7 17.9,16.6 17.6,16.6 17.6,16.9 16.7,16.9 16.7,16.6 16.5,16.6 16.5,16.1 16.2,16.1 16.2,15.5 
			15.9,15.5 15.9,15.3 15.8,15.3 15.8,15.5 15.5,15.5 15.5,15.8 15.2,15.8 15.2,16 14.6,16 14.6,13.3 		"/> <path d="M24,17.8l-1.5-2l-0.1-0.1h-2.9v2h-6.9v-2H9.7l-0.1,0.1l-1.5,2l0.1,0.3h2.8l-1,2.2l0.2,0.3h1.2l0.3,3.3
			l0.2,0.2h8.4l0.2-0.2l0.3-3.3h1.2l0,0v0l0.2-0.3l-1-2.2h2.8l0,0v0L24,17.8z M19.8,16.7l0.7,1.1h-0.7V16.7z M8.5,17.8l1.2-1.6H12
			l-0.9,1.6H8.5z M12.2,16.7v1.1h-0.6L12.2,16.7z M20.1,23.6h-8.1l-0.3-3h8.7L20.1,23.6z M21.7,20.2H10.3l1-2.1h9.4L21.7,20.2z
			 M20.9,17.8L20,16.2h2.3l1.2,1.6H20.9z"/> <path d="M12.9,13.5L12.9,13.5l1.7-0.5v-2.1h0.6v0.3h0.3v0.3h0.3v0.3H16V12h0.3v0.3h0.3v0.2l2.5-0.7l-0.1-0.5
			l-0.2-0.8L20.9,9c0.2,0,0.3,0.1,0.4,0.2c0.1,0.1,0.2,0.3,0.2,0.6c0,0.2,0,0.4,0,0.6c0,0.2,0,0.4-0.1,0.6c-0.1,0.4-0.4,0.8-0.5,1.2
			c-0.1,0.4-0.2,1-0.1,1.4l0.1,0c0.1-0.2,0.2-0.4,0.3-0.6l0.3-0.6c0.1-0.2,0.2-0.4,0.2-0.6c0.1-0.2,0.1-0.5,0.2-0.7
			c0-0.2,0-0.5,0-0.7c0-0.2,0-0.5-0.1-0.7c-0.1-0.2-0.2-0.5-0.4-0.6C21.3,9,21.2,9,21,9l0.2-0.1L14.7,8l-5.1,4.3h2.9L12.9,13.5z"/> <polygon points="17.7,15.9 17.4,15.9 17.4,15.3 17.2,15.3 17.2,14.8 16.9,14.8 16.9,14.3 18,14.3 18,14 17.7,14 
			17.7,13.8 17.4,13.8 17.4,14 16.7,14 16.7,14.8 16.9,14.8 16.9,15.3 17.2,15.3 17.2,15.9 17.4,15.9 17.4,16.4 17.7,16.4 		"/> <rect height="0.3" width="0.3" y="13.5" x="17.2"/> <rect height="0.3" width="0.3" y="13.2" x="16.9"/> <rect height="0.3" width="0.3" y="13" x="16.7"/> <rect height="0.3" width="0.3" y="12.7" x="16.4"/> <rect height="0.3" width="0.3" y="12.4" x="16.1"/> <rect height="0.3" width="0.3" y="12.1" x="15.9"/> <rect height="0.3" width="0.3" y="11.9" x="15.6"/> <polygon points="15.6,15.1 15.8,15.1 15.8,14.8 16.1,14.8 16.1,15.3 16.4,15.3 16.4,15.9 16.7,15.9 16.7,16.4 
			16.9,16.4 16.9,16.7 17.4,16.7 17.4,16.4 16.9,16.4 16.9,15.9 16.7,15.9 16.7,15.3 16.4,15.3 16.4,14.8 16.1,14.8 16.1,14.3 
			15.8,14.3 15.8,14.8 15.6,14.8 		"/> <rect height="0.3" width="0.3" y="15.1" x="15.3"/> <rect height="0.3" width="0.3" y="11.6" x="15.3"/> <polygon points="14.8,11.1 14.8,15.8 15,15.8 15,15.6 15.3,15.6 15.3,15.3 15,15.3 15,11.6 15.3,11.6 15.3,11.3 
			15,11.3 15,11.1 		"/> </g> </g>   </symbol><symbol id="icon-edu_wrkbk" viewBox="0 0 32 32"><title>edu_wrkbk</title> <g id="edu_wrkbk-icons"> <g> <path d="M22.7,8H11.2l-0.3,0.3v0.3l-0.4,0.4h-0.3L9.8,9.4v0.3C9.8,9.7,9.7,9.8,9.6,9.9c-0.3,0.3-0.6,0.8-0.6,1.2
			c-0.1,0.5,0.1,0.9,0.3,1.2c-0.2,0.3-0.3,0.6-0.3,0.9C9,13.6,9.1,14,9.4,14.3c-0.2,0.3-0.3,0.6-0.3,0.9C9,15.6,9.1,16,9.4,16.3
			c-0.5,0.7-0.5,1.5,0,2c-0.2,0.3-0.3,0.6-0.3,0.9c-0.1,0.5,0.1,0.9,0.3,1.1c-0.2,0.3-0.3,0.6-0.3,0.9c-0.1,0.5,0.1,0.9,0.4,1.2
			c0.1,0.1,0.2,0.2,0.4,0.3l0.1,0v1l0.3,0.3h11.4l0.3-0.3v-0.3l0.4-0.4h0.3l0.3-0.3V8.3L22.7,8z M14,10h1v0.4h0.5v0.5h0.5v0.5h0.5
			v0.5h0.5v0.5h0.5v0.5h0.5v0.5h0.5v0.5h0.5v0.5h0.5v0.5h0.5V15h0.5v1h-1.9v0.4h0.4v0.9h0.5v0.9h0.5v1.4h-0.5V20h-1.4v-0.5h-0.5
			v-0.9h-0.5v-0.9h-0.5v-0.5h-0.4v0.5h-0.5v0.5H15v0.4h-1V10z M10.6,9.3L10.9,9v0.3c0,0,0,0-0.1,0C10.8,9.2,10.7,9.3,10.6,9.3
			L10.6,9.3z M9.2,11.1c0.1-0.4,0.3-0.8,0.6-1.1c0,0,0,0,0.1-0.1c0.2-0.2,0.4-0.3,0.5-0.4c0.2-0.1,0.3-0.1,0.5-0.2c0,0,0,0,0,0
			c0.1,0,0.1,0,0.2,0c0.3,0,0.6,0.1,0.8,0.3c0.1,0.1,0.1,0.2,0,0.2c0,0-0.1,0-0.1,0c0,0-0.1,0-0.1,0c-0.2-0.2-0.4-0.2-0.6-0.2
			c-0.1,0-0.1,0-0.2,0c-0.2,0-0.4,0.1-0.5,0.2c-0.1,0.1-0.3,0.2-0.4,0.3c-0.1,0.1-0.1,0.1-0.2,0.2c-0.4,0.5-0.4,1.1-0.1,1.5
			c0,0,0,0,0,0C9.6,12,9.5,12,9.5,12.1C9.2,11.8,9.1,11.5,9.2,11.1z M10.9,9.9v1.4c0,0,0,0-0.1,0c-0.2,0-0.3,0.1-0.5,0.1v-1.3
			C10.5,10,10.7,9.9,10.9,9.9z M9.8,10.7v1c0,0,0,0,0,0C9.6,11.5,9.6,11.1,9.8,10.7z M9.5,12.3C9.5,12.3,9.5,12.3,9.5,12.3
			c0.1-0.1,0.1-0.1,0.1-0.1c0.1-0.1,0.1-0.1,0.2-0.2c0,0,0,0,0,0c0,0,0,0,0,0v0c0,0,0,0,0,0c0,0,0,0,0.1-0.1
			c0.1-0.1,0.3-0.2,0.4-0.3c0.2-0.1,0.3-0.1,0.5-0.2c0,0,0,0,0,0c0.1,0,0.1,0,0.2,0c0.3,0,0.6,0.1,0.8,0.3c0.1,0.1,0.1,0.2,0,0.2
			c0,0-0.1,0-0.1,0c0,0-0.1,0-0.1,0c-0.1-0.1-0.4-0.2-0.6-0.2c-0.1,0-0.1,0-0.2,0h0c-0.2,0-0.4,0.1-0.5,0.2
			c-0.1,0.1-0.3,0.2-0.4,0.3c0,0,0,0,0,0c0,0-0.1,0.1-0.1,0.1c0,0-0.1,0.1-0.1,0.1v0c0,0,0,0-0.1,0.1c-0.3,0.5-0.4,1-0.1,1.4
			c0,0,0,0,0,0c-0.1,0.1-0.1,0.1-0.2,0.2C9.1,13.7,9.1,13,9.5,12.3z M10.9,11.9v1.4c-0.2,0-0.4,0.1-0.5,0.1v-1.3
			C10.5,12,10.7,11.9,10.9,11.9z M9.8,12.7v1c0,0,0,0,0,0C9.6,13.5,9.6,13.1,9.8,12.7z M9.5,14.4C9.5,14.4,9.5,14.3,9.5,14.4
			c0.1-0.1,0.1-0.1,0.1-0.1c0.1-0.1,0.1-0.1,0.2-0.2c0,0,0,0,0,0c0,0,0,0,0,0v0c0,0,0,0,0,0c0,0,0,0,0.1-0.1
			c0.1-0.1,0.3-0.2,0.4-0.3c0.2-0.1,0.4-0.1,0.5-0.2c0.1,0,0.1,0,0.2,0c0.3,0,0.6,0.1,0.8,0.3c0.1,0.1,0.1,0.2,0,0.2
			c0,0-0.1,0-0.1,0c0,0-0.1,0-0.1,0c-0.2-0.2-0.4-0.2-0.6-0.2c-0.1,0-0.1,0-0.2,0c-0.2,0-0.4,0.1-0.5,0.2c-0.1,0.1-0.3,0.2-0.4,0.3
			c0,0,0,0,0,0c0,0-0.1,0.1-0.1,0.1c0,0-0.1,0.1-0.1,0.1v0c0,0,0,0-0.1,0.1c-0.3,0.5-0.4,1-0.1,1.4c0,0,0,0,0,0
			c-0.1,0.1-0.1,0.1-0.2,0.2C9.1,15.7,9.1,15,9.5,14.4z M10.9,14v1.4c0,0,0,0-0.1,0c-0.2,0-0.3,0.1-0.5,0.1v-1.3
			C10.5,14.1,10.7,14,10.9,14z M9.8,14.8v1c0,0,0,0,0,0C9.6,15.6,9.6,15.2,9.8,14.8z M9.5,16.4C9.5,16.4,9.5,16.4,9.5,16.4
			c0.1-0.1,0.1-0.1,0.1-0.1c0.1-0.1,0.1-0.1,0.2-0.2c0,0,0,0,0,0c0,0,0,0,0,0v0c0,0,0,0,0,0c0,0,0,0,0.1-0.1
			c0.1-0.1,0.3-0.2,0.4-0.3c0.2-0.1,0.3-0.1,0.5-0.2c0,0,0,0,0,0c0.1,0,0.1,0,0.2,0c0.3,0,0.6,0.1,0.8,0.3c0.1,0.1,0.1,0.2,0,0.2
			c0,0-0.1,0-0.1,0c0,0-0.1,0-0.1,0c-0.2-0.2-0.4-0.2-0.6-0.2c-0.1,0-0.1,0-0.2,0c-0.2,0-0.4,0.1-0.5,0.2c-0.1,0.1-0.3,0.2-0.4,0.3
			l0,0c0,0-0.1,0.1-0.1,0.1c0,0-0.1,0.1-0.1,0.1v0c0,0,0,0-0.1,0.1c-0.3,0.5-0.4,1-0.1,1.4c0,0,0,0,0,0c-0.1,0.1-0.1,0.1-0.2,0.2
			C9.1,17.8,9.1,17,9.5,16.4z M10.9,16v1.4c0,0,0,0-0.1,0c-0.2,0-0.3,0.1-0.5,0.1v-1.3C10.5,16.1,10.7,16,10.9,16z M9.8,16.8v1
			c0,0,0,0,0,0C9.6,17.6,9.6,17.2,9.8,16.8z M9.5,18.4C9.5,18.4,9.5,18.4,9.5,18.4c0.1-0.1,0.1-0.1,0.1-0.1c0.1-0.1,0.1-0.1,0.2-0.2
			c0,0,0,0,0,0c0,0,0,0,0,0v0c0,0,0,0,0,0c0,0,0,0,0.1-0.1c0.1-0.1,0.3-0.2,0.4-0.3c0.2-0.1,0.3-0.1,0.5-0.2c0,0,0,0,0,0
			c0.1,0,0.1,0,0.2,0c0.3,0,0.6,0.1,0.8,0.3c0.1,0.1,0.1,0.2,0,0.2c0,0-0.1,0-0.1,0c0,0-0.1,0-0.1,0c-0.1-0.1-0.4-0.2-0.6-0.2
			c-0.1,0-0.1,0-0.2,0h0c-0.2,0-0.4,0.1-0.5,0.2c-0.1,0.1-0.3,0.2-0.4,0.3c0,0,0,0,0,0c0,0-0.1,0.1-0.1,0.1c0,0-0.1,0.1-0.1,0.1v0h0
			c0,0,0,0,0,0.1c-0.3,0.5-0.4,1-0.1,1.4c0,0,0,0,0,0c-0.1,0.1-0.1,0.1-0.2,0.2C9.1,19.8,9.1,19.1,9.5,18.4z M10.9,18v1.4
			c0,0,0,0-0.1,0c-0.2,0-0.3,0.1-0.5,0.1v-1.3C10.5,18.1,10.7,18.1,10.9,18z M9.8,18.8v1c0,0,0,0,0,0C9.6,19.6,9.6,19.2,9.8,18.8z
			 M9.8,21.9c-0.2-0.2-0.2-0.7,0-1.1V21.9z M10,20.4C10,20.4,10,20.4,10,20.4C10,20.4,9.9,20.4,10,20.4c-0.1,0.1-0.1,0.2-0.2,0.2v0
			c0,0,0,0-0.1,0.1c-0.3,0.5-0.4,1.1-0.1,1.4c0,0,0.1,0.1,0.1,0.1v0.4c-0.1-0.1-0.2-0.1-0.3-0.2c-0.3-0.3-0.4-0.6-0.3-1
			c0-0.3,0.1-0.5,0.3-0.8c0,0,0,0,0-0.1c0,0,0,0,0.1-0.1c0.1-0.1,0.1-0.1,0.2-0.2c0,0,0,0,0,0c0,0,0,0,0,0v0c0,0,0,0,0,0
			c0,0,0,0,0.1-0.1c0.1-0.1,0.3-0.2,0.4-0.3c0.2-0.1,0.3-0.1,0.5-0.2c0,0,0,0,0,0c0.1,0,0.1,0,0.2,0c0.3,0,0.6,0.1,0.8,0.3
			c0.1,0.1,0.1,0.2,0,0.2c0,0-0.1,0-0.1,0c0,0-0.1,0-0.1,0c-0.2-0.2-0.4-0.2-0.6-0.2c-0.1,0-0.1,0-0.2,0c-0.2,0-0.4,0.1-0.5,0.2
			C10.2,20.2,10.1,20.3,10,20.4z M10.4,23.2v-2.9c0.2-0.1,0.4-0.2,0.5-0.2v2.7L10.4,23.2L10.4,23.2z M21.5,23.5H10.6l0,0l0.5-0.5H22
			L21.5,23.5z"/> <g> <g id="edu_wrkbk-XMLID_2_"> <g> <polygon points="19.9,15.2 19.9,15.7 18,15.7 18,16.6 17.9,16.6 17.5,16.6 17.5,15.2 18.9,15.2 18.9,14.8 
						19.3,14.8 19.3,15.2 					"/> <rect height="0.9" width="0.5" y="18.4" x="18.9"/> <rect height="0.5" width="0.5" y="14.4" x="18.4"/> <rect height="0.9" width="0.5" y="17.5" x="18.4"/> <rect height="0.5" width="0.9" y="19.3" x="18"/> <rect height="0.5" width="0.5" y="13.9" x="18"/> <polygon points="18.4,16.6 18.4,17.5 17.9,17.5 17.9,16.6 18,16.6 					"/> <rect height="0.9" width="0.5" y="18.4" x="17.5"/> <rect height="0.5" width="0.5" y="13.5" x="17.5"/> <polygon points="17.5,17.5 17.5,18.4 17,18.4 17,17.5 17,17.5 					"/> <rect height="0.5" width="0.5" y="13" x="17"/> <polygon points="17,16.6 17,17.5 17,17.5 16.6,17.5 16.6,16.6 					"/> <rect height="0.5" width="0.5" y="12.5" x="16.6"/> <rect height="0.5" width="0.5" y="12.1" x="16.1"/> <polygon points="16.6,15.7 16.6,16.6 16.1,16.6 16.1,16.6 16.1,15.7 					"/> <rect height="0.5" width="0.5" y="11.6" x="15.6"/> <polygon points="16.1,16.6 16.1,17 15.6,17 15.6,16.6 16.1,16.6 					"/> <rect height="0.5" width="0.5" y="17" x="15.2"/> <rect height="0.5" width="0.5" y="11.2" x="15.2"/> <polygon points="15.2,17.5 15.2,18 14.7,18 14.7,18.3 14.3,18.3 14.3,10.3 14.7,10.3 14.7,10.7 15.2,10.7 
						15.2,11.2 14.7,11.2 14.7,17.5 					"/> </g> </g> </g> </g> </g>   </symbol><symbol id="icon-errata" viewBox="0 0 32 32"><title>errata</title> <g id="errata-icons"> <g> <path d="M20.7,11.3c0.4-0.4,0.4-1,0-1.4l-0.6-0.6C19.9,9.1,19.7,9,19.4,9s-0.5,0.1-0.7,0.3L11,17l-1,3l3-1
			L20.7,11.3z M12.2,17.2l7.2-7.2l0,0l0.6,0.6l-7.2,7.2L12.2,17.2z" fill="#FA6060"/> <rect height="1" width="13" fill="#FA6060" y="21" x="9"/> </g> </g>   </symbol><symbol id="icon-event" viewBox="0 0 32 32"><title>event</title> <g id="event-icons"> <g> <polygon points="19,16 18,15 15,18 14,17 13,18 15,20 		" fill="#FA6060"/> <path d="M20,10V8.5C20,8.2,19.8,8,19.5,8S19,8.2,19,8.5v3c0,0.3-0.2,0.5-0.5,0.5S18,11.8,18,11.5V10h-4V8.5
			C14,8.2,13.8,8,13.5,8S13,8.2,13,8.5v3c0,0.3-0.2,0.5-0.5,0.5S12,11.8,12,11.5V10h-2v12c0,0.5,0.5,1,1,1h10c0.5,0,1-0.5,1-1V10H20
			z M21,22H11v-9h10V22z" fill="#FA6060"/> </g> </g>   </symbol><symbol id="icon-expires_soon" viewBox="0 0 32 32"><title>expires_soon</title> <g id="expires_soon-icons"> <path d="M29.6,18.3c0.2-1.1,0.4-2.2,0.4-3.3c0-8.3-6.7-15-15-15c-0.6,0-1.1,0-1.7,0.1c-0.1,0-0.1,0-0.2,0
		C5.7,1.1,0,7.4,0,15c0,8.3,6.7,15,15,15c1.1,0,2.2-0.1,3.3-0.4c1.5,1.5,3.5,2.4,5.7,2.4c4.4,0,8-3.6,8-8
		C32,21.8,31.1,19.8,29.6,18.3z M23.9,28.6c-0.7,0-1.1-0.4-1.1-1c0-0.7,0.4-1.1,1.1-1.1c0.7,0,1.1,0.4,1.1,1
		C25,28.2,24.6,28.6,23.9,28.6z M22.9,22.5v-2.9H25v2.9l-0.2,3.2h-1.7L22.9,22.5z M27.8,17c-1.1-0.6-2.4-1-3.8-1c-4.4,0-8,3.6-8,8
		c0,1.4,0.4,2.7,1,3.8c-0.6,0.1-1.3,0.2-2,0.2C7.8,28,2,22.2,2,15c0-3.1,1.1-6,2.9-8.2L15,15V2c7.2,0,13,5.8,13,13
		C28,15.7,27.9,16.3,27.8,17z" fill="#FFFFFF"/> </g>   </symbol><symbol id="icon-home" viewBox="0 0 32 32"><title>home</title> <g id="home-icons"> <path d="M22.7,13.7l-6-5.1c-0.2-0.2-0.4-0.2-0.7-0.2s-0.5,0.1-0.7,0.2l-6,5.1C9.1,13.9,9,14.2,9,14.5V22
		c0,0.6,0.4,1,1,1h12c0.6,0,1-0.4,1-1v-7.5C23,14.2,22.9,13.9,22.7,13.7z M22,22h-4v-5h-4v5h-4v-7.5l6-5.1l0,0l6,5.1V22z"/> </g>   </symbol><symbol id="icon-login" viewBox="0 0 32 32"><title>login</title> <g id="login-icons"> <g> <path d="M21.5,8C19.6,8,18,9.6,18,11.5V14h-8v8c0,1.1,0.9,2,2,2h7c1.1,0,2-0.9,2-2v-8h-2v-2.5
			c0-1.4,1.1-2.5,2.5-2.5s2.5,1.1,2.5,2.5V13h1v-1.5C25,9.6,23.4,8,21.5,8z M20,15v7c0,0.6-0.4,1-1,1h-7c-0.6,0-1-0.4-1-1v-7H20z"/> <rect height="1" width="5" y="18" x="13"/> </g> </g>   </symbol><symbol id="icon-logo" viewBox="0 0 204 52"><title>logo</title> <g id="logo-colour:_negative"> <g> <path d="M188.1,17.4c-3,0-4.9,2.3-4.9,5.3c0,3,1.9,5.3,4.9,5.3c2.9,0,4.9-2.3,4.9-5.3
			C193,19.6,191,17.4,188.1,17.4z" fill="#3D883D"/> <path d="M200,0h-40c-2.2,0-4,1.8-4,4v40c0,2.2,1.8,4,4,4h40c2.2,0,4-1.8,4-4V4C204,1.8,202.2,0,200,0z M178.6,27.6
			c-1.4,1.6-3.5,2.7-6,2.7c-4.3,0-7.7-3-7.7-7.6c0-4.6,3.4-7.6,7.7-7.6c2.9,0,4.7,1.4,5.9,3l-2.1,1.2c-0.8-1.1-2.2-2-3.8-2
			c-2.9,0-5.1,2.2-5.1,5.3c0,3.1,2.2,5.3,5.1,5.3c1.5,0,2.8-0.7,3.5-1.3v-2.3h-4.4v-2.3h7V27.6z M188.1,30.3c-4.4,0-7.5-3.2-7.5-7.6
			s3.1-7.6,7.5-7.6c4.4,0,7.5,3.2,7.5,7.6S192.5,30.3,188.1,30.3z" fill="#3D883D"/> </g> <g> <path d="M200,0h-40c-2.2,0-4,1.8-4,4v36c0,2.2,1.8,4,4,4h40c2.2,0,4-1.8,4-4V4C204,1.8,202.2,0,200,0z M178.6,27.6
			c-1.4,1.6-3.5,2.7-6,2.7c-4.3,0-7.7-3-7.7-7.6c0-4.6,3.4-7.6,7.7-7.6c2.9,0,4.7,1.4,5.9,3l-2.1,1.2c-0.8-1.1-2.2-2-3.8-2
			c-2.9,0-5.1,2.2-5.1,5.3c0,3.1,2.2,5.3,5.1,5.3c1.5,0,2.8-0.7,3.5-1.3v-2.3h-4.4v-2.3h7V27.6z M188.1,30.3c-4.4,0-7.5-3.2-7.5-7.6
			s3.1-7.6,7.5-7.6c4.4,0,7.5,3.2,7.5,7.6S192.5,30.3,188.1,30.3z" fill="#5AC85A"/> <path d="M188.1,17.4c-3,0-4.9,2.3-4.9,5.3c0,3,1.9,5.3,4.9,5.3c2.9,0,4.9-2.3,4.9-5.3
			C193,19.6,191,17.4,188.1,17.4z" fill="#5AC85A"/> </g> <g> <g> <path d="M1.7,22c0-6.2,4.5-10.3,10.1-10.3c3.2,0,5.6,1.4,7.3,3.5l-1.4,0.9c-1.3-1.7-3.5-2.9-5.8-2.9
				c-4.7,0-8.3,3.6-8.3,8.8c0,5.2,3.7,8.8,8.3,8.8c2.4,0,4.6-1.2,5.8-2.9l1.5,0.9c-1.8,2.2-4.1,3.6-7.3,3.6
				C6.2,32.4,1.7,28.2,1.7,22z" fill="#FFFFFF"/> <path d="M32.7,32v-2.3c-1,1.5-2.9,2.7-5,2.7c-3.8,0-6.4-2.9-6.4-7.6c0-4.6,2.6-7.6,6.4-7.6c2.1,0,3.9,1,5,2.7
				v-2.3h1.6V32H32.7z M32.7,28.4v-7.2c-0.8-1.4-2.7-2.6-4.8-2.6c-3.2,0-5.1,2.7-5.1,6.2s1.9,6.2,5.1,6.2C30,31,31.9,29.8,32.7,28.4
				z" fill="#FFFFFF"/> <path d="M55.7,32V21.9c0-2-0.9-3.3-2.9-3.3c-1.6,0-3.3,1.1-4.1,2.5v11h-1.6V21.9c0-2-0.8-3.3-2.9-3.3
				c-1.6,0-3.3,1.2-4.2,2.5V32h-1.6V17.5H40v2.2c0.6-0.9,2.6-2.5,4.7-2.5c2.2,0,3.4,1.3,3.8,2.7c0.8-1.4,2.8-2.7,4.8-2.7
				c2.7,0,4,1.5,4,4.4V32H55.7z" fill="#FFFFFF"/> <path d="M61.4,32V12h1.6v7.9c1.2-1.7,3-2.7,5-2.7c3.9,0,6.5,3,6.5,7.6c0,4.6-2.6,7.6-6.5,7.6c-2.2,0-4-1.2-5-2.7
				V32H61.4z M67.7,31c3.2,0,5.1-2.7,5.1-6.2s-1.8-6.2-5.1-6.2c-2,0-3.9,1.3-4.8,2.6v7.2C63.8,29.8,65.7,31,67.7,31z" fill="#FFFFFF"/> <path d="M77.8,32V17.5h1.6V20c1.2-1.6,2.9-2.8,4.9-2.8v1.7c-0.3-0.1-0.5-0.1-0.8-0.1c-1.5,0-3.5,1.3-4.1,2.6V32
				H77.8z" fill="#FFFFFF"/> <path d="M86.3,14c0-0.7,0.6-1.2,1.2-1.2c0.7,0,1.2,0.5,1.2,1.2c0,0.7-0.5,1.2-1.2,1.2
				C86.9,15.2,86.3,14.7,86.3,14z M86.7,32V17.5h1.6V32H86.7z" fill="#FFFFFF"/> <path d="M103,32v-2.3c-1,1.5-2.9,2.7-5,2.7c-3.8,0-6.4-2.9-6.4-7.6c0-4.6,2.6-7.6,6.4-7.6c2.1,0,3.9,1,5,2.7V12
				h1.6v20H103z M103,28.4v-7.2c-0.8-1.4-2.7-2.6-4.8-2.6c-3.2,0-5.1,2.7-5.1,6.2S95,31,98.2,31C100.3,31,102.2,29.8,103,28.4z" fill="#FFFFFF"/> <path d="M108.8,35.7l0.9-1.3c1.3,1.5,2.6,2,4.8,2c2.6,0,4.9-1.3,4.9-4.6v-2.3c-1,1.5-2.9,2.7-5,2.7
				c-3.8,0-6.4-2.9-6.4-7.6c0-4.6,2.6-7.6,6.4-7.6c2.1,0,3.9,1,5,2.7v-2.3h1.6v14.4c0,4.4-3,6-6.5,6
				C112.1,37.9,110.5,37.4,108.8,35.7z M119.4,28.2v-7c-0.8-1.4-2.8-2.6-4.8-2.6c-3.2,0-5.1,2.7-5.1,6.2s1.9,6.1,5.1,6.1
				C116.7,30.9,118.6,29.7,119.4,28.2z" fill="#FFFFFF"/> <path d="M124.3,24.7c0-4.2,2.9-7.6,7-7.6c4.4,0,6.8,3.5,6.8,7.7v0.4H126c0.2,3.2,2.2,5.8,5.7,5.8
				c1.8,0,3.5-0.7,4.7-2l0.8,1c-1.4,1.5-3.3,2.3-5.7,2.3C127.3,32.4,124.3,29.2,124.3,24.7z M131.2,18.5c-3.4,0-5.1,3-5.2,5.5h10.5
				C136.5,21.6,134.9,18.5,131.2,18.5z" fill="#FFFFFF"/> </g> </g> </g>    </symbol><symbol id="icon-logo_click" viewBox="0 0 204 52"><title>logo_click</title> <g id="logo_click-colour:_negative"> <path d="M200,4h-40c-2.2,0-4,1.8-4,4v36c0,2.2,1.8,4,4,4h40c2.2,0,4-1.8,4-4V8C204,5.8,202.2,4,200,4z" opacity="0.32"/> <g> <path d="M200,4h-40c-2.2,0-4,1.8-4,4v36c0,2.2,1.8,4,4,4h40c2.2,0,4-1.8,4-4V8C204,5.8,202.2,4,200,4z M178.6,31.6
			c-1.4,1.6-3.5,2.7-6,2.7c-4.3,0-7.7-3-7.7-7.6c0-4.6,3.4-7.6,7.7-7.6c2.9,0,4.7,1.4,5.9,3l-2.1,1.2c-0.8-1.1-2.2-2-3.8-2
			c-2.9,0-5.1,2.2-5.1,5.3c0,3.1,2.2,5.3,5.1,5.3c1.5,0,2.8-0.7,3.5-1.3v-2.3h-4.4v-2.3h7V31.6z M188.1,34.3c-4.4,0-7.5-3.2-7.5-7.6
			s3.1-7.6,7.5-7.6c4.4,0,7.5,3.2,7.5,7.6S192.5,34.3,188.1,34.3z" fill="#00CE27"/> <path d="M188.1,21.4c-3,0-4.9,2.3-4.9,5.3c0,3,1.9,5.3,4.9,5.3c2.9,0,4.9-2.3,4.9-5.3
			C193,23.6,191.1,21.4,188.1,21.4z" fill="#00CE27"/> </g> <g> <path d="M1.8,22c0-6.2,4.5-10.3,10.1-10.3c3.2,0,5.6,1.4,7.3,3.5l-1.4,0.9c-1.3-1.7-3.5-2.9-5.8-2.9
			c-4.7,0-8.3,3.6-8.3,8.8c0,5.2,3.7,8.8,8.3,8.8c2.4,0,4.6-1.2,5.8-2.9l1.5,0.9c-1.8,2.2-4.1,3.6-7.3,3.6C6.2,32.4,1.8,28.2,1.8,22
			z" fill="#FFFFFF"/> <path d="M32.7,32v-2.3c-1,1.5-2.9,2.7-5,2.7c-3.8,0-6.4-2.9-6.4-7.6c0-4.6,2.6-7.6,6.4-7.6c2.1,0,3.9,1,5,2.7v-2.3
			h1.6V32H32.7z M32.7,28.4v-7.2c-0.8-1.4-2.7-2.6-4.8-2.6c-3.2,0-5.1,2.7-5.1,6.2s1.9,6.2,5.1,6.2C30,30.9,31.9,29.7,32.7,28.4z" fill="#FFFFFF"/> <path d="M55.7,32V21.9c0-2-0.9-3.3-2.9-3.3c-1.6,0-3.3,1.1-4.1,2.5v11h-1.6V21.9c0-2-0.8-3.3-2.9-3.3
			c-1.6,0-3.3,1.2-4.2,2.5V32h-1.6V17.5H40v2.2c0.6-0.9,2.6-2.5,4.7-2.5c2.2,0,3.4,1.3,3.8,2.7c0.8-1.4,2.8-2.7,4.8-2.7
			c2.7,0,4,1.5,4,4.4V32H55.7z" fill="#FFFFFF"/> <path d="M61.4,32V12H63v7.9c1.2-1.7,3-2.7,5-2.7c3.9,0,6.5,3,6.5,7.6c0,4.6-2.6,7.6-6.5,7.6c-2.2,0-4-1.2-5-2.7V32
			H61.4z M67.7,30.9c3.2,0,5.1-2.7,5.1-6.2s-1.8-6.2-5.1-6.2c-2,0-3.9,1.3-4.8,2.6v7.2C63.8,29.7,65.7,30.9,67.7,30.9z" fill="#FFFFFF"/> <path d="M77.8,32V17.5h1.6V20c1.2-1.6,2.9-2.8,4.9-2.8v1.7c-0.3-0.1-0.5-0.1-0.8-0.1c-1.5,0-3.5,1.3-4.1,2.6V32
			H77.8z" fill="#FFFFFF"/> <path d="M86.3,14c0-0.7,0.6-1.2,1.2-1.2c0.7,0,1.2,0.5,1.2,1.2c0,0.7-0.5,1.2-1.2,1.2C86.9,15.2,86.3,14.7,86.3,14
			z M86.7,32V17.5h1.6V32H86.7z" fill="#FFFFFF"/> <path d="M103.1,32v-2.3c-1,1.5-2.9,2.7-5,2.7c-3.8,0-6.4-2.9-6.4-7.6c0-4.6,2.6-7.6,6.4-7.6c2.1,0,3.9,1,5,2.7V12
			h1.6v20H103.1z M103.1,28.4v-7.2c-0.8-1.4-2.7-2.6-4.8-2.6c-3.2,0-5.1,2.7-5.1,6.2s1.9,6.2,5.1,6.2
			C100.3,30.9,102.2,29.7,103.1,28.4z" fill="#FFFFFF"/> <path d="M108.8,35.7l0.9-1.3c1.3,1.5,2.6,2,4.8,2c2.6,0,4.9-1.3,4.9-4.6v-2.3c-1,1.5-2.9,2.7-5,2.7
			c-3.8,0-6.4-2.9-6.4-7.6c0-4.6,2.6-7.6,6.4-7.6c2.1,0,3.9,1,5,2.7v-2.3h1.6v14.4c0,4.4-3,6-6.5,6
			C112.1,37.9,110.5,37.4,108.8,35.7z M119.5,28.2v-7c-0.8-1.4-2.8-2.6-4.8-2.6c-3.2,0-5.1,2.7-5.1,6.2s1.9,6.1,5.1,6.1
			C116.7,30.9,118.6,29.7,119.5,28.2z" fill="#FFFFFF"/> <path d="M124.4,24.7c0-4.2,2.9-7.6,7-7.6c4.4,0,6.8,3.5,6.8,7.7v0.4H126c0.2,3.2,2.2,5.8,5.7,5.8
			c1.8,0,3.5-0.7,4.7-2l0.8,1c-1.4,1.5-3.3,2.3-5.7,2.3C127.4,32.4,124.4,29.2,124.4,24.7z M131.3,18.5c-3.4,0-5.1,3-5.2,5.5h10.5
			C136.5,21.6,134.9,18.5,131.3,18.5z" fill="#FFFFFF"/> </g> </g>    </symbol><symbol id="icon-logo_hover" viewBox="0 0 204 52"><title>logo_hover</title> <g id="logo_hover-colour:_negative"> <path d="M200,0h-40c-2.2,0-4,1.8-4,4v44c0,2.2,1.8,4,4,4h40c2.2,0,4-1.8,4-4V4C204,1.8,202.2,0,200,0z" opacity="0.32"/> <g> <path d="M188.1,17.4c-3,0-4.9,2.3-4.9,5.3c0,3,1.9,5.3,4.9,5.3c2.9,0,4.9-2.3,4.9-5.3
			C193,19.6,191,17.4,188.1,17.4z" fill="#3D883D"/> <path d="M200,0h-40c-2.2,0-4,1.8-4,4v40c0,2.2,1.8,4,4,4h40c2.2,0,4-1.8,4-4V4C204,1.8,202.2,0,200,0z M178.6,27.6
			c-1.4,1.6-3.5,2.7-6,2.7c-4.3,0-7.7-3-7.7-7.6c0-4.6,3.4-7.6,7.7-7.6c2.9,0,4.7,1.4,5.9,3l-2.1,1.2c-0.8-1.1-2.2-2-3.8-2
			c-2.9,0-5.1,2.2-5.1,5.3c0,3.1,2.2,5.3,5.1,5.3c1.5,0,2.8-0.7,3.5-1.3v-2.3h-4.4v-2.3h7V27.6z M188.1,30.3c-4.4,0-7.5-3.2-7.5-7.6
			s3.1-7.6,7.5-7.6c4.4,0,7.5,3.2,7.5,7.6S192.5,30.3,188.1,30.3z" fill="#269126"/> </g> <g> <path d="M200,0h-40c-2.2,0-4,1.8-4,4v36c0,2.2,1.8,4,4,4h40c2.2,0,4-1.8,4-4V4C204,1.8,202.2,0,200,0z M178.6,27.6
			c-1.4,1.6-3.5,2.7-6,2.7c-4.3,0-7.7-3-7.7-7.6c0-4.6,3.4-7.6,7.7-7.6c2.9,0,4.7,1.4,5.9,3l-2.1,1.2c-0.8-1.1-2.2-2-3.8-2
			c-2.9,0-5.1,2.2-5.1,5.3c0,3.1,2.2,5.3,5.1,5.3c1.5,0,2.8-0.7,3.5-1.3v-2.3h-4.4v-2.3h7V27.6z M188.1,30.3c-4.4,0-7.5-3.2-7.5-7.6
			s3.1-7.6,7.5-7.6c4.4,0,7.5,3.2,7.5,7.6S192.5,30.3,188.1,30.3z" fill="#00CE27"/> <path d="M188.1,17.4c-3,0-4.9,2.3-4.9,5.3c0,3,1.9,5.3,4.9,5.3c2.9,0,4.9-2.3,4.9-5.3
			C193,19.6,191,17.4,188.1,17.4z" fill="#00CE27"/> </g> <g> <path d="M1.8,22c0-6.2,4.5-10.3,10.1-10.3c3.2,0,5.6,1.4,7.3,3.5l-1.4,0.9c-1.3-1.7-3.5-2.9-5.8-2.9
			c-4.7,0-8.3,3.6-8.3,8.8c0,5.2,3.7,8.8,8.3,8.8c2.4,0,4.6-1.2,5.8-2.9l1.5,0.9c-1.8,2.2-4.1,3.6-7.3,3.6C6.3,32.3,1.8,28.1,1.8,22
			z" fill="#FFFFFF"/> <path d="M32.8,32v-2.3c-1,1.5-2.9,2.7-5,2.7c-3.8,0-6.4-2.9-6.4-7.6c0-4.6,2.6-7.6,6.4-7.6c2.1,0,3.9,1,5,2.7v-2.3
			h1.6V32H32.8z M32.8,28.4v-7.2c-0.8-1.4-2.7-2.6-4.8-2.6c-3.2,0-5.1,2.7-5.1,6.2s1.9,6.2,5.1,6.2C30,30.9,31.9,29.7,32.8,28.4z" fill="#FFFFFF"/> <path d="M55.8,32V21.8c0-2-0.9-3.3-2.9-3.3c-1.6,0-3.3,1.1-4.1,2.5v11h-1.6V21.8c0-2-0.8-3.3-2.9-3.3
			c-1.6,0-3.3,1.2-4.2,2.5V32h-1.6V17.5h1.6v2.2c0.6-0.9,2.6-2.5,4.7-2.5c2.2,0,3.4,1.3,3.8,2.7c0.8-1.4,2.8-2.7,4.8-2.7
			c2.7,0,4,1.5,4,4.4V32H55.8z" fill="#FFFFFF"/> <path d="M61.4,32V12H63v7.9c1.2-1.7,3-2.7,5-2.7c3.9,0,6.5,3,6.5,7.6c0,4.6-2.6,7.6-6.5,7.6c-2.2,0-4-1.2-5-2.7V32
			H61.4z M67.8,30.9c3.2,0,5.1-2.7,5.1-6.2s-1.8-6.2-5.1-6.2c-2,0-3.9,1.3-4.8,2.6v7.2C63.8,29.7,65.8,30.9,67.8,30.9z" fill="#FFFFFF"/> <path d="M77.9,32V17.5h1.6V20c1.2-1.6,2.9-2.8,4.9-2.8v1.7c-0.3-0.1-0.5-0.1-0.8-0.1c-1.5,0-3.5,1.3-4.1,2.6V32
			H77.9z" fill="#FFFFFF"/> <path d="M86.3,14c0-0.7,0.6-1.2,1.2-1.2c0.7,0,1.2,0.5,1.2,1.2c0,0.7-0.5,1.2-1.2,1.2C86.9,15.2,86.3,14.7,86.3,14
			z M86.8,32V17.5h1.6V32H86.8z" fill="#FFFFFF"/> <path d="M103.1,32v-2.3c-1,1.5-2.9,2.7-5,2.7c-3.8,0-6.4-2.9-6.4-7.6c0-4.6,2.6-7.6,6.4-7.6c2.1,0,3.9,1,5,2.7V12
			h1.6v20H103.1z M103.1,28.4v-7.2c-0.8-1.4-2.7-2.6-4.8-2.6c-3.2,0-5.1,2.7-5.1,6.2s1.9,6.2,5.1,6.2
			C100.3,30.9,102.2,29.7,103.1,28.4z" fill="#FFFFFF"/> <path d="M108.9,35.7l0.9-1.3c1.3,1.5,2.6,2,4.8,2c2.6,0,4.9-1.3,4.9-4.6v-2.3c-1,1.5-2.9,2.7-5,2.7
			c-3.8,0-6.4-2.9-6.4-7.6c0-4.6,2.6-7.6,6.4-7.6c2.1,0,3.9,1,5,2.7v-2.3h1.6v14.4c0,4.4-3,6-6.5,6
			C112.1,37.9,110.6,37.4,108.9,35.7z M119.5,28.2v-7c-0.8-1.4-2.8-2.6-4.8-2.6c-3.2,0-5.1,2.7-5.1,6.2s1.9,6.1,5.1,6.1
			C116.7,30.9,118.7,29.6,119.5,28.2z" fill="#FFFFFF"/> <path d="M124.4,24.7c0-4.2,2.9-7.6,7-7.6c4.4,0,6.8,3.5,6.8,7.7v0.4h-12.1c0.2,3.2,2.2,5.8,5.7,5.8
			c1.8,0,3.5-0.7,4.7-2l0.8,1c-1.4,1.5-3.3,2.3-5.7,2.3C127.4,32.3,124.4,29.2,124.4,24.7z M131.3,18.5c-3.4,0-5.1,3-5.2,5.5h10.5
			C136.6,21.5,134.9,18.5,131.3,18.5z" fill="#FFFFFF"/> </g> </g>    </symbol><symbol id="icon-logo_icon" viewBox="0 0 48 52"><title>logo_icon</title> <g id="logo_icon-colour:_negative"> <g> <path d="M32.1,17.4c-3,0-4.9,2.3-4.9,5.3c0,3,1.9,5.3,4.9,5.3c2.9,0,4.9-2.3,4.9-5.3C37,19.6,35,17.4,32.1,17.4z" fill="#E6E6E6"/> <path d="M44,0H4C1.8,0,0,1.8,0,4v38c0,2.2,1.8,4,4,4h40c2.2,0,4-1.8,4-4V4C48,1.8,46.2,0,44,0z M22.6,27.6
			c-1.4,1.6-3.5,2.7-6,2.7c-4.3,0-7.7-3-7.7-7.6c0-4.6,3.4-7.6,7.7-7.6c2.9,0,4.7,1.4,5.9,3l-2.1,1.2c-0.8-1.1-2.2-2-3.8-2
			c-2.9,0-5.1,2.2-5.1,5.3c0,3.1,2.2,5.3,5.1,5.3c1.5,0,2.8-0.7,3.5-1.3v-2.3h-4.4v-2.3h7V27.6z M32.1,30.3c-4.4,0-7.5-3.2-7.5-7.6
			s3.1-7.6,7.5-7.6c4.4,0,7.5,3.2,7.5,7.6S36.5,30.3,32.1,30.3z" fill="#E6E6E6"/> </g> </g>    </symbol><symbol id="icon-logo_scroll" viewBox="0 0 204 52"><title>logo_scroll</title> <g id="logo_scroll-colour:_negative"> <g> <g> <path d="M188.1,17.4c-3,0-4.9,2.3-4.9,5.3c0,3,1.9,5.3,4.9,5.3c2.9,0,4.9-2.3,4.9-5.3
				C193,19.6,191,17.4,188.1,17.4z" fill="#E6E6E6"/> <path d="M200,0h-40c-2.2,0-4,1.8-4,4v38c0,2.2,1.8,4,4,4h40c2.2,0,4-1.8,4-4V4C204,1.8,202.2,0,200,0z
				 M178.6,27.6c-1.4,1.6-3.5,2.7-6,2.7c-4.3,0-7.7-3-7.7-7.6c0-4.6,3.4-7.6,7.7-7.6c2.9,0,4.7,1.4,5.9,3l-2.1,1.2
				c-0.8-1.1-2.2-2-3.8-2c-2.9,0-5.1,2.2-5.1,5.3c0,3.1,2.2,5.3,5.1,5.3c1.5,0,2.8-0.7,3.5-1.3v-2.3h-4.4v-2.3h7V27.6z M188.1,30.3
				c-4.4,0-7.5-3.2-7.5-7.6s3.1-7.6,7.5-7.6c4.4,0,7.5,3.2,7.5,7.6S192.5,30.3,188.1,30.3z" fill="#E6E6E6"/> </g> <g> <path d="M1.7,22c0-6.2,4.5-10.3,10.1-10.3c3.2,0,5.6,1.4,7.3,3.5l-1.4,0.9c-1.3-1.7-3.5-2.9-5.8-2.9
				c-4.7,0-8.3,3.6-8.3,8.8c0,5.2,3.7,8.8,8.3,8.8c2.4,0,4.6-1.2,5.8-2.9l1.5,0.9c-1.8,2.2-4.1,3.6-7.3,3.6
				C6.2,32.4,1.7,28.2,1.7,22z" fill="#E6E6E6"/> <path d="M32.7,32v-2.3c-1,1.5-2.9,2.7-5,2.7c-3.8,0-6.4-2.9-6.4-7.6c0-4.6,2.6-7.6,6.4-7.6c2.1,0,3.9,1,5,2.7
				v-2.3h1.6V32H32.7z M32.7,28.4v-7.2c-0.8-1.4-2.7-2.6-4.8-2.6c-3.2,0-5.1,2.7-5.1,6.2s1.9,6.2,5.1,6.2C30,31,31.9,29.7,32.7,28.4
				z" fill="#E6E6E6"/> <path d="M55.7,32V21.9c0-2-0.9-3.3-2.9-3.3c-1.6,0-3.3,1.1-4.1,2.5v11h-1.6V21.9c0-2-0.8-3.3-2.9-3.3
				c-1.6,0-3.3,1.2-4.2,2.5V32h-1.6V17.5H40v2.2c0.6-0.9,2.6-2.5,4.7-2.5c2.2,0,3.4,1.3,3.8,2.7c0.8-1.4,2.8-2.7,4.8-2.7
				c2.7,0,4,1.5,4,4.4V32H55.7z" fill="#E6E6E6"/> <path d="M61.4,32V12h1.6v7.9c1.2-1.7,3-2.7,5-2.7c3.9,0,6.5,3,6.5,7.6c0,4.6-2.6,7.6-6.5,7.6c-2.2,0-4-1.2-5-2.7
				V32H61.4z M67.7,31c3.2,0,5.1-2.7,5.1-6.2s-1.8-6.2-5.1-6.2c-2,0-3.9,1.3-4.8,2.6v7.2C63.8,29.7,65.7,31,67.7,31z" fill="#E6E6E6"/> <path d="M77.8,32V17.5h1.6V20c1.2-1.6,2.9-2.8,4.9-2.8v1.7c-0.3-0.1-0.5-0.1-0.8-0.1c-1.5,0-3.5,1.3-4.1,2.6V32
				H77.8z" fill="#E6E6E6"/> <path d="M86.3,14c0-0.7,0.6-1.2,1.2-1.2c0.7,0,1.2,0.5,1.2,1.2c0,0.7-0.5,1.2-1.2,1.2
				C86.9,15.2,86.3,14.7,86.3,14z M86.7,32V17.5h1.6V32H86.7z" fill="#E6E6E6"/> <path d="M103,32v-2.3c-1,1.5-2.9,2.7-5,2.7c-3.8,0-6.4-2.9-6.4-7.6c0-4.6,2.6-7.6,6.4-7.6c2.1,0,3.9,1,5,2.7V12
				h1.6v20H103z M103,28.4v-7.2c-0.8-1.4-2.7-2.6-4.8-2.6c-3.2,0-5.1,2.7-5.1,6.2S95,31,98.2,31C100.3,31,102.2,29.7,103,28.4z" fill="#E6E6E6"/> <path d="M108.8,35.7l0.9-1.3c1.3,1.5,2.6,2,4.8,2c2.6,0,4.9-1.3,4.9-4.6v-2.3c-1,1.5-2.9,2.7-5,2.7
				c-3.8,0-6.4-2.9-6.4-7.6c0-4.6,2.6-7.6,6.4-7.6c2.1,0,3.9,1,5,2.7v-2.3h1.6v14.4c0,4.4-3,6-6.5,6
				C112.1,37.9,110.5,37.4,108.8,35.7z M119.4,28.2v-7c-0.8-1.4-2.8-2.6-4.8-2.6c-3.2,0-5.1,2.7-5.1,6.2s1.9,6.1,5.1,6.1
				C116.7,30.9,118.6,29.7,119.4,28.2z" fill="#E6E6E6"/> <path d="M124.3,24.7c0-4.2,2.9-7.6,7-7.6c4.4,0,6.8,3.5,6.8,7.7v0.4H126c0.2,3.2,2.2,5.8,5.7,5.8
				c1.8,0,3.5-0.7,4.7-2l0.8,1c-1.4,1.5-3.3,2.3-5.7,2.3C127.3,32.4,124.3,29.2,124.3,24.7z M131.2,18.5c-3.4,0-5.1,3-5.2,5.5h10.5
				C136.5,21.6,134.9,18.5,131.2,18.5z" fill="#E6E6E6"/> </g> </g> </g>    </symbol><symbol id="icon-logout" viewBox="0 0 32 32"><title>logout</title> <g id="logout-icons"> <g> <path d="M19,14v-2.5C19,9.6,17.4,8,15.5,8S12,9.6,12,11.5V14h-2v8c0,1.1,0.9,2,2,2h7c1.1,0,2-0.9,2-2v-8H19z
			 M13,11.5c0-1.4,1.1-2.5,2.5-2.5s2.5,1.1,2.5,2.5V14h-5V11.5z M20,22c0,0.6-0.4,1-1,1h-7c-0.6,0-1-0.4-1-1v-7h9V22z"/> <rect height="4" width="1" y="17" x="15"/> </g> </g>   </symbol><symbol id="icon-menu" viewBox="0 0 32 32"><title>menu</title> <g id="menu-icons"> <g> <rect height="2" width="24" fill="#E6E6E6" y="23" x="4"/> <rect height="2" width="24" fill="#E6E6E6" y="15" x="4"/> <rect height="2" width="24" fill="#E6E6E6" y="7" x="4"/> </g> </g>   </symbol><symbol id="icon-menu_close" viewBox="0 0 32 32"><title>menu_close</title> <g id="menu_close-icons"> <polygon points="25,8.4 23.6,7 16,14.6 8.4,7 7,8.4 14.6,16 7,23.6 8.4,25 16,17.4 23.6,25 25,23.6 17.4,16 	" fill="#E6E6E6"/> </g>   </symbol><symbol id="icon-my_details" viewBox="0 0 32 32"><title>my_details</title> <g id="my_details-icons"> <path d="M23,17v-2l-1.5-0.2c-0.4-0.1-0.7-0.3-0.9-0.7c0,0,0,0,0,0c-0.2-0.4-0.1-0.8,0.1-1.1l0.9-1.2l-1.4-1.4
		L19,11.3c-0.3,0.2-0.7,0.3-1.1,0.1c0,0,0,0,0,0c-0.4-0.2-0.6-0.5-0.7-0.9L17,9h-2l-0.2,1.5c-0.1,0.4-0.3,0.7-0.7,0.9c0,0,0,0,0,0
		c-0.4,0.2-0.8,0.1-1.1-0.1l-1.2-0.9l-1.4,1.4l0.9,1.2c0.2,0.3,0.3,0.7,0.1,1.1c0,0,0,0,0,0c-0.2,0.4-0.5,0.6-0.9,0.7L9,15v2
		l1.5,0.2c0.4,0.1,0.7,0.3,0.9,0.7c0,0,0,0,0,0c0.2,0.4,0.1,0.8-0.1,1.1l-0.9,1.2l1.4,1.4l1.2-0.9c0.3-0.2,0.7-0.3,1.1-0.1
		c0,0,0,0,0,0c0.4,0.2,0.6,0.5,0.7,0.9L15,23h2l0.2-1.5c0.1-0.4,0.3-0.7,0.7-0.9c0,0,0,0,0,0c0.4-0.2,0.8-0.1,1.1,0.1l1.2,0.9
		l1.4-1.4L20.7,19c-0.2-0.3-0.3-0.7-0.1-1.1c0,0,0,0,0,0c0.2-0.4,0.5-0.6,0.9-0.7L23,17z M16,19.5c-1.9,0-3.5-1.6-3.5-3.5
		s1.6-3.5,3.5-3.5s3.5,1.6,3.5,3.5S17.9,19.5,16,19.5z"/> </g>   </symbol><symbol id="icon-my_resources" viewBox="0 0 32 32"><title>my_resources</title> <g id="my_resources-icons"> <path d="M22,12l-7,0l-1.7-1.7c-0.2-0.2-0.4-0.3-0.7-0.3H10c-0.6,0-1,0.4-1,1v10c0,0.6,0.4,1,1,1h12c0.6,0,1-0.4,1-1
		v-8C23,12.4,22.6,12,22,12z M22,21H10v-8h12V21z"/> </g>   </symbol><symbol id="icon-new" viewBox="0 0 32 32"><title>new</title> <g id="new-icons"> <polygon points="24,24 16,20 8,24 8,8 24,8 	" fill="#5AC85A"/> </g>   </symbol><symbol id="icon-notification" viewBox="0 0 32 32"><title>notification</title> <g id="notification-icons"> <g> <polygon points="22.6,15.4 22.8,12.5 22.8,9.9 21.3,9.9 21.3,12.5 21.4,15.4 		"/> <path d="M22,16.3c-0.5,0-0.8,0.3-0.8,0.8c0,0.4,0.3,0.8,0.8,0.8c0.5,0,0.8-0.3,0.8-0.8
			C22.8,16.6,22.5,16.3,22,16.3z"/> <path d="M22,6c-4.4,0-8,3.6-8,8H2.8l8.2,6.4l3.8-2.9l0,0c0.1,0.3,0.3,0.6,0.5,0.9L11,21.6l-9-7V25c0,0.6,0.4,1,1,1
			h16c0.6,0,1-0.4,1-1v-3.3l0,0c0.6,0.2,1.3,0.3,2,0.3c4.4,0,8-3.6,8-8S26.4,6,22,6z M22,21c-3.9,0-7-3.1-7-7s3.1-7,7-7s7,3.1,7,7
			S25.9,21,22,21z"/> </g> </g>   </symbol><symbol id="icon-notifications_number" viewBox="0 0 32 32"><title>notifications_number</title> <g id="notifications_number-icons"> <g> <polygon points="19.2,14 2.8,14 11,20.4 		" fill="#777777"/> <path d="M11,21.6l-9-7V25c0,0.6,0.4,1,1,1h16c0.6,0,1-0.4,1-1V14.6L11,21.6z" fill="#777777"/> </g> </g>   </symbol><symbol id="icon-phone" viewBox="0 0 32 32"><title>phone</title> <g id="phone-icons"> <path d="M23.1,9.4l-1.2-1.2c-0.3-0.3-0.8-0.3-1.1,0l-2.3,2.3c-0.3,0.3-0.3,0.8,0,1.1l1.3,1.3
		c0.2,0.2,0.3,0.6,0.2,0.9c-0.5,1.1-1.3,2.1-2.6,3.4c-1.3,1.3-2.3,2.1-3.4,2.6c-0.3,0.1-0.7,0.1-0.9-0.2l-1.3-1.3
		c-0.3-0.3-0.8-0.3-1.1,0l-2.3,2.3c-0.3,0.3-0.3,0.8,0,1.1l1.2,1.2c0.7,0.7,1.8,1.1,2.9,0.9c2.6-0.5,4.8-1.9,7.3-4.4
		s3.9-4.7,4.4-7.3C24.1,11.2,23.8,10.2,23.1,9.4z"/> </g>   </symbol><symbol id="icon-small_facebook" viewBox="0 0 32 32"><title>small_facebook</title> <g id="small_facebook-icons"> <path d="M23,8H9C8.4,8,8,8.4,8,9v14c0,0.6,0.4,1,1,1h7.5v-6.2h-2.1v-2.4h2.1v-1.8c0-2.1,1.3-3.2,3.1-3.2
		c0.9,0,1.6,0.1,1.9,0.1v2.2l-1.3,0c-1,0-1.2,0.5-1.2,1.2v1.5h2.4l-0.3,2.4H19V24h4c0.6,0,1-0.4,1-1V9C24,8.4,23.6,8,23,8z" fill="#777777"/> </g>   </symbol><symbol id="icon-small_google+" viewBox="0 0 32 32"><title>small_google+</title> <g id="small_google+-icons"> <g> <path d="M14.8,11.6c-0.2-0.2-0.5-0.2-0.8-0.3c-0.4,0-0.7,0.2-0.9,0.5c-0.2,0.3-0.3,0.7-0.3,1c0,0.5,0.1,1,0.4,1.6
			c0.1,0.3,0.3,0.5,0.5,0.6c0.2,0.2,0.5,0.3,0.8,0.3c0.4,0,0.7-0.1,0.9-0.4c0.1-0.2,0.2-0.4,0.2-0.5c0-0.2,0-0.3,0-0.5
			c0-0.5-0.1-1.1-0.4-1.7C15.2,12,15,11.8,14.8,11.6z" fill="#777777"/> <path d="M23,8H9C8.4,8,8,8.4,8,9v14c0,0.6,0.4,1,1,1h14c0.6,0,1-0.4,1-1V9C24,8.4,23.6,8,23,8z M16.2,11.6
			c0.1,0.1,0.2,0.2,0.3,0.4c0.1,0.1,0.2,0.3,0.3,0.5c0.1,0.2,0.1,0.4,0.1,0.7c0,0.5-0.1,0.9-0.3,1.2c-0.1,0.1-0.2,0.3-0.3,0.4
			c-0.1,0.1-0.3,0.2-0.4,0.4c-0.1,0.1-0.2,0.2-0.2,0.3c-0.1,0.1-0.1,0.2-0.1,0.4c0,0.1,0,0.3,0.1,0.4c0.1,0.1,0.1,0.2,0.2,0.2
			l0.5,0.4c0.3,0.2,0.5,0.5,0.8,0.8c0.2,0.3,0.3,0.7,0.3,1.2c0,0.7-0.3,1.3-0.9,1.8c-0.6,0.5-1.5,0.8-2.7,0.8c-1,0-1.7-0.2-2.2-0.6
			c-0.5-0.4-0.7-0.8-0.7-1.4c0-0.3,0.1-0.5,0.2-0.9c0.2-0.3,0.4-0.6,0.8-0.8c0.4-0.3,0.9-0.4,1.4-0.5c0.5-0.1,0.9-0.1,1.2-0.1
			c-0.1-0.1-0.2-0.3-0.3-0.4c-0.1-0.1-0.1-0.3-0.1-0.5c0-0.1,0-0.2,0.1-0.3c0-0.1,0.1-0.2,0.1-0.2c-0.2,0-0.3,0-0.4,0
			c-0.7,0-1.3-0.2-1.7-0.7c-0.4-0.4-0.6-0.9-0.6-1.5c0-0.7,0.3-1.3,0.9-1.9c0.4-0.3,0.8-0.5,1.2-0.6c0.4-0.1,0.8-0.1,1.2-0.1h2.8
			l-0.9,0.5H16C16,11.5,16.1,11.5,16.2,11.6z M22,16h-1.5v1.5h-0.8V16h-1.5v-0.8h1.5v-1.5h0.8v1.5H22V16z" fill="#777777"/> <path d="M14.7,17.5c-0.1,0-0.3,0-0.5,0c-0.3,0-0.6,0.1-0.9,0.2c-0.1,0-0.2,0.1-0.3,0.1c-0.1,0.1-0.3,0.1-0.4,0.3
			c-0.1,0.1-0.2,0.3-0.3,0.4c-0.1,0.2-0.2,0.4-0.2,0.6c0,0.5,0.2,0.9,0.7,1.2c0.4,0.3,1,0.5,1.7,0.5c0.7,0,1.1-0.2,1.5-0.4
			c0.3-0.3,0.5-0.6,0.5-1.1c0-0.4-0.1-0.7-0.3-0.9c-0.2-0.2-0.6-0.6-1.1-0.9C14.9,17.5,14.8,17.5,14.7,17.5z" fill="#777777"/> </g> </g>   </symbol><symbol id="icon-small_twitter" viewBox="0 0 32 32"><title>small_twitter</title> <g id="small_twitter-icons"> <path d="M23,8H9C8.4,8,8,8.4,8,9v14c0,0.6,0.4,1,1,1h14c0.6,0,1-0.4,1-1V9C24,8.4,23.6,8,23,8z M20,14.5
		c0,0.1,0,0.2,0,0.2c0,2.4-1.9,5.3-5.3,5.3c-1,0-2-0.3-2.8-0.8c0.1,0,0.3,0,0.4,0c0.9,0,1.7-0.3,2.3-0.8c-0.8,0-1.5-0.5-1.7-1.3
		c0.1,0,0.2,0,0.3,0c0.2,0,0.3,0,0.5-0.1c-0.8-0.2-1.5-0.9-1.5-1.8c0,0,0,0,0,0c0.2,0.1,0.5,0.2,0.8,0.2c-0.5-0.3-0.8-0.9-0.8-1.5
		c0-0.3,0.1-0.7,0.2-0.9c0.9,1.1,2.3,1.9,3.8,1.9c-0.1-0.5,0-1.1,0.3-1.7c1-0.9,2.2-0.7,2.8,0c0.4-0.1,0.8-0.2,1.2-0.4
		c-0.1,0.4-0.4,0.8-0.8,1c0.4,0,0.7-0.1,1.1-0.3C20.6,13.9,20.3,14.2,20,14.5z" fill="#777777"/> </g>   </symbol><symbol id="icon-small_youtube" viewBox="0 0 32 32"><title>small_youtube</title> <g id="small_youtube-icons"> <path d="M23,8H9C8.4,8,8,8.4,8,9v14c0,0.6,0.4,1,1,1h14c0.6,0,1-0.4,1-1V9C24,8.4,23.6,8,23,8z M13.3,19.1l0-6.5
		l6.2,3.2L13.3,19.1z" fill="#777777"/> </g>   </symbol><symbol id="icon-social_fb" viewBox="0 0 32 36"><title>social_fb</title> <g id="social_fb-icons"> <g> <path d="M30,32H2c-1.1,0-2-0.9-2-2V2c0-1.1,0.9-2,2-2h28c1.1,0,2,0.9,2,2v28C32,31.1,31.1,32,30,32z" fill="#3D5E95"/> <path d="M22.1,32V19.6h4.2l0.6-4.8h-4.8v-3.1c0-1.4,0.4-2.4,2.4-2.4h2.6V5c-0.4-0.1-2-0.2-3.7-0.2
			c-3.7,0-6.2,2.3-6.2,6.4v3.6H13v4.8h4.2V32H22.1z" fill="#FFFFFF" id="social_fb-f_4_"/> </g> </g>   </symbol><symbol id="icon-social_fb_hover" viewBox="0 -4 32 36"><title>social_fb_hover</title> <g id="social_fb_hover-icons"> <path d="M30,32H2c-1.1,0-2-0.9-2-2V2c0-1.1,0.9-2,2-2h28c1.1,0,2,0.9,2,2v28
		C32,31.1,31.1,32,30,32z" enable-background="new    " opacity="0.16"/> <path d="M30,30H2c-1.1,0-2-0.9-2-2V0c0-1.1,0.9-2,2-2h28c1.1,0,2,0.9,2,2v28C32,29.1,31.1,30,30,30z" fill="#224173"/> <path d="M30,28H2c-1.1,0-2-0.9-2-2V-2c0-1.1,0.9-2,2-2h28c1.1,0,2,0.9,2,2v28C32,27.1,31.1,28,30,28z" fill="#3D5E95"/> <path d="M22.1,28V15.6h4.2l0.6-4.8h-4.8V7.7c0-1.4,0.4-2.4,2.4-2.4h2.6V1c-0.4-0.1-2-0.2-3.7-0.2
		c-3.7,0-6.2,2.3-6.2,6.4v3.6H13v4.8h4.2V28H22.1z" fill="#FFFFFF" id="social_fb_hover-f_1_"/> </g>   </symbol><symbol id="icon-social_g+" viewBox="0 0 32 36"><title>social_g+</title> <g id="social_g+-icons"> <g> <path d="M30,32H2c-1.1,0-2-0.9-2-2V2c0-1.1,0.9-2,2-2h28c1.1,0,2,0.9,2,2v28C32,31.1,31.1,32,30,32z" fill="#CD5943"/> <path d="M19.3,6.9h-5.5c-0.7,0-1.5,0.1-2.4,0.3C10.6,7.3,9.8,7.7,9,8.4
			c-1.1,1.1-1.7,2.3-1.7,3.7c0,1.1,0.4,2.1,1.2,3c0.8,0.9,1.9,1.4,3.4,1.4c0.3,0,0.6,0,0.9-0.1c-0.1,0.1-0.1,0.3-0.2,0.5
			c-0.1,0.2-0.1,0.4-0.1,0.6c0,0.4,0.1,0.8,0.3,1c0.2,0.3,0.3,0.6,0.5,0.8c-0.6,0-1.5,0.1-2.4,0.2c-1,0.2-1.9,0.5-2.8,1
			c-0.8,0.5-1.3,1-1.7,1.7C6,23,5.9,23.5,5.9,24c0,1.1,0.5,2,1.4,2.7c1,0.8,2.4,1.2,4.3,1.2c2.3,0,4.1-0.6,5.3-1.7
			c1.2-1,1.8-2.2,1.8-3.6c0-0.9-0.2-1.7-0.6-2.3c-0.4-0.6-1-1.1-1.5-1.6l-0.9-0.8c-0.1-0.1-0.3-0.3-0.4-0.5c-0.3,0-0.3-0.2-0.3-0.5
			c0-0.3,0.1-0.6,0.2-0.8c0.1-0.2,0.3-0.4,0.5-0.6c0.3-0.3,0.6-0.5,0.8-0.7s0.4-0.5,0.7-0.8c0.4-0.6,0.6-1.4,0.7-2.4
			c0-0.5-0.1-1-0.2-1.4s-0.3-0.8-0.5-1.1s-0.4-0.6-0.6-0.8S16.2,7.9,16,7.8h1.7L19.3,6.9z M16.3,22c0.5,0.5,0.7,1.1,0.7,1.8
			c0,0.9-0.3,1.6-1,2.1c-0.7,0.6-1.7,0.8-3,0.9c-1.5,0-2.6-0.3-3.4-1c-0.9-0.6-1.3-1.4-1.3-2.4c0-0.5,0.1-0.9,0.3-1.3
			c0.2-0.3,0.4-0.6,0.6-0.8c0.3-0.2,0.5-0.4,0.8-0.5s0.5-0.2,0.6-0.2c0.6-0.2,1.2-0.3,1.8-0.4s0.9-0.1,1.1-0.1c0.2,0,0.4,0,0.6,0
			C15,20.9,15.8,21.5,16.3,22z M15.4,13.8c-0.1,0.4-0.2,0.7-0.5,1.1c-0.5,0.5-1.1,0.8-1.8,0.8c-0.6,0-1.1-0.2-1.5-0.5
			c-0.4-0.4-0.8-0.8-1.1-1.3c-0.6-1.1-0.9-2.1-0.9-3.1c0-0.8,0.2-1.4,0.6-2.1c0.5-0.6,1.1-0.9,1.9-0.9c0.6,0,1.1,0.2,1.5,0.5
			s0.8,0.8,1,1.3c0.6,1.1,0.8,2.2,0.8,3.3C15.4,13.2,15.4,13.5,15.4,13.8z" enable-background="new    " opacity="8.000000e-02"/> <polygon points="25,15.5 25,12.6 23.3,12.6 23.3,15.5 20.4,15.5 20.4,17.2 
			23.3,17.2 23.3,20.1 25,20.1 25,17.2 27.9,17.2 27.9,15.5 		" enable-background="new    " opacity="8.000000e-02"/> <g> <path d="M19.3,6.4h-5.5c-0.7,0-1.5,0.1-2.4,0.3C10.6,6.9,9.8,7.3,9,7.9C7.9,9,7.3,10.2,7.3,11.6
				c0,1.1,0.4,2.1,1.2,3s1.9,1.4,3.4,1.4c0.3,0,0.6,0,0.9-0.1c-0.1,0.1-0.1,0.3-0.2,0.5c-0.1,0.2-0.1,0.4-0.1,0.6
				c0,0.4,0.1,0.8,0.3,1c0.2,0.3,0.3,0.6,0.5,0.8c-0.6,0-1.5,0.1-2.4,0.2c-1,0.2-1.9,0.5-2.8,1c-0.8,0.5-1.3,1-1.7,1.7
				c-0.3,0.6-0.5,1.2-0.5,1.7c0,1.1,0.5,2,1.4,2.7c1,0.8,2.4,1.2,4.3,1.2c2.3,0,4.1-0.6,5.3-1.7c1.2-1,1.8-2.2,1.8-3.6
				c0-0.9-0.2-1.7-0.6-2.3c-0.4-0.6-1-1.1-1.5-1.6l-0.9-0.8c-0.1-0.1-0.3-0.3-0.4-0.5C15,17,15,16.7,15,16.5c0-0.3,0.1-0.6,0.2-0.8
				c0.1-0.2,0.3-0.4,0.5-0.6c0.3-0.3,0.6-0.5,0.8-0.7s0.4-0.5,0.7-0.8c0.4-0.6,0.6-1.4,0.7-2.4c0-0.5-0.1-1-0.2-1.4S17.4,9,17.2,8.7
				s-0.4-0.6-0.6-0.8S16.2,7.5,16,7.4h1.7L19.3,6.4z M16.3,21.6c0.5,0.5,0.7,1.1,0.7,1.8c0,0.9-0.3,1.6-1,2.1
				c-0.7,0.6-1.7,0.8-3,0.9c-1.5,0-2.6-0.3-3.4-1C8.7,24.8,8.2,24,8.2,23c0-0.5,0.1-0.9,0.3-1.3c0.2-0.3,0.4-0.6,0.6-0.8
				c0.3-0.2,0.5-0.4,0.8-0.5s0.5-0.2,0.6-0.2c0.6-0.2,1.2-0.3,1.8-0.4s0.9-0.1,1.1-0.1c0.2,0,0.4,0,0.6,0
				C15,20.4,15.8,21.1,16.3,21.6z M15.4,13.4c-0.1,0.4-0.2,0.7-0.5,1.1c-0.5,0.5-1.1,0.8-1.8,0.8c-0.6,0-1.1-0.2-1.5-0.5
				c-0.4-0.4-0.8-0.8-1.1-1.3c-0.6-1.1-0.9-2.1-0.9-3.1c0-0.8,0.2-1.4,0.6-2.1c0.5-0.6,1.1-0.9,1.9-0.9c0.6,0,1.1,0.2,1.5,0.5
				c0.4,0.3,0.8,0.8,1,1.3c0.6,1.1,0.8,2.2,0.8,3.3C15.4,12.7,15.4,13,15.4,13.4z" fill="#FFFFFF"/> <polygon points="25,15.1 25,12.1 23.3,12.1 23.3,15.1 20.4,15.1 20.4,16.7 23.3,16.7 23.3,19.6 25,19.6 25,16.7 
				27.9,16.7 27.9,15.1 			" fill="#FFFFFF"/> </g> </g> </g>   </symbol><symbol id="icon-social_g+_hover" viewBox="0 -4 32 36"><title>social_g+_hover</title> <g id="social_g+_hover-icons"> <path d="M30,32H2c-1.1,0-2-0.9-2-2V2c0-1.1,0.9-2,2-2h28c1.1,0,2,0.9,2,2v28
		C32,31.1,31.1,32,30,32z" enable-background="new    " opacity="0.16"/> <path d="M30,30H2c-1.1,0-2-0.9-2-2V0c0-1.1,0.9-2,2-2h28c1.1,0,2,0.9,2,2v28C32,29.1,31.1,30,30,30z" fill="#AB3A25"/> <path d="M30,28H2c-1.1,0-2-0.9-2-2V-2c0-1.1,0.9-2,2-2h28c1.1,0,2,0.9,2,2v28C32,27.1,31.1,28,30,28z" fill="#CD5943"/> <path d="M19.3,2.9h-5.5c-0.7,0-1.5,0.1-2.4,0.3C10.6,3.3,9.8,3.7,9,4.4
		C7.8,5.5,7.3,6.7,7.3,8.1c0,1.1,0.4,2.1,1.2,3s1.9,1.4,3.4,1.4c0.3,0,0.6,0,0.9-0.1c-0.1,0.1-0.1,0.3-0.2,0.5
		c-0.1,0.2-0.1,0.4-0.1,0.6c0,0.4,0.1,0.8,0.3,1c0.2,0.3,0.3,0.6,0.5,0.8c-0.6,0-1.5,0.1-2.4,0.2c-1,0.2-1.9,0.5-2.8,1
		c-0.8,0.5-1.3,1-1.7,1.7C6,19,5.9,19.5,5.9,20c0,1.1,0.5,2,1.4,2.7c1,0.8,2.4,1.2,4.3,1.2c2.3,0,4.1-0.6,5.3-1.7
		c1.2-1,1.8-2.2,1.8-3.6c0-0.9-0.2-1.7-0.6-2.3c-0.4-0.6-1-1.1-1.5-1.6l-0.9-0.8c-0.1-0.1-0.3-0.3-0.4-0.5c-0.3,0-0.3-0.2-0.3-0.5
		s0.1-0.6,0.2-0.8c0.1-0.2,0.3-0.4,0.5-0.6c0.3-0.3,0.6-0.5,0.8-0.7s0.4-0.5,0.7-0.8c0.4-0.6,0.6-1.4,0.7-2.4c0-0.5-0.1-1-0.2-1.4
		s-0.3-0.8-0.5-1.1c-0.2-0.3-0.4-0.6-0.6-0.8c-0.2-0.2-0.4-0.4-0.6-0.5h1.7L19.3,2.9z M16.3,18c0.5,0.5,0.7,1.1,0.7,1.8
		c0,0.9-0.3,1.6-1,2.1c-0.7,0.6-1.7,0.8-3,0.9c-1.5,0-2.6-0.3-3.4-1c-0.9-0.6-1.3-1.4-1.3-2.4c0-0.5,0.1-0.9,0.3-1.3
		c0.2-0.3,0.4-0.6,0.6-0.8c0.3-0.2,0.5-0.4,0.8-0.5s0.5-0.2,0.6-0.2c0.6-0.2,1.2-0.3,1.8-0.4s0.9-0.1,1.1-0.1c0.2,0,0.4,0,0.6,0
		C15,16.9,15.8,17.5,16.3,18z M15.4,9.8c-0.1,0.4-0.2,0.7-0.5,1.1c-0.5,0.5-1.1,0.8-1.8,0.8c-0.6,0-1.1-0.2-1.5-0.5
		c-0.4-0.4-0.8-0.8-1.1-1.3C9.9,8.8,9.6,7.8,9.6,6.8c0-0.8,0.2-1.4,0.6-2.1c0.5-0.6,1.1-0.9,1.9-0.9c0.6,0,1.1,0.2,1.5,0.5
		s0.8,0.8,1,1.3c0.6,1.1,0.8,2.2,0.8,3.3C15.4,9.2,15.4,9.5,15.4,9.8z" enable-background="new    " opacity="8.000000e-02"/> <polygon points="25,11.5 25,8.6 23.3,8.6 23.3,11.5 20.4,11.5 20.4,13.2 
		23.3,13.2 23.3,16.1 25,16.1 25,13.2 27.9,13.2 27.9,11.5 	" enable-background="new    " opacity="8.000000e-02"/> <g> <path d="M19.3,2.4h-5.5c-0.7,0-1.5,0.1-2.4,0.3C10.6,2.9,9.8,3.3,9,3.9C7.8,5.1,7.3,6.3,7.3,7.7
			c0,1.1,0.4,2.1,1.2,3c0.8,0.9,1.9,1.4,3.4,1.4c0.3,0,0.6,0,0.9-0.1c-0.1,0.1-0.1,0.3-0.2,0.5c-0.1,0.2-0.1,0.4-0.1,0.6
			c0,0.4,0.1,0.8,0.3,1c0.2,0.3,0.3,0.6,0.5,0.8c-0.6,0-1.5,0.1-2.4,0.2c-1,0.2-1.9,0.5-2.8,1c-0.8,0.5-1.3,1-1.7,1.7
			c-0.3,0.6-0.5,1.2-0.5,1.7c0,1.1,0.5,2,1.4,2.7c1,0.8,2.4,1.2,4.3,1.2c2.3,0,4.1-0.6,5.3-1.7c1.2-1,1.8-2.2,1.8-3.6
			c0-0.9-0.2-1.7-0.6-2.3c-0.4-0.6-1-1.1-1.5-1.6l-0.9-0.8c-0.1-0.1-0.3-0.3-0.4-0.5C15,13,15,12.7,15,12.5c0-0.3,0.1-0.6,0.2-0.8
			c0.1-0.2,0.3-0.4,0.5-0.6c0.3-0.3,0.6-0.5,0.8-0.7s0.4-0.5,0.7-0.8c0.4-0.6,0.6-1.4,0.7-2.4c0-0.5-0.1-1-0.2-1.4S17.4,5,17.2,4.7
			c-0.2-0.3-0.4-0.6-0.6-0.8S16.2,3.5,16,3.4h1.7L19.3,2.4z M16.3,17.6c0.5,0.5,0.7,1.1,0.7,1.8c0,0.9-0.3,1.6-1,2.1
			c-0.7,0.6-1.7,0.8-3,0.9c-1.5,0-2.6-0.3-3.4-1C8.7,20.8,8.2,20,8.2,19c0-0.5,0.1-0.9,0.3-1.3c0.2-0.3,0.4-0.6,0.6-0.8
			c0.3-0.2,0.5-0.4,0.8-0.5s0.5-0.2,0.6-0.2c0.6-0.2,1.2-0.3,1.8-0.4c0.6-0.1,0.9-0.1,1.1-0.1c0.2,0,0.4,0,0.6,0
			C15,16.4,15.8,17.1,16.3,17.6z M15.4,9.4c-0.1,0.4-0.2,0.7-0.5,1.1c-0.5,0.5-1.1,0.8-1.8,0.8c-0.6,0-1.1-0.2-1.5-0.5
			c-0.4-0.4-0.8-0.8-1.1-1.3C9.9,8.4,9.6,7.3,9.6,6.3c0-0.8,0.2-1.4,0.6-2.1c0.5-0.6,1.1-0.9,1.9-0.9c0.6,0,1.1,0.2,1.5,0.5
			s0.8,0.8,1,1.3c0.6,1.1,0.8,2.2,0.8,3.3C15.4,8.7,15.4,9,15.4,9.4z" fill="#FFFFFF"/> <polygon points="25,11.1 25,8.1 23.3,8.1 23.3,11.1 20.4,11.1 20.4,12.7 23.3,12.7 23.3,15.6 25,15.6 25,12.7 
			27.9,12.7 27.9,11.1 		" fill="#FFFFFF"/> </g> </g>   </symbol><symbol id="icon-social_twt" viewBox="0 0 32 36"><title>social_twt</title> <g id="social_twt-icons"> <g> <path d="M30,32H2c-1.1,0-2-0.9-2-2V2c0-1.1,0.9-2,2-2h28c1.1,0,2,0.9,2,2v28C32,31.1,31.1,32,30,32z" fill="#4CB6EC"/> <path d="M25.2,11.3c-0.7,0.3-1.4,0.5-2.1,0.6c0.8-0.5,1.3-1.2,1.6-2
			c-0.7,0.4-1.5,0.7-2.3,0.9c-0.7-0.7-1.6-1.2-2.7-1.2c-2,0-3.7,1.7-3.7,3.7c0,0.3,0,0.6,0.1,0.8c-3.1-0.2-5.8-1.6-7.6-3.9
			C8.2,10.8,8,11.5,8,12.1c0,1.3,0.7,2.4,1.6,3.1c-0.6,0-1.2-0.2-1.7-0.5l0,0c0,1.8,1.3,3.3,3,3.6c-0.3,0.1-0.6,0.1-1,0.1
			c-0.2,0-0.5,0-0.7-0.1c0.5,1.5,1.8,2.5,3.4,2.6c-1.3,1-2.9,1.6-4.6,1.6c-0.3,0-0.6,0-0.9-0.1c1.6,1,3.6,1.7,5.7,1.7
			c6.8,0,10.5-5.6,10.5-10.5c0-0.2,0-0.3,0-0.5C24.1,12.7,24.7,12.1,25.2,11.3z" enable-background="new    " opacity="8.000000e-02"/> <path d="M25.2,10.7c-0.7,0.3-1.4,0.5-2.1,0.6c0.8-0.5,1.3-1.2,1.6-2c-0.7,0.4-1.5,0.7-2.3,0.9
			C21.7,9.4,20.7,9,19.7,9c-2,0-3.7,1.7-3.7,3.7c0,0.3,0,0.6,0.1,0.8c-3.1-0.2-5.8-1.6-7.6-3.9C8.2,10.2,8,10.9,8,11.5
			c0,1.3,0.7,2.4,1.6,3.1c-0.6,0-1.2-0.2-1.7-0.5l0,0c0,1.8,1.3,3.3,3,3.6c-0.3,0.1-0.6,0.1-1,0.1c-0.2,0-0.5,0-0.7-0.1
			c0.5,1.5,1.8,2.5,3.4,2.6c-1.3,1-2.9,1.6-4.6,1.6c-0.3,0-0.6,0-0.9-0.1c1.6,1,3.6,1.7,5.7,1.7c6.8,0,10.5-5.6,10.5-10.5
			c0-0.2,0-0.3,0-0.5C24.1,12.1,24.7,11.5,25.2,10.7z" fill="#FFFFFF"/> </g> </g>   </symbol><symbol id="icon-social_twt_hover" viewBox="0 -4 32 36"><title>social_twt_hover</title> <g id="social_twt_hover-icons"> <path d="M30,32H2c-1.1,0-2-0.9-2-2V2c0-1.1,0.9-2,2-2h28c1.1,0,2,0.9,2,2v28
		C32,31.1,31.1,32,30,32z" enable-background="new    " opacity="0.16"/> <path d="M30,30H2c-1.1,0-2-0.9-2-2V0c0-1.1,0.9-2,2-2h28c1.1,0,2,0.9,2,2v28C32,29.1,31.1,30,30,30z" fill="#2B94CA"/> <path d="M30,28H2c-1.1,0-2-0.9-2-2V-2c0-1.1,0.9-2,2-2h28c1.1,0,2,0.9,2,2v28C32,27.1,31.1,28,30,28z" fill="#4CB6EC"/> <path d="M25.2,7.3c-0.7,0.3-1.4,0.5-2.1,0.6c0.8-0.5,1.3-1.2,1.6-2
		c-0.7,0.4-1.5,0.7-2.3,0.9c-0.7-0.7-1.6-1.2-2.7-1.2c-2,0-3.7,1.7-3.7,3.7c0,0.3,0,0.6,0.1,0.8C13,10,10.3,8.5,8.5,6.3
		C8.2,6.8,8,7.5,8,8.1c0,1.3,0.7,2.4,1.6,3.1c-0.6,0-1.2-0.2-1.7-0.5l0,0c0,1.8,1.3,3.3,3,3.6c-0.3,0.1-0.6,0.1-1,0.1
		c-0.2,0-0.5,0-0.7-0.1c0.5,1.5,1.8,2.5,3.4,2.6c-1.3,1-2.9,1.6-4.6,1.6c-0.3,0-0.6,0-0.9-0.1c1.6,1,3.6,1.7,5.7,1.7
		c6.8,0,10.5-5.6,10.5-10.5c0-0.2,0-0.3,0-0.5C24.1,8.7,24.7,8.1,25.2,7.3z" enable-background="new    " opacity="8.000000e-02"/> <path d="M25.2,6.7c-0.7,0.3-1.4,0.5-2.1,0.6c0.8-0.5,1.3-1.2,1.6-2C24,5.7,23.2,6,22.4,6.2C21.7,5.4,20.7,5,19.7,5
		c-2,0-3.7,1.7-3.7,3.7c0,0.3,0,0.6,0.1,0.8C13,9.4,10.3,7.9,8.5,5.7C8.2,6.2,8,6.9,8,7.5c0,1.3,0.7,2.4,1.6,3.1
		c-0.6,0-1.2-0.2-1.7-0.5l0,0c0,1.8,1.3,3.3,3,3.6c-0.3,0.1-0.6,0.1-1,0.1c-0.2,0-0.5,0-0.7-0.1c0.5,1.5,1.8,2.5,3.4,2.6
		c-1.3,1-2.9,1.6-4.6,1.6c-0.3,0-0.6,0-0.9-0.1c1.6,1,3.6,1.7,5.7,1.7c6.8,0,10.5-5.6,10.5-10.5c0-0.2,0-0.3,0-0.5
		C24.1,8.1,24.7,7.5,25.2,6.7z" fill="#FFFFFF"/> </g>   </symbol><symbol id="icon-social_you" viewBox="0 0 32 36"><title>social_you</title> <g id="social_you-icons"> <g> <path d="M30,32H2c-1.1,0-2-0.9-2-2V2c0-1.1,0.9-2,2-2h28c1.1,0,2,0.9,2,2v28C32,31.1,31.1,32,30,32z" fill="#BB3E3A"/> <g id="social_you-Lozenge_2_"> <g>  <polygon points="11,9 11,21.9 23,15.5 				" fill="url(#social_you-SVGID_1_)"/> </g> </g> <path d="M11,9l10.5,7.3l1.5-0.8L11,9z" enable-background="new    " fill="#3B0A08" opacity="0.2" id="social_you-The_Sharpness_1_"/> </g> </g>   </symbol><symbol id="icon-social_you_hover" viewBox="0 -4 32 36"><title>social_you_hover</title> <g id="social_you_hover-icons"> <path d="M30,32H2c-1.1,0-2-0.9-2-2V2c0-1.1,0.9-2,2-2h28c1.1,0,2,0.9,2,2v28
		C32,31.1,31.1,32,30,32z" enable-background="new    " opacity="0.16"/> <path d="M30,30H2c-1.1,0-2-0.9-2-2V0c0-1.1,0.9-2,2-2h28c1.1,0,2,0.9,2,2v28C32,29.1,31.1,30,30,30z" fill="#99221F"/> <path d="M30,28H2c-1.1,0-2-0.9-2-2V-2c0-1.1,0.9-2,2-2h28c1.1,0,2,0.9,2,2v28C32,27.1,31.1,28,30,28z" fill="#BB3E3A"/> <g id="social_you_hover-Lozenge_3_"> <g>  <polygon points="11,5 11,17.9 23,11.5 			" fill="url(#social_you_hover-SVGID_1_)"/> </g> </g> <path d="M11,5l10.5,7.3l1.5-0.8L11,5z" enable-background="new    " fill="#3B0A08" opacity="0.2" id="social_you_hover-The_Sharpness_2_"/> </g>   </symbol><symbol id="icon-store" viewBox="0 0 32 32"><title>store</title> <g id="store-icons"> <g> <path d="M14,16v-1h-1v1c0,1.7,1.3,3,3,3s3-1.3,3-3v-1h-1v1c0,1.1-0.9,2-2,2S14,17.1,14,16z"/> <path d="M19,12v-1c0-1.7-1.3-3-3-3s-3,1.3-3,3v1h-3v10c0,1.1,0.9,2,2,2h8c1.1,0,2-0.9,2-2V12H19z M14,11
			c0-1.1,0.9-2,2-2s2,0.9,2,2v1h-1h-2h-1V11z M21,22c0,0.6-0.4,1-1,1h-8c-0.6,0-1-0.4-1-1v-9h10V22z"/> </g> </g>   </symbol><symbol id="icon-support" viewBox="0 0 32 32"><title>support</title> <g id="support-icons"> <g> <g> <path d="M17.2,18.8c-0.3,0.4-0.8,0.7-1.4,0.7s-1.1-0.3-1.1-1c0-0.2,0.1-0.8,0.2-1.4c0.1-0.7,0.3-1.4,0.4-1.8
				l-0.8-0.1l0.1-0.7l2.2-0.1l0,0.1c-0.3,1.5-0.7,2.9-0.8,3.7c-0.1,0.4,0,0.5,0.3,0.5c0.1,0,0.3-0.1,0.5-0.2L17.2,18.8z M15.4,13
				c0-0.6,0.4-1,1-1c0.5,0,0.8,0.2,0.8,0.7c0,0.6-0.5,1-1,1S15.4,13.4,15.4,13z"/> </g> <path d="M16,10c3.3,0,6,2.7,6,6s-2.7,6-6,6s-6-2.7-6-6S12.7,10,16,10 M16,9c-3.9,0-7,3.1-7,7c0,3.9,3.1,7,7,7
			s7-3.1,7-7C23,12.1,19.9,9,16,9L16,9z"/> </g> </g>   </symbol><symbol id="icon-view_all" viewBox="0 0 32 32"><title>view_all</title> <g id="view_all-icons"> <g> <path d="M16.5,9C12.4,9,9,12.4,9,16.5s3.4,7.5,7.5,7.5s7.5-3.4,7.5-7.5S20.6,9,16.5,9z M20,17h-3v3h-1v-3h-3v-1h3
			v-3h1v3h3V17z" fill="#777777"/> </g> </g>   </symbol></svg>