<?xml version="1.0" encoding="UTF-8" standalone="no"?>
<svg width="180px" height="42px" viewBox="0 0 180 42" version="1.1" xmlns="http://www.w3.org/2000/svg" xmlns:xlink="http://www.w3.org/1999/xlink">
    <!-- Generator: Sketch 39.1 (31720) - http://www.bohemiancoding.com/sketch -->
    <title>logo-lg</title>
    <desc>Created with Sketch.</desc>
    <defs></defs>
    <g id="Logos" stroke="none" stroke-width="1" fill="none" fill-rule="evenodd">
        <g id="logo-lg">
            <g id="cambridge-go-Colored" transform="translate(26.000000, 6.000000)">
                <g id="Layer_1">
                    <g id="XMLID_14_" transform="translate(0.000000, 7.210196)" fill="#FFFFFF">
                        <g id="XMLID_269_">
                            <path d="M0.103487476,6.53980447 C0.103487476,2.66480447 2.961153,0.102304469 6.51735898,0.102304469 C8.54947668,0.102304469 10.073565,0.977304469 11.1531275,2.28980447 L10.264076,2.85230447 C9.43852818,1.78980447 8.04144726,1.03980447 6.58086266,1.03980447 C3.59618978,1.03980447 1.31005736,3.28980447 1.31005736,6.53980447 C1.31005736,9.78980447 3.65969346,12.0398045 6.58086266,12.0398045 C8.10495093,12.0398045 9.50203186,11.2898045 10.264076,10.2273045 L11.2166312,10.7898045 C10.073565,12.1648045 8.61298036,13.0398045 6.58086266,13.0398045 C2.961153,13.0398045 0.103487476,10.4148045 0.103487476,6.53980447 L0.103487476,6.53980447 Z" id="XMLID_292_"></path>
                            <path d="M19.7896277,12.7898045 L19.7896277,11.3523045 C19.154591,12.2898045 17.9480211,13.0398045 16.6144438,13.0398045 C14.201304,13.0398045 12.5502084,11.2273045 12.5502084,8.28980447 C12.5502084,5.41480447 14.201304,3.53980447 16.6144438,3.53980447 C17.9480211,3.53980447 19.0910873,4.16480447 19.7896277,5.22730447 L19.7896277,3.78980447 L20.8056866,3.78980447 L20.8056866,12.7898045 L19.7896277,12.7898045 L19.7896277,12.7898045 Z M19.7896277,10.5398045 L19.7896277,6.03980447 C19.2815983,5.16480447 18.0750284,4.41480447 16.7414512,4.41480447 C14.7093335,4.41480447 13.5027636,6.10230447 13.5027636,8.28980447 C13.5027636,10.4773045 14.7093335,12.1648045 16.7414512,12.1648045 C18.0750284,12.1648045 19.2815983,11.4148045 19.7896277,10.5398045 L19.7896277,10.5398045 Z" id="XMLID_289_"></path>
                            <path d="M34.3954737,12.7898045 L34.3954737,6.47730447 C34.3954737,5.22730447 33.8239406,4.41480447 32.5538671,4.41480447 C31.5378082,4.41480447 30.4582457,5.10230447 29.9502163,5.97730447 L29.9502163,12.8523045 L28.9341574,12.8523045 L28.9341574,6.47730447 C28.9341574,5.22730447 28.426128,4.41480447 27.0925507,4.41480447 C26.0764919,4.41480447 24.9969293,5.16480447 24.4253962,5.97730447 L24.4253962,12.7898045 L23.4093374,12.7898045 L23.4093374,3.72730447 L24.4253962,3.72730447 L24.4253962,5.10230447 C24.8064183,4.53980447 26.0764919,3.53980447 27.4100691,3.53980447 C28.80715,3.53980447 29.5691942,4.35230447 29.8232089,5.22730447 C30.3312383,4.35230447 31.6013119,3.53980447 32.8713855,3.53980447 C34.5859848,3.53980447 35.4115326,4.47730447 35.4115326,6.28980447 L35.4115326,12.7898045 L34.3954737,12.7898045 L34.3954737,12.7898045 Z" id="XMLID_287_"></path>
                            <path d="M38.0151834,12.7898045 L38.0151834,0.289804469 L39.0312422,0.289804469 L39.0312422,5.22730447 C39.7932864,4.16480447 40.9363526,3.53980447 42.2064262,3.53980447 C44.6830696,3.53980447 46.3341652,5.41480447 46.3341652,8.28980447 C46.3341652,11.1648045 44.6830696,13.0398045 42.2064262,13.0398045 C40.8093452,13.0398045 39.666279,12.2898045 39.0312422,11.3523045 L39.0312422,12.7898045 L38.0151834,12.7898045 L38.0151834,12.7898045 Z M42.0159151,12.1648045 C44.0480328,12.1648045 45.2546027,10.4773045 45.2546027,8.28980447 C45.2546027,6.10230447 44.1115365,4.41480447 42.0159151,4.41480447 C40.7458416,4.41480447 39.5392717,5.22730447 38.9677386,6.03980447 L38.9677386,10.5398045 C39.5392717,11.4148045 40.7458416,12.1648045 42.0159151,12.1648045 L42.0159151,12.1648045 Z" id="XMLID_284_"></path>
                            <path d="M48.4297866,12.7898045 L48.4297866,3.72730447 L49.4458455,3.72730447 L49.4458455,5.28980447 C50.2078896,4.28980447 51.2874521,3.53980447 52.5575257,3.53980447 L52.5575257,4.60230447 C52.3670147,4.53980447 52.2400073,4.53980447 52.0494963,4.53980447 C51.0969411,4.53980447 49.8268675,5.35230447 49.4458455,6.16480447 L49.4458455,12.7898045 L48.4297866,12.7898045 L48.4297866,12.7898045 Z" id="XMLID_282_"></path>
                            <path d="M53.8275993,1.53980447 C53.8275993,1.10230447 54.2086213,0.789804469 54.5896434,0.789804469 C55.0341692,0.789804469 55.3516876,1.10230447 55.3516876,1.53980447 C55.3516876,1.97730447 55.0341692,2.28980447 54.5896434,2.28980447 C54.2086213,2.28980447 53.8275993,1.97730447 53.8275993,1.53980447 L53.8275993,1.53980447 Z M54.081614,12.7898045 L54.081614,3.72730447 L55.0976728,3.72730447 L55.0976728,12.7898045 L54.081614,12.7898045 L54.081614,12.7898045 Z" id="XMLID_279_"></path>
                            <path d="M64.4327135,12.7898045 L64.4327135,11.3523045 C63.7976768,12.2898045 62.5911069,13.0398045 61.2575296,13.0398045 C58.8443899,13.0398045 57.1932942,11.2273045 57.1932942,8.28980447 C57.1932942,5.41480447 58.8443899,3.53980447 61.2575296,3.53980447 C62.5911069,3.53980447 63.7341731,4.16480447 64.4327135,5.22730447 L64.4327135,0.289804469 L65.4487724,0.289804469 L65.4487724,12.7898045 L64.4327135,12.7898045 L64.4327135,12.7898045 Z M64.4327135,10.5398045 L64.4327135,6.03980447 C63.9246841,5.16480447 62.7181142,4.41480447 61.384537,4.41480447 C59.3524193,4.41480447 58.1458494,6.10230447 58.1458494,8.28980447 C58.1458494,10.4773045 59.3524193,12.1648045 61.384537,12.1648045 C62.7181142,12.1648045 63.9246841,11.4148045 64.4327135,10.5398045 L64.4327135,10.5398045 Z" id="XMLID_276_"></path>
                            <path d="M68.1159269,15.1023045 L68.68746,14.2898045 C69.5130078,15.2273045 70.3385556,15.5398045 71.7356365,15.5398045 C73.3867322,15.5398045 74.8473168,14.7273045 74.8473168,12.6648045 L74.8473168,11.2273045 C74.21228,12.1648045 73.0057101,12.9148045 71.6721329,12.9148045 C69.2589931,12.9148045 67.6078975,11.1023045 67.6078975,8.16480447 C67.6078975,5.28980447 69.2589931,3.41480447 71.6721329,3.41480447 C73.0057101,3.41480447 74.1487763,4.03980447 74.8473168,5.10230447 L74.8473168,3.66480447 L75.8633756,3.66480447 L75.8633756,12.6648045 C75.8633756,15.4148045 73.9582653,16.4148045 71.7356365,16.4148045 C70.2115483,16.4773045 69.1954894,16.1648045 68.1159269,15.1023045 L68.1159269,15.1023045 Z M74.8473168,10.4773045 L74.8473168,6.10230447 C74.3392873,5.22730447 73.0692138,4.47730447 71.7991402,4.47730447 C69.7670225,4.47730447 68.5604526,6.16480447 68.5604526,8.35230447 C68.5604526,10.5398045 69.7670225,12.1648045 71.7991402,12.1648045 C73.1327175,12.1023045 74.3392873,11.3523045 74.8473168,10.4773045 L74.8473168,10.4773045 Z" id="XMLID_273_"></path>
                            <path d="M77.958997,8.22730447 C77.958997,5.60230447 79.8006037,3.47730447 82.4042545,3.47730447 C85.1984163,3.47730447 86.7225046,5.66480447 86.7225046,8.28980447 L86.7225046,8.53980447 L79.0385595,8.53980447 C79.1655669,10.5398045 80.4356405,12.1648045 82.6582692,12.1648045 C83.8013354,12.1648045 84.8808979,11.7273045 85.6429421,10.9148045 L86.1509715,11.5398045 C85.26192,12.4773045 84.0553501,12.9773045 82.5312618,12.9773045 C79.8641074,13.0398045 77.958997,11.0398045 77.958997,8.22730447 L77.958997,8.22730447 Z M82.3407508,4.35230447 C80.1816257,4.35230447 79.1020632,6.22730447 79.0385595,7.78980447 L85.7064458,7.78980447 C85.7064458,6.28980447 84.6903869,4.35230447 82.3407508,4.35230447 L82.3407508,4.35230447 Z" id="XMLID_270_"></path>
                        </g>
                    </g>
                    <rect id="Rectangle-21" fill="#3E8840" x="97.8571429" y="20" width="30.4785701" height="10" rx="3.5"></rect>
                    <path d="M123.690476,23.638767 L103.452381,23.638767 C102.339286,23.638767 101.428571,22.8470512 101.428571,21.8793985 L101.428571,6.04508271 C101.428571,5.07743008 102.339286,4.28571429 103.452381,4.28571429 L123.690476,4.28571429 C124.803571,4.28571429 125.714286,5.07743008 125.714286,6.04508271 L125.714286,21.8793985 C125.714286,22.8470512 124.803571,23.638767 123.690476,23.638767 L123.690476,23.638767 Z" id="XMLID_12_-path" fill="#FFFFFF"></path>
                    <g id="Group-2" transform="translate(97.857143, 0.000000)" fill="#64BD5C">
                        <path d="M27.9386893,27.5 L2.53988084,27.5 C1.14294638,27.5 0,26.375 0,25 L0,2.5 C0,1.125 1.14294638,0 2.53988084,0 L27.9386893,0 C29.3356237,0 30.4785701,1.125 30.4785701,2.5 L30.4785701,25 C30.4785701,26.375 29.3356237,27.5 27.9386893,27.5 L27.9386893,27.5 Z M5.58773786,14.1875 C5.58773786,11.3125 7.74663657,9.4375 10.4770085,9.4375 C12.3184221,9.4375 13.4613685,10.3125 14.2233327,11.3125 L12.8898953,12.0625 C12.3819191,11.375 11.4929608,10.8125 10.4770085,10.8125 C8.63559487,10.8125 7.2386604,12.1875 7.2386604,14.125 C7.2386604,16.0625 8.63559487,17.4375 10.4770085,17.4375 C11.4294638,17.4375 12.2549251,17 12.6994042,16.625 L12.6994042,15.1875 L9.90553529,15.1875 L9.90553529,13.75 L14.3503268,13.75 L14.3503268,17.1875 C13.4613685,18.1875 12.127931,18.875 10.5405055,18.875 C7.81013359,18.9375 5.58773786,17.0625 5.58773786,14.1875 L5.58773786,14.1875 Z M23.7288811,14.1875 C23.7288811,12.3125 22.5223112,10.875 20.6172009,10.875 C18.7120905,10.875 17.5055206,12.3125 17.5055206,14.1875 C17.5055206,16.0625 18.7120905,17.5 20.6172009,17.5 C22.4588075,17.5 23.7288811,16.0625 23.7288811,14.1875 L23.7288811,14.1875 Z M15.854425,14.1875 C15.854425,11.4375 17.823039,9.4375 20.6172009,9.4375 C23.4113627,9.4375 25.3799767,11.4375 25.3799767,14.1875 C25.3799767,16.9375 23.4113627,18.9375 20.6172009,18.9375 C17.823039,18.9375 15.854425,16.9375 15.854425,14.1875 L15.854425,14.1875 Z" id="Combined-Shape"></path>
                    </g>
                    <g id="XMLID_6_" transform="translate(113.510996, 9.375000)"></g>
                </g>
            </g>
        </g>
    </g>
</svg>