<?xml version="1.0" encoding="UTF-8" standalone="no"?>
<svg width="43px" height="42px" viewBox="0 0 43 42" version="1.1" xmlns="http://www.w3.org/2000/svg" xmlns:xlink="http://www.w3.org/1999/xlink">
    <!-- Generator: Sketch 39.1 (31720) - http://www.bohemiancoding.com/sketch -->
    <title>logo-mini</title>
    <desc>Created with Sketch.</desc>
    <defs></defs>
    <g id="Logos" stroke="none" stroke-width="1" fill="none" fill-rule="evenodd">
        <g id="logo-mini">
            <g id="cambridge-go-Colored" transform="translate(-92.000000, 6.000000)">
                <g id="Layer_1">
                    <rect id="Rectangle-21" fill="#3E8840" x="97.8571429" y="20" width="30.4785701" height="10" rx="3.5"></rect>
                    <path d="M123.690476,23.638767 L103.452381,23.638767 C102.339286,23.638767 101.428571,22.8470512 101.428571,21.8793985 L101.428571,6.04508271 C101.428571,5.07743008 102.339286,4.28571429 103.452381,4.28571429 L123.690476,4.28571429 C124.803571,4.28571429 125.714286,5.07743008 125.714286,6.04508271 L125.714286,21.8793985 C125.714286,22.8470512 124.803571,23.638767 123.690476,23.638767 L123.690476,23.638767 Z" id="XMLID_12_-path" fill="#FFFFFF"></path>
                    <g id="Group-2" transform="translate(97.857143, 0.000000)" fill="#64BD5C">
                        <path d="M27.9386893,27.5 L2.53988084,27.5 C1.14294638,27.5 0,26.375 0,25 L0,2.5 C0,1.125 1.14294638,0 2.53988084,0 L27.9386893,0 C29.3356237,0 30.4785701,1.125 30.4785701,2.5 L30.4785701,25 C30.4785701,26.375 29.3356237,27.5 27.9386893,27.5 L27.9386893,27.5 Z M5.58773786,14.1875 C5.58773786,11.3125 7.74663657,9.4375 10.4770085,9.4375 C12.3184221,9.4375 13.4613685,10.3125 14.2233327,11.3125 L12.8898953,12.0625 C12.3819191,11.375 11.4929608,10.8125 10.4770085,10.8125 C8.63559487,10.8125 7.2386604,12.1875 7.2386604,14.125 C7.2386604,16.0625 8.63559487,17.4375 10.4770085,17.4375 C11.4294638,17.4375 12.2549251,17 12.6994042,16.625 L12.6994042,15.1875 L9.90553529,15.1875 L9.90553529,13.75 L14.3503268,13.75 L14.3503268,17.1875 C13.4613685,18.1875 12.127931,18.875 10.5405055,18.875 C7.81013359,18.9375 5.58773786,17.0625 5.58773786,14.1875 L5.58773786,14.1875 Z M23.7288811,14.1875 C23.7288811,12.3125 22.5223112,10.875 20.6172009,10.875 C18.7120905,10.875 17.5055206,12.3125 17.5055206,14.1875 C17.5055206,16.0625 18.7120905,17.5 20.6172009,17.5 C22.4588075,17.5 23.7288811,16.0625 23.7288811,14.1875 L23.7288811,14.1875 Z M15.854425,14.1875 C15.854425,11.4375 17.823039,9.4375 20.6172009,9.4375 C23.4113627,9.4375 25.3799767,11.4375 25.3799767,14.1875 C25.3799767,16.9375 23.4113627,18.9375 20.6172009,18.9375 C17.823039,18.9375 15.854425,16.9375 15.854425,14.1875 L15.854425,14.1875 Z" id="Combined-Shape"></path>
                    </g>
                    <g id="XMLID_6_" transform="translate(113.510996, 9.375000)"></g>
                </g>
            </g>
        </g>
    </g>
</svg>