<?xml version="1.0" encoding="UTF-8"?>
<svg width="530px" height="160px" viewBox="0 0 530 160" version="1.1" xmlns="http://www.w3.org/2000/svg" xmlns:xlink="http://www.w3.org/1999/xlink">
    <!-- Generator: Sketch 44.1 (41455) - http://www.bohemiancoding.com/sketch -->
    <title>sprite</title>
    <desc>Created with Sketch.</desc>
    <defs></defs>
    <g id="Sprite" stroke="none" stroke-width="1" fill="none" fill-rule="evenodd">
        <g id="sprite">
            <g id="Links" transform="translate(340.000000, 1.000000)">
                <path d="M10,20 C4.48979592,20 0,15.5102041 0,10 C0,4.48979592 4.48979592,0 10,0 C15.5102041,0 20,4.48979592 20,10 C20,15.5102041 15.5102041,20 10,20 Z M10,1.42857143 C5.20408163,1.42857143 1.32653061,5.30612245 1.32653061,10.1020408 C1.32653061,14.8979592 5.20408163,18.7755102 10,18.7755102 C14.7959184,18.7755102 18.6734694,14.8979592 18.6734694,10.1020408 C18.6734694,5.30612245 14.7959184,1.42857143 10,1.42857143 Z M11.2244898,13.6734694 L10.4081633,12.755102 L10.4081633,12.4489796 L11.9387755,10.9183673 L5.20408163,10.9183673 L4.89795918,10.6122449 L4.89795918,9.48979592 L5.20408163,9.18367347 L11.9387755,9.18367347 L10.4081633,7.65306122 L10.4081633,7.24489796 L11.2244898,6.42857143 L11.6326531,6.42857143 L15.1020408,9.89795918 L15.1020408,10.2040816 L11.6326531,13.6734694 L11.2244898,13.6734694 Z" id="Light" fill="#268AAE"></path>
                <path d="M50,20 C44.4897959,20 40,15.5102041 40,10 C40,4.48979592 44.4897959,0 50,0 C55.5102041,0 60,4.48979592 60,10 C59.8979592,15.5102041 55.5102041,20 50,20 Z M50,1.42857143 C45.2040816,1.42857143 41.3265306,5.30612245 41.3265306,10.1020408 C41.3265306,14.8979592 45.2040816,18.7755102 50,18.7755102 C54.7959184,18.7755102 58.6734694,14.8979592 58.6734694,10.1020408 C58.6734694,5.30612245 54.6938776,1.42857143 50,1.42857143 Z M51.2244898,13.6734694 L50.3061224,12.755102 L50.3061224,12.4489796 L51.8367347,10.9183673 L45.1020408,10.9183673 L44.8979592,10.6122449 L44.8979592,9.48979592 L45.1020408,9.18367347 L51.8367347,9.18367347 L50.3061224,7.65306122 L50.3061224,7.24489796 L51.2244898,6.42857143 L51.5306122,6.42857143 L55,9.89795918 L55,10.2040816 L51.5306122,13.6734694 L51.2244898,13.6734694 Z" id="Dark" fill="#195B72"></path>
                <path d="M90,20 C84.4897959,20 80,15.5102041 80,10 C80,4.48979592 84.4897959,0 90,0 C95.5102041,0 100,4.48979592 100,10 C99.8979592,15.5102041 95.5102041,20 90,20 Z M90,1.42857143 C85.2040816,1.42857143 81.3265306,5.30612245 81.3265306,10.1020408 C81.3265306,14.8979592 85.2040816,18.7755102 90,18.7755102 C94.7959184,18.7755102 98.6734694,14.8979592 98.6734694,10.1020408 C98.6734694,5.30612245 94.6938776,1.42857143 90,1.42857143 Z M91.2244898,13.6734694 L90.3061224,12.755102 L90.3061224,12.4489796 L91.8367347,10.9183673 L85.1020408,10.9183673 L84.8979592,10.6122449 L84.8979592,9.48979592 L85.1020408,9.18367347 L91.8367347,9.18367347 L90.3061224,7.65306122 L90.3061224,7.24489796 L91.2244898,6.42857143 L91.5306122,6.42857143 L95,9.89795918 L95,10.2040816 L91.5306122,13.6734694 L91.2244898,13.6734694 Z" id="White" fill="#F2F2F2"></path>
            </g>
            <g id="Keys" transform="translate(340.000000, 41.000000)">
                <path d="M13.8895376,3.87553267 C13.4146816,1.31735902 11.0404017,-0.422199058 8.42869374,0.0894356709 C5.81698582,0.498743454 3.68013389,2.54528237 4.15498987,5.10345602 C4.27370387,5.61509075 4.51113186,6.53603326 4.86727385,7.14999493 L0.237427993,13.8012464 C0.118713996,14.0059003 0,14.517535 0,14.8245159 L0.356141989,16.564074 C0.356141989,16.8710548 0.712283978,17.0757087 0.949711971,16.9733817 L2.37427993,16.7687278 C2.61170792,16.6664009 3.08656391,16.461747 3.2052779,16.2570931 L5.10470184,13.3919386 L5.10470184,13.3919386 L6.4105558,13.1872847 L8.54740774,9.81049553 C9.25969172,9.91282247 10.3281177,9.91282247 10.9216877,9.81049553 C13.2959676,9.19653385 14.3643936,6.43370631 13.8895376,3.87553267 L13.8895376,3.87553267 Z M11.6339716,5.20578296 C10.9216877,6.22905242 10.2094037,5.5127638 9.14097772,4.79647518 C8.07255175,4.08018656 7.24155378,3.67087878 7.95383776,2.64760932 C8.66612174,1.62433986 10.0906897,1.41968597 11.0404017,2.13597459 C12.1088276,2.85226321 12.3462556,4.1825135 11.6339716,5.20578296 L11.6339716,5.20578296 Z" id="Dark" fill="#323232"></path>
                <path d="M47.8963937,3.87553267 C47.4213033,1.31735902 45.0458514,-0.422199058 42.4328543,0.0894356709 C39.8198572,0.498743454 37.6819505,2.54528237 38.1570408,5.10345602 C38.2758134,5.61509075 38.5133586,6.53603326 38.8696764,7.14999493 L34.2375452,13.8012464 C34.1187726,14.0059003 34,14.517535 34,14.8245159 L34.3563178,16.564074 C34.3563178,16.8710548 34.7126356,17.0757087 34.9501808,16.9733817 L36.3754519,16.7687278 C36.6129971,16.6664009 37.0880875,16.461747 37.2068601,16.2570931 L39.1072216,13.3919386 L39.1072216,13.3919386 L40.4137202,13.1872847 L42.5516269,9.81049553 C43.2642625,9.91282247 44.3332158,9.91282247 44.9270788,9.81049553 C47.1837581,9.19653385 48.3714841,6.43370631 47.8963937,3.87553267 L47.8963937,3.87553267 Z M45.6397144,5.20578296 C44.9270788,6.22905242 44.2144432,5.5127638 43.1454899,4.79647518 C42.0765365,4.08018656 41.2451283,3.67087878 41.9577639,2.64760932 C42.6703995,1.62433986 44.0956706,1.41968597 45.0458514,2.13597459 C45.9960322,2.85226321 46.2335774,4.1825135 45.6397144,5.20578296 L45.6397144,5.20578296 Z" id="Light" fill="#B5BEC8"></path>
                <path d="M81.8963937,3.87553267 C81.4213033,1.31735902 79.0458514,-0.422199058 76.4328543,0.0894356709 C73.8198572,0.498743454 71.6819505,2.54528237 72.1570408,5.10345602 C72.2758134,5.61509075 72.5133586,6.53603326 72.8696764,7.14999493 L68.2375452,13.8012464 C68.1187726,14.0059003 68,14.517535 68,14.8245159 L68.3563178,16.564074 C68.3563178,16.8710548 68.7126356,17.0757087 68.9501808,16.9733817 L70.3754519,16.7687278 C70.6129971,16.6664009 71.0880875,16.461747 71.2068601,16.2570931 L73.1072216,13.3919386 L73.1072216,13.3919386 L74.4137202,13.1872847 L76.5516269,9.81049553 C77.2642625,9.91282247 78.3332158,9.91282247 78.9270788,9.81049553 C81.1837581,9.19653385 82.3714841,6.43370631 81.8963937,3.87553267 L81.8963937,3.87553267 Z M79.6397144,5.20578296 C78.9270788,6.22905242 78.2144432,5.5127638 77.1454899,4.79647518 C76.0765365,4.08018656 75.2451283,3.67087878 75.9577639,2.64760932 C76.6703995,1.62433986 78.0956706,1.41968597 79.0458514,2.13597459 C79.9960322,2.85226321 80.2335774,4.1825135 79.6397144,5.20578296 L79.6397144,5.20578296 Z" id="White" fill="#F2F2F2"></path>
                <path d="M115.896394,3.87553267 C115.421303,1.31735902 113.045851,-0.422199058 110.432854,0.0894356709 C107.819857,0.498743454 105.68195,2.54528237 106.157041,5.10345602 C106.275813,5.61509075 106.513359,6.53603326 106.869676,7.14999493 L102.237545,13.8012464 C102.118773,14.0059003 102,14.517535 102,14.8245159 L102.356318,16.564074 C102.356318,16.8710548 102.712636,17.0757087 102.950181,16.9733817 L104.375452,16.7687278 C104.612997,16.6664009 105.088087,16.461747 105.20686,16.2570931 L107.107222,13.3919386 L107.107222,13.3919386 L108.41372,13.1872847 L110.551627,9.81049553 C111.264262,9.91282247 112.333216,9.91282247 112.927079,9.81049553 C115.183758,9.19653385 116.371484,6.43370631 115.896394,3.87553267 L115.896394,3.87553267 Z M113.639714,5.20578296 C112.927079,6.22905242 112.214443,5.5127638 111.14549,4.79647518 C110.076537,4.08018656 109.245128,3.67087878 109.957764,2.64760932 C110.670399,1.62433986 112.095671,1.41968597 113.045851,2.13597459 C113.996032,2.85226321 114.233577,4.1825135 113.639714,5.20578296 L113.639714,5.20578296 Z" id="Light" fill="#268AAE"></path>
                <path d="M149.896394,3.87553267 C149.421303,1.31735902 147.045851,-0.422199058 144.432854,0.0894356709 C141.819857,0.498743454 139.68195,2.54528237 140.157041,5.10345602 C140.275813,5.61509075 140.513359,6.53603326 140.869676,7.14999493 L136.237545,13.8012464 C136.118773,14.0059003 136,14.517535 136,14.8245159 L136.356318,16.564074 C136.356318,16.8710548 136.712636,17.0757087 136.950181,16.9733817 L138.375452,16.7687278 C138.612997,16.6664009 139.088087,16.461747 139.20686,16.2570931 L141.107222,13.3919386 L141.107222,13.3919386 L142.41372,13.1872847 L144.551627,9.81049553 C145.264262,9.91282247 146.333216,9.91282247 146.927079,9.81049553 C149.183758,9.19653385 150.371484,6.43370631 149.896394,3.87553267 L149.896394,3.87553267 Z M147.639714,5.20578296 C146.927079,6.22905242 146.214443,5.5127638 145.14549,4.79647518 C144.076537,4.08018656 143.245128,3.67087878 143.957764,2.64760932 C144.670399,1.62433986 146.095671,1.41968597 147.045851,2.13597459 C147.996032,2.85226321 148.233577,4.1825135 147.639714,5.20578296 L147.639714,5.20578296 Z" id="White" fill="#195B72"></path>
            </g>
            <g id="Social-Icons" fill="#F2F2F2">
                <path d="M20.0015172,0 C9.00083446,0 0,9.00106216 0,20 C0,31.000961 8.99881134,40 19.9994941,40 C31.0001768,40 39.9999997,31.000961 39.9999997,20 C40.0020228,9.00207374 31.0021999,0 20.0015172,0 L20.0015172,0 Z M14.0009609,30.0035405 L8.9998229,30.0035405 L8.9998229,15.0017703 L14.0009609,15.0017703 L14.0009609,30.0035405 L14.0009609,30.0035405 Z M11.7998128,13.1030297 C10.4018409,13.1030297 9.20112275,11.9012695 9.20112275,10.5032624 C9.20112275,9.10222042 10.4028525,7.90349502 11.7998128,7.90349502 C13.2008192,7.90349502 14.3985028,9.10525517 14.3985028,10.5032624 C14.4005259,11.900258 13.2008192,13.1030297 11.7998128,13.1030297 L11.7998128,13.1030297 Z M31.0021999,30.0035405 L26.0020735,30.0035405 L26.0020735,22.5016438 C26.0020735,20.8001619 25.8038083,18.5028577 23.502516,18.5028577 C21.2032469,18.5028577 21.0019471,20.4015983 21.0019471,22.5016438 L21.0019471,30.0035405 L16.0018207,30.0035405 L16.0018207,15.0017703 L21.0019471,15.0017703 L21.0019471,17.0016691 C21.5026678,16.0022255 22.7023744,14.704365 24.9014994,14.704365 C29.4009051,14.704365 31.0001768,17.6025492 31.0001768,21.5032118 L31.0021999,30.0035405 L31.0021999,30.0035405 L31.0021999,30.0035405 Z" id="LinkedIn"></path>
                <path d="M230,0 C219.000051,0 210,9.00005058 210,20 C210,31.000961 219.000051,40 230,40 C241.000961,40 250,31.000961 250,20 C250.002023,9.00207374 241.000961,0 230,0 L230,0 Z M224.500025,31.0019726 C219.200344,31.0019726 213.499064,27.0041981 213.499064,20.5007334 C213.499064,14.8014769 218.499317,10.0015174 224.301755,10.0015174 C229.001568,10.0015174 231.70047,12.8025897 231.801628,12.9007132 L232.102068,13.2021648 L229.402155,15.9010672 L229.001568,15.5004805 C229.001568,15.5004805 227.200951,13.6988519 224.301755,13.6988519 C220.402104,13.6988519 217.40175,16.7012291 217.40175,20.5007334 C217.40175,24.3022609 220.401092,27.3987153 224.301755,27.3987153 C226.802387,27.3987153 229.899853,26.0017197 230.399575,22.9973193 L223.00086,22.9973193 L223.00086,18.9995448 L234.302261,18.9995448 C234.302261,18.9995448 234.501542,19.8988417 234.501542,21.2998837 C234.499519,26.9020282 230.399575,31.0019726 224.500025,31.0019726 L224.500025,31.0019726 Z M243.00086,22.001922 L243.00086,25.0032876 L240.001517,25.0032876 L240.001517,22.001922 L237.000152,22.001922 L237.000152,19.0046027 L240.001517,19.0046027 L240.001517,16.0012139 L243.00086,16.0012139 L243.00086,19.0046027 L246.002225,19.0046027 L246.002225,22.001922 L243.00086,22.001922 L243.00086,22.001922 Z" id="Google-Plus"></path>
                <path d="M89.9999998,0 C79.0000505,0 70,9.00005058 70,20 C70,31.000961 78.9990389,40 89.9999998,40 C101.000961,40 110,31.000961 110,20 C110.002023,9.00207374 101.000961,0 89.9999998,0 L89.9999998,0 Z M95.6001212,11.900258 L92.7980373,11.900258 C91.2988719,11.900258 91.0965554,12.6002731 91.0965554,13.700875 L91.0965554,13.9001568 L91.0965554,16.9986344 L95.096353,16.9986344 L95.096353,20.9964089 L91.0965554,20.9964089 L91.0965554,31.9973699 L87.0957461,31.9973699 L87.0957461,20.9964089 L84.0994385,20.9964089 L84.0994385,16.9996459 L87.0977693,16.9996459 L87.0977693,13.2001416 C87.0977693,10.499216 88.8002629,7.99959537 92.898184,7.99959537 C94.4985077,7.99959537 95.7963682,8.19685398 95.7963682,8.19685398 L95.6001212,11.900258 L95.6001212,11.900258 Z" id="Facebook"></path>
                <path d="M300,0 C288.999039,0 280,9.00005058 280,20 C280,31.000961 288.999039,40 300,40 C310.999949,40 320,31.000961 320,20 C319.998988,9.00207374 310.999949,0 300,0 L300,0 Z M311.897223,13.9031915 L311.897223,14.7003186 C311.897223,22.804107 305.698245,32.2047443 294.396844,32.2047443 C290.896768,32.2047443 287.696121,31.2032775 284.996207,29.4016489 C285.495928,29.5028071 285.994639,29.5028071 286.49436,29.5028071 C289.394568,29.5028071 291.995347,28.5053867 294.097415,26.905063 C291.39649,26.905063 289.098174,25.1034343 288.396136,22.6038137 C288.796722,22.7049719 289.195286,22.7049719 289.597896,22.7049719 C290.198776,22.7049719 290.698498,22.6038137 291.19822,22.5056902 C288.396136,21.9027869 286.297102,19.406201 286.297102,16.5029589 C286.297102,16.5029589 286.297102,16.5029589 286.297102,16.4038238 C287.097264,16.9035456 288.095696,17.1018158 289.099186,17.2019625 C287.498862,16.1013606 286.399272,14.20262 286.399272,12.1025745 C286.399272,11.0019726 286.6987,9.90137069 287.19741,9.00510849 C290.197764,12.7034546 294.799454,15.2030752 299.899853,15.4043802 C299.797683,15.0037934 299.69956,14.50306 299.69956,14.0033382 C299.69956,10.603409 302.502655,7.80334834 305.900561,7.80334834 C307.699155,7.80334834 309.299479,8.50235193 310.399069,9.70411208 C311.800111,9.40367204 313.101007,8.90395023 314.297709,8.20494664 C313.798999,9.60598857 312.89869,10.8026908 311.598806,11.6048758 C312.799555,11.5037176 313.997269,11.105154 315.096859,10.6054322 C314.199585,11.900258 313.098983,13.0008598 311.897223,13.9031915 L311.897223,13.9031915 Z" id="Twitter"></path>
                <path d="M163.400941,23.502099 C162.799049,23.502099 162.299327,23.8035507 161.800617,24.4024076 L161.800617,21.00349 L160.302463,21.00349 L160.302463,32.004451 L161.800617,32.004451 L161.800617,31.2042891 C162.299327,31.8051692 162.901219,32.2027212 163.400941,32.2027212 C164.000809,32.2027212 164.399373,31.9022811 164.602701,31.3034242 C164.702847,30.9028375 164.800971,30.4010925 164.800971,29.6009307 L164.800971,26.202013 C164.800971,25.4018512 164.699813,24.9021294 164.602701,24.4995195 C164.400384,23.8025391 163.999797,23.502099 163.400941,23.502099 L163.400941,23.502099 Z M163.200647,29.6009307 C163.200647,30.4010925 163.000354,30.8026908 162.600779,30.8026908 C162.300339,30.8026908 162.100045,30.6995094 161.800617,30.4021041 L161.800617,25.3027161 C162.100045,25.0042992 162.300339,24.903141 162.600779,24.903141 C163.000354,24.903141 163.200647,25.1003996 163.200647,26.0037429 L163.200647,29.6009307 L163.200647,29.6009307 Z M157.399221,30.0035405 C157.099792,30.5012392 156.799352,30.700521 156.497901,30.700521 C156.299631,30.700521 156.198472,30.6013859 156.198472,30.4021041 L156.198472,29.801224 L156.198472,23.6012341 L154.598149,23.6012341 L154.598149,30.1977644 C154.598149,30.7996561 154.700319,31.197208 154.799454,31.3995246 C154.997724,31.8001113 155.298164,31.9983815 155.797886,31.9983815 C156.399777,31.9983815 156.898488,31.6999646 157.499368,30.9999494 L157.499368,31.9983815 L159.09868,31.9983815 L159.09868,23.599211 L157.499368,23.599211 L157.399221,30.0035405 L157.399221,30.0035405 L157.399221,30.0035405 Z M159.900865,13.6988519 C160.399575,13.6988519 160.700015,13.2982651 160.60088,12.3989682 L160.60088,9.00005058 C160.702038,8.19988873 160.399575,7.79829043 159.900865,7.79829043 C159.400131,7.79829043 159.100703,8.19887714 159.201861,9.00005058 L159.201861,12.3989682 C159.198826,13.3012999 159.400131,13.6988519 159.900865,13.6988519 L159.900865,13.6988519 Z M154.801477,20.5027566 L149.499772,20.5027566 L149.499772,22.1010571 L151.300389,22.1010571 L151.300389,32.0014162 L152.999848,32.0014162 L152.999848,22.1010571 L154.801477,22.1010571 L154.801477,20.5027566 Z M170.402104,28.1017652 L170.402104,26.4012948 C170.402104,25.4999747 170.20181,24.8009711 169.902382,24.3993728 C169.501795,23.7995043 168.902938,23.4980527 168.102777,23.4980527 C167.302615,23.4980527 166.703758,23.7995043 166.304183,24.3993728 C166.002731,24.7999595 165.803449,25.4999747 165.803449,26.4012948 L165.803449,29.299479 C165.803449,30.2007992 166.002731,30.7976329 166.304183,31.2002428 C166.704769,31.8011229 167.302615,32.0995397 168.102777,32.0995397 C168.902938,32.0995397 169.502807,31.8011229 169.902382,31.2002428 C170.101664,30.8998027 170.20181,30.5993627 170.302969,30.2989227 C170.302969,30.0996409 170.405139,29.7992008 170.405139,29.299479 L170.405139,29.1001973 L168.805826,29.1001973 L168.805826,30.2007992 C168.702645,30.6013859 168.505386,30.8006676 168.105811,30.8006676 C167.605078,30.8006676 167.406808,30.4000809 167.406808,29.5999191 L167.406808,28.1017652 L170.402104,28.1017652 L170.402104,28.1017652 L170.402104,28.1017652 Z M167.40175,25.9025846 C167.40175,25.1024227 167.60002,24.9021294 168.099742,24.9021294 C168.599464,24.9021294 168.798745,25.1024227 168.798745,25.9025846 L168.798745,26.8028931 L167.399727,26.8028931 L167.40175,25.9025846 L167.40175,25.9025846 L167.40175,25.9025846 Z M160,0 C148.999039,0 140,9.00005058 140,20 C140,31.000961 148.999039,40 160,40 C170.999949,40 180,31.000961 180,20 C180.002023,9.00207374 171.000961,0 160,0 L160,0 Z M163.400941,6.50042992 L165.001264,6.50042992 L165.001264,12.8015781 L165.001264,13.4034697 C165.001264,13.6017399 165.102423,13.7018866 165.300693,13.7018866 C165.600121,13.7018866 165.902584,13.4034697 166.202013,13.002883 L166.202013,6.50245309 L167.802337,6.50245309 L167.802337,15.0017703 L166.202013,15.0017703 L166.202013,14.098427 C165.600121,14.7994537 165.099388,15.0978706 164.499519,15.0978706 C163.999797,15.0978706 163.700369,14.8985888 163.501087,14.4990137 C163.399929,14.1985737 163.301805,13.797987 163.301805,13.2972536 L163.400941,6.50042992 L163.400941,6.50042992 L163.400941,6.50042992 Z M159.900865,6.50042992 C160.60088,6.50042992 161.200748,6.69870012 161.70047,7.29958019 C161.999899,7.70016691 162.200192,8.3991705 162.200192,9.30049062 L162.200192,12.3028678 C162.200192,13.2031764 162.099034,13.8010217 161.70047,14.2016084 C161.299883,14.8024885 160.60088,15.1019169 159.900865,15.1019169 C159.201861,15.1019169 158.500834,14.8024885 158.101259,14.2016084 C157.800819,13.8010217 157.601537,13.2031764 157.601537,12.3028678 L157.601537,9.30049062 C157.601537,8.40119367 157.800819,7.70117849 158.101259,7.29958019 C158.600981,6.70173486 159.198826,6.50042992 159.900865,6.50042992 L159.900865,6.50042992 Z M153.900157,3.70239239 L155.100905,8.10277679 L156.302665,3.70239239 L158.101259,3.70239239 L156.003237,10.3990693 L156.003237,15.0017703 L154.301755,15.0017703 L154.301755,10.3990693 C154.301755,10.3990693 152.600273,4.69778969 152.202721,3.70239239 L153.900157,3.70239239 L153.900157,3.70239239 Z M172.502149,27.5008851 C172.502149,29.5028071 172.200698,31.4996712 172.200698,31.4996712 C172.200698,31.4996712 172.002428,33.2021648 171.202266,34.0023266 C170.203834,35.0007587 169.201355,35.0007587 168.700622,35.1029285 C165.201558,35.4033686 159.901876,35.4033686 159.901876,35.4033686 C159.901876,35.4033686 153.400435,35.3011987 151.401548,35.1029285 C150.801679,35.0007587 149.602954,35.0007587 148.601487,34.0023266 C147.799302,33.2021648 147.601032,31.4996712 147.601032,31.4996712 C147.601032,31.4996712 147.302615,29.4987608 147.302615,27.5008851 L147.302615,25.6021446 C147.302615,23.6002225 147.601032,21.6033585 147.601032,21.6033585 C147.601032,21.6033585 147.799302,19.8988417 148.601487,19.100703 C149.599919,18.102271 150.602397,18.102271 151.101108,18.0001012 C154.600172,17.7016843 159.900865,17.7016843 159.900865,17.7016843 L159.900865,17.7016843 C159.900865,17.7016843 165.200546,17.7016843 168.69961,18.0001012 C169.199332,18.102271 170.299934,18.102271 171.201254,19.100703 C172.001416,19.9008649 172.199686,21.6033585 172.199686,21.6033585 C172.199686,21.6033585 172.500126,23.6022457 172.500126,25.6021446 L172.500126,27.5008851 L172.502149,27.5008851 L172.502149,27.5008851 Z" id="Youtube"></path>
            </g>
            <g id="Social-Icons-Copy" transform="translate(0.000000, 60.000000)" fill="#B5BEC8">
                <path d="M20.0015172,0 C9.00083446,0 0,9.00106216 0,20 C0,31.000961 8.99881134,40 19.9994941,40 C31.0001768,40 39.9999997,31.000961 39.9999997,20 C40.0020228,9.00207374 31.0021999,0 20.0015172,0 L20.0015172,0 Z M14.0009609,30.0035405 L8.9998229,30.0035405 L8.9998229,15.0017703 L14.0009609,15.0017703 L14.0009609,30.0035405 L14.0009609,30.0035405 Z M11.7998128,13.1030297 C10.4018409,13.1030297 9.20112275,11.9012695 9.20112275,10.5032624 C9.20112275,9.10222042 10.4028525,7.90349502 11.7998128,7.90349502 C13.2008192,7.90349502 14.3985028,9.10525517 14.3985028,10.5032624 C14.4005259,11.900258 13.2008192,13.1030297 11.7998128,13.1030297 L11.7998128,13.1030297 Z M31.0021999,30.0035405 L26.0020735,30.0035405 L26.0020735,22.5016438 C26.0020735,20.8001619 25.8038083,18.5028577 23.502516,18.5028577 C21.2032469,18.5028577 21.0019471,20.4015983 21.0019471,22.5016438 L21.0019471,30.0035405 L16.0018207,30.0035405 L16.0018207,15.0017703 L21.0019471,15.0017703 L21.0019471,17.0016691 C21.5026678,16.0022255 22.7023744,14.704365 24.9014994,14.704365 C29.4009051,14.704365 31.0001768,17.6025492 31.0001768,21.5032118 L31.0021999,30.0035405 L31.0021999,30.0035405 L31.0021999,30.0035405 Z" id="LinkedIn"></path>
                <path d="M230,0 C219.000051,0 210,9.00005058 210,20 C210,31.000961 219.000051,40 230,40 C241.000961,40 250,31.000961 250,20 C250.002023,9.00207374 241.000961,0 230,0 L230,0 Z M224.500025,31.0019726 C219.200344,31.0019726 213.499064,27.0041981 213.499064,20.5007334 C213.499064,14.8014769 218.499317,10.0015174 224.301755,10.0015174 C229.001568,10.0015174 231.70047,12.8025897 231.801628,12.9007132 L232.102068,13.2021648 L229.402155,15.9010672 L229.001568,15.5004805 C229.001568,15.5004805 227.200951,13.6988519 224.301755,13.6988519 C220.402104,13.6988519 217.40175,16.7012291 217.40175,20.5007334 C217.40175,24.3022609 220.401092,27.3987153 224.301755,27.3987153 C226.802387,27.3987153 229.899853,26.0017197 230.399575,22.9973193 L223.00086,22.9973193 L223.00086,18.9995448 L234.302261,18.9995448 C234.302261,18.9995448 234.501542,19.8988417 234.501542,21.2998837 C234.499519,26.9020282 230.399575,31.0019726 224.500025,31.0019726 L224.500025,31.0019726 Z M243.00086,22.001922 L243.00086,25.0032876 L240.001517,25.0032876 L240.001517,22.001922 L237.000152,22.001922 L237.000152,19.0046027 L240.001517,19.0046027 L240.001517,16.0012139 L243.00086,16.0012139 L243.00086,19.0046027 L246.002225,19.0046027 L246.002225,22.001922 L243.00086,22.001922 L243.00086,22.001922 Z" id="Google-Plus"></path>
                <path d="M89.9999998,0 C79.0000505,0 70,9.00005058 70,20 C70,31.000961 78.9990389,40 89.9999998,40 C101.000961,40 110,31.000961 110,20 C110.002023,9.00207374 101.000961,0 89.9999998,0 L89.9999998,0 Z M95.6001212,11.900258 L92.7980373,11.900258 C91.2988719,11.900258 91.0965554,12.6002731 91.0965554,13.700875 L91.0965554,13.9001568 L91.0965554,16.9986344 L95.096353,16.9986344 L95.096353,20.9964089 L91.0965554,20.9964089 L91.0965554,31.9973699 L87.0957461,31.9973699 L87.0957461,20.9964089 L84.0994385,20.9964089 L84.0994385,16.9996459 L87.0977693,16.9996459 L87.0977693,13.2001416 C87.0977693,10.499216 88.8002629,7.99959537 92.898184,7.99959537 C94.4985077,7.99959537 95.7963682,8.19685398 95.7963682,8.19685398 L95.6001212,11.900258 L95.6001212,11.900258 Z" id="Facebook"></path>
                <path d="M300,0 C288.999039,0 280,9.00005058 280,20 C280,31.000961 288.999039,40 300,40 C310.999949,40 320,31.000961 320,20 C319.998988,9.00207374 310.999949,0 300,0 L300,0 Z M311.897223,13.9031915 L311.897223,14.7003186 C311.897223,22.804107 305.698245,32.2047443 294.396844,32.2047443 C290.896768,32.2047443 287.696121,31.2032775 284.996207,29.4016489 C285.495928,29.5028071 285.994639,29.5028071 286.49436,29.5028071 C289.394568,29.5028071 291.995347,28.5053867 294.097415,26.905063 C291.39649,26.905063 289.098174,25.1034343 288.396136,22.6038137 C288.796722,22.7049719 289.195286,22.7049719 289.597896,22.7049719 C290.198776,22.7049719 290.698498,22.6038137 291.19822,22.5056902 C288.396136,21.9027869 286.297102,19.406201 286.297102,16.5029589 C286.297102,16.5029589 286.297102,16.5029589 286.297102,16.4038238 C287.097264,16.9035456 288.095696,17.1018158 289.099186,17.2019625 C287.498862,16.1013606 286.399272,14.20262 286.399272,12.1025745 C286.399272,11.0019726 286.6987,9.90137069 287.19741,9.00510849 C290.197764,12.7034546 294.799454,15.2030752 299.899853,15.4043802 C299.797683,15.0037934 299.69956,14.50306 299.69956,14.0033382 C299.69956,10.603409 302.502655,7.80334834 305.900561,7.80334834 C307.699155,7.80334834 309.299479,8.50235193 310.399069,9.70411208 C311.800111,9.40367204 313.101007,8.90395023 314.297709,8.20494664 C313.798999,9.60598857 312.89869,10.8026908 311.598806,11.6048758 C312.799555,11.5037176 313.997269,11.105154 315.096859,10.6054322 C314.199585,11.900258 313.098983,13.0008598 311.897223,13.9031915 L311.897223,13.9031915 Z" id="Twitter"></path>
                <path d="M163.400941,23.502099 C162.799049,23.502099 162.299327,23.8035507 161.800617,24.4024076 L161.800617,21.00349 L160.302463,21.00349 L160.302463,32.004451 L161.800617,32.004451 L161.800617,31.2042891 C162.299327,31.8051692 162.901219,32.2027212 163.400941,32.2027212 C164.000809,32.2027212 164.399373,31.9022811 164.602701,31.3034242 C164.702847,30.9028375 164.800971,30.4010925 164.800971,29.6009307 L164.800971,26.202013 C164.800971,25.4018512 164.699813,24.9021294 164.602701,24.4995195 C164.400384,23.8025391 163.999797,23.502099 163.400941,23.502099 L163.400941,23.502099 Z M163.200647,29.6009307 C163.200647,30.4010925 163.000354,30.8026908 162.600779,30.8026908 C162.300339,30.8026908 162.100045,30.6995094 161.800617,30.4021041 L161.800617,25.3027161 C162.100045,25.0042992 162.300339,24.903141 162.600779,24.903141 C163.000354,24.903141 163.200647,25.1003996 163.200647,26.0037429 L163.200647,29.6009307 L163.200647,29.6009307 Z M157.399221,30.0035405 C157.099792,30.5012392 156.799352,30.700521 156.497901,30.700521 C156.299631,30.700521 156.198472,30.6013859 156.198472,30.4021041 L156.198472,29.801224 L156.198472,23.6012341 L154.598149,23.6012341 L154.598149,30.1977644 C154.598149,30.7996561 154.700319,31.197208 154.799454,31.3995246 C154.997724,31.8001113 155.298164,31.9983815 155.797886,31.9983815 C156.399777,31.9983815 156.898488,31.6999646 157.499368,30.9999494 L157.499368,31.9983815 L159.09868,31.9983815 L159.09868,23.599211 L157.499368,23.599211 L157.399221,30.0035405 L157.399221,30.0035405 L157.399221,30.0035405 Z M159.900865,13.6988519 C160.399575,13.6988519 160.700015,13.2982651 160.60088,12.3989682 L160.60088,9.00005058 C160.702038,8.19988873 160.399575,7.79829043 159.900865,7.79829043 C159.400131,7.79829043 159.100703,8.19887714 159.201861,9.00005058 L159.201861,12.3989682 C159.198826,13.3012999 159.400131,13.6988519 159.900865,13.6988519 L159.900865,13.6988519 Z M154.801477,20.5027566 L149.499772,20.5027566 L149.499772,22.1010571 L151.300389,22.1010571 L151.300389,32.0014162 L152.999848,32.0014162 L152.999848,22.1010571 L154.801477,22.1010571 L154.801477,20.5027566 Z M170.402104,28.1017652 L170.402104,26.4012948 C170.402104,25.4999747 170.20181,24.8009711 169.902382,24.3993728 C169.501795,23.7995043 168.902938,23.4980527 168.102777,23.4980527 C167.302615,23.4980527 166.703758,23.7995043 166.304183,24.3993728 C166.002731,24.7999595 165.803449,25.4999747 165.803449,26.4012948 L165.803449,29.299479 C165.803449,30.2007992 166.002731,30.7976329 166.304183,31.2002428 C166.704769,31.8011229 167.302615,32.0995397 168.102777,32.0995397 C168.902938,32.0995397 169.502807,31.8011229 169.902382,31.2002428 C170.101664,30.8998027 170.20181,30.5993627 170.302969,30.2989227 C170.302969,30.0996409 170.405139,29.7992008 170.405139,29.299479 L170.405139,29.1001973 L168.805826,29.1001973 L168.805826,30.2007992 C168.702645,30.6013859 168.505386,30.8006676 168.105811,30.8006676 C167.605078,30.8006676 167.406808,30.4000809 167.406808,29.5999191 L167.406808,28.1017652 L170.402104,28.1017652 L170.402104,28.1017652 L170.402104,28.1017652 Z M167.40175,25.9025846 C167.40175,25.1024227 167.60002,24.9021294 168.099742,24.9021294 C168.599464,24.9021294 168.798745,25.1024227 168.798745,25.9025846 L168.798745,26.8028931 L167.399727,26.8028931 L167.40175,25.9025846 L167.40175,25.9025846 L167.40175,25.9025846 Z M160,0 C148.999039,0 140,9.00005058 140,20 C140,31.000961 148.999039,40 160,40 C170.999949,40 180,31.000961 180,20 C180.002023,9.00207374 171.000961,0 160,0 L160,0 Z M163.400941,6.50042992 L165.001264,6.50042992 L165.001264,12.8015781 L165.001264,13.4034697 C165.001264,13.6017399 165.102423,13.7018866 165.300693,13.7018866 C165.600121,13.7018866 165.902584,13.4034697 166.202013,13.002883 L166.202013,6.50245309 L167.802337,6.50245309 L167.802337,15.0017703 L166.202013,15.0017703 L166.202013,14.098427 C165.600121,14.7994537 165.099388,15.0978706 164.499519,15.0978706 C163.999797,15.0978706 163.700369,14.8985888 163.501087,14.4990137 C163.399929,14.1985737 163.301805,13.797987 163.301805,13.2972536 L163.400941,6.50042992 L163.400941,6.50042992 L163.400941,6.50042992 Z M159.900865,6.50042992 C160.60088,6.50042992 161.200748,6.69870012 161.70047,7.29958019 C161.999899,7.70016691 162.200192,8.3991705 162.200192,9.30049062 L162.200192,12.3028678 C162.200192,13.2031764 162.099034,13.8010217 161.70047,14.2016084 C161.299883,14.8024885 160.60088,15.1019169 159.900865,15.1019169 C159.201861,15.1019169 158.500834,14.8024885 158.101259,14.2016084 C157.800819,13.8010217 157.601537,13.2031764 157.601537,12.3028678 L157.601537,9.30049062 C157.601537,8.40119367 157.800819,7.70117849 158.101259,7.29958019 C158.600981,6.70173486 159.198826,6.50042992 159.900865,6.50042992 L159.900865,6.50042992 Z M153.900157,3.70239239 L155.100905,8.10277679 L156.302665,3.70239239 L158.101259,3.70239239 L156.003237,10.3990693 L156.003237,15.0017703 L154.301755,15.0017703 L154.301755,10.3990693 C154.301755,10.3990693 152.600273,4.69778969 152.202721,3.70239239 L153.900157,3.70239239 L153.900157,3.70239239 Z M172.502149,27.5008851 C172.502149,29.5028071 172.200698,31.4996712 172.200698,31.4996712 C172.200698,31.4996712 172.002428,33.2021648 171.202266,34.0023266 C170.203834,35.0007587 169.201355,35.0007587 168.700622,35.1029285 C165.201558,35.4033686 159.901876,35.4033686 159.901876,35.4033686 C159.901876,35.4033686 153.400435,35.3011987 151.401548,35.1029285 C150.801679,35.0007587 149.602954,35.0007587 148.601487,34.0023266 C147.799302,33.2021648 147.601032,31.4996712 147.601032,31.4996712 C147.601032,31.4996712 147.302615,29.4987608 147.302615,27.5008851 L147.302615,25.6021446 C147.302615,23.6002225 147.601032,21.6033585 147.601032,21.6033585 C147.601032,21.6033585 147.799302,19.8988417 148.601487,19.100703 C149.599919,18.102271 150.602397,18.102271 151.101108,18.0001012 C154.600172,17.7016843 159.900865,17.7016843 159.900865,17.7016843 L159.900865,17.7016843 C159.900865,17.7016843 165.200546,17.7016843 168.69961,18.0001012 C169.199332,18.102271 170.299934,18.102271 171.201254,19.100703 C172.001416,19.9008649 172.199686,21.6033585 172.199686,21.6033585 C172.199686,21.6033585 172.500126,23.6022457 172.500126,25.6021446 L172.500126,27.5008851 L172.502149,27.5008851 L172.502149,27.5008851 Z" id="Youtube"></path>
            </g>
            <g id="Social-Icons-Copy-2" transform="translate(0.000000, 120.000000)" fill="#323232">
                <path d="M20.0015172,0 C9.00083446,0 0,9.00106216 0,20 C0,31.000961 8.99881134,40 19.9994941,40 C31.0001768,40 39.9999997,31.000961 39.9999997,20 C40.0020228,9.00207374 31.0021999,0 20.0015172,0 L20.0015172,0 Z M14.0009609,30.0035405 L8.9998229,30.0035405 L8.9998229,15.0017703 L14.0009609,15.0017703 L14.0009609,30.0035405 L14.0009609,30.0035405 Z M11.7998128,13.1030297 C10.4018409,13.1030297 9.20112275,11.9012695 9.20112275,10.5032624 C9.20112275,9.10222042 10.4028525,7.90349502 11.7998128,7.90349502 C13.2008192,7.90349502 14.3985028,9.10525517 14.3985028,10.5032624 C14.4005259,11.900258 13.2008192,13.1030297 11.7998128,13.1030297 L11.7998128,13.1030297 Z M31.0021999,30.0035405 L26.0020735,30.0035405 L26.0020735,22.5016438 C26.0020735,20.8001619 25.8038083,18.5028577 23.502516,18.5028577 C21.2032469,18.5028577 21.0019471,20.4015983 21.0019471,22.5016438 L21.0019471,30.0035405 L16.0018207,30.0035405 L16.0018207,15.0017703 L21.0019471,15.0017703 L21.0019471,17.0016691 C21.5026678,16.0022255 22.7023744,14.704365 24.9014994,14.704365 C29.4009051,14.704365 31.0001768,17.6025492 31.0001768,21.5032118 L31.0021999,30.0035405 L31.0021999,30.0035405 L31.0021999,30.0035405 Z" id="LinkedIn"></path>
                <path d="M230,0 C219.000051,0 210,9.00005058 210,20 C210,31.000961 219.000051,40 230,40 C241.000961,40 250,31.000961 250,20 C250.002023,9.00207374 241.000961,0 230,0 L230,0 Z M224.500025,31.0019726 C219.200344,31.0019726 213.499064,27.0041981 213.499064,20.5007334 C213.499064,14.8014769 218.499317,10.0015174 224.301755,10.0015174 C229.001568,10.0015174 231.70047,12.8025897 231.801628,12.9007132 L232.102068,13.2021648 L229.402155,15.9010672 L229.001568,15.5004805 C229.001568,15.5004805 227.200951,13.6988519 224.301755,13.6988519 C220.402104,13.6988519 217.40175,16.7012291 217.40175,20.5007334 C217.40175,24.3022609 220.401092,27.3987153 224.301755,27.3987153 C226.802387,27.3987153 229.899853,26.0017197 230.399575,22.9973193 L223.00086,22.9973193 L223.00086,18.9995448 L234.302261,18.9995448 C234.302261,18.9995448 234.501542,19.8988417 234.501542,21.2998837 C234.499519,26.9020282 230.399575,31.0019726 224.500025,31.0019726 L224.500025,31.0019726 Z M243.00086,22.001922 L243.00086,25.0032876 L240.001517,25.0032876 L240.001517,22.001922 L237.000152,22.001922 L237.000152,19.0046027 L240.001517,19.0046027 L240.001517,16.0012139 L243.00086,16.0012139 L243.00086,19.0046027 L246.002225,19.0046027 L246.002225,22.001922 L243.00086,22.001922 L243.00086,22.001922 Z" id="Google-Plus"></path>
                <path d="M89.9999998,0 C79.0000505,0 70,9.00005058 70,20 C70,31.000961 78.9990389,40 89.9999998,40 C101.000961,40 110,31.000961 110,20 C110.002023,9.00207374 101.000961,0 89.9999998,0 L89.9999998,0 Z M95.6001212,11.900258 L92.7980373,11.900258 C91.2988719,11.900258 91.0965554,12.6002731 91.0965554,13.700875 L91.0965554,13.9001568 L91.0965554,16.9986344 L95.096353,16.9986344 L95.096353,20.9964089 L91.0965554,20.9964089 L91.0965554,31.9973699 L87.0957461,31.9973699 L87.0957461,20.9964089 L84.0994385,20.9964089 L84.0994385,16.9996459 L87.0977693,16.9996459 L87.0977693,13.2001416 C87.0977693,10.499216 88.8002629,7.99959537 92.898184,7.99959537 C94.4985077,7.99959537 95.7963682,8.19685398 95.7963682,8.19685398 L95.6001212,11.900258 L95.6001212,11.900258 Z" id="Facebook"></path>
                <path d="M300,0 C288.999039,0 280,9.00005058 280,20 C280,31.000961 288.999039,40 300,40 C310.999949,40 320,31.000961 320,20 C319.998988,9.00207374 310.999949,0 300,0 L300,0 Z M311.897223,13.9031915 L311.897223,14.7003186 C311.897223,22.804107 305.698245,32.2047443 294.396844,32.2047443 C290.896768,32.2047443 287.696121,31.2032775 284.996207,29.4016489 C285.495928,29.5028071 285.994639,29.5028071 286.49436,29.5028071 C289.394568,29.5028071 291.995347,28.5053867 294.097415,26.905063 C291.39649,26.905063 289.098174,25.1034343 288.396136,22.6038137 C288.796722,22.7049719 289.195286,22.7049719 289.597896,22.7049719 C290.198776,22.7049719 290.698498,22.6038137 291.19822,22.5056902 C288.396136,21.9027869 286.297102,19.406201 286.297102,16.5029589 C286.297102,16.5029589 286.297102,16.5029589 286.297102,16.4038238 C287.097264,16.9035456 288.095696,17.1018158 289.099186,17.2019625 C287.498862,16.1013606 286.399272,14.20262 286.399272,12.1025745 C286.399272,11.0019726 286.6987,9.90137069 287.19741,9.00510849 C290.197764,12.7034546 294.799454,15.2030752 299.899853,15.4043802 C299.797683,15.0037934 299.69956,14.50306 299.69956,14.0033382 C299.69956,10.603409 302.502655,7.80334834 305.900561,7.80334834 C307.699155,7.80334834 309.299479,8.50235193 310.399069,9.70411208 C311.800111,9.40367204 313.101007,8.90395023 314.297709,8.20494664 C313.798999,9.60598857 312.89869,10.8026908 311.598806,11.6048758 C312.799555,11.5037176 313.997269,11.105154 315.096859,10.6054322 C314.199585,11.900258 313.098983,13.0008598 311.897223,13.9031915 L311.897223,13.9031915 Z" id="Twitter"></path>
                <path d="M163.400941,23.502099 C162.799049,23.502099 162.299327,23.8035507 161.800617,24.4024076 L161.800617,21.00349 L160.302463,21.00349 L160.302463,32.004451 L161.800617,32.004451 L161.800617,31.2042891 C162.299327,31.8051692 162.901219,32.2027212 163.400941,32.2027212 C164.000809,32.2027212 164.399373,31.9022811 164.602701,31.3034242 C164.702847,30.9028375 164.800971,30.4010925 164.800971,29.6009307 L164.800971,26.202013 C164.800971,25.4018512 164.699813,24.9021294 164.602701,24.4995195 C164.400384,23.8025391 163.999797,23.502099 163.400941,23.502099 L163.400941,23.502099 Z M163.200647,29.6009307 C163.200647,30.4010925 163.000354,30.8026908 162.600779,30.8026908 C162.300339,30.8026908 162.100045,30.6995094 161.800617,30.4021041 L161.800617,25.3027161 C162.100045,25.0042992 162.300339,24.903141 162.600779,24.903141 C163.000354,24.903141 163.200647,25.1003996 163.200647,26.0037429 L163.200647,29.6009307 L163.200647,29.6009307 Z M157.399221,30.0035405 C157.099792,30.5012392 156.799352,30.700521 156.497901,30.700521 C156.299631,30.700521 156.198472,30.6013859 156.198472,30.4021041 L156.198472,29.801224 L156.198472,23.6012341 L154.598149,23.6012341 L154.598149,30.1977644 C154.598149,30.7996561 154.700319,31.197208 154.799454,31.3995246 C154.997724,31.8001113 155.298164,31.9983815 155.797886,31.9983815 C156.399777,31.9983815 156.898488,31.6999646 157.499368,30.9999494 L157.499368,31.9983815 L159.09868,31.9983815 L159.09868,23.599211 L157.499368,23.599211 L157.399221,30.0035405 L157.399221,30.0035405 L157.399221,30.0035405 Z M159.900865,13.6988519 C160.399575,13.6988519 160.700015,13.2982651 160.60088,12.3989682 L160.60088,9.00005058 C160.702038,8.19988873 160.399575,7.79829043 159.900865,7.79829043 C159.400131,7.79829043 159.100703,8.19887714 159.201861,9.00005058 L159.201861,12.3989682 C159.198826,13.3012999 159.400131,13.6988519 159.900865,13.6988519 L159.900865,13.6988519 Z M154.801477,20.5027566 L149.499772,20.5027566 L149.499772,22.1010571 L151.300389,22.1010571 L151.300389,32.0014162 L152.999848,32.0014162 L152.999848,22.1010571 L154.801477,22.1010571 L154.801477,20.5027566 Z M170.402104,28.1017652 L170.402104,26.4012948 C170.402104,25.4999747 170.20181,24.8009711 169.902382,24.3993728 C169.501795,23.7995043 168.902938,23.4980527 168.102777,23.4980527 C167.302615,23.4980527 166.703758,23.7995043 166.304183,24.3993728 C166.002731,24.7999595 165.803449,25.4999747 165.803449,26.4012948 L165.803449,29.299479 C165.803449,30.2007992 166.002731,30.7976329 166.304183,31.2002428 C166.704769,31.8011229 167.302615,32.0995397 168.102777,32.0995397 C168.902938,32.0995397 169.502807,31.8011229 169.902382,31.2002428 C170.101664,30.8998027 170.20181,30.5993627 170.302969,30.2989227 C170.302969,30.0996409 170.405139,29.7992008 170.405139,29.299479 L170.405139,29.1001973 L168.805826,29.1001973 L168.805826,30.2007992 C168.702645,30.6013859 168.505386,30.8006676 168.105811,30.8006676 C167.605078,30.8006676 167.406808,30.4000809 167.406808,29.5999191 L167.406808,28.1017652 L170.402104,28.1017652 L170.402104,28.1017652 L170.402104,28.1017652 Z M167.40175,25.9025846 C167.40175,25.1024227 167.60002,24.9021294 168.099742,24.9021294 C168.599464,24.9021294 168.798745,25.1024227 168.798745,25.9025846 L168.798745,26.8028931 L167.399727,26.8028931 L167.40175,25.9025846 L167.40175,25.9025846 L167.40175,25.9025846 Z M160,0 C148.999039,0 140,9.00005058 140,20 C140,31.000961 148.999039,40 160,40 C170.999949,40 180,31.000961 180,20 C180.002023,9.00207374 171.000961,0 160,0 L160,0 Z M163.400941,6.50042992 L165.001264,6.50042992 L165.001264,12.8015781 L165.001264,13.4034697 C165.001264,13.6017399 165.102423,13.7018866 165.300693,13.7018866 C165.600121,13.7018866 165.902584,13.4034697 166.202013,13.002883 L166.202013,6.50245309 L167.802337,6.50245309 L167.802337,15.0017703 L166.202013,15.0017703 L166.202013,14.098427 C165.600121,14.7994537 165.099388,15.0978706 164.499519,15.0978706 C163.999797,15.0978706 163.700369,14.8985888 163.501087,14.4990137 C163.399929,14.1985737 163.301805,13.797987 163.301805,13.2972536 L163.400941,6.50042992 L163.400941,6.50042992 L163.400941,6.50042992 Z M159.900865,6.50042992 C160.60088,6.50042992 161.200748,6.69870012 161.70047,7.29958019 C161.999899,7.70016691 162.200192,8.3991705 162.200192,9.30049062 L162.200192,12.3028678 C162.200192,13.2031764 162.099034,13.8010217 161.70047,14.2016084 C161.299883,14.8024885 160.60088,15.1019169 159.900865,15.1019169 C159.201861,15.1019169 158.500834,14.8024885 158.101259,14.2016084 C157.800819,13.8010217 157.601537,13.2031764 157.601537,12.3028678 L157.601537,9.30049062 C157.601537,8.40119367 157.800819,7.70117849 158.101259,7.29958019 C158.600981,6.70173486 159.198826,6.50042992 159.900865,6.50042992 L159.900865,6.50042992 Z M153.900157,3.70239239 L155.100905,8.10277679 L156.302665,3.70239239 L158.101259,3.70239239 L156.003237,10.3990693 L156.003237,15.0017703 L154.301755,15.0017703 L154.301755,10.3990693 C154.301755,10.3990693 152.600273,4.69778969 152.202721,3.70239239 L153.900157,3.70239239 L153.900157,3.70239239 Z M172.502149,27.5008851 C172.502149,29.5028071 172.200698,31.4996712 172.200698,31.4996712 C172.200698,31.4996712 172.002428,33.2021648 171.202266,34.0023266 C170.203834,35.0007587 169.201355,35.0007587 168.700622,35.1029285 C165.201558,35.4033686 159.901876,35.4033686 159.901876,35.4033686 C159.901876,35.4033686 153.400435,35.3011987 151.401548,35.1029285 C150.801679,35.0007587 149.602954,35.0007587 148.601487,34.0023266 C147.799302,33.2021648 147.601032,31.4996712 147.601032,31.4996712 C147.601032,31.4996712 147.302615,29.4987608 147.302615,27.5008851 L147.302615,25.6021446 C147.302615,23.6002225 147.601032,21.6033585 147.601032,21.6033585 C147.601032,21.6033585 147.799302,19.8988417 148.601487,19.100703 C149.599919,18.102271 150.602397,18.102271 151.101108,18.0001012 C154.600172,17.7016843 159.900865,17.7016843 159.900865,17.7016843 L159.900865,17.7016843 C159.900865,17.7016843 165.200546,17.7016843 168.69961,18.0001012 C169.199332,18.102271 170.299934,18.102271 171.201254,19.100703 C172.001416,19.9008649 172.199686,21.6033585 172.199686,21.6033585 C172.199686,21.6033585 172.500126,23.6022457 172.500126,25.6021446 L172.500126,27.5008851 L172.502149,27.5008851 L172.502149,27.5008851 Z" id="Youtube"></path>
            </g>
            <g id="Logo" transform="translate(340.000000, 78.000000)">
                <rect id="Logo-BG" fill="#323232" x="0" y="0" width="190" height="50"></rect>
                <path d="M38.4638394,16.6955224 L39.3539018,21.3462687 L38.1555171,21.597015 C37.4283419,18.5044777 34.88032,16.5044777 31.6516622,16.5044777 C27.7016465,16.5044777 24.752224,20.0925373 24.752224,24.9104477 C24.752224,29.8776119 27.8179946,33.4955224 32.0239758,33.4955224 C35.3515296,33.4955224 37.6784902,31.5373135 38.5627352,27.997015 L39.7611199,28.1522388 L39.2666408,32.6477612 C36.2008702,34.2895523 33.9728054,34.9402985 31.3956965,34.9402985 C25.2117987,34.9402985 21,30.8089552 21,24.7432836 C21,18.8985075 25.0721811,15 31.1804526,15 C33.6063091,15 35.0781117,15.3223881 37.9577254,16.4925373 C38.0682561,16.5402985 38.2369607,16.6059702 38.4638394,16.6955224 L38.4638394,16.6955224 L38.4638394,16.6955224 Z M62.1813853,18.3552239 C62.7398559,19.6029851 62.9492824,20.0268657 63.6473706,21.4597015 C64.2581977,22.7253731 64.653781,23.5373135 64.8224857,23.9014925 L65.7881743,25.9671642 L66.7364108,27.9313433 L67.0680026,28.6298508 C67.6206558,27.5432836 67.81263,27.1373135 68.376918,25.8656717 L69.4240503,23.5074627 L70.5235392,21.0358209 L71.4252364,18.9462687 L71.681202,18.361194 L77.1379244,18.361194 L77.1379244,19.0955224 C76.7307066,19.0179104 76.6318108,19.0059702 76.4049321,19.0059702 C74.8982251,19.0059702 74.6306247,19.5313433 74.6306247,22.4985075 L74.6306247,28.3552239 C74.6306247,31.1910448 74.9505817,31.8537314 76.3467581,31.8537314 C76.5736367,31.8537314 76.8935938,31.8179104 77.2193685,31.7522388 L77.2193685,32.4746269 L69.3716936,32.4746269 L69.3716936,31.7522388 C69.6160245,31.8238806 69.8429031,31.8537314 70.0348775,31.8537314 C71.3437928,31.8537314 71.7161064,31.1373135 71.7161064,28.3552239 L71.7161064,21.1313433 C71.4717756,21.4895523 71.3845146,21.7522388 71.3030709,21.9313433 C71.2390796,22.0686567 70.9016703,22.7910448 70.3141127,24.0985075 L69.2204412,26.5283583 L68.0162391,29.3104477 C67.4054119,30.7253731 67.0563679,31.5432836 66.9691068,31.7522388 C66.9109328,31.8895523 66.8236718,32.1402985 66.7131412,32.3850746 L65.8114439,32.3850746 L65.5031216,31.680597 C64.3803631,29.1253731 64.1825715,28.6955224 63.3565005,26.9462687 L62.2453768,24.6 C61.6694541,23.3820896 61.3087752,22.6059702 61.1400705,22.2716418 C61.0237225,22.0447762 60.87247,21.6985075 60.6281392,21.2447762 L60.6281392,28.3492537 L60.6281392,29.0358209 C60.6281392,31.1492537 61.1051661,31.8477612 62.5420642,31.8477612 C62.7747603,31.8477612 62.8911084,31.8238806 63.1354392,31.7462687 L63.1354392,32.4686567 L57.0737069,32.4686567 L57.0737069,31.7462687 C57.3180377,31.8119403 57.5740034,31.8537314 57.7310732,31.8537314 C59.10398,31.8537314 59.4181197,31.197015 59.4181197,28.3492537 L59.4181197,22.4925373 L59.4181197,21.8059702 C59.4181197,19.5432836 59.10398,19.0059702 57.7776125,19.0059702 C57.5100119,19.0059702 57.3936639,19.0298508 57.1493331,19.0955224 L57.1493331,18.3552239 L62.1813853,18.3552239 L62.1813853,18.3552239 L62.1813853,18.3552239 Z M120.000539,31.7462687 L120.000539,32.4686567 L110.861402,32.4686567 L110.861402,31.7462687 C111.344246,31.8179104 111.611846,31.8477612 111.949256,31.8477612 C113.601397,31.8477612 113.93299,31.2746269 113.93299,28.3492537 L113.93299,22.4925373 C113.93299,19.5432836 113.647936,19.0059702 111.960891,19.0059702 C111.576941,19.0059702 111.42569,19.0179104 111.099915,19.0955224 L111.099915,18.3552239 L119.919096,18.3552239 L119.919096,19.0895523 C119.436252,19.0179104 119.308268,19 118.883598,19 C117.173282,19 116.847507,19.5432836 116.847507,22.4865672 L116.847507,28.3432836 C116.847507,31.2507463 117.196552,31.841791 118.848694,31.841791 C119.209373,31.8477612 119.599138,31.8119403 120.000539,31.7462687 L120.000539,31.7462687 L120.000539,31.7462687 Z M153.31098,18.6716418 L154.003251,22.2835821 L152.967753,22.4746269 C152.089326,19.9313433 150.681515,18.7910448 148.418546,18.7910448 C145.18407,18.7910448 143.043267,21.2567164 143.043267,24.9820896 C143.043267,28.9462687 145.410949,31.7641791 148.76759,31.7641791 C149.599478,31.7641791 150.251027,31.6507463 150.978202,31.3462687 L150.978202,27.8597015 L150.978202,27.441791 C150.978202,26.3432836 150.634975,25.9373135 149.669287,25.9373135 C149.558757,25.9373135 149.407504,25.9432836 149.186442,25.961194 L149.041007,25.9731343 L149.041007,25.161194 L155.917176,25.161194 L155.917176,25.9731343 L155.696115,25.961194 L155.411063,25.9373135 L155.317984,25.9313433 C154.07306,25.9313433 153.811277,26.2955224 153.811277,28.0507463 C153.811277,29.0776119 153.840363,30.5522388 153.89272,31.7701493 C153.072467,31.9253731 152.199857,32.1044777 151.495951,32.2656717 C149.442408,32.7313433 148.593068,32.8507463 147.394683,32.8507463 C143.014179,32.8507463 140.041487,29.8835821 140.041487,25.519403 C140.041487,20.9104477 143.078171,18.0149254 147.906614,18.0149254 C148.721051,18.0149254 149.646018,18.0925373 150.565167,18.241791 L151.763552,18.4328358 L152.839771,18.5820896 L153.31098,18.6716418 L153.31098,18.6716418 L153.31098,18.6716418 Z M169.041234,18.3552239 L169.570618,21.4059702 L168.744546,21.561194 C168.37805,19.7343283 167.551979,19.2447762 164.788713,19.2447762 C163.980095,19.2447762 163.433259,19.2985075 162.549013,19.4776119 L162.549013,24.4149254 L164.963235,24.4149254 C166.31869,24.4149254 166.702639,24.1104477 166.702639,23.0298508 C166.702639,22.8567164 166.696821,22.7552239 166.667734,22.5044777 L167.48217,22.5044777 L167.48217,27.3164179 L166.667734,27.3164179 C166.708456,26.8985075 166.714274,26.8149254 166.714274,26.6537314 C166.714274,25.7164179 166.260516,25.4059702 164.963235,25.4059702 L162.549013,25.4059702 L162.549013,31.2208956 L165.097035,31.2208956 L165.515889,31.2208956 C167.819579,31.2208956 168.564207,30.7552239 169.419365,28.719403 C169.454269,28.641791 169.506626,28.5283583 169.576435,28.3671642 L170.454863,28.6716418 L169.157582,32.4746269 L156.644352,32.4746269 L156.644352,31.7522388 C157.051569,31.8238806 157.388979,31.8537314 157.755475,31.8537314 C159.361078,31.8537314 159.721757,31.2268657 159.721757,28.3552239 L159.721757,22.4985075 C159.721757,19.5791045 159.372713,19.0059702 157.685666,19.0059702 C157.31917,19.0059702 157.133013,19.0238806 156.813056,19.0955224 L156.813056,18.3552239 L169.041234,18.3552239 L169.041234,18.3552239 L169.041234,18.3552239 Z M48.6850138,17.441791 L51.1923139,23.9074627 L51.3377489,24.2895523 C53.874136,30.9044777 54.438424,31.8597015 55.9044092,31.8597015 C56.0847486,31.8597015 56.3523491,31.8238806 56.5094189,31.7522388 L56.5094189,32.4746269 L48.9060751,32.4746269 L48.9060751,31.7522388 C49.2318496,31.841791 49.3481976,31.8537314 49.6623373,31.8537314 C50.4418691,31.8537314 50.8200002,31.5671642 50.8200002,30.9761194 C50.8200002,30.8089552 50.7618262,30.558209 50.6512956,30.2597015 L49.8252246,27.9910448 L45.1305815,27.9910448 L44.4790325,29.7223881 L44.3568671,30.0626866 L44.211432,30.4567164 C44.1648929,30.6179104 44.1299885,30.8029851 44.1299885,30.9522388 C44.1299885,31.5313433 44.6070153,31.8716418 45.4214516,31.8716418 C45.6948695,31.8716418 45.8286697,31.8537314 46.2300704,31.758209 L46.2300704,32.480597 L40.1741554,32.480597 L40.1741554,31.758209 C40.4999299,31.8298508 40.616278,31.8537314 40.8315218,31.8537314 C41.9368281,31.8537314 42.472029,31.2567164 43.385361,28.9940298 L43.7402225,28.1223881 L43.949649,27.597015 L48.0567345,17.4537314 L48.6850138,17.4537314 L48.6850138,17.441791 L48.6850138,17.441791 Z M47.3353767,21.9552239 L45.5028952,26.9462687 L49.2609366,27 L47.3353767,21.9552239 L47.3353767,21.9552239 L47.3353767,21.9552239 Z M78.8307888,19.0895523 L78.8307888,18.3552239 L83.1473007,18.3552239 L83.75231,18.3552239 C84.1944329,18.3552239 84.9274253,18.3253731 86.1490795,18.2776119 C86.7424549,18.2537314 87.1962117,18.2358209 87.5103515,18.2358209 C90.0292863,18.2358209 91.5301761,19.358209 91.5301761,21.2447762 C91.5301761,23.0656717 90.3434261,24.2477612 87.9990134,24.7671642 C90.7739142,24.9761194 92.0828295,26.0985075 92.0828295,28.2776119 C92.0828295,31.041791 89.9652947,32.5462687 86.0618185,32.5462687 C85.7767659,32.5462687 85.3404608,32.5223881 84.7412685,32.5044777 L83.397449,32.4626866 L82.8157083,32.4626866 L78.5864575,32.4626866 L78.5864575,31.7402985 C78.9936761,31.8119403 79.3194498,31.841791 79.6917642,31.841791 C81.3206363,31.841791 81.6638634,31.2567164 81.6638634,28.3432836 L81.6638634,22.4865672 C81.6638634,19.5313433 81.3613583,19 79.6626769,19 C79.3136329,19 79.2380066,19.0119403 78.8307888,19.0895523 L78.8307888,19.0895523 L78.8307888,19.0895523 Z M84.4154939,24.4746269 C84.7412685,24.5283583 85.1484863,24.6179104 85.4917134,24.6179104 C87.3649168,24.6179104 88.7494583,23.238806 88.7494583,21.441791 C88.7494583,20.0328358 87.5627083,18.9820896 85.9745575,18.9820896 C85.4975303,18.9820896 85.2182956,19.041791 84.4096769,19.3104477 L84.4096769,24.4746269 L84.4154939,24.4746269 L84.4154939,24.4746269 Z M84.4154939,31.4059702 C85.0612253,31.5492537 85.5266176,31.6089552 86.0734532,31.6089552 C87.8652134,31.6089552 89.1275888,30.2059702 89.1275888,28.2059702 C89.1275888,26.3791045 87.8361261,25.3402985 85.5615219,25.3402985 C85.1892083,25.3402985 84.979782,25.3641791 84.4154939,25.4656717 L84.4154939,31.4059702 L84.4154939,31.4059702 L84.4154939,31.4059702 Z M94.3632507,19.0895523 L94.3632507,18.3552239 L98.4470668,18.3552239 L98.9182761,18.3552239 L99.9537736,18.3074627 L101.012541,18.2656717 C101.914238,18.2358209 102.216743,18.2238806 102.449439,18.2238806 C105.567566,18.2238806 107.10336,19.3522388 107.10336,21.6447762 C107.10336,23.7462687 105.881706,24.9701493 103.514024,25.2507463 C104.892747,25.997015 105.393044,26.558209 106.393637,28.4686567 C107.73164,31.0179104 108.487902,31.8 109.581573,31.8 C109.703739,31.8 109.727008,31.7940298 110.209852,31.7402985 L110.209852,32.4626866 L108.703146,32.4626866 L108.261023,32.4626866 L107.592022,32.5044777 L106.998646,32.5283583 C105.649009,32.5283583 105.055635,32.0865672 104.177207,30.3850746 L103.636189,29.3044777 C102.176021,26.480597 101.553559,25.9014925 99.936321,25.8835821 L99.936321,28.3432836 C99.936321,31.2746269 100.215557,31.841791 101.861881,31.841791 C102.176021,31.841791 102.443621,31.8119403 102.763579,31.7402985 L102.763579,32.4626866 L94.1072846,32.4626866 L94.1072846,31.7402985 C94.5145032,31.8119403 94.8693642,31.841791 95.1951388,31.841791 C96.7018456,31.841791 97.1846905,31.1671642 97.1846905,29.0298508 L97.1846905,28.3432836 L97.1846905,22.4865672 L97.1846905,21.8 C97.1846905,19.6567164 96.7251159,19 95.2300431,19 C94.8984515,19 94.6890253,19.0238806 94.3632507,19.0895523 L94.3632507,19.0895523 L94.3632507,19.0895523 Z M99.9421388,25.0835821 C100.349357,25.1253731 100.529696,25.1313433 100.832201,25.1313433 C103.007909,25.1313433 104.17139,23.9910448 104.17139,21.8716418 C104.17139,20.1164179 103.089353,18.9462687 101.454663,18.9462687 C100.989271,18.9462687 100.424983,19.041791 99.9421388,19.2089552 L99.9421388,25.0835821 L99.9421388,25.0835821 L99.9421388,25.0835821 Z M121.536333,19.0895523 L121.536333,18.3552239 L125.835393,18.3552239 L126.341507,18.3552239 L127.330465,18.3074627 L128.50558,18.2656717 C129.320016,18.241791 129.878487,18.2298508 130.180991,18.2298508 C135.009435,18.2298508 137.557457,20.4208956 137.557457,24.5761194 C137.557457,29.4179104 134.218268,32.5462687 129.040781,32.5462687 L127.510804,32.4925373 L126.510212,32.4626866 L125.829575,32.4626866 L121.367629,32.4626866 L121.367629,31.7402985 C121.774846,31.8059702 122.164613,31.841791 122.507839,31.841791 C124.159981,31.841791 124.52066,31.2507463 124.52066,28.3432836 L124.52066,22.4865672 C124.52066,19.5432836 124.183251,19 122.472935,19 C122.088986,19 121.943552,19.0179104 121.536333,19.0895523 L121.536333,19.0895523 L121.536333,19.0895523 Z M127.359552,31.3044777 C128.249614,31.6029851 128.784815,31.6985075 129.529443,31.6985075 C132.548674,31.6985075 134.474234,29.0358209 134.474234,24.8507463 C134.474234,21.1850746 132.64757,19.0656717 129.482903,19.0656717 C128.761546,19.0656717 128.168171,19.1671642 127.359552,19.4238806 L127.359552,31.3044777 L127.359552,31.3044777 L127.359552,31.3044777 Z" id="Combined-Shape" fill="#F2F2F2"></path>
            </g>
        </g>
    </g>
</svg>