<?xml version="1.0" encoding="utf-8"?>
<!-- Generator: Adobe Illustrator 18.1.0, SVG Export Plug-In . SVG Version: 6.00 Build 0)  -->
<!DOCTYPE svg PUBLIC "-//W3C//DTD SVG 1.1//EN" "http://www.w3.org/Graphics/SVG/1.1/DTD/svg11.dtd">
<svg version="1.1" xmlns="http://www.w3.org/2000/svg" xmlns:xlink="http://www.w3.org/1999/xlink" x="0px" y="0px" width="32px"
	 height="32px" viewBox="0 0 32 32" enable-background="new 0 0 32 32" xml:space="preserve">
<g id="icons">
	<g>
		<g>
			<path fill="#4D4D4D" d="M21.7,14.3c0.2,0.6,0.3,1.1,0.3,1.7c0,3.3-2.7,6-6,6s-6-2.7-6-6s2.7-6,6-6c1.1,0,2.2,0.3,3.1,0.9l0.7-0.7
				C18.7,9.4,17.4,9,16,9c-3.9,0-7,3.1-7,7c0,3.9,3.1,7,7,7s7-3.1,7-7c0-0.9-0.2-1.7-0.5-2.5L21.7,14.3z"/>
		</g>
		<g>
			<polygon fill="#4D4D4D" points="14,14 13,15 16,18 24,10 23,9 16,16 			"/>
		</g>
	</g>
</g>
<g id="working">
</g>
<g id="colour:_negative">
</g>
</svg>
