<?xml version="1.0" encoding="UTF-8" standalone="no"?>
<svg width="244px" height="90px" viewBox="0 0 244 90" version="1.1" xmlns="http://www.w3.org/2000/svg" xmlns:xlink="http://www.w3.org/1999/xlink">
    <!-- Generator: Sketch 3.8.1 (29687) - http://www.bohemiancoding.com/sketch -->
    <title>logo</title>
    <desc>Created with Sketch.</desc>
    <defs></defs>
    <g id="Pages" stroke="none" stroke-width="1" fill="none" fill-rule="evenodd">
        <g id="Activation-Page">
            <g id="logo" transform="translate(-1.000000, 0.000000)">
                <rect id="Rectangle-145" fill="#171314" x="0" y="0" width="245" height="90"></rect>
                <path d="M54.6485177,35.9704478 L55.6987913,41.318806 L54.2846974,41.6071642 C53.4266306,38.0507463 50.4199648,35.7507463 46.6101486,35.7507463 C41.9491301,35.7507463 38.4688115,39.8770149 38.4688115,45.4176119 C38.4688115,51.1298507 42.0864208,55.2904478 47.0494787,55.2904478 C50.9759921,55.2904478 53.7218056,53.0385075 54.7652147,48.9671642 L56.1793087,49.1456716 L55.5958233,54.3155224 C51.978214,56.2035821 49.3490976,56.9519403 46.3081091,56.9519403 C39.0111097,56.9519403 34.0411872,52.2008955 34.0411872,45.2253731 C34.0411872,38.5038806 38.8463609,34.020597 46.0541213,34.020597 C48.9166319,34.020597 50.653359,34.3913433 54.0513032,35.7370149 C54.1817294,35.7919403 54.3808008,35.8674627 54.6485177,35.9704478 L54.6485177,35.9704478 Z" id="XMLID_205_" fill="#FFFFFF"></path>
                <path d="M82.6352219,37.8791045 C83.2942172,39.3140299 83.5413404,39.8014925 84.3650845,41.4492537 C85.0858605,42.9047761 85.5526488,43.8385075 85.7517203,44.2573134 L86.8912329,46.6328358 L88.0101519,48.8916418 L88.4014303,49.6949254 C89.053561,48.4453731 89.2800906,47.9785075 89.9459504,46.5161194 L91.1815665,43.8041791 L92.4789634,40.961791 L93.5429661,38.558806 L93.8450056,37.8859701 L100.283938,37.8859701 L100.283938,38.7304478 C99.803421,38.641194 99.6867239,38.6274627 99.4190071,38.6274627 C97.6410928,38.6274627 97.3253243,39.2316418 97.3253243,42.6438806 L97.3253243,49.3791045 C97.3253243,52.6402985 97.7028736,53.4023881 99.3503617,53.4023881 C99.6180785,53.4023881 99.9956279,53.361194 100.380042,53.2856716 L100.380042,54.1164179 L91.1197857,54.1164179 L91.1197857,53.2856716 C91.4080961,53.3680597 91.6758129,53.4023881 91.9023426,53.4023881 C93.4468627,53.4023881 93.8861928,52.5785075 93.8861928,49.3791045 L93.8861928,41.0716418 C93.5978824,41.4835821 93.4949144,41.7856716 93.3988109,41.9916418 C93.3233011,42.1495522 92.9251581,42.9802985 92.2318402,44.4838806 L90.9413078,47.278209 L89.5203493,50.4776119 C88.7995733,52.1047761 88.3877013,53.0453731 88.2847332,53.2856716 C88.2160879,53.4435821 88.1131199,53.7319403 87.9826938,54.0134328 L86.918691,54.0134328 L86.5548707,53.2032836 C85.2300157,50.2647761 84.9966216,49.7704478 84.0218578,47.758806 L82.7107318,45.060597 C82.031143,43.66 81.6055419,42.7674627 81.4064704,42.3829851 C81.2691797,42.1220896 81.0907018,41.7238806 80.8023914,41.2020896 L80.8023914,49.3722388 L80.8023914,50.161791 C80.8023914,52.5922388 81.3652832,53.3955224 83.060823,53.3955224 C83.3354044,53.3955224 83.4726951,53.3680597 83.7610055,53.278806 L83.7610055,54.1095522 L76.6081613,54.1095522 L76.6081613,53.278806 C76.8964717,53.3543284 77.1985112,53.4023881 77.3838536,53.4023881 C79.0038836,53.4023881 79.3745684,52.6471642 79.3745684,49.3722388 L79.3745684,42.6370149 L79.3745684,41.8474627 C79.3745684,39.2453731 79.0038836,38.6274627 77.4387699,38.6274627 C77.1230013,38.6274627 76.9857106,38.6549254 76.6974002,38.7304478 L76.6974002,37.8791045 L82.6352219,37.8791045 L82.6352219,37.8791045 Z" id="XMLID_204_" fill="#FFFFFF"></path>
                <path d="M150.861823,53.278806 L150.861823,54.1095522 L140.077641,54.1095522 L140.077641,53.278806 C140.647397,53.361194 140.963166,53.3955224 141.361309,53.3955224 C143.310836,53.3955224 143.702115,52.7364179 143.702115,49.3722388 L143.702115,42.6370149 C143.702115,39.2453731 143.365752,38.6274627 141.375038,38.6274627 C140.921978,38.6274627 140.743501,38.641194 140.359087,38.7304478 L140.359087,37.8791045 L150.76572,37.8791045 L150.76572,38.7235821 C150.195964,38.641194 150.044944,38.620597 149.543833,38.620597 C147.52566,38.620597 147.141246,39.2453731 147.141246,42.6301493 L147.141246,49.3653731 C147.141246,52.7089552 147.553118,53.3886567 149.502646,53.3886567 C149.928247,53.3955224 150.38817,53.3543284 150.861823,53.278806 L150.861823,53.278806 Z" id="XMLID_203_" fill="#FFFFFF"></path>
                <path d="M190.168144,38.2429851 L190.985023,42.3967164 L189.763136,42.6164179 C188.726592,39.6916418 187.065375,38.3802985 184.395071,38.3802985 C180.57839,38.3802985 178.052242,41.2158209 178.052242,45.5 C178.052242,50.058806 180.846107,53.299403 184.806943,53.299403 C185.788571,53.299403 186.557399,53.1689552 187.415466,52.818806 L187.415466,48.8092537 L187.415466,48.3286567 C187.415466,47.0653731 187.010458,46.5985075 185.870946,46.5985075 C185.74052,46.5985075 185.562042,46.6053731 185.301189,46.6259701 L185.129576,46.6397015 L185.129576,45.7059701 L193.243455,45.7059701 L193.243455,46.6397015 L192.982603,46.6259701 L192.646241,46.5985075 L192.536408,46.5916418 C191.067398,46.5916418 190.758494,47.0104478 190.758494,49.0289552 C190.758494,50.2098507 190.792816,51.9056716 190.854597,53.3062687 C189.886698,53.4847761 188.857018,53.6907463 188.026409,53.8761194 C185.603229,54.4116418 184.601007,54.5489552 183.186913,54.5489552 C178.017919,54.5489552 174.510142,51.1367164 174.510142,46.1179104 C174.510142,40.8176119 178.093429,37.4877612 183.790992,37.4877612 C184.752027,37.4877612 185.843488,37.5770149 186.928084,37.7486567 L188.342178,37.9683582 L189.612117,38.14 L190.168144,38.2429851 L190.168144,38.2429851 Z" id="XMLID_202_" fill="#FFFFFF"></path>
                <path d="M208.729843,37.8791045 L209.354516,41.3874627 L208.379752,41.5659701 C207.947286,39.4650746 206.972523,38.9020896 203.711869,38.9020896 C202.757699,38.9020896 202.112433,38.9638806 201.069023,39.1698507 L201.069023,44.8477612 L203.917805,44.8477612 C205.517241,44.8477612 205.970301,44.4976119 205.970301,43.2549254 C205.970301,43.0558209 205.963436,42.9391045 205.929113,42.6507463 L206.890148,42.6507463 L206.890148,48.1844776 L205.929113,48.1844776 C205.977165,47.7038806 205.98403,47.6077612 205.98403,47.4223881 C205.98403,46.3444776 205.448596,45.9874627 203.917805,45.9874627 L201.069023,45.9874627 L201.069023,52.6746269 L204.075689,52.6746269 L204.569936,52.6746269 C207.288291,52.6746269 208.166951,52.1391045 209.176038,49.7979104 C209.217225,49.7086567 209.279006,49.578209 209.36138,49.3928358 L210.397925,49.7429851 L208.867134,54.1164179 L194.101522,54.1164179 L194.101522,53.2856716 C194.582039,53.3680597 194.980182,53.4023881 195.412648,53.4023881 C197.307259,53.4023881 197.73286,52.6814925 197.73286,49.3791045 L197.73286,42.6438806 C197.73286,39.2865672 197.320988,38.6274627 195.330273,38.6274627 C194.897808,38.6274627 194.678143,38.6480597 194.300593,38.7304478 L194.300593,37.8791045 L208.729843,37.8791045 L208.729843,37.8791045 Z" id="XMLID_201_" fill="#FFFFFF"></path>
                <path d="M66.7095035,36.8286567 L69.6681176,44.2641791 L69.8397309,44.7035821 C72.8326677,52.3107463 73.4985275,53.4092537 75.22839,53.4092537 C75.4411905,53.4092537 75.7569591,53.3680597 75.9423015,53.2856716 L75.9423015,54.1164179 L66.9703558,54.1164179 L66.9703558,53.2856716 C67.3547697,53.3886567 67.4920604,53.4023881 67.8627452,53.4023881 C68.7825927,53.4023881 69.2287874,53.0728358 69.2287874,52.3931343 C69.2287874,52.2008955 69.1601421,51.9125373 69.029716,51.5692537 L68.0549522,48.9602985 L62.5152734,48.9602985 L61.7464456,50.9513433 L61.6022904,51.3426866 L61.430677,51.7958209 C61.3757608,51.981194 61.3345736,52.1940299 61.3345736,52.3656716 C61.3345736,53.0316418 61.8974653,53.4229851 62.8585001,53.4229851 C63.1811332,53.4229851 63.3390174,53.4023881 63.8126703,53.2925373 L63.8126703,54.1232836 L56.6666906,54.1232836 L56.6666906,53.2925373 C57.0511045,53.3749254 57.1883952,53.4023881 57.4423829,53.4023881 C58.7466443,53.4023881 59.3781814,52.7158209 60.4559132,50.1137313 L60.8746498,49.1113433 L61.121773,48.5071642 L65.9681339,36.8423881 L66.7095035,36.8423881 L66.7095035,36.8286567 Z M65.1169317,42.0191045 L62.9546035,47.758806 L67.3890924,47.820597 L65.1169317,42.0191045 L65.1169317,42.0191045 Z" id="XMLID_186_" fill="#FFFFFF"></path>
                <path d="M102.281518,38.7235821 L102.281518,37.8791045 L107.375002,37.8791045 L108.088913,37.8791045 C108.610618,37.8791045 109.475549,37.8447761 110.917101,37.7898507 C111.617284,37.7623881 112.152717,37.741791 112.523402,37.741791 C115.495745,37.741791 117.266795,39.0325373 117.266795,41.2020896 C117.266795,43.2961194 115.86643,44.6555224 113.100023,45.2528358 C116.374406,45.4931343 117.918926,46.7838806 117.918926,49.2898507 C117.918926,52.4686567 115.420235,54.198806 110.814133,54.198806 C110.477771,54.198806 109.962931,54.1713433 109.255884,54.1507463 L107.670177,54.1026866 L106.983723,54.1026866 L101.993207,54.1026866 L101.993207,53.2719403 C102.473725,53.3543284 102.858138,53.3886567 103.297469,53.3886567 C105.219538,53.3886567 105.624546,52.7158209 105.624546,49.3653731 L105.624546,42.6301493 C105.624546,39.2316418 105.26759,38.620597 103.263146,38.620597 C102.851274,38.620597 102.762035,38.6343284 102.281518,38.7235821 L102.281518,38.7235821 Z M108.87147,44.9164179 C109.255884,44.978209 109.736401,45.081194 110.141409,45.081194 C112.351789,45.081194 113.985548,43.4952239 113.985548,41.4286567 C113.985548,39.8083582 112.585183,38.6 110.711165,38.6 C110.148273,38.6 109.818776,38.6686567 108.864606,38.9776119 L108.864606,44.9164179 L108.87147,44.9164179 Z M108.87147,52.8874627 C109.633433,53.0522388 110.182596,53.1208955 110.827862,53.1208955 C112.942139,53.1208955 114.431742,51.5074627 114.431742,49.2074627 C114.431742,47.1065672 112.907816,45.9119403 110.223783,45.9119403 C109.784453,45.9119403 109.53733,45.939403 108.87147,46.0561194 L108.87147,52.8874627 L108.87147,52.8874627 Z" id="XMLID_182_" fill="#FFFFFF"></path>
                <path d="M120.609823,38.7235821 L120.609823,37.8791045 L125.428726,37.8791045 L125.984753,37.8791045 L127.20664,37.8241791 L128.455985,37.7761194 C129.519988,37.741791 129.876944,37.7280597 130.151525,37.7280597 C133.830915,37.7280597 135.643152,39.0256716 135.643152,41.6620896 C135.643152,44.078806 134.2016,45.4862687 131.407735,45.8089552 C133.034629,46.6671642 133.624979,47.3125373 134.805679,49.5095522 C136.384522,52.441194 137.276911,53.340597 138.567443,53.340597 C138.711599,53.340597 138.739057,53.3337313 139.308813,53.2719403 L139.308813,54.1026866 L137.530899,54.1026866 L137.009194,54.1026866 L136.219773,54.1507463 L135.51959,54.178209 C133.927018,54.178209 133.226836,53.6701493 132.190291,51.7134328 L131.55189,50.4707463 C129.828892,47.2232836 129.094387,46.5573134 127.186046,46.5367164 L127.186046,49.3653731 C127.186046,52.7364179 127.515544,53.3886567 129.458207,53.3886567 C129.828892,53.3886567 130.14466,53.3543284 130.52221,53.2719403 L130.52221,54.1026866 L120.307783,54.1026866 L120.307783,53.2719403 C120.788301,53.3543284 121.207037,53.3886567 121.591451,53.3886567 C123.369365,53.3886567 123.939122,52.6128358 123.939122,50.1549254 L123.939122,49.3653731 L123.939122,42.6301493 L123.939122,41.840597 C123.939122,39.3758209 123.396824,38.620597 121.632638,38.620597 C121.24136,38.620597 120.994237,38.6480597 120.609823,38.7235821 L120.609823,38.7235821 Z M127.192911,45.6167164 C127.673428,45.6647761 127.886229,45.6716418 128.243184,45.6716418 C130.81052,45.6716418 132.183427,44.3602985 132.183427,41.9229851 C132.183427,39.9044776 130.906624,38.558806 128.97769,38.558806 C128.428527,38.558806 127.762667,38.6686567 127.192911,38.8608955 L127.192911,45.6167164 L127.192911,45.6167164 Z" id="XMLID_179_" fill="#FFFFFF"></path>
                <path d="M152.67406,38.7235821 L152.67406,37.8791045 L157.746951,37.8791045 L158.344165,37.8791045 L159.511136,37.8241791 L160.897772,37.7761194 C161.858806,37.7486567 162.517802,37.7349254 162.874757,37.7349254 C168.572321,37.7349254 171.578986,40.2546269 171.578986,45.0331343 C171.578986,50.601194 167.638744,54.198806 161.529309,54.198806 L159.723936,54.1370149 L158.543237,54.1026866 L157.740086,54.1026866 L152.474989,54.1026866 L152.474989,53.2719403 C152.955506,53.3474627 153.41543,53.3886567 153.820437,53.3886567 C155.769965,53.3886567 156.195566,52.7089552 156.195566,49.3653731 L156.195566,42.6301493 C156.195566,39.2453731 155.797423,38.620597 153.77925,38.620597 C153.326191,38.620597 153.154578,38.641194 152.67406,38.7235821 L152.67406,38.7235821 Z M159.545459,52.7707463 C160.595732,53.1140299 161.227269,53.2238806 162.10593,53.2238806 C165.668623,53.2238806 167.940783,50.161791 167.940783,45.3489552 C167.940783,41.1334328 165.78532,38.6961194 162.051013,38.6961194 C161.199811,38.6961194 160.499629,38.8128358 159.545459,39.1080597 L159.545459,52.7707463 L159.545459,52.7707463 Z" id="XMLID_176_" fill="#FFFFFF"></path>
            </g>
        </g>
    </g>
</svg>