<?xml version="1.0" encoding="UTF-8"?>
<svg width="21px" height="12px" viewBox="0 0 21 12" version="1.1" xmlns="http://www.w3.org/2000/svg" xmlns:xlink="http://www.w3.org/1999/xlink">
    <!-- Generator: Sketch 51.3 (57544) - http://www.bohemiancoding.com/sketch -->
    <title>arrow_right [#336] copy 2</title>
    <desc>Created with Sketch.</desc>
    <defs></defs>
    <g id="HUB-162---How-the-resources-appear-on-the-page" stroke="none" stroke-width="1" fill="none" fill-rule="evenodd">
        <g id="My-resources6" transform="translate(-1140.000000, -311.000000)" fill="#3C3C3C">
            <g id="Group" transform="translate(250.000000, 288.000000)">
                <path d="M895.365851,38.7076922 L895.365851,38.7076922 C895.770764,39.0974359 896.426289,39.0974359 896.830166,38.7076922 L905.393407,30.4441266 C906.202198,29.6636398 906.202198,28.3974725 905.393407,27.6169858 L896.768031,19.2924602 C896.367261,18.9067138 895.720021,18.9017171 895.314072,19.2824667 L895.314072,19.2824667 C894.899839,19.6712111 894.894661,20.3117898 895.302681,20.7065302 L903.196934,28.3235211 C903.601847,28.7142642 903.601847,29.3468482 903.196934,29.7375912 L895.365851,37.2946215 C894.960938,37.6843652 894.960938,38.3179485 895.365851,38.7076922" id="arrow_right-[#336]-copy-2" transform="translate(900.500000, 29.000000) rotate(-90.000000) translate(-900.500000, -29.000000) "></path>
            </g>
        </g>
    </g>
</svg>