<?xml version="1.0" encoding="utf-8"?>
<!-- Generator: Adobe Illustrator 18.1.0, SVG Export Plug-In . SVG Version: 6.00 Build 0)  -->
<!DOCTYPE svg PUBLIC "-//W3C//DTD SVG 1.1//EN" "http://www.w3.org/Graphics/SVG/1.1/DTD/svg11.dtd">
<svg version="1.1" xmlns="http://www.w3.org/2000/svg" xmlns:xlink="http://www.w3.org/1999/xlink" x="0px" y="0px" width="32px"
	 height="32px" viewBox="0 0 32 32" enable-background="new 0 0 32 32" xml:space="preserve">
<g id="icons">
	<path fill="#4D4D4D" d="M23.7,22.3L20,18.6c0.6-0.9,1-2,1-3.1c0-3-2.5-5.5-5.5-5.5S10,12.5,10,15.5s2.5,5.5,5.5,5.5
		c1.2,0,2.2-0.4,3.1-1l3.7,3.7c0.4,0.4,1,0.4,1.4,0C24.1,23.3,24.1,22.7,23.7,22.3z M11,15.5c0-2.5,2-4.5,4.5-4.5s4.5,2,4.5,4.5
		S18,20,15.5,20S11,18,11,15.5z"/>
</g>
<g id="working">
</g>
<g id="colour:_negative">
</g>
</svg>
