<?xml version="1.0" encoding="UTF-8" standalone="no"?>
<svg width="80px" height="80px" viewBox="0 0 80 80" version="1.1" xmlns="http://www.w3.org/2000/svg" xmlns:xlink="http://www.w3.org/1999/xlink">
    <!-- Generator: Sketch 3.8.2 (29753) - http://www.bohemiancoding.com/sketch -->
    <title>android-checkmark-circle</title>
    <desc>Created with Sketch.</desc>
    <defs></defs>
    <g id="Pages" stroke="none" stroke-width="1" fill="none" fill-rule="evenodd">
        <g id="Activation-Sucess" transform="translate(-599.000000, -231.000000)" fill="#8ABE1D">
            <g id="Body" transform="translate(290.000000, 156.000000)">
                <g id="android-checkmark-circle" transform="translate(309.000000, 75.000000)">
                    <path d="M23.5996154,32.4003846 L18,38 L36,56 L76,16 L70.4003846,10.4003846 L36,44.5996154 L23.5996154,32.4003846 L23.5996154,32.4003846 Z M72,40 C72,57.5996154 57.5994231,72 40,72 C22.4005769,72 8,57.5996154 8,40 C8,22.4003846 22.4003846,8 40,8 C43,8 46,8.40038462 48.8007692,9.20019231 L55,3 C50.4003846,1 45.4003846,0 40,0 C18,0 0,18 0,40 C0,62 18,80 40,80 C62,80 80,62 80,40 L72,40 L72,40 Z" id="Shape"></path>
                </g>
            </g>
        </g>
    </g>
</svg>