<?xml version="1.0" encoding="utf-8"?>
<!-- Generator: Adobe Illustrator 18.1.0, SVG Export Plug-In . SVG Version: 6.00 Build 0)  -->
<!DOCTYPE svg PUBLIC "-//W3C//DTD SVG 1.1//EN" "http://www.w3.org/Graphics/SVG/1.1/DTD/svg11.dtd">
<svg version="1.1" xmlns="http://www.w3.org/2000/svg" xmlns:xlink="http://www.w3.org/1999/xlink" x="0px" y="0px" width="32px"
	 height="32px" viewBox="0 0 32 32" enable-background="new 0 0 32 32" xml:space="preserve">
<g id="icons">
	<g>
		<path fill="#FA6060" d="M25,8H13.8c-0.5,0-1,0.2-1.4,0.6L5,16l7.4,7.4c0.4,0.4,0.9,0.6,1.4,0.6H25c1.1,0,2-0.9,2-2V10
			C27,8.9,26.1,8,25,8z M23,19l-1,1l-3-3l-3,3l-1-1l3-3l-3-3l1-1l3,3l3-3l1,1l-3,3L23,19z"/>
	</g>
</g>
<g id="working">
</g>
<g id="colour:_negative">
</g>
</svg>
