<?xml version="1.0" encoding="utf-8"?>
<!-- Generator: Adobe Illustrator 19.0.0, SVG Export Plug-In . SVG Version: 6.00 Build 0)  -->
<svg version="1.1" xmlns="http://www.w3.org/2000/svg" xmlns:xlink="http://www.w3.org/1999/xlink" x="0px" y="0px" width="25px"
	 height="32px" viewBox="0 0 32 32" enable-background="new 0 0 32 32" xml:space="preserve">
<style type="text/css">
	.st0{fill:#54A045;}
</style>
<g id="XMLID_11_">
	<g id="XMLID_18_">
		<path id="XMLID_19_" class="st0" d="M30.9,5h-0.7l-1.7-1.6l-0.2-0.1C27,3.1,25.7,3,24.6,3c-2.8,0-5.2,0.6-7.4,2h-2.3
			c-2.3-1.4-4.6-2-7.4-2C6.3,3,5,3.1,3.6,3.3L3.4,3.4L1.7,5H1l-1.1,1.1v19L1,26.2h29.9l1.1-1.1v-19L30.9,5z M1.2,6.2l2.1-2v18.3
			l-2.1,1.9V6.2z M1.6,24.9l2.1-2l0,0l0,0c1.4-0.2,2.6-0.3,3.7-0.3c2.9,0,5.3,0.7,7.7,2.3H1.6z M15.7,22.7l7-2.7l-0.8-2l0.6-0.2
			l-0.8-2.1L21,15.9l0.8,2.1l-0.6,0.2l0.5,1.3l-5.6,2.2l-0.5-1.3l-0.7,0.2l0.8,1.9v2c-2.6-1.8-5.1-2.6-8.3-2.6
			c-0.9,0-1.8,0.1-2.8,0.2l0,0c-0.2,0-0.4,0.1-0.6,0.1l0,0c-0.1,0-0.2,0-0.2,0v-0.1V3.8c1.3-0.2,2.4-0.3,3.5-0.3
			c2.4,0,4.4,0.5,6.3,1.5c0.3,0.2,0.6,0.3,0.9,0.5c0.2,0.2,0.5,0.3,0.8,0.5c0.1,0.1,0.2,0.2,0.2,0.2v3.9h0.1l-0.7,0.2l-0.2-0.7
			l-1.3,0.5l-1-2.7l-0.8,0.3L14,14l0.8-0.3l-1.1-2.8l1.4-0.5l1,2.7l0.7-0.3L16,10.9l1.3-0.5l1,2.6l0.7-0.2l-0.8-1.9l0.8-0.3l0.2,0.6
			l0.6-0.2l-0.2-0.7L19,10.4l-0.2-0.6l-1.4,0.5l-0.3-0.7L16.1,10V6.3c0.1-0.1,0.2-0.2,0.2-0.2c0.2-0.2,0.5-0.4,0.8-0.5
			c0.3-0.2,0.6-0.4,0.9-0.5c1.9-1,4-1.5,6.3-1.5c1.1,0,2.2,0.1,3.5,0.3v18.3v0.2c-0.1,0-0.2,0-0.2,0l0,0c-0.2,0-0.4-0.1-0.6-0.1
			c-1-0.2-1.9-0.2-2.8-0.2c-3.2,0-5.7,0.8-8.3,2.6v-2.2L15.7,22.7z M16.8,24.9c2.4-1.6,4.8-2.3,7.7-2.3c1.2,0,2.3,0.1,3.7,0.3l0,0
			l2.1,2H16.8z M30.6,24.5l-2.1-2V4.2l2.1,2V24.5z"/>
	</g>
	<g id="XMLID_16_">
		
			<rect id="XMLID_3_" x="18.8" y="12.7" transform="matrix(0.3581 0.9337 -0.9337 0.3581 25.8807 -11.4776)" class="st0" width="5" height="0.9"/>
	</g>
	<g id="XMLID_14_">
		
			<rect id="XMLID_2_" x="10.5" y="7" transform="matrix(0.3577 0.9338 -0.9338 0.3577 14.1997 -5.126)" class="st0" width="0.7" height="1.5"/>
	</g>
	<g id="XMLID_12_">
		<polygon id="XMLID_1_" class="st0" points="13.7,19.5 13.1,18.1 12.5,18.4 12,17 11.3,17.3 11,16.6 10.4,16.8 9.9,15.4 11.1,15 
			11.4,15.7 12,15.4 13,17.7 13,17.7 13.8,17.4 10.3,8.4 9.5,8.6 11.8,14.7 11.2,15 10.9,14.2 8.8,15 9.7,17.1 10.3,16.9 10.7,17.6 
			11.3,17.4 11.8,18.7 12.5,18.4 13.1,19.8 13.7,19.5 14.2,20.9 14.9,20.7 14.4,19.2 		"/>
	</g>
</g>
</svg>
