<?xml version="1.0" encoding="utf-8"?>
<!-- Generator: Adobe Illustrator 19.1.0, SVG Export Plug-In . SVG Version: 6.00 Build 0)  -->
<svg version="1.1" id="Layer_1" xmlns="http://www.w3.org/2000/svg" xmlns:xlink="http://www.w3.org/1999/xlink" x="0px" y="0px"
	 viewBox="0 0 284 284" style="enable-background:new 0 0 284 284;" xml:space="preserve">
<style type="text/css">
	.st0{fill:#569F45;}
	.st1{clip-path:url(#SVGID_2_);fill:#569F45;}
</style>
<polyline class="st0" points="206,143.9 214,165.4 139.6,192.7 131.7,171.2 138.9,168.6 144.1,182.6 203.8,160.5 198.7,146.5 
	205.8,143.9 197.4,121.4 204.7,118.8 213,141.3 206,143.9 "/>
<polyline class="st0" points="194.8,65.7 213.3,115.6 204.9,118.7 186.5,68.6 194.8,65.7 "/>
<polyline class="st0" points="183.7,61.1 186.5,68.5 179.4,71 176.9,64 168.9,66.9 176.6,87.9 169.6,90.5 159.3,62.5 159.2,62.2 
	174.1,56.7 176.8,63.7 183.7,61.1 "/>
<polyline class="st0" points="159.2,62.2 159.3,62.5 145.3,67.6 153.1,88.7 145.6,91.5 135,62.9 120.2,68.3 131.2,97.9 123.1,100.9 
	98.8,34.8 107.3,31.7 117.8,60.4 132.1,55.1 134.8,62.4 156.3,54.4 159.2,62.2 "/>
<polyline class="st0" points="126.2,156.2 131.7,171.2 124.2,174 118.7,159.3 111.7,161.8 106.3,147.4 99.1,150 93.7,135.4 
	86.5,138.2 83.7,130.5 76,133.2 67.5,110.5 90.1,102.2 92.9,109.9 99.7,107.4 76,43.2 84,40.2 119.4,136.4 111.3,139.3 111,139.5 
	102,114.8 94.5,117.6 92.2,110.2 78.9,115.1 84.3,129.6 90.7,127.1 93.4,134.8 100.8,132 106.2,146.8 113.1,144.2 118.7,159 
	126.2,156.2 "/>
<g>
	<defs>
		<rect id="SVGID_1_" x="0.1" y="0.5" width="283.4" height="283.5"/>
	</defs>
	<clipPath id="SVGID_2_">
		<use xlink:href="#SVGID_1_"  style="overflow:visible;"/>
	</clipPath>
	<polyline class="st1" points="96.1,27.5 98.8,34.8 84.3,40.2 81.6,32.9 96.1,27.5 	"/>
	<path class="st1" d="M66.1,255.7h9.4v-9.4H85v-9.5h113.4v9.5h9.4v9.4h9.5v9.4H66.1V255.7 M18.9,19.4h245.7V199H18.9V19.4z M9.6,0.5
		L0,10v198.2l9.4,9.6h113.4v9.4H75.6l-37.8,46.9v9.8h207.9v-9.8l-37.8-46.9h-47.2v-9.4H274l9.4-9.4V9.8L274,0.5H9.6z"/>
</g>
</svg>
