<?xml version="1.0" encoding="utf-8"?>
<!-- Generator: Adobe Illustrator 19.0.0, SVG Export Plug-In . SVG Version: 6.00 Build 0)  -->
<svg version="1.1" xmlns="http://www.w3.org/2000/svg" xmlns:xlink="http://www.w3.org/1999/xlink" x="0px" y="0px" width="25px"
	 height="32px" viewBox="0 0 32 32" enable-background="new 0 0 32 32" xml:space="preserve">
<style type="text/css">
	.st0{fill:#549F45;}
</style>
<g id="XMLID_18_">
	<path id="XMLID_16_" class="st0" d="M11,16.1c0.1,0,0.1,0,0.2,0c0.1,0,0.1,0,0.1,0c0.2,0,0.3,0,0.4-0.1c0.2,0,0.2-0.1,0.4-0.2
		c0.1-0.1,0.2-0.2,0.2-0.3c0.1-0.2,0.1-0.3,0.1-0.5c0-0.2,0-0.3-0.1-0.4s-0.2-0.2-0.2-0.2c-0.1-0.1-0.2-0.1-0.3-0.2
		c-0.2,0-0.2,0-0.4,0c-0.1,0-0.2,0-0.3,0c-0.1,0-0.2,0-0.2,0v1.8h0.1C10.9,16.1,10.9,16.1,11,16.1z"/>
	<path id="XMLID_15_" class="st0" d="M15.2,18L15.2,18c0.2,0,0.2,0,0.2,0c0.1,0,0.1,0,0.2,0c0.1,0,0.1,0,0.2,0
		c0.3,0,0.5-0.1,0.8-0.2c0.2-0.1,0.4-0.2,0.5-0.4c0.2-0.2,0.2-0.4,0.2-0.6c0.1-0.2,0.1-0.5,0.1-0.7c0-0.2,0-0.4-0.1-0.6
		c-0.1-0.2-0.2-0.4-0.2-0.5c-0.1-0.2-0.2-0.3-0.5-0.4c-0.2-0.1-0.5-0.2-0.7-0.2c-0.1,0-0.2,0-0.3,0c-0.2,0-0.2,0-0.2,0L15.2,18
		L15.2,18z"/>
	<path id="XMLID_19_" class="st0" d="M30.8,7.1h-0.7l-1.7-1.6l-0.2-0.1c-1.4-0.2-2.6-0.3-3.8-0.3c-2.8,0-5.2,0.6-7.4,2h-2.3
		c-2.3-1.4-4.6-2-7.4-2C6.2,5.1,5,5.2,3.6,5.4L3.5,5.5L1.8,7.1H1.1L0,8.2v18.9l1.1,1.1h29.8l1.1-1.1V8.2L30.8,7.1z M24.5,5.6
		c1.1,0,2.2,0.1,3.5,0.3V11l-5.6-5.2C23,5.7,23.7,5.6,24.5,5.6z M21.9,9.7V6l5.5,5.2c-0.7-0.1-1.4-0.1-2.1-0.1
		c-1.4,0-2.5,0.2-3.4,0.4L21.9,9.7L21.9,9.7z M22.1,15.7v0.9h-2v2.2H19v-5.4h3.2v0.9H20v1.4H22.1z M16.2,8.3
		c0.1-0.1,0.2-0.2,0.2-0.2c0.2-0.2,0.5-0.4,0.8-0.5c0.3-0.2,0.6-0.4,0.9-0.5c1.1-0.5,2.2-0.9,3.3-1.2v3.9c-1.9,0.4-3.7,1.1-5.2,2.2
		V8.3z M16.9,13.6c0.3,0.2,0.6,0.3,0.8,0.5s0.4,0.5,0.5,0.8c0.1,0.3,0.2,0.7,0.2,1.1s-0.1,0.7-0.2,1.1c-0.1,0.3-0.2,0.6-0.5,0.9
		c-0.2,0.2-0.5,0.5-0.8,0.6s-0.8,0.2-1.3,0.2c-0.1,0-0.2,0-0.3,0c-0.2,0-0.3,0-0.4,0c-0.2,0-0.3,0-0.4,0c-0.2,0-0.2,0-0.3,0v-5.4
		c0.1,0,0.2,0,0.4,0c0.2,0,0.3,0,0.4,0c0.2,0,0.3,0,0.4,0c0.2,0,0.2,0,0.4,0C16.2,13.4,16.6,13.5,16.9,13.6z M3.9,5.9
		c1.3-0.2,2.5-0.3,3.5-0.3c2.4,0,4.4,0.5,6.3,1.5c0.3,0.2,0.6,0.3,0.9,0.5c0.2,0.2,0.5,0.3,0.8,0.5c0.1,0.1,0.2,0.2,0.2,0.2v3.7
		c-3.3-2.5-7.8-3-11.8-2.2L3.9,5.9L3.9,5.9z M13.5,15.2c0,0.3-0.1,0.6-0.2,0.8c-0.2,0.2-0.3,0.5-0.5,0.5c-0.2,0.2-0.4,0.2-0.7,0.3
		C11.9,17,11.6,17,11.4,17c0,0-0.1,0-0.2,0c-0.1,0-0.1,0-0.2,0c-0.1,0-0.2,0-0.2,0c-0.1,0-0.1,0-0.2,0v1.8H9.7v-5.3
		c0.2-0.1,0.5-0.1,0.7-0.1c0.2,0,0.5,0,0.8,0s0.5,0,0.8,0.1s0.5,0.2,0.7,0.2c0.2,0.2,0.4,0.3,0.5,0.5C13.4,14.5,13.5,14.8,13.5,15.2
		z M1.3,8.3l2.1-2v18.2l-2.1,1.9V8.3z M1.7,26.9l2.1-2l0,0c1.4-0.2,2.5-0.3,3.7-0.3c2.9,0,5.3,0.7,7.6,2.3H1.7z M15.6,26.7
		c-2.5-1.8-5.1-2.5-8.2-2.5c-0.8,0-1.8,0.1-2.8,0.2c-0.2,0-0.4,0.1-0.5,0.1c-0.1,0-0.2,0-0.2,0v-0.2V21c4-0.8,8.5-0.2,11.8,2.2V26.7
		z M16.2,23.2c3.3-2.5,7.8-3,11.8-2.2v3.2v0.2c-0.1,0-0.2,0-0.2,0c-0.2,0-0.4-0.1-0.6-0.1c-1-0.2-1.9-0.2-2.8-0.2
		c-3.1,0-5.7,0.8-8.2,2.5L16.2,23.2L16.2,23.2z M16.7,26.9c2.4-1.5,4.8-2.3,7.6-2.3c1.2,0,2.3,0.1,3.7,0.3l2.1,2H16.7z M30.6,26.5
		l-2.1-2V6.3l2.1,2V26.5z"/>
</g>
</svg>
