<?xml version="1.0" encoding="utf-8"?>
<!-- Generator: Adobe Illustrator 19.0.0, SVG Export Plug-In . SVG Version: 6.00 Build 0)  -->
<svg version="1.1" xmlns="http://www.w3.org/2000/svg" xmlns:xlink="http://www.w3.org/1999/xlink" x="0px" y="0px" width="25px"
	 height="32px" viewBox="0 0 32 32" enable-background="new 0 0 32 32" xml:space="preserve">
<style type="text/css">
	.st0{fill:#549F45;}
</style>
<g>
	<g>
		<polygon class="st0" points="26.5,17.9 30.5,17.9 26.8,12.6 26.5,12.6 		"/>
		<polygon class="st0" points="6.7,12.6 6.4,12.6 2.7,17.9 6.7,17.9 		"/>
		
			<rect x="21.1" y="24.8" transform="matrix(0.7071 0.7071 -0.7071 0.7071 24.3573 -7.9269)" class="st0" width="1.3" height="1.3"/>
		<path class="st0" d="M2.3,18.5v12.4l0.3,0.3h27.9l0.3-0.3V18.5H2.3z M12.4,28.4c-1.2,0-2.3-0.7-2.7-1.8h2l0.3-0.3v-1.7l-0.3-0.3
			h-2c0.5-1.1,1.5-1.8,2.7-1.8c1.6,0,3,1.3,3,3C15.4,27.1,14.1,28.4,12.4,28.4z M23.5,26.4l-0.8,0.8h-7.1v-0.1
			c0.3-0.5,0.4-1.1,0.4-1.6c0-0.6-0.1-1.1-0.4-1.6v-0.1h7.1l0.8,0.8V26.4z"/>
		<path class="st0" d="M9.2,12.6H7.3v5.3h1.9H24h1.9v-5.3H24V12h2.5V3.8l-0.3-0.3H24V1.3H9.2v2.2H7L6.7,3.8V12h2.5V12.6z M9.8,3.4
			V1.8h13.5v1.6v13.8H9.8V3.4z"/>
	</g>
	<g>
		<g>
			<g>
				<polygon class="st0" points="20.9,9.9 20.9,10.6 18.3,10.6 18.3,11.8 18.3,11.8 17.7,11.8 17.7,9.9 17.7,9.9 18.3,9.9 19.6,9.9 
					19.6,9.4 20.2,9.4 20.2,9.9 				"/>
				<polygon class="st0" points="20.2,14.2 20.2,15.5 19.5,15.5 19.5,15.5 19.5,14.2 19.5,14.2 				"/>
				<rect x="18.9" y="8.7" class="st0" width="0.6" height="0.6"/>
				<polygon class="st0" points="19.5,13 19.5,14.2 19.5,14.2 18.9,14.2 18.9,13 18.9,13 				"/>
				<polygon class="st0" points="19.5,15.5 19.5,16.1 18.3,16.1 18.3,15.5 18.3,15.5 				"/>
				<rect x="18.3" y="8.1" class="st0" width="0.6" height="0.6"/>
				<polygon class="st0" points="18.9,11.8 18.9,13 18.9,13 18.3,13 18.3,11.8 18.3,11.8 				"/>
				<polygon class="st0" points="18.3,14.2 18.3,15.5 18.3,15.5 17.7,15.5 17.7,14.2 				"/>
				<rect x="17.7" y="7.5" class="st0" width="0.6" height="0.6"/>
				<polygon class="st0" points="17.7,14.2 17.7,14.2 17,14.2 17,13 17,13 17.7,13 				"/>
				<rect x="17" y="6.8" class="st0" width="0.6" height="0.6"/>
				<polygon class="st0" points="17,11.8 17,13 17,13 16.4,13 16.4,11.8 16.4,11.8 				"/>
				<rect x="16.4" y="6.2" class="st0" width="0.6" height="0.6"/>
				<rect x="15.8" y="5.6" class="st0" width="0.6" height="0.6"/>
				<polygon class="st0" points="16.4,11.8 16.4,11.8 15.7,11.8 15.7,11.8 15.7,10.6 16.4,10.6 				"/>
				<rect x="15.1" y="4.9" class="st0" width="0.6" height="0.6"/>
				<polygon class="st0" points="15.7,11.8 15.7,12.4 15.1,12.4 15.1,11.8 				"/>
				<rect x="14.5" y="12.4" class="st0" width="0.6" height="0.6"/>
				<rect x="14.5" y="4.3" class="st0" width="0.6" height="0.6"/>
				<polygon class="st0" points="14.5,13 14.5,13.7 13.9,13.7 13.9,14.2 13.2,14.2 13.2,3.1 13.9,3.1 13.9,3.7 14.5,3.7 14.5,4.3 
					13.9,4.3 13.9,13 				"/>
			</g>
		</g>
	</g>
</g>
</svg>
