<?xml version="1.0" encoding="utf-8"?>
<!-- Generator: Adobe Illustrator 18.1.0, SVG Export Plug-In . SVG Version: 6.00 Build 0)  -->
<!DOCTYPE svg PUBLIC "-//W3C//DTD SVG 1.1//EN" "http://www.w3.org/Graphics/SVG/1.1/DTD/svg11.dtd">
<svg version="1.1" xmlns="http://www.w3.org/2000/svg" xmlns:xlink="http://www.w3.org/1999/xlink" x="0px" y="0px" width="32px"
	 height="32px" viewBox="0 0 32 32" enable-background="new 0 0 32 32" xml:space="preserve">
<g id="icons">
	<g>
		<g>
			<path fill="#4D4D4D" d="M25.3,9.4h-0.5l-1.2-1.1l-0.1-0.1c-1-0.2-1.8-0.2-2.6-0.2c-1.9,0-3.5,0.4-5.1,1.4h-1.6
				C12.6,8.4,11,8,9.1,8C8.3,8,7.4,8.1,6.5,8.2l-0.1,0L5.2,9.4H4.7L4,10.1v13.1L4.7,24h20.5l0.7-0.7V10.1L25.3,9.4z M4.9,10.2
				l1.4-1.4v12.6l-1.4,1.4V10.2z M5.2,23.1l1.4-1.4h0c0,0,0,0,0,0c0.9-0.1,1.8-0.2,2.6-0.2c2,0,3.6,0.5,5.3,1.6H5.2z M14.8,21.6
				l4.8-1.8l-0.5-1.4l0.4-0.2L19,16.7l-0.5,0.2l0.6,1.5l-0.5,0.2l0.3,0.9l-3.9,1.5L14.8,20l-0.5,0.2L14.8,21.6l0,1.3
				c-1.7-1.2-3.5-1.8-5.7-1.8c-0.6,0-1.2,0-1.9,0.1h0c-0.1,0-0.3,0-0.4,0.1h0c-0.1,0-0.1,0-0.2,0v-0.1V8.6c0.9-0.1,1.7-0.2,2.4-0.2
				c1.6,0,3,0.3,4.4,1c0.2,0.1,0.4,0.2,0.6,0.4c0.2,0.1,0.4,0.2,0.5,0.4c0.1,0,0.1,0.1,0.2,0.1V13l0.1,0l-0.5,0.2l-0.2-0.5L13.3,13
				l-0.7-1.9l-0.6,0.2l1.6,4.3l0.5-0.2l-0.7-1.9l1-0.4l0.7,1.8l0.5-0.2l-0.5-1.4l0.9-0.3l0.7,1.8l0.5-0.2l-0.5-1.4l0.5-0.2l0.2,0.5
				l0.5-0.2L17.6,13l-0.5,0.2L17,12.7l-1,0.4l-0.2-0.5l-0.6,0.2v-2.6c0.1,0,0.1-0.1,0.2-0.1c0.2-0.1,0.4-0.3,0.5-0.4
				c0.2-0.1,0.4-0.3,0.6-0.4c1.4-0.7,2.8-1,4.4-1c0.7,0,1.5,0.1,2.4,0.2v12.6v0.1c-0.1,0-0.1,0-0.2,0h0c-0.1,0-0.3,0-0.4-0.1
				c-0.7-0.1-1.3-0.1-1.9-0.1c-2.2,0-3.9,0.6-5.7,1.8v-1.5L14.8,21.6z M15.6,23.1c1.6-1.1,3.3-1.6,5.3-1.6c0.8,0,1.6,0.1,2.6,0.2h0
				l1.4,1.4H15.6z M25.1,22.8l-1.4-1.4V8.8l1.4,1.4V22.8z"/>
		</g>
		<g>
			
				<rect x="16.9" y="14.7" transform="matrix(-0.3569 -0.9342 0.9342 -0.3569 11.3289 37.7718)" fill="#4D4D4D" width="3.5" height="0.6"/>
		</g>
		<g>
			
				<rect x="11.3" y="10.8" transform="matrix(-0.3565 -0.9343 0.9343 -0.3565 5.0605 26.0646)" fill="#4D4D4D" width="0.5" height="1"/>
		</g>
		<g>
			<polygon fill="#4D4D4D" points="13.5,19.4 13.1,18.4 12.6,18.6 12.3,17.7 11.8,17.8 11.6,17.4 11.2,17.5 10.8,16.6 11.7,16.3 
				11.9,16.7 12.3,16.5 13,18.1 13,18.1 13.5,17.9 11.1,11.7 10.6,11.9 12.2,16.1 11.7,16.2 11.6,15.7 10.1,16.3 10.7,17.8 
				11.2,17.6 11.4,18.1 11.8,17.9 12.2,18.8 12.7,18.7 13,19.6 13.5,19.4 13.8,20.4 14.3,20.2 13.9,19.2 			"/>
		</g>
	</g>
</g>
<g id="working">
</g>
<g id="colour:_negative">
</g>
</svg>
