<?xml version="1.0" encoding="utf-8"?>
<!-- Generator: Adobe Illustrator 19.0.0, SVG Export Plug-In . SVG Version: 6.00 Build 0)  -->
<svg version="1.1" xmlns="http://www.w3.org/2000/svg" xmlns:xlink="http://www.w3.org/1999/xlink" x="0px" y="0px" width="25px"
	 height="32px" viewBox="0 0 32 32" enable-background="new 0 0 32 32" xml:space="preserve">
<style type="text/css">
	.st0{fill:#3492A0;}
</style>
<g id="XMLID_23_">
	<path id="XMLID_21_" class="st0" d="M8.1,21.5c0.2,0,0.3,0,0.5,0c0.2,0,0.3,0,0.4,0c2.1,0.2,3.9,0.8,5.6,1.9l0.5,0.3v-1l-0.2-0.1
		c-1.7-1-3.6-1.6-5.5-1.9c-0.2,0-0.3,0-0.4-0.1c-0.2,0-0.3,0-0.5,0c-1.1-0.1-2.2,0-3.6,0.2H4.7v0.8H5C6.1,21.5,7.1,21.5,8.1,21.5z"
		/>
	<path id="XMLID_20_" class="st0" d="M11.7,20l0.3,0.1c0.1,0,0.2,0.1,0.3,0.1c0.8,0.3,1.5,0.6,2.2,1.1l0.5,0.3v-1l-0.2-0.1
		c-0.7-0.4-1.3-0.7-2-1c-0.1-0.1-0.2-0.1-0.3-0.2l0,0c-0.1,0-0.2-0.1-0.3-0.1c-2.2-0.7-4.4-0.9-7.3-0.5H4.7v0.8H5
		C7.6,19.2,9.8,19.4,11.7,20z"/>
	<path id="XMLID_19_" class="st0" d="M14.4,19.1l0.5,0.3v-1l-0.2-0.1c-2.9-1.7-5.9-2.2-9.9-1.8H4.7v0.8H5
		C8.8,17,11.7,17.4,14.4,19.1z"/>
	<path id="XMLID_18_" class="st0" d="M27.3,21.7v-0.8h-0.2c-1.2-0.2-2.5-0.2-3.6-0.2c-0.2,0-0.3,0-0.4,0c-0.2,0-0.3,0-0.4,0.1
		c-2,0.2-3.8,0.8-5.5,1.9l-0.2,0.1v1l0.5-0.3c1.8-1.1,3.6-1.7,5.6-1.9c0.2,0,0.3,0,0.4,0c0.2,0,0.3,0,0.5,0c0.9,0,2,0,3.1,0.2
		L27.3,21.7z"/>
	<path id="XMLID_17_" class="st0" d="M19.6,20.2c0.1,0,0.2-0.1,0.3-0.1l0.3-0.1c1.9-0.6,4.1-0.8,6.7-0.5h0.3v-0.9h-0.2
		c-2.9-0.3-5.1-0.2-7.3,0.5l0,0c-0.1,0-0.2,0.1-0.3,0.1c-0.1,0-0.2,0.1-0.3,0.2c-0.7,0.2-1.3,0.6-2,1L17,20.5v1l0.5-0.3
		C18.2,20.8,18.9,20.4,19.6,20.2z"/>
	<path id="XMLID_16_" class="st0" d="M24.5,17.2c0.8,0,1.5,0.1,2.5,0.2h0.3v-0.8h-0.2c-4-0.5-7,0.1-9.9,1.8L17,18.4v1.1l0.5-0.3
		C19.6,17.8,21.9,17.2,24.5,17.2z"/>
	<path id="XMLID_15_" class="st0" d="M14.5,17.1l0.5,0.3v-1l-0.2-0.1c-2.9-1.7-5.9-2.2-9.9-1.8H4.7v0.8H5
		C8.8,14.8,11.8,15.4,14.5,17.1z"/>
	<path id="XMLID_14_" class="st0" d="M14.5,15l0.5,0.3v-1l-0.2-0.1c-2.9-1.7-5.9-2.2-9.9-1.8H4.7v0.8H5C8.8,12.7,11.8,13.3,14.5,15z
		"/>
	<path id="XMLID_13_" class="st0" d="M14.5,12.8l0.5,0.3v-1L14.8,12c-2.2-1.3-4.6-1.9-7.3-1.9c-0.8,0-1.6,0.1-2.5,0.2H4.7v0.8H5
		C8.9,10.6,11.8,11.2,14.5,12.8z"/>
	<path id="XMLID_12_" class="st0" d="M14.5,10.7l0.5,0.3v-1l-0.2-0.1c-2.9-1.7-5.9-2.2-9.9-1.8H4.7V9H5C8.8,8.5,11.8,9,14.5,10.7z"
		/>
	<path id="XMLID_11_" class="st0" d="M27,15.3h0.3v-0.8h-0.2c-4-0.5-7,0.1-9.9,1.8L17,16.4v1l0.5-0.3C20.2,15.4,23,14.8,27,15.3z"/>
	<path id="XMLID_10_" class="st0" d="M27,13.2h0.3v-0.8h-0.2c-4-0.5-7,0.1-9.9,1.8L17,14.2v1l0.5-0.3C20.2,13.3,23,12.7,27,13.2z"/>
	<path id="XMLID_9_" class="st0" d="M24.5,11c0.8,0,1.5,0.1,2.5,0.2h0.3v-0.8h-0.2c-4-0.5-7,0.1-9.9,1.8L17,12.1v1l0.5-0.3
		C19.6,11.5,21.8,11,24.5,11z"/>
	<path id="XMLID_8_" class="st0" d="M24.5,8.8c0.8,0,1.6,0.1,2.5,0.2h0.3V8.1h-0.2c-4-0.5-7,0.1-9.9,1.8L17,9.9v1l0.5-0.3
		C19.6,9.4,21.8,8.8,24.5,8.8z"/>
	<path id="XMLID_24_" class="st0" d="M30.9,28.1L32,27V8l-1.1-1.1h-0.7l-1.7-1.6l-0.2-0.1C27,5,25.7,4.9,24.6,4.9
		c-2.8,0-5.2,0.6-7.4,2h-2.3c-2.3-1.4-4.6-2-7.4-2C6.3,4.9,5.1,5,3.7,5.2L3.5,5.3L1.8,6.9H1.1L0,8v19l1.1,1.1
		C1.1,28.1,30.9,28.1,30.9,28.1z M28.6,6.1l2.1,2v18.3l-2.1-2V6.1z M28.2,24.8l2.1,2H16.8c2.4-1.5,4.8-2.3,7.6-2.3
		C25.6,24.5,26.8,24.5,28.2,24.8L28.2,24.8z M16.3,8.2C16.3,8.1,16.4,8,16.5,8c0.2-0.2,0.5-0.4,0.8-0.5c0.3-0.2,0.6-0.4,0.9-0.5
		c1.9-1,4-1.5,6.3-1.5c1.1,0,2.2,0.1,3.5,0.3V24v0.2c-0.1,0-0.2,0-0.2,0l0,0c-0.2,0-0.4-0.1-0.6-0.1c-1-0.2-1.9-0.2-2.8-0.2
		c-3.2,0-5.7,0.8-8.3,2.5V8.2H16.3z M3.9,24V5.7c1.3-0.2,2.4-0.3,3.5-0.3c2.4,0,4.4,0.5,6.3,1.5c0.3,0.2,0.6,0.3,0.9,0.5
		c0.2,0.2,0.5,0.3,0.8,0.5c0.1,0.1,0.2,0.2,0.2,0.2v18.3c-2.5-1.8-5.1-2.5-8.3-2.5c-0.8,0-1.8,0.1-2.8,0.2l0,0
		c-0.2,0-0.4,0.1-0.6,0.1l0,0c-0.1,0-0.2,0-0.2,0V24H3.9z M1.3,8.1l2.1-2v18.3l-2.1,2V8.1z M1.7,26.8l2.1-2l0,0l0,0
		c1.4-0.2,2.6-0.3,3.7-0.3c2.9,0,5.3,0.7,7.6,2.3H1.7z"/>
</g>
</svg>
