<?xml version="1.0" encoding="utf-8"?>
<!-- Generator: Adobe Illustrator 18.1.0, SVG Export Plug-In . SVG Version: 6.00 Build 0)  -->
<!DOCTYPE svg PUBLIC "-//W3C//DTD SVG 1.1//EN" "http://www.w3.org/Graphics/SVG/1.1/DTD/svg11.dtd">
<svg version="1.1" xmlns="http://www.w3.org/2000/svg" xmlns:xlink="http://www.w3.org/1999/xlink" x="0px" y="0px" width="32px"
	 height="32px" viewBox="0 0 32 32" enable-background="new 0 0 32 32" xml:space="preserve">
<g id="icons">
	<g>
		<polygon fill="#4D4D4D" points="20,15.9 19.6,14.7 19.1,14.8 19.6,16.1 19.2,16.2 19.5,17 16.1,18.3 15.8,17.5 15.4,17.6 
			15.9,18.8 20.1,17.3 19.6,16.1 		"/>
		<polygon fill="#4D4D4D" points="19.6,14.7 20,14.5 19,11.7 18.5,11.8 		"/>
		<polygon fill="#4D4D4D" points="14.9,13.7 15.4,13.5 14.8,11.8 15.6,11.5 16.2,13.1 16.6,13 16.2,11.8 17,11.5 17,11.5 17.6,13.1 
			18,12.9 17.5,11.7 18,11.6 18.1,12 18.5,11.8 18.4,11.4 18,11.6 17.8,11.2 17,11.5 17,11.5 17,11.5 16.8,11 15.6,11.5 15.5,11.1 
			14.7,11.4 14.1,9.8 13.6,9.9 		"/>
		<polygon fill="#4D4D4D" points="13.1,13.7 11.8,14.2 12.3,15.5 12.7,15.3 12.9,15.8 13.3,15.6 13.6,16.4 14,16.3 14.3,17.1 
			14.7,17 15,17.8 15.4,17.6 15.1,16.8 14.7,16.9 14.4,16.1 14,16.3 13.7,15.4 13.3,15.6 13.1,15.1 12.8,15.3 12.5,14.5 13.2,14.2 
			13.3,14.6 13.8,14.4 14.3,15.8 14.3,15.8 14.7,15.7 12.7,10.2 12.3,10.4 13.6,14 13.2,14.2 		"/>
		<polygon fill="#4D4D4D" points="13.6,9.9 13.4,9.5 12.6,9.8 12.8,10.2 		"/>
		<path fill="#4D4D4D" d="M23,8H9C8.4,8,8,8.5,8,9v10c0,0.5,0.4,1,1,1h6v1h-3l-2,2v1h12v-1l-2-2h-3v-1h6c0.6,0,1-0.5,1-1V9
			C24,8.5,23.5,8,23,8z M19.2,21.6v0.5h0.5v0.5h0.5v0.5h-8.5v-0.5h0.5v-0.5h0.5v-0.5H19.2z M23,19H9V9h14V19z"/>
	</g>
</g>
<g id="working">
</g>
<g id="colour:_negative">
</g>
</svg>
