<?xml version="1.0" encoding="utf-8"?>
<!-- Generator: Adobe Illustrator 18.1.0, SVG Export Plug-In . SVG Version: 6.00 Build 0)  -->
<!DOCTYPE svg PUBLIC "-//W3C//DTD SVG 1.1//EN" "http://www.w3.org/Graphics/SVG/1.1/DTD/svg11.dtd">
<svg version="1.1" xmlns="http://www.w3.org/2000/svg" xmlns:xlink="http://www.w3.org/1999/xlink" x="0px" y="0px" width="32px"
	 height="32px" viewBox="0 0 32 32" enable-background="new 0 0 32 32" xml:space="preserve">
<g id="icons">
	<g>
		<path fill="#4D4D4D" d="M24.5,11.7c0-0.4-0.1-0.7-0.2-1.1c-0.1-0.3-0.3-0.7-0.6-0.9c-0.2-0.1-0.4-0.2-0.6-0.3l0.3-0.2L13.6,8
			L6,14.4l4.3,0l0.5,1.8l9.3-2.7l-0.6-1.9l3.4-2c0.2,0.1,0.4,0.2,0.6,0.4c0.2,0.2,0.3,0.5,0.4,0.8c0.1,0.3,0.1,0.6,0,0.9
			c0,0.3-0.1,0.6-0.2,0.9c-0.2,0.6-0.5,1.1-0.7,1.8c-0.2,0.7-0.3,1.4-0.1,2.1l0.1,0c0.2-0.3,0.3-0.6,0.4-0.9l0.4-0.9
			c0.1-0.3,0.3-0.6,0.4-0.9c0.1-0.3,0.2-0.7,0.2-1C24.5,12.4,24.5,12,24.5,11.7z"/>
		<path fill="#4D4D4D" d="M20.4,13.7l-1.1,0.3l-1.7,2.2c-0.1,0-0.1-0.1-0.2-0.1l0.7-1.7l-7.2,2.1c-0.1,0.3-0.2,0.7-0.2,1
			c-0.3,3.2,2.1,6.1,5.4,6.4c3.2,0.3,6.1-2.1,6.4-5.4C22.5,16.7,21.8,14.9,20.4,13.7z M11.6,19.7l2.9-0.9c0.1,0.3,0.3,0.6,0.5,0.8
			L13.1,22C12.4,21.4,11.9,20.6,11.6,19.7z M14.6,22.9L14.6,22.9c-0.3-0.1-0.7-0.3-0.9-0.5l1.9-2.4c0.1,0,0.1,0.1,0.2,0.1L14.6,22.9
			z M18.3,18.3c-0.1,1-1,1.7-1.9,1.6s-1.7-1-1.6-1.9c0.1-1,1-1.7,1.9-1.6C17.7,16.4,18.4,17.3,18.3,18.3z M18.6,17.5
			c-0.1-0.3-0.2-0.6-0.5-0.8l1.9-2.4c0.7,0.6,1.2,1.4,1.4,2.3L18.6,17.5z"/>
	</g>
</g>
<g id="working">
</g>
<g id="colour:_negative">
</g>
</svg>
