<?xml version="1.0" encoding="utf-8"?>
<!-- Generator: Adobe Illustrator 18.1.0, SVG Export Plug-In . SVG Version: 6.00 Build 0)  -->
<!DOCTYPE svg PUBLIC "-//W3C//DTD SVG 1.1//EN" "http://www.w3.org/Graphics/SVG/1.1/DTD/svg11.dtd">
<svg version="1.1" xmlns="http://www.w3.org/2000/svg" xmlns:xlink="http://www.w3.org/1999/xlink" x="0px" y="0px" width="32px"
	 height="32px" viewBox="0 0 32 32" enable-background="new 0 0 32 32" xml:space="preserve">
<g id="icons">
	<g>
		<path fill="#4D4D4D" d="M21,8H11c-1.7,0-3,1.4-3,3v10c0,1.7,1.4,3,3,3h10c1.7,0,3-1.4,3-3V11C24,9.4,22.6,8,21,8z M23,21
			c0,1.1-0.9,2-2,2H11c-1.1,0-2-0.9-2-2V11c0-1.1,0.9-2,2-2h10c1.1,0,2,0.9,2,2V21z"/>
		<path fill="#4D4D4D" d="M18.3,16.6c-0.2-0.5-0.4-0.9-0.5-1.1c-0.2-0.4-0.3-1-0.4-1.7c0-0.7,0.3-1.1,0.3-1.1s-0.2,0.2-0.4,0.6
			c-0.1,0.2-0.2,0.6-0.2,1c0,0.4,0.2,0.8,0.3,1c0.1,0.5,0.3,1.1,0.4,1.7c0.1,0.6,0.1,1.4,0,1.6c-0.2,0.2-0.4,0.1-0.6-0.1
			c-0.1-0.1,0.1-1,0.2-1.5c0-0.5-0.1-1.1-0.3-1.7c-0.2-0.5-0.5-0.8-0.9-1.2c-0.2-0.3-0.3-0.6-0.4-0.7c-0.2-0.4-0.4-1-0.4-1.5
			c0-0.5,0.1-0.8,0.3-1.1c0.3-0.5,1.2-1.1,1.2-1.1s-1,0.3-1.6,1c-0.6,0.7-0.6,1.8-0.4,2.6c0.1,0.5,0.4,1.1,0.7,1.6
			c0.2,0.4,0.5,0.6,0.6,0.9c0.3,0.7,0.3,1.2,0.1,1.8c-0.1,0.3-0.3,0.6-0.5,0.8c-0.3,0.2-0.5,0.4-0.7,0.4c-0.2,0-0.3-0.1-0.3-0.2
			c0-0.1,0-0.2,0-0.3c0.1-0.3,0.5-0.8,0.5-1.7c0-0.9-0.4-1.6-0.6-1.9c-0.2-0.3-0.4-0.9-0.4-1.2c0-0.3,0.2-1,0.2-1S14.1,13,14,13.6
			c-0.1,0.6,0.2,1.1,0.3,1.3c0.1,0.2,0.2,0.7,0.2,1.4c0,0.8-0.6,1.5-0.7,1.7c-0.1,0.2-0.5,0.6-0.5,1.2c0,0.2,0.1,0.5,0.2,0.7
			c0.2,0.3,0.5,0.6,0.7,0.7c0.4,0.2,0.8,0.1,1.5,0c0.8-0.1,1.1,0.2,1.3,0.5c0.2,0.3,0.1,0.6-0.2,0.7c-0.3,0.2-0.9-0.2-1-0.2
			c-0.1-0.1-1-0.5-1-0.5s0.3,0.3,0.5,0.5c0.2,0.2,0.9,0.7,1.5,0.8c0.4,0,0.9-0.1,1.3-0.5c0.2-0.2,0.3-0.5,0.5-0.8
			c0.2-0.4,0.3-1,0.3-1.5c0-0.5,0-0.9,0-1.3C18.7,17.8,18.5,17.2,18.3,16.6z"/>
	</g>
</g>
<g id="working">
</g>
<g id="colour:_negative">
</g>
</svg>
