<?xml version="1.0" encoding="UTF-8" standalone="no"?>
<svg
   xmlns:dc="http://purl.org/dc/elements/1.1/"
   xmlns:cc="http://creativecommons.org/ns#"
   xmlns:rdf="http://www.w3.org/1999/02/22-rdf-syntax-ns#"
   xmlns:svg="http://www.w3.org/2000/svg"
   xmlns="http://www.w3.org/2000/svg"
   id="svg64"
   xml:space="preserve"
   enable-background="new 0 0 32 32"
   viewBox="0 0 32 32"
   height="32px"
   width="32px"
   y="0px"
   x="0px"
   version="1.1"><metadata
     id="metadata70"><rdf:RDF><cc:Work
         rdf:about=""><dc:format>image/svg+xml</dc:format><dc:type
           rdf:resource="http://purl.org/dc/dcmitype/StillImage" /><dc:title></dc:title></cc:Work></rdf:RDF></metadata><defs
     id="defs68" /><g
     id="working" /><g
     id="colour:_negative" /><path
     style="fill:#ea5a26;stroke-width:0.49585527"
     id="path3714"
     d="m 19.92483,9.4104018 c 0,-0.361409 0,-0.671188 -0.09525,-1.032597 -0.09525,-0.361412 -0.238106,-0.671193 -0.476218,-0.929341 -0.142856,-0.154882 -0.333355,-0.258151 -0.52384,-0.30978 l 0.285729,-0.154902 -8.762446,-1.703789 -7.0956779,5.7825612 3.857382,0.25815 0.380974,1.703791 8.4290959,-2.168461 -0.380974,-1.8586812 3.14305,-1.755422 c 0.190486,0.103267 0.380973,0.206521 0.523839,0.361413 0.190489,0.206517 0.238111,0.5163 0.285734,0.826079 0.04761,0.309781 0,0.61956 -0.04762,0.929339 -0.04761,0.309779 -0.09525,0.619562 -0.190485,0.8777132 -0.190492,0.567927 -0.523844,1.084229 -0.761953,1.703788 -0.19049,0.619562 -0.333355,1.34238 -0.238108,2.013571 h 0.09525 c 0.142859,-0.309782 0.285736,-0.567928 0.428598,-0.877711 l 0.428598,-0.826079 c 0.142857,-0.258152 0.285732,-0.56793 0.380977,-0.877709 0.09525,-0.309781 0.190486,-0.671193 0.238107,-0.980968 0.04761,-0.309783 0.04761,-0.6711962 0.09525,-0.9809752 z"
     class="st1" /><g
     id="g3871"
     transform="matrix(0.47622002,0,0,0.51630012,-4.8386095,-20.535005)"><g
       id="g3857"><path
         style="fill:#ea5a26"
         id="path3855"
         d="m 65.6,61.5 h -0.9 l -2.2,-2.1 -0.2,-0.1 c -1.8,-0.3 -3.4,-0.4 -4.9,-0.4 -3.6,0 -6.7,0.8 -9.6,2.6 h -3 c -3,-1.8 -6,-2.6 -9.6,-2.6 -1.5,0 -3.1,0.1 -4.9,0.4 l -0.2,0.1 -2.2,2.1 H 27 l -1.4,1.4 v 24.6 l 1.4,1.4 h 38.7 l 1.4,-1.4 V 62.9 Z M 27.3,63 30,60.4 v 23.7 l -2.7,2.6 z m 0.5,24.2 2.7,-2.6 v 0 c 0,0 0,0 0,0 1.8,-0.3 3.4,-0.4 4.8,-0.4 3.8,0 6.9,0.9 9.9,3 z m 18.2,-2.8 9,-3.5 -1,-2.6 0.8,-0.3 -1,-2.7 -0.9,0.3 1,2.7 -0.8,0.3 0.7,1.7 -7.3,2.8 -0.6,-1.7 -0.9,0.4 1,2.5 v 2.6 c -3.3,-2.3 -6.6,-3.3 -10.7,-3.3 -1.1,0 -2.3,0.1 -3.6,0.2 v 0 c -0.2,0 -0.5,0.1 -0.8,0.1 v 0 c -0.1,0 -0.2,0 -0.3,0 V 83.6 60 c 1.7,-0.3 3.1,-0.4 4.5,-0.4 3.1,0 5.7,0.6 8.2,1.9 0.4,0.2 0.8,0.4 1.2,0.7 0.3,0.2 0.7,0.4 1,0.7 0.1,0.1 0.2,0.2 0.3,0.2 v 5.1 h 0.1 l -0.9,0.3 -0.3,-0.9 -1.7,0.7 -1.3,-3.5 -1,0.4 3.1,8 1,-0.4 -1.4,-3.6 1.8,-0.7 1.3,3.5 0.9,-0.4 -1,-2.5 1.7,-0.7 1.3,3.4 0.9,-0.3 -1,-2.5 1,-0.4 0.3,0.8 0.8,-0.3 -0.3,-0.9 -0.8,0.3 -0.3,-0.8 -1.8,0.7 -0.4,-0.9 -1.2,0.5 v -4.8 c 0.1,-0.1 0.2,-0.2 0.3,-0.2 0.3,-0.2 0.7,-0.5 1,-0.7 0.4,-0.2 0.8,-0.5 1.2,-0.7 2.5,-1.3 5.2,-2 8.2,-2 1.4,0 2.9,0.1 4.5,0.4 v 23.7 0.2 c -0.1,0 -0.2,0 -0.3,0 v 0 c -0.3,0 -0.5,-0.1 -0.8,-0.1 -1.3,-0.2 -2.5,-0.2 -3.6,-0.2 -4.1,0 -7.4,1 -10.7,3.3 v -2.8 z m 1.4,2.8 c 3.1,-2.1 6.2,-3 9.9,-3 1.5,0 3,0.1 4.8,0.4 v 0 l 2.7,2.6 z M 65.3,86.7 62.6,84.1 V 60.5 l 2.7,2.6 z"
         class="st1" /></g><g
       id="g3861"><rect
         style="fill:#ea5a26"
         id="rect3859"
         height="1.1"
         width="6.5"
         class="st1"
         transform="matrix(-0.3581,-0.9337,0.9337,-0.3581,4.5522,147.746)"
         y="71.800003"
         x="49.799999" /></g><g
       id="g3865"><rect
         style="fill:#ea5a26"
         id="rect3863"
         height="1.9"
         width="0.89999998"
         class="st1"
         transform="matrix(-0.3577,-0.9339,0.9339,-0.3577,-7.3027,125.7308)"
         y="64.400002"
         x="39.099998" /></g><g
       id="g3869"><polygon
         style="fill:#ea5a26"
         id="polygon3867"
         points="36.9,74.8 38,77.5 39,77.2 39.3,78.1 40.2,77.8 40.9,79.5 41.7,79.2 42.4,81 43.3,80.6 44,82.4 44.9,82.1 44.2,80.2 43.3,80.6 42.6,78.8 41.7,79.1 41,77.3 40.2,77.7 39.8,76.8 39,77.1 38.3,75.3 40,74.7 40.3,75.6 41.2,75.2 42.3,78.2 43.3,77.8 38.8,66.2 37.9,66.5 40.9,74.3 40,74.7 39.7,73.7 "
         class="st1" /></g></g></svg>