<?xml version="1.0" encoding="utf-8"?>
<!-- Generator: Adobe Illustrator 18.1.0, SVG Export Plug-In . SVG Version: 6.00 Build 0)  -->
<!DOCTYPE svg PUBLIC "-//W3C//DTD SVG 1.1//EN" "http://www.w3.org/Graphics/SVG/1.1/DTD/svg11.dtd">
<svg version="1.1" xmlns="http://www.w3.org/2000/svg" xmlns:xlink="http://www.w3.org/1999/xlink" x="0px" y="0px" width="32px"
	 height="32px" viewBox="0 0 32 32" enable-background="new 0 0 32 32" xml:space="preserve">
<g id="icons">
	<g>
		<g>
			<path fill="#4D4D4D" d="M10.8,24h10.4c1.5,0,2.8-1.3,2.8-2.8V10.8C24,9.3,22.7,8,21.2,8H10.8C9.3,8,8,9.3,8,10.8v10.4
				C8,22.7,9.3,24,10.8,24z"/>
		</g>
		<linearGradient id="SVGID_1_" gradientUnits="userSpaceOnUse" x1="15.9994" y1="14.5937" x2="15.9994" y2="6.8265">
			<stop  offset="0" style="stop-color:#FFFFFF;stop-opacity:0.5"/>
			<stop  offset="1" style="stop-color:#4D4D4D;stop-opacity:0"/>
		</linearGradient>
		<path opacity="0.64" fill="url(#SVGID_1_)" d="M21.2,9H10.8C9.8,9,9,9.8,9,10.8v2.9c2,0.5,4.4,0.8,7,0.8c2.6,0,4.9-0.3,7-0.8v-3
			C23,9.8,22.2,9,21.2,9z"/>
		<linearGradient id="SVGID_2_" gradientUnits="userSpaceOnUse" x1="8.9996" y1="10.4999" x2="16.9996" y2="10.4999">
			<stop  offset="0" style="stop-color:#FFFFFF"/>
			<stop  offset="1" style="stop-color:#FFFFFF;stop-opacity:0"/>
		</linearGradient>
		<path opacity="0.32" fill="url(#SVGID_2_)" d="M16,10h-5c-1.4,0-2,1-2,2c0,0,0-1.7,0-1l0,0c0-1.3,0.7-2,2-2h6L16,10z"/>
		
			<linearGradient id="SVGID_3_" gradientUnits="userSpaceOnUse" x1="86.0004" y1="24.5001" x2="94.0004" y2="24.5001" gradientTransform="matrix(-1 0 0 -1 109 46)">
			<stop  offset="0" style="stop-color:#FFFFFF"/>
			<stop  offset="1" style="stop-color:#FFFFFF;stop-opacity:0"/>
		</linearGradient>
		<path opacity="0.32" fill="url(#SVGID_3_)" d="M16,22h5c1.4,0,2-1,2-2c0,0,0,1.7,0,1l0,0c0,1.3-0.7,2-2,2h-6L16,22z"/>
		<g>
			<g>
				<path fill="#333333" d="M17.2,20.1l0.2-1.3l-0.1,0c-0.9,0.9-1.8,1.5-2.9,1.5c-1.5,0-2.4-1-2.4-3.2c0-2.4,1-5.4,4-5.4
					c0.9,0,1.6,0.4,2.2,0.9l0.3-0.7h2c-0.1,0.7-0.3,1.4-0.4,2.1l-0.6,4.6c0,0.2,0,0.3,0.2,0.3l0.7,0.1l-0.2,1.2H17.2z M17.8,14.1
					c-0.3-0.3-0.9-0.6-1.4-0.6c-1.5,0-2,2.3-2,3.4c0,0.9,0.3,1.4,0.9,1.4c0.6,0,1.5-0.6,2.1-1.2L17.8,14.1z"/>
			</g>
			<g>
				<path fill="#FFFFFF" d="M16.8,20.1l0.2-1.3l-0.1,0c-0.9,0.9-1.8,1.5-2.9,1.5c-1.5,0-2.4-1-2.4-3.2c0-2.4,1-5.4,4-5.4
					c0.9,0,1.6,0.4,2.2,0.9l0.3-0.7h2c-0.1,0.7-0.3,1.4-0.4,2.1L19,18.5c0,0.2,0,0.3,0.2,0.3l0.7,0.1l-0.2,1.2H16.8z M17.4,14.1
					c-0.3-0.3-0.9-0.6-1.4-0.6c-1.5,0-2,2.3-2,3.4c0,0.9,0.3,1.4,0.9,1.4c0.6,0,1.5-0.6,2.1-1.2L17.4,14.1z"/>
			</g>
		</g>
	</g>
</g>
<g id="working">
</g>
<g id="colour:_negative">
</g>
</svg>
