<?xml version="1.0" encoding="utf-8"?>
<!-- Generator: Adobe Illustrator 19.0.0, SVG Export Plug-In . SVG Version: 6.00 Build 0)  -->
<svg version="1.1" xmlns="http://www.w3.org/2000/svg" xmlns:xlink="http://www.w3.org/1999/xlink" x="0px" y="0px" width="25px"
	 height="32px" viewBox="0 0 32 32" enable-background="new 0 0 32 32" xml:space="preserve">
<style type="text/css">
	.st0{fill:#EA5A26;}
</style>
<g>
	<polygon class="st0" points="10.5,11.7 10.4,11.7 10.4,18.4 22.3,18.4 22.3,8.2 17.9,9.5 17.9,9.7 18.5,9.7 18.5,10.3 19,10.3 
		19,10.8 19.5,10.8 19.5,11.3 20,11.3 20,11.7 20.6,11.7 20.6,13 18.5,13 18.5,13.2 19,13.2 19,14.2 19.5,14.2 19.5,15.2 20,15.2 
		20,16.9 19.5,16.9 19.5,17.4 17.7,17.4 17.7,16.9 17.2,16.9 17.2,15.9 16.7,15.9 16.7,14.9 16.2,14.9 16.2,14.4 15.9,14.4 
		15.9,14.9 15.4,14.9 15.4,15.5 14.9,15.5 14.9,15.9 13.6,15.9 13.6,10.8 	"/>
	<path class="st0" d="M31.6,19.3l-2.9-3.7l-0.3-0.1h-5.5v3.7H9.7v-3.7H4.2l-0.3,0.1L1,19.3l0.3,0.6h5.3l-2,4.1l0.3,0.5h2.3l0.6,6.1
		l0.3,0.3h16.3l0.3-0.3l0.6-6.1h2.3l0,0l0,0l0.3-0.5l-2-4.1h5.3l0,0l0,0L31.6,19.3z M23.7,17l1.2,2.1h-1.2V17z M2,19.1l2.4-3h4.3
		l-1.8,3H2z M9,17v2.1H7.8L9,17z M24.1,30.1H8.6L8,24.4h16.7L24.1,30.1z M27.2,23.7H5.6l1.9-3.9h17.9L27.2,23.7z M25.7,19.1l-1.8-3
		h4.3l2.4,3H25.7z"/>
	<path class="st0" d="M10.3,11.1L10.3,11.1l3.3-1V6.2h1.2v0.5h0.5v0.5h0.5v0.5h0.5v0.5h0.5v0.5h0.5V9L22,7.6l-0.3-1l-0.4-1.4
		l4.3-2.5c0.3,0.1,0.6,0.2,0.8,0.5c0.3,0.3,0.4,0.7,0.5,1C27,4.6,27,5,26.9,5.4c0,0.4-0.1,0.8-0.2,1.2c-0.2,0.8-0.7,1.5-0.9,2.3
		c-0.3,0.8-0.4,1.8-0.2,2.7h0.1c0.2-0.4,0.4-0.8,0.5-1.2l0.5-1.1c0.2-0.4,0.3-0.8,0.5-1.2c0.1-0.4,0.2-0.9,0.3-1.3
		c0.1-0.5,0.1-0.9,0.1-1.4c0-0.4-0.1-0.9-0.2-1.3c-0.1-0.4-0.4-0.9-0.8-1.2c-0.2-0.2-0.5-0.3-0.8-0.3l0.4-0.2L13.7,0.9L4,9h5.5
		L10.3,11.1z"/>
	<polygon class="st0" points="19.6,15.6 19.1,15.6 19.1,14.6 18.6,14.6 18.6,13.6 18.1,13.6 18.1,12.6 20.2,12.6 20.2,12.1 
		19.6,12.1 19.6,11.6 19.1,11.6 19.1,12.1 17.6,12.1 17.6,13.6 18.1,13.6 18.1,14.6 18.6,14.6 18.6,15.6 19.1,15.6 19.1,16.5 
		19.6,16.5 	"/>
	<rect x="18.6" y="11.1" class="st0" width="0.5" height="0.5"/>
	<rect x="18.1" y="10.6" class="st0" width="0.5" height="0.5"/>
	<rect x="17.6" y="10.1" class="st0" width="0.5" height="0.5"/>
	<rect x="17.1" y="9.6" class="st0" width="0.5" height="0.5"/>
	<rect x="16.6" y="9.1" class="st0" width="0.5" height="0.5"/>
	<rect x="16.1" y="8.6" class="st0" width="0.5" height="0.5"/>
	<rect x="15.5" y="8.1" class="st0" width="0.5" height="0.5"/>
	<polygon class="st0" points="15.5,14.1 16,14.1 16,13.6 16.6,13.6 16.6,14.6 17.1,14.6 17.1,15.6 17.6,15.6 17.6,16.5 18.1,16.5 
		18.1,17.1 19.1,17.1 19.1,16.5 18.1,16.5 18.1,15.6 17.6,15.6 17.6,14.6 17.1,14.6 17.1,13.6 16.6,13.6 16.6,12.6 16,12.6 16,13.6 
		15.5,13.6 	"/>
	<rect x="15" y="14.1" class="st0" width="0.5" height="0.5"/>
	<rect x="15" y="7.6" class="st0" width="0.5" height="0.5"/>
	<polygon class="st0" points="14,6.6 14,15.5 14.5,15.5 14.5,15.1 15,15.1 15,14.6 14.5,14.6 14.5,7.6 15,7.6 15,7 14.5,7 14.5,6.6 
			"/>
</g>
</svg>
