<?xml version="1.0" encoding="utf-8"?>
<!-- Generator: Adobe Illustrator 18.1.0, SVG Export Plug-In . SVG Version: 6.00 Build 0)  -->
<!DOCTYPE svg PUBLIC "-//W3C//DTD SVG 1.1//EN" "http://www.w3.org/Graphics/SVG/1.1/DTD/svg11.dtd">
<svg version="1.1" xmlns="http://www.w3.org/2000/svg" xmlns:xlink="http://www.w3.org/1999/xlink" x="0px" y="0px" width="32px"
	 height="32px" viewBox="0 0 32 32" enable-background="new 0 0 32 32" xml:space="preserve">
<g id="icons">
	<g>
		<polygon fill="#4D4D4D" points="12.9,13.8 12.9,13.8 12.9,17.4 19.1,17.4 19.1,11.9 16.8,12.6 16.8,12.8 17.1,12.8 17.1,13 
			17.4,13 17.4,13.3 17.6,13.3 17.6,13.6 17.9,13.6 17.9,13.8 18.2,13.8 18.2,14.5 17.1,14.5 17.1,14.6 17.4,14.6 17.4,15.1 
			17.6,15.1 17.6,15.7 17.9,15.7 17.9,16.6 17.6,16.6 17.6,16.9 16.7,16.9 16.7,16.6 16.5,16.6 16.5,16.1 16.2,16.1 16.2,15.5 
			15.9,15.5 15.9,15.3 15.8,15.3 15.8,15.5 15.5,15.5 15.5,15.8 15.2,15.8 15.2,16 14.6,16 14.6,13.3 		"/>
		<path fill="#4D4D4D" d="M24,17.8l-1.5-2l-0.1-0.1h-2.9v2h-6.9v-2H9.7l-0.1,0.1l-1.5,2l0.1,0.3h2.8l-1,2.2l0.2,0.3h1.2l0.3,3.3
			l0.2,0.2h8.4l0.2-0.2l0.3-3.3h1.2l0,0v0l0.2-0.3l-1-2.2h2.8l0,0v0L24,17.8z M19.8,16.7l0.7,1.1h-0.7V16.7z M8.5,17.8l1.2-1.6H12
			l-0.9,1.6H8.5z M12.2,16.7v1.1h-0.6L12.2,16.7z M20.1,23.6h-8.1l-0.3-3h8.7L20.1,23.6z M21.7,20.2H10.3l1-2.1h9.4L21.7,20.2z
			 M20.9,17.8L20,16.2h2.3l1.2,1.6H20.9z"/>
		<path fill="#4D4D4D" d="M12.9,13.5L12.9,13.5l1.7-0.5v-2.1h0.6v0.3h0.3v0.3h0.3v0.3H16V12h0.3v0.3h0.3v0.2l2.5-0.7l-0.1-0.5
			l-0.2-0.8L20.9,9c0.2,0,0.3,0.1,0.4,0.2c0.1,0.1,0.2,0.3,0.2,0.6c0,0.2,0,0.4,0,0.6c0,0.2,0,0.4-0.1,0.6c-0.1,0.4-0.4,0.8-0.5,1.2
			c-0.1,0.4-0.2,1-0.1,1.4l0.1,0c0.1-0.2,0.2-0.4,0.3-0.6l0.3-0.6c0.1-0.2,0.2-0.4,0.2-0.6c0.1-0.2,0.1-0.5,0.2-0.7
			c0-0.2,0-0.5,0-0.7c0-0.2,0-0.5-0.1-0.7c-0.1-0.2-0.2-0.5-0.4-0.6C21.3,9,21.2,9,21,9l0.2-0.1L14.7,8l-5.1,4.3h2.9L12.9,13.5z"/>
		<polygon fill="#4D4D4D" points="17.7,15.9 17.4,15.9 17.4,15.3 17.2,15.3 17.2,14.8 16.9,14.8 16.9,14.3 18,14.3 18,14 17.7,14 
			17.7,13.8 17.4,13.8 17.4,14 16.7,14 16.7,14.8 16.9,14.8 16.9,15.3 17.2,15.3 17.2,15.9 17.4,15.9 17.4,16.4 17.7,16.4 		"/>
		<rect x="17.2" y="13.5" fill="#4D4D4D" width="0.3" height="0.3"/>
		<rect x="16.9" y="13.2" fill="#4D4D4D" width="0.3" height="0.3"/>
		<rect x="16.7" y="13" fill="#4D4D4D" width="0.3" height="0.3"/>
		<rect x="16.4" y="12.7" fill="#4D4D4D" width="0.3" height="0.3"/>
		<rect x="16.1" y="12.4" fill="#4D4D4D" width="0.3" height="0.3"/>
		<rect x="15.9" y="12.1" fill="#4D4D4D" width="0.3" height="0.3"/>
		<rect x="15.6" y="11.9" fill="#4D4D4D" width="0.3" height="0.3"/>
		<polygon fill="#4D4D4D" points="15.6,15.1 15.8,15.1 15.8,14.8 16.1,14.8 16.1,15.3 16.4,15.3 16.4,15.9 16.7,15.9 16.7,16.4 
			16.9,16.4 16.9,16.7 17.4,16.7 17.4,16.4 16.9,16.4 16.9,15.9 16.7,15.9 16.7,15.3 16.4,15.3 16.4,14.8 16.1,14.8 16.1,14.3 
			15.8,14.3 15.8,14.8 15.6,14.8 		"/>
		<rect x="15.3" y="15.1" fill="#4D4D4D" width="0.3" height="0.3"/>
		<rect x="15.3" y="11.6" fill="#4D4D4D" width="0.3" height="0.3"/>
		<polygon fill="#4D4D4D" points="14.8,11.1 14.8,15.8 15,15.8 15,15.6 15.3,15.6 15.3,15.3 15,15.3 15,11.6 15.3,11.6 15.3,11.3 
			15,11.3 15,11.1 		"/>
	</g>
</g>
<g id="working">
</g>
<g id="colour:_negative">
</g>
</svg>
