<?xml version="1.0" encoding="utf-8"?>
<!-- Generator: Adobe Illustrator 19.0.0, SVG Export Plug-In . SVG Version: 6.00 Build 0)  -->
<svg version="1.1" xmlns="http://www.w3.org/2000/svg" xmlns:xlink="http://www.w3.org/1999/xlink" x="0px" y="0px" width="25px"
	 height="32px" viewBox="0 0 32 32" enable-background="new 0 0 32 32" xml:space="preserve">
<style type="text/css">
	.st0{fill:#549F45;}
</style>
<g>
	<path class="st0" d="M28.3,1.2H7.8L7.2,1.8v0.6L6.4,3.2H5.8L5.2,3.8v0.5C5.1,4.4,5,4.5,4.9,4.6C4.3,5.2,3.8,6,3.7,6.9
		C3.6,7.8,3.8,8.5,4.3,9.1c-0.4,0.5-0.6,1.1-0.6,1.7c-0.1,0.9,0.1,1.6,0.6,2.2c-0.4,0.5-0.6,1.1-0.6,1.7c-0.1,0.9,0.1,1.6,0.7,2.2
		c-0.9,1.3-0.9,2.9,0,3.8c-0.4,0.5-0.6,1.1-0.6,1.7c-0.1,0.9,0.1,1.6,0.6,2.1c-0.3,0.5-0.6,1.1-0.6,1.6c-0.1,0.9,0.1,1.7,0.7,2.2
		c0.2,0.2,0.4,0.4,0.7,0.5l0.1,0.1v1.8l0.6,0.6h20.5l0.6-0.6V30l0.8-0.8h0.6l0.6-0.6V1.8L28.3,1.2z M13.1,5.6H15v0.8h0.9v0.9h0.9
		v0.9h0.9V9h0.9v0.9h0.9v0.9h0.9v0.9H21v0.9h0.9v0.9h0.9v0.9h0.9v0.7h1V17H21v0.7h0.8v1.7h0.9v1.7h0.9v2.7h-0.9v0.9H20v-0.9h-0.9
		v-1.7h-0.9v-1.7h-0.9v-0.9h-0.7v0.9h-0.9V21h-0.9v0.7h-1.9V5.6H13.1z M6.6,3.6L7.2,3v0.5H7.1C6.9,3.5,6.7,3.6,6.6,3.6L6.6,3.6z
		 M3.9,7C4,6.3,4.4,5.5,5,4.9l0.1-0.1c0.3-0.3,0.7-0.5,1-0.7C6.4,4,6.7,3.9,7,3.8h0.1c0.1,0,0.2,0,0.3,0C8,3.8,8.5,4,8.9,4.4
		C9,4.5,9,4.7,8.9,4.8S8.8,4.9,8.7,4.9c-0.1,0-0.2,0-0.2-0.1C8.2,4.5,7.8,4.4,7.4,4.4c-0.1,0-0.2,0-0.3,0c-0.3,0-0.7,0.2-1,0.4
		C5.9,4.9,5.6,5.1,5.4,5.3C5.3,5.4,5.2,5.5,5.1,5.7C4.4,6.6,4.3,7.8,4.8,8.4c0,0-0.1,0-0.1,0.1C4.6,8.6,4.5,8.8,4.4,8.9
		C4,8.4,3.8,7.7,3.9,7z M7.2,4.7v2.6H7.1c-0.3,0-0.6,0.1-0.9,0.3V5.2C6.5,4.9,6.8,4.8,7.2,4.7z M5.1,6.3v1.9l0,0
		C4.7,7.8,4.7,7,5.1,6.3z M4.5,9.4l0.1-0.1l0.1-0.1C4.8,9.1,4.9,8.9,5,8.8l0.1-0.1l0,0l0,0l0.1-0.1l0.1-0.1C5.6,8.3,5.8,8.1,6.1,8
		S6.7,7.8,7,7.7h0.1c0.1,0,0.2,0,0.3,0c0.6,0,1.2,0.2,1.5,0.6C9,8.4,9,8.6,8.9,8.7S8.8,8.8,8.7,8.8c-0.1,0-0.2,0-0.2-0.1
		C8.2,8.4,7.8,8.3,7.4,8.3c-0.1,0-0.2,0-0.3,0l0,0c-0.3,0-0.7,0.2-1,0.4C5.9,8.8,5.6,9,5.4,9.2l0,0C5.3,9.3,5.3,9.3,5.2,9.4
		C5.1,9.5,5.1,9.5,5,9.6l0,0L4.9,9.7c-0.6,0.9-0.7,2-0.2,2.6c0,0-0.1,0-0.1,0.1c-0.1,0.1-0.2,0.2-0.3,0.4C3.7,11.9,3.7,10.5,4.5,9.4
		z M7.2,8.6v2.6c-0.3,0-0.7,0.1-1,0.3V9C6.5,8.8,6.8,8.6,7.2,8.6z M5.1,10.1V12l0,0C4.7,11.6,4.7,10.8,5.1,10.1z M4.5,13.2L4.5,13.2
		L4.7,13c0.1-0.1,0.2-0.3,0.3-0.4l0.1-0.1l0,0l0,0l0.1-0.1l0.1-0.1c0.3-0.2,0.5-0.4,0.8-0.5c0.3-0.2,0.7-0.3,1-0.3
		c0.1,0,0.2,0,0.3,0c0.6,0,1.1,0.2,1.5,0.6c0.1,0.1,0.1,0.3,0,0.4c-0.1,0.1-0.1,0.1-0.2,0.1c-0.1,0-0.2,0-0.2-0.1
		c-0.3-0.3-0.7-0.4-1.1-0.4c-0.1,0-0.2,0-0.3,0c-0.3,0-0.7,0.2-1,0.4c-0.2,0.1-0.5,0.3-0.7,0.5l0,0c-0.1,0.1-0.1,0.1-0.2,0.2
		c-0.1,0.1-0.1,0.1-0.2,0.2l0,0l-0.1,0.1c-0.6,0.9-0.7,2-0.2,2.6c0,0-0.1,0-0.1,0.1c-0.1,0.1-0.2,0.3-0.3,0.4
		C3.7,15.7,3.7,14.3,4.5,13.2z M7.2,12.4V15H7.1c-0.3,0-0.6,0.1-0.9,0.3v-2.4C6.5,12.6,6.8,12.4,7.2,12.4z M5.1,13.9v1.9l0,0
		C4.7,15.4,4.7,14.6,5.1,13.9z M4.5,17L4.5,17l0.2-0.2c0.1-0.1,0.2-0.3,0.3-0.4l0.1-0.1l0,0l0,0l0.1-0.1l0.1-0.1
		c0.3-0.2,0.5-0.4,0.8-0.5s0.6-0.2,0.9-0.3h0.1c0.1,0,0.2,0,0.3,0c0.6,0,1.2,0.2,1.5,0.6C9,16,9,16.2,8.9,16.3
		c-0.1,0.1-0.1,0.1-0.2,0.1c-0.1,0-0.2,0-0.2-0.1c-0.3-0.3-0.7-0.4-1.1-0.4c-0.1,0-0.2,0-0.3,0c-0.3,0-0.7,0.2-1,0.4
		c-0.2,0.1-0.5,0.3-0.7,0.5l0,0c-0.1,0.1-0.1,0.1-0.2,0.2c-0.1,0.1-0.1,0.1-0.2,0.2l0,0l-0.1,0.1c-0.6,0.9-0.7,2-0.2,2.6
		c0,0-0.1,0-0.1,0.1c-0.1,0.1-0.2,0.2-0.3,0.4C3.7,19.5,3.7,18.1,4.5,17z M7.2,16.2v2.6H7.1c-0.3,0-0.6,0.1-0.9,0.2v-2.4
		C6.5,16.4,6.8,16.2,7.2,16.2z M5.1,17.7v1.9l0,0C4.7,19.2,4.7,18.5,5.1,17.7z M4.5,20.8L4.5,20.8l0.2-0.2c0.1-0.1,0.2-0.3,0.3-0.4
		l0.1-0.1l0,0l0,0L5.2,20l0.1-0.1c0.3-0.2,0.5-0.4,0.8-0.5s0.6-0.2,0.9-0.3h0.1c0.1,0,0.2,0,0.3,0c0.6,0,1.2,0.2,1.5,0.6
		C9,19.8,9,20,8.9,20.1c-0.1,0.1-0.1,0.1-0.2,0.1c-0.1,0-0.2,0-0.2-0.1c-0.3-0.3-0.7-0.4-1.1-0.4c-0.1,0-0.2,0-0.3,0l0,0
		c-0.3,0-0.7,0.2-1,0.4c-0.2,0.1-0.5,0.3-0.7,0.5l0,0c-0.1,0.1-0.1,0.1-0.2,0.2C5.1,20.9,5.1,20.9,5,21l0,0l0,0l-0.1,0.1
		c-0.6,0.9-0.7,2-0.2,2.6c0,0-0.1,0-0.1,0.1c-0.1,0.1-0.2,0.2-0.3,0.4C3.7,23.3,3.7,21.9,4.5,20.8z M7.2,20v2.6H7.1
		c-0.3,0-0.6,0.1-0.9,0.3v-2.4C6.5,20.2,6.8,20.1,7.2,20z M5.1,21.5v1.9l0,0C4.7,23,4.7,22.3,5.1,21.5z M5.1,27.3
		c-0.4-0.5-0.4-1.2,0-2V27.3z M5.4,24.4L5.4,24.4c-0.1,0.1-0.1,0.1-0.2,0.2c-0.1,0.1-0.1,0.1-0.2,0.2l0,0l-0.1,0.1
		c-0.6,0.9-0.7,2-0.1,2.7c0.1,0.1,0.1,0.1,0.2,0.2v0.7c-0.2-0.1-0.5-0.2-0.6-0.4c-0.5-0.5-0.7-1.2-0.6-2c0.1-0.5,0.3-1,0.6-1.5
		l0.1-0.1l0.1-0.1c0.1-0.1,0.2-0.3,0.3-0.4L5,23.9l0,0l0,0l0.1-0.1l0.1-0.1c0.3-0.2,0.5-0.4,0.8-0.5s0.6-0.2,0.9-0.3H7
		c0.1,0,0.2,0,0.3,0c0.6,0,1.2,0.2,1.5,0.6c0.1,0.1,0.1,0.3,0,0.4C9,24,8.9,24,8.8,24c-0.1,0-0.2,0-0.2-0.1
		c-0.3-0.3-0.7-0.4-1.1-0.4c-0.1,0-0.2,0-0.3,0c-0.3,0-0.7,0.2-1,0.4C5.9,24,5.6,24.2,5.4,24.4z M6.1,29.7v-5.5
		c0.3-0.2,0.7-0.4,1-0.4v5L6.1,29.7L6.1,29.7z M26.1,30.2H6.6l0,0l1-1h19.6L26.1,30.2z"/>
	<g>
		<g id="XMLID_2_">
			<g>
				<polygon class="st0" points="24.1,15.4 24.1,16.3 20.5,16.3 20.5,17.9 20.5,17.9 19.6,17.9 19.6,15.4 22.2,15.4 22.2,14.7 
					23.1,14.7 23.1,15.4 				"/>
				<rect x="22.2" y="21.3" class="st0" width="0.9" height="1.7"/>
				<rect x="21.4" y="13.8" class="st0" width="0.9" height="0.9"/>
				<rect x="21.3" y="19.6" class="st0" width="0.9" height="1.7"/>
				<rect x="20.5" y="23" class="st0" width="1.7" height="0.9"/>
				<rect x="20.5" y="12.9" class="st0" width="0.9" height="0.9"/>
				<polygon class="st0" points="21.4,17.9 21.4,19.6 20.5,19.6 20.5,17.9 20.5,17.9 				"/>
				<rect x="19.6" y="21.3" class="st0" width="0.9" height="1.7"/>
				<rect x="19.6" y="12.1" class="st0" width="0.9" height="0.9"/>
				<polygon class="st0" points="19.6,19.6 19.6,21.3 18.8,21.3 18.8,19.6 18.8,19.6 				"/>
				<rect x="18.8" y="11.2" class="st0" width="0.9" height="0.9"/>
				<polygon class="st0" points="18.8,17.9 18.8,19.6 18.8,19.6 17.9,19.6 17.9,17.9 				"/>
				<rect x="17.9" y="10.3" class="st0" width="0.9" height="0.9"/>
				<rect x="17" y="9.5" class="st0" width="0.9" height="0.9"/>
				<polygon class="st0" points="17.9,16.3 17.9,17.9 17,17.9 17,17.9 17,16.3 				"/>
				<rect x="16.2" y="8.6" class="st0" width="0.9" height="0.9"/>
				<polygon class="st0" points="17,17.9 17,18.8 16.2,18.8 16.2,17.9 				"/>
				<rect x="15.3" y="18.8" class="st0" width="0.9" height="0.9"/>
				<rect x="15.3" y="7.7" class="st0" width="0.9" height="0.9"/>
				<polygon class="st0" points="15.3,19.6 15.3,20.5 14.5,20.5 14.5,21.2 13.6,21.2 13.6,6.1 14.5,6.1 14.5,6.9 15.3,6.9 15.3,7.7 
					14.5,7.7 14.5,19.6 				"/>
			</g>
		</g>
	</g>
</g>
</svg>
