<?xml version="1.0" encoding="utf-8"?>
<!-- Generator: Adobe Illustrator 19.0.0, SVG Export Plug-In . SVG Version: 6.00 Build 0)  -->
<svg version="1.1" xmlns="http://www.w3.org/2000/svg" xmlns:xlink="http://www.w3.org/1999/xlink" x="0px" y="0px" width="25px"
	 height="32px" viewBox="0 0 32 32" enable-background="new 0 0 32 32" xml:space="preserve">
<style type="text/css">
	.st0{fill:url(#XMLID_21_);}
	.st1{fill:url(#XMLID_22_);}
	.st2{fill:url(#XMLID_23_);}
	.st3{fill:url(#XMLID_24_);}
	.st4{fill:#549F45;}
	.st5{fill:#FFFFFF;}
	.st6{fill:url(#XMLID_25_);}
</style>
<g id="XMLID_2_">
	<g id="XMLID_19_">
		
			<radialGradient id="XMLID_21_" cx="15.6167" cy="17.291" r="14.9964" gradientTransform="matrix(1 0 0 -1 0 33.5)" gradientUnits="userSpaceOnUse">
			<stop  offset="0" style="stop-color:#78AC61"/>
			<stop  offset="0.3948" style="stop-color:#6DA859"/>
			<stop  offset="1" style="stop-color:#549F45"/>
		</radialGradient>
		<path id="XMLID_20_" class="st0" d="M5.9,31.2h19.5c2.9,0,5.3-2.4,5.3-5.2V6.5c0-2.9-2.4-5.2-5.3-5.2H5.9C3,1.3,0.7,3.7,0.7,6.5
			V26C0.6,28.9,3,31.2,5.9,31.2z"/>
	</g>
	
		<linearGradient id="XMLID_22_" gradientUnits="userSpaceOnUse" x1="15.6162" y1="5.4" x2="29.7178" y2="5.4" gradientTransform="matrix(1 0 0 -1 0 33.5)">
		<stop  offset="0" style="stop-color:#549F45;stop-opacity:0"/>
		<stop  offset="1" style="stop-color:#FFFFFF"/>
	</linearGradient>
	<path id="XMLID_18_" class="st1" d="M16.5,29.4h8.8c1.9,0,4.4-1.5,4.4-3.5l0,0c0,2.4-2,4.4-4.4,4.4h-9.8L16.5,29.4z"/>
	<g id="XMLID_16_">
		
			<linearGradient id="XMLID_23_" gradientUnits="userSpaceOnUse" x1="15.65" y1="19.9207" x2="15.65" y2="35.8485" gradientTransform="matrix(1 0 0 -1 0 33.5)">
			<stop  offset="0" style="stop-color:#FFFFFF;stop-opacity:0.5"/>
			<stop  offset="1" style="stop-color:#3392A1;stop-opacity:0"/>
		</linearGradient>
		<path id="XMLID_17_" class="st2" d="M29.7,11.8V6.5c0-2.4-2-4.3-4.4-4.3H5.9c-2.4,0-4.3,2-4.3,4.3v5.3c4,1.1,8.9,1.8,14.2,1.8
			C20.9,13.5,25.7,12.9,29.7,11.8z"/>
	</g>
	
		<linearGradient id="XMLID_24_" gradientUnits="userSpaceOnUse" x1="1.5166" y1="29.25" x2="15.6166" y2="29.25" gradientTransform="matrix(1 0 0 -1 0 33.5)">
		<stop  offset="0" style="stop-color:#FFFFFF"/>
		<stop  offset="1" style="stop-color:#549F45;stop-opacity:0"/>
	</linearGradient>
	<path id="XMLID_15_" class="st3" d="M14.7,3H5.8C3.9,3,1.5,4.5,1.5,6.4l0,0c0-2.4,2-4.3,4.3-4.3h9.8L14.7,3z"/>
	<g id="XMLID_3_">
		<g id="XMLID_11_">
			<path id="XMLID_12_" class="st4" d="M17.8,23.9l0.4-2.4h-0.1c-1.8,1.7-3.3,2.8-5.4,2.8c-2.9,0-4.5-1.9-4.5-5.9
				c0-4.5,1.9-10.1,7.5-10.1c1.7,0,3,0.7,4.1,1.7l0.6-1.4H24c-0.3,1.3-0.6,2.6-0.7,3.9l-1.2,8.6c-0.1,0.4,0,0.5,0.4,0.6l1.4,0.2
				l-0.3,2.2h-5.8V23.9z M19,12.6c-0.6-0.6-1.6-1.1-2.6-1.1c-2.9,0-3.7,4.2-3.7,6.4c0,1.7,0.5,2.6,1.7,2.6c1.1,0,2.7-1.2,3.8-2.3
				L19,12.6z"/>
		</g>
		<g id="XMLID_7_">
			<path id="XMLID_8_" class="st5" d="M17.1,23.9l0.4-2.4h-0.1c-1.8,1.7-3.3,2.8-5.4,2.8c-2.9,0-4.5-1.9-4.5-5.9
				c0-4.5,1.9-10.1,7.5-10.1c1.7,0,3,0.7,4.1,1.7l0.6-1.4h3.8c-0.3,1.3-0.6,2.6-0.7,3.9l-1.2,8.6c-0.1,0.4,0,0.5,0.4,0.6l1.4,0.2
				l-0.3,2.2h-6V23.9z M18.2,12.6c-0.6-0.6-1.6-1.1-2.6-1.1c-2.9,0-3.7,4.2-3.7,6.4c0,1.7,0.5,2.6,1.7,2.6c1.1,0,2.7-1.2,3.8-2.3
				L18.2,12.6z"/>
		</g>
		
			<linearGradient id="XMLID_25_" gradientUnits="userSpaceOnUse" x1="15.55" y1="7.6246" x2="15.55" y2="25.3261" gradientTransform="matrix(1 0 0 -1 0 33.5)">
			<stop  offset="0" style="stop-color:#DAE5CF"/>
			<stop  offset="0.1173" style="stop-color:#E1EAD8"/>
			<stop  offset="0.5368" style="stop-color:#F7F9F4"/>
			<stop  offset="0.7791" style="stop-color:#FFFFFF"/>
		</linearGradient>
		<path id="XMLID_4_" class="st6" d="M21.7,21.5c-0.4-0.1-0.4-0.1-0.4-0.6l1.2-8.6c0.2-1.3,0.5-2.6,0.7-3.9H20l-0.6,1.4h-0.6
			c-0.9-0.9-2.2-1.6-3.7-1.7c-5.3,0.2-7.2,5.7-7.2,10.1c0,3.8,1.5,5.8,4.2,5.9c2-0.1,3.4-1.1,5.1-2.8h0.1H18l-0.4,2.4h5.1l0.3-2.2
			L21.7,21.5z M18.1,18.2c-1.1,1.1-2.7,2.3-3.8,2.3c-0.1,0-0.2,0-0.3,0s-0.2,0-0.3,0c-1.2,0-1.7-0.8-1.7-2.6c0-2.2,0.8-6.4,3.7-6.4
			c0.1,0,0.2,0,0.3,0s0.2,0,0.3,0c1,0,2,0.5,2.6,1.1L18.1,18.2z"/>
	</g>
</g>
</svg>
