<?xml version="1.0" encoding="utf-8"?>
<!-- Generator: Adobe Illustrator 18.1.0, SVG Export Plug-In . SVG Version: 6.00 Build 0)  -->
<!DOCTYPE svg PUBLIC "-//W3C//DTD SVG 1.1//EN" "http://www.w3.org/Graphics/SVG/1.1/DTD/svg11.dtd">
<svg version="1.1" xmlns="http://www.w3.org/2000/svg" xmlns:xlink="http://www.w3.org/1999/xlink" x="0px" y="0px" width="32px"
	 height="32px" viewBox="0 0 32 32" enable-background="new 0 0 32 32" xml:space="preserve">
<g id="icons">
	<g>
		<g>
			<polygon fill="#4D4D4D" points="21.7,16.9 23.8,16.9 21.8,14.1 21.7,14.1 			"/>
			<polygon fill="#4D4D4D" points="10.3,14.1 10.2,14.1 8.2,16.9 10.3,16.9 			"/>
			
				<rect x="18" y="20.6" transform="matrix(-0.7071 -0.7071 0.7071 -0.7071 16.5403 48.7022)" fill="#4D4D4D" width="0.7" height="0.7"/>
			<path fill="#4D4D4D" d="M8,17.2v6.6L8.2,24h15.7l0.2-0.2v-6.6H8z M13.4,22.5c-0.7,0-1.2-0.4-1.5-1H13l0.2-0.2v-0.9L13,20.3h-1.1
				c0.2-0.6,0.8-1,1.5-1c0.9,0,1.6,0.7,1.6,1.6C15,21.8,14.3,22.5,13.4,22.5z M19.3,21.4l-0.4,0.4h-3.8l0,0c0.1-0.3,0.2-0.6,0.2-0.9
				c0-0.3-0.1-0.6-0.2-0.9l0,0h3.8l0.4,0.4V21.4z"/>
			<path fill="#4D4D4D" d="M11.7,14.1h-1v2.8h1h8.7h1v-2.8h-1v-0.3h1.4V9.3l-0.2-0.2h-1.2V8h-8.7v1.2h-1.2l-0.2,0.2v4.4h1.3V14.1z
				 M12,9.2V8.3h8v0.9v7.4h-8V9.2z"/>
		</g>
		<g>
			<g>
				<g>
					<polygon fill="#4D4D4D" points="18.1,12.6 18.1,13 16.7,13 16.7,13.6 16.7,13.6 16.4,13.6 16.4,12.6 16.4,12.6 16.7,12.6 
						17.4,12.6 17.4,12.4 17.7,12.4 17.7,12.6 					"/>
					<polygon fill="#4D4D4D" points="17.7,14.9 17.7,15.6 17.4,15.6 17.4,15.6 17.4,14.9 17.4,14.9 					"/>
					<rect x="17" y="12" fill="#4D4D4D" width="0.3" height="0.3"/>
					<polygon fill="#4D4D4D" points="17.4,14.3 17.4,14.9 17.4,14.9 17,14.9 17,14.3 17,14.3 					"/>
					<polygon fill="#4D4D4D" points="17.4,15.6 17.4,15.9 16.7,15.9 16.7,15.6 16.7,15.6 17.4,15.6 					"/>
					<rect x="16.7" y="11.7" fill="#4D4D4D" width="0.3" height="0.3"/>
					<polygon fill="#4D4D4D" points="17,13.6 17,14.3 17,14.3 16.7,14.3 16.7,13.6 16.7,13.6 					"/>
					<polygon fill="#4D4D4D" points="16.7,14.9 16.7,15.6 16.7,15.6 16.4,15.6 16.4,14.9 					"/>
					<rect x="16.4" y="11.3" fill="#4D4D4D" width="0.3" height="0.3"/>
					<polygon fill="#4D4D4D" points="16.4,14.9 16.4,15 16,15 16,14.3 16,14.3 16.4,14.3 					"/>
					<rect x="16" y="11" fill="#4D4D4D" width="0.3" height="0.3"/>
					<polygon fill="#4D4D4D" points="16,13.6 16,14.3 16,14.3 15.7,14.3 15.7,13.6 15.7,13.6 					"/>
					<rect x="15.7" y="10.7" fill="#4D4D4D" width="0.3" height="0.3"/>
					<rect x="15.4" y="10.3" fill="#4D4D4D" width="0.3" height="0.3"/>
					<polygon fill="#4D4D4D" points="15.7,13.6 15.7,13.6 15.4,13.6 15.3,13.6 15.3,13 15.7,13 					"/>
					<rect x="15" y="10" fill="#4D4D4D" width="0.3" height="0.3"/>
					<polygon fill="#4D4D4D" points="15.4,13.6 15.4,14 15,14 15,13.6 15.3,13.6 					"/>
					<rect x="14.7" y="14" fill="#4D4D4D" width="0.3" height="0.3"/>
					<rect x="14.7" y="9.7" fill="#4D4D4D" width="0.3" height="0.3"/>
					<polygon fill="#4D4D4D" points="14.7,14.3 14.7,14.6 14.3,14.6 14.3,14.9 14,14.9 14,9 14.3,9 14.3,9.3 14.7,9.3 14.7,9.6 
						14.3,9.6 14.3,14.3 					"/>
				</g>
			</g>
		</g>
	</g>
</g>
<g id="working">
</g>
<g id="colour:_negative">
</g>
</svg>
