<?xml version="1.0" encoding="utf-8"?>
<!-- Generator: Adobe Illustrator 18.1.0, SVG Export Plug-In . SVG Version: 6.00 Build 0)  -->
<!DOCTYPE svg PUBLIC "-//W3C//DTD SVG 1.1//EN" "http://www.w3.org/Graphics/SVG/1.1/DTD/svg11.dtd">
<svg version="1.1" xmlns="http://www.w3.org/2000/svg" xmlns:xlink="http://www.w3.org/1999/xlink" x="0px" y="0px" width="32px"
	 height="32px" viewBox="0 0 32 32" enable-background="new 0 0 32 32" xml:space="preserve">
<g id="icons">
	<g>
		<path fill="#4D4D4D" d="M13.7,15.3c0-1.4,1-2.5,2.3-2.5c1.4,0,2.3,1.1,2.3,2.6v0.2h-3.8c0.1,0.9,0.7,1.6,1.7,1.6
			c0.6,0,1.1-0.2,1.5-0.6L18,17c-0.5,0.5-1.1,0.7-1.9,0.7C14.7,17.8,13.7,16.8,13.7,15.3z M16,13.4c-1,0-1.5,0.9-1.6,1.6h3.1
			C17.6,14.3,17.1,13.4,16,13.4z"/>
	</g>
	<path fill="#4D4D4D" d="M21.4,8H10.6C9.7,8,9,8.7,9,9.6v12.8c0,0.9,0.7,1.6,1.6,1.6h10.8c0.9,0,1.6-0.7,1.6-1.6V9.6
		C23,8.7,22.3,8,21.4,8z M16,23c-0.3,0-0.5-0.2-0.5-0.5c0-0.3,0.2-0.5,0.5-0.5s0.5,0.2,0.5,0.5C16.5,22.8,16.3,23,16,23z M21,21H11
		V10h10V21z"/>
</g>
<g id="working">
</g>
<g id="colour:_negative">
</g>
</svg>
