<?xml version="1.0" encoding="utf-8"?>
<!-- Generator: Adobe Illustrator 18.1.0, SVG Export Plug-In . SVG Version: 6.00 Build 0)  -->
<!DOCTYPE svg PUBLIC "-//W3C//DTD SVG 1.1//EN" "http://www.w3.org/Graphics/SVG/1.1/DTD/svg11.dtd">
<svg version="1.1" xmlns="http://www.w3.org/2000/svg" xmlns:xlink="http://www.w3.org/1999/xlink" x="0px" y="0px" width="32px"
	 height="32px" viewBox="0 0 32 32" enable-background="new 0 0 32 32" xml:space="preserve">
<g id="icons">
	<g>
		<path fill="#4D4D4D" d="M22.7,8H11.2l-0.3,0.3v0.3l-0.4,0.4h-0.3L9.8,9.4v0.3C9.8,9.7,9.7,9.8,9.6,9.9c-0.3,0.3-0.6,0.8-0.6,1.2
			c-0.1,0.5,0.1,0.9,0.3,1.2c-0.2,0.3-0.3,0.6-0.3,0.9C9,13.6,9.1,14,9.4,14.3c-0.2,0.3-0.3,0.6-0.3,0.9C9,15.6,9.1,16,9.4,16.3
			c-0.5,0.7-0.5,1.5,0,2c-0.2,0.3-0.3,0.6-0.3,0.9c-0.1,0.5,0.1,0.9,0.3,1.1c-0.2,0.3-0.3,0.6-0.3,0.9c-0.1,0.5,0.1,0.9,0.4,1.2
			c0.1,0.1,0.2,0.2,0.4,0.3l0.1,0v1l0.3,0.3h11.4l0.3-0.3v-0.3l0.4-0.4h0.3l0.3-0.3V8.3L22.7,8z M14,10h1v0.4h0.5v0.5h0.5v0.5h0.5
			v0.5h0.5v0.5h0.5v0.5h0.5v0.5h0.5v0.5h0.5v0.5h0.5v0.5h0.5V15h0.5v1h-1.9v0.4h0.4v0.9h0.5v0.9h0.5v1.4h-0.5V20h-1.4v-0.5h-0.5
			v-0.9h-0.5v-0.9h-0.5v-0.5h-0.4v0.5h-0.5v0.5H15v0.4h-1V10z M10.6,9.3L10.9,9v0.3c0,0,0,0-0.1,0C10.8,9.2,10.7,9.3,10.6,9.3
			L10.6,9.3z M9.2,11.1c0.1-0.4,0.3-0.8,0.6-1.1c0,0,0,0,0.1-0.1c0.2-0.2,0.4-0.3,0.5-0.4c0.2-0.1,0.3-0.1,0.5-0.2c0,0,0,0,0,0
			c0.1,0,0.1,0,0.2,0c0.3,0,0.6,0.1,0.8,0.3c0.1,0.1,0.1,0.2,0,0.2c0,0-0.1,0-0.1,0c0,0-0.1,0-0.1,0c-0.2-0.2-0.4-0.2-0.6-0.2
			c-0.1,0-0.1,0-0.2,0c-0.2,0-0.4,0.1-0.5,0.2c-0.1,0.1-0.3,0.2-0.4,0.3c-0.1,0.1-0.1,0.1-0.2,0.2c-0.4,0.5-0.4,1.1-0.1,1.5
			c0,0,0,0,0,0C9.6,12,9.5,12,9.5,12.1C9.2,11.8,9.1,11.5,9.2,11.1z M10.9,9.9v1.4c0,0,0,0-0.1,0c-0.2,0-0.3,0.1-0.5,0.1v-1.3
			C10.5,10,10.7,9.9,10.9,9.9z M9.8,10.7v1c0,0,0,0,0,0C9.6,11.5,9.6,11.1,9.8,10.7z M9.5,12.3C9.5,12.3,9.5,12.3,9.5,12.3
			c0.1-0.1,0.1-0.1,0.1-0.1c0.1-0.1,0.1-0.1,0.2-0.2c0,0,0,0,0,0c0,0,0,0,0,0v0c0,0,0,0,0,0c0,0,0,0,0.1-0.1
			c0.1-0.1,0.3-0.2,0.4-0.3c0.2-0.1,0.3-0.1,0.5-0.2c0,0,0,0,0,0c0.1,0,0.1,0,0.2,0c0.3,0,0.6,0.1,0.8,0.3c0.1,0.1,0.1,0.2,0,0.2
			c0,0-0.1,0-0.1,0c0,0-0.1,0-0.1,0c-0.1-0.1-0.4-0.2-0.6-0.2c-0.1,0-0.1,0-0.2,0h0c-0.2,0-0.4,0.1-0.5,0.2
			c-0.1,0.1-0.3,0.2-0.4,0.3c0,0,0,0,0,0c0,0-0.1,0.1-0.1,0.1c0,0-0.1,0.1-0.1,0.1v0c0,0,0,0-0.1,0.1c-0.3,0.5-0.4,1-0.1,1.4
			c0,0,0,0,0,0c-0.1,0.1-0.1,0.1-0.2,0.2C9.1,13.7,9.1,13,9.5,12.3z M10.9,11.9v1.4c-0.2,0-0.4,0.1-0.5,0.1v-1.3
			C10.5,12,10.7,11.9,10.9,11.9z M9.8,12.7v1c0,0,0,0,0,0C9.6,13.5,9.6,13.1,9.8,12.7z M9.5,14.4C9.5,14.4,9.5,14.3,9.5,14.4
			c0.1-0.1,0.1-0.1,0.1-0.1c0.1-0.1,0.1-0.1,0.2-0.2c0,0,0,0,0,0c0,0,0,0,0,0v0c0,0,0,0,0,0c0,0,0,0,0.1-0.1
			c0.1-0.1,0.3-0.2,0.4-0.3c0.2-0.1,0.4-0.1,0.5-0.2c0.1,0,0.1,0,0.2,0c0.3,0,0.6,0.1,0.8,0.3c0.1,0.1,0.1,0.2,0,0.2
			c0,0-0.1,0-0.1,0c0,0-0.1,0-0.1,0c-0.2-0.2-0.4-0.2-0.6-0.2c-0.1,0-0.1,0-0.2,0c-0.2,0-0.4,0.1-0.5,0.2c-0.1,0.1-0.3,0.2-0.4,0.3
			c0,0,0,0,0,0c0,0-0.1,0.1-0.1,0.1c0,0-0.1,0.1-0.1,0.1v0c0,0,0,0-0.1,0.1c-0.3,0.5-0.4,1-0.1,1.4c0,0,0,0,0,0
			c-0.1,0.1-0.1,0.1-0.2,0.2C9.1,15.7,9.1,15,9.5,14.4z M10.9,14v1.4c0,0,0,0-0.1,0c-0.2,0-0.3,0.1-0.5,0.1v-1.3
			C10.5,14.1,10.7,14,10.9,14z M9.8,14.8v1c0,0,0,0,0,0C9.6,15.6,9.6,15.2,9.8,14.8z M9.5,16.4C9.5,16.4,9.5,16.4,9.5,16.4
			c0.1-0.1,0.1-0.1,0.1-0.1c0.1-0.1,0.1-0.1,0.2-0.2c0,0,0,0,0,0c0,0,0,0,0,0v0c0,0,0,0,0,0c0,0,0,0,0.1-0.1
			c0.1-0.1,0.3-0.2,0.4-0.3c0.2-0.1,0.3-0.1,0.5-0.2c0,0,0,0,0,0c0.1,0,0.1,0,0.2,0c0.3,0,0.6,0.1,0.8,0.3c0.1,0.1,0.1,0.2,0,0.2
			c0,0-0.1,0-0.1,0c0,0-0.1,0-0.1,0c-0.2-0.2-0.4-0.2-0.6-0.2c-0.1,0-0.1,0-0.2,0c-0.2,0-0.4,0.1-0.5,0.2c-0.1,0.1-0.3,0.2-0.4,0.3
			l0,0c0,0-0.1,0.1-0.1,0.1c0,0-0.1,0.1-0.1,0.1v0c0,0,0,0-0.1,0.1c-0.3,0.5-0.4,1-0.1,1.4c0,0,0,0,0,0c-0.1,0.1-0.1,0.1-0.2,0.2
			C9.1,17.8,9.1,17,9.5,16.4z M10.9,16v1.4c0,0,0,0-0.1,0c-0.2,0-0.3,0.1-0.5,0.1v-1.3C10.5,16.1,10.7,16,10.9,16z M9.8,16.8v1
			c0,0,0,0,0,0C9.6,17.6,9.6,17.2,9.8,16.8z M9.5,18.4C9.5,18.4,9.5,18.4,9.5,18.4c0.1-0.1,0.1-0.1,0.1-0.1c0.1-0.1,0.1-0.1,0.2-0.2
			c0,0,0,0,0,0c0,0,0,0,0,0v0c0,0,0,0,0,0c0,0,0,0,0.1-0.1c0.1-0.1,0.3-0.2,0.4-0.3c0.2-0.1,0.3-0.1,0.5-0.2c0,0,0,0,0,0
			c0.1,0,0.1,0,0.2,0c0.3,0,0.6,0.1,0.8,0.3c0.1,0.1,0.1,0.2,0,0.2c0,0-0.1,0-0.1,0c0,0-0.1,0-0.1,0c-0.1-0.1-0.4-0.2-0.6-0.2
			c-0.1,0-0.1,0-0.2,0h0c-0.2,0-0.4,0.1-0.5,0.2c-0.1,0.1-0.3,0.2-0.4,0.3c0,0,0,0,0,0c0,0-0.1,0.1-0.1,0.1c0,0-0.1,0.1-0.1,0.1v0h0
			c0,0,0,0,0,0.1c-0.3,0.5-0.4,1-0.1,1.4c0,0,0,0,0,0c-0.1,0.1-0.1,0.1-0.2,0.2C9.1,19.8,9.1,19.1,9.5,18.4z M10.9,18v1.4
			c0,0,0,0-0.1,0c-0.2,0-0.3,0.1-0.5,0.1v-1.3C10.5,18.1,10.7,18.1,10.9,18z M9.8,18.8v1c0,0,0,0,0,0C9.6,19.6,9.6,19.2,9.8,18.8z
			 M9.8,21.9c-0.2-0.2-0.2-0.7,0-1.1V21.9z M10,20.4C10,20.4,10,20.4,10,20.4C10,20.4,9.9,20.4,10,20.4c-0.1,0.1-0.1,0.2-0.2,0.2v0
			c0,0,0,0-0.1,0.1c-0.3,0.5-0.4,1.1-0.1,1.4c0,0,0.1,0.1,0.1,0.1v0.4c-0.1-0.1-0.2-0.1-0.3-0.2c-0.3-0.3-0.4-0.6-0.3-1
			c0-0.3,0.1-0.5,0.3-0.8c0,0,0,0,0-0.1c0,0,0,0,0.1-0.1c0.1-0.1,0.1-0.1,0.2-0.2c0,0,0,0,0,0c0,0,0,0,0,0v0c0,0,0,0,0,0
			c0,0,0,0,0.1-0.1c0.1-0.1,0.3-0.2,0.4-0.3c0.2-0.1,0.3-0.1,0.5-0.2c0,0,0,0,0,0c0.1,0,0.1,0,0.2,0c0.3,0,0.6,0.1,0.8,0.3
			c0.1,0.1,0.1,0.2,0,0.2c0,0-0.1,0-0.1,0c0,0-0.1,0-0.1,0c-0.2-0.2-0.4-0.2-0.6-0.2c-0.1,0-0.1,0-0.2,0c-0.2,0-0.4,0.1-0.5,0.2
			C10.2,20.2,10.1,20.3,10,20.4z M10.4,23.2v-2.9c0.2-0.1,0.4-0.2,0.5-0.2v2.7L10.4,23.2L10.4,23.2z M21.5,23.5H10.6l0,0l0.5-0.5H22
			L21.5,23.5z"/>
		<g>
			<g id="XMLID_2_">
				<g>
					<polygon fill="#4D4D4D" points="19.9,15.2 19.9,15.7 18,15.7 18,16.6 17.9,16.6 17.5,16.6 17.5,15.2 18.9,15.2 18.9,14.8 
						19.3,14.8 19.3,15.2 					"/>
					<rect x="18.9" y="18.4" fill="#4D4D4D" width="0.5" height="0.9"/>
					<rect x="18.4" y="14.4" fill="#4D4D4D" width="0.5" height="0.5"/>
					<rect x="18.4" y="17.5" fill="#4D4D4D" width="0.5" height="0.9"/>
					<rect x="18" y="19.3" fill="#4D4D4D" width="0.9" height="0.5"/>
					<rect x="18" y="13.9" fill="#4D4D4D" width="0.5" height="0.5"/>
					<polygon fill="#4D4D4D" points="18.4,16.6 18.4,17.5 17.9,17.5 17.9,16.6 18,16.6 					"/>
					<rect x="17.5" y="18.4" fill="#4D4D4D" width="0.5" height="0.9"/>
					<rect x="17.5" y="13.5" fill="#4D4D4D" width="0.5" height="0.5"/>
					<polygon fill="#4D4D4D" points="17.5,17.5 17.5,18.4 17,18.4 17,17.5 17,17.5 					"/>
					<rect x="17" y="13" fill="#4D4D4D" width="0.5" height="0.5"/>
					<polygon fill="#4D4D4D" points="17,16.6 17,17.5 17,17.5 16.6,17.5 16.6,16.6 					"/>
					<rect x="16.6" y="12.5" fill="#4D4D4D" width="0.5" height="0.5"/>
					<rect x="16.1" y="12.1" fill="#4D4D4D" width="0.5" height="0.5"/>
					<polygon fill="#4D4D4D" points="16.6,15.7 16.6,16.6 16.1,16.6 16.1,16.6 16.1,15.7 					"/>
					<rect x="15.6" y="11.6" fill="#4D4D4D" width="0.5" height="0.5"/>
					<polygon fill="#4D4D4D" points="16.1,16.6 16.1,17 15.6,17 15.6,16.6 16.1,16.6 					"/>
					<rect x="15.2" y="17" fill="#4D4D4D" width="0.5" height="0.5"/>
					<rect x="15.2" y="11.2" fill="#4D4D4D" width="0.5" height="0.5"/>
					<polygon fill="#4D4D4D" points="15.2,17.5 15.2,18 14.7,18 14.7,18.3 14.3,18.3 14.3,10.3 14.7,10.3 14.7,10.7 15.2,10.7 
						15.2,11.2 14.7,11.2 14.7,17.5 					"/>
				</g>
			</g>
		</g>
	</g>
</g>
<g id="working">
</g>
<g id="colour:_negative">
</g>
</svg>
