<?xml version="1.0" encoding="utf-8"?>
<!-- Generator: Adobe Illustrator 19.0.0, SVG Export Plug-In . SVG Version: 6.00 Build 0)  -->
<svg version="1.1" xmlns="http://www.w3.org/2000/svg" xmlns:xlink="http://www.w3.org/1999/xlink" x="0px" y="0px" width="25px"
	 height="32px" viewBox="0 0 32 32" enable-background="new 0 0 32 32" xml:space="preserve">
<style type="text/css">
	.st0{fill:#549F45;}
</style>
<g>
	<path class="st0" d="M26,1.2H7.4c-3.1,0-5.7,2.5-5.7,5.7v18.7c0,3.1,2.5,5.7,5.7,5.7H26c3.1,0,5.7-2.5,5.7-5.7V6.9
		C31.7,3.8,29.2,1.2,26,1.2z M30.4,25.5c0,2.4-2,4.4-4.4,4.4H7.4c-2.4,0-4.4-2-4.4-4.4V6.9c0-2.4,2-4.4,4.4-4.4H26
		c2.4,0,4.4,2,4.4,4.4V25.5z"/>
	<path class="st0" d="M21.1,17.4c-0.3-0.9-0.7-1.7-0.8-2c-0.3-0.8-0.6-1.9-0.7-3.2c-0.1-1.3,0.6-2,0.6-2s-0.4,0.3-0.8,1.1
		c-0.2,0.4-0.4,1.2-0.3,1.9c0.1,0.7,0.4,1.4,0.5,1.9c0.2,0.8,0.6,2.1,0.7,3.2c0.1,1,0.2,2.6-0.1,3s-0.8,0.3-1-0.1
		c-0.2-0.3,0.2-1.9,0.3-2.8c0.1-0.9-0.2-2.2-0.6-3.1c-0.4-0.9-1-1.4-1.6-2.3c-0.4-0.5-0.6-1.1-0.8-1.3c-0.4-0.7-0.8-1.9-0.8-2.8
		s0.1-1.5,0.6-2.1c0.6-0.8,2.2-2.1,2.2-2.1s-1.8,0.6-3,1.9s-1.1,3.3-0.8,4.8c0.2,1,0.7,2.1,1.2,2.9c0.4,0.8,0.9,1.2,1.1,1.8
		c0.6,1.2,0.6,2.3,0.1,3.4c-0.2,0.5-0.6,1-1,1.4c-0.5,0.5-1,0.7-1.3,0.8s-0.6-0.2-0.6-0.4c0-0.1,0-0.5,0.1-0.6
		c0.3-0.6,0.9-1.4,0.9-3.2c0.1-1.8-0.8-3-1.2-3.5s-0.7-1.7-0.7-2.3s0.4-1.9,0.4-1.9s-0.6,1-0.7,2.1c-0.1,1.1,0.3,2,0.5,2.4
		s0.4,1.3,0.4,2.7c-0.1,1.4-1.1,2.8-1.3,3.2c-0.3,0.4-0.9,1.1-1,2.2c0,0.4,0.1,0.9,0.4,1.3c0.4,0.6,0.9,1,1.4,1.2
		c0.7,0.3,1.4,0.2,2.8,0c1.4-0.2,2.1,0.3,2.4,0.9c0.3,0.6,0.1,1-0.4,1.4c-0.5,0.3-1.7-0.3-1.9-0.4c-0.2-0.1-1.9-1-1.9-1s0.5,0.6,1,1
		c0.4,0.3,1.6,1.4,2.7,1.5c0.7,0.1,1.7-0.3,2.3-0.9c0.4-0.4,0.6-0.9,0.9-1.4c0.4-0.8,0.6-1.8,0.6-2.8c0-0.9,0-1.8-0.1-2.4
		C21.8,19.6,21.5,18.5,21.1,17.4z"/>
</g>
</svg>
