<?xml version="1.0" encoding="utf-8"?>
<!-- Generator: Adobe Illustrator 18.1.0, SVG Export Plug-In . SVG Version: 6.00 Build 0)  -->
<!DOCTYPE svg PUBLIC "-//W3C//DTD SVG 1.1//EN" "http://www.w3.org/Graphics/SVG/1.1/DTD/svg11.dtd">
<svg version="1.1" xmlns="http://www.w3.org/2000/svg" xmlns:xlink="http://www.w3.org/1999/xlink" x="0px" y="0px" width="32px"
	 height="32px" viewBox="0 0 32 32" enable-background="new 0 0 32 32" xml:space="preserve">
<g id="icons">
	<g>
		<path fill="#4D4D4D" d="M12.6,15.6C12.6,15.6,12.7,15.6,12.6,15.6c0.1,0,0.1,0,0.2,0c0.1,0,0.2,0,0.3,0c0.1,0,0.2-0.1,0.3-0.1
			c0.1,0,0.1-0.1,0.2-0.2c0-0.1,0.1-0.2,0.1-0.3c0-0.1,0-0.2-0.1-0.3c0-0.1-0.1-0.1-0.2-0.2c-0.1,0-0.1-0.1-0.2-0.1
			c-0.1,0-0.2,0-0.3,0c-0.1,0-0.1,0-0.2,0c-0.1,0-0.1,0-0.2,0v1.2C12.5,15.6,12.5,15.6,12.6,15.6C12.6,15.6,12.6,15.6,12.6,15.6z"/>
		<path fill="#4D4D4D" d="M15.5,16.9C15.5,16.9,15.5,16.9,15.5,16.9c0.1,0,0.1,0,0.2,0c0,0,0.1,0,0.1,0c0,0,0.1,0,0.1,0
			c0.2,0,0.4,0,0.5-0.1c0.1-0.1,0.2-0.2,0.3-0.3c0.1-0.1,0.1-0.3,0.2-0.4c0-0.2,0-0.3,0-0.5c0-0.1,0-0.3,0-0.4
			c0-0.1-0.1-0.3-0.2-0.4c-0.1-0.1-0.2-0.2-0.3-0.3c-0.1-0.1-0.3-0.1-0.5-0.1c-0.1,0-0.2,0-0.2,0c-0.1,0-0.1,0-0.2,0V16.9z"/>
		<path fill="#4D4D4D" d="M26.3,9.4h-0.5l-1.2-1.1l-0.1-0.1c-1-0.2-1.8-0.2-2.6-0.2c-1.9,0-3.5,0.4-5.1,1.4h-1.6
			C13.6,8.4,12,8,10.1,8C9.3,8,8.4,8.1,7.5,8.2L7.4,8.3L6.2,9.4H5.7L5,10.1v13.1L5.7,24h20.5l0.7-0.7V10.1L26.3,9.4z M21.9,8.4
			c0.7,0,1.5,0.1,2.4,0.2v3.5l-3.9-3.6C20.9,8.4,21.4,8.4,21.9,8.4z M20.1,11.2V8.6l3.8,3.6c-0.5,0-1-0.1-1.4-0.1
			c-0.9,0-1.8,0.1-2.4,0.2V11.2z M20.3,15.4V16h-1.4v1.5h-0.7v-3.7h2.2v0.7h-1.5v0.9H20.3z M16.2,10.3c0.1,0,0.1-0.1,0.2-0.1
			c0.2-0.1,0.4-0.3,0.5-0.4c0.2-0.1,0.4-0.3,0.6-0.4C18.3,9,19,8.7,19.8,8.6v2.7c-1.3,0.3-2.5,0.8-3.6,1.6V10.3z M16.7,13.9
			c0.2,0.1,0.4,0.2,0.6,0.4c0.1,0.2,0.3,0.4,0.3,0.6c0.1,0.2,0.1,0.5,0.1,0.8c0,0.3,0,0.5-0.1,0.7c-0.1,0.2-0.2,0.4-0.3,0.6
			c-0.1,0.2-0.3,0.3-0.6,0.4c-0.2,0.1-0.5,0.2-0.9,0.2c-0.1,0-0.1,0-0.2,0c-0.1,0-0.2,0-0.3,0c-0.1,0-0.2,0-0.3,0
			c-0.1,0-0.2,0-0.2,0v-3.7c0.1,0,0.2,0,0.3,0c0.1,0,0.2,0,0.3,0c0.1,0,0.2,0,0.3,0c0.1,0,0.2,0,0.3,0
			C16.2,13.7,16.5,13.8,16.7,13.9z M7.7,8.6c0.9-0.1,1.7-0.2,2.4-0.2c1.6,0,3,0.3,4.4,1c0.2,0.1,0.4,0.2,0.6,0.4
			c0.2,0.1,0.4,0.2,0.5,0.4c0.1,0,0.1,0.1,0.2,0.1v2.6c-2.3-1.7-5.4-2.1-8.1-1.6V8.6z M14.3,15c0,0.2,0,0.4-0.1,0.6
			c-0.1,0.2-0.2,0.3-0.3,0.4c-0.1,0.1-0.3,0.2-0.5,0.2c-0.2,0-0.3,0.1-0.5,0.1c0,0,0,0-0.1,0c0,0-0.1,0-0.1,0c0,0-0.1,0-0.1,0
			c0,0-0.1,0-0.1,0v1.3h-0.7v-3.7c0.1,0,0.3-0.1,0.5-0.1c0.2,0,0.4,0,0.5,0c0.2,0,0.4,0,0.6,0c0.2,0,0.4,0.1,0.5,0.2
			c0.2,0.1,0.3,0.2,0.4,0.4C14.3,14.5,14.3,14.7,14.3,15z M5.9,10.2l1.4-1.4v12.6l-1.4,1.4V10.2z M6.2,23.1l1.4-1.4h0
			c0.9-0.1,1.8-0.2,2.6-0.2c2,0,3.6,0.5,5.3,1.6H6.2z M15.8,22.9c-1.8-1.2-3.5-1.8-5.7-1.8c-0.6,0-1.2,0-1.9,0.1
			c-0.1,0-0.3,0-0.4,0.1c-0.1,0-0.1,0-0.2,0v-0.1V19c2.8-0.5,5.8-0.2,8.1,1.6V22.9z M16.2,20.5c2.3-1.7,5.4-2.1,8.1-1.6v2.3v0.1
			c-0.1,0-0.1,0-0.2,0c-0.1,0-0.3,0-0.4-0.1c-0.7-0.1-1.3-0.1-1.9-0.1c-2.2,0-3.9,0.6-5.7,1.8V20.5z M16.6,23.1
			c1.6-1.1,3.3-1.6,5.3-1.6c0.8,0,1.6,0.1,2.6,0.2l1.4,1.4H16.6z M26.1,22.8l-1.4-1.4V8.8l1.4,1.4V22.8z"/>
	</g>
</g>
<g id="working">
</g>
<g id="colour:_negative">
</g>
</svg>
