<?xml version="1.0" encoding="utf-8"?>
<!-- Generator: Adobe Illustrator 18.1.0, SVG Export Plug-In . SVG Version: 6.00 Build 0)  -->
<!DOCTYPE svg PUBLIC "-//W3C//DTD SVG 1.1//EN" "http://www.w3.org/Graphics/SVG/1.1/DTD/svg11.dtd">
<svg version="1.1" xmlns="http://www.w3.org/2000/svg" xmlns:xlink="http://www.w3.org/1999/xlink" x="0px" y="0px" width="32px"
	 height="32px" viewBox="0 0 32 32" enable-background="new 0 0 32 32" xml:space="preserve">
<g id="icons">
	<g>
		<polygon fill="#FA6060" points="19,16 18,15 15,18 14,17 13,18 15,20 		"/>
		<path fill="#FA6060" d="M20,10V8.5C20,8.2,19.8,8,19.5,8S19,8.2,19,8.5v3c0,0.3-0.2,0.5-0.5,0.5S18,11.8,18,11.5V10h-4V8.5
			C14,8.2,13.8,8,13.5,8S13,8.2,13,8.5v3c0,0.3-0.2,0.5-0.5,0.5S12,11.8,12,11.5V10h-2v12c0,0.5,0.5,1,1,1h10c0.5,0,1-0.5,1-1V10H20
			z M21,22H11v-9h10V22z"/>
	</g>
</g>
<g id="working">
</g>
<g id="colour:_negative">
</g>
</svg>
