<?xml version="1.0" encoding="utf-8"?>
<!-- Generator: Adobe Illustrator 18.1.0, SVG Export Plug-In . SVG Version: 6.00 Build 0)  -->
<!DOCTYPE svg PUBLIC "-//W3C//DTD SVG 1.1//EN" "http://www.w3.org/Graphics/SVG/1.1/DTD/svg11.dtd">
<svg version="1.1" xmlns="http://www.w3.org/2000/svg" xmlns:xlink="http://www.w3.org/1999/xlink" x="0px" y="0px" width="32px"
	 height="32px" viewBox="0 0 32 32" enable-background="new 0 0 32 32" xml:space="preserve">
<g id="icons">
	<path fill="#FFFFFF" d="M29.6,18.3c0.2-1.1,0.4-2.2,0.4-3.3c0-8.3-6.7-15-15-15c-0.6,0-1.1,0-1.7,0.1c-0.1,0-0.1,0-0.2,0
		C5.7,1.1,0,7.4,0,15c0,8.3,6.7,15,15,15c1.1,0,2.2-0.1,3.3-0.4c1.5,1.5,3.5,2.4,5.7,2.4c4.4,0,8-3.6,8-8
		C32,21.8,31.1,19.8,29.6,18.3z M23.9,28.6c-0.7,0-1.1-0.4-1.1-1c0-0.7,0.4-1.1,1.1-1.1c0.7,0,1.1,0.4,1.1,1
		C25,28.2,24.6,28.6,23.9,28.6z M22.9,22.5v-2.9H25v2.9l-0.2,3.2h-1.7L22.9,22.5z M27.8,17c-1.1-0.6-2.4-1-3.8-1c-4.4,0-8,3.6-8,8
		c0,1.4,0.4,2.7,1,3.8c-0.6,0.1-1.3,0.2-2,0.2C7.8,28,2,22.2,2,15c0-3.1,1.1-6,2.9-8.2L15,15V2c7.2,0,13,5.8,13,13
		C28,15.7,27.9,16.3,27.8,17z"/>
</g>
<g id="working">
</g>
<g id="colour:_negative">
</g>
</svg>
