<?xml version="1.0" encoding="utf-8"?>
<!-- Generator: Adobe Illustrator 23.0.6, SVG Export Plug-In . SVG Version: 6.00 Build 0)  -->
<svg version="1.1" id="Layer_1" xmlns="http://www.w3.org/2000/svg" xmlns:xlink="http://www.w3.org/1999/xlink" x="0px" y="0px"
	 viewBox="0 0 165 48" style="enable-background:new 0 0 165 48;" xml:space="preserve">
<style type="text/css">
	.st0{clip-path:url(#SVGID_2_);}
	.st1{clip-path:url(#SVGID_4_);enable-background:new    ;}
	.st2{clip-path:url(#SVGID_6_);enable-background:new    ;}
	.st3{clip-path:url(#SVGID_8_);}
	.st4{fill:#FFFFFF;}
	.st5{filter:url(#Adobe_OpacityMaskFilter);}
	.st6{clip-path:url(#SVGID_4_);}
	.st7{enable-background:new    ;}
	.st8{clip-path:url(#SVGID_4_);fill-rule:evenodd;clip-rule:evenodd;fill:#FFFFFF;}
	.st9{clip-path:url(#SVGID_4_);mask:url(#SVGID_9_);}
	.st10{clip-path:url(#SVGID_11_);fill-rule:evenodd;clip-rule:evenodd;fill:#FFFFFF;}
	.st11{clip-path:url(#SVGID_4_);fill-rule:evenodd;clip-rule:evenodd;fill:#252C5C;}
	.st12{clip-path:url(#SVGID_13_);enable-background:new    ;}
	.st13{clip-path:url(#SVGID_15_);}
	.st14{fill:#242C5C;}
</style>
<g>
	<defs>
		<rect id="SVGID_1_" x="0.96" y="0.2" width="163.14" height="47.82"/>
	</defs>
	<clipPath id="SVGID_2_">
		<use xlink:href="#SVGID_1_"  style="overflow:visible;"/>
	</clipPath>
	<g class="st0">
		<defs>
			<rect id="SVGID_3_" x="0.96" y="0.2" width="163.14" height="47.82"/>
		</defs>
		<clipPath id="SVGID_4_">
			<use xlink:href="#SVGID_3_"  style="overflow:visible;"/>
		</clipPath>
		<g class="st1">
			<g>
				<defs>
					<rect id="SVGID_5_" x="0.96" y="8.87" width="109.13" height="23.82"/>
				</defs>
				<clipPath id="SVGID_6_">
					<use xlink:href="#SVGID_5_"  style="overflow:visible;"/>
				</clipPath>
				<g class="st2">
					<g>
						<defs>
							<rect id="SVGID_7_" x="0.96" y="8.87" width="109.13" height="23.82"/>
						</defs>
						<clipPath id="SVGID_8_">
							<use xlink:href="#SVGID_7_"  style="overflow:visible;"/>
						</clipPath>
						<g class="st3">
							<path class="st4" d="M9.23,27.09c-1.43,0-2.67-0.31-3.71-0.93c-1.04-0.62-1.84-1.5-2.41-2.66c-0.56-1.15-0.84-2.52-0.84-4.11
								c0-1.59,0.28-2.95,0.84-4.09s1.36-2.02,2.41-2.64c1.04-0.62,2.28-0.93,3.71-0.93c1.03,0,1.98,0.16,2.85,0.47
								c0.87,0.32,1.62,0.79,2.26,1.42l-0.65,1.33c-0.72-0.62-1.43-1.06-2.13-1.33c-0.7-0.27-1.47-0.4-2.3-0.4
								c-1.65,0-2.92,0.53-3.83,1.6c-0.91,1.07-1.36,2.59-1.36,4.56c0,1.98,0.45,3.51,1.35,4.59c0.9,1.08,2.18,1.61,3.84,1.61
								c0.83,0,1.6-0.13,2.3-0.4c0.7-0.27,1.41-0.71,2.13-1.33l0.65,1.33c-0.63,0.63-1.39,1.11-2.26,1.42
								C11.21,26.93,10.26,27.09,9.23,27.09z"/>
							<path class="st4" d="M21.09,27.07c-0.94,0-1.77-0.22-2.48-0.66c-0.71-0.44-1.26-1.08-1.65-1.9c-0.39-0.82-0.58-1.79-0.58-2.9
								c0-1.11,0.2-2.08,0.59-2.91c0.39-0.83,0.95-1.48,1.66-1.94c0.71-0.46,1.53-0.7,2.46-0.7c0.97,0,1.79,0.24,2.47,0.72
								c0.68,0.48,1.13,1.16,1.37,2.05l-0.25,0.17v-2.68h1.69v10.61h-1.69v-2.74l0.25,0.13c-0.24,0.89-0.7,1.57-1.37,2.05
								C22.88,26.83,22.06,27.07,21.09,27.07z M21.42,25.66c1.04,0,1.84-0.35,2.4-1.07c0.56-0.71,0.84-1.72,0.84-3.03
								s-0.28-2.31-0.85-3.02c-0.57-0.7-1.37-1.05-2.39-1.05c-1.04,0-1.85,0.36-2.44,1.09c-0.58,0.72-0.87,1.73-0.87,3.03
								c0,1.29,0.29,2.29,0.87,3C19.57,25.31,20.38,25.66,21.42,25.66z"/>
							<path class="st4" d="M29.84,26.92v-7.64c0-0.49-0.01-0.99-0.03-1.49c-0.02-0.5-0.07-1-0.14-1.49h1.62l0.19,2.19l-0.21,0.15
								c0.25-0.83,0.69-1.47,1.32-1.92c0.63-0.45,1.37-0.68,2.23-0.68c1.03,0,1.82,0.25,2.39,0.76c0.57,0.51,0.93,1.28,1.09,2.32
								l-0.51-0.27c0.22-0.86,0.68-1.54,1.36-2.05c0.68-0.51,1.5-0.76,2.46-0.76c1.17,0,2.05,0.35,2.64,1.04s0.89,1.75,0.89,3.15
								v6.67h-1.71v-6.58c0-0.98-0.18-1.71-0.53-2.16c-0.35-0.46-0.91-0.69-1.67-0.69c-0.89,0-1.59,0.3-2.1,0.91
								c-0.51,0.6-0.77,1.43-0.77,2.47v6.05h-1.71v-6.58c0-0.98-0.18-1.71-0.54-2.16c-0.36-0.46-0.92-0.69-1.68-0.69
								c-0.9,0-1.61,0.3-2.12,0.91c-0.51,0.6-0.77,1.43-0.77,2.47v6.05H29.84z"/>
							<path class="st4" d="M48.53,26.92V11.4h1.71v7.64l-0.23-0.21c0.24-0.87,0.7-1.55,1.37-2.04c0.68-0.49,1.49-0.73,2.45-0.73
								c0.94,0,1.76,0.23,2.47,0.68c0.7,0.45,1.26,1.08,1.66,1.9c0.4,0.82,0.6,1.78,0.6,2.89s-0.2,2.08-0.6,2.92
								c-0.4,0.84-0.96,1.48-1.67,1.94c-0.71,0.46-1.53,0.69-2.46,0.69c-0.96,0-1.77-0.24-2.45-0.72c-0.68-0.48-1.13-1.16-1.37-2.05
								l0.23-0.23v2.85H48.53z M53.51,25.66c1.03,0,1.83-0.36,2.4-1.09c0.58-0.72,0.87-1.74,0.87-3.05c0-1.28-0.29-2.27-0.87-2.97
								c-0.58-0.7-1.38-1.05-2.4-1.05c-1.05,0-1.86,0.36-2.43,1.07c-0.56,0.71-0.84,1.71-0.84,3.01c0,1.31,0.28,2.32,0.84,3.03
								C51.65,25.3,52.45,25.66,53.51,25.66z"/>
							<path class="st4" d="M61.36,26.92v-7.64c0-0.49-0.01-0.99-0.03-1.49c-0.02-0.5-0.07-1-0.14-1.49h1.62l0.23,2.62l-0.23-0.06
								c0.2-0.93,0.62-1.63,1.28-2.1c0.65-0.47,1.39-0.71,2.21-0.71c0.18,0,0.36,0.01,0.52,0.03c0.16,0.02,0.31,0.05,0.45,0.1
								l-0.04,1.56c-0.32-0.11-0.7-0.17-1.12-0.17c-0.73,0-1.32,0.16-1.76,0.49c-0.44,0.32-0.77,0.73-0.97,1.23
								s-0.31,1.02-0.31,1.57v6.05H61.36z"/>
							<path class="st4" d="M68.97,11.82h2.09v1.94h-2.09V11.82z M69.14,26.92V16.31h1.71v10.61H69.14z"/>
							<path class="st4" d="M83.68,26.92h-1.69v-2.85l0.25,0.23c-0.24,0.89-0.7,1.57-1.37,2.05c-0.68,0.48-1.5,0.72-2.47,0.72
								c-0.93,0-1.75-0.23-2.46-0.69c-0.71-0.46-1.26-1.1-1.66-1.94c-0.39-0.84-0.59-1.81-0.59-2.92s0.19-2.07,0.58-2.89
								c0.39-0.82,0.94-1.45,1.65-1.9c0.71-0.45,1.54-0.68,2.48-0.68c0.97,0,1.79,0.24,2.47,0.73c0.68,0.49,1.13,1.16,1.37,2.04
								l-0.27,0.21V11.4h1.71V26.92z M78.74,25.66c1.03,0,1.82-0.35,2.39-1.07c0.57-0.71,0.85-1.72,0.85-3.03
								c0-1.29-0.28-2.3-0.84-3.01c-0.56-0.71-1.36-1.07-2.4-1.07c-1.04,0-1.85,0.35-2.44,1.05c-0.58,0.7-0.87,1.69-0.87,2.97
								c0,1.31,0.29,2.32,0.87,3.05C76.89,25.3,77.7,25.66,78.74,25.66z"/>
							<path class="st4" d="M91.82,31.63c-1.6,0-3-0.37-4.18-1.1l0.3-1.39c0.66,0.38,1.29,0.65,1.88,0.82
								c0.59,0.17,1.26,0.25,2.01,0.25c1.01,0,1.78-0.27,2.31-0.81c0.53-0.54,0.79-1.35,0.79-2.42v-2.87l0.23-0.27
								c-0.17,0.56-0.43,1.05-0.79,1.47c-0.36,0.41-0.8,0.73-1.32,0.96c-0.52,0.23-1.11,0.34-1.77,0.34c-0.94,0-1.77-0.22-2.48-0.66
								c-0.71-0.44-1.26-1.06-1.67-1.85c-0.4-0.79-0.6-1.71-0.6-2.76c0-1.05,0.2-1.98,0.6-2.76c0.4-0.79,0.96-1.4,1.67-1.85
								c0.71-0.44,1.54-0.66,2.48-0.66c0.98,0,1.82,0.24,2.5,0.73c0.68,0.49,1.14,1.16,1.38,2.04l-0.25-0.23v-2.28h1.71v10.53
								c0,1.59-0.4,2.78-1.21,3.59C94.59,31.23,93.39,31.63,91.82,31.63z M91.61,25.17c1.03,0,1.83-0.34,2.42-1.02
								c0.58-0.68,0.87-1.62,0.87-2.82c0-1.19-0.29-2.13-0.87-2.82c-0.58-0.68-1.39-1.02-2.42-1.02c-1.04,0-1.86,0.34-2.46,1.02
								c-0.6,0.68-0.9,1.62-0.9,2.82c0,1.21,0.3,2.15,0.9,2.83C89.75,24.83,90.57,25.17,91.61,25.17z"/>
							<path class="st4" d="M108.76,25.66c-0.46,0.44-1.06,0.78-1.78,1.03c-0.72,0.25-1.47,0.38-2.22,0.38
								c-1.1,0-2.04-0.22-2.84-0.66c-0.8-0.44-1.41-1.07-1.83-1.89c-0.43-0.82-0.64-1.8-0.64-2.94c0-1.1,0.21-2.06,0.63-2.89
								c0.42-0.83,1.01-1.48,1.76-1.94c0.75-0.46,1.62-0.7,2.61-0.7c0.94,0,1.75,0.21,2.43,0.62c0.68,0.42,1.19,1.01,1.55,1.78
								c0.36,0.77,0.54,1.7,0.54,2.78v0.32h-8.02v-1.12h7.05l-0.55,0.78c0.03-1.24-0.22-2.19-0.73-2.85
								c-0.51-0.66-1.26-0.99-2.25-0.99c-1.03,0-1.83,0.36-2.42,1.09c-0.58,0.72-0.87,1.73-0.87,3.01c0,1.38,0.31,2.42,0.92,3.12
								s1.51,1.05,2.69,1.05c0.62,0,1.21-0.1,1.78-0.31c0.57-0.2,1.12-0.52,1.64-0.94L108.76,25.66z"/>
						</g>
					</g>
				</g>
			</g>
		</g>
		<defs>
			<filter id="Adobe_OpacityMaskFilter" filterUnits="userSpaceOnUse" x="123.32" y="0.31" width="40.64" height="47.03">
				<feColorMatrix  type="matrix" values="1 0 0 0 0  0 1 0 0 0  0 0 1 0 0  0 0 0 1 0"/>
			</filter>
		</defs>
		<mask maskUnits="userSpaceOnUse" x="123.32" y="0.31" width="40.64" height="47.03" id="SVGID_9_">
			<g class="st5">
				<rect x="123.32" y="0.31" class="st6" width="40.64" height="47.03"/>
				<g class="st7">
					<rect x="123.32" y="0.31" class="st8" width="40.64" height="47.03"/>
				</g>
			</g>
		</mask>
		<g class="st9">
			<g>
				<defs>
					<rect id="SVGID_10_" x="123.32" y="0.31" width="40.64" height="47.03"/>
				</defs>
				<clipPath id="SVGID_11_">
					<use xlink:href="#SVGID_10_"  style="overflow:visible;"/>
				</clipPath>
				<path class="st10" d="M132.74,0.51h21.81l1-0.01h2.21c1.06,0,2.81-0.05,5.27-0.15l0.92-0.04c-0.14,1.92-0.16,2.5-0.17,3.53
					l-0.01,2.94l-0.01,2.79v0.78v14.81c0,9.96-2.21,13.15-12.75,18.38c-0.47,0.23-1.57,0.79-3.33,1.69
					c-1.43,0.72-2.42,1.24-2.98,1.54l-0.52,0.28l-0.54,0.28l-0.54-0.28l-0.54-0.28c-2.22-1.17-4.57-2.37-6.31-3.23
					c-10.51-5.18-12.74-8.39-12.74-18.38V10.35V9.57l-0.03-2.79l-0.01-2.94c-0.01-1.78-0.03-2.19-0.17-3.53l0.92,0.04
					c2.42,0.1,4.23,0.15,5.29,0.15h2.2L132.74,0.51z M143.64,46.16l4.09-1.99h0.15l-0.08-0.14V25.13l-0.08-0.17l0.17,0.08h14.86
					l0.17,0.08l-0.08-0.17v-8.13l0.08-0.17l-0.17,0.06h-14.86l-0.17,0.08l0.08-0.17V1.51l0.08-0.17l-0.17,0.08h-8.14l-0.17-0.08
					l0.08,0.17v15.11l0.06,0.17l-0.15-0.08h-14.87l-0.16-0.06l0.06,0.17v8.13l-0.06,0.17l0.16-0.08h14.87l0.15-0.08l-0.06,0.17
					v18.89l-0.08,0.14h0.14L143.64,46.16z M124.94,2.21c0.1,0.17,0.15,0.32,0.15,0.44c0,0.08-0.05,0.36-0.12,0.63
					c-0.07,0.29-0.08,0.35-0.08,0.51c0,0.18,0.15,0.39,0.34,0.47c0.04,0.01,0.06,0.03,0.06,0.04l0.01,0.05l0.03,0.12l0.01,0.26
					l0.02,0.36v0.08c0,0.06-0.02,0.08-0.05,0.08l-0.02,0l-0.03-0.03l-0.03-0.03l-0.03-0.05l-0.09-0.17l-0.08-0.15
					c-0.12-0.25-0.39-0.41-0.68-0.41h-0.12h-0.06c-0.04,0-0.06,0.01-0.06,0.04l0.01,0.03l0.02,0.03l0.03,0.03l0.04,0.03
					c0.06,0.04,0.15,0.23,0.28,0.63c0.22,0.63,0.42,0.91,0.84,1.12c0.06,0.03,0.08,0.05,0.08,0.08c0,0.05-0.05,0.1-0.12,0.1
					c-0.03,0-0.07-0.01-0.13-0.03c-0.09-0.03-0.15-0.04-0.19-0.04c-0.07,0-0.13,0.06-0.13,0.15c0,0.29,0.19,0.73,0.41,0.95
					l0.21,0.21c0.08,0.08,0.14,0.13,0.15,0.13l0.1,0.08c0.06,0.05,0.08,0.07,0.08,0.12c0,0.04-0.02,0.07-0.05,0.07l-0.06,0.01
					l-0.05-0.04l-0.04-0.01l-0.06-0.03l-0.06-0.03L125.46,8c-0.04,0-0.08,0.06-0.08,0.12c0,0.03,0.01,0.08,0.03,0.14l0.06,0.23
					c0.07,0.26,0.28,0.59,0.47,0.76c0.16,0.14,0.41,0.27,0.52,0.27l0.14,0.04l0.1,0.03c0.04,0.01,0.06,0.02,0.06,0.03
					c0,0.11-0.04,0.15-0.14,0.15h-0.11h-0.1l-0.09-0.01l-0.04,0c-0.11,0-0.19,0.04-0.19,0.1l0.01,0.06
					c0.02,0.05,0.04,0.09,0.04,0.09l0.09,0.19c0.09,0.19,0.15,0.3,0.2,0.36l0.13,0.14c0.05,0.06,0.06,0.07,0.1,0.07
					c0.05,0,0.1-0.05,0.13-0.14c0.03-0.07,0.06-0.12,0.09-0.12l0.17-0.21c0.09-0.11,0.35-0.25,0.56-0.31l0.29-0.08
					c0.2-0.05,0.26-0.1,0.26-0.22c0-0.08-0.01-0.2-0.03-0.26l-0.05-0.22l-0.03-0.28l-0.03-0.33V8.42L128,8.33l-0.01-0.04l-0.05-0.01
					l-0.01,0l-0.04,0.01l-0.05,0.05l-0.06,0.06c-0.02,0.02-0.05,0.06-0.09,0.12c-0.16,0.23-0.28,0.31-0.47,0.31
					c-0.79,0-1.32-1.03-1.32-2.56c0-0.42,0.04-1.16,0.08-1.68c0.02-0.25,0.03-0.46,0.03-0.63C126,3.22,125.62,2.59,124.94,2.21
					 M126.81,5.24l0-0.05c0-0.16-0.06-0.3-0.2-0.45c-0.06-0.08-0.12-0.1-0.19-0.1c-0.11,0-0.15,0.08-0.17,0.3
					c-0.01,0.1-0.02,0.23-0.04,0.4c-0.03,0.24-0.04,0.39-0.04,0.46c0,0.13,0.04,0.22,0.1,0.22c0.05,0,0.15-0.07,0.24-0.17
					C126.71,5.63,126.8,5.46,126.81,5.24 M124.96,12.9c0.13,0.05,0.18,0.07,0.23,0.1c0.07,0.04,0.12,0.09,0.26,0.23
					c0.23,0.24,0.32,0.3,0.45,0.3c0.27,0,0.5-0.09,0.75-0.3l0.15-0.13l0.13-0.1l-0.07,0c-0.14,0-0.27-0.04-0.56-0.17
					c-0.32-0.14-0.41-0.17-0.66-0.17C125.4,12.67,125.15,12.75,124.96,12.9 M124.96,15.33c0.16-0.04,0.23-0.06,0.34-0.1
					c0.13-0.05,0.22-0.08,0.26-0.09l0.22-0.05c0.12-0.03,0.16-0.07,0.28-0.32c0.06-0.13,0.12-0.2,0.25-0.28
					c0.12-0.07,0.18-0.12,0.21-0.14l0.2-0.19l0.12-0.1l0.05-0.06l0.06-0.01l0.01,0.05l-0.01,0.09c0,0.02-0.02,0.05-0.04,0.09
					c-0.09,0.16-0.15,0.33-0.15,0.44c0,0.24,0.19,0.54,0.44,0.69c0-0.24,0.07-0.41,0.28-0.69l0.24-0.32
					c0.14-0.19,0.18-0.31,0.18-0.54c0-0.1-0.01-0.21-0.03-0.31l-0.01-0.21l0.03-0.1c0.02-0.07,0.04-0.1,0.07-0.1l0.05,0.02
					c0.03,0.02,0.04,0.04,0.05,0.04l0.04,0.15l0.05,0.13c0.05,0.12,0.06,0.14,0.11,0.14l0.06-0.02c0.01,0,0.04-0.03,0.09-0.08
					l0.19-0.17l0.17-0.24c0.11-0.16,0.16-0.3,0.16-0.43l-0.01-0.08l-0.04-0.25l-0.01-0.17c0-0.14,0.04-0.21,0.1-0.21
					c0.05,0,0.08,0.05,0.13,0.23c0.09,0.31,0.15,0.41,0.27,0.41c0.04,0,0.06-0.02,0.14-0.12c0.3-0.38,0.38-0.57,0.38-0.86l0-0.16
					v-0.05c0-0.14,0.02-0.18,0.08-0.18c0.05,0,0.11,0.06,0.11,0.12c0.01,0.07,0.03,0.12,0.04,0.12l0.03,0.05l0.03,0.05l0.05,0.01
					c0.03,0,0.05-0.01,0.07-0.03l0.05-0.05l0.06-0.06l0.09-0.13l0.08-0.1c0.04-0.05,0.06-0.1,0.06-0.14c0-0.05-0.02-0.09-0.06-0.13
					l-0.04-0.04l-0.05-0.08l-0.08-0.09c-0.03-0.04-0.05-0.09-0.05-0.15c0-0.1,0.07-0.31,0.14-0.46l0.18-0.35
					c0.1-0.2,0.17-0.32,0.19-0.36l0.1-0.17c0.04-0.07,0.07-0.09,0.1-0.09c0.05,0,0.08,0.04,0.08,0.08l-0.02,0.07l-0.05,0.09
					l-0.04,0.13c-0.02,0.05-0.03,0.09-0.03,0.13c0,0.08,0.02,0.13,0.06,0.13l0.14-0.02l0.18-0.08l0.36-0.12l0.35-0.1
					c0.14-0.04,0.39-0.08,0.52-0.08l0.13,0.01l0.17,0.04l0.13,0.01l0.1-0.03l0.15-0.04c0.11-0.03,0.15-0.05,0.25-0.13
					c-0.04-0.14-0.06-0.2-0.13-0.31l-0.1-0.18c-0.05-0.09-0.09-0.14-0.12-0.17c-0.04-0.03-0.06-0.06-0.06-0.06l-0.01-0.08l0.06,0.01
					h0.04c0.12,0,0.42,0.37,0.63,0.8c0.77,1.56,1.4,2.27,2.26,2.58l0.54,0.19c0.36,0.13,0.58,0.44,0.58,0.83
					c0,0.24-0.11,0.51-0.31,0.77l-0.37,0.48c-0.32,0.41-0.52,0.95-0.6,1.59l-0.03,0.21c0.15-0.16,0.21-0.19,0.5-0.26
					c0.44-0.1,0.6-0.26,0.6-0.62l0-0.03l-0.01-0.27v-0.02c0-0.12,0.04-0.21,0.1-0.21c0.04,0,0.07,0.04,0.09,0.09l0.13,0.39
					c0.06,0.19,0.28,0.42,0.6,0.62c-0.04-0.18-0.05-0.27-0.05-0.32c0-0.05,0.01-0.09,0.05-0.25c0.04-0.14,0.06-0.28,0.06-0.44
					c0-0.21-0.03-0.31-0.16-0.54l-0.15-0.27l-0.08-0.15c-0.02-0.04-0.03-0.06-0.03-0.08c0-0.05,0.03-0.08,0.07-0.08l0.05,0.02
					c0.04,0.03,0.06,0.05,0.06,0.05l0.04,0.04l0.08,0.08c0.04,0.04,0.08,0.06,0.1,0.06c0.09,0,0.17-0.17,0.17-0.37l-0.01-0.18
					l-0.03-0.3c-0.01-0.15-0.11-0.32-0.24-0.4l-0.14-0.09c-0.09-0.05-0.16-0.14-0.16-0.2c0-0.07,0.03-0.1,0.1-0.1l0.1,0.04
					l0.19,0.06c0.05,0.02,0.08,0.03,0.09,0.03c0.07,0,0.12-0.08,0.12-0.2c0-0.39-0.15-0.75-0.32-0.75l-0.04,0l-0.12,0.01l-0.09,0.01
					c-0.74,0-1.2-0.47-1.37-1.41c-0.12-0.64-0.37-1.06-0.76-1.25l-0.32-0.15c-0.11-0.05-0.18-0.08-0.22-0.09l-0.12-0.03
					c-0.05-0.01-0.08-0.04-0.08-0.08c0-0.05,0.07-0.08,0.18-0.08c0.32,0,0.53,0.03,0.81,0.13l0.5,0.17
					c0.52,0.17,0.85,0.24,1.13,0.24c0.56,0,1.02-0.5,1.02-1.12c0-0.56-0.4-1.23-0.95-1.6l-0.15-0.1l-0.05-0.01l-0.05,0.05l0.01,0.08
					l0.01,0.14l0.08,0.18c0.02,0.05,0.04,0.09,0.05,0.1c0.03,0.04,0.05,0.07,0.05,0.08c0,0.02-0.02,0.05-0.06,0.05l-0.06-0.03
					l-0.05-0.04l-0.13-0.17l-0.13-0.27c-0.12-0.25-0.42-0.59-0.61-0.68l-0.32-0.15l-0.2-0.1c-0.05-0.02-0.09-0.04-0.13-0.04
					c-0.05,0-0.08,0.03-0.08,0.09c0,0.04,0.01,0.08,0.03,0.13c0.04,0.1,0.08,0.18,0.1,0.24c0.03,0.1,0.08,0.17,0.12,0.17l0.12,0.1
					c0.04,0.03,0.06,0.1,0.03,0.1l-0.12,0.01l-0.1-0.06c-0.09-0.05-0.15-0.13-0.33-0.39c-0.3-0.42-0.63-0.69-1.18-0.95
					c-0.1-0.05-0.16-0.08-0.18-0.09c-0.07-0.05-0.1-0.06-0.12-0.06c-0.05,0-0.08,0.04-0.08,0.11c0,0.07,0.02,0.14,0.07,0.2
					c0.01,0.01,0.04,0.04,0.09,0.1l0.1,0.12l0.06,0.06l0.02,0.05c0,0.03-0.03,0.05-0.06,0.05l-0.02,0l-0.08-0.05l-0.09-0.08
					c-0.42-0.37-0.64-0.79-0.64-1.25c0-0.28,0.13-0.55,0.36-0.78c0.21-0.2,0.45-0.31,0.7-0.31c0.34,0,0.65,0.13,1.13,0.45
					c0.73,0.5,1.15,0.68,1.55,0.68c0.44,0,0.73-0.14,0.97-0.46l-0.08,0.04l-0.13,0.04l-0.13,0.04l-0.12,0.02
					c-0.34,0-0.83-0.18-1.43-0.53c-0.13-0.08-0.27-0.15-0.41-0.23c-0.44-0.24-0.47-0.26-0.47-0.32c0-0.03,0.03-0.05,0.07-0.05
					c0.03,0,0.08,0.01,0.14,0.04l0.54,0.24l0.56,0.27c0.36,0.15,0.87,0.29,1.1,0.29c0.39,0,0.59-0.17,0.59-0.5
					c0-0.23-0.09-0.45-0.28-0.68c-0.06-0.07-0.16-0.13-0.22-0.13c-0.06,0-0.1,0.04-0.1,0.11c0,0.05,0.02,0.09,0.04,0.09l0.04,0.05
					l0.04,0.14l0.03,0.1l0,0.02c0,0.16-0.12,0.26-0.3,0.26c-0.19,0-0.61-0.14-1.14-0.39c-0.89-0.41-1.06-0.46-1.54-0.46
					c-1.18,0-2.14,0.86-2.14,1.92c0,1.33,0.96,2.09,4.01,3.17c0.73,0.26,1.02,0.5,1.02,0.85c0,0.27-0.21,0.49-0.46,0.49
					c-0.23,0-0.36-0.03-1.18-0.27c-0.84-0.25-1.43-0.33-2.41-0.33c-1.27,0-1.96,0.16-2.56,0.6L131,8.31
					c-0.24,0.17-0.28,0.19-0.43,0.19h-0.01l-0.14,0c-0.23,0-0.48,0.23-0.65,0.61c-0.09,0.2-0.12,0.23-0.21,0.23
					c-0.11,0-0.15-0.04-0.21-0.18c-0.06-0.14-0.12-0.25-0.22-0.41c-0.07-0.12-0.12-0.19-0.15-0.22l-0.14-0.14l-0.1-0.1l-0.08-0.05
					c-0.02-0.02-0.04-0.05-0.04-0.08c0-0.05,0.05-0.17,0.14-0.3c0.05-0.07,0.07-0.12,0.09-0.15l0.03-0.09
					c0.03-0.13,0.06-0.18,0.13-0.18l0.02,0.01l0.01,0.05l0.03,0.1l0.01,0.15c0,0.01,0.02,0.09,0.05,0.26
					c0.02,0.1,0.04,0.17,0.05,0.19l0.08,0.15c0.12,0.24,0.15,0.28,0.22,0.28c0.09,0,0.23-0.13,0.32-0.28
					c0.09-0.17,0.16-0.41,0.18-0.58l0.01-0.14c0.01-0.08,0.04-0.1,0.1-0.1l0.01,0.03l0.04,0.05l0.02,0.05l0.04,0.12
					c0.02,0.06,0.06,0.13,0.18,0.27c0.03,0.04,0.06,0.07,0.09,0.08l0.08,0.03l0.06,0.01c0.02,0,0.03-0.01,0.06-0.04l0.05-0.05
					c0,0,0.02-0.05,0.06-0.14c0.03-0.06,0.04-0.12,0.04-0.17V7.73l-0.01-0.18l-0.01-0.18l-0.01-0.17l0.03-0.05
					c0.02-0.02,0.04-0.03,0.05-0.03c0.03,0,0.1,0.06,0.16,0.15c0.18,0.24,0.2,0.26,0.35,0.26c0.13,0,0.24-0.07,0.24-0.16
					c0-0.04-0.01-0.07-0.06-0.15c-0.03-0.04-0.06-0.09-0.09-0.15c-0.07-0.13-0.11-0.2-0.12-0.22c-0.1-0.25-0.16-0.31-0.31-0.31
					l-0.09,0.01l-0.13,0.04l-0.1,0.05l-0.08,0.01h-0.02l-0.06-0.02l0.01-0.07l0.05-0.08c0.01-0.01,0.04-0.05,0.09-0.12
					c0.27-0.35,0.34-0.63,0.44-1.77c0.06-0.71,0.12-0.98,0.23-0.98c0.03,0,0.06,0.02,0.07,0.05l0.03,0.16v0.13l-0.01,0.18
					l-0.03,0.17l-0.03,0.12l0,0.04c0,0.07,0.03,0.1,0.09,0.1c0.09,0,0.18-0.09,0.34-0.35c0.11-0.18,0.19-0.44,0.19-0.64
					c0-0.17-0.02-0.21-0.19-0.45c-0.04-0.06-0.09-0.1-0.14-0.12l-0.19-0.06h-0.1c-0.06,0-0.1-0.02-0.1-0.07
					c0-0.03,0.02-0.08,0.04-0.14l0.01-0.19l-0.04-0.19l-0.05-0.08l-0.05-0.14L131.18,2l-0.17,0.1l-0.2,0.1l-0.17,0.14l-0.13,0.14
					c-0.06,0.07-0.1,0.11-0.1,0.12c-0.05,0.07-0.06,0.08-0.08,0.08c-0.03,0-0.04-0.02-0.04-0.06c0-0.02,0-0.04,0.03-0.13
					c0.03-0.11,0.05-0.21,0.05-0.3c0-0.09-0.04-0.22-0.1-0.33c-0.05-0.09-0.09-0.16-0.13-0.19l-0.18-0.17l-0.08-0.08
					c-0.04,0.03-0.07,0.06-0.09,0.08c-0.02,0.02-0.05,0.05-0.1,0.12c-0.03,0.04-0.09,0.1-0.15,0.17c-0.15,0.16-0.23,0.33-0.23,0.5
					v0.15c0,0.05-0.03,0.09-0.06,0.09c-0.05,0-0.11-0.06-0.15-0.16c-0.02-0.06-0.08-0.13-0.16-0.21l-0.13-0.12l-0.14-0.1l-0.08-0.08
					c-0.02,0.05-0.04,0.08-0.05,0.1c-0.13,0.26-0.21,0.48-0.21,0.59l0,0.03l0.03,0.13v0.13l-0.04,0.12l-0.04,0.01l-0.01,0.01
					l-0.12-0.03c-0.09-0.05-0.17-0.08-0.21-0.08c-0.3,0-0.46,0.16-0.46,0.46c0,0.24,0.14,0.59,0.34,0.88
					c0.1,0.14,0.15,0.19,0.2,0.19l0.04-0.01c0.04-0.01,0.06-0.03,0.06-0.04l0-0.02l0-0.08l-0.01-0.13l-0.03-0.18l-0.01-0.22
					c0-0.15,0.01-0.17,0.07-0.17c0.11,0,0.2,0.3,0.27,0.84c0.13,1,0.29,1.51,0.65,2.06c0.02,0.03,0.03,0.05,0.03,0.07
					c0,0.03-0.01,0.04-0.04,0.04l-0.09-0.02l-0.13-0.05l-0.1-0.05l-0.08-0.02c-0.29,0-0.42,0.42-0.42,1.33
					c0,0.47,0.09,1.08,0.21,1.39l0.35,0.93c0.03,0.09,0.05,0.22,0.05,0.37c0,0.48-0.19,0.96-0.63,1.57
					c-0.44,0.62-1.24,1.34-1.78,1.62l-0.55,0.28C125.13,14.29,125.06,14.39,124.96,15.33 M130.58,13.48
					c0.1,0.05,0.13,0.08,0.18,0.15c0.04,0.05,0.05,0.08,0.06,0.09l0.06,0.08l0.13,0.17c0.1,0.13,0.16,0.16,0.36,0.16l0.06,0
					l0.22-0.03l0.15-0.01l0.09-0.03c0.08-0.02,0.1-0.03,0.1-0.06c0-0.07-0.18-0.27-0.38-0.42c-0.1-0.08-0.17-0.13-0.21-0.14
					c-0.07-0.04-0.25-0.07-0.38-0.07c-0.08,0-0.14,0.02-0.29,0.06C130.72,13.44,130.66,13.45,130.58,13.48 M130.27,15.45
					c0.1-0.05,0.25-0.09,0.32-0.09l0.15,0.01l0.18,0.01l0.19,0.01l0.18,0.02c0.1,0,0.15-0.04,0.36-0.26
					c0.17-0.17,0.24-0.23,0.55-0.36c0.26-0.11,0.38-0.17,0.43-0.22c0.03-0.02,0.05-0.03,0.06-0.03c0.02,0,0.03,0.01,0.03,0.03
					c0,0.03-0.02,0.06-0.06,0.09c-0.28,0.21-0.46,0.54-0.46,0.82c0,0.2,0.03,0.31,0.14,0.46c0.06-0.21,0.15-0.33,0.41-0.54
					l0.31-0.26c0.26-0.22,0.33-0.39,0.33-0.8l0-0.05l0-0.08c0-0.09,0.03-0.14,0.09-0.14l0.03,0.01l0.05,0.09l0.03,0.08l0.05,0.08
					l0.05,0.05l0.02,0.01c0.07,0,0.16-0.06,0.25-0.17c0.24-0.29,0.27-0.35,0.27-0.58c0-0.11-0.02-0.21-0.06-0.31l-0.08-0.17
					c-0.02-0.04-0.03-0.08-0.03-0.12c0-0.06,0.03-0.1,0.08-0.1l0.04,0.01l0.06,0.05l0.05,0.08c0.07,0.1,0.14,0.15,0.21,0.15
					c0.08,0,0.12-0.04,0.19-0.17l0.09-0.17c0.02-0.04,0.04-0.09,0.05-0.14l0.01-0.08c0-0.05-0.07-0.1-0.17-0.11
					c-0.32-0.06-0.54-0.36-0.54-0.75l0.01-0.28c0-0.1,0.03-0.18,0.05-0.18l0.06-0.15l0.04-0.17c0.02-0.07,0.03-0.11,0.03-0.12
					c0-0.03-0.01-0.06-0.04-0.1c-0.03-0.05-0.05-0.08-0.05-0.09l-0.08-0.22l-0.09-0.18l-0.09-0.21c-0.06-0.14-0.16-0.24-0.23-0.24
					c-0.01,0-0.11,0.05-0.3,0.14l-0.28,0.14c-0.27,0.14-0.44,0.46-0.44,0.83c0,0.28,0.07,0.53,0.27,0.94
					c0.15,0.3,0.24,0.49,0.28,0.58c0.1,0.2,0.14,0.39,0.14,0.55c0,0.63-0.6,1.12-1.54,1.25C130.8,14.46,130.53,14.65,130.27,15.45
					 M135.26,14.48l0.08-0.01l0.1-0.03h0.09h0.17h0.18l0.11,0.01c0.06,0,0.1-0.04,0.21-0.22l0.09-0.14c0.08-0.12,0.11-0.17,0.21-0.3
					c-0.14-0.07-0.25-0.09-0.37-0.09C135.74,13.71,135.36,14.05,135.26,14.48 M149.25,2.21c0.1,0.17,0.15,0.32,0.15,0.44
					c0,0.08-0.05,0.36-0.12,0.63c-0.07,0.29-0.08,0.35-0.08,0.51c0,0.18,0.14,0.37,0.33,0.47c0.09,0.04,0.1,0.06,0.1,0.21l0.01,0.26
					l0.02,0.36v0.08c0,0.06-0.01,0.08-0.05,0.08l-0.02,0l-0.03-0.03l-0.03-0.03l-0.02-0.05l-0.09-0.17l-0.08-0.15
					c-0.13-0.25-0.39-0.41-0.68-0.41h-0.12h-0.06c-0.04,0-0.06,0.01-0.06,0.04l0.01,0.03l0.03,0.03l0.02,0.03l0.04,0.03
					c0.06,0.04,0.14,0.23,0.28,0.63c0.22,0.63,0.43,0.91,0.84,1.12c0.06,0.03,0.08,0.05,0.08,0.08c0,0.05-0.05,0.1-0.12,0.1
					c-0.03,0-0.08-0.01-0.13-0.03c-0.09-0.03-0.15-0.04-0.19-0.04c-0.07,0-0.13,0.06-0.13,0.15c0,0.29,0.19,0.73,0.41,0.95l0.2,0.21
					c0.08,0.08,0.14,0.13,0.15,0.13l0.1,0.08c0.06,0.05,0.08,0.07,0.08,0.12c0,0.04-0.02,0.07-0.05,0.07l-0.05,0.01l-0.06-0.04
					l-0.04-0.01l-0.06-0.03l-0.06-0.03L149.76,8c-0.04,0-0.08,0.06-0.08,0.12c0,0.03,0.01,0.08,0.03,0.14l0.06,0.23
					c0.07,0.26,0.28,0.59,0.47,0.76c0.16,0.14,0.42,0.27,0.52,0.27l0.14,0.04l0.1,0.03c0.04,0.01,0.06,0.02,0.06,0.03
					c0,0.11-0.04,0.15-0.14,0.15h-0.12h-0.1l-0.09-0.01l-0.04,0c-0.11,0-0.19,0.04-0.19,0.1l0.01,0.06
					c0.03,0.05,0.04,0.09,0.04,0.09l0.09,0.19c0.09,0.19,0.15,0.3,0.2,0.36l0.13,0.14c0.05,0.06,0.07,0.07,0.1,0.07
					c0.05,0,0.1-0.05,0.13-0.14c0.03-0.07,0.06-0.12,0.09-0.12l0.18-0.21c0.11-0.13,0.33-0.25,0.55-0.31l0.29-0.08
					c0.2-0.05,0.26-0.1,0.26-0.22c0-0.08-0.01-0.2-0.03-0.26l-0.05-0.22l-0.03-0.28l-0.03-0.33V8.42l-0.04-0.09l-0.01-0.04
					l-0.05-0.01l-0.01,0l-0.04,0.01l-0.05,0.05l-0.06,0.06c-0.02,0.02-0.05,0.06-0.09,0.12c-0.17,0.23-0.28,0.31-0.46,0.31
					c-0.8,0-1.33-1.02-1.33-2.56c0-0.42,0.03-1.16,0.08-1.69c0.02-0.25,0.03-0.46,0.03-0.63C150.3,3.22,149.92,2.59,149.25,2.21
					 M151.12,5.24l0-0.05c0-0.16-0.06-0.3-0.19-0.45c-0.06-0.08-0.12-0.1-0.19-0.1c-0.11,0-0.15,0.08-0.17,0.3
					c-0.01,0.1-0.02,0.23-0.04,0.4c-0.03,0.24-0.04,0.39-0.04,0.46c0,0.13,0.04,0.22,0.1,0.22c0.05,0,0.15-0.07,0.24-0.17
					C151.02,5.63,151.1,5.46,151.12,5.24 M149.26,12.9c0.13,0.05,0.18,0.07,0.23,0.1c0.07,0.04,0.12,0.09,0.25,0.23
					c0.23,0.24,0.32,0.3,0.45,0.3c0.27,0,0.5-0.09,0.75-0.3l0.15-0.13l0.13-0.1l-0.07,0c-0.14,0-0.27-0.04-0.56-0.17
					c-0.32-0.14-0.41-0.17-0.66-0.17C149.71,12.67,149.46,12.75,149.26,12.9 M149.26,15.33c0.16-0.04,0.23-0.06,0.35-0.1
					c0.13-0.05,0.22-0.08,0.25-0.09l0.22-0.05c0.12-0.03,0.16-0.07,0.28-0.32c0.06-0.13,0.12-0.2,0.25-0.28
					c0.12-0.07,0.19-0.12,0.21-0.14l0.2-0.19l0.12-0.1l0.05-0.06l0.05-0.02c0.02,0,0.04,0.02,0.04,0.05c0,0.04-0.02,0.1-0.06,0.19
					c-0.13,0.28-0.14,0.32-0.14,0.45c0,0.22,0.21,0.55,0.44,0.68c0.03-0.29,0.09-0.43,0.28-0.69l0.24-0.32
					c0.14-0.19,0.18-0.31,0.18-0.54c0-0.1-0.01-0.21-0.03-0.31l-0.01-0.21l0.03-0.1c0.02-0.07,0.04-0.1,0.07-0.1l0.05,0.02
					c0.03,0.02,0.04,0.04,0.04,0.04l0.04,0.15l0.05,0.13c0.05,0.12,0.06,0.14,0.11,0.14l0.06-0.02c0.01,0,0.04-0.03,0.09-0.08
					l0.19-0.17l0.17-0.24c0.11-0.16,0.16-0.3,0.16-0.43l-0.01-0.08l-0.04-0.25l-0.01-0.17c0-0.14,0.04-0.21,0.11-0.21
					c0.05,0,0.08,0.05,0.13,0.23c0.09,0.31,0.15,0.41,0.27,0.41c0.04,0,0.06-0.02,0.14-0.12c0.3-0.38,0.39-0.57,0.39-0.86l0-0.15
					l0-0.05c0-0.14,0.02-0.18,0.09-0.18c0.03,0,0.05,0.01,0.06,0.03l0.01,0.03l0.04,0.06l0.03,0.12l0.03,0.05l0.02,0.05l0.05,0.01
					c0.02,0,0.05-0.01,0.06-0.03l0.05-0.05l0.06-0.06l0.09-0.13l0.08-0.1c0.04-0.05,0.06-0.1,0.06-0.14c0-0.05-0.02-0.09-0.06-0.13
					l-0.04-0.04l-0.05-0.08l-0.08-0.09c-0.03-0.04-0.05-0.09-0.05-0.15c0-0.1,0.07-0.31,0.14-0.46l0.18-0.35
					c0.1-0.2,0.17-0.32,0.19-0.36l0.1-0.17c0.04-0.07,0.07-0.09,0.1-0.09c0.05,0,0.08,0.04,0.08,0.08l-0.02,0.07l-0.05,0.09
					l-0.04,0.13c-0.02,0.05-0.03,0.09-0.03,0.13c0,0.08,0.02,0.13,0.06,0.13l0.14-0.02l0.18-0.08l0.36-0.12l0.35-0.1
					c0.14-0.04,0.39-0.08,0.52-0.08l0.13,0.01l0.17,0.04l0.13,0.01l0.1-0.03l0.15-0.04c0.11-0.03,0.16-0.05,0.26-0.13
					c-0.03-0.07-0.04-0.12-0.05-0.15c-0.02-0.07-0.04-0.12-0.06-0.15l-0.12-0.18l-0.1-0.17l-0.08-0.06l-0.01-0.08l0.06,0.01h0.04
					c0.12,0,0.42,0.37,0.63,0.8c0.77,1.56,1.4,2.27,2.27,2.58l0.54,0.19c0.36,0.13,0.58,0.44,0.58,0.83c0,0.24-0.11,0.51-0.31,0.77
					l-0.37,0.48c-0.32,0.41-0.52,0.95-0.6,1.59l-0.03,0.21c0.15-0.16,0.21-0.19,0.5-0.26c0.44-0.1,0.6-0.26,0.6-0.62v-0.03
					l-0.01-0.27l0-0.02c0-0.12,0.05-0.21,0.1-0.21c0.04,0,0.07,0.04,0.09,0.09l0.13,0.39c0.06,0.19,0.28,0.42,0.6,0.62
					c-0.04-0.18-0.05-0.26-0.05-0.32c0-0.05,0.01-0.12,0.05-0.25c0.05-0.15,0.07-0.29,0.07-0.41c0-0.18-0.06-0.36-0.17-0.57
					l-0.15-0.27l-0.08-0.15c-0.02-0.04-0.03-0.06-0.03-0.08c0-0.05,0.03-0.08,0.07-0.08l0.05,0.02c0.04,0.03,0.06,0.05,0.06,0.05
					l0.04,0.04l0.08,0.08c0.04,0.04,0.07,0.06,0.1,0.06c0.1,0,0.17-0.2,0.17-0.45c0-0.41-0.09-0.68-0.29-0.8l-0.14-0.09
					c-0.09-0.05-0.15-0.14-0.15-0.2c0-0.08,0.03-0.1,0.12-0.1l0.1,0.04l0.18,0.06c0.05,0.02,0.08,0.03,0.1,0.03
					c0.08,0,0.11-0.07,0.11-0.23l-0.01-0.08l-0.05-0.24c-0.07-0.35-0.11-0.4-0.25-0.4l-0.03,0l-0.12,0.01l-0.1,0.01
					c-0.74,0-1.2-0.47-1.37-1.41c-0.12-0.64-0.37-1.06-0.76-1.25l-0.32-0.15c-0.11-0.05-0.18-0.08-0.22-0.09l-0.12-0.03
					c-0.05-0.01-0.07-0.04-0.07-0.08c0-0.05,0.07-0.08,0.18-0.08c0.32,0,0.53,0.03,0.81,0.13l0.5,0.17
					c0.52,0.17,0.85,0.24,1.13,0.24c0.58,0,1.02-0.49,1.02-1.12c0-0.55-0.4-1.22-0.95-1.59l-0.15-0.1l-0.05-0.01l-0.05,0.05
					l0.01,0.08l0.01,0.14l0.08,0.18c0.02,0.05,0.04,0.09,0.05,0.1c0.03,0.04,0.05,0.07,0.05,0.08c0,0.02-0.03,0.05-0.06,0.05
					l-0.06-0.03l-0.05-0.04l-0.13-0.17l-0.13-0.27c-0.12-0.25-0.42-0.59-0.62-0.68l-0.32-0.15l-0.21-0.1
					c-0.05-0.02-0.09-0.04-0.13-0.04c-0.05,0-0.08,0.03-0.08,0.09c0,0.04,0.01,0.08,0.03,0.13c0.04,0.1,0.08,0.18,0.09,0.24
					c0.03,0.1,0.08,0.17,0.12,0.17l0.11,0.1c0.04,0.03,0.06,0.1,0.03,0.1l-0.12,0.01l-0.1-0.06c-0.09-0.05-0.14-0.12-0.33-0.39
					c-0.2-0.29-0.38-0.48-0.52-0.58c-0.01-0.01-0.13-0.08-0.36-0.21l-0.29-0.17l-0.18-0.09l-0.09-0.05l-0.03-0.01
					c-0.05,0-0.08,0.04-0.08,0.11c0,0.07,0.02,0.14,0.06,0.19c0.01,0.01,0.04,0.04,0.09,0.1l0.1,0.12l0.06,0.06l0.02,0.05
					c0,0.03-0.03,0.05-0.06,0.05l-0.02,0l-0.08-0.05l-0.09-0.08c-0.42-0.37-0.64-0.79-0.64-1.25c0-0.28,0.13-0.55,0.36-0.78
					c0.21-0.2,0.45-0.31,0.7-0.31c0.34,0,0.65,0.13,1.13,0.45c0.73,0.5,1.15,0.68,1.55,0.68c0.44,0,0.73-0.14,0.97-0.46l-0.08,0.04
					l-0.13,0.04l-0.13,0.04l-0.12,0.02c-0.34,0-0.83-0.18-1.43-0.53c-0.13-0.08-0.27-0.15-0.41-0.23c-0.44-0.24-0.47-0.26-0.47-0.32
					c0-0.03,0.03-0.05,0.07-0.05c0.03,0,0.08,0.01,0.14,0.04l0.54,0.24l0.56,0.27c0.36,0.16,0.88,0.29,1.11,0.29
					c0.38,0,0.58-0.17,0.58-0.5c0-0.23-0.1-0.45-0.28-0.68c-0.06-0.07-0.16-0.13-0.23-0.13c-0.06,0-0.09,0.04-0.09,0.11
					c0,0.05,0.02,0.09,0.04,0.09l0.04,0.05l0.04,0.14l0.03,0.1l0.01,0.07c0,0.12-0.14,0.22-0.3,0.22c-0.19,0-0.61-0.14-1.14-0.39
					c-0.89-0.41-1.06-0.46-1.54-0.46c-1.17,0-2.14,0.87-2.14,1.92c0,1.33,0.96,2.09,4.01,3.17c0.74,0.26,1.03,0.5,1.03,0.87
					c0,0.26-0.2,0.47-0.47,0.47c-0.23,0-0.35-0.03-1.17-0.27c-0.84-0.24-1.42-0.33-2.37-0.33c-1.46,0-1.98,0.14-2.82,0.77
					c-0.23,0.17-0.29,0.19-0.43,0.19h-0.01l-0.13,0c-0.24,0-0.48,0.23-0.65,0.61c-0.09,0.2-0.12,0.23-0.21,0.23
					c-0.11,0-0.15-0.04-0.21-0.18c-0.06-0.14-0.12-0.25-0.22-0.41c-0.07-0.12-0.12-0.19-0.15-0.22l-0.14-0.14l-0.1-0.1l-0.08-0.05
					c-0.02-0.02-0.04-0.05-0.04-0.08c0-0.02,0.01-0.07,0.03-0.1c0.02-0.04,0.03-0.07,0.04-0.08l0.09-0.13l0.08-0.15l0.04-0.09
					l0.02-0.12c0.01-0.04,0.05-0.06,0.1-0.06l0.02,0.01l0.01,0.05l0.02,0.1l0.01,0.15c0,0.01,0.02,0.09,0.05,0.26
					c0.02,0.1,0.04,0.17,0.05,0.19l0.08,0.15c0.12,0.24,0.15,0.28,0.22,0.28c0.09,0,0.22-0.12,0.32-0.28
					c0.07-0.13,0.12-0.25,0.14-0.37l0.04-0.21l0.03-0.14c0-0.08,0.02-0.11,0.06-0.11l0.01,0l0.05,0.03l0.02,0.05l0.03,0.05
					c0.01,0.02,0.03,0.06,0.05,0.12c0.07,0.17,0.19,0.32,0.25,0.35l0.08,0.03l0.06,0.01c0.02,0,0.03-0.01,0.06-0.04l0.05-0.05
					c0,0,0.02-0.05,0.06-0.14c0.03-0.06,0.04-0.12,0.04-0.17l0-0.02l-0.01-0.18l-0.01-0.18l-0.01-0.17l0.03-0.05
					c0.02-0.02,0.04-0.03,0.05-0.03c0.03,0,0.09,0.06,0.16,0.15c0.18,0.24,0.2,0.26,0.35,0.26c0.13,0,0.24-0.07,0.24-0.16
					c0-0.04-0.01-0.07-0.06-0.15c-0.03-0.04-0.06-0.09-0.09-0.15c-0.07-0.13-0.11-0.2-0.12-0.22c-0.1-0.25-0.16-0.31-0.31-0.31
					l-0.09,0.01l-0.13,0.04l-0.1,0.05l-0.08,0.01h-0.02l-0.06-0.02l0.01-0.07l0.05-0.08c0-0.01,0.03-0.05,0.09-0.12
					c0.28-0.35,0.34-0.6,0.44-1.77c0.06-0.68,0.12-0.99,0.22-0.99l0.03,0.01c0.02,0.01,0.04,0.06,0.07,0.14l0.02,0.12l-0.01,0.08
					l-0.03,0.18l-0.03,0.17l-0.02,0.12l0,0.04c0,0.07,0.03,0.1,0.09,0.1c0.09,0,0.18-0.09,0.34-0.35c0.11-0.18,0.19-0.44,0.19-0.64
					c0-0.17-0.02-0.21-0.19-0.45c-0.04-0.06-0.09-0.1-0.14-0.12l-0.19-0.06h-0.1c-0.06,0-0.1-0.02-0.1-0.07
					c0-0.03,0.02-0.08,0.04-0.14l0.01-0.19l-0.04-0.19l-0.05-0.08l-0.05-0.14L155.48,2l-0.17,0.1l-0.2,0.1
					c-0.03,0.01-0.09,0.06-0.17,0.14c-0.05,0.05-0.09,0.1-0.13,0.14l-0.09,0.12c-0.03,0.04-0.08,0.08-0.1,0.08s-0.04-0.03-0.04-0.06
					c0-0.02,0-0.04,0.03-0.13c0.03-0.11,0.05-0.21,0.05-0.3c0-0.09-0.04-0.22-0.1-0.33c-0.05-0.09-0.09-0.16-0.13-0.19l-0.18-0.17
					l-0.08-0.08c-0.04,0.03-0.07,0.06-0.09,0.08c-0.01,0.02-0.05,0.05-0.1,0.12c-0.03,0.04-0.09,0.1-0.15,0.17
					c-0.15,0.16-0.23,0.33-0.23,0.5v0.15c0,0.05-0.03,0.09-0.06,0.09c-0.05,0-0.11-0.06-0.15-0.16c-0.02-0.06-0.08-0.13-0.16-0.21
					l-0.13-0.12l-0.14-0.1l-0.08-0.08c-0.02,0.05-0.04,0.08-0.05,0.1c-0.13,0.26-0.21,0.48-0.21,0.59l0,0.03l0.03,0.13v0.13
					l-0.04,0.12l-0.04,0.01l-0.01,0.01l-0.12-0.03c-0.09-0.05-0.17-0.08-0.21-0.08c-0.3,0-0.46,0.16-0.46,0.46
					c0,0.24,0.14,0.59,0.35,0.88c0.09,0.14,0.15,0.19,0.2,0.19l0.03-0.01c0.04-0.01,0.06-0.03,0.06-0.04l0-0.02l0-0.08l-0.01-0.13
					l-0.03-0.18l-0.01-0.22c0-0.15,0.01-0.17,0.07-0.17c0.03,0,0.06,0.03,0.09,0.08c0.06,0.12,0.1,0.22,0.1,0.28
					c0.02,0.27,0.06,0.48,0.09,0.48l0.08,0.63l0.17,0.64l0.23,0.46l0.12,0.24l0.05,0.08c0.02,0.03,0.03,0.05,0.03,0.07
					c0,0.02-0.02,0.04-0.06,0.04c-0.02,0-0.04-0.01-0.1-0.03l-0.09-0.04l-0.11-0.05l-0.09-0.02c-0.28,0-0.42,0.43-0.42,1.31l0,0.08
					l0.04,0.54c0.03,0.44,0.11,0.78,0.17,0.78l0.34,0.93c0.04,0.12,0.07,0.24,0.07,0.37c0,0.44-0.23,0.99-0.64,1.57
					c-0.47,0.66-1.22,1.33-1.78,1.62l-0.55,0.28C149.44,14.29,149.37,14.39,149.26,15.33 M154.89,13.48
					c0.1,0.05,0.12,0.08,0.18,0.15c0.04,0.05,0.06,0.08,0.06,0.09l0.06,0.08l0.13,0.17c0.1,0.13,0.17,0.16,0.36,0.16l0.06,0
					l0.22-0.03l0.15-0.01l0.1-0.03c0.05-0.02,0.08-0.03,0.08-0.04l-0.06-0.15l-0.3-0.28c-0.14-0.14-0.35-0.21-0.59-0.21
					c-0.08,0-0.14,0.01-0.29,0.06C155.02,13.44,154.97,13.45,154.89,13.48 M154.57,15.45c0.18-0.07,0.25-0.09,0.31-0.09l0.15,0.01
					l0.18,0.01l0.19,0.01l0.18,0.02c0.1,0,0.15-0.04,0.36-0.26c0.16-0.17,0.24-0.23,0.55-0.36c0.26-0.11,0.38-0.17,0.44-0.22
					c0.03-0.02,0.05-0.03,0.06-0.03c0.02,0,0.03,0.01,0.03,0.03c0,0.03-0.02,0.06-0.06,0.09c-0.28,0.21-0.46,0.54-0.46,0.82
					c0,0.2,0.03,0.31,0.14,0.46c0.06-0.21,0.15-0.33,0.41-0.54l0.31-0.26c0.24-0.2,0.35-0.45,0.35-0.78l0-0.07l-0.01-0.13
					c0-0.05,0.04-0.09,0.08-0.09l0.02,0.01l0.07,0.1l0.03,0.08l0.05,0.08l0.05,0.05l0.01,0.01c0.07,0,0.16-0.06,0.25-0.17
					c0.24-0.29,0.27-0.35,0.27-0.58c0-0.11-0.02-0.21-0.06-0.31l-0.08-0.17c-0.02-0.04-0.03-0.08-0.03-0.12
					c0-0.06,0.03-0.1,0.08-0.1l0.04,0.01l0.06,0.05l0.05,0.08c0.07,0.1,0.14,0.15,0.21,0.15c0.08,0,0.12-0.04,0.19-0.17l0.09-0.17
					c0.02-0.04,0.04-0.09,0.05-0.14l0.01-0.08c0-0.05-0.07-0.1-0.17-0.11c-0.32-0.06-0.54-0.36-0.54-0.75l0.01-0.28
					c0.01-0.1,0.03-0.18,0.05-0.18l0.06-0.15l0.04-0.17c0.02-0.07,0.03-0.11,0.03-0.12c0-0.03-0.01-0.06-0.04-0.1
					c-0.03-0.05-0.05-0.08-0.05-0.09l-0.08-0.22l-0.09-0.18l-0.09-0.21c-0.06-0.14-0.16-0.24-0.23-0.24c-0.01,0-0.11,0.05-0.3,0.14
					l-0.28,0.14c-0.27,0.14-0.44,0.46-0.44,0.83c0,0.28,0.07,0.53,0.27,0.94c0.15,0.3,0.24,0.49,0.28,0.58
					c0.09,0.2,0.14,0.39,0.14,0.55c0,0.63-0.6,1.12-1.54,1.25C155.11,14.46,154.88,14.62,154.57,15.45 M159.56,14.48l0.08-0.01
					l0.1-0.03h0.09H160h0.18l0.11,0.01c0.06,0,0.1-0.04,0.22-0.22l0.09-0.14c0.08-0.12,0.11-0.17,0.21-0.3
					c-0.14-0.07-0.25-0.09-0.37-0.09C160.04,13.71,159.67,14.05,159.56,14.48 M125.36,26.93l0,0.09c0,0.13-0.01,0.2-0.03,0.27
					c-0.01,0.02-0.03,0.09-0.06,0.21c-0.04,0.13-0.06,0.26-0.06,0.36c0,0.18,0.06,0.38,0.17,0.56c0.13,0.22,0.14,0.26,0.14,0.39
					c0,0.12-0.03,0.16-0.12,0.16c-0.02,0-0.03-0.01-0.06-0.05c-0.11-0.13-0.38-0.23-0.61-0.23l-0.18,0.01
					c0.11,0.2,0.15,0.29,0.19,0.42l0.09,0.31c0.07,0.26,0.3,0.55,0.6,0.75c0.16,0.11,0.18,0.13,0.18,0.16
					c0,0.03-0.04,0.05-0.11,0.05l-0.05,0l-0.14-0.03c-0.05-0.02-0.09-0.03-0.11-0.03c-0.05,0-0.08,0.05-0.08,0.12
					c0,0.1,0.04,0.24,0.19,0.6c0.17,0.42,0.3,0.57,0.6,0.7c0.13,0.05,0.18,0.1,0.18,0.15c0,0.05-0.02,0.06-0.1,0.07
					c-0.13,0.01-0.19,0.05-0.19,0.11c0,0.05,0.01,0.09,0.03,0.09l0.03,0.08c0.2,0.6,0.62,0.91,1.21,0.91l0.03,0
					c0.06,0,0.09,0.01,0.09,0.05c0,0.02-0.02,0.06-0.05,0.08c-0.07,0.05-0.15,0.08-0.23,0.09c-0.11,0.01-0.14,0.04-0.14,0.1
					c0,0.08,0.07,0.22,0.18,0.34l0.12,0.13c0.09,0.11,0.14,0.14,0.19,0.14c0.04,0,0.1-0.04,0.21-0.13c0.24-0.21,0.49-0.35,0.78-0.45
					c0.27-0.09,0.36-0.16,0.36-0.26c0-0.03-0.01-0.07-0.04-0.12c-0.1-0.19-0.19-0.44-0.23-0.64l-0.06-0.31l-0.05-0.18l-0.03-0.08
					l-0.05-0.03h-0.01l-0.05,0.01l-0.04,0.06l-0.06,0.1l-0.06,0.14c-0.08,0.16-0.3,0.32-0.47,0.32c-0.39,0-0.89-0.67-1.3-1.76
					c-0.12-0.31-0.19-0.72-0.19-1.09c0-0.2,0.02-0.38,0.06-0.55l0.15-0.64c0.02-0.1,0.04-0.21,0.04-0.32
					C126.19,27.63,125.92,27.21,125.36,26.93 M126.5,30.02l0.14-0.27c0.12-0.23,0.15-0.31,0.15-0.37c0-0.06-0.03-0.12-0.09-0.2
					c-0.08-0.11-0.15-0.16-0.21-0.16c-0.16,0-0.29,0.33-0.29,0.74v0.27c0,0.16,0.05,0.28,0.11,0.28l0.01,0l0.07-0.07L126.5,30.02z
					 M128.04,35.54c0.11,0.01,0.13,0.02,0.19,0.1l0.08,0.1l0.09,0.12c0.13,0.17,0.19,0.21,0.35,0.21c0.24,0,0.46-0.09,0.77-0.32
					c-0.04-0.02-0.07-0.04-0.09-0.05c-0.07-0.04-0.11-0.06-0.13-0.08l-0.15-0.13c-0.15-0.13-0.32-0.19-0.5-0.19
					C128.42,35.29,128.25,35.36,128.04,35.54 M128.12,37.58c0.13-0.1,0.25-0.15,0.39-0.15l0.24-0.01c0.3-0.02,0.5-0.18,0.63-0.51
					c0.04-0.11,0.06-0.13,0.19-0.19c0.03-0.02,0.07-0.03,0.09-0.05c0.04-0.03,0.07-0.04,0.09-0.04c0.03,0,0.05,0.02,0.05,0.06
					c0,0.03-0.01,0.09-0.03,0.16l-0.07,0.26c-0.02,0.07-0.03,0.16-0.03,0.26c0,0.27,0.02,0.31,0.26,0.69
					c0.02-0.15,0.03-0.17,0.22-0.42c0.4-0.53,0.53-0.86,0.53-1.29l-0.01-0.19l-0.01-0.07c0-0.08,0.02-0.11,0.08-0.11
					c0.04,0,0.07,0.01,0.08,0.03l0.03,0.05l0.08,0.12l0.03,0.09c0.01,0.03,0.04,0.05,0.06,0.05c0.06,0,0.1-0.05,0.24-0.3
					c0.09-0.15,0.14-0.33,0.14-0.47c0-0.08-0.01-0.1-0.06-0.2c-0.02-0.03-0.03-0.06-0.03-0.09c0-0.04,0.02-0.07,0.05-0.07
					c0.01,0,0.04,0.01,0.06,0.03l0.06,0.04l0.08,0.06c0.03,0.03,0.06,0.04,0.09,0.04c0.02,0,0.05-0.01,0.06-0.03
					c0,0,0.03-0.03,0.08-0.09l0.14-0.17c0.08-0.1,0.14-0.2,0.14-0.26l-0.01-0.03l-0.04-0.06l-0.04-0.06l-0.17-0.15l-0.14-0.19
					c-0.12-0.16-0.18-0.29-0.18-0.41c0-0.09,0.05-0.3,0.1-0.46l0.08-0.22c0.02-0.05,0.03-0.09,0.04-0.13
					c0.02-0.09,0.05-0.14,0.1-0.14c0.05,0,0.09,0.06,0.09,0.13c0,0.03-0.01,0.09-0.03,0.17c-0.03,0.12-0.04,0.23-0.04,0.29
					c0,0.11,0.04,0.16,0.13,0.16c0.05,0,0.07-0.01,0.25-0.08c0.12-0.05,0.23-0.09,0.34-0.12l0.34-0.09c0.12-0.03,0.2-0.05,0.23-0.04
					l0.21,0.04l0.19,0.09c0.04,0.02,0.1,0.03,0.19,0.05l0.11,0.01c0.09,0,0.17-0.06,0.17-0.13c0-0.03-0.02-0.08-0.05-0.13
					c-0.12-0.16-0.14-0.21-0.14-0.27c0-0.04,0.03-0.07,0.07-0.07c0.15,0,0.54,0.67,0.82,1.43l0.31,0.82
					c0.19,0.52,0.42,0.8,0.88,1.07l0.59,0.35c0.42,0.25,0.59,0.65,0.59,1.44c0,0.44-0.14,1.12-0.36,1.77l-0.23,0.68
					c-0.07,0.2-0.1,0.42-0.1,0.64c0,0.49,0.15,0.92,0.45,1.3c0.05-0.18,0.06-0.21,0.23-0.4c0.2-0.23,0.33-0.55,0.33-0.78
					c0-0.1-0.04-0.29-0.09-0.42c-0.04-0.11-0.06-0.18-0.06-0.21l-0.01-0.18l0-0.11c0-0.04,0.03-0.06,0.07-0.06
					c0.07,0,0.09,0.02,0.2,0.19c0.13,0.2,0.22,0.27,0.59,0.45c-0.04-0.17-0.05-0.2-0.05-0.4c-0.01-0.58-0.19-1.09-0.5-1.4
					c-0.03-0.03-0.05-0.07-0.05-0.09c0-0.05,0.03-0.07,0.07-0.07c0.06,0,0.08,0.02,0.22,0.16c0.07,0.07,0.12,0.1,0.16,0.1
					c0.03,0,0.05-0.02,0.05-0.05l0.03-0.13l0.04-0.33l0-0.08c0-0.27-0.11-0.51-0.32-0.72c-0.17-0.17-0.22-0.22-0.22-0.28
					c0-0.04,0.02-0.07,0.05-0.07c0.05,0,0.12,0.03,0.2,0.09c0.07,0.05,0.14,0.08,0.19,0.08c0.13,0,0.17-0.13,0.17-0.61l-0.01-0.38
					l-0.03-0.27c-0.01-0.13-0.03-0.16-0.12-0.16l-0.06,0h-0.02c-0.59,0-1.04-0.49-1.25-1.38l-0.2-0.85c-0.14-0.59-0.47-1-0.97-1.2
					c-0.11-0.04-0.18-0.1-0.18-0.14c0-0.03,0.03-0.05,0.09-0.05c0.05,0,0.1,0.02,0.16,0.04c0.1,0.05,0.19,0.08,0.24,0.08l0.52,0.21
					c0.32,0.12,0.6,0.18,0.89,0.18c0.78,0,1.34-0.55,1.34-1.31c0-0.56-0.35-1.21-0.81-1.49l-0.23-0.14
					c-0.05-0.04-0.1-0.05-0.13-0.05c-0.04,0-0.08,0.03-0.08,0.06l0.01,0.11l0.08,0.13c0.02,0.04,0.04,0.08,0.04,0.11
					c0,0.04-0.02,0.07-0.06,0.07c-0.03,0-0.07-0.04-0.17-0.16c-0.48-0.59-0.84-0.81-1.3-0.81c-0.11,0-0.2,0.05-0.2,0.1
					c0,0.05,0.03,0.11,0.14,0.25c0.14,0.18,0.16,0.19,0.16,0.24l-0.02,0.04c-0.02,0.03-0.05,0.05-0.07,0.05
					c-0.02,0-0.04-0.01-0.06-0.03l-0.11-0.1l-0.3-0.3l-0.28-0.3c-0.11-0.11-0.36-0.22-0.64-0.27l-0.15-0.01
					c-0.1,0-0.19,0.04-0.19,0.09c0,0.1,0.04,0.16,0.16,0.25c0.08,0.06,0.12,0.1,0.12,0.12c0,0.04-0.03,0.06-0.06,0.06
					c-0.09,0-0.31-0.13-0.53-0.32c-0.58-0.5-0.76-0.82-0.76-1.35c0-0.56,0.46-0.98,1.08-0.98c0.31,0,0.59,0.09,0.81,0.26
					c0.3,0.23,0.5,0.36,0.58,0.36l0.6,0.4c0.38,0.25,0.59,0.33,0.82,0.33c0.28,0,0.52-0.12,0.7-0.35l-0.12,0.03l-0.1,0.02l-0.02,0
					l-0.1-0.01l-0.14-0.01c-0.1-0.01-0.23-0.05-0.38-0.12c-0.19-0.08-0.33-0.16-0.42-0.23l-0.52-0.41c-0.35-0.28-0.69-0.44-1.2-0.59
					c-0.15-0.04-0.19-0.07-0.19-0.12c0-0.05,0.02-0.06,0.12-0.06c0.42,0,0.97,0.24,1.75,0.76c0.7,0.47,0.89,0.55,1.26,0.55
					c0.36,0,0.7-0.3,0.7-0.61c0-0.11-0.05-0.26-0.15-0.42c-0.04-0.06-0.11-0.1-0.15-0.1c-0.04,0-0.07,0.05-0.07,0.1l0.01,0.03
					l0.03,0.09l0.01,0.03c0,0.2-0.18,0.38-0.39,0.38c-0.19,0-0.48-0.15-0.94-0.49c-0.89-0.66-1.31-0.84-1.95-0.84
					c-1.2,0-2.13,0.86-2.13,1.96c0,1.49,0.92,2.22,3.54,2.78c1.47,0.32,1.77,0.47,1.77,0.91c0,0.39-0.32,0.64-0.81,0.64
					c-0.43,0-0.53-0.02-1.57-0.31c-0.91-0.25-1.49-0.35-2.12-0.35c-1.32,0-2.29,0.4-2.59,1.08l-0.06,0.14
					c-0.02,0.05-0.04,0.07-0.06,0.07c-0.03,0-0.05-0.02-0.09-0.08c-0.14-0.22-0.37-0.36-0.57-0.36c-0.12,0-0.21,0.03-0.38,0.14
					c-0.12,0.08-0.17,0.1-0.21,0.1c-0.12,0-0.29-0.24-0.4-0.54c-0.09-0.25-0.17-0.53-0.18-0.62l-0.01-0.16l0-0.08
					c0-0.14,0.03-0.19,0.09-0.19c0.05,0,0.08,0.05,0.1,0.18l0.04,0.21c0.03,0.18,0.12,0.37,0.23,0.49c0.05,0.06,0.1,0.09,0.15,0.09
					c0.13,0,0.28-0.19,0.37-0.49c0.04-0.15,0.08-0.21,0.11-0.21c0.06,0,0.1,0.07,0.16,0.27c0.12,0.4,0.32,0.68,0.48,0.68
					c0.03,0,0.04-0.01,0.08-0.04c0.03-0.02,0.05-0.05,0.06-0.06c0.04-0.07,0.1-0.26,0.13-0.45l0.01-0.12l-0.01-0.09l-0.01-0.1
					c0-0.05,0.02-0.08,0.05-0.08c0,0,0.03,0.01,0.09,0.04l0.08,0.09c0.04,0.05,0.13,0.09,0.28,0.14c0.05,0.02,0.09,0.03,0.12,0.03
					c0.04,0,0.09-0.01,0.12-0.04c0.04-0.03,0.07-0.05,0.08-0.08l0-0.02c0-0.08-0.01-0.12-0.04-0.16l-0.09-0.1
					c-0.01-0.01-0.05-0.07-0.13-0.19c-0.05-0.08-0.1-0.15-0.13-0.22c-0.03-0.06-0.06-0.12-0.08-0.19c-0.05-0.18-0.12-0.24-0.23-0.24
					c-0.04,0-0.09,0.01-0.14,0.04l-0.12,0.07c-0.07,0.04-0.16,0.06-0.22,0.06c-0.05,0-0.09-0.02-0.09-0.06
					c0-0.03,0.01-0.05,0.04-0.07c0.02-0.02,0.06-0.06,0.14-0.13c0.27-0.24,0.38-0.59,0.5-1.66c0.03-0.24,0.06-0.43,0.1-0.58
					c0.04-0.14,0.06-0.23,0.06-0.24c0.02-0.09,0.04-0.13,0.1-0.13c0.03,0,0.05,0.02,0.05,0.04v0.09l0.01,0.17v0.19v0.13
					c0,0.1,0.01,0.12,0.06,0.12c0.05,0,0.09-0.04,0.16-0.16c0.18-0.32,0.28-0.58,0.28-0.74c0-0.28-0.17-0.49-0.41-0.49l-0.11,0.01
					l-0.13,0.04l-0.03,0c-0.08,0-0.12-0.07-0.12-0.19l0.01-0.19l0.01-0.14c0-0.1-0.02-0.18-0.06-0.33c-0.05-0.18-0.05-0.2-0.08-0.33
					c-0.15,0.14-0.2,0.17-0.25,0.22l-0.19,0.14c-0.06,0.05-0.12,0.09-0.15,0.14c-0.12,0.15-0.15,0.17-0.21,0.17
					c-0.07,0-0.1-0.05-0.1-0.17c-0.01-0.24-0.12-0.54-0.24-0.67l-0.13-0.13l-0.11-0.13c-0.24,0.32-0.4,0.68-0.4,0.93l0,0.03l0,0.09
					c0,0.1-0.02,0.14-0.07,0.14c-0.03,0-0.05-0.01-0.08-0.04l-0.06-0.08l-0.14-0.12l-0.21-0.19c-0.08-0.08-0.14-0.12-0.31-0.23
					l-0.04,0.19l-0.06,0.27l-0.03,0.26v0.26l0.02,0.09c0,0.04-0.03,0.06-0.07,0.06l-0.05-0.01l-0.09-0.04
					c-0.07-0.03-0.15-0.05-0.23-0.05c-0.24,0-0.39,0.15-0.39,0.41c0,0.17,0.09,0.37,0.27,0.63c0.15,0.22,0.32,0.36,0.41,0.36
					c0.03,0,0.06-0.06,0.06-0.13l-0.01-0.17l-0.03-0.2l-0.01-0.09c0-0.05,0.03-0.1,0.07-0.1c0.04,0,0.06,0.02,0.09,0.09l0.08,0.17
					c0.04,0.08,0.06,0.21,0.08,0.39c0.09,0.94,0.23,1.46,0.5,1.71l0.27,0.26l0.12,0.12c0.04,0.04,0.05,0.06,0.05,0.07
					c0,0.04-0.04,0.06-0.08,0.06c-0.02,0-0.04-0.01-0.12-0.05c-0.08-0.03-0.16-0.05-0.25-0.05c-0.3,0-0.47,0.21-0.47,0.59
					c0,0.87,0.47,1.69,1.33,2.32c0.68,0.49,0.85,0.72,0.85,1.12c0,0.38-0.29,0.77-0.74,1l-0.56,0.28l-0.47,0.18
					c-0.37,0.14-0.5,0.33-0.6,0.9L128.12,37.58z M131.47,38.22l0.15,0.03c0.06,0.01,0.11,0.02,0.13,0.04l0.14,0.1
					c0.07,0.05,0.24,0.09,0.4,0.09c0.16,0,0.2-0.01,0.49-0.14l0.23-0.1l0.21-0.12l-0.14-0.05l-0.23-0.09
					c-0.25-0.1-0.45-0.14-0.63-0.14C131.96,37.84,131.85,37.9,131.47,38.22 M131.69,40.04c0.14-0.08,0.16-0.08,0.35-0.1
					c0.32-0.03,0.62-0.15,0.65-0.27l0.05-0.17c0.03-0.09,0.12-0.23,0.22-0.32c0.08-0.08,0.14-0.12,0.2-0.12
					c0.04,0,0.06,0.02,0.06,0.05l-0.01,0.05l-0.04,0.08c-0.06,0.11-0.1,0.31-0.1,0.44c0,0.16,0.03,0.26,0.15,0.53
					c0.02,0.04,0.04,0.09,0.08,0.17c0.09-0.17,0.11-0.2,0.26-0.36c0.36-0.41,0.45-0.6,0.45-1.03l-0.01-0.21l-0.01-0.08
					c0-0.06,0.03-0.1,0.09-0.1c0.05,0,0.07,0.02,0.1,0.1l0.04,0.1c0.04,0.11,0.06,0.13,0.1,0.13c0.06,0,0.21-0.16,0.3-0.33
					c0.05-0.09,0.08-0.25,0.08-0.45l-0.01-0.13l-0.04-0.12l0-0.03c0-0.06,0.04-0.1,0.09-0.1s0.11,0.05,0.15,0.14
					c0.05,0.11,0.06,0.12,0.11,0.12c0.06,0,0.11-0.03,0.18-0.13c0.03-0.05,0.07-0.1,0.1-0.14c0.07-0.1,0.1-0.16,0.1-0.2
					c0-0.03-0.01-0.05-0.07-0.1c-0.37-0.34-0.47-0.6-0.5-1.38c-0.01-0.26-0.05-0.44-0.14-0.67l-0.19-0.48l-0.1-0.35l-0.09-0.27
					c-0.05-0.14-0.08-0.18-0.15-0.18l-0.06,0.01l-0.1,0.05l-0.22,0.08c-0.23,0.08-0.38,0.39-0.38,0.74c0,0.16,0.04,0.32,0.1,0.49
					l0.31,0.76c0.21,0.51,0.3,0.86,0.3,1.13c0,0.44-0.25,0.74-0.82,1c-0.38,0.17-0.62,0.29-0.74,0.35
					c-0.18,0.09-0.32,0.22-0.42,0.36C131.9,39.35,131.86,39.47,131.69,40.04 M135.15,41.07c0.22-0.19,0.28-0.21,0.51-0.24
					c0.36-0.05,0.49-0.15,0.59-0.46l0.12-0.36l0.1-0.32l0.05-0.18l-0.18,0.1l-0.15,0.1c-0.03,0.02-0.12,0.05-0.27,0.1
					c-0.49,0.16-0.78,0.55-0.78,1.06L135.15,41.07z M149.13,26.85c0.04,0.15,0.06,0.31,0.06,0.41c0,0.05-0.01,0.11-0.04,0.3
					l-0.02,0.22c0,0.18,0.07,0.38,0.21,0.59c0.19,0.29,0.22,0.35,0.22,0.51c0,0.1-0.03,0.15-0.08,0.15c-0.02,0-0.05-0.02-0.08-0.05
					l-0.1-0.13c-0.13-0.16-0.38-0.25-0.74-0.28c0.13,0.21,0.15,0.28,0.24,0.69c0.08,0.37,0.18,0.55,0.45,0.77l0.15,0.13
					c0.07,0.06,0.14,0.15,0.14,0.18l-0.01,0.04c-0.01,0.02-0.03,0.04-0.05,0.04l-0.01,0l-0.08-0.01l-0.1-0.01
					c-0.13,0-0.17,0.07-0.17,0.24c0,0.28,0.15,0.6,0.4,0.84c0.04,0.04,0.07,0.08,0.07,0.11c0,0.04-0.03,0.07-0.07,0.07
					s-0.11-0.02-0.2-0.06c-0.04-0.02-0.06-0.03-0.08-0.03c-0.07,0-0.1,0.04-0.1,0.13c0,0.52,0.2,0.93,0.54,1.09l0.19,0.09l0.12,0.06
					c0.05,0.03,0.07,0.04,0.07,0.06c0,0.05-0.07,0.08-0.17,0.08l-0.06-0.01l-0.13-0.05L149.6,33c-0.1,0-0.15,0.04-0.15,0.11
					c0,0.04,0.01,0.09,0.02,0.15c0.03,0.09,0.05,0.23,0.08,0.4c0.03,0.22,0.09,0.31,0.2,0.31c0.05,0,0.1-0.02,0.23-0.08
					c0.38-0.18,0.58-0.23,0.88-0.23h0.28l0.21,0.01l0.12,0.02c0.07,0,0.1-0.05,0.12-0.17l0.04-0.3c0.02-0.18,0.04-0.32,0.04-0.41
					l0.03-0.24l0.01-0.13l-0.04-0.05l-0.03-0.01c-0.03,0-0.06,0.01-0.14,0.06c-0.18,0.11-0.42,0.2-0.58,0.2c-0.7,0-1-0.71-1-2.41
					c0-0.56,0.03-1.19,0.08-1.55c0.04-0.32,0.06-0.56,0.06-0.7C150.07,27.43,149.66,26.94,149.13,26.85 M150.68,29.12l-0.1-0.14
					c-0.07-0.1-0.11-0.13-0.15-0.13c-0.07,0-0.11,0.07-0.12,0.21c-0.01,0.07-0.02,0.17-0.04,0.3c-0.05,0.33-0.06,0.38-0.06,0.43
					c0,0.12,0.04,0.21,0.09,0.21c0.05,0,0.15-0.09,0.24-0.21c0.14-0.2,0.19-0.31,0.19-0.45C150.73,29.24,150.71,29.16,150.68,29.12
					 M149.13,36.01c0.2,0.03,0.26,0.07,0.38,0.24c0.15,0.21,0.24,0.27,0.49,0.27c0.25,0,0.44-0.05,0.71-0.19
					c-0.26-0.31-0.64-0.52-0.96-0.52C149.56,35.82,149.42,35.86,149.13,36.01 M148.98,38.11c0.18-0.1,0.26-0.13,0.42-0.15l0.31-0.05
					c0.16-0.03,0.29-0.11,0.4-0.27c0.18-0.26,0.32-0.39,0.45-0.39l0.03,0.01l0.01,0.06l-0.05,0.1c-0.16,0.32-0.18,0.38-0.18,0.6
					c0,0.19,0.03,0.29,0.17,0.5l0.13-0.21l0.27-0.31c0.21-0.24,0.3-0.44,0.3-0.68l0-0.12c0-0.1,0.03-0.17,0.08-0.17
					c0.05,0,0.1,0.07,0.11,0.14c0.02,0.11,0.04,0.14,0.08,0.14l0.01,0l0.13-0.06l0.13-0.09c0.19-0.13,0.28-0.35,0.28-0.64
					l-0.01-0.16l0-0.06c0-0.05,0.02-0.07,0.06-0.07c0.05,0,0.08,0.03,0.12,0.1c0.05,0.1,0.09,0.14,0.16,0.14
					c0.04,0,0.08-0.03,0.16-0.11c0.06-0.06,0.12-0.12,0.15-0.17c0.07-0.1,0.12-0.24,0.12-0.36c0-0.05-0.01-0.11-0.04-0.21
					c-0.02-0.07-0.04-0.11-0.05-0.14c-0.04-0.08-0.05-0.13-0.05-0.15c0-0.06,0.04-0.1,0.09-0.1c0.03,0,0.06,0.01,0.08,0.04
					l0.05,0.08l0.1,0.14l0.08,0.12c0.03,0.04,0.06,0.07,0.08,0.07c0.05,0,0.16-0.09,0.24-0.21c0.09-0.11,0.16-0.28,0.16-0.37
					c0-0.03-0.01-0.06-0.04-0.12c-0.12-0.23-0.14-0.31-0.14-0.48c0-0.16,0.02-0.22,0.17-0.52c0.04-0.09,0.08-0.17,0.1-0.24
					c0.04-0.14,0.09-0.19,0.14-0.19c0.05,0,0.08,0.05,0.08,0.11l-0.01,0.04l-0.04,0.14l-0.01,0.09c0,0.14,0.12,0.23,0.29,0.23
					c0.18,0,0.53-0.18,1.22-0.62c0.31-0.2,0.42-0.24,0.56-0.24c0.08,0,0.18,0.02,0.28,0.06c0.26,0.11,0.34,0.13,0.49,0.13
					c0.08,0,0.1-0.02,0.1-0.1c0-0.07-0.02-0.18-0.07-0.29c-0.02-0.04-0.03-0.08-0.03-0.1c0-0.05,0.04-0.09,0.08-0.09
					c0.06,0,0.13,0.08,0.3,0.37l0.21,0.36c0.28,0.49,0.64,0.76,1.14,0.84c0.45,0.07,0.6,0.17,0.6,0.38c0,0.5-0.22,0.84-0.82,1.28
					c-0.38,0.28-0.56,0.58-0.56,0.92c0,0.24,0.05,0.48,0.17,0.84c0.13-0.19,0.19-0.27,0.31-0.37c0.14-0.13,0.22-0.2,0.24-0.22
					c0.07-0.07,0.11-0.16,0.11-0.24v-0.22c0-0.2,0.11-0.38,0.23-0.38c0.07,0,0.09,0.03,0.1,0.13c0.02,0.33,0.06,0.47,0.22,0.68
					l0.03-0.09c0.01-0.03,0.04-0.1,0.09-0.19l0.13-0.26l0.15-0.3c0.04-0.08,0.06-0.17,0.06-0.26c0-0.12-0.04-0.27-0.1-0.41
					c-0.03-0.07-0.05-0.13-0.05-0.16c0-0.05,0.04-0.1,0.08-0.1c0.02,0,0.03,0.01,0.06,0.03c0.11,0.07,0.16,0.1,0.2,0.1
					c0.03,0,0.06-0.03,0.09-0.09c0.1-0.2,0.15-0.36,0.15-0.43c0-0.05-0.03-0.11-0.08-0.17l-0.1-0.12c-0.02-0.03-0.04-0.07-0.04-0.11
					c0-0.08,0.02-0.1,0.08-0.1c0.04,0,0.07,0.01,0.1,0.04l0.08,0.08c0.04,0.04,0.09,0.06,0.14,0.06c0.07,0,0.11-0.04,0.16-0.14
					l0.08-0.17c0.03-0.06,0.04-0.11,0.04-0.17c0-0.13-0.05-0.16-0.37-0.23c-0.38-0.08-0.58-0.18-0.78-0.41
					c-0.05-0.06-0.21-0.25-0.46-0.57c-0.22-0.28-0.41-0.42-0.59-0.46c-0.1-0.02-0.13-0.05-0.13-0.1c0-0.05,0.03-0.07,0.09-0.07
					c0.05,0,0.16,0.02,0.23,0.05l0.54,0.21c0.48,0.19,1.04,0.31,1.39,0.31c0.73,0,1.32-0.53,1.32-1.2c0-0.53-0.19-1.12-0.41-1.29
					l-0.25-0.19c-0.11-0.08-0.17-0.11-0.22-0.11c-0.04,0-0.05,0.01-0.05,0.06c0,0.06,0.03,0.2,0.07,0.3
					c0.02,0.05,0.03,0.08,0.03,0.11c0,0.02-0.01,0.04-0.03,0.06s-0.03,0.03-0.05,0.03c-0.03,0-0.05-0.03-0.09-0.13
					c-0.34-0.74-0.88-1.22-1.38-1.22c-0.06,0-0.11,0.03-0.11,0.07l0.01,0.09l0.03,0.06l0.14,0.23l0.08,0.14
					c0.03,0.05,0.04,0.09,0.04,0.11c0,0.04-0.02,0.06-0.06,0.06c-0.06,0-0.1-0.03-0.15-0.13c-0.09-0.15-0.21-0.3-0.36-0.42
					c-0.16-0.14-0.27-0.22-0.35-0.26l-0.31-0.14c-0.07-0.03-0.14-0.05-0.18-0.05c-0.05,0-0.07,0.03-0.07,0.08
					c0,0.05,0.03,0.13,0.06,0.18c0.04,0.05,0.05,0.08,0.05,0.1c0,0.04-0.03,0.07-0.07,0.07c-0.02,0-0.05-0.01-0.07-0.03l-0.09-0.06
					l-0.3-0.21c-0.27-0.19-0.49-0.63-0.49-0.99c0-0.57,0.48-1.05,1.05-1.05c0.2,0,0.38,0.03,0.52,0.1c0.08,0.04,0.32,0.18,0.7,0.41
					c0.48,0.29,1.1,0.51,1.48,0.51c0.25,0,0.38-0.07,0.62-0.33c-0.11,0.02-0.16,0.03-0.22,0.03c-0.35,0-0.68-0.12-1.15-0.41
					c-0.23-0.15-0.44-0.26-0.6-0.34l-0.37-0.17c-0.12-0.05-0.2-0.08-0.24-0.09c-0.07-0.01-0.11-0.04-0.11-0.08
					c0-0.04,0.06-0.07,0.17-0.07c0.19,0,0.62,0.16,1.32,0.47c0.74,0.33,0.91,0.39,1.2,0.39c0.36,0,0.63-0.26,0.63-0.61
					c0-0.12-0.03-0.26-0.09-0.38c-0.06-0.12-0.13-0.18-0.21-0.18c-0.07,0-0.1,0.03-0.1,0.1l0.01,0.05l0.04,0.08l0.01,0.08
					c0,0.17-0.11,0.31-0.27,0.31c-0.12,0-0.27-0.04-0.45-0.1c-1.41-0.53-1.78-0.63-2.31-0.63c-1.27,0-2.23,0.82-2.23,1.89
					c0,1.19,0.73,1.82,3.03,2.63c1.01,0.35,1.41,0.66,1.41,1.07c0,0.31-0.25,0.49-0.68,0.49c-0.17,0-0.33-0.03-0.49-0.07l-0.87-0.27
					c-0.52-0.16-1.33-0.27-2.02-0.27c-1.12,0-1.98,0.31-2.41,0.86c-0.14,0.17-0.2,0.23-0.25,0.23c-0.02,0-0.06-0.02-0.1-0.04
					c-0.14-0.09-0.28-0.13-0.43-0.13c-0.14,0-0.27,0.09-0.41,0.27c-0.17,0.23-0.2,0.26-0.26,0.26c-0.17,0-0.41-0.38-0.49-0.77
					c-0.03-0.16-0.05-0.34-0.05-0.51c0-0.38,0.06-0.61,0.17-0.61c0.05,0,0.09,0.06,0.09,0.13l-0.01,0.16l-0.01,0.22
					c0,0.41,0.12,0.67,0.31,0.67c0.2,0,0.39-0.31,0.43-0.71l0.03-0.23c0.01-0.06,0.04-0.11,0.08-0.11c0.05,0,0.09,0.07,0.1,0.21
					c0.03,0.38,0.2,0.66,0.41,0.66c0.16,0,0.27-0.23,0.29-0.61c0.01-0.14,0.04-0.24,0.08-0.24c0.02,0,0.04,0.02,0.07,0.05l0.15,0.18
					c0.05,0.06,0.18,0.12,0.27,0.12c0.12,0,0.23-0.07,0.23-0.15c0-0.03-0.02-0.09-0.05-0.14l-0.09-0.12l-0.14-0.23l-0.1-0.26
					l-0.08-0.18c-0.05-0.13-0.08-0.14-0.19-0.14l-0.09,0.02l-0.14,0.05l-0.14,0.05c-0.05,0.02-0.08,0.03-0.08,0.03
					c-0.03,0-0.06-0.02-0.06-0.05c0-0.02,0.01-0.05,0.03-0.07c0.03-0.04,0.06-0.06,0.06-0.06l0.22-0.23
					c0.26-0.27,0.35-0.53,0.41-1.17c0.06-0.63,0.22-1.08,0.39-1.08c0.05,0,0.07,0.03,0.07,0.08c0,0.03-0.01,0.12-0.03,0.2
					l-0.03,0.16l-0.02,0.13l-0.01,0.06c0,0.03,0.02,0.05,0.06,0.05c0.09,0,0.23-0.12,0.34-0.3c0.12-0.19,0.22-0.43,0.22-0.55
					c0-0.15-0.11-0.38-0.23-0.49c-0.07-0.06-0.14-0.09-0.22-0.09l-0.1,0.02c-0.07,0.02-0.1,0.03-0.12,0.03l-0.05-0.01
					c-0.03-0.02-0.05-0.03-0.05-0.05l0-0.01l0-0.04l0-0.02c0-0.23-0.01-0.28-0.1-0.51c-0.06-0.15-0.08-0.21-0.13-0.39
					c-0.07,0.06-0.12,0.1-0.15,0.13c-0.14,0.11-0.21,0.16-0.22,0.17c-0.04,0.04-0.1,0.1-0.17,0.19c-0.09,0.12-0.15,0.17-0.2,0.17
					c-0.02,0-0.04-0.01-0.05-0.04l-0.01-0.05l0.01-0.08l0.04-0.13l0.01-0.06c0-0.35-0.06-0.5-0.4-0.96l-0.11,0.12l-0.1,0.1
					c-0.15,0.15-0.3,0.5-0.3,0.72l0,0.05l0.03,0.17l0,0.03c0,0.05-0.02,0.08-0.05,0.08c-0.02,0-0.05-0.02-0.07-0.04
					c-0.01-0.01-0.03-0.03-0.06-0.09c-0.11-0.16-0.23-0.25-0.58-0.44l-0.03,0.14l-0.06,0.21c-0.02,0.05-0.03,0.13-0.05,0.26
					l-0.03,0.22c0,0.24,0,0.26-0.06,0.26c0,0-0.02-0.01-0.07-0.03l-0.14-0.06l-0.14-0.06c-0.05-0.03-0.11-0.04-0.17-0.04
					c-0.22,0-0.39,0.19-0.39,0.44c0,0.25,0.16,0.61,0.41,0.89c0.09,0.1,0.21,0.19,0.25,0.19c0.02,0,0.04-0.02,0.05-0.08l0.01-0.11
					l-0.01-0.16c-0.01-0.08-0.02-0.15-0.04-0.19c-0.02-0.05-0.03-0.09-0.03-0.13c0-0.05,0.03-0.09,0.07-0.09
					c0.13,0,0.24,0.27,0.31,0.77c0.07,0.54,0.13,0.84,0.15,0.9l0.24,0.57c0.06,0.13,0.13,0.22,0.18,0.22l0.13,0.12
					c0.03,0.02,0.04,0.05,0.04,0.07c0,0.04-0.01,0.06-0.03,0.06h-0.07l-0.08-0.05c-0.03-0.02-0.08-0.04-0.14-0.05l-0.09-0.01
					c-0.26,0-0.35,0.28-0.42,1.37l-0.06,0.89l-0.01,0.21c0,0.27,0.03,0.45,0.16,0.95c0.06,0.23,0.09,0.41,0.09,0.54
					c0,1-0.57,1.56-2.16,2.1C149.26,37.09,149.05,37.35,148.98,38.11 M151.27,40.17l1.55-0.93l-0.21-0.04l-0.15-0.04
					c-0.21-0.05-0.39-0.08-0.54-0.08c-0.43,0-0.69,0.3-0.69,0.78C151.23,39.94,151.24,40.03,151.27,40.17 M150.54,41.78
					c0.18-0.1,0.31-0.14,0.43-0.14l0.23,0.01l0.06,0c0.31,0,0.5-0.17,0.65-0.57l0.1-0.28c0.05-0.14,0.15-0.25,0.29-0.35l0.14-0.09
					c0.03-0.02,0.05-0.03,0.07-0.03c0.03,0,0.04,0.01,0.04,0.03l0,0.04l-0.01,0.06c0,0.01-0.03,0.09-0.08,0.22
					c-0.03,0.09-0.05,0.18-0.05,0.26c0,0.12,0.03,0.22,0.12,0.43l0.11-0.09c0.65-0.51,0.71-0.6,0.73-1.08
					c0.01-0.41,0.03-0.48,0.11-0.48c0.03,0,0.06,0.04,0.1,0.12c0.08,0.16,0.1,0.18,0.15,0.18c0.09,0,0.24-0.12,0.34-0.26
					c0.16-0.21,0.2-0.33,0.2-0.58l0-0.11l0-0.01c0-0.09,0.03-0.14,0.07-0.14c0.02,0,0.04,0.01,0.06,0.03
					c0.02,0.02,0.03,0.04,0.04,0.07l0.03,0.13l0.02,0.12c0.03,0.12,0.05,0.16,0.12,0.16s0.14-0.07,0.36-0.35
					c0.09-0.12,0.13-0.19,0.13-0.26c0-0.04-0.01-0.09-0.03-0.16c-0.02-0.05-0.03-0.13-0.03-0.15c0-0.08,0.04-0.13,0.11-0.13
					c0.06,0,0.1,0.04,0.13,0.14c0.04,0.12,0.08,0.18,0.13,0.18c0.04,0,0.15-0.08,0.25-0.18c0.1-0.11,0.16-0.22,0.16-0.32
					c0-0.06-0.03-0.12-0.11-0.26c-0.14-0.22-0.23-0.58-0.23-0.84c0-0.43,0.14-0.77,0.64-1.55c0.51-0.8,0.61-0.98,0.61-1.06
					c0-0.02-0.03-0.08-0.09-0.19l-0.06-0.12c-0.02-0.03-0.05-0.05-0.07-0.05c-0.02,0-0.05,0.01-0.09,0.04
					c-0.02,0.01-0.05,0.03-0.09,0.04l-0.08,0.03h-0.01c-0.05,0-0.1-0.03-0.14-0.1c-0.12-0.19-0.17-0.22-0.34-0.22
					c-0.2,0-0.39,0.09-0.39,0.18v0.15c0,0.21-0.13,0.39-0.47,0.62c-0.5,0.34-0.74,0.74-0.74,1.24c0,0.24,0.07,0.52,0.18,0.76
					l0.19,0.4c0.04,0.09,0.06,0.2,0.06,0.31c0,0.78-0.8,1.51-2.89,2.65C150.73,40.71,150.62,40.87,150.54,41.78 M156.91,36.59
					c0.15-0.19,0.3-0.27,0.53-0.27c0.11,0,0.19-0.02,0.21-0.04l0.13-0.14l0.15-0.14l0.19-0.18c0.12-0.11,0.12-0.12,0.12-0.14
					c0-0.03-0.03-0.05-0.1-0.05l-0.14-0.01l-0.19-0.01C157.31,35.6,156.97,35.97,156.91,36.59"/>
			</g>
		</g>
		<path class="st11" d="M129.12,3.95l0.17,0.1l0.24,0.13l0.1,0.05c0.02,0.02,0.03,0.04,0.03,0.06c0,0.02-0.01,0.05-0.02,0.09
			c0,0.01-0.01,0.04-0.03,0.1l-0.05,0.13l-0.02,0.07c-0.02,0.04-0.05,0.06-0.09,0.06c-0.07,0-0.22-0.09-0.3-0.19l-0.13-0.16
			c-0.06-0.08-0.13-0.18-0.13-0.18l-0.08-0.14c-0.05-0.09-0.06-0.11-0.06-0.14c0-0.06,0.04-0.1,0.1-0.1l0.05,0.01
			c0,0,0.03,0.02,0.08,0.05L129.12,3.95z"/>
		<path class="st11" d="M130.5,3.83l0.05,0.03l0.02,0.05c0,0.05-0.05,0.18-0.12,0.29c-0.1,0.15-0.23,0.32-0.33,0.41
			c-0.04,0.04-0.09,0.07-0.17,0.12l-0.03,0.01l-0.01,0l-0.05-0.03l-0.01-0.03l-0.07-0.16l-0.05-0.15l-0.05-0.12l-0.01-0.05
			c0-0.05,0.04-0.07,0.16-0.1c0.19-0.04,0.29-0.08,0.46-0.17c0.04-0.02,0.07-0.04,0.11-0.05l0.06-0.03L130.5,3.83z"/>
		<path class="st11" d="M153.37,4.21l-0.09-0.14c-0.03-0.05-0.05-0.09-0.05-0.14c0-0.07,0.03-0.1,0.09-0.1
			c0.04,0,0.09,0.02,0.15,0.05l0.12,0.07c0.05,0.03,0.11,0.06,0.18,0.1c0.14,0.08,0.23,0.12,0.25,0.13c0.1,0.04,0.13,0.06,0.13,0.1
			c0,0.03-0.01,0.06-0.02,0.1c0,0.01-0.02,0.04-0.04,0.1l-0.05,0.13L154,4.67c-0.02,0.04-0.05,0.06-0.09,0.06
			c-0.05,0-0.13-0.03-0.17-0.07l-0.13-0.12c-0.07-0.06-0.15-0.16-0.13-0.16L153.37,4.21z"/>
		<path class="st11" d="M154.97,3.83l0.05,0.03l0.02,0.05c0,0.05-0.05,0.18-0.12,0.29c-0.09,0.15-0.23,0.32-0.32,0.41
			c-0.04,0.04-0.09,0.07-0.18,0.12l-0.03,0.01l-0.01,0l-0.05-0.03l-0.01-0.03l-0.08-0.16l-0.05-0.15l-0.05-0.12l-0.01-0.05
			c0-0.05,0.04-0.07,0.16-0.1c0.19-0.04,0.29-0.08,0.46-0.17c0.03-0.02,0.07-0.04,0.11-0.05l0.06-0.03L154.97,3.83z"/>
		<path class="st11" d="M129.19,28.45l0.19,0.07c0.07,0.02,0.12,0.04,0.14,0.04c0.11,0.02,0.13,0.05,0.13,0.15l0,0.05l-0.03,0.13
			l-0.03,0.19c0,0.03-0.02,0.05-0.04,0.08c-0.02,0.03-0.04,0.04-0.05,0.05l-0.02,0c-0.04,0-0.12-0.04-0.21-0.11
			c-0.17-0.14-0.31-0.3-0.44-0.49c-0.07-0.1-0.1-0.18-0.1-0.22s0.03-0.08,0.06-0.08l0.09,0.03l0.12,0.04L129.19,28.45z"/>
		<path class="st11" d="M129.73,28.03l-0.05-0.17l-0.01-0.09c0-0.1,0.04-0.13,0.19-0.16c0.09-0.02,0.16-0.03,0.2-0.04l0.19-0.07
			l0.12-0.05l0.09-0.05l0.04-0.01c0.04,0,0.08,0.03,0.08,0.06l0,0.01l-0.05,0.13l-0.14,0.21c-0.07,0.12-0.25,0.32-0.36,0.41
			c-0.02,0.02-0.05,0.04-0.08,0.06c-0.03,0.02-0.05,0.02-0.07,0.02c-0.06,0-0.11-0.04-0.12-0.12L129.73,28.03z"/>
		<path class="st11" d="M153.16,28.09l-0.03,0.15c-0.01,0.04-0.04,0.06-0.09,0.06c-0.03,0-0.09-0.02-0.14-0.05
			c-0.21-0.14-0.37-0.31-0.45-0.47l-0.09-0.19c-0.02-0.05-0.04-0.09-0.04-0.12c0-0.05,0.02-0.07,0.06-0.07c0,0,0.04,0.01,0.1,0.03
			l0.17,0.08l0.19,0.07c0.13,0.05,0.21,0.08,0.23,0.08l0.09,0.02c0.06,0.02,0.07,0.02,0.07,0.13l-0.01,0.11L153.16,28.09z"/>
		<path class="st11" d="M154.08,28.48l-0.16,0.22c-0.28,0.39-0.4,0.51-0.51,0.51c-0.09,0-0.11-0.03-0.12-0.21
			c-0.01-0.09-0.02-0.16-0.06-0.32l-0.01-0.05c0-0.03,0.02-0.04,0.15-0.07c0.17-0.04,0.31-0.08,0.4-0.13l0.19-0.1l0.08-0.02
			c0.04,0,0.08,0.02,0.08,0.05C154.13,28.34,154.11,28.39,154.08,28.48"/>
		<path class="st11" d="M129.03,5.8l-0.18-0.45c-0.06-0.16-0.1-0.3-0.1-0.39c0-0.14,0.07-0.22,0.2-0.22c0.06,0,0.09,0.01,0.16,0.06
			c0.21,0.15,0.25,0.16,0.58,0.16c0.23,0,0.33-0.03,0.51-0.14c0.08-0.05,0.12-0.06,0.17-0.06c0.11,0,0.2,0.11,0.2,0.25
			c0,0.23-0.2,0.77-0.44,1.21c-0.11,0.21-0.28,0.33-0.45,0.33C129.45,6.55,129.22,6.28,129.03,5.8 M129.74,5.31h-0.08h-0.08
			l-0.08-0.01l-0.03,0c-0.09,0-0.17,0.07-0.17,0.15l0.01,0.09c0.02,0.1,0.04,0.17,0.04,0.2c0.07,0.38,0.17,0.56,0.3,0.56
			c0.14,0,0.21-0.05,0.27-0.2l0.08-0.18c0.01-0.01,0.02-0.09,0.05-0.23l0.03-0.18l0-0.03c0-0.12-0.04-0.17-0.11-0.17h-0.01
			L129.74,5.31z"/>
		<path class="st11" d="M153.5,5.8l-0.18-0.45c-0.06-0.16-0.1-0.3-0.1-0.39c0-0.14,0.07-0.22,0.2-0.22c0.05,0,0.08,0.01,0.16,0.06
			c0.21,0.15,0.24,0.16,0.58,0.16c0.23,0,0.34-0.03,0.51-0.14c0.08-0.05,0.12-0.06,0.16-0.06c0.12,0,0.21,0.11,0.21,0.25
			c0,0.23-0.2,0.77-0.44,1.21c-0.12,0.21-0.28,0.33-0.45,0.33C153.92,6.55,153.69,6.28,153.5,5.8 M154.26,5.31h-0.14h-0.08
			l-0.08-0.01l-0.02,0c-0.09,0-0.18,0.07-0.18,0.15l0.01,0.09c0.02,0.1,0.04,0.17,0.04,0.2c0.07,0.38,0.17,0.56,0.3,0.56
			c0.14,0,0.21-0.05,0.27-0.2l0.08-0.18l0.05-0.23c0.02-0.08,0.03-0.14,0.03-0.19c0-0.15-0.02-0.19-0.1-0.19l-0.02,0L154.26,5.31z"
			/>
		<path class="st11" d="M130.38,29.2c0.12,0,0.19,0.12,0.19,0.33c0,0.41-0.23,0.95-0.57,1.32c-0.1,0.11-0.19,0.16-0.28,0.16
			c-0.2,0-0.44-0.24-0.69-0.7c-0.19-0.35-0.27-0.59-0.27-0.81c0-0.19,0.07-0.28,0.22-0.28c0.07,0,0.12,0.02,0.24,0.08
			c0.19,0.1,0.36,0.16,0.48,0.16c0.13,0,0.31-0.06,0.43-0.14C130.29,29.21,130.3,29.2,130.38,29.2 M129.67,30.75
			c0.14,0,0.22-0.13,0.25-0.45l0.03-0.19l0.02-0.15c0-0.1-0.03-0.14-0.11-0.14l-0.11,0.02l-0.1,0.02l-0.09-0.02l-0.08-0.01
			c-0.08,0-0.13,0.09-0.13,0.22c0,0.05,0.01,0.12,0.04,0.28c0.02,0.1,0.04,0.17,0.06,0.22C129.48,30.65,129.59,30.75,129.67,30.75"
			/>
		<path class="st11" d="M152.65,29.25l0.16,0.09c0.16,0.09,0.28,0.12,0.47,0.12c0.14,0,0.22-0.02,0.35-0.07
			c0.22-0.09,0.25-0.11,0.31-0.11c0.1,0,0.19,0.09,0.19,0.21c0,0.18-0.11,0.53-0.32,0.97c-0.16,0.35-0.38,0.56-0.57,0.56
			c-0.21,0-0.44-0.23-0.6-0.6c-0.23-0.53-0.32-0.8-0.32-0.96c0-0.13,0.09-0.25,0.19-0.25C152.55,29.2,152.6,29.22,152.65,29.25
			 M153.51,30.29l0.06-0.22l0.02-0.11c0-0.08-0.04-0.15-0.1-0.15l-0.09,0.02l-0.02,0l-0.06,0l-0.16-0.02l-0.06-0.01l-0.04-0.01
			c-0.08,0-0.12,0.06-0.12,0.19c0,0.18,0.08,0.46,0.16,0.61c0.04,0.07,0.12,0.13,0.18,0.13C153.38,30.72,153.41,30.67,153.51,30.29"
			/>
		<path class="st11" d="M138.72,17h1.34c0.15-0.33,0.36-0.48,0.68-0.48c0.32,0,0.52,0.14,0.7,0.48h1.1c0.13-0.31,0.4-0.48,0.72-0.48
			c0.3,0,0.59,0.2,0.69,0.48h1.02c0.15-0.31,0.39-0.48,0.67-0.48c0.28,0,0.51,0.13,0.68,0.4l0.05,0.08h1.42v6.86h-1.24v2.63h-1.45
			v-2.63h-3.68v2.63h-1.46v-2.66h-1.24V17z M140.41,17.48v0.68v0.15c0,0.2,0.15,0.35,0.34,0.35c0.22,0,0.35-0.13,0.35-0.35v-0.15
			v-0.67c0-0.31-0.12-0.51-0.32-0.51c-0.04,0-0.1,0.02-0.16,0.04c-0.04,0.02-0.07,0.04-0.09,0.05c-0.03,0.03-0.06,0.06-0.08,0.11
			c-0.03,0.07-0.05,0.12-0.05,0.15V17.48z M142.9,18.16v0.15c0,0.2,0.15,0.35,0.34,0.35c0.22,0,0.35-0.13,0.35-0.35v-0.15v-0.67
			c0-0.31-0.12-0.51-0.32-0.51c-0.23,0-0.37,0.19-0.37,0.5V18.16z M145.31,17.48v0.68v0.15c0,0.2,0.15,0.35,0.34,0.35
			c0.22,0,0.35-0.13,0.35-0.35v-0.15v-0.67c0-0.31-0.12-0.51-0.32-0.51c-0.04,0-0.1,0.02-0.15,0.04c-0.04,0.02-0.07,0.04-0.09,0.05
			c-0.03,0.03-0.06,0.06-0.07,0.11c-0.03,0.07-0.05,0.12-0.05,0.15V17.48z M140.09,18.88c-0.21,0-0.38,0.18-0.38,0.4
			c0,0.22,0.17,0.4,0.38,0.4c0.21,0,0.38-0.18,0.38-0.4C140.47,19.06,140.3,18.88,140.09,18.88 M146.41,18.88
			c-0.21,0-0.38,0.18-0.38,0.4c0,0.22,0.17,0.4,0.38,0.4c0.21,0,0.38-0.18,0.38-0.4C146.79,19.06,146.62,18.88,146.41,18.88
			 M140.09,22.01c-0.21,0-0.38,0.18-0.38,0.4c0,0.22,0.18,0.4,0.4,0.4c0.21,0,0.37-0.18,0.37-0.4
			C140.47,22.19,140.3,22.01,140.09,22.01 M146.41,22.01c-0.21,0-0.38,0.18-0.38,0.4c0,0.22,0.17,0.4,0.38,0.4
			c0.21,0,0.38-0.18,0.38-0.4C146.79,22.19,146.62,22.01,146.41,22.01 M140.23,25.47h0.75v-1.01h-0.75V25.47z M140.23,26.02h0.75
			V25.7h-0.75V26.02z M145.36,25.47h0.75v-1.01h-0.75V25.47z M145.36,26.02h0.75V25.7h-0.75V26.02z M141.29,20.8
			c0.52,0.68,1.17,1.01,1.98,1.01c0.75,0,1.27-0.28,1.87-1.01c-0.6-0.65-1.17-0.92-1.91-0.92C142.46,19.88,141.76,20.21,141.29,20.8
			"/>
		<path class="st11" d="M142.35,21.71c0.47-0.47,0.87-0.66,1.37-0.66c0.5,0,0.87,0.18,1.35,0.68c-0.42,0.53-0.79,0.73-1.36,0.73
			C143.2,22.45,142.74,22.2,142.35,21.71 M142.92,21.56c0.28,0.23,0.51,0.32,0.77,0.32c0.31,0,0.57-0.1,0.82-0.32
			c-0.26-0.16-0.54-0.24-0.81-0.24C143.42,21.32,143.16,21.4,142.92,21.56"/>
		<path class="st11" d="M141.52,7.45l0.11-0.82l0.11,0.02l0.19,0.04l0.21,0.02l0.1,0.01l0.01,0c0.05,0,0.08-0.02,0.08-0.04
			c0-0.02-0.02-0.05-0.04-0.07l-0.17-0.13c-0.37-0.28-0.62-1.05-0.62-1.87v-0.1l0.04-0.05l0.1-0.1l0.1-0.1l0.06-0.05
			c-0.04-0.04-0.07-0.07-0.09-0.09c-0.05-0.05-0.09-0.09-0.1-0.1c-0.02-0.02-0.05-0.05-0.09-0.1c-0.02-0.02-0.04-0.05-0.08-0.09
			h-0.01c-0.03,0.04-0.06,0.07-0.08,0.09c-0.04,0.05-0.07,0.08-0.09,0.1c-0.01,0.01-0.05,0.05-0.1,0.1
			c-0.02,0.02-0.05,0.05-0.09,0.09l0.06,0.05l0.1,0.1l0.1,0.1l0.04,0.05v0.1c0,0.82-0.25,1.59-0.62,1.87l-0.17,0.13
			c-0.03,0.02-0.05,0.05-0.05,0.07c0,0.02,0.03,0.04,0.08,0.04l0.01,0l0.1-0.01l0.21-0.02l0.19-0.04l0.11-0.02l0.11,0.82H141.52
			L141.52,7.45z"/>
		<path class="st11" d="M146.06,7.45l0.11-0.82l0.11,0.02l0.19,0.04l0.21,0.02l0.1,0.01l0.01,0c0.04,0,0.08-0.02,0.08-0.04
			c0-0.02-0.02-0.05-0.05-0.07l-0.17-0.13c-0.37-0.28-0.62-1.05-0.62-1.87l0-0.1l0.03-0.05l0.1-0.1l0.1-0.1l0.06-0.05
			c-0.04-0.04-0.07-0.07-0.09-0.09c-0.05-0.05-0.09-0.09-0.1-0.1c-0.02-0.02-0.05-0.05-0.09-0.1c-0.02-0.02-0.04-0.05-0.08-0.09
			h-0.01c-0.03,0.04-0.06,0.07-0.08,0.09c-0.04,0.05-0.07,0.08-0.09,0.1c-0.01,0.01-0.05,0.05-0.1,0.1
			c-0.02,0.02-0.05,0.05-0.09,0.09l0.06,0.05l0.1,0.1l0.1,0.1l0.03,0.05l0,0.1c0,0.82-0.25,1.59-0.62,1.87l-0.17,0.13
			c-0.03,0.02-0.05,0.05-0.05,0.07c0,0.02,0.03,0.04,0.08,0.04l0.01,0l0.1-0.01l0.21-0.02l0.19-0.04l0.11-0.02l0.11,0.82H146.06
			L146.06,7.45z"/>
		<path class="st11" d="M141.52,15.61l0.11-0.82l0.11,0.02l0.19,0.03l0.21,0.02l0.1,0.01l0.01,0c0.05,0,0.08-0.02,0.08-0.04
			c0-0.02-0.02-0.05-0.04-0.07l-0.17-0.13c-0.37-0.28-0.62-1.05-0.62-1.87v-0.1l0.04-0.05l0.1-0.1l0.1-0.1l0.06-0.05
			c-0.04-0.04-0.07-0.07-0.09-0.09c-0.05-0.05-0.09-0.09-0.1-0.1c-0.02-0.02-0.05-0.05-0.09-0.1c-0.02-0.02-0.04-0.05-0.08-0.09
			h-0.01c-0.03,0.04-0.06,0.07-0.08,0.09c-0.04,0.05-0.07,0.08-0.09,0.1c-0.01,0.01-0.05,0.05-0.1,0.1
			c-0.02,0.02-0.05,0.05-0.09,0.09l0.06,0.05l0.1,0.1l0.1,0.1l0.04,0.05v0.1c0,0.82-0.25,1.59-0.62,1.87l-0.17,0.13
			c-0.03,0.02-0.05,0.05-0.05,0.07c0,0.02,0.03,0.04,0.08,0.04l0.01,0l0.1-0.01l0.21-0.02l0.19-0.03l0.11-0.02l0.11,0.82H141.52
			L141.52,15.61z"/>
		<path class="st11" d="M146.06,15.61l0.11-0.82l0.11,0.02l0.19,0.03l0.21,0.02l0.1,0.01l0.01,0c0.04,0,0.08-0.02,0.08-0.04
			c0-0.02-0.02-0.05-0.05-0.07l-0.17-0.13c-0.37-0.28-0.62-1.05-0.62-1.87l0-0.1l0.03-0.05l0.1-0.1l0.1-0.1l0.06-0.05
			c-0.04-0.04-0.07-0.07-0.09-0.09c-0.05-0.05-0.09-0.09-0.1-0.1c-0.02-0.02-0.05-0.05-0.09-0.1c-0.02-0.02-0.04-0.05-0.08-0.09
			h-0.01c-0.03,0.04-0.06,0.07-0.08,0.09c-0.04,0.05-0.07,0.08-0.09,0.1c-0.01,0.01-0.05,0.05-0.1,0.1
			c-0.02,0.02-0.05,0.05-0.09,0.09l0.06,0.05l0.1,0.1l0.1,0.1l0.03,0.05l0,0.1c0,0.82-0.25,1.59-0.62,1.87l-0.17,0.13
			c-0.03,0.02-0.05,0.05-0.05,0.07c0,0.02,0.03,0.04,0.08,0.04l0.01,0l0.1-0.01l0.21-0.02l0.19-0.03l0.11-0.02l0.11,0.82H146.06
			L146.06,15.61z"/>
		<path class="st11" d="M143.34,11.08l0.11-0.82l0.11,0.02l0.19,0.04l0.21,0.02l0.1,0.01l0.01,0c0.05,0,0.08-0.02,0.08-0.04
			c0-0.02-0.02-0.05-0.05-0.07l-0.17-0.13c-0.37-0.28-0.62-1.05-0.62-1.87l0-0.1l0.04-0.05l0.1-0.1l0.1-0.1l0.06-0.05
			c-0.04-0.04-0.07-0.07-0.09-0.09c-0.05-0.05-0.09-0.09-0.1-0.1c-0.02-0.02-0.05-0.05-0.09-0.1c-0.02-0.02-0.04-0.05-0.08-0.09
			h-0.01c-0.03,0.04-0.06,0.07-0.08,0.09c-0.04,0.05-0.07,0.08-0.09,0.1c-0.01,0.01-0.05,0.05-0.1,0.1
			c-0.02,0.02-0.05,0.05-0.09,0.09l0.06,0.05l0.1,0.1l0.1,0.1l0.04,0.05v0.1c0,0.82-0.25,1.59-0.62,1.87l-0.17,0.13
			c-0.03,0.02-0.05,0.05-0.05,0.07c0,0.02,0.03,0.04,0.08,0.04l0.01,0l0.1-0.01l0.21-0.02l0.19-0.04l0.11-0.02l0.11,0.82H143.34
			L143.34,11.08z"/>
		<path class="st11" d="M141.52,34.64l0.11-0.82l0.11,0.02l0.19,0.04l0.21,0.02l0.1,0.01h0.01c0.05,0,0.08-0.01,0.08-0.04
			c0-0.02-0.02-0.05-0.04-0.07l-0.17-0.13c-0.37-0.28-0.62-1.05-0.62-1.87v-0.1l0.04-0.05l0.1-0.1l0.1-0.1l0.06-0.05
			c-0.04-0.04-0.07-0.07-0.09-0.09c-0.05-0.05-0.09-0.09-0.1-0.1c-0.02-0.02-0.05-0.05-0.09-0.1c-0.02-0.02-0.04-0.05-0.08-0.09
			h-0.01c-0.03,0.04-0.06,0.07-0.08,0.09c-0.04,0.05-0.07,0.08-0.09,0.1c-0.01,0.01-0.05,0.05-0.1,0.1l-0.09,0.09l0.06,0.05l0.1,0.1
			l0.1,0.1l0.04,0.05v0.1c0,0.82-0.25,1.59-0.62,1.87l-0.17,0.13c-0.03,0.02-0.05,0.05-0.05,0.07c0,0.02,0.03,0.04,0.08,0.04h0.01
			l0.1-0.01l0.21-0.02l0.19-0.04l0.11-0.02l0.11,0.82H141.52L141.52,34.64z"/>
		<path class="st11" d="M146.06,34.64l0.11-0.82l0.11,0.02l0.19,0.04l0.21,0.02l0.1,0.01h0.01c0.04,0,0.08-0.01,0.08-0.04
			c0-0.02-0.02-0.05-0.05-0.07l-0.17-0.13c-0.37-0.28-0.62-1.05-0.62-1.87l0-0.1l0.03-0.05l0.1-0.1l0.1-0.1l0.06-0.05
			c-0.04-0.04-0.07-0.07-0.09-0.09c-0.05-0.05-0.09-0.09-0.1-0.1c-0.02-0.02-0.05-0.05-0.09-0.1c-0.02-0.02-0.04-0.05-0.08-0.09
			h-0.01c-0.03,0.04-0.06,0.07-0.08,0.09c-0.04,0.05-0.07,0.08-0.09,0.1c-0.01,0.01-0.05,0.05-0.1,0.1l-0.09,0.09l0.06,0.05l0.1,0.1
			l0.1,0.1l0.03,0.05l0,0.1c0,0.82-0.25,1.59-0.62,1.87l-0.17,0.13c-0.03,0.02-0.05,0.05-0.05,0.07c0,0.02,0.03,0.04,0.08,0.04h0.01
			l0.1-0.01l0.21-0.02l0.19-0.04l0.11-0.02l0.11,0.82H146.06L146.06,34.64z"/>
		<path class="st11" d="M141.52,42.8l0.11-0.82l0.11,0.02l0.19,0.03l0.21,0.02l0.1,0.01h0.01c0.05,0,0.08-0.01,0.08-0.04
			c0-0.02-0.02-0.05-0.04-0.07l-0.17-0.13c-0.37-0.28-0.62-1.05-0.62-1.87v-0.1l0.04-0.05l0.1-0.1l0.1-0.1l0.06-0.05
			c-0.04-0.04-0.07-0.07-0.09-0.09c-0.05-0.05-0.09-0.09-0.1-0.1c-0.02-0.02-0.05-0.05-0.09-0.1c-0.02-0.02-0.04-0.05-0.08-0.09
			h-0.01c-0.03,0.04-0.06,0.07-0.08,0.09c-0.04,0.05-0.07,0.08-0.09,0.1c-0.01,0.01-0.05,0.05-0.1,0.1
			c-0.02,0.02-0.05,0.05-0.09,0.09l0.06,0.05l0.1,0.1l0.1,0.1l0.04,0.05v0.1c0,0.82-0.25,1.59-0.62,1.87l-0.17,0.13
			c-0.03,0.02-0.05,0.05-0.05,0.07c0,0.02,0.03,0.04,0.08,0.04h0.01l0.1-0.01l0.21-0.02l0.19-0.03l0.11-0.02l0.11,0.82H141.52
			L141.52,42.8z"/>
		<path class="st11" d="M146.06,42.8l0.11-0.82l0.11,0.02l0.19,0.03l0.21,0.02l0.1,0.01h0.01c0.04,0,0.08-0.01,0.08-0.04
			c0-0.02-0.02-0.05-0.05-0.07l-0.17-0.13c-0.37-0.28-0.62-1.05-0.62-1.87l0-0.1l0.03-0.05l0.1-0.1l0.1-0.1l0.06-0.05
			c-0.04-0.04-0.07-0.07-0.09-0.09c-0.05-0.05-0.09-0.09-0.1-0.1c-0.02-0.02-0.05-0.05-0.09-0.1c-0.02-0.02-0.04-0.05-0.08-0.09
			h-0.01c-0.03,0.04-0.06,0.07-0.08,0.09c-0.04,0.05-0.07,0.08-0.09,0.1c-0.01,0.01-0.05,0.05-0.1,0.1
			c-0.02,0.02-0.05,0.05-0.09,0.09l0.06,0.05l0.1,0.1l0.1,0.1l0.03,0.05l0,0.1c0,0.82-0.25,1.59-0.62,1.87l-0.17,0.13
			c-0.03,0.02-0.05,0.05-0.05,0.07c0,0.02,0.03,0.04,0.08,0.04h0.01l0.1-0.01l0.21-0.02l0.19-0.03l0.11-0.02l0.11,0.82H146.06
			L146.06,42.8z"/>
		<path class="st11" d="M143.34,39.17l0.11-0.82l0.11,0.02l0.19,0.03l0.21,0.02l0.1,0.01l0.01,0c0.05,0,0.08-0.01,0.08-0.04
			c0-0.02-0.02-0.05-0.05-0.07l-0.17-0.13c-0.37-0.28-0.62-1.05-0.62-1.87l0-0.1l0.04-0.05l0.1-0.1l0.1-0.1l0.06-0.05
			c-0.04-0.04-0.07-0.07-0.09-0.09c-0.05-0.05-0.09-0.09-0.1-0.1c-0.02-0.02-0.05-0.05-0.09-0.1c-0.02-0.02-0.04-0.05-0.08-0.09
			h-0.01c-0.03,0.04-0.06,0.07-0.08,0.09c-0.04,0.05-0.07,0.08-0.09,0.1c-0.01,0.01-0.05,0.05-0.1,0.1
			c-0.02,0.02-0.05,0.05-0.09,0.09l0.06,0.05l0.1,0.1l0.1,0.1l0.04,0.05v0.1c0,0.82-0.25,1.59-0.62,1.87l-0.17,0.13
			c-0.03,0.02-0.05,0.05-0.05,0.07c0,0.02,0.03,0.04,0.08,0.04l0.01,0l0.1-0.01l0.21-0.02l0.19-0.03l0.11-0.02l0.11,0.82H143.34
			L143.34,39.17z"/>
		<path class="st11" d="M143.34,30.11l0.11-0.82l0.11,0.02l0.19,0.03l0.21,0.02l0.1,0.01l0.01,0c0.05,0,0.08-0.01,0.08-0.04
			c0-0.02-0.02-0.05-0.05-0.07l-0.17-0.13c-0.37-0.28-0.62-1.05-0.62-1.87l0-0.1l0.04-0.05l0.1-0.1l0.1-0.1l0.06-0.05
			c-0.04-0.04-0.07-0.07-0.09-0.09c-0.05-0.05-0.09-0.09-0.1-0.1c-0.02-0.02-0.05-0.05-0.09-0.1c-0.02-0.02-0.04-0.05-0.08-0.09
			h-0.01c-0.03,0.04-0.06,0.07-0.08,0.09c-0.04,0.05-0.07,0.08-0.09,0.1c-0.01,0.01-0.05,0.05-0.1,0.1
			c-0.02,0.02-0.05,0.05-0.09,0.09l0.06,0.05l0.1,0.1l0.1,0.1l0.04,0.05v0.1c0,0.82-0.25,1.59-0.62,1.87l-0.17,0.13
			c-0.03,0.02-0.05,0.05-0.05,0.07c0,0.02,0.03,0.04,0.08,0.04l0.01,0l0.1-0.01l0.21-0.02l0.19-0.03l0.11-0.02l0.11,0.82H143.34
			L143.34,30.11z"/>
		<path class="st11" d="M127.02,21.05l0.11-0.82l0.11,0.02l0.19,0.04l0.21,0.02l0.1,0.01l0.01,0c0.04,0,0.08-0.01,0.08-0.04
			c0-0.02-0.02-0.05-0.05-0.07l-0.17-0.13c-0.37-0.28-0.62-1.05-0.62-1.87v-0.1l0.04-0.05l0.1-0.1l0.1-0.1l0.06-0.05
			c-0.04-0.04-0.07-0.07-0.09-0.09c-0.05-0.05-0.09-0.09-0.1-0.1c-0.02-0.02-0.05-0.05-0.09-0.1c-0.02-0.02-0.04-0.05-0.08-0.09
			h-0.01c-0.04,0.04-0.06,0.07-0.08,0.09c-0.04,0.05-0.07,0.08-0.09,0.1c-0.01,0.02-0.05,0.05-0.1,0.1
			c-0.02,0.02-0.05,0.05-0.09,0.09l0.06,0.05l0.1,0.1l0.1,0.1l0.04,0.05v0.1c0,0.82-0.26,1.59-0.62,1.87l-0.17,0.13
			c-0.03,0.02-0.05,0.05-0.05,0.07c0,0.02,0.03,0.04,0.08,0.04l0.01,0l0.1-0.01l0.21-0.02l0.19-0.04l0.11-0.02l0.11,0.82H127.02
			L127.02,21.05z"/>
		<path class="st11" d="M131.56,21.05l0.11-0.82l0.11,0.02l0.19,0.04l0.21,0.02l0.1,0.01l0.01,0c0.05,0,0.08-0.01,0.08-0.04
			c0-0.02-0.02-0.05-0.05-0.07l-0.17-0.13c-0.37-0.28-0.62-1.05-0.62-1.87v-0.1l0.04-0.05l0.1-0.1l0.1-0.1l0.06-0.05
			c-0.04-0.04-0.07-0.07-0.09-0.09c-0.05-0.05-0.09-0.09-0.1-0.1c-0.02-0.02-0.05-0.05-0.09-0.1c-0.02-0.02-0.04-0.05-0.08-0.09
			h-0.01c-0.03,0.04-0.06,0.07-0.08,0.09c-0.04,0.05-0.07,0.08-0.09,0.1c-0.01,0.02-0.05,0.05-0.1,0.1
			c-0.02,0.02-0.05,0.05-0.09,0.09l0.06,0.05l0.1,0.1l0.1,0.1l0.04,0.05v0.1c0,0.82-0.25,1.59-0.62,1.87l-0.17,0.13
			c-0.03,0.02-0.05,0.05-0.05,0.07c0,0.02,0.03,0.04,0.08,0.04l0.01,0l0.1-0.01l0.21-0.02l0.19-0.04l0.11-0.02l0.11,0.82H131.56
			L131.56,21.05z"/>
		<path class="st11" d="M136.99,21.05l0.11-0.82l0.11,0.02l0.19,0.04l0.21,0.02l0.1,0.01l0.01,0c0.05,0,0.08-0.01,0.08-0.04
			c0-0.02-0.02-0.05-0.05-0.07l-0.17-0.13c-0.37-0.28-0.62-1.05-0.62-1.87v-0.1l0.03-0.05l0.1-0.1l0.1-0.1l0.06-0.05
			c-0.04-0.04-0.07-0.07-0.09-0.09c-0.05-0.05-0.09-0.09-0.1-0.1c-0.02-0.02-0.05-0.05-0.09-0.1c-0.02-0.02-0.04-0.05-0.08-0.09
			h-0.01c-0.04,0.04-0.06,0.07-0.08,0.09c-0.04,0.05-0.07,0.08-0.09,0.1c-0.01,0.02-0.05,0.05-0.1,0.1
			c-0.02,0.02-0.05,0.05-0.09,0.09l0.06,0.05l0.1,0.1l0.1,0.1l0.04,0.05v0.1c0,0.82-0.26,1.59-0.62,1.87l-0.17,0.13
			c-0.03,0.02-0.05,0.05-0.05,0.07c0,0.02,0.03,0.04,0.08,0.04l0.01,0l0.1-0.01l0.21-0.02l0.19-0.04l0.11-0.02l0.11,0.82H136.99
			L136.99,21.05z"/>
		<path class="st11" d="M129.74,24.67l0.11-0.82l0.11,0.02l0.19,0.03l0.21,0.02l0.1,0.01l0.02,0c0.05,0,0.08-0.02,0.08-0.04
			c0-0.02-0.02-0.05-0.05-0.07l-0.17-0.13c-0.37-0.28-0.62-1.05-0.62-1.87v-0.1l0.03-0.05l0.1-0.1l0.1-0.1l0.06-0.05
			c-0.04-0.04-0.07-0.07-0.09-0.09c-0.05-0.05-0.09-0.09-0.1-0.1c-0.02-0.02-0.05-0.05-0.09-0.1c-0.02-0.02-0.04-0.05-0.08-0.09
			h-0.01c-0.03,0.04-0.06,0.07-0.08,0.09c-0.04,0.05-0.07,0.08-0.09,0.1c-0.01,0.01-0.05,0.05-0.1,0.1
			c-0.02,0.02-0.05,0.05-0.09,0.09l0.06,0.05l0.1,0.1l0.1,0.1l0.04,0.05v0.1c0,0.82-0.25,1.59-0.62,1.87l-0.17,0.13
			c-0.03,0.02-0.05,0.05-0.05,0.07c0,0.02,0.03,0.04,0.08,0.04l0.01,0l0.1-0.01l0.21-0.02l0.19-0.03l0.11-0.02l0.11,0.82H129.74
			L129.74,24.67z"/>
		<path class="st11" d="M134.27,24.67l0.11-0.82l0.11,0.02l0.19,0.03l0.21,0.02l0.1,0.01l0.01,0c0.05,0,0.08-0.02,0.08-0.04
			c0-0.02-0.02-0.05-0.05-0.07l-0.17-0.13c-0.37-0.28-0.62-1.05-0.62-1.87v-0.1l0.03-0.05l0.1-0.1l0.1-0.1l0.05-0.05
			c-0.04-0.04-0.07-0.07-0.09-0.09c-0.05-0.05-0.09-0.09-0.1-0.1c-0.02-0.02-0.05-0.05-0.09-0.1c-0.02-0.02-0.04-0.05-0.08-0.09
			h-0.01c-0.03,0.04-0.06,0.07-0.08,0.09c-0.04,0.05-0.07,0.08-0.09,0.1c-0.01,0.01-0.05,0.05-0.1,0.1
			c-0.02,0.02-0.05,0.05-0.09,0.09l0.06,0.05l0.1,0.1l0.1,0.1l0.03,0.05v0.1c0,0.82-0.25,1.59-0.62,1.87l-0.17,0.13
			c-0.03,0.02-0.05,0.05-0.05,0.07c0,0.02,0.03,0.04,0.08,0.04l0.01,0l0.1-0.01l0.21-0.02l0.19-0.03l0.11-0.02l0.11,0.82H134.27
			L134.27,24.67z"/>
		<path class="st11" d="M150.59,21.05l0.11-0.82l0.11,0.02l0.19,0.04l0.21,0.02l0.1,0.01l0.01,0c0.05,0,0.08-0.01,0.08-0.04
			c0-0.02-0.02-0.05-0.05-0.07l-0.17-0.13c-0.37-0.28-0.62-1.05-0.62-1.87v-0.1l0.04-0.05l0.1-0.1l0.1-0.1l0.06-0.05
			c-0.04-0.04-0.07-0.07-0.09-0.09c-0.05-0.05-0.09-0.09-0.1-0.1c-0.02-0.02-0.05-0.05-0.09-0.1c-0.02-0.02-0.04-0.05-0.08-0.09
			h-0.01c-0.04,0.04-0.06,0.07-0.08,0.09c-0.04,0.05-0.07,0.08-0.09,0.1c-0.01,0.02-0.05,0.05-0.1,0.1
			c-0.02,0.02-0.05,0.05-0.09,0.09l0.06,0.05l0.1,0.1l0.1,0.1l0.03,0.05v0.1c0,0.82-0.25,1.59-0.62,1.87l-0.17,0.13
			c-0.03,0.02-0.05,0.05-0.05,0.07c0,0.02,0.03,0.04,0.08,0.04l0.01,0l0.1-0.01l0.21-0.02l0.19-0.04l0.11-0.02l0.11,0.82H150.59
			L150.59,21.05z"/>
		<path class="st11" d="M155.12,21.05l0.11-0.82l0.11,0.02l0.19,0.04l0.21,0.02l0.1,0.01l0.01,0c0.05,0,0.08-0.01,0.08-0.04
			c0-0.02-0.02-0.05-0.05-0.07l-0.17-0.13c-0.37-0.28-0.62-1.05-0.62-1.87l0-0.1l0.03-0.05l0.1-0.1l0.1-0.1l0.06-0.05
			c-0.04-0.04-0.07-0.07-0.09-0.09c-0.05-0.05-0.09-0.09-0.1-0.1c-0.02-0.02-0.05-0.05-0.09-0.1c-0.02-0.02-0.04-0.05-0.08-0.09
			h-0.01c-0.03,0.04-0.06,0.07-0.08,0.09c-0.04,0.05-0.07,0.08-0.09,0.1c-0.01,0.02-0.05,0.05-0.1,0.1
			c-0.02,0.02-0.05,0.05-0.09,0.09l0.06,0.05l0.1,0.1l0.1,0.1l0.04,0.05v0.1c0,0.82-0.25,1.59-0.62,1.87l-0.17,0.13
			c-0.03,0.02-0.05,0.05-0.05,0.07c0,0.02,0.03,0.04,0.08,0.04l0.01,0l0.1-0.01l0.21-0.02l0.19-0.04l0.11-0.02l0.11,0.82H155.12
			L155.12,21.05z"/>
		<path class="st11" d="M160.56,21.05l0.11-0.82l0.11,0.02l0.19,0.04l0.21,0.02l0.1,0.01l0.01,0c0.05,0,0.08-0.01,0.08-0.04
			c0-0.02-0.02-0.05-0.05-0.07l-0.17-0.13c-0.37-0.28-0.62-1.05-0.62-1.87v-0.1l0.04-0.05l0.1-0.1l0.1-0.1l0.06-0.05
			c-0.04-0.04-0.07-0.07-0.09-0.09c-0.05-0.05-0.09-0.09-0.1-0.1c-0.02-0.02-0.05-0.05-0.09-0.1c-0.02-0.02-0.04-0.05-0.08-0.09
			h-0.01c-0.04,0.04-0.06,0.07-0.08,0.09c-0.04,0.05-0.07,0.08-0.09,0.1c-0.01,0.02-0.05,0.05-0.1,0.1
			c-0.02,0.02-0.05,0.05-0.09,0.09l0.06,0.05l0.1,0.1l0.1,0.1l0.03,0.05v0.1c0,0.82-0.25,1.59-0.62,1.87l-0.17,0.13
			c-0.03,0.02-0.05,0.05-0.05,0.07c0,0.02,0.03,0.04,0.08,0.04l0.01,0l0.1-0.01l0.21-0.02l0.19-0.04l0.11-0.02l0.11,0.82H160.56
			L160.56,21.05z"/>
		<path class="st11" d="M153.31,24.67l0.11-0.82l0.11,0.02l0.19,0.03l0.21,0.02l0.1,0.01l0.01,0c0.05,0,0.08-0.02,0.08-0.04
			c0-0.02-0.02-0.05-0.05-0.07l-0.17-0.13c-0.37-0.28-0.62-1.05-0.62-1.87v-0.1l0.04-0.05l0.1-0.1l0.1-0.1l0.05-0.05
			c-0.04-0.04-0.07-0.07-0.09-0.09c-0.05-0.05-0.09-0.09-0.1-0.1c-0.02-0.02-0.05-0.05-0.09-0.1c-0.02-0.02-0.04-0.05-0.08-0.09
			h-0.01c-0.03,0.04-0.06,0.07-0.08,0.09c-0.04,0.05-0.07,0.08-0.09,0.1c-0.01,0.01-0.05,0.05-0.1,0.1
			c-0.02,0.02-0.05,0.05-0.09,0.09l0.05,0.05l0.1,0.1l0.1,0.1l0.03,0.05v0.1c0,0.82-0.26,1.59-0.62,1.87l-0.17,0.13
			c-0.03,0.02-0.05,0.05-0.05,0.07c0,0.02,0.03,0.04,0.08,0.04l0.01,0l0.1-0.01l0.21-0.02l0.19-0.03l0.11-0.02l0.11,0.82H153.31
			L153.31,24.67z"/>
		<path class="st11" d="M157.84,24.67l0.11-0.82l0.11,0.02l0.19,0.03l0.21,0.02l0.1,0.01l0.01,0c0.05,0,0.08-0.02,0.08-0.04
			c0-0.02-0.02-0.05-0.05-0.07l-0.17-0.13c-0.37-0.28-0.62-1.05-0.62-1.87l0-0.1l0.03-0.05l0.1-0.1l0.1-0.1l0.06-0.05
			c-0.04-0.04-0.07-0.07-0.09-0.09c-0.05-0.05-0.09-0.09-0.1-0.1c-0.02-0.02-0.05-0.05-0.09-0.1c-0.02-0.02-0.04-0.05-0.08-0.09
			h-0.01c-0.04,0.04-0.06,0.07-0.08,0.09c-0.04,0.05-0.07,0.08-0.09,0.1c-0.01,0.01-0.05,0.05-0.1,0.1
			c-0.02,0.02-0.05,0.05-0.09,0.09l0.06,0.05l0.1,0.1l0.1,0.1l0.03,0.05v0.1c0,0.82-0.25,1.59-0.62,1.87l-0.17,0.13
			c-0.03,0.02-0.04,0.05-0.04,0.07c0,0.02,0.03,0.04,0.08,0.04l0.01,0l0.1-0.01l0.21-0.02l0.19-0.03l0.11-0.02l0.11,0.82H157.84
			L157.84,24.67z"/>
		<path class="st8" d="M124.02,0.9h20.35h18.89v30c-1.43,2.78-2.55,4.73-3.38,5.87c-0.82,1.13-2.12,2.51-3.89,4.13l-13.08,5.71
			c-4.94-2.19-8.65-4.06-11.16-5.63s-4.11-3.02-4.83-4.37c-1.06-2.23-1.79-4.06-2.2-5.47c-0.41-1.42-0.65-2.93-0.7-4.53V0.9z"/>
		<g class="st1">
			<g>
				<defs>
					<rect id="SVGID_12_" x="127.54" y="10.27" width="32.28" height="23.82"/>
				</defs>
				<clipPath id="SVGID_13_">
					<use xlink:href="#SVGID_12_"  style="overflow:visible;"/>
				</clipPath>
				<g class="st12">
					<g>
						<defs>
							<rect id="SVGID_14_" x="127.54" y="10.27" width="32.28" height="23.82"/>
						</defs>
						<clipPath id="SVGID_15_">
							<use xlink:href="#SVGID_14_"  style="overflow:visible;"/>
						</clipPath>
						<g class="st13">
							<path class="st14" d="M136.23,28.5c-1.56,0-2.91-0.31-4.04-0.92c-1.13-0.61-2-1.49-2.59-2.64c-0.6-1.15-0.9-2.53-0.9-4.14
								c0-1.59,0.3-2.96,0.9-4.1c0.6-1.15,1.45-2.03,2.56-2.64s2.43-0.92,3.94-0.92c1.05,0,2.04,0.15,2.95,0.44
								c0.91,0.3,1.69,0.73,2.32,1.31l-0.93,1.98c-0.72-0.55-1.41-0.95-2.09-1.19c-0.68-0.25-1.41-0.37-2.22-0.37
								c-1.53,0-2.7,0.46-3.49,1.39c-0.8,0.93-1.19,2.29-1.19,4.09c0,1.84,0.41,3.23,1.22,4.17c0.82,0.94,2.03,1.4,3.65,1.4
								c0.62,0,1.23-0.05,1.83-0.16c0.6-0.1,1.16-0.26,1.7-0.45l-0.63,1.01v-4.6h-3.23v-1.96h5.7v7.22
								c-0.46,0.24-0.99,0.44-1.58,0.59c-0.59,0.15-1.22,0.27-1.88,0.36C137.57,28.46,136.9,28.5,136.23,28.5z"/>
							<path class="st14" d="M151.6,28.5c-1.46,0-2.73-0.31-3.8-0.93c-1.07-0.62-1.89-1.51-2.47-2.66
								c-0.58-1.15-0.87-2.52-0.87-4.09c0-1.59,0.29-2.96,0.87-4.1c0.58-1.15,1.4-2.03,2.47-2.65c1.07-0.62,2.33-0.93,3.8-0.93
								c1.48,0,2.75,0.31,3.82,0.93c1.07,0.62,1.89,1.5,2.47,2.65c0.58,1.15,0.87,2.51,0.87,4.08c0,1.59-0.29,2.96-0.88,4.11
								c-0.58,1.15-1.41,2.04-2.47,2.66C154.35,28.19,153.08,28.5,151.6,28.5z M151.6,26.35c1.38,0,2.46-0.47,3.25-1.42
								c0.79-0.95,1.18-2.32,1.18-4.12c0-1.8-0.39-3.17-1.18-4.1c-0.79-0.94-1.87-1.4-3.25-1.4c-1.36,0-2.44,0.47-3.23,1.4
								c-0.79,0.94-1.18,2.3-1.18,4.1c0,1.8,0.39,3.17,1.18,4.12C149.17,25.87,150.24,26.35,151.6,26.35z"/>
						</g>
					</g>
				</g>
			</g>
		</g>
	</g>
</g>
</svg>
