<?xml version="1.0" standalone="no"?>
<!DOCTYPE svg PUBLIC "-//W3C//DTD SVG 20010904//EN"
 "http://www.w3.org/TR/2001/REC-SVG-20010904/DTD/svg10.dtd">
<svg version="1.0" xmlns="http://www.w3.org/2000/svg"
 width="199.000000pt" height="81.000000pt" viewBox="0 0 199.000000 81.000000"
 preserveAspectRatio="xMidYMid meet">
<metadata>
Created by potrace 1.15, written by Peter Selinger 2001-2017
</metadata>
<g transform="translate(0.000000,81.000000) scale(0.100000,-0.100000)"
fill="#000000" stroke="none">
<path d="M490 581 c0 -243 0 -246 50 -253 22 -3 25 -9 28 -47 l3 -43 -66 4
c-55 3 -70 8 -93 31 l-27 27 -5 223 -5 222 -25 -3 c-45 -4 -60 -35 -60 -126
-1 -89 -11 -117 -54 -146 l-29 -18 30 -15 c41 -22 53 -56 53 -152 0 -72 3 -88
20 -105 11 -11 24 -20 30 -20 6 0 10 -13 10 -30 0 -28 -3 -30 -35 -30 -20 0
-49 7 -65 15 -32 17 -70 65 -70 89 0 19 -12 20 -78 5 -90 -19 -126 -96 -73
-153 47 -50 71 -51 966 -51 895 0 919 1 966 51 31 33 31 85 0 118 -24 26 -93
46 -156 46 l-35 0 0 69 c0 75 23 121 61 121 14 0 19 7 19 29 0 28 -24 60 -37
47 -3 -3 -1 -6 5 -6 25 0 11 -46 -22 -72 l-34 -27 -4 -106 c-3 -102 -4 -106
-35 -136 -24 -25 -42 -33 -82 -37 l-51 -5 0 32 c0 17 4 31 8 31 5 0 17 6 28
14 16 12 20 31 24 117 l6 102 36 31 36 31 -25 19 c-36 27 -53 76 -53 155 0 83
-5 100 -36 112 -18 6 -24 16 -24 39 l0 30 -550 0 -550 0 0 -229z m350 51 c49
-27 83 -90 84 -161 l1 -56 -127 -3 c-136 -3 -143 -6 -113 -49 23 -32 81 -45
145 -33 29 6 55 8 57 6 3 -2 7 -22 10 -44 5 -40 5 -41 -33 -48 -22 -5 -69 -8
-105 -8 -128 0 -199 73 -199 202 0 97 38 168 105 198 44 20 134 17 175 -4z
m366 8 c23 -9 26 -14 20 -42 -9 -45 -15 -48 -62 -36 -51 14 -94 4 -94 -21 0
-24 15 -35 69 -50 24 -7 57 -26 73 -41 23 -24 28 -37 28 -80 0 -45 -4 -56 -33
-85 -45 -45 -120 -62 -201 -45 l-58 12 5 40 c3 22 8 42 10 45 3 2 22 0 44 -6
57 -16 91 -13 113 9 29 29 15 47 -54 70 -100 33 -134 88 -102 163 22 54 67 77
148 77 37 0 79 -5 94 -10z m303 4 c25 -5 31 -12 31 -31 0 -13 -4 -32 -9 -42
-9 -16 -16 -17 -61 -7 -57 11 -85 2 -85 -30 0 -14 15 -24 59 -40 75 -26 103
-51 112 -100 13 -72 -50 -145 -138 -158 -39 -6 -144 7 -156 19 -3 3 -1 22 4
43 7 29 14 36 29 34 11 -1 40 -5 65 -8 36 -5 50 -2 70 14 35 29 18 52 -56 74
-77 23 -104 53 -104 116 0 53 19 83 65 106 31 16 118 21 174 10z"/>
</g>
</svg>
