<?xml version="1.0" encoding="utf-8"?>
<!-- Generator: Adobe Illustrator 18.1.0, SVG Export Plug-In . SVG Version: 6.00 Build 0)  -->
<!DOCTYPE svg PUBLIC "-//W3C//DTD SVG 1.1//EN" "http://www.w3.org/Graphics/SVG/1.1/DTD/svg11.dtd">
<svg version="1.1" xmlns="http://www.w3.org/2000/svg" xmlns:xlink="http://www.w3.org/1999/xlink" x="0px" y="0px" width="32px"
	 height="32px" viewBox="0 0 32 32" enable-background="new 0 0 32 32" xml:space="preserve">
<g id="icons">
	<g>
		<path fill="#4D4D4D" d="M19,14v-2.5C19,9.6,17.4,8,15.5,8S12,9.6,12,11.5V14h-2v8c0,1.1,0.9,2,2,2h7c1.1,0,2-0.9,2-2v-8H19z
			 M13,11.5c0-1.4,1.1-2.5,2.5-2.5s2.5,1.1,2.5,2.5V14h-5V11.5z M20,22c0,0.6-0.4,1-1,1h-7c-0.6,0-1-0.4-1-1v-7h9V22z"/>
		<rect x="15" y="17" fill="#4D4D4D" width="1" height="4"/>
	</g>
</g>
<g id="working">
</g>
<g id="colour:_negative">
</g>
</svg>
