<?xml version="1.0" encoding="utf-8"?>
<!-- Generator: Adobe Illustrator 18.1.0, SVG Export Plug-In . SVG Version: 6.00 Build 0)  -->
<!DOCTYPE svg PUBLIC "-//W3C//DTD SVG 1.1//EN" "http://www.w3.org/Graphics/SVG/1.1/DTD/svg11.dtd">
<svg version="1.1" xmlns="http://www.w3.org/2000/svg" xmlns:xlink="http://www.w3.org/1999/xlink" x="0px" y="0px" width="32px"
	 height="32px" viewBox="0 0 32 32" enable-background="new 0 0 32 32" xml:space="preserve">
<g id="icons">
	<path fill="#4D4D4D" d="M23,17v-2l-1.5-0.2c-0.4-0.1-0.7-0.3-0.9-0.7c0,0,0,0,0,0c-0.2-0.4-0.1-0.8,0.1-1.1l0.9-1.2l-1.4-1.4
		L19,11.3c-0.3,0.2-0.7,0.3-1.1,0.1c0,0,0,0,0,0c-0.4-0.2-0.6-0.5-0.7-0.9L17,9h-2l-0.2,1.5c-0.1,0.4-0.3,0.7-0.7,0.9c0,0,0,0,0,0
		c-0.4,0.2-0.8,0.1-1.1-0.1l-1.2-0.9l-1.4,1.4l0.9,1.2c0.2,0.3,0.3,0.7,0.1,1.1c0,0,0,0,0,0c-0.2,0.4-0.5,0.6-0.9,0.7L9,15v2
		l1.5,0.2c0.4,0.1,0.7,0.3,0.9,0.7c0,0,0,0,0,0c0.2,0.4,0.1,0.8-0.1,1.1l-0.9,1.2l1.4,1.4l1.2-0.9c0.3-0.2,0.7-0.3,1.1-0.1
		c0,0,0,0,0,0c0.4,0.2,0.6,0.5,0.7,0.9L15,23h2l0.2-1.5c0.1-0.4,0.3-0.7,0.7-0.9c0,0,0,0,0,0c0.4-0.2,0.8-0.1,1.1,0.1l1.2,0.9
		l1.4-1.4L20.7,19c-0.2-0.3-0.3-0.7-0.1-1.1c0,0,0,0,0,0c0.2-0.4,0.5-0.6,0.9-0.7L23,17z M16,19.5c-1.9,0-3.5-1.6-3.5-3.5
		s1.6-3.5,3.5-3.5s3.5,1.6,3.5,3.5S17.9,19.5,16,19.5z"/>
</g>
<g id="working">
</g>
<g id="colour:_negative">
</g>
</svg>
