<?xml version="1.0" encoding="utf-8"?>
<!-- Generator: Adobe Illustrator 18.1.0, SVG Export Plug-In . SVG Version: 6.00 Build 0)  -->
<!DOCTYPE svg PUBLIC "-//W3C//DTD SVG 1.1//EN" "http://www.w3.org/Graphics/SVG/1.1/DTD/svg11.dtd">
<svg version="1.1" xmlns="http://www.w3.org/2000/svg" xmlns:xlink="http://www.w3.org/1999/xlink" x="0px" y="0px" width="32px"
	 height="32px" viewBox="0 0 32 32" enable-background="new 0 0 32 32" xml:space="preserve">
<g id="icons">
	<g>
		<polygon fill="#777777" points="22.6,15.4 22.8,12.5 22.8,9.9 21.3,9.9 21.3,12.5 21.4,15.4 		"/>
		<path fill="#777777" d="M22,16.3c-0.5,0-0.8,0.3-0.8,0.8c0,0.4,0.3,0.8,0.8,0.8c0.5,0,0.8-0.3,0.8-0.8
			C22.8,16.6,22.5,16.3,22,16.3z"/>
		<path fill="#777777" d="M22,6c-4.4,0-8,3.6-8,8H2.8l8.2,6.4l3.8-2.9l0,0c0.1,0.3,0.3,0.6,0.5,0.9L11,21.6l-9-7V25c0,0.6,0.4,1,1,1
			h16c0.6,0,1-0.4,1-1v-3.3l0,0c0.6,0.2,1.3,0.3,2,0.3c4.4,0,8-3.6,8-8S26.4,6,22,6z M22,21c-3.9,0-7-3.1-7-7s3.1-7,7-7s7,3.1,7,7
			S25.9,21,22,21z"/>
	</g>
</g>
<g id="working">
</g>
<g id="colour:_negative">
</g>
</svg>
