<?xml version="1.0" encoding="UTF-8"?>
<svg width="12px" height="14px" viewBox="0 0 12 14" version="1.1" xmlns="http://www.w3.org/2000/svg" xmlns:xlink="http://www.w3.org/1999/xlink">
    <!-- Generator: Sketch 52.4 (67378) - http://www.bohemiancoding.com/sketch -->
    <title>1x/1x_reset</title>
    <desc>Created with Sketch.</desc>
    <g id="HUB-162---How-the-resources-appear-on-the-page" stroke="none" stroke-width="1" fill="none" fill-rule="evenodd">
        <g id="My-resources---Full-page-Copy" transform="translate(-545.000000, -432.000000)" fill="#3C3C3C">
            <path d="M555.502191,440.445844 C555.143088,443.019497 552.743802,444.921153 550.058439,444.338601 C548.353267,443.96838 546.967297,442.544277 546.608947,440.783397 C545.996892,437.772636 548.005457,435.111094 551.016798,435.111094 L551.016798,436.666642 L554.780974,434.333321 L551.016798,432 L551.016798,433.555547 C547.252621,433.555547 544.370015,437.042306 545.119086,441.026063 C545.575304,443.451939 547.470944,445.407262 549.819037,445.878592 C553.377689,446.592589 556.527552,444.067935 556.992805,440.653509 C557.056043,440.189956 556.693929,439.777736 556.241475,439.777736 L556.242228,439.777736 C555.868069,439.777736 555.555642,440.063179 555.502191,440.445844" id="reset"></path>
        </g>
    </g>
</svg>