<?xml version="1.0" encoding="utf-8"?>
<!-- Generator: Adobe Illustrator 18.1.0, SVG Export Plug-In . SVG Version: 6.00 Build 0)  -->
<!DOCTYPE svg PUBLIC "-//W3C//DTD SVG 1.1//EN" "http://www.w3.org/Graphics/SVG/1.1/DTD/svg11.dtd">
<svg version="1.1" xmlns="http://www.w3.org/2000/svg" xmlns:xlink="http://www.w3.org/1999/xlink" x="0px" y="0px" width="32px"
	 height="32px" viewBox="0 0 32 32" enable-background="new 0 0 32 32" xml:space="preserve">
<g id="icons">
	<path fill="#777777" d="M23,8H9C8.4,8,8,8.4,8,9v14c0,0.6,0.4,1,1,1h7.5v-6.2h-2.1v-2.4h2.1v-1.8c0-2.1,1.3-3.2,3.1-3.2
		c0.9,0,1.6,0.1,1.9,0.1v2.2l-1.3,0c-1,0-1.2,0.5-1.2,1.2v1.5h2.4l-0.3,2.4H19V24h4c0.6,0,1-0.4,1-1V9C24,8.4,23.6,8,23,8z"/>
</g>
<g id="working">
</g>
<g id="colour:_negative">
</g>
</svg>
