<?xml version="1.0" encoding="utf-8"?>
<!-- Generator: Adobe Illustrator 18.1.0, SVG Export Plug-In . SVG Version: 6.00 Build 0)  -->
<!DOCTYPE svg PUBLIC "-//W3C//DTD SVG 1.1//EN" "http://www.w3.org/Graphics/SVG/1.1/DTD/svg11.dtd">
<svg version="1.1" xmlns="http://www.w3.org/2000/svg" xmlns:xlink="http://www.w3.org/1999/xlink" x="0px" y="0px" width="32px"
	 height="32px" viewBox="0 0 32 32" enable-background="new 0 0 32 32" xml:space="preserve">
<g id="icons">
	<g>
		<path fill="#777777" d="M14.8,11.6c-0.2-0.2-0.5-0.2-0.8-0.3c-0.4,0-0.7,0.2-0.9,0.5c-0.2,0.3-0.3,0.7-0.3,1c0,0.5,0.1,1,0.4,1.6
			c0.1,0.3,0.3,0.5,0.5,0.6c0.2,0.2,0.5,0.3,0.8,0.3c0.4,0,0.7-0.1,0.9-0.4c0.1-0.2,0.2-0.4,0.2-0.5c0-0.2,0-0.3,0-0.5
			c0-0.5-0.1-1.1-0.4-1.7C15.2,12,15,11.8,14.8,11.6z"/>
		<path fill="#777777" d="M23,8H9C8.4,8,8,8.4,8,9v14c0,0.6,0.4,1,1,1h14c0.6,0,1-0.4,1-1V9C24,8.4,23.6,8,23,8z M16.2,11.6
			c0.1,0.1,0.2,0.2,0.3,0.4c0.1,0.1,0.2,0.3,0.3,0.5c0.1,0.2,0.1,0.4,0.1,0.7c0,0.5-0.1,0.9-0.3,1.2c-0.1,0.1-0.2,0.3-0.3,0.4
			c-0.1,0.1-0.3,0.2-0.4,0.4c-0.1,0.1-0.2,0.2-0.2,0.3c-0.1,0.1-0.1,0.2-0.1,0.4c0,0.1,0,0.3,0.1,0.4c0.1,0.1,0.1,0.2,0.2,0.2
			l0.5,0.4c0.3,0.2,0.5,0.5,0.8,0.8c0.2,0.3,0.3,0.7,0.3,1.2c0,0.7-0.3,1.3-0.9,1.8c-0.6,0.5-1.5,0.8-2.7,0.8c-1,0-1.7-0.2-2.2-0.6
			c-0.5-0.4-0.7-0.8-0.7-1.4c0-0.3,0.1-0.5,0.2-0.9c0.2-0.3,0.4-0.6,0.8-0.8c0.4-0.3,0.9-0.4,1.4-0.5c0.5-0.1,0.9-0.1,1.2-0.1
			c-0.1-0.1-0.2-0.3-0.3-0.4c-0.1-0.1-0.1-0.3-0.1-0.5c0-0.1,0-0.2,0.1-0.3c0-0.1,0.1-0.2,0.1-0.2c-0.2,0-0.3,0-0.4,0
			c-0.7,0-1.3-0.2-1.7-0.7c-0.4-0.4-0.6-0.9-0.6-1.5c0-0.7,0.3-1.3,0.9-1.9c0.4-0.3,0.8-0.5,1.2-0.6c0.4-0.1,0.8-0.1,1.2-0.1h2.8
			l-0.9,0.5H16C16,11.5,16.1,11.5,16.2,11.6z M22,16h-1.5v1.5h-0.8V16h-1.5v-0.8h1.5v-1.5h0.8v1.5H22V16z"/>
		<path fill="#777777" d="M14.7,17.5c-0.1,0-0.3,0-0.5,0c-0.3,0-0.6,0.1-0.9,0.2c-0.1,0-0.2,0.1-0.3,0.1c-0.1,0.1-0.3,0.1-0.4,0.3
			c-0.1,0.1-0.2,0.3-0.3,0.4c-0.1,0.2-0.2,0.4-0.2,0.6c0,0.5,0.2,0.9,0.7,1.2c0.4,0.3,1,0.5,1.7,0.5c0.7,0,1.1-0.2,1.5-0.4
			c0.3-0.3,0.5-0.6,0.5-1.1c0-0.4-0.1-0.7-0.3-0.9c-0.2-0.2-0.6-0.6-1.1-0.9C14.9,17.5,14.8,17.5,14.7,17.5z"/>
	</g>
</g>
<g id="working">
</g>
<g id="colour:_negative">
</g>
</svg>
