<?xml version="1.0" encoding="utf-8"?>
<!-- Generator: Adobe Illustrator 18.1.0, SVG Export Plug-In . SVG Version: 6.00 Build 0)  -->
<!DOCTYPE svg PUBLIC "-//W3C//DTD SVG 1.1//EN" "http://www.w3.org/Graphics/SVG/1.1/DTD/svg11.dtd">
<svg version="1.1" xmlns="http://www.w3.org/2000/svg" xmlns:xlink="http://www.w3.org/1999/xlink" x="0px" y="0px" width="32px"
	 height="32px" viewBox="0 0 32 32" enable-background="new 0 0 32 32" xml:space="preserve">
<g id="icons">
	<path fill="#777777" d="M23,8H9C8.4,8,8,8.4,8,9v14c0,0.6,0.4,1,1,1h14c0.6,0,1-0.4,1-1V9C24,8.4,23.6,8,23,8z M20,14.5
		c0,0.1,0,0.2,0,0.2c0,2.4-1.9,5.3-5.3,5.3c-1,0-2-0.3-2.8-0.8c0.1,0,0.3,0,0.4,0c0.9,0,1.7-0.3,2.3-0.8c-0.8,0-1.5-0.5-1.7-1.3
		c0.1,0,0.2,0,0.3,0c0.2,0,0.3,0,0.5-0.1c-0.8-0.2-1.5-0.9-1.5-1.8c0,0,0,0,0,0c0.2,0.1,0.5,0.2,0.8,0.2c-0.5-0.3-0.8-0.9-0.8-1.5
		c0-0.3,0.1-0.7,0.2-0.9c0.9,1.1,2.3,1.9,3.8,1.9c-0.1-0.5,0-1.1,0.3-1.7c1-0.9,2.2-0.7,2.8,0c0.4-0.1,0.8-0.2,1.2-0.4
		c-0.1,0.4-0.4,0.8-0.8,1c0.4,0,0.7-0.1,1.1-0.3C20.6,13.9,20.3,14.2,20,14.5z"/>
</g>
<g id="working">
</g>
<g id="colour:_negative">
</g>
</svg>
