<?xml version="1.0" encoding="utf-8"?>
<!-- Generator: Adobe Illustrator 18.1.0, SVG Export Plug-In . SVG Version: 6.00 Build 0)  -->
<!DOCTYPE svg PUBLIC "-//W3C//DTD SVG 1.1//EN" "http://www.w3.org/Graphics/SVG/1.1/DTD/svg11.dtd">
<svg version="1.1" id="Layer_1" xmlns="http://www.w3.org/2000/svg" xmlns:xlink="http://www.w3.org/1999/xlink" x="0px" y="0px"
	 width="32px" height="36px" viewBox="0 -4 32 36" enable-background="new 0 -4 32 36" xml:space="preserve">
<g id="icons">
	<path opacity="0.16" enable-background="new    " d="M30,32H2c-1.1,0-2-0.9-2-2V2c0-1.1,0.9-2,2-2h28c1.1,0,2,0.9,2,2v28
		C32,31.1,31.1,32,30,32z"/>
	<path fill="#AB3A25" d="M30,30H2c-1.1,0-2-0.9-2-2V0c0-1.1,0.9-2,2-2h28c1.1,0,2,0.9,2,2v28C32,29.1,31.1,30,30,30z"/>
	<path fill="#CD5943" d="M30,28H2c-1.1,0-2-0.9-2-2V-2c0-1.1,0.9-2,2-2h28c1.1,0,2,0.9,2,2v28C32,27.1,31.1,28,30,28z"/>
	<path opacity="8.000000e-02" enable-background="new    " d="M19.3,2.9h-5.5c-0.7,0-1.5,0.1-2.4,0.3C10.6,3.3,9.8,3.7,9,4.4
		C7.8,5.5,7.3,6.7,7.3,8.1c0,1.1,0.4,2.1,1.2,3s1.9,1.4,3.4,1.4c0.3,0,0.6,0,0.9-0.1c-0.1,0.1-0.1,0.3-0.2,0.5
		c-0.1,0.2-0.1,0.4-0.1,0.6c0,0.4,0.1,0.8,0.3,1c0.2,0.3,0.3,0.6,0.5,0.8c-0.6,0-1.5,0.1-2.4,0.2c-1,0.2-1.9,0.5-2.8,1
		c-0.8,0.5-1.3,1-1.7,1.7C6,19,5.9,19.5,5.9,20c0,1.1,0.5,2,1.4,2.7c1,0.8,2.4,1.2,4.3,1.2c2.3,0,4.1-0.6,5.3-1.7
		c1.2-1,1.8-2.2,1.8-3.6c0-0.9-0.2-1.7-0.6-2.3c-0.4-0.6-1-1.1-1.5-1.6l-0.9-0.8c-0.1-0.1-0.3-0.3-0.4-0.5c-0.3,0-0.3-0.2-0.3-0.5
		s0.1-0.6,0.2-0.8c0.1-0.2,0.3-0.4,0.5-0.6c0.3-0.3,0.6-0.5,0.8-0.7s0.4-0.5,0.7-0.8c0.4-0.6,0.6-1.4,0.7-2.4c0-0.5-0.1-1-0.2-1.4
		s-0.3-0.8-0.5-1.1c-0.2-0.3-0.4-0.6-0.6-0.8c-0.2-0.2-0.4-0.4-0.6-0.5h1.7L19.3,2.9z M16.3,18c0.5,0.5,0.7,1.1,0.7,1.8
		c0,0.9-0.3,1.6-1,2.1c-0.7,0.6-1.7,0.8-3,0.9c-1.5,0-2.6-0.3-3.4-1c-0.9-0.6-1.3-1.4-1.3-2.4c0-0.5,0.1-0.9,0.3-1.3
		c0.2-0.3,0.4-0.6,0.6-0.8c0.3-0.2,0.5-0.4,0.8-0.5s0.5-0.2,0.6-0.2c0.6-0.2,1.2-0.3,1.8-0.4s0.9-0.1,1.1-0.1c0.2,0,0.4,0,0.6,0
		C15,16.9,15.8,17.5,16.3,18z M15.4,9.8c-0.1,0.4-0.2,0.7-0.5,1.1c-0.5,0.5-1.1,0.8-1.8,0.8c-0.6,0-1.1-0.2-1.5-0.5
		c-0.4-0.4-0.8-0.8-1.1-1.3C9.9,8.8,9.6,7.8,9.6,6.8c0-0.8,0.2-1.4,0.6-2.1c0.5-0.6,1.1-0.9,1.9-0.9c0.6,0,1.1,0.2,1.5,0.5
		s0.8,0.8,1,1.3c0.6,1.1,0.8,2.2,0.8,3.3C15.4,9.2,15.4,9.5,15.4,9.8z"/>
	<polygon opacity="8.000000e-02" enable-background="new    " points="25,11.5 25,8.6 23.3,8.6 23.3,11.5 20.4,11.5 20.4,13.2 
		23.3,13.2 23.3,16.1 25,16.1 25,13.2 27.9,13.2 27.9,11.5 	"/>
	<g>
		<path fill="#FFFFFF" d="M19.3,2.4h-5.5c-0.7,0-1.5,0.1-2.4,0.3C10.6,2.9,9.8,3.3,9,3.9C7.8,5.1,7.3,6.3,7.3,7.7
			c0,1.1,0.4,2.1,1.2,3c0.8,0.9,1.9,1.4,3.4,1.4c0.3,0,0.6,0,0.9-0.1c-0.1,0.1-0.1,0.3-0.2,0.5c-0.1,0.2-0.1,0.4-0.1,0.6
			c0,0.4,0.1,0.8,0.3,1c0.2,0.3,0.3,0.6,0.5,0.8c-0.6,0-1.5,0.1-2.4,0.2c-1,0.2-1.9,0.5-2.8,1c-0.8,0.5-1.3,1-1.7,1.7
			c-0.3,0.6-0.5,1.2-0.5,1.7c0,1.1,0.5,2,1.4,2.7c1,0.8,2.4,1.2,4.3,1.2c2.3,0,4.1-0.6,5.3-1.7c1.2-1,1.8-2.2,1.8-3.6
			c0-0.9-0.2-1.7-0.6-2.3c-0.4-0.6-1-1.1-1.5-1.6l-0.9-0.8c-0.1-0.1-0.3-0.3-0.4-0.5C15,13,15,12.7,15,12.5c0-0.3,0.1-0.6,0.2-0.8
			c0.1-0.2,0.3-0.4,0.5-0.6c0.3-0.3,0.6-0.5,0.8-0.7s0.4-0.5,0.7-0.8c0.4-0.6,0.6-1.4,0.7-2.4c0-0.5-0.1-1-0.2-1.4S17.4,5,17.2,4.7
			c-0.2-0.3-0.4-0.6-0.6-0.8S16.2,3.5,16,3.4h1.7L19.3,2.4z M16.3,17.6c0.5,0.5,0.7,1.1,0.7,1.8c0,0.9-0.3,1.6-1,2.1
			c-0.7,0.6-1.7,0.8-3,0.9c-1.5,0-2.6-0.3-3.4-1C8.7,20.8,8.2,20,8.2,19c0-0.5,0.1-0.9,0.3-1.3c0.2-0.3,0.4-0.6,0.6-0.8
			c0.3-0.2,0.5-0.4,0.8-0.5s0.5-0.2,0.6-0.2c0.6-0.2,1.2-0.3,1.8-0.4c0.6-0.1,0.9-0.1,1.1-0.1c0.2,0,0.4,0,0.6,0
			C15,16.4,15.8,17.1,16.3,17.6z M15.4,9.4c-0.1,0.4-0.2,0.7-0.5,1.1c-0.5,0.5-1.1,0.8-1.8,0.8c-0.6,0-1.1-0.2-1.5-0.5
			c-0.4-0.4-0.8-0.8-1.1-1.3C9.9,8.4,9.6,7.3,9.6,6.3c0-0.8,0.2-1.4,0.6-2.1c0.5-0.6,1.1-0.9,1.9-0.9c0.6,0,1.1,0.2,1.5,0.5
			s0.8,0.8,1,1.3c0.6,1.1,0.8,2.2,0.8,3.3C15.4,8.7,15.4,9,15.4,9.4z"/>
		<polygon fill="#FFFFFF" points="25,11.1 25,8.1 23.3,8.1 23.3,11.1 20.4,11.1 20.4,12.7 23.3,12.7 23.3,15.6 25,15.6 25,12.7 
			27.9,12.7 27.9,11.1 		"/>
	</g>
</g>
<g id="working">
</g>
<g id="colour:_negative">
</g>
</svg>
