<?xml version="1.0" encoding="utf-8"?>
<!-- Generator: Adobe Illustrator 18.1.0, SVG Export Plug-In . SVG Version: 6.00 Build 0)  -->
<!DOCTYPE svg PUBLIC "-//W3C//DTD SVG 1.1//EN" "http://www.w3.org/Graphics/SVG/1.1/DTD/svg11.dtd">
<svg version="1.1" id="Layer_1" xmlns="http://www.w3.org/2000/svg" xmlns:xlink="http://www.w3.org/1999/xlink" x="0px" y="0px"
	 width="32px" height="36px" viewBox="0 -4 32 36" enable-background="new 0 -4 32 36" xml:space="preserve">
<g id="icons">
	<path opacity="0.16" enable-background="new    " d="M30,32H2c-1.1,0-2-0.9-2-2V2c0-1.1,0.9-2,2-2h28c1.1,0,2,0.9,2,2v28
		C32,31.1,31.1,32,30,32z"/>
	<path fill="#2B94CA" d="M30,30H2c-1.1,0-2-0.9-2-2V0c0-1.1,0.9-2,2-2h28c1.1,0,2,0.9,2,2v28C32,29.1,31.1,30,30,30z"/>
	<path fill="#4CB6EC" d="M30,28H2c-1.1,0-2-0.9-2-2V-2c0-1.1,0.9-2,2-2h28c1.1,0,2,0.9,2,2v28C32,27.1,31.1,28,30,28z"/>
	<path opacity="8.000000e-02" enable-background="new    " d="M25.2,7.3c-0.7,0.3-1.4,0.5-2.1,0.6c0.8-0.5,1.3-1.2,1.6-2
		c-0.7,0.4-1.5,0.7-2.3,0.9c-0.7-0.7-1.6-1.2-2.7-1.2c-2,0-3.7,1.7-3.7,3.7c0,0.3,0,0.6,0.1,0.8C13,10,10.3,8.5,8.5,6.3
		C8.2,6.8,8,7.5,8,8.1c0,1.3,0.7,2.4,1.6,3.1c-0.6,0-1.2-0.2-1.7-0.5l0,0c0,1.8,1.3,3.3,3,3.6c-0.3,0.1-0.6,0.1-1,0.1
		c-0.2,0-0.5,0-0.7-0.1c0.5,1.5,1.8,2.5,3.4,2.6c-1.3,1-2.9,1.6-4.6,1.6c-0.3,0-0.6,0-0.9-0.1c1.6,1,3.6,1.7,5.7,1.7
		c6.8,0,10.5-5.6,10.5-10.5c0-0.2,0-0.3,0-0.5C24.1,8.7,24.7,8.1,25.2,7.3z"/>
	<path fill="#FFFFFF" d="M25.2,6.7c-0.7,0.3-1.4,0.5-2.1,0.6c0.8-0.5,1.3-1.2,1.6-2C24,5.7,23.2,6,22.4,6.2C21.7,5.4,20.7,5,19.7,5
		c-2,0-3.7,1.7-3.7,3.7c0,0.3,0,0.6,0.1,0.8C13,9.4,10.3,7.9,8.5,5.7C8.2,6.2,8,6.9,8,7.5c0,1.3,0.7,2.4,1.6,3.1
		c-0.6,0-1.2-0.2-1.7-0.5l0,0c0,1.8,1.3,3.3,3,3.6c-0.3,0.1-0.6,0.1-1,0.1c-0.2,0-0.5,0-0.7-0.1c0.5,1.5,1.8,2.5,3.4,2.6
		c-1.3,1-2.9,1.6-4.6,1.6c-0.3,0-0.6,0-0.9-0.1c1.6,1,3.6,1.7,5.7,1.7c6.8,0,10.5-5.6,10.5-10.5c0-0.2,0-0.3,0-0.5
		C24.1,8.1,24.7,7.5,25.2,6.7z"/>
</g>
<g id="working">
</g>
<g id="colour:_negative">
</g>
</svg>
