<?xml version="1.0" encoding="utf-8"?>
<!-- Generator: Adobe Illustrator 18.1.0, SVG Export Plug-In . SVG Version: 6.00 Build 0)  -->
<!DOCTYPE svg PUBLIC "-//W3C//DTD SVG 1.1//EN" "http://www.w3.org/Graphics/SVG/1.1/DTD/svg11.dtd">
<svg version="1.1" id="Layer_1" xmlns="http://www.w3.org/2000/svg" xmlns:xlink="http://www.w3.org/1999/xlink" x="0px" y="0px"
	 width="32px" height="36px" viewBox="0 0 32 36" enable-background="new 0 0 32 36" xml:space="preserve">
<g id="icons">
	<g>
		<path fill="#3D5E95" d="M30,32H2c-1.1,0-2-0.9-2-2V2c0-1.1,0.9-2,2-2h28c1.1,0,2,0.9,2,2v28C32,31.1,31.1,32,30,32z"/>
		<path id="f_4_" fill="#FFFFFF" d="M22.1,32V19.6h4.2l0.6-4.8h-4.8v-3.1c0-1.4,0.4-2.4,2.4-2.4h2.6V5c-0.4-0.1-2-0.2-3.7-0.2
			c-3.7,0-6.2,2.3-6.2,6.4v3.6H13v4.8h4.2V32H22.1z"/>
	</g>
</g>
<g id="working">
</g>
<g id="colour:_negative">
</g>
</svg>
