<?xml version="1.0" encoding="utf-8"?>
<!-- Generator: Adobe Illustrator 18.1.0, SVG Export Plug-In . SVG Version: 6.00 Build 0)  -->
<!DOCTYPE svg PUBLIC "-//W3C//DTD SVG 1.1//EN" "http://www.w3.org/Graphics/SVG/1.1/DTD/svg11.dtd">
<svg version="1.1" id="Layer_1" xmlns="http://www.w3.org/2000/svg" xmlns:xlink="http://www.w3.org/1999/xlink" x="0px" y="0px"
	 width="32px" height="36px" viewBox="0 -4 32 36" enable-background="new 0 -4 32 36" xml:space="preserve">
<g id="icons">
	<path opacity="0.16" enable-background="new    " d="M30,32H2c-1.1,0-2-0.9-2-2V2c0-1.1,0.9-2,2-2h28c1.1,0,2,0.9,2,2v28
		C32,31.1,31.1,32,30,32z"/>
	<path fill="#99221F" d="M30,30H2c-1.1,0-2-0.9-2-2V0c0-1.1,0.9-2,2-2h28c1.1,0,2,0.9,2,2v28C32,29.1,31.1,30,30,30z"/>
	<path fill="#BB3E3A" d="M30,28H2c-1.1,0-2-0.9-2-2V-2c0-1.1,0.9-2,2-2h28c1.1,0,2,0.9,2,2v28C32,27.1,31.1,28,30,28z"/>
	<g id="Lozenge_3_">
		<g>
			
				<radialGradient id="SVGID_1_" cx="26.9626" cy="20.5298" r="7.1134" gradientTransform="matrix(0.9643 0 0 -0.7055 -9 25.954)" gradientUnits="userSpaceOnUse">
				<stop  offset="0" style="stop-color:#F1F1F1"/>
				<stop  offset="1" style="stop-color:#FFFFFF"/>
			</radialGradient>
			<polygon fill="url(#SVGID_1_)" points="11,5 11,17.9 23,11.5 			"/>
		</g>
	</g>
	<path id="The_Sharpness_2_" opacity="0.2" fill="#3B0A08" enable-background="new    " d="M11,5l10.5,7.3l1.5-0.8L11,5z"/>
</g>
<g id="working">
</g>
<g id="colour:_negative">
</g>
</svg>
