<?xml version="1.0" encoding="utf-8"?>
<!-- Generator: Adobe Illustrator 18.1.0, SVG Export Plug-In . SVG Version: 6.00 Build 0)  -->
<!DOCTYPE svg PUBLIC "-//W3C//DTD SVG 1.1//EN" "http://www.w3.org/Graphics/SVG/1.1/DTD/svg11.dtd">
<svg version="1.1" id="Layer_1" xmlns="http://www.w3.org/2000/svg" xmlns:xlink="http://www.w3.org/1999/xlink" x="0px" y="0px"
	 width="32px" height="36px" viewBox="0 0 32 36" enable-background="new 0 0 32 36" xml:space="preserve">
<g id="icons">
	<g>
		<path fill="#CD5943" d="M30,32H2c-1.1,0-2-0.9-2-2V2c0-1.1,0.9-2,2-2h28c1.1,0,2,0.9,2,2v28C32,31.1,31.1,32,30,32z"/>
		<path opacity="8.000000e-02" enable-background="new    " d="M19.3,6.9h-5.5c-0.7,0-1.5,0.1-2.4,0.3C10.6,7.3,9.8,7.7,9,8.4
			c-1.1,1.1-1.7,2.3-1.7,3.7c0,1.1,0.4,2.1,1.2,3c0.8,0.9,1.9,1.4,3.4,1.4c0.3,0,0.6,0,0.9-0.1c-0.1,0.1-0.1,0.3-0.2,0.5
			c-0.1,0.2-0.1,0.4-0.1,0.6c0,0.4,0.1,0.8,0.3,1c0.2,0.3,0.3,0.6,0.5,0.8c-0.6,0-1.5,0.1-2.4,0.2c-1,0.2-1.9,0.5-2.8,1
			c-0.8,0.5-1.3,1-1.7,1.7C6,23,5.9,23.5,5.9,24c0,1.1,0.5,2,1.4,2.7c1,0.8,2.4,1.2,4.3,1.2c2.3,0,4.1-0.6,5.3-1.7
			c1.2-1,1.8-2.2,1.8-3.6c0-0.9-0.2-1.7-0.6-2.3c-0.4-0.6-1-1.1-1.5-1.6l-0.9-0.8c-0.1-0.1-0.3-0.3-0.4-0.5c-0.3,0-0.3-0.2-0.3-0.5
			c0-0.3,0.1-0.6,0.2-0.8c0.1-0.2,0.3-0.4,0.5-0.6c0.3-0.3,0.6-0.5,0.8-0.7s0.4-0.5,0.7-0.8c0.4-0.6,0.6-1.4,0.7-2.4
			c0-0.5-0.1-1-0.2-1.4s-0.3-0.8-0.5-1.1s-0.4-0.6-0.6-0.8S16.2,7.9,16,7.8h1.7L19.3,6.9z M16.3,22c0.5,0.5,0.7,1.1,0.7,1.8
			c0,0.9-0.3,1.6-1,2.1c-0.7,0.6-1.7,0.8-3,0.9c-1.5,0-2.6-0.3-3.4-1c-0.9-0.6-1.3-1.4-1.3-2.4c0-0.5,0.1-0.9,0.3-1.3
			c0.2-0.3,0.4-0.6,0.6-0.8c0.3-0.2,0.5-0.4,0.8-0.5s0.5-0.2,0.6-0.2c0.6-0.2,1.2-0.3,1.8-0.4s0.9-0.1,1.1-0.1c0.2,0,0.4,0,0.6,0
			C15,20.9,15.8,21.5,16.3,22z M15.4,13.8c-0.1,0.4-0.2,0.7-0.5,1.1c-0.5,0.5-1.1,0.8-1.8,0.8c-0.6,0-1.1-0.2-1.5-0.5
			c-0.4-0.4-0.8-0.8-1.1-1.3c-0.6-1.1-0.9-2.1-0.9-3.1c0-0.8,0.2-1.4,0.6-2.1c0.5-0.6,1.1-0.9,1.9-0.9c0.6,0,1.1,0.2,1.5,0.5
			s0.8,0.8,1,1.3c0.6,1.1,0.8,2.2,0.8,3.3C15.4,13.2,15.4,13.5,15.4,13.8z"/>
		<polygon opacity="8.000000e-02" enable-background="new    " points="25,15.5 25,12.6 23.3,12.6 23.3,15.5 20.4,15.5 20.4,17.2 
			23.3,17.2 23.3,20.1 25,20.1 25,17.2 27.9,17.2 27.9,15.5 		"/>
		<g>
			<path fill="#FFFFFF" d="M19.3,6.4h-5.5c-0.7,0-1.5,0.1-2.4,0.3C10.6,6.9,9.8,7.3,9,7.9C7.9,9,7.3,10.2,7.3,11.6
				c0,1.1,0.4,2.1,1.2,3s1.9,1.4,3.4,1.4c0.3,0,0.6,0,0.9-0.1c-0.1,0.1-0.1,0.3-0.2,0.5c-0.1,0.2-0.1,0.4-0.1,0.6
				c0,0.4,0.1,0.8,0.3,1c0.2,0.3,0.3,0.6,0.5,0.8c-0.6,0-1.5,0.1-2.4,0.2c-1,0.2-1.9,0.5-2.8,1c-0.8,0.5-1.3,1-1.7,1.7
				c-0.3,0.6-0.5,1.2-0.5,1.7c0,1.1,0.5,2,1.4,2.7c1,0.8,2.4,1.2,4.3,1.2c2.3,0,4.1-0.6,5.3-1.7c1.2-1,1.8-2.2,1.8-3.6
				c0-0.9-0.2-1.7-0.6-2.3c-0.4-0.6-1-1.1-1.5-1.6l-0.9-0.8c-0.1-0.1-0.3-0.3-0.4-0.5C15,17,15,16.7,15,16.5c0-0.3,0.1-0.6,0.2-0.8
				c0.1-0.2,0.3-0.4,0.5-0.6c0.3-0.3,0.6-0.5,0.8-0.7s0.4-0.5,0.7-0.8c0.4-0.6,0.6-1.4,0.7-2.4c0-0.5-0.1-1-0.2-1.4S17.4,9,17.2,8.7
				s-0.4-0.6-0.6-0.8S16.2,7.5,16,7.4h1.7L19.3,6.4z M16.3,21.6c0.5,0.5,0.7,1.1,0.7,1.8c0,0.9-0.3,1.6-1,2.1
				c-0.7,0.6-1.7,0.8-3,0.9c-1.5,0-2.6-0.3-3.4-1C8.7,24.8,8.2,24,8.2,23c0-0.5,0.1-0.9,0.3-1.3c0.2-0.3,0.4-0.6,0.6-0.8
				c0.3-0.2,0.5-0.4,0.8-0.5s0.5-0.2,0.6-0.2c0.6-0.2,1.2-0.3,1.8-0.4s0.9-0.1,1.1-0.1c0.2,0,0.4,0,0.6,0
				C15,20.4,15.8,21.1,16.3,21.6z M15.4,13.4c-0.1,0.4-0.2,0.7-0.5,1.1c-0.5,0.5-1.1,0.8-1.8,0.8c-0.6,0-1.1-0.2-1.5-0.5
				c-0.4-0.4-0.8-0.8-1.1-1.3c-0.6-1.1-0.9-2.1-0.9-3.1c0-0.8,0.2-1.4,0.6-2.1c0.5-0.6,1.1-0.9,1.9-0.9c0.6,0,1.1,0.2,1.5,0.5
				c0.4,0.3,0.8,0.8,1,1.3c0.6,1.1,0.8,2.2,0.8,3.3C15.4,12.7,15.4,13,15.4,13.4z"/>
			<polygon fill="#FFFFFF" points="25,15.1 25,12.1 23.3,12.1 23.3,15.1 20.4,15.1 20.4,16.7 23.3,16.7 23.3,19.6 25,19.6 25,16.7 
				27.9,16.7 27.9,15.1 			"/>
		</g>
	</g>
</g>
<g id="working">
</g>
<g id="colour:_negative">
</g>
</svg>
