<?xml version="1.0" encoding="utf-8"?>
<!-- Generator: Adobe Illustrator 18.1.0, SVG Export Plug-In . SVG Version: 6.00 Build 0)  -->
<!DOCTYPE svg PUBLIC "-//W3C//DTD SVG 1.1//EN" "http://www.w3.org/Graphics/SVG/1.1/DTD/svg11.dtd">
<svg version="1.1" xmlns="http://www.w3.org/2000/svg" xmlns:xlink="http://www.w3.org/1999/xlink" x="0px" y="0px" width="32px"
	 height="32px" viewBox="0 0 32 32" enable-background="new 0 0 32 32" xml:space="preserve">
<g id="icons">
	<g>
		<path fill="#4D4D4D" d="M14,16v-1h-1v1c0,1.7,1.3,3,3,3s3-1.3,3-3v-1h-1v1c0,1.1-0.9,2-2,2S14,17.1,14,16z"/>
		<path fill="#4D4D4D" d="M19,12v-1c0-1.7-1.3-3-3-3s-3,1.3-3,3v1h-3v10c0,1.1,0.9,2,2,2h8c1.1,0,2-0.9,2-2V12H19z M14,11
			c0-1.1,0.9-2,2-2s2,0.9,2,2v1h-1h-2h-1V11z M21,22c0,0.6-0.4,1-1,1h-8c-0.6,0-1-0.4-1-1v-9h10V22z"/>
	</g>
</g>
<g id="working">
</g>
<g id="colour:_negative">
</g>
</svg>
