<?xml version="1.0" encoding="utf-8"?>
<!-- Generator: Adobe Illustrator 18.1.0, SVG Export Plug-In . SVG Version: 6.00 Build 0)  -->
<!DOCTYPE svg PUBLIC "-//W3C//DTD SVG 1.1//EN" "http://www.w3.org/Graphics/SVG/1.1/DTD/svg11.dtd">
<svg version="1.1" xmlns="http://www.w3.org/2000/svg" xmlns:xlink="http://www.w3.org/1999/xlink" x="0px" y="0px" width="32px"
	 height="32px" viewBox="0 0 32 32" enable-background="new 0 0 32 32" xml:space="preserve">
<g id="icons">
	<g>
		<g>
			<path fill="#4D4D4D" d="M17.2,18.8c-0.3,0.4-0.8,0.7-1.4,0.7s-1.1-0.3-1.1-1c0-0.2,0.1-0.8,0.2-1.4c0.1-0.7,0.3-1.4,0.4-1.8
				l-0.8-0.1l0.1-0.7l2.2-0.1l0,0.1c-0.3,1.5-0.7,2.9-0.8,3.7c-0.1,0.4,0,0.5,0.3,0.5c0.1,0,0.3-0.1,0.5-0.2L17.2,18.8z M15.4,13
				c0-0.6,0.4-1,1-1c0.5,0,0.8,0.2,0.8,0.7c0,0.6-0.5,1-1,1S15.4,13.4,15.4,13z"/>
		</g>
		<path fill="#4D4D4D" d="M16,10c3.3,0,6,2.7,6,6s-2.7,6-6,6s-6-2.7-6-6S12.7,10,16,10 M16,9c-3.9,0-7,3.1-7,7c0,3.9,3.1,7,7,7
			s7-3.1,7-7C23,12.1,19.9,9,16,9L16,9z"/>
	</g>
</g>
<g id="working">
</g>
<g id="colour:_negative">
</g>
</svg>
