<?xml version="1.0" encoding="utf-8"?>
<!-- Generator: Adobe Illustrator 22.0.1, SVG Export Plug-In . SVG Version: 6.00 Build 0)  -->
<svg version="1.1" id="Layer_1" xmlns="http://www.w3.org/2000/svg" xmlns:xlink="http://www.w3.org/1999/xlink" x="0px" y="0px"
	 viewBox="0 0 440 72" style="enable-background:new 0 0 440 72;" xml:space="preserve">
<style type="text/css">
	.st0{fill:#F2F2F2;}
	.st1{fill:#22333B;}
</style>
<title>logo</title>
<desc>Created with Sketch.</desc>
<g id="New-Design">
	<g id="Cambridge-Maths-Blue-v2" transform="translate(-500.000000, -53.000000)">
		<g id="Hero">
			<g id="logo" transform="translate(500.000000, 53.000000)">
				<path id="MATHS" class="st0" d="M270.2,0.9V45h8.2V9.8h0.1l7.9,35.2h7l7.9-35.2h0.1V45h8.2V0.9h-13.3L290,32h-0.1l-6.4-31.1
					H270.2z M334.7,28.3l-4.3-19.8h-0.1L326,28.3H334.7z M335.9,0.9L347.7,45h-9.4l-2.1-9.3h-11.9l-2.1,9.3H313l11.8-44.1H335.9z
					 M373.5,0.9v7.3h-9.7V45h-9V8.2H345V0.9H373.5z M377.4,0.9V45h9V25.4h10.5V45h9V0.9h-9v16.9h-10.5V0.9H377.4z M419.3,31.2h-9V33
					c0,4.1,1.1,7.2,3.3,9.4s5.8,3.3,10.9,3.3c4.9,0,8.7-1.1,11.4-3.2s4.1-5.5,4.1-10.2c0-1.4-0.1-2.6-0.4-3.7
					c-0.2-1.1-0.7-2.1-1.3-3.1s-1.5-1.8-2.6-2.6c-1.1-0.8-2.5-1.6-4.2-2.3l-6.9-3c-1.9-0.8-3.2-1.6-3.7-2.6
					c-0.6-0.9-0.9-2.1-0.9-3.4c0-0.7,0.1-1.3,0.2-1.9c0.1-0.6,0.4-1.2,0.8-1.6c0.4-0.5,0.9-0.9,1.6-1.1c0.7-0.3,1.5-0.4,2.5-0.4
					c1.7,0,3,0.6,3.7,1.7c0.7,1.1,1.1,2.7,1.1,4.8h8.6v-1.2c0-2.1-0.3-3.9-1-5.4s-1.6-2.7-2.9-3.7s-2.7-1.7-4.4-2.1
					c-1.7-0.4-3.5-0.6-5.5-0.6c-4.3,0-7.7,1.1-10.1,3.2s-3.7,5.4-3.7,9.8c0,1.8,0.2,3.4,0.7,4.8c0.5,1.4,1.2,2.6,2.2,3.6
					c1,1,2.2,2,3.7,2.7c1.5,0.8,3.2,1.5,5.2,2.2c1.5,0.5,2.8,1,3.8,1.5c1,0.5,1.8,1,2.5,1.6c0.6,0.6,1.1,1.2,1.3,1.9
					s0.4,1.6,0.4,2.6c0,1.9-0.6,3.2-1.7,4.1s-2.3,1.3-3.7,1.3c-1.2,0-2.1-0.2-2.9-0.5s-1.4-0.8-1.8-1.4c-0.5-0.6-0.8-1.3-0.9-2.1
					c-0.2-0.8-0.2-1.8-0.2-2.8V31.2z"/>
				<path id="Cambridge" class="st1" d="M20,15.7h9c0-1.6-0.1-3.3-0.3-5.2c-0.2-1.8-0.8-3.5-1.7-5.1s-2.3-2.9-4.1-3.9S18.4,0,15.2,0
					c-3.4,0-6.1,0.6-8,1.7S3.6,4.4,2.5,6.4s-1.7,4.4-2.1,7.3S0,19.6,0,22.9c0,3.4,0.2,6.5,0.5,9.3s1,5.2,2.1,7.2
					c1.1,2,2.6,3.6,4.6,4.6c2,1.1,4.7,1.6,8,1.6c3,0,5.4-0.5,7.2-1.4s3.3-2.2,4.3-3.8c1-1.6,1.7-3.5,2.1-5.6
					c0.4-2.1,0.6-4.4,0.6-6.8h-9c0,2.4-0.1,4.3-0.4,5.8c-0.3,1.5-0.7,2.6-1.2,3.4c-0.5,0.8-1.1,1.3-1.8,1.6
					c-0.7,0.3-1.4,0.4-2.2,0.4c-1,0-1.8-0.2-2.5-0.6c-0.7-0.4-1.3-1.2-1.8-2.3c-0.5-1.1-0.8-2.7-1.1-4.8S9,26.9,9,23.5
					c0-3.1,0.1-5.8,0.2-7.9s0.5-3.9,0.9-5.2c0.4-1.3,1-2.3,1.7-2.9c0.7-0.6,1.7-0.9,2.8-0.9c2,0,3.4,0.7,4.2,2.2
					C19.6,10.2,20,12.5,20,15.7z M49.9,28.3c-0.6,0.5-1.2,0.8-1.9,1.1c-0.7,0.3-1.3,0.5-1.8,0.6c-1.7,0.4-3,1-3.7,1.9
					c-0.7,0.9-1.1,2-1.1,3.5c0,1.3,0.2,2.4,0.7,3.3c0.5,0.9,1.3,1.4,2.5,1.4c0.6,0,1.2-0.1,1.8-0.3c0.6-0.2,1.2-0.5,1.7-0.9
					s0.9-0.9,1.3-1.6c0.3-0.7,0.5-1.4,0.5-2.3V28.3z M34.1,21.9v-0.8c0-1.9,0.3-3.6,0.9-4.8c0.6-1.3,1.5-2.3,2.5-3.1
					c1.1-0.8,2.3-1.4,3.7-1.7c1.4-0.3,3-0.5,4.6-0.5c2.6,0,4.7,0.2,6.2,0.7c1.6,0.5,2.8,1.2,3.7,2.1c0.9,0.9,1.5,2,1.8,3.2
					c0.3,1.3,0.5,2.6,0.5,4.1v17.5c0,1.6,0.1,2.8,0.2,3.6c0.1,0.9,0.4,1.8,0.8,2.8h-8.2c-0.3-0.5-0.5-1.1-0.7-1.7
					c-0.1-0.6-0.3-1.2-0.4-1.8h-0.1c-1,1.7-2.2,2.9-3.5,3.4c-1.3,0.5-3,0.8-5.1,0.8c-1.5,0-2.8-0.3-3.8-0.8c-1-0.5-1.9-1.2-2.5-2.1
					c-0.6-0.9-1.1-1.9-1.4-3.1c-0.3-1.1-0.4-2.3-0.4-3.4c0-1.6,0.2-2.9,0.5-4c0.3-1.1,0.8-2.1,1.5-2.9c0.7-0.8,1.6-1.5,2.6-2
					s2.3-1,3.8-1.4l4.9-1.3c1.3-0.3,2.2-0.8,2.7-1.4c0.5-0.6,0.7-1.4,0.7-2.5c0-1.3-0.3-2.3-0.9-3c-0.6-0.7-1.6-1.1-3.1-1.1
					c-1.3,0-2.3,0.4-3,1.2s-1,1.8-1,3.1v0.9H34.1z M64.2,11.7V45h8.6V23.1c0-2,0.4-3.4,1.2-4.3c0.8-0.9,1.9-1.4,3.3-1.4
					c1.2,0,2.1,0.4,2.6,1.1c0.5,0.7,0.8,1.8,0.8,3.2V45h8.6V23.1c0-2,0.4-3.4,1.2-4.3c0.8-0.9,1.9-1.4,3.3-1.4
					c1.2,0,2.1,0.4,2.6,1.1c0.5,0.7,0.8,1.8,0.8,3.2V45h8.6V20.8c0-3.2-0.7-5.7-2-7.4s-3.5-2.6-6.3-2.6c-2,0-3.8,0.4-5.3,1.3
					c-1.5,0.9-2.5,2.2-3.2,4h-0.1c-0.5-1.7-1.4-3-2.7-4c-1.4-0.9-3-1.4-5-1.4c-1.9,0-3.5,0.3-4.8,1c-1.4,0.7-2.6,1.7-3.7,3.3h-0.1
					v-3.4H64.2z M111.5,0.9h8.6v14h0.1c0.9-1.3,1.9-2.3,3.1-3c1.1-0.7,2.5-1,4.1-1c3.5,0,6.1,1.4,7.8,4.1s2.5,7.2,2.5,13.4
					s-0.8,10.6-2.5,13.3s-4.3,4-7.8,4c-1.7,0-3.2-0.3-4.4-0.9c-1.2-0.6-2.3-1.7-3.2-3.3h-0.1V45h-8.2V0.9z M120.1,28.3
					c0,3.6,0.3,6.4,0.8,8.2c0.6,1.8,1.8,2.7,3.7,2.7c1.9,0,3.1-0.9,3.7-2.7c0.6-1.8,0.8-4.6,0.8-8.2s-0.3-6.4-0.8-8.2
					c-0.6-1.8-1.8-2.7-3.7-2.7c-1.9,0-3.2,0.9-3.7,2.7C120.4,22,120.1,24.7,120.1,28.3z M142.7,11.7V45h8.6V25c0-1.1,0.2-2,0.6-2.8
					c0.4-0.8,0.9-1.4,1.5-1.9c0.6-0.5,1.3-0.8,2.1-1c0.7-0.2,1.5-0.3,2.2-0.3c0.5,0,0.9,0,1.3,0c0.4,0,0.9,0.1,1.3,0.1V11
					c-0.2,0-0.5-0.1-0.8-0.1c-0.3,0-0.5,0-0.8,0c-1.8,0-3.3,0.5-4.6,1.5c-1.2,1-2.3,2.3-3.2,3.9h-0.1v-4.4H142.7z M163.8,0.4v7.3
					h8.6V0.4H163.8z M163.8,11.7V45h8.6V11.7H163.8z M195.7,41.4h-0.1c-1,1.6-2,2.7-3.2,3.3c-1.2,0.6-2.7,0.9-4.4,0.9
					c-3.5,0-6.1-1.3-7.8-4s-2.5-7.1-2.5-13.3s0.8-10.6,2.5-13.4s4.3-4.1,7.8-4.1c1.6,0,3,0.3,4.1,1c1.1,0.7,2.2,1.6,3.1,3h0.1v-14
					h8.6V45h-8.2V41.4z M186.2,28.3c0,3.6,0.3,6.4,0.8,8.2c0.6,1.8,1.8,2.7,3.7,2.7c1.9,0,3.2-0.9,3.7-2.7c0.6-1.8,0.8-4.6,0.8-8.2
					s-0.3-6.4-0.8-8.2c-0.6-1.8-1.8-2.7-3.7-2.7c-1.9,0-3.1,0.9-3.7,2.7C186.5,22,186.2,24.7,186.2,28.3z M217.6,29.4
					c0,1.2,0.1,2.2,0.2,3.3s0.3,1.9,0.6,2.7c0.3,0.8,0.7,1.4,1.3,1.9s1.3,0.7,2.2,0.7c0.9,0,1.7-0.2,2.3-0.7
					c0.6-0.5,1.1-1.1,1.4-1.9c0.4-0.8,0.6-1.8,0.7-3s0.2-2.5,0.2-3.9c0-4-0.3-6.9-1-8.6c-0.6-1.7-1.8-2.5-3.5-2.5
					c-1,0-1.7,0.2-2.3,0.6s-1,1.1-1.4,2c-0.3,0.9-0.6,2.2-0.7,3.7S217.6,27.2,217.6,29.4z M234.8,11.7v31.6c0,4.3-1.1,7.5-3.2,9.6
					c-2.1,2.1-5.7,3.2-10.8,3.2c-3.7,0-6.5-0.8-8.5-2.3c-2-1.5-3-3.7-3-6.6h8.2c0,1.1,0.4,1.9,1.3,2.5c0.4,0.3,0.9,0.5,1.3,0.7
					c0.5,0.2,1,0.2,1.5,0.2c1.7,0,3-0.6,3.7-1.7s1.1-2.5,1.1-4.1v-4.4h-0.1c-0.9,1.2-1.9,2.2-3.2,3c-1.3,0.7-2.6,1.1-4,1.1
					c-3.4,0-6-1.3-7.7-3.9c-1.7-2.6-2.6-6.9-2.6-12.9c0-1.9,0.1-3.9,0.3-5.9c0.2-2,0.7-3.8,1.4-5.5c0.7-1.6,1.8-3,3.2-4
					c1.4-1,3.3-1.5,5.6-1.5c1.2,0,2.5,0.3,3.7,1c1.3,0.7,2.4,1.9,3.2,3.6h0.1v-3.7H234.8z M257,24.6c0-1.3-0.1-2.4-0.2-3.4
					c-0.1-1-0.3-1.8-0.7-2.5c-0.3-0.7-0.7-1.2-1.3-1.5s-1.3-0.5-2.2-0.5c-0.9,0-1.6,0.2-2.2,0.6c-0.6,0.4-1,0.9-1.3,1.5
					c-0.3,0.6-0.6,1.3-0.7,2.1c-0.1,0.8-0.2,1.6-0.2,2.3v1.3H257z M248.2,29.6v2.7c0,1,0.1,1.9,0.2,2.9c0.1,0.9,0.4,1.7,0.7,2.5
					c0.3,0.7,0.8,1.3,1.3,1.7c0.5,0.4,1.2,0.6,2,0.6c1.5,0,2.5-0.5,3.2-1.5s1.1-2.6,1.4-4.7h7.7c-0.2,3.9-1.2,6.8-3.1,8.8
					c-1.9,2-4.9,3-9,3c-3.1,0-5.6-0.5-7.3-1.5s-3-2.4-3.9-4.1c-0.8-1.7-1.3-3.6-1.5-5.7c-0.2-2.1-0.3-4.2-0.3-6.3
					c0-2.2,0.2-4.4,0.5-6.4c0.3-2.1,0.9-3.9,1.9-5.5s2.3-2.9,4-3.8c1.7-0.9,4.1-1.4,7-1.4c2.5,0,4.5,0.4,6.1,1.2s2.9,1.9,3.8,3.4
					s1.5,3.2,1.9,5.3c0.3,2.1,0.5,4.4,0.5,6.9v1.9H248.2z"/>
			</g>
		</g>
	</g>
</g>
</svg>
