<?xml version="1.0" encoding="UTF-8"?>
<svg width="440px" height="72px" viewBox="0 0 440 72" version="1.1" xmlns="http://www.w3.org/2000/svg" xmlns:xlink="http://www.w3.org/1999/xlink">
    <!-- Generator: Sketch 44.1 (41455) - http://www.bohemiancoding.com/sketch -->
    <title>logo</title>
    <desc>Created with Sketch.</desc>
    <defs></defs>
    <g id="New-Design" stroke="none" stroke-width="1" fill="none" fill-rule="evenodd">
        <g id="Cambridge-Maths-Blue-v2" transform="translate(-500.000000, -53.000000)">
            <g id="Hero">
                <g id="logo" transform="translate(500.000000, 53.000000)">
                    <path d="M270.168959,0.86464031 L270.168959,44.9612961 L278.405057,44.9612961 L278.405057,9.7580835 L278.529846,9.7580835 L286.45397,44.9612961 L293.442174,44.9612961 L301.366298,9.7580835 L301.491088,9.7580835 L301.491088,44.9612961 L309.727185,44.9612961 L309.727185,0.86464031 L296.437119,0.86464031 L290.010467,31.9916915 L289.885678,31.9916915 L283.52142,0.86464031 L270.168959,0.86464031 Z M334.747452,28.3478502 L330.442219,8.52288306 L330.317429,8.52288306 L326.012197,28.3478502 L334.747452,28.3478502 Z M335.932951,0.86464031 L347.725545,44.9612961 L338.366343,44.9612961 L336.307319,35.6355328 L324.45233,35.6355328 L322.393305,44.9612961 L313.034103,44.9612961 L324.826698,0.86464031 L335.932951,0.86464031 Z M373.494547,0.86464031 L373.494547,8.15232292 L363.760977,8.15232292 L363.760977,44.9612961 L354.776144,44.9612961 L354.776144,8.15232292 L345.042574,8.15232292 L345.042574,0.86464031 L373.494547,0.86464031 Z M377.363017,0.86464031 L377.363017,44.9612961 L386.347851,44.9612961 L386.347851,25.3833691 L396.830157,25.3833691 L396.830157,44.9612961 L405.814991,44.9612961 L405.814991,0.86464031 L396.830157,0.86464031 L396.830157,17.7251264 L386.347851,17.7251264 L386.347851,0.86464031 L377.363017,0.86464031 Z M419.292241,31.1888112 L410.307408,31.1888112 L410.307408,32.9798518 C410.307408,37.0560337 411.399304,40.1851768 413.583128,42.3673752 C415.766953,44.5495736 419.396207,45.6406564 424.471,45.6406564 C429.337809,45.6406564 433.133447,44.5804533 435.858029,42.4600152 C438.58261,40.3395772 439.94488,36.9531032 439.94488,32.3004916 C439.94488,30.9417643 439.820092,29.7065762 439.570512,28.5948903 C439.320932,27.4832043 438.873775,26.4641741 438.229026,25.5377692 C437.584278,24.6113642 436.72116,23.7467325 435.639647,22.9438482 C434.558134,22.1409639 433.164667,21.3689714 431.459204,20.6278474 L424.533394,17.6633663 C422.619948,16.8810688 421.372067,16.0267304 420.789714,15.1003254 C420.20736,14.1739205 419.916188,13.0313715 419.916188,11.6726442 C419.916188,11.0138673 419.988981,10.3756868 420.13457,9.7580835 C420.280158,9.14048019 420.550532,8.59493878 420.9457,8.12144291 C421.340869,7.64794704 421.871218,7.26709738 422.536765,6.9788825 C423.202311,6.69066763 424.034232,6.54656235 425.032552,6.54656235 C426.779612,6.54656235 428.027493,7.11269022 428.776233,8.24496296 C429.524972,9.37723569 429.899337,10.9932734 429.899337,13.0931247 L438.509802,13.0931247 L438.509802,11.8579243 C438.509802,9.758073 438.166635,7.95675704 437.48029,6.45392232 C436.793945,4.9510876 435.837236,3.7158995 434.610135,2.74832099 C433.383034,1.78074247 431.927172,1.08080255 430.242507,0.648480233 C428.557843,0.216157916 426.717218,0 424.720578,0 C420.436122,0 417.066843,1.07049635 414.61264,3.21152115 C412.158437,5.35254596 410.931354,8.60520793 410.931354,12.9696047 C410.931354,14.781241 411.160133,16.3766923 411.617696,17.7560064 C412.075259,19.1353204 412.792791,20.3499221 413.770312,21.3998477 C414.747834,22.4497733 415.964518,23.3658711 417.420401,24.1481687 C418.876284,24.9304662 420.60252,25.6509926 422.599159,26.3097694 C424.096639,26.8038521 425.354919,27.2876341 426.374037,27.76113 C427.393156,28.2346258 428.214677,28.7595808 428.838627,29.3360105 C429.462577,29.9124403 429.909735,30.560914 430.180113,31.2814512 C430.450491,32.0019884 430.585678,32.8563268 430.585678,33.8444921 C430.585678,35.6973021 430.034531,37.0663022 428.932219,37.9515336 C427.829908,38.836765 426.592426,39.2793741 425.219736,39.2793741 C424.055029,39.2793741 423.087922,39.1146823 422.318383,38.7852939 C421.548845,38.4559055 420.935304,38.0030032 420.47774,37.4265734 C420.020177,36.8501437 419.708207,36.1399105 419.54182,35.2958527 C419.375433,34.4517948 419.292241,33.5151105 419.292241,32.4857717 L419.292241,31.1888112 Z" id="MATHS" fill="#F2F2F2"></path>
                    <path d="M19.9662972,15.7488056 L28.951131,15.7488056 C28.951131,14.143037 28.8367419,12.424067 28.6079602,10.5918438 C28.3791786,8.75962065 27.8072331,7.05094379 26.8921066,5.46576196 C25.97698,3.88058013 24.5939118,2.5733394 22.7428604,1.54400055 C20.891809,0.514661705 18.3648498,0 15.1619069,0 C11.7925774,0 9.10963308,0.566127875 7.11299338,1.69840061 C5.11635368,2.83067334 3.58769933,4.40553816 2.52698449,6.4230423 C1.46626965,8.44054645 0.779935045,10.8594565 0.467960091,13.6798449 C0.155985137,16.5002334 0,19.5779103 0,22.9129682 C0,26.2891996 0.155985137,29.3771699 0.467960091,32.1769715 C0.779935045,34.9767732 1.46626965,37.38539 2.52698449,39.4028941 C3.58769933,41.4203983 5.11635368,42.9643834 7.11299338,44.0348958 C9.10963308,45.1054082 11.7925774,45.6406564 15.1619069,45.6406564 C18.1152698,45.6406564 20.5174409,45.1877541 22.3684923,44.2819359 C24.2195437,43.3761177 25.654607,42.1203431 26.6737252,40.5145745 C27.6928434,38.9088059 28.389577,37.0354373 28.7639469,34.8944125 C29.1383169,32.7533877 29.325499,30.4888762 29.325499,28.1008101 L20.3406653,28.1008101 C20.3406653,30.4888762 20.1950792,32.413711 19.9039025,33.8753722 C19.6127259,35.3370333 19.2175636,36.4692891 18.7184036,37.2721734 C18.2192437,38.0750577 17.6265002,38.6103058 16.9401553,38.8779339 C16.2538104,39.145562 15.5154807,39.2793741 14.7251442,39.2793741 C13.768421,39.2793741 12.9261013,39.0838026 12.1981597,38.6926539 C11.4702181,38.3015051 10.8670756,37.5398058 10.388714,36.4075331 C9.91035242,35.2752603 9.55678611,33.679809 9.32800448,31.6211313 C9.09922284,29.5624536 8.98483374,26.8656263 8.98483374,23.5305684 C8.98483374,20.4013783 9.06802582,17.7560172 9.23441246,15.5944056 C9.4007991,13.432794 9.69197136,11.6829442 10.107938,10.3448037 C10.5239046,9.00666321 11.0958501,8.0390992 11.8237916,7.44208267 C12.5517332,6.84506614 13.477245,6.54656235 14.6003548,6.54656235 C16.6385912,6.54656235 18.0424574,7.27738197 18.8119957,8.73904314 C19.5815339,10.2007043 19.9662972,12.5372684 19.9662972,15.7488056 Z M49.8533483,28.3478502 C49.2709951,28.8007593 48.6470545,29.1610225 47.981508,29.4286506 C47.3159614,29.6962787 46.7128189,29.8918501 46.1720623,30.0153708 C44.4250026,30.3859328 43.1771215,31.0035268 42.4283816,31.8681714 C41.6796417,32.7328161 41.3052773,33.9062448 41.3052773,35.3884927 C41.3052773,36.6648729 41.5548536,37.7559557 42.0540135,38.6617739 C42.5531734,39.5675921 43.3850942,40.0204944 44.5498006,40.0204944 C45.1321539,40.0204944 45.7352964,39.9278553 46.3592463,39.7425743 C46.9831962,39.5572933 47.5551417,39.2587895 48.0751,38.8470539 C48.5950583,38.4353184 49.0214176,37.9000702 49.3541909,37.2412934 C49.6869642,36.5825165 49.8533483,35.8002307 49.8533483,34.8944125 L49.8533483,28.3478502 Z M34.1298893,21.9248079 L34.1298893,21.1219276 C34.1298893,19.1867705 34.4418596,17.5707328 35.0658095,16.2737658 C35.6897594,14.9767989 36.5320791,13.926889 37.592794,13.1240047 C38.6535088,12.3211204 39.9013899,11.7446993 41.3364747,11.3947241 C42.7715595,11.0447489 44.3002138,10.8697639 45.9224836,10.8697639 C48.5014765,10.8697639 50.5812784,11.1168015 52.1619515,11.6108842 C53.7426246,12.1049668 54.9697076,12.8049067 55.8432375,13.7107249 C56.7167674,14.6165431 57.3095109,15.6973327 57.6214858,16.9531261 C57.9334608,18.2089195 58.0894459,19.5779196 58.0894459,21.0601676 L58.0894459,38.5382538 C58.0894459,40.1028489 58.162239,41.3174505 58.3078273,42.1820951 C58.4534156,43.0467398 58.7341889,43.9731308 59.1501555,44.9612961 L50.9140579,44.9612961 C50.6228813,44.4260399 50.4045021,43.8599121 50.2589138,43.2628955 C50.1133254,42.665879 49.9781383,42.0791646 49.8533483,41.5027349 L49.728559,41.5027349 C48.7302391,43.2320242 47.5759491,44.3539867 46.2656543,44.8686561 C44.9553595,45.3833255 43.260321,45.6406564 41.180488,45.6406564 C39.6830082,45.6406564 38.4143291,45.3833255 37.3744126,44.8686561 C36.3344961,44.3539867 35.5025753,43.6437535 34.8786254,42.7379353 C34.2546755,41.8321171 33.7971191,40.813087 33.5059425,39.6808142 C33.2147659,38.5485415 33.0691798,37.426579 33.0691798,36.314893 C33.0691798,34.750298 33.2355639,33.4018843 33.5683372,32.2696116 C33.9011105,31.1373388 34.4106619,30.1697748 35.0970068,29.3668905 C35.7833517,28.5640062 36.6568685,27.894946 37.7175833,27.3596898 C38.7782982,26.8244336 40.0573763,26.3509448 41.5548561,25.9392093 L46.421641,24.6422488 C47.7111375,24.3128604 48.6054523,23.8599581 49.1046122,23.2835284 C49.6037721,22.7070986 49.8533483,21.8630534 49.8533483,20.7513674 C49.8533483,19.4749873 49.5517771,18.4765436 48.9486255,17.7560064 C48.3454739,17.0354692 47.315972,16.675206 45.8600889,16.675206 C44.5289958,16.675206 43.5306909,17.0663489 42.8651443,17.8486464 C42.1995977,18.6309439 41.8668295,19.6808538 41.8668295,20.9984075 L41.8668295,21.9248079 L34.1298893,21.9248079 Z M64.2041245,11.7344042 L64.2041245,44.9612961 L72.8145901,44.9612961 L72.8145901,23.0982483 C72.8145901,21.1219177 73.2201515,19.6808649 74.0312864,18.7750467 C74.8424212,17.8692285 75.9343172,17.4163262 77.307007,17.4163262 C78.5133102,17.4163262 79.3764279,17.7868827 79.8963862,18.5280066 C80.4163444,19.2691306 80.6763197,20.339627 80.6763197,21.7395278 L80.6763197,44.9612961 L89.2867853,44.9612961 L89.2867853,23.0982483 C89.2867853,21.1219177 89.6923467,19.6808649 90.5034816,18.7750467 C91.3146164,17.8692285 92.4065124,17.4163262 93.7792022,17.4163262 C94.9855054,17.4163262 95.8486231,17.7868827 96.3685814,18.5280066 C96.8885396,19.2691306 97.1485149,20.339627 97.1485149,21.7395278 L97.1485149,44.9612961 L105.758981,44.9612961 L105.758981,20.8131275 C105.758981,17.6015903 105.083045,15.1415073 103.731153,13.4328048 C102.379262,11.7241023 100.268263,10.8697639 97.3980936,10.8697639 C95.3598572,10.8697639 93.6024247,11.312373 92.1257432,12.1976044 C90.6490618,13.0828358 89.5779638,14.410663 88.9124173,16.1811258 L88.7876279,16.1811258 C88.3300646,14.4518365 87.4253508,13.1343026 86.0734594,12.2284844 C84.7215679,11.3226662 83.0473274,10.8697639 81.0506877,10.8697639 C79.178838,10.8697639 77.5669916,11.1991474 76.2151001,11.8579243 C74.8632087,12.5167011 73.6465246,13.6077839 72.5650114,15.1312054 L72.4402221,15.1312054 L72.4402221,11.7344042 L64.2041245,11.7344042 Z M111.499291,0.86464031 L120.109757,0.86464031 L120.109757,14.8224053 L120.234546,14.8224053 C121.149673,13.5048516 122.179174,12.5167011 123.323083,11.8579243 C124.466991,11.1991474 125.850059,10.8697639 127.472329,10.8697639 C131.008045,10.8697639 133.607797,12.238764 135.271664,14.9768054 C136.93553,17.7148467 137.767451,22.1718171 137.767451,28.3478502 C137.767451,34.5238833 136.93553,38.9499739 135.271664,41.6262549 C133.607797,44.3025359 131.008045,45.6406564 127.472329,45.6406564 C125.725269,45.6406564 124.259009,45.3318594 123.073504,44.714256 C121.887999,44.0966527 120.816901,43.0055699 119.860178,41.4409749 L119.735389,41.4409749 L119.735389,44.9612961 L111.499291,44.9612961 L111.499291,0.86464031 Z M120.109757,28.3478502 C120.109757,31.9711229 120.39053,34.69883 120.952085,36.5310531 C121.51364,38.3632763 122.751122,39.2793741 124.664568,39.2793741 C126.536418,39.2793741 127.753102,38.3632763 128.314657,36.5310531 C128.876212,34.69883 129.156985,31.9711229 129.156985,28.3478502 C129.156985,24.7245774 128.876212,21.9968704 128.314657,20.1646472 C127.753102,18.3324241 126.536418,17.4163262 124.664568,17.4163262 C122.751122,17.4163262 121.51364,18.3324241 120.952085,20.1646472 C120.39053,21.9968704 120.109757,24.7245774 120.109757,28.3478502 Z M142.69663,11.7344042 L142.69663,44.9612961 L151.307096,44.9612961 L151.307096,25.012809 C151.307096,23.901123 151.494278,22.9644387 151.868648,22.202728 C152.243018,21.4410172 152.742171,20.8234232 153.36612,20.3499273 C153.99007,19.8764314 154.676405,19.5367547 155.425145,19.3308869 C156.173885,19.1250192 156.922613,19.0220868 157.671353,19.0220868 C158.128917,19.0220868 158.576074,19.0323801 159.012839,19.0529668 C159.449604,19.0735536 159.896761,19.1044333 160.354324,19.1456069 L160.354324,10.9932839 C160.104744,10.9521104 159.844769,10.9212307 159.574391,10.9006439 C159.304013,10.8800571 159.044037,10.8697639 158.794457,10.8697639 C157.005801,10.8697639 155.487546,11.3535459 154.239646,12.3211244 C152.991746,13.2887029 151.931047,14.5753572 151.057517,16.1811258 L150.932728,16.1811258 L150.932728,11.7344042 L142.69663,11.7344042 Z M163.786032,0.370560133 L163.786032,7.65824275 L172.396497,7.65824275 L172.396497,0.370560133 L163.786032,0.370560133 Z M163.786032,11.7344042 L163.786032,44.9612961 L172.396497,44.9612961 L172.396497,11.7344042 L163.786032,11.7344042 Z M195.669713,41.4409749 L195.544923,41.4409749 C194.5882,43.0055699 193.517102,44.0966527 192.331597,44.714256 C191.146092,45.3318594 189.679832,45.6406564 187.932772,45.6406564 C184.397056,45.6406564 181.797304,44.3025359 180.133438,41.6262549 C178.469571,38.9499739 177.63765,34.5238833 177.63765,28.3478502 C177.63765,22.1718171 178.469571,17.7148467 180.133438,14.9768054 C181.797304,12.238764 184.397056,10.8697639 187.932772,10.8697639 C189.555042,10.8697639 190.93811,11.1991474 192.082019,11.8579243 C193.225927,12.5167011 194.255429,13.5048516 195.170555,14.8224053 L195.295345,14.8224053 L195.295345,0.86464031 L203.90581,0.86464031 L203.90581,44.9612961 L195.669713,44.9612961 L195.669713,41.4409749 Z M186.248116,28.3478502 C186.248116,31.9711229 186.528889,34.69883 187.090444,36.5310531 C187.651999,38.3632763 188.868683,39.2793741 190.740533,39.2793741 C192.653979,39.2793741 193.891461,38.3632763 194.453016,36.5310531 C195.014571,34.69883 195.295345,31.9711229 195.295345,28.3478502 C195.295345,24.7245774 195.014571,21.9968704 194.453016,20.1646472 C193.891461,18.3324241 192.653979,17.4163262 190.740533,17.4163262 C188.868683,17.4163262 187.651999,18.3324241 187.090444,20.1646472 C186.528889,21.9968704 186.248116,24.7245774 186.248116,28.3478502 Z M217.570245,29.3977705 C217.570245,30.5506301 217.62224,31.6417129 217.726232,32.6710517 C217.830223,33.7003906 218.038203,34.6164884 218.350178,35.4193727 C218.662153,36.222257 219.098912,36.8604375 219.660467,37.3339334 C220.222022,37.8074293 220.960351,38.0441736 221.875478,38.0441736 C222.790604,38.0441736 223.549732,37.8074293 224.152883,37.3339334 C224.756035,36.8604375 225.234389,36.2119638 225.587961,35.3884927 C225.941533,34.5650216 226.191109,33.5665779 226.336697,32.3931316 C226.482286,31.2196853 226.555079,29.9330311 226.555079,28.5331302 C226.555079,24.4981219 226.232709,21.6366029 225.587961,19.9484872 C224.943213,18.2603714 223.768125,17.4163262 222.062662,17.4163262 C221.105939,17.4163262 220.336412,17.6221909 219.754059,18.0339265 C219.171705,18.445662 218.714149,19.1147222 218.381376,20.0411272 C218.048602,20.9675322 217.830223,22.2027202 217.726232,23.7467285 C217.62224,25.2907368 217.570245,27.1743986 217.570245,29.3977705 Z M234.791176,11.7344042 L234.791176,43.2937755 C234.791176,47.5758251 233.720078,50.7873142 231.57785,52.928339 C229.435622,55.0693638 225.847964,56.1398601 220.814768,56.1398601 C217.154262,56.1398601 214.336131,55.3678676 212.360289,53.8238593 C210.384448,52.279851 209.396542,50.0873922 209.396542,47.2464169 L217.63264,47.2464169 C217.63264,48.3169294 218.069398,49.1609745 218.942928,49.7785779 C219.358894,50.0667927 219.806052,50.2932439 220.284413,50.4579381 C220.762775,50.6226323 221.272326,50.7049782 221.813083,50.7049782 C223.560143,50.7049782 224.787226,50.1491435 225.494369,49.0374576 C226.201512,47.9257716 226.555079,46.5464783 226.555079,44.8995361 L226.555079,40.5145745 L226.430289,40.5145745 C225.556759,41.7497812 224.485661,42.7379316 223.216963,43.4790556 C221.948265,44.2201796 220.627591,44.590736 219.254901,44.590736 C215.843975,44.590736 213.27542,43.3040817 211.549158,40.7307346 C209.822897,38.1573875 208.959779,33.8445224 208.959779,27.79201 C208.959779,25.8568529 209.074168,23.880552 209.30295,21.8630478 C209.531732,19.8455437 210.010086,18.0236413 210.738028,16.3972859 C211.465969,14.7709305 212.526668,13.4431033 213.920156,12.4137645 C215.313644,11.3844256 217.175067,10.8697639 219.50448,10.8697639 C220.710783,10.8697639 221.958664,11.1991474 223.248161,11.8579243 C224.537657,12.5167011 225.598356,13.7107163 226.430289,15.4400055 L226.555079,15.4400055 L226.555079,11.7344042 L234.791176,11.7344042 Z M257.003682,24.5804888 C256.962085,23.3041086 256.878893,22.1821461 256.754103,21.2145676 C256.629313,20.2469891 256.410934,19.4235304 256.098959,18.7441667 C255.786984,18.0648031 255.350226,17.5501414 254.788671,17.2001662 C254.227116,16.850191 253.509584,16.675206 252.636054,16.675206 C251.762524,16.675206 251.044993,16.8707774 250.483438,17.2619262 C249.921883,17.653075 249.474726,18.1677367 249.141952,18.8059267 C248.809179,19.4441168 248.570002,20.15435 248.424414,20.9366475 C248.278825,21.718945 248.206032,22.5012308 248.206032,23.2835284 L248.206032,24.5804888 L257.003682,24.5804888 Z M248.206032,29.6448106 L248.206032,32.3004916 C248.206032,33.2886569 248.278825,34.2459277 248.424414,35.1723326 C248.570002,36.0987376 248.809179,36.9221963 249.141952,37.6427335 C249.474726,38.3632707 249.911484,38.9396918 250.452241,39.3720141 C250.992997,39.8043364 251.658534,40.0204944 252.44887,40.0204944 C253.904753,40.0204944 254.965452,39.5058327 255.630999,38.4764938 C256.296546,37.447155 256.754102,35.8825834 257.003682,33.7827321 L264.740622,33.7827321 C264.574235,37.6530462 263.534334,40.5969111 261.620888,42.6144153 C259.707442,44.6319194 256.691729,45.6406564 252.57366,45.6406564 C249.45391,45.6406564 247.020542,45.1259947 245.273482,44.0966558 C243.526423,43.067317 242.236945,41.7086101 241.405012,40.0204944 C240.573079,38.3323786 240.063528,36.4384236 239.876343,34.3385723 C239.689158,32.2387211 239.595566,30.1389013 239.595566,28.0390501 C239.595566,25.8156781 239.751552,23.6746855 240.063527,21.6160078 C240.375502,19.5573301 240.999442,17.7251344 241.935367,16.1193658 C242.871292,14.5135972 244.212764,13.2372362 245.959824,12.2902444 C247.706883,11.3432527 250.036262,10.8697639 252.948028,10.8697639 C255.443827,10.8697639 257.492432,11.2712 259.093904,12.0740843 C260.695375,12.8769686 261.953655,14.0092244 262.868782,15.4708856 C263.783908,16.9325467 264.407849,18.702983 264.740622,20.7822475 C265.073395,22.8615119 265.239779,25.1774896 265.239779,27.7302499 L265.239779,29.6448106 L248.206032,29.6448106 Z" id="Cambridge" fill="#22333B"></path>
                    <path d="M364.321322,66.4996925 L360.901734,66.4996925 L360.901734,67.1813545 C360.901734,68.7327311 361.317305,69.9236689 362.148459,70.7542038 C362.979613,71.5847388 364.36089,72 366.292334,72 C368.14462,72 369.589223,71.5964914 370.626186,70.7894622 C371.663149,69.982433 372.181623,68.6935562 372.181623,66.922793 C372.181623,66.4056675 372.13413,65.9355605 372.039141,65.5124578 C371.944152,65.0893551 371.773965,64.7015168 371.528577,64.3489312 C371.283189,63.9963456 370.95469,63.6672707 370.543071,63.3616965 C370.131452,63.0561223 369.601105,62.7623054 368.952013,62.4802369 L366.316081,61.3519687 C365.587832,61.0542298 365.112894,60.7290724 364.891253,60.3764868 C364.669612,60.0239013 364.558793,59.5890522 364.558793,59.0719267 C364.558793,58.8211992 364.586498,58.5783106 364.641908,58.3432535 C364.697318,58.1081964 364.800221,57.9005658 364.950621,57.7203554 C365.10102,57.540145 365.302869,57.3951953 365.556173,57.285502 C365.809477,57.1758088 366.126102,57.1209629 366.506058,57.1209629 C367.170981,57.1209629 367.645919,57.3364287 367.930886,57.7673666 C368.215853,58.1983045 368.358335,58.8133613 368.358335,59.6125552 L371.635439,59.6125552 L371.635439,59.1424435 C371.635439,58.3432495 371.504831,57.6576767 371.243612,57.0857046 C370.982392,56.5137324 370.618273,56.0436253 370.151243,55.6753693 C369.684214,55.3071132 369.13012,55.0407192 368.488944,54.8761793 C367.847768,54.7116394 367.147234,54.6293706 366.387322,54.6293706 C364.756678,54.6293706 363.474345,55.0367967 362.540286,55.8516612 C361.606228,56.6665256 361.139205,57.9044742 361.139205,59.5655441 C361.139205,60.2550448 361.226277,60.8622664 361.400424,61.3872271 C361.57457,61.9121879 361.84766,62.3744598 362.2197,62.7740568 C362.59174,63.1736538 363.054805,63.5223165 363.608908,63.8200555 C364.16301,64.1177944 364.820008,64.3920235 365.57992,64.642751 C366.149854,64.8307967 366.62875,65.0149219 367.016621,65.1951323 C367.404493,65.3753427 367.717161,65.5751382 367.954633,65.7945248 C368.192106,66.0139114 368.362292,66.2607176 368.465197,66.5349508 C368.568101,66.8091841 368.619553,67.1343414 368.619553,67.5104327 C368.619553,68.2156039 368.409789,68.7366392 367.990254,69.0735543 C367.570719,69.4104694 367.099739,69.5789245 366.577299,69.5789245 C366.134017,69.5789245 365.76594,69.5162435 365.473058,69.3908798 C365.180175,69.265516 364.946664,69.0931434 364.772517,68.8737568 C364.598371,68.6543702 364.479636,68.3840587 364.41631,68.062814 C364.352984,67.7415694 364.321322,67.3850716 364.321322,66.9933098 L364.321322,66.4996925 Z M383.81772,54.9584489 L383.81772,57.7321082 L380.113167,57.7321082 L380.113167,71.7414385 L376.693579,71.7414385 L376.693579,57.7321082 L372.989026,57.7321082 L372.989026,54.9584489 L383.81772,54.9584489 Z M391.823602,65.4184354 L390.185049,57.8731417 L390.137555,57.8731417 L388.499003,65.4184354 L391.823602,65.4184354 Z M392.274797,54.9584489 L396.763006,71.7414385 L393.200935,71.7414385 L392.41728,68.1920948 L387.905324,68.1920948 L387.121669,71.7414385 L383.559599,71.7414385 L388.047807,54.9584489 L392.274797,54.9584489 Z M405.986875,59.9416335 L409.26398,59.9416335 C409.26398,58.2335522 408.852367,56.92117 408.029129,56.0044475 C407.20589,55.087725 405.860233,54.6293706 403.992116,54.6293706 C402.899742,54.6293706 401.989444,54.8095783 401.261195,55.1699991 C400.532946,55.53042 399.947189,56.0671255 399.503907,56.7801319 C399.060625,57.4931383 398.747957,58.3824242 398.565895,59.4480161 C398.383833,60.5136081 398.292803,61.7515567 398.292803,63.161899 C398.292803,64.6192527 398.356128,65.9002944 398.48278,67.0050626 C398.609432,68.1098307 398.858775,69.0382922 399.230815,69.7904747 C399.602855,70.5426573 400.117371,71.0989507 400.774379,71.4593715 C401.431386,71.8197923 402.282317,72 403.327196,72 C404.134602,72 404.82722,71.8628854 405.40507,71.5886522 C405.98292,71.314419 406.477647,70.8482295 406.889266,70.1900697 L406.93676,70.1900697 L406.93676,71.7414385 L409.453957,71.7414385 L409.453957,62.6917872 L403.920874,62.6917872 L403.920874,65.1833795 L406.176852,65.1833795 L406.176852,66.8992875 C406.176852,67.3537311 406.105611,67.7494045 405.963128,68.0863196 C405.820644,68.4232347 405.642543,68.7013814 405.428817,68.920768 C405.215092,69.1401546 404.985539,69.3046921 404.74015,69.4143853 C404.494762,69.5240786 404.269167,69.5789245 404.063357,69.5789245 C403.57258,69.5789245 403.172841,69.4261397 402.864127,69.1205655 C402.555412,68.8149913 402.317943,68.3762247 402.151713,67.8042526 C401.985482,67.2322804 401.870705,66.5388725 401.807379,65.7240081 C401.744053,64.9091436 401.712391,64.00027 401.712391,62.9973599 C401.712391,60.8975169 401.89445,59.3931743 402.258575,58.484287 C402.622699,57.5753998 403.216372,57.1209629 404.03961,57.1209629 C404.387903,57.1209629 404.684739,57.2110668 404.930127,57.3912772 C405.175516,57.5714876 405.377364,57.798706 405.535679,58.0729392 C405.693994,58.3471725 405.808771,58.6488245 405.880013,58.9779044 C405.951255,59.3069842 405.986875,59.6282241 405.986875,59.9416335 Z M421.646218,54.9584489 L412.171111,54.9584489 L412.171111,71.7414385 L421.883689,71.7414385 L421.883689,68.9677792 L415.590698,68.9677792 L415.590698,64.4547063 L421.290011,64.4547063 L421.290011,61.681047 L415.590698,61.681047 L415.590698,57.7321082 L421.646218,57.7321082 L421.646218,54.9584489 Z M432.278051,66.5702092 C432.278051,67.0403233 432.301798,67.4790899 432.349293,67.8865221 C432.396787,68.2939544 432.487817,68.6426171 432.622385,68.9325208 C432.756952,69.2224245 432.946928,69.4496429 433.192316,69.6141828 C433.437704,69.7787228 433.758287,69.8609915 434.154075,69.8609915 C434.565694,69.8609915 434.894193,69.7787228 435.139581,69.6141828 C435.384969,69.4496429 435.570987,69.2185069 435.697639,68.920768 C435.824291,68.6230291 435.907405,68.2743663 435.946984,67.8747693 C435.986562,67.4751724 436.006351,67.0403233 436.006351,66.5702092 C436.006351,65.4419354 435.86387,64.6349183 435.578903,64.1491337 C435.293936,63.6633491 434.818998,63.4204605 434.154075,63.4204605 C433.47332,63.4204605 432.990467,63.6633491 432.7055,64.1491337 C432.420532,64.6349183 432.278051,65.4419354 432.278051,66.5702092 Z M435.745133,59.3304882 C435.745133,58.6723284 435.630356,58.1708809 435.400799,57.8261306 C435.171243,57.4813802 434.771503,57.3090076 434.201569,57.3090076 C433.758287,57.3090076 433.398126,57.4147817 433.121074,57.6263331 C432.844023,57.8378844 432.630301,58.1317013 432.479902,58.5077926 C432.329502,58.8838839 432.230557,59.3304856 432.183063,59.8476111 C432.135568,60.3647366 432.111821,60.9288651 432.111821,61.5400134 L432.111821,62.362709 L432.159315,62.362709 C432.444282,61.9239358 432.851938,61.5752731 433.382293,61.3167104 C433.912648,61.0581476 434.557772,60.9288682 435.317684,60.9288682 C436.061765,60.9288682 436.695016,61.0581476 437.217455,61.3167104 C437.739895,61.5752731 438.163381,61.9356885 438.487927,62.3979674 C438.812473,62.8602463 439.049942,63.4087045 439.200341,64.0433585 C439.35074,64.6780126 439.425939,65.3714205 439.425939,66.1236031 C439.425939,68.0510709 438.994537,69.5123203 438.13172,70.5073952 C437.268903,71.50247 435.887625,72 433.987845,72 C432.816314,72 431.882269,71.7962869 431.185683,71.3888547 C430.489097,70.9814225 429.954792,70.4212116 429.582751,69.7082052 C429.210711,68.9951988 428.969284,68.1685939 428.858464,67.2283657 C428.747643,66.2881375 428.692234,65.3087478 428.692234,64.2901672 C428.692234,63.1148819 428.727854,61.9748723 428.799096,60.8701042 C428.870338,59.765336 429.08406,58.7859463 429.440268,57.9319057 C429.796477,57.0778651 430.354529,56.3922923 431.114441,55.8751668 C431.874354,55.3580413 432.95088,55.0994824 434.344052,55.0994824 C434.945649,55.0994824 435.527448,55.1699984 436.089466,55.3110327 C436.651485,55.4520669 437.146212,55.6871204 437.573662,56.0162003 C438.001113,56.3452802 438.345443,56.7801292 438.606663,57.3207604 C438.867882,57.8613917 439.006406,58.5312942 439.022238,59.3304882 L435.745133,59.3304882 Z" id="STAGE-6" fill="#22333B"></path>
                </g>
            </g>
        </g>
    </g>
</svg>