<?xml version="1.0" encoding="utf-8"?>
<!-- Generator: Adobe Illustrator 19.0.0, SVG Export Plug-In . SVG Version: 6.00 Build 0)  -->
<svg version="1.1" id="Layer_1" xmlns="http://www.w3.org/2000/svg" xmlns:xlink="http://www.w3.org/1999/xlink" x="0px" y="0px"
	 viewBox="390 -137 1280 775" style="enable-background:new 390 -137 1280 775;" xml:space="preserve">
<style type="text/css">
	.st0{clip-path:url(#XMLID_2_);}
	.st1{fill:#00A78D;}
	.st2{fill:#5FC4E4;}

</style>
<g id="XMLID_5_">
	<defs>
		<rect id="XMLID_54_" x="390" y="-136.1" width="1279.6" height="775"/>
	</defs>
	<clipPath id="XMLID_2_">
		<use xlink:href="#XMLID_54_"  style="overflow:visible;"/>
	</clipPath>
	<g id="XMLID_60_" class="st0">
		<path id="XMLID_1099_" class="st1" d="M354.9,221.2c-6.7,0-6.8,8.7,0,8.7C361.7,229.9,361.7,221.2,354.9,221.2z"/>
		<path id="XMLID_62_" class="st2" d="M1732.3,174.5c-0.2-2.5-2.2-3.9-4.4-4.2c-1-32.1-2.8-64.2-5.5-96.3c-0.5-5.9-9.8-5.5-10.7,0
			c-0.5,3-1,6-1.4,9c-0.6-37.3-2-74.6-4.2-111.8c-0.8-14,1.8-43.7-17.7-46.8c-3.2-0.5-6.3,0.8-6.8,4.2c-2.1,13.2-4.1,26.4-6.2,39.7
			c-0.3-8.5-0.6-17-0.9-25.5c0-0.8-0.3-1.5-0.7-2.1c0.1-0.3,0.3-0.6,0.4-0.8c1-2.3-0.3-4-2.2-4.8c0.2-10.1,0.3-20.3,0.4-30.4
			c2.6,2.9,9.2,1.9,9.8-2.7c2.3-19.6,4.1-39.3,5.7-59c2.2,3.6,9.4,2.8,10.1-2c2.9-21.1,5.4-42.3,7.4-63.5c1.1-0.5,2-1.4,2.3-2.8
			c2.1-9.3,2.1-18.3,0.1-27.6c-1.1-5.1-10.2-3.8-10.5,1.2c-0.1,1.8-0.3,3.5-0.4,5.3c-1,0.7-1.8,1.8-2,3.2c-0.5,3.2-1.1,6.4-1.6,9.7
			c-0.2-3.5-0.5-7.1-0.7-10.6c-0.4-5.7-10.6-5.8-10.7,0c-0.4,15.2-1.1,30.5-1.9,45.7c-0.5-23.4-1.1-46.9-1.6-70.3
			c-0.1-5.7-10.7-5.8-10.7,0c-0.2,25.2-0.7,50.4-1.6,75.7c-0.3-2.9-0.6-5.7-1-8.6c-0.6-4.8-7.9-5.7-10.1-2.2
			c-0.4-3.6-0.9-7.3-1.3-10.9c-0.5-4.4-7.6-6.2-10-2.2c-9.8,16.2-10.2,35.4-11.6,53.7c-0.1,0.8-0.1,1.6-0.2,2.5
			c-0.2,0.7-0.4,1.5-0.6,2.2c-0.3-4.1-0.6-8.2-0.8-12.3c-0.1-2-1.3-3.2-2.9-3.8c0.5-16.5,1.1-33.1,1.8-49.6
			c1.3-29.7,3-59.4,5.1-89.1c0.4-5.8-10.1-5.7-10.7,0c-2.1,18.9-4.2,37.9-6.5,56.8c-0.8-16.8-1.7-33.7-2.5-50.5
			c-0.3-5.7-10.8-5.8-10.7,0c0.2,27.1-0.1,54.3-0.9,81.4c-0.2,0-0.4,0.1-0.7,0.1c-2.9-25.1-6.1-50.2-10.1-75.2
			c-0.6-3.6-4.8-5.6-8.1-3.8c-9.1,5-9.1,15.8-10.2,25.1c-0.1,0.8-0.2,1.5-0.2,2.3c-2.6-2.4-9.1-1.4-9.7,3
			c-1.7,12.6-3.5,25.2-5.2,37.8c-0.5,1.9-1,3.7-1.4,5.6c-2.9,0.3-5.5,2.2-4.5,5.4c0.6,2,1.2,3.9,1.9,5.9c-0.8,3.8-1.6,7.6-2.2,11.4
			c-0.1,0.3-0.2,0.7-0.2,1c-1.3-4.4-2.8-8.7-4.5-12.9c-1.8-4.5-10.3-4.2-10.5,1.2c-0.2,3.5-0.3,7-0.4,10.5c-1.6-0.6-3.4-0.6-4.9,0
			c0.3-11.1,0.5-22.2,0.5-33.4c0-5.1-9.4-6-10.5-1.2c-3.7,16.3-7.3,32.7-10.8,49c-0.4-1-0.8-2.1-1.2-3.1c-1.6-3.9-7.8-3.9-9.9-1
			c2-17.9,3.9-35.7,5.9-53.6c0.6-5.7-9.9-5.6-10.7,0c-3.5,22.3-6.7,44.7-9.5,67.2c-1.9-5.1-3.7-10.3-5.5-15.4c-1.1-3-5-3.7-7.7-2.6
			c0.4-9.8,0.9-19.5,1.3-29.3c0.3-5.7-10.3-5.7-10.7,0c-1.3,19.3-2.7,38.5-4.1,57.8c-1.6,0.1-3.2,0.8-4.2,2.1
			c-0.2,0.3-0.4,0.5-0.5,0.8c0.7-17.2,1.4-34.4,2.2-51.7c0.2-5.8-10.2-5.7-10.7,0c-0.6,6-1.2,12-1.7,18c-2.9-2.2-8.7-1.1-9.1,3.2
			c-0.4,4.1-0.8,8.1-1.2,12.2c-2,0.4-3.7,1.7-4,3.7c-1.3-3-2.6-6-3.8-9.1c-0.3-8-0.6-16-0.8-24.1c-0.1-4.2-6.3-5.6-9.2-3.1
			c-0.8,0.7-1.5,1.5-2.2,2.4c-3.6-1.7-9,0.1-7.8,4.8c0.7,2.7,1.3,5.3,2,8c-1.2,5.4-1.5,11.2-2,16.7c0,0.1,0,0.1,0,0.2
			c-3.2-7.8-6.5-15.6-9.7-23.4c0-0.8,0-1.6,0-2.3c0-1.7-1-2.9-2.4-3.6c-1.8-4.3-3.6-8.7-5.4-13c-2.1-5-12-3.6-10.3,2.3
			c1.6,5.5,3.1,11,4.7,16.5c-1.4,2.2-2.3,4.7-3.1,7.3c-9.7-20.7-19.8-41.2-30.2-61.6c-2.5-4.8-11.4-3.9-10.3,2.3
			c2.3,13.2,4.9,26.4,7.8,39.5c-9.6-23.6-19.4-47.1-29.6-70.5c-2.2-5-11.6-3.7-10.3,2.3c4.3,20.2,9,40.3,14,60.3
			c-3.5-2.1-9.8-0.2-8.5,4.6c5.2,18.6,10.6,37.2,16.3,55.7c-2.3,0.1-4.5,1.3-5.1,3.5c0.1-2.7,0.2-5.4,0.2-8.1
			c0.1-4.3-5.3-5.3-8.5-3.3c-0.5-1.2-1-2.4-1.5-3.6c-11.4-27.5-23.8-54.6-36.9-81.4c-1.7-3.4-9.4-5-10.3,0
			c-1.1,5.9-1.8,11.9-2.1,17.8c-1.8-4.4-3.5-8.9-5.3-13.3c-2-5.1-12.3-3.5-10.3,2.3c5.7,17.1,11.5,34.1,17.2,51.2
			c0.7,5.8,1.6,11.6,2.7,17.3c-4.5-13.9-9.1-27.7-14.1-41.4c-1.4-4-7.4-4-9.6-1.2c-3.3-2.7-10-1-9,4.2c1.4,6.7,2.8,13.4,4.2,20
			c-5.1-8.2-11.6-15.2-20.5-19.6c-0.6-0.3-1.3-0.4-2.1-0.5c-0.2-0.4-0.4-0.9-0.6-1.3c-2-4.6-10.5-3.8-10.5,1c-0.1-0.3-0.2-0.6-0.4-1
			c-2-5.2-11.5-3.7-10.3,2.3c1.9,10.5,4,20.9,6.1,31.3c-3.4-8.6-6.8-17.1-10.4-25.5c-2.2-5.1-11.4-3.7-10.3,2.3
			c2.3,13.2,4.8,26.3,7.3,39.5c-4.1-12.8-8.3-25.7-12.5-38.5c-1.6-4.8-9.6-3.9-10.4,0.6c-0.5-1.7-1.1-3.5-1.6-5.2
			c-1.7-5.4-11.5-3.6-10.3,2.3c2.7,14.2,5.4,28.5,8,42.7c-2.8-9.5-5.6-19.1-8.3-28.6c-1.3-4.6-11.3-4-10.5,1.2
			c0.5,3.5,1.1,7.1,1.6,10.6c-0.7-0.7-1.6-1.2-2.5-1.4c-2.4-5.7-4.8-11.5-7.3-17.2c-2.2-5-12-3.7-10.3,2.3
			c2.4,8.3,4.7,16.6,7.1,24.8c-2.4-7.6-4.8-15.1-7.2-22.7c-1.7-5.4-11.3-3.6-10.3,2.3c1.5,8.5,3,17.1,4.6,25.6
			c-3.7-9.4-7.5-18.7-11.5-27.9c-1.8-4.1-8.7-4-10.2-0.4c-0.2-0.8-0.5-1.5-0.7-2.3c-0.6-2.1-3.2-3.2-5.2-3.2c-0.7,0-1.3,0-1.9,0.1
			c-0.9-2.5-1.9-5-2.8-7.4c-2-5.2-11.6-3.7-10.3,2.3c0.8,3.7,1.6,7.4,2.3,11.1c-0.7,0.9-1.4,1.9-1.9,3c-0.8-2.3-1.7-4.7-2.5-7
			c-1.9-5.2-11.9-3.6-10.3,2.3c3.2,11.7,6.3,23.5,9.5,35.2c0,0.5,0.1,0.9,0.1,1.4c-1.1-1.4-3-1.9-4.9-1.8c-0.1-0.4-0.2-0.7-0.3-1.1
			c0-0.1-0.1-0.3-0.1-0.4c-0.9-3.8-1.8-7.6-2.7-11.4c-3.6-15-5.6-34.5-19.3-44.2c-4.9-3.5-11.2-4.7-16.8-1.8c-3.8,1.9-4.2,4-4.5,8
			c-0.3,5.3-0.7,10.7-1,16c-0.1,1.9-0.2,3.7-0.3,5.6c-0.6-1.5-1.3-3.1-2.1-4.6c-1.8-3.8-8-4.4-10.1-0.6c-0.5-2.4-1-4.8-1.6-7.1
			c-0.4-1.6-2.3-2.7-3.7-3c-9.7-1.9-16.3,4.5-20.1,12.8c-2.4,5.2-3.4,11-4.8,16.6c-4.4-22.4-9.1-44.8-14.2-67
			c-1.1-4.8-8.8-3.7-10.3,0c-4.9,11.2-7.9,23-10,35c-4.3,3.9-8.5,7.9-12.6,11.9c0.4-2.2,0.8-4.3,1.2-6.5c1.1-5.9-9-7.8-10.3-2.3
			c-0.5,1.9-0.9,3.8-1.4,5.6c-0.4-4.4-9.2-4.5-10.6-0.3c-2.3,7-4.5,14-6.7,21c0.4-3.4,0.9-6.7,1.3-10.1c0.5-3.7-4.3-5-7.6-3.9
			c0.8-5.1,1.7-10.2,2.5-15.3c0.8-5.2-9.1-5.7-10.5-1.2c-0.3,1.1-0.7,2.2-1,3.2c0.2-1.4,0.5-2.8,0.7-4.2c0.9-5.4-8.8-5.3-10.5-1.2
			c-0.5,1.3-1,2.5-1.5,3.8c-0.3,0.4-0.6,0.9-0.8,1.5c-0.2,0.6-0.3,1.1-0.5,1.7c-5.7,15.1-10,30.7-12.9,46.6
			c-0.5,2.8,1.4,4.6,3.8,5.3c-0.8,7.4-1.5,14.8-1.9,22.3c-1.3,0.3-2.4,0.9-3.1,2c-0.7,1.2-1.3,2.4-1.9,3.7c-0.2-1.2-0.4-2.4-0.6-3.5
			c-1.3-7.8-2.9-16.3-5.7-24.2c-0.6-12.3-1.4-24.5-2.3-36.7c-0.4-5.7-10.9-5.8-10.7,0c0.1,4.6,0.3,9.2,0.4,13.8c-0.1-1-0.3-2-0.4-3
			c-0.5-3.3-4.2-4.8-7.2-4.1c-2.1-3.7-10.2-3.1-10.2,1.9c0,3.5,0.1,7,0.1,10.5c-1.5,2.5-2.9,5-4.1,7.6c0-1.7,0-3.4-0.1-5
			c-0.1-5.7-10.5-5.7-10.7,0c-0.3,8.8-0.5,17.6-0.5,26.5c-0.5,0.5-1,1-1.5,1.4c-0.2-16-0.5-32-0.7-48c-0.1-5-9.4-6.1-10.5-1.2
			c-1.6,7.4-3.3,14.8-4.9,22.2c-0.1-1-0.1-2-0.2-3.1c-0.1-1.7-1-2.8-2.3-3.5c0.2-6.2,0.4-12.3,0.6-18.5c0.1-3.4-3.7-4.8-6.8-4.1
			c9.6-18.3,17.8-37.4,24.4-57.1c1.9-5.7-8.6-7.6-10.3-2.3c-10.4,30.8-24.6,60.1-42.3,87.4c-0.3-8.1-0.5-16.2-0.8-24.3
			c-0.2-5.1-9.3-6-10.5-1.2c-1.6,6.3-3.6,12.5-5.7,18.6c0.8-12.5,1.7-25,2.5-37.5c0.2-2.6-3.1-4.5-5.4-4.4c-6.1,0.4-10.2,3.3-13,7.4
			c0.9-6,1.9-12,2.8-17.9c0.7-4.4-7-5.6-9.7-2.8c-2.7-2-8.5-1.6-9.2,2c-0.1,0.5-0.2,1-0.3,1.5c-3-0.5-6.4,0.8-6.2,4.1
			c0.4,6.1,0.9,12.2,1.3,18.4c-0.2,0.9-0.4,1.8-0.6,2.7c-1,0.6-1.9,1.5-2.3,2.5c-0.5,1.4-0.9,2.7-1.4,4.1c-2.9-1.6-8.1-1-8.6,2.3
			c-1.2,7.1-2.4,14.3-3.6,21.4c-2.9-0.9-6.8,0-7.5,2.8c-1,3.9-2.1,7.8-3.1,11.7c1.4-14.1,2.9-28.1,4.3-42.2
			c0.5-5.2-9.2-5.8-10.5-1.2c-4.6,16.4-9.3,32.8-13.9,49.3c-0.2-5.7-0.3-11.5-0.5-17.2c1.3-19.8,1.5-39.6-0.5-59.6
			c-0.5-5-8.9-6.1-10.5-1.2c-5.9,18.2-11.2,36.5-16.2,54.9c1-10.1,2-20.1,2.9-30.2c0.5-5.1-7.7-5.2-10-2.2
			c-3.3,4.4-5.8,9.2-7.7,14.2c-0.5-0.3-1.1-0.6-1.7-0.8c-2.6-1.1-6.9-0.6-7.9,2.6c-0.7,2.1-1.3,4.3-1.9,6.5
			c-0.1-0.3-0.2-0.5-0.2-0.8c-1.3-4.6-11.4-4-10.5,1.2c1.7,10.6,2.1,21.2,1.2,31.7c-0.7-2.3-1.4-4.5-2-6.8c-0.2-2.6-0.5-5.2-0.7-7.8
			c-0.1-1.6-1.1-2.7-2.3-3.4c-0.2-0.9-0.5-1.7-0.7-2.6c-1.4-8.4-3.2-16.8-5.2-25.1c-1.1-4.3-7.6-4-9.7-0.8c-2-3.9-11-3.1-10.3,1.8
			c0.2,1.6,0.5,3.3,0.8,4.9c-0.7-2.7-1.5-5.5-2.3-8.2c-1.4-4.5-11.4-4-10.5,1.2c0.1,0.4,0.1,0.8,0.2,1.2c0,0,0,0,0,0c0,0,0,0,0,0
			c1.4,8.7,3,17.4,4.8,26.1c-2.9-2.3-8.6-1.3-9.1,3.1c-0.1,0.7-0.2,1.4-0.2,2.1c-1-7.4-2.2-14.7-3.6-22.1c-0.2-1.3-1-2.2-2-2.7
			c-0.1-1.6-0.2-3.2-0.3-4.7c-0.4-5.2-8.1-5.6-10.2-1.6c-0.5-1.8-1-3.5-1.5-5.3c-1.5-5.4-11.7-3.6-10.3,2.3
			c2.4,10.3,5.2,20.5,8.4,30.6c0,0.1,0,0.1,0,0.2c-0.2,1.6-0.3,3.2-0.5,4.8c-0.3-0.1-0.5-0.2-0.8-0.3c-3-12.7-6.2-25.4-9.9-37.9
			c-1.3-4.6-11.2-4-10.5,1.2c2.5,19,6.1,37.9,10.8,56.4c0,0.3-0.1,0.6-0.1,0.8c-3.8-18.9-9.7-37.6-15.6-55.9
			c-1.7-5.3-11.5-3.6-10.3,2.3c0.2,0.9,0.4,1.7,0.5,2.6c-0.9,0.1-1.8,0.4-2.6,0.8c0-0.6-0.1-1.2-0.1-1.8c-0.1-2.5-2-3.9-4.2-4.2
			c0.7-10.1,1.4-20.1,2.1-30.2c0.4-5.8-10-5.6-10.7,0c-0.3,2.2-0.6,4.5-0.9,6.7c0.1-2.1,0.2-4.2,0.4-6.2c0.4-7.2-0.3-14.5-6.2-19.3
			c-2.4-1.9-8.2-1.8-9,1.9c-1.9,9-3.7,18-5.5,27c3.4-27.5,6.8-54.9,10.2-82.4c2.7-22.3,5.5-44.5,8.2-66.8c0.7-5.6-10-5.7-10.7,0
			c-7.1,57.3-14.2,114.7-21.2,172c-2.8-0.2-5.8,1.2-6.1,4.3c-0.5,5.6-1,11.1-1.6,16.7c-5.5-16.8-10.9-33.7-16.4-50.5
			c-1.5-4.5-10.8-4.2-10.5,1.2c0.8,15.7,1.7,31.3,2.3,47c-2.3,0.7-4.1,2.5-3.5,5.2c1,4.4,1.9,8.8,2.9,13.1
			c-1.3,5.8-2.5,11.6-3.8,17.4c0.6-13.5,0.6-27,0.2-40.5c-0.2-5.7-10.9-5.7-10.7,0c0.2,5.7,0.3,11.3,0.3,17c-1.8-1.9-5.5-2-7.7-0.4
			c-0.5-12.7-1.1-25.4-1.6-38c-0.2-5.8-10.3-5.7-10.7,0c-0.5,6.5-1,12.9-1.6,19.4c-1.2,7.5-2.2,15-3,22.5c-0.8,0.9-1.2,2.2-0.8,3.7
			c0.1,0.3,0.2,0.7,0.3,1c-0.5,5.3-0.9,10.6-1.3,15.9c-1.9-2.4-3.9-4.7-6.1-6.8c-3.1-3-10.3-0.5-9,4.2c5.9,21.6,11.8,43.3,17.5,65
			c0.1,10.4,0.5,20.7,1.2,31.1c0.3,3.9,4.8,5.1,7.9,3.8c0.3,1,0.5,2.1,0.8,3.1c-3.1-1-7.6,0.6-7.8,4.1c-0.1,1.4-0.1,2.7-0.2,4.1
			c-0.1-0.2-0.2-0.5-0.3-0.7c-2.1-5.1-11.6-3.7-10.3,2.3c1.4,7.1,2.9,14.2,4.5,21.3c-1.5,0.6-2.7,1.9-2.8,3.9
			c-0.5,9.8-0.8,19.6-1.1,29.5c-2.4,0.3-4.7,1.9-4.9,4.3c-1.2,16.7-2,33.4-2.4,50.1c-1.2,0.7-2,1.9-2,3.3
			c-0.4,16.7-0.9,33.4-1.3,50.1c0,0.9,0.2,1.6,0.6,2.3c-2.5,0.6-4.5,2.5-3.8,5.3c2.8,11.8,5.6,23.6,8.4,35.4
			c0.8,12.3,1.8,24.6,3,36.9c0.3,3.5,3.8,4.8,6.8,4.1c1.4,5.8,2.8,11.7,4.2,17.5c-0.8,12.8-1.4,25.6-1.6,38.4c0,0.1-0.1,0.1-0.1,0.2
			c-0.2-3.5-0.4-7.1-0.6-10.6c-0.4-5.8-10.2-5.7-10.7,0c-0.8,8.6-1.6,17.2-2.4,25.7c-1.1-21.5-2.9-43-5.3-64.4
			c-0.5-4.7-9.5-6.4-10.5-1.2c-7.9,40.8-10.2,82.5-6.3,123.9c0.2,2.5,2.2,3.9,4.4,4.2c1,32.1,2.8,64.2,5.5,96.3
			c0.5,5.9,9.8,5.5,10.7,0c0.5-3,1-6,1.4-9c0.6,37.3,2,74.6,4.2,111.8c0.7,12.1-1.1,35.6,10.7,44c-1.4,0.7-2.5,1.9-2.7,3.6
			c-0.2,2.4-0.5,4.8-0.7,7.2c-3.1-1.1-7.6,0.2-7.8,3.9c-0.7,11.4-0.8,22.7-0.3,34.1c-0.1,17.5-0.3,35-0.4,52.5
			c0,3.5,3.8,4.9,6.9,4.1c-1.9,14.8-3.5,29.6-4.9,44.4c-1.1,0.5-2,1.4-2.3,2.8c-2.1,9.3-2.1,18.3-0.1,27.6
			c1.1,5.1,10.2,3.8,10.5-1.2c0.1-1.8,0.3-3.5,0.4-5.3c1-0.7,1.8-1.8,2-3.2c0.5-3.2,1.1-6.4,1.6-9.7c0.2,3.5,0.5,7.1,0.7,10.6
			c0.4,5.7,10.6,5.8,10.7,0c0.4-15.2,1.1-30.5,1.9-45.7c0.5,23.4,1.1,46.9,1.6,70.3c0.1,5.7,10.7,5.8,10.7,0
			c0.2-25.2,0.7-50.4,1.6-75.7c0.3,2.9,0.6,5.7,1,8.6c0.6,4.8,7.9,5.7,10.1,2.2c0.4,3.6,0.9,7.3,1.3,10.9c0.5,4.4,7.6,6.2,10,2.2
			c9.8-16.2,10.2-35.4,11.6-53.7c0.1-0.8,0.1-1.6,0.2-2.5c0.2-0.7,0.4-1.5,0.6-2.2c0.3,4.1,0.6,8.2,0.8,12.3c0.1,2,1.3,3.2,2.9,3.8
			c-0.5,16.5-1.1,33.1-1.8,49.6c-1.3,29.7-3,59.4-5.1,89.1c-0.4,5.8,10.1,5.7,10.7,0c2.1-18.9,4.2-37.9,6.5-56.8
			c0.8,16.8,1.7,33.7,2.5,50.5c0.3,5.7,10.8,5.8,10.7,0c-0.2-28.7,0.1-57.4,1-86c3,26.7,6.4,53.3,10.6,79.8c0.6,3.6,4.8,5.6,8.1,3.8
			c9.1-5,9.1-15.8,10.2-25.1c0.1-0.8,0.2-1.5,0.2-2.3c2.6,2.4,9.1,1.4,9.7-3c1.7-12.6,3.5-25.2,5.2-37.8c0.5-1.9,1-3.7,1.4-5.6
			c2.9-0.3,5.5-2.2,4.5-5.4c-0.6-2-1.2-3.9-1.9-5.9c0.8-3.8,1.6-7.6,2.2-11.4c0.1-0.3,0.2-0.7,0.2-1c1.3,4.4,2.8,8.7,4.5,12.9
			c1.8,4.5,10.3,4.2,10.5-1.2c0.2-3.5,0.3-7,0.4-10.5c1.6,0.6,3.4,0.6,4.9,0c-0.3,11.1-0.5,22.2-0.5,33.4c0,5.1,9.4,6,10.5,1.2
			c3.7-16.3,7.3-32.7,10.8-49c0.4,1,0.8,2.1,1.2,3.1c1.6,3.9,7.8,3.9,9.9,1c-2,17.9-3.9,35.7-5.9,53.6c-0.6,5.7,9.9,5.6,10.7,0
			c3.5-22.3,6.7-44.7,9.5-67.2c1.9,5.1,3.7,10.3,5.5,15.4c1.1,3,5,3.7,7.7,2.6c-0.4,9.8-0.9,19.5-1.3,29.3c-0.3,5.7,10.3,5.7,10.7,0
			c1.3-19.3,2.7-38.5,4.1-57.8c1.6-0.1,3.2-0.8,4.2-2.1c0.2-0.3,0.4-0.5,0.5-0.8c-0.7,17.2-1.4,34.4-2.2,51.7
			c-0.2,5.8,10.2,5.7,10.7,0c0.6-6,1.2-12,1.7-18c2.9,2.2,8.7,1.1,9.1-3.2c0.2-2.1,0.4-4.1,0.6-6.2c0.1-0.3,0.3-0.6,0.3-0.9
			c0.5-1.8,1-3.7,1.4-5.5c1.5-0.6,2.6-1.7,2.9-3.4c1.3,3,2.6,6,3.8,9.1c0.3,8,0.6,16,0.8,24.1c0.1,4.2,6.3,5.6,9.2,3.1
			c0.8-0.7,1.5-1.5,2.2-2.4c3.6,1.7,9-0.1,7.8-4.8c-0.7-2.7-1.3-5.3-2-8c1.2-5.4,1.5-11.2,2-16.7c0-0.1,0-0.1,0-0.2
			c3.2,7.8,6.5,15.6,9.7,23.4c0,0.8,0,1.6,0,2.3c0,1.7,1,2.9,2.4,3.6c1.8,4.3,3.6,8.7,5.4,13c2.1,5,12,3.6,10.3-2.3
			c-1.6-5.5-3.1-11-4.7-16.5c1.4-2.2,2.3-4.7,3.1-7.3c9.7,20.7,19.8,41.2,30.2,61.6c2.5,4.8,11.4,3.9,10.3-2.3
			c-2.3-13.2-4.9-26.4-7.8-39.5c9.6,23.6,19.4,47.1,29.6,70.5c2.2,5,11.6,3.7,10.3-2.3c-4.3-20.2-9-40.3-14-60.3
			c3.5,2.1,9.8,0.2,8.5-4.6c-5.2-18.6-10.6-37.2-16.3-55.7c2.3-0.1,4.5-1.3,5.1-3.5c-0.1,2.7-0.2,5.4-0.2,8.1
			c-0.1,4.3,5.3,5.3,8.5,3.3c0.5,1.2,1,2.4,1.5,3.6c11.4,27.5,23.8,54.6,36.9,81.4c1.7,3.4,9.4,5,10.3,0c1.1-5.9,1.8-11.9,2.1-17.8
			c1.8,4.4,3.5,8.9,5.3,13.3c2,5.1,12.3,3.5,10.3-2.3c-5.7-17.1-11.5-34.1-17.2-51.2c-0.7-5.8-1.6-11.6-2.7-17.3
			c4.5,13.9,9.1,27.7,14.1,41.4c1.4,4,7.4,4,9.6,1.2c3.3,2.7,10,1,9-4.2c-1.4-6.7-2.8-13.4-4.2-20c5.1,8.2,11.6,15.2,20.5,19.6
			c0.6,0.3,1.3,0.4,2.1,0.5c0.2,0.4,0.4,0.9,0.6,1.3c2,4.6,10.5,3.8,10.5-1c0.1,0.3,0.2,0.6,0.4,1c2,5.2,11.5,3.7,10.3-2.3
			c-1.9-10.5-4-20.9-6.1-31.3c3.4,8.6,6.8,17.1,10.4,25.5c2.2,5.1,11.4,3.7,10.3-2.3c-2.3-13.2-4.8-26.3-7.3-39.5
			c4.1,12.8,8.3,25.7,12.5,38.5c1.6,4.8,9.6,3.9,10.4-0.6c0.5,1.7,1.1,3.5,1.6,5.2c1.7,5.4,11.5,3.6,10.3-2.3
			c-2.7-14.2-5.4-28.5-8-42.7c2.8,9.5,5.6,19.1,8.3,28.6c1.3,4.6,11.3,4,10.5-1.2c-0.5-3.5-1.1-7.1-1.6-10.6
			c0.7,0.7,1.6,1.2,2.5,1.4c2.4,5.7,4.8,11.5,7.3,17.2c2.2,5,12,3.7,10.3-2.3c-2.4-8.3-4.7-16.6-7.1-24.8c2.4,7.6,4.8,15.1,7.2,22.7
			c1.7,5.4,11.3,3.6,10.3-2.3c-1.5-8.5-3-17.1-4.6-25.6c3.7,9.4,7.5,18.7,11.5,27.9c1.8,4.1,8.7,4,10.2,0.4c0.2,0.8,0.5,1.5,0.7,2.3
			c0.6,2.1,3.2,3.2,5.2,3.2c0.7,0,1.3,0,1.9-0.1c0.9,2.5,1.9,5,2.8,7.4c2,5.2,11.6,3.7,10.3-2.3c-0.8-3.7-1.6-7.4-2.3-11.1
			c0.7-0.9,1.4-1.9,1.9-3c0.8,2.3,1.7,4.7,2.5,7c1.9,5.2,11.9,3.6,10.3-2.3c-3.2-11.7-6.3-23.5-9.5-35.2c0-0.5-0.1-0.9-0.1-1.4
			c1.1,1.4,3,1.9,4.9,1.8c0.1,0.4,0.2,0.7,0.3,1.1c0,0.1,0.1,0.3,0.1,0.4c0.9,3.8,1.8,7.6,2.7,11.4c3.6,15,5.6,34.5,19.3,44.2
			c4.9,3.5,11.1,4.6,16.7,1.9c0.5,1.1,1.6,1.8,2.8,2.2c0.1,0.3,0.1,0.5,0.2,0.8c0.7,3.2,5.6,3.9,8.5,2.4c0.9,3.6,1.8,7.2,2.7,10.8
			c1.4,5.5,11.4,3.6,10.3-2.3c-1.3-7.5-2.7-14.9-4-22.4c0.8,3.3,1.6,6.6,2.4,9.9c1.3,5.4,11.7,3.6,10.3-2.3
			c-2.2-9.7-4.4-19.4-6.6-29.1c1.3,0.1,2.7-0.1,3.8-0.8c3.1,14.1,6.6,28.2,10.4,42.1c1.5,5.4,11.4,3.6,10.3-2.3
			c-0.6-3.6-1.3-7.3-1.9-10.9c0.5,0.6,1.3,1.1,2.1,1.5c3.1,12.7,6.4,25.4,10,38c1.5,5.4,11.6,3.6,10.3-2.3c-0.6-3.1-1.3-6.2-1.9-9.3
			c1.4-0.5,2.5-1.4,3-2.6c0.2-0.4,0.3-0.8,0.5-1.1c0.1,0.5,0.3,1,0.4,1.5c0.9,3.3,5.1,3.9,7.9,2.5c0.7,2.7,1.4,5.3,2.1,8
			c1.3,4.7,8.9,3.9,10.2-0.2c0.9,3.4,1.8,6.8,2.6,10.2c1.4,5.4,11.8,3.6,10.3-2.3c-1.9-7.7-3.8-15.3-5.6-23
			c-0.4-4.9-0.9-9.8-1.3-14.6c4.5,15.7,9,31.5,13.5,47.2c1.3,4.6,11.4,4,10.5-1.2c-5.9-36-11.8-72-17.7-107.9c0,0,0.1,0,0.1,0
			c5.4,20.3,10.8,40.7,16.1,61c1.4,5.4,11.5,3.6,10.3-2.3c-0.1-0.5-0.2-1-0.3-1.6c1.4-0.7,2.3-1.9,2.1-3.6
			c-2.2-16.7-4.4-33.4-6.6-50.1c4.7,15.1,9.8,30.1,15.5,45c1.6,4.3,11.4,4.2,10.5-1.2c-2-13-4-26-6-39c2.8,7.5,5.8,15,9,22.4
			c1.3,3,6.8,3.9,9.3,2.1c0.2,0.6,0.4,1.2,0.6,1.8c0.8,2.4,4,3.4,6.7,3c0.3,1.4,0.6,2.8,0.9,4.3c0.9,4.4,7.7,4,9.8,0.6
			c3.7,11.2,7.3,22.5,11,33.7c1.5,4.5,10.9,4.2,10.5-1.2c-0.2-3-0.4-5.9-0.6-8.9c0.2,0.6,0.4,1.2,0.5,1.7c1.4,4.6,11,4.1,10.5-1.2
			c-0.4-4.3-0.8-8.6-1.3-12.8c1.1,3.4,2.2,6.8,3.3,10.3c0.2,0.8,0.7,1.4,1.2,1.8c0.1,0.3,0.1,0.5,0.2,0.8c1.6,5.3,11.9,3.6,10.3-2.3
			c-0.4-1.4-0.7-2.8-1.1-4.2c0-0.1,0-0.1,0-0.2c1.3,0.4,2.8,0.3,4.1-0.2c-4.4,10.1-8.3,20.4-11.9,30.8c-1.9,5.7,8.6,7.6,10.3,2.3
			c3.7-10.8,7.8-21.5,12.4-31.9c2.2,6.4,4.4,12.8,6.6,19.2c1.5,4.4,11.3,4.2,10.5-1.2c-1.8-13.2-4.1-26.4-7-39.4
			c0.7-1.4,1.4-2.7,2.1-4.1c0.8,2.8,1.6,5.5,2.4,8.3c1.5,5.4,11.6,3.6,10.3-2.3c-0.1-0.3-0.1-0.6-0.2-1c0.5-0.6,0.7-1.5,0.6-2.6
			c-0.7-7.3-1.4-14.7-2-22c0.4-0.6,0.7-1.2,1.1-1.7c1.4,3.7,2.8,7.3,4.3,10.9c0.4,0.9,1,1.5,1.9,2c0,0.9,0.1,1.8,0.1,2.6
			c0.2,5.1,9.3,6,10.5,1.2c1.6-6.3,3.6-12.5,5.7-18.6c-0.8,12.5-1.7,25-2.5,37.5c-0.2,2.6,3.1,4.5,5.4,4.4c6.1-0.4,10.2-3.3,13-7.4
			c-0.9,6-1.9,12-2.8,17.9c-0.7,4.4,7,5.6,9.7,2.8c2.7,2,8.5,1.6,9.2-2c0.1-0.5,0.2-1,0.3-1.5c3,0.5,6.4-0.8,6.2-4.1
			c-0.4-6.1-0.9-12.2-1.3-18.4c0.2-0.9,0.4-1.8,0.6-2.7c1-0.6,1.9-1.5,2.3-2.5c0.5-1.4,0.9-2.7,1.4-4.1c1.2,0.7,2.8,1,4.3,0.8
			c1.9,6.2,3.8,12.3,5.7,18.4c1.6,5.3,11.8,3.6,10.3-2.3c-3.1-12.5-6-25.1-8.6-37.7c0.2-1,0.3-2,0.5-3c2.9,0.9,6.8,0,7.5-2.8
			c1-3.9,2.1-7.8,3.1-11.7c-1.4,14.1-2.9,28.1-4.3,42.2c-0.5,5.2,9.2,5.8,10.5,1.2c4.1-14.7,8.3-29.4,12.4-44.1
			c0.6,1.5,1.2,3,1.8,4.5c0.1,2.5,0.2,5,0.2,7.5c-1.3,19.8-1.5,39.6,0.5,59.6c0.5,5,8.9,6.1,10.5,1.2c2.1-6.5,4.1-13,6.1-19.5
			c0.7,2.2,1.4,4.3,2.1,6.5c1.7,5.3,11.5,3.6,10.3-2.3c-0.3-1.7-0.7-3.5-1-5.2c2.2,0.2,4.6-0.5,5.7-2c1.6-2.1,3.1-4.4,4.3-6.7
			c1.8,6.3,3.6,12.5,5.6,18.7c1.7,5.3,12.1,3.5,10.3-2.3c-1.9-6.4-3.8-12.8-5.7-19.2c-0.3-1.1-0.6-2.3-1-3.4c1.7-0.3,3.2-1.2,3.7-3
			c0.7-2.1,1.3-4.3,1.9-6.5c0.1,0.3,0.2,0.5,0.2,0.8c1.3,4.6,11.4,4,10.5-1.2c-0.3-1.8-0.5-3.7-0.8-5.5
			c6.2,14.5,12.3,29.1,18.4,43.7c1.7,4.1,11.2,4.3,10.5-1.2c-0.8-6.6-1.6-13.2-2.5-19.9c2.4-0.3,4.4-1.8,4.1-4.2
			c-0.2-1.6-0.5-3.3-0.8-4.9c0.7,2.7,1.5,5.5,2.3,8.2c1.4,4.5,11.4,4,10.5-1.2c-0.1-0.4-0.1-0.8-0.2-1.2c0,0,0,0,0,0c0,0,0,0,0,0
			c-1.4-8.7-3-17.4-4.8-26.1c2.9,2.3,8.6,1.3,9.1-3.1c0.1-0.7,0.2-1.4,0.2-2.1c1,7.4,2.2,14.7,3.6,22.1c0.2,1.3,1,2.2,2,2.7
			c0.1,1.6,0.2,3.2,0.3,4.7c0.4,5.2,8.1,5.6,10.2,1.6c0.5,1.8,1,3.5,1.5,5.3c1.5,5.4,11.7,3.6,10.3-2.3c-2.4-10.3-5.2-20.5-8.4-30.6
			c0-0.1,0-0.1,0-0.2c0.2-1.6,0.3-3.2,0.5-4.8c0.3,0.1,0.5,0.2,0.8,0.3c3,12.7,6.2,25.4,9.9,37.9c1.3,4.6,11.2,4,10.5-1.2
			c-2.5-19-6.1-37.9-10.8-56.4c0-0.3,0.1-0.6,0.1-0.8c3.8,18.9,9.7,37.6,15.6,55.9c1.7,5.3,11.5,3.6,10.3-2.3
			c-0.2-0.9-0.4-1.7-0.5-2.6c0.9-0.1,1.8-0.4,2.6-0.8c0,0.6,0.1,1.2,0.1,1.8c0.1,2.5,2,3.9,4.2,4.2c-0.7,10.1-1.4,20.1-2.1,30.2
			c-0.4,5.8,10,5.6,10.7,0c0.3-2.2,0.6-4.5,0.9-6.7c-0.1,2.1-0.2,4.2-0.4,6.2c-0.4,7.2,0.3,14.5,6.2,19.3c2.4,1.9,8.2,1.8,9-1.9
			c1.9-9,3.7-18,5.5-27c-3.4,27.5-6.8,54.9-10.2,82.4c-2.7,22.3-5.5,44.5-8.2,66.8c-0.7,5.6,10,5.7,10.7,0
			c7.1-57.3,14.2-114.7,21.2-172c2.8,0.2,5.8-1.2,6.1-4.3c0.5-5.6,1-11.1,1.6-16.7c5.5,16.8,10.9,33.7,16.4,50.5
			c1.5,4.5,10.8,4.2,10.5-1.2c-0.8-15.7-1.7-31.3-2.3-47c2.3-0.7,4.1-2.5,3.5-5.2c-1-4.4-1.9-8.8-2.9-13.1
			c1.3-5.8,2.5-11.6,3.8-17.4c-0.6,13.5-0.6,27-0.2,40.5c0.2,5.7,10.9,5.7,10.7,0c-0.2-5.7-0.3-11.3-0.3-17c1.8,1.9,5.5,2,7.7,0.4
			c0.5,12.7,1.1,25.4,1.6,38c0.2,5.8,10.3,5.7,10.7,0c0.5-6.5,1-12.9,1.6-19.4c1.2-7.5,2.2-15,3-22.5c0.8-0.9,1.2-2.2,0.8-3.7
			c-0.1-0.3-0.2-0.7-0.3-1c0.5-5.3,0.9-10.6,1.3-15.9c1.9,2.4,3.9,4.7,6.1,6.8c3.1,3,10.3,0.5,9-4.2c-5.9-21.6-11.8-43.3-17.5-65
			c-0.1-10.4-0.5-20.7-1.2-31.1c-0.3-3.9-4.8-5.1-7.9-3.8c-0.3-1-0.5-2.1-0.8-3.1c3.1,1,7.6-0.6,7.8-4.1c0.1-1.4,0.1-2.7,0.2-4.1
			c0.1,0.2,0.2,0.5,0.3,0.7c2.1,5.1,11.6,3.7,10.3-2.3c-1.4-7.1-2.9-14.2-4.5-21.3c1.5-0.6,2.7-1.9,2.8-3.9
			c0.5-9.8,0.8-19.6,1.1-29.5c2.4-0.3,4.7-1.9,4.9-4.3c1.2-16.7,2-33.4,2.4-50.1c1.2-0.7,2-1.9,2-3.3c0.4-16.7,0.9-33.4,1.3-50.1
			c0-0.9-0.2-1.6-0.6-2.3c2.5-0.6,4.5-2.5,3.8-5.3c-2.8-11.8-5.6-23.6-8.4-35.4c-0.8-12.3-1.8-24.6-3-36.9c-0.3-3.5-3.8-4.8-6.8-4.1
			c-1.4-5.8-2.8-11.7-4.2-17.5c0.8-12.8,1.4-25.6,1.6-38.4c0-0.1,0.1-0.1,0.1-0.2c0.2,3.5,0.4,7.1,0.6,10.6c0.4,5.8,10.2,5.7,10.7,0
			c0.8-8.6,1.6-17.2,2.4-25.7c1.1,21.5,2.9,43,5.3,64.4c0.5,4.7,9.5,6.4,10.5,1.2C1733.9,257.6,1736.2,216,1732.3,174.5z
			 M1695.3-229c-0.3,3.7-0.7,7.4-1.1,11.1c-0.3-4.2-0.5-8.4-0.8-12.6C1693.8-229.9,1694.5-229.4,1695.3-229z M1401.3,636.8
			c0.2-1.8,0.4-3.5,0.5-5.3c1-2.4,1.9-4.9,2.8-7.3c0.5,2.5,1,5,1.5,7.4c0,0.1,0,0.3,0,0.4c-0.9,3.2-1.8,6.4-2.7,9.7
			C1402.7,640.1,1402,638.4,1401.3,636.8z M1331.7,712.9c0.2,0.6,0.5,1.3,0.7,1.9c-0.3,1.1-0.6,2.4-1.1,3.8
			C1331.4,716.7,1331.6,714.8,1331.7,712.9z M845.9,633.5c1.4-0.9,2.7-1.9,4-2.8c-0.8,2.7-1.6,5.5-2.2,8.2
			C847.1,637.1,846.5,635.3,845.9,633.5z M370.4,657.6c1.1-5.3,2.2-10.6,3.4-16c-0.5,5.9-1,11.8-1.5,17.6
			C371.8,658.5,371.2,658,370.4,657.6z M865.2-82.2c-0.1-14.1-1.3-29.6,2.1-43.6c0.1,0.1,0.3,0.2,0.4,0.3c0.2,0.6,0.3,1.2,0.5,1.8
			c0,14.5,0.3,28.9,0.8,43.4c-1.4,0-2.7,0.4-3.8,1.1C865.2-80.2,865.2-81.2,865.2-82.2z M488.4,660.1c-0.2-3.1-3-4.5-5.7-4.3
			c-1.8-5.1-3.7-10.2-5.6-15.3c1.1-6,2.2-12,3.3-18c5,12,10,24,14.8,36c-0.5,9.4-1.1,18.8-1.7,28.1c-1.5-4.3-2.9-8.5-4.4-12.8
			C489,669.4,488.7,664.8,488.4,660.1z M1212.6-65.5c1,3.1,1.9,6.1,2.9,9.2c-0.9,0.7-1.4,1.7-1.5,3c-0.1,6.3-0.2,12.6-0.3,18.9
			c-1.8-9.3-3.6-18.6-5.5-27.9C1210.3-62.7,1212.1-63.8,1212.6-65.5z M1649.2,598.3c-0.2-2.5-0.3-4.9-0.5-7.4c3-12,6-23.9,9.2-35.9
			c-1.3,11.1-2.5,22.2-3.5,33.3C1652.2,591.4,1650.5,594.8,1649.2,598.3z M421.2,603.6c-0.7,3.7-1.3,7.5-2,11.2
			c-1.3-7.3-2.5-14.6-3.6-21.9c1.4-9.2,2.7-18.5,3.9-27.8c0.3,2.5,0.7,5,1,7.6c0.4,6.9,0.8,13.8,1.2,20.8c0,0.1,0,0.2,0,0.4
			c-0.1,1.3-0.1,2.7-0.2,4.1C421.4,599.8,421.3,601.7,421.2,603.6z M410.9-96.1c0.2,2.5,0.3,4.9,0.5,7.4c-3,12-6,23.9-9.2,35.9
			c1.3-11.1,2.5-22.2,3.5-33.3C407.9-89.2,409.6-92.6,410.9-96.1z M1345.6-121.4c0.2,0.7,0.4,1.3,0.7,2c0.6,1.7,1.2,3.5,1.8,5.2
			c-0.5,5.5-0.9,11-1.3,16.4c-0.7-2-1.4-4.1-2.1-6.1c0.2-3.6,0.4-7.2,0.5-10.8C1345.4-116.9,1345.5-119.1,1345.6-121.4z M742.4-47.1
			c0.1,5.5,0.1,11,0.2,16.4c0,13.1-0.1,26.1-0.1,39.2c-0.4,0.1-0.9,0.2-1.3,0.2c-0.6-5.2-1.2-10.4-1.8-15.6
			c0.8-14.5,1.6-28.9,2.3-43.4C741.9-49.2,742.1-48.1,742.4-47.1z M1408.4-21.2c0.7,2.8,1.3,5.7,2,8.5c-0.1,1.3-0.2,2.5-0.2,3.8
			c-0.4,2.1-0.9,4.2-1.3,6.3c-0.1-0.3-0.1-0.5-0.2-0.8c-0.3-5.9-0.6-11.8-1-17.7C1407.9-21.1,1408.2-21.1,1408.4-21.2z
			 M1434.2,539.5c1,0.5,2.2,0.7,3.4,0.7c-0.8,3.1-1.7,6.2-2.5,9.3C1434.8,546.2,1434.5,542.9,1434.2,539.5z M535.4,22.1
			C535.5,22.1,535.5,22.1,535.4,22.1c0.5,6.6,1.1,13.3,1.6,20c-0.4,2.4-0.9,4.9-1.3,7.3c-0.9-4.8-1.9-9.7-2.9-14.5
			C533.7,30.7,534.6,26.4,535.4,22.1z M1576.8-149.6c0-0.2,0.1-0.5,0.1-0.7c0.3,0,0.5,0,0.8-0.1
			C1577.4-150.2,1577.1-149.9,1576.8-149.6z M1026.9,473.8c-2.3-5.6-4.6-11.1-6.9-16.7c0.4-2.4,0.7-4.8,1.1-7.2c0.7,1.7,1.3,3.3,2,5
			c0.7,3.2,1.4,6.5,2.1,9.7C1025.8,467.7,1026.3,470.7,1026.9,473.8z M1214.9,132.1c0,1.1,0.1,2.1,0.1,3.2c-0.4-1.1-0.8-2.2-1.1-3.2
			c0.1-1.3,0.1-2.5,0.2-3.8C1214.4,129.6,1214.7,130.8,1214.9,132.1z M1075.6,550.8c0.4,2.9,0.8,5.8,1.2,8.7
			c-3-7.3-5.9-14.6-8.9-21.8c-0.6-2-1.3-4.1-1.9-6.1c1-3.6,1.9-7.2,2.9-10.8c1.3,3.7,2.6,7.3,3.9,11
			C1073.8,538.1,1074.7,544.5,1075.6,550.8z M663.1,457.5c1.1,5.7,2.2,11.5,3.2,17.2c0.6,3.5,1.1,6.9,1.7,10.4
			c0,0.3,0.1,0.5,0.2,0.8c-1.7,0.5-3,1.5-3.3,3C664.5,478.4,663.9,467.9,663.1,457.5z M1397,44.7c-1.1-5.7-2.2-11.5-3.2-17.2
			c-0.6-3.5-1.1-6.9-1.7-10.4c0-0.3-0.1-0.5-0.2-0.8c1.7-0.5,3-1.5,3.3-3C1395.6,23.8,1396.3,34.2,1397,44.7z M1577.4,463.6
			c-0.2,0-0.3,0-0.5,0c1.6-22.6,3.2-45.2,4.8-67.8c0.8,6.1,1.7,12.1,2.5,18.2c0.1,1.1,0.6,1.9,1.2,2.6c-1.6,10.6-3.3,21.2-4.9,31.8
			C1579.5,453.5,1578.4,458.6,1577.4,463.6z M1317.6,535c0-0.7,0-1.5,0-2.2c0-13.1,0.1-26.1,0.1-39.2c0.4-0.1,0.9-0.2,1.3-0.2
			c0.6,5.2,1.2,10.4,1.8,15.6c-0.6,10.5-1.1,21.1-1.7,31.6C1318.6,538.8,1318.1,536.9,1317.6,535z M1142.3,393.4
			c-0.1-0.3-0.3-0.6-0.4-0.9c0.2-1.3,0.4-2.6,0.6-3.9c0.2,1.1,0.4,2.2,0.6,3.3c-0.1,0.3-0.2,0.7-0.2,1
			C1142.6,393,1142.4,393.2,1142.3,393.4z M795.6,400.7c-0.4-1.5-0.9-3-1.3-4.5c-0.4-3.6-0.8-7.2-1.2-10.8c0.5-1.5,1.1-3,1.6-4.5
			c1.4,7.9,2.7,15.7,4.1,23.6c0.2,2.1,0.5,4.3,0.7,6.4c-0.1,0.6-0.3,1.2-0.4,1.9C798,408.7,796.8,404.7,795.6,400.7z M482.8,38.6
			c0.2,0,0.3,0,0.5,0c-1.6,22.6-3.2,45.2-4.8,67.8c-0.8-6.1-1.7-12.1-2.5-18.2c-0.1-1.1-0.6-1.9-1.2-2.6c1.6-10.6,3.3-21.2,4.9-31.8
			C480.7,48.7,481.7,43.6,482.8,38.6z M1259.8,459.1c-0.1-1-0.1-2.1-0.2-3.1c-0.1-2.5-2.2-3.9-4.6-4.2c0.1-1.6,0.1-3.2,0.2-4.8
			c1.7,0,3.4-0.7,4.2-2.2c1.4-2.5,2.7-4.9,4.1-7.4c-1,7.2-2,14.3-3,21.5C1260.2,458.9,1260,459,1259.8,459.1z M534.9,178.4
			c0.1,1.6,0.1,3.3,0.2,4.9c-0.4,1.3-0.9,2.5-1.3,3.8c-1.4-12.1-2.7-24.2-4.1-36.3c-0.2-2.2-0.5-4.3-0.7-6.5
			c1.2-6.4,2.4-12.8,3.5-19.1c0.1,0.3,0.2,0.7,0.3,1C533.6,143.6,534.3,161,534.9,178.4z M473,398.6c0.1-0.4,0.3-0.8,0.4-1.2
			c1.1-0.3,2.7,1.8,3.1,2.4c2.2,3,2.3,7.5,2.7,11c0.8,6.8,1.5,13.7,2.2,20.5c-1.8-8.7-4-17.3-6.5-25.8c-0.4-1.4-1.4-2.3-2.7-2.7
			c0-0.3,0.1-0.6,0.1-0.9c0-0.4,0.1-1.5,0.2-2.5C472.7,399.1,472.9,398.9,473,398.6z M1587.2,103.6c-0.1,0.4-0.3,0.8-0.4,1.2
			c-1.1,0.3-2.7-1.8-3.1-2.4c-2.2-3-2.3-7.5-2.7-11c-0.8-6.8-1.5-13.7-2.2-20.5c1.8,8.7,4,17.3,6.5,25.8c0.4,1.4,1.4,2.3,2.7,2.7
			c0,0.3-0.1,0.6-0.1,0.9c0,0.4-0.1,1.5-0.2,2.5C1587.4,103,1587.3,103.3,1587.2,103.6z M857.2,193.9c-0.2,0.2-0.3,0.4-0.5,0.5
			c-0.3-1.1-0.5-2.3-0.8-3.4C856.4,192,856.8,192.9,857.2,193.9z M517.5,282.7c0,1.3,0.1,2.5,0.1,3.8c0,1,0.5,1.8,1.1,2.5
			c-0.2,3.7-0.4,7.4-0.6,11.2c-0.3,1-0.6,2-1,3c-0.8-3.3-1.5-6.5-2.3-9.8C515.7,289.8,516.6,286.2,517.5,282.7z M627.3,146.8
			c0.6,0.7,1.2,1.4,1.8,2.1c-0.2,1.8-0.3,3.5-0.4,5.3c0,0-0.1,0-0.1,0c-0.1-0.2-0.3-0.3-0.4-0.5
			C627.9,151.4,627.6,149.1,627.3,146.8z M678,274.8c0.2-1.2,0.3-2.5,0.5-3.7c0.1,2,0.2,4,0.3,5.9
			C678.6,276.3,678.3,275.6,678,274.8z M673.5,326c0.1-1.2,0.2-2.3,0.3-3.5c1,3.3,2,6.5,3,9.8c-0.4,2-0.9,4-1.3,6
			C674.8,334.3,674.2,330.1,673.5,326z M667,211.9c-0.1-0.6-0.2-1.3-0.3-1.9c0.2-1.1,0.4-2.2,0.6-3.3c0,0,0.1,0,0.1,0
			C667.2,208.4,667.1,210.2,667,211.9z M711.1,299.9c-0.1,0-0.2,0-0.4,0c0-0.4-0.1-0.7-0.1-1.1c0.2,0.3,0.3,0.5,0.5,0.8
			C711.1,299.7,711.1,299.8,711.1,299.9z M725.6,329.4c0.2,1.4,0.4,2.8,0.6,4.3c-0.5,0.1-0.9,0.2-1.4,0.3
			C725,332.4,725.3,330.9,725.6,329.4z M713.6,271.6c-0.2,2.9-0.3,5.8-0.5,8.7c-0.1,0.7-0.2,1.3-0.3,2c-1.6-2.8-3.3-5.6-4.9-8.4
			c-0.8-6.9-1.5-13.7-2.3-20.6c0.3-0.3,0.6-0.7,0.9-1C709.1,258.6,711.5,265.1,713.6,271.6z M595.3,127.8c0,0.2,0,0.4-0.1,0.5
			c-0.3-0.4-0.6-0.7-0.9-1.1c0-0.3-0.1-0.6-0.1-0.9C594.6,126.8,595,127.3,595.3,127.8z M723.1,343.3c1.4-0.3,2.8-0.6,4.3-0.9
			c0.1,0.8,0.2,1.6,0.3,2.5c-1.7,0.3-3.4,0.7-5.1,1C722.8,345,722.9,344.1,723.1,343.3z M681,371.2c0,0.1,0,0.2,0,0.3
			C681,371.5,681,371.4,681,371.2C681,371.2,681,371.2,681,371.2z M507.7,259.8c0.3,0.3,0.7,0.6,1.1,0.9c-0.4,1.1-0.7,2.1-1.1,3.2
			c-0.3-1.2-0.6-2.3-0.9-3.5C507.1,260.2,507.4,260,507.7,259.8z M621.1,288.2c0.7-9.5,0.8-19,0.5-28.6c0.9,4.2,1.8,8.5,2.8,12.7
			c-0.9,5.8-1.8,11.6-2.7,17.4C621.5,289.1,621.3,288.7,621.1,288.2z M728.9,354.1c0,0,0,0.1,0,0.1c-0.4,0.1-0.8,0.1-1.2,0.2
			C728.2,354.3,728.6,354.2,728.9,354.1z M723.6,364c2.2-0.4,4.3-0.7,6.5-1.1c0.3,2.3,0.6,4.5,0.9,6.8c-1.9,0.2-3.9,0.5-5.8,0.7
			C724.7,368.3,724.2,366.1,723.6,364z M1525.2,323.8c-0.1-1.6-0.1-3.3-0.2-4.9c0.4-1.3,0.9-2.5,1.3-3.8c1.4,12.1,2.7,24.2,4.1,36.3
			c0.2,2.2,0.5,4.3,0.7,6.5c-1.2,6.4-2.4,12.8-3.5,19.1c-0.1-0.3-0.2-0.7-0.3-1C1526.6,358.6,1525.9,341.2,1525.2,323.8z
			 M1065.8,251.9c-1-5.7-2-11.5-3-17.2c0.1-0.7,0.2-1.4,0.4-2c0.3-1.7-0.3-3-1.4-4c-0.1-0.6-0.2-1.3-0.3-1.9c0,0,0-0.1,0.1-0.1
			c0.6,1.1,1.1,2.3,1.7,3.4c0.9,7.2,1.8,14.4,2.7,21.6C1065.9,251.8,1065.8,251.8,1065.8,251.9z M1264.4,307.8
			c-0.5-2.1-0.9-4.1-1.4-6.2c0.9-1.3,1.7-2.6,2.6-3.8c0.1,2.4,0.2,4.9,0.3,7.3c-0.1,0.1-0.1,0.2-0.2,0.3
			C1265.3,306.2,1264.9,307,1264.4,307.8z M1381.6,231c-0.1-2-0.2-4-0.3-5.9c0.3,0.7,0.5,1.5,0.8,2.2
			C1381.9,228.6,1381.8,229.8,1381.6,231z M1431.5,348C1431.5,348,1431.6,348,1431.5,348c0.2,0.2,0.4,0.3,0.5,0.5
			c0.3,2.3,0.5,4.6,0.8,6.9c-0.6-0.7-1.2-1.4-1.8-2.1C1431.2,351.6,1431.4,349.8,1431.5,348z M1393.2,290.3c0.1,0.6,0.2,1.3,0.3,1.9
			c-0.2,1.1-0.4,2.2-0.6,3.3c0,0-0.1,0-0.1,0C1392.9,293.8,1393,292,1393.2,290.3z M1386.7,176.2c-0.1,1.2-0.2,2.3-0.3,3.5
			c-0.6-2-1.2-4-1.8-6c0.3-0.8,0.5-1.5,0.8-2.3c0.2-0.7,0.3-1.4,0.2-1.9c0,0,0-0.1,0-0.1C1385.9,171.6,1386.3,173.9,1386.7,176.2z
			 M1464.8,374.4c0-0.2,0-0.4,0.1-0.5c0.3,0.4,0.6,0.7,0.9,1.1c0,0.3,0.1,0.6,0.1,0.9C1465.5,375.4,1465.2,374.9,1464.8,374.4z
			 M1335,170.4c-0.2,0.3-0.4,0.7-0.6,1c-0.1-1-0.3-1.9-0.4-2.9c0.5-0.1,0.9-0.2,1.4-0.3C1335.3,169,1335.1,169.7,1335,170.4z
			 M1337.1,158.9c-1.4,0.3-2.8,0.6-4.3,0.9c-0.1-0.8-0.2-1.6-0.3-2.5c1.7-0.3,3.4-0.7,5.1-1C1337.4,157.2,1337.2,158.1,1337.1,158.9
			z M1247,278.8c0.4,1.5,0.8,2.9,1.1,4.4c-0.4,0.7-0.7,1.4-1.1,2.1c-2.8-0.3-5.6,1-5.6,4.2c0,2.2,0,4.4,0,6.6
			c-3.4,6.7-6.8,13.4-10,20.2c-0.3-1.5-0.5-3-0.8-4.5c0.1-1,0.1-1.9,0.2-2.9c2.6-0.1,5.1-1.4,4.6-4.2c-0.5-3.1-1-6.3-1.4-9.4
			c2.7-6.3,5.4-12.5,8.1-18.8C1243.1,278.1,1245.1,278.8,1247,278.8z M1200.7,303.4c0.1-1.7,0.3-3.5,0.4-5.2c1,4.3,2,8.7,3.1,13
			C1203.1,308.6,1201.9,306,1200.7,303.4z M1075.9,179.9c-0.2-1.3-0.4-2.6-0.6-3.8c0.7,1.5,1.4,3,2,4.5c-0.2,0.4-0.4,0.7-0.7,1.1
			C1076.4,181.1,1076.2,180.5,1075.9,179.9z M1057.9,49.5c0.9-3,1.8-6.1,2.6-9.1c0.2-0.3,0.5-0.6,0.7-0.9c2,9.3,3.9,18.5,5.8,27.8
			c-0.8,0.8-1.6,1.5-2.4,2.3C1062.4,62.9,1060.1,56.2,1057.9,49.5z M1069.4,78.5c0.7,3.3,1.3,6.5,2,9.8c-1-2.9-2.1-5.8-3.1-8.7
			C1068.6,79.2,1069,78.8,1069.4,78.5z M1065.1,116.5c-1.1-6.1-2.2-12.2-3.3-18.3c5.6,13.8,11.2,27.6,16.9,41.3
			c-1.3-0.3-2.9-0.3-4.2,0.1C1071.4,131.9,1068.3,124.2,1065.1,116.5z M1038.9,181.1c1.3,2.6,2.5,5.1,3.8,7.7
			c0.9,6.2,1.8,12.4,2.6,18.7C1043.3,198.6,1041.1,189.8,1038.9,181.1z M1005.4,59.4C1005.4,59.4,1005.4,59.5,1005.4,59.4
			c-1,1.8-2.1,3.4-3.1,5.1c-0.1-0.3-0.2-0.5-0.4-0.8c-0.6-3.9-1.3-7.7-1.9-11.6c0.5-0.5,1-1.1,1.5-1.6
			C1002.8,53.5,1004.1,56.4,1005.4,59.4z M1056.2,190.5c0.3,0.4,0.5,0.9,0.8,1.3c0.2,1.1,0.5,2.1,0.7,3.2c-0.4-0.9-0.9-1.8-1.3-2.8
			C1056.3,191.6,1056.2,191.1,1056.2,190.5z M1104.9,132c-0.5-5.9-1-11.8-1.5-17.8c1.8,3.9,3.6,7.9,5.4,11.8
			c0.1,0.7,0.2,1.4,0.2,2.1c-1.3,2.1-2.6,4.3-3.9,6.4C1105.1,133.7,1105,132.9,1104.9,132z M1017.4,37.7c0,1.2,0,2.4,0,3.6
			c-0.4,0.6-0.8,1.2-1.2,1.8c-0.7-1.6-1.4-3.2-2.1-4.8c0-0.3-0.1-0.6-0.1-0.9c0.8-0.8,1.6-1.6,2.4-2.5
			C1016.7,35.9,1017,36.8,1017.4,37.7z M971.6,149.4c0.4-1.5,0.7-3,1.1-4.6c0-0.1,0.1-0.1,0.1-0.2c1.2,4.9,2.4,9.9,3.6,14.8
			c0,0-0.1,0.1-0.1,0.1C974.8,156.2,973.2,152.8,971.6,149.4z M1020.2,263.5c0.2,1.1,0.5,2.2,0.7,3.3c0.1,1.6,0.2,3.3,0.3,4.9
			c-0.2-1.1-0.4-2.3-0.5-3.4C1020.5,266.8,1020.4,265.1,1020.2,263.5z M1114.3,188.6c-2.4-10.4-4.7-20.9-7.2-31.3
			c-0.2-1.8-0.3-3.6-0.5-5.4c1.4-2.3,2.8-4.6,4.2-6.9c1.5,14.3,2.8,28.6,4.1,42.9C1114.7,188.1,1114.5,188.3,1114.3,188.6z
			 M1129,228.9c-0.3-4.6-0.7-9.2-1.1-13.8c0.6,2.8,1.2,5.6,1.7,8.4c0.5,2.6,1.1,5.2,1.6,7.9c-0.2,0.3-0.4,0.6-0.6,1
			C1130.1,231.3,1129.5,230.1,1129,228.9z M1513.4,296.8c0,0.1,0,0.3,0,0.4c0,0-0.1,0-0.1,0C1513.3,297.1,1513.4,296.9,1513.4,296.8
			z M1542.6,219.5c0-1.3-0.1-2.5-0.1-3.8c0-1-0.5-1.8-1.1-2.5c0.2-3.7,0.4-7.4,0.6-11.2c0.3-1,0.6-2,1-3c0.8,3.3,1.5,6.5,2.3,9.8
			C1544.4,212.4,1543.5,216,1542.6,219.5z M1143.9,95.4c0,0.1,0,0.1,0,0.2c-1,8.8-2,17.5-2.9,26.3c-1.2-7-2.4-14-3.6-21.1
			c1.7-2.8,3.4-5.7,5.1-8.5C1143,93.3,1143.5,94.4,1143.9,95.4z M1133.6,140.5c-0.7,0.5-1.3,1.1-1.6,1.8c-0.5-1.3-1-2.6-1.5-3.8
			c-0.9-5.6-1.9-11.3-2.8-16.9c-0.2-1.2-0.4-2.5-0.6-3.7c0.6-1.1,1.3-2.1,1.9-3.2C1130.6,123.3,1132.1,131.9,1133.6,140.5z
			 M1124.5,102.4c-2.4-13.6-4.8-27.2-7.3-40.8c-1.2-8.3-2.4-16.6-3.6-24.8c0.8-0.7,1.6-1.4,2.4-2.2c3.3,21.6,6.8,43.1,10.5,64.6
			C1125.8,100.3,1125.1,101.4,1124.5,102.4z M1111.9,25.2c-0.1-0.8-0.2-1.6-0.3-2.4c0.3,0.6,0.6,1.3,0.9,1.9
			C1112.3,24.8,1112.1,25,1111.9,25.2z M1104.5-27.8c-0.2-1.5-0.4-3-0.6-4.6c0.7-1,1.3-1.9,2-2.9c0.2,1.7,0.5,3.4,0.7,5.1
			C1105.8-29.4,1105.1-28.6,1104.5-27.8z M969.5,70.3c-1.8,1.9-3.5,3.8-5.3,5.7c-1.3-3.1-2.7-6.2-4-9.3c4.1-3.4,8.3-6.8,12.4-10.2
			C971.6,61.1,970.5,65.7,969.5,70.3z M984.7,208.9c1.2,2.3,2.4,4.7,3.7,7c1.3,8.5,2.7,17,4.1,25.6
			C989.9,230.6,987.3,219.8,984.7,208.9z M1082.5,226.8c0.7,0,1.4-0.1,2-0.3c0,0.3,0.1,0.5,0.1,0.8c-0.6,0.8-1.2,1.6-1.8,2.4
			C1082.7,228.7,1082.6,227.7,1082.5,226.8z M1283.5,333.6c-0.2,1.4-0.4,2.8-0.7,4.2c-0.1-0.9-0.2-1.8-0.3-2.6
			C1282.9,334.6,1283.2,334.1,1283.5,333.6z M1137.6,80.8c-0.9,1.5-1.8,3-2.8,4.6c-1-5.8-1.9-11.6-2.9-17.4
			C1133.8,72.2,1135.7,76.5,1137.6,80.8z M1106.7-12.1c-0.1-0.6-0.2-1.2-0.3-1.8c0.7-0.8,1.4-1.6,2-2.4c0.5,3.8,1.1,7.6,1.6,11.3
			C1108.9-7.3,1107.8-9.7,1106.7-12.1z M971.6,45c-4.8,4-9.7,7.9-14.5,11.9c0.2-1.7,0.5-3.4,0.7-5.1c3.5-4.5,7-9,10.5-13.5
			C969.3,40.4,970.5,42.7,971.6,45z M1084.8,243.4c0.6-0.8,1.3-1.7,1.9-2.5c0.8,5.4,1.6,10.8,2.4,16.2c-1.3-3.2-2.5-6.5-3.6-9.7
			C1085.3,246.1,1085,244.8,1084.8,243.4z M1239,355.4c-0.4-0.5-0.9-1-1.3-1.5c-0.7-4.6-1.5-9.2-2.3-13.9c2-3.2,3.9-6.4,5.8-9.7
			c0,6.9-0.1,13.8-0.1,20.7C1240.4,352.6,1239.7,354,1239,355.4z M1439.1,214c-0.7,9.5-0.8,19-0.5,28.6c-0.9-4.2-1.8-8.5-2.8-12.7
			c0.9-5.8,1.8-11.6,2.7-17.4C1438.7,213,1438.9,213.5,1439.1,214z M1128.2,34.2c-0.8-1.8-1.6-3.6-2.4-5.4c-0.1-0.9-0.3-1.8-0.4-2.8
			c0.1-0.1,0.2-0.1,0.2-0.2C1126.5,28.7,1127.4,31.5,1128.2,34.2z M922.5,154.5c0.5,0.8,1.1,1.5,1.6,2.3c-0.4,3.1-0.9,6.2-1.3,9.3
			c-0.3-2.4-0.6-4.7-0.9-7.1C922.1,157.4,922.3,155.9,922.5,154.5z M1214.8,382.6c0,0.2,0,0.3,0,0.5c0-0.1,0-0.2,0-0.2
			C1214.8,382.7,1214.8,382.6,1214.8,382.6z M1498.1,354.3c0.6-2.2,1.2-4.4,1.8-6.6c0.3-1.3,0.7-2.6,1-3.9c0.3,3,0.7,6,1,9
			c-1,2.9-2.1,5.7-3.1,8.6C1498.6,359,1498.3,356.7,1498.1,354.3z M1552.5,242.4c-0.3-0.3-0.7-0.6-1.1-0.9c0.4-1.1,0.7-2.1,1.1-3.2
			c0.3,1.2,0.6,2.3,0.9,3.5C1553,242,1552.8,242.2,1552.5,242.4z M1102.1-48.5c-0.1,0.1-0.2,0.3-0.4,0.4c-0.1-0.9-0.3-1.8-0.4-2.8
			C1101.6-50.1,1101.8-49.3,1102.1-48.5z M916.7,112.4c0.3,1,0.5,2,0.8,2.9c-0.2,1.2-0.4,2.5-0.5,3.7c-0.2-1.7-0.4-3.3-0.6-5
			C916.5,113.5,916.6,112.9,916.7,112.4z M1261.8,347.3c-0.1,0.2-0.1,0.3-0.2,0.5c0,0,0-0.1,0-0.1
			C1261.6,347.6,1261.7,347.4,1261.8,347.3z M1334.9,131.9c-1.7,2.2-3.4,4.4-5,6.6c-0.3-2-0.5-4-0.8-6c1.9-0.2,3.9-0.5,5.8-0.7
			C1334.9,131.8,1334.9,131.9,1334.9,131.9z M1156.4,281.8c0.6,2.6,1.3,5.2,1.9,7.8c-0.7-1.3-1.4-2.7-2-4
			C1156.3,284.3,1156.3,283.1,1156.4,281.8z M1263.5,360.2c0.4,0,0.9,0,1.3,0c0.9,4.5,1.8,8.9,2.7,13.4c-0.5,0.7-1,1.4-1.4,2.2
			C1265.2,370.6,1264.4,365.4,1263.5,360.2z M1490.1,384.3c0.1-0.2,0.1-0.4,0.2-0.7c0,0.2,0,0.4,0,0.5c0,0.1-0.1,0.2-0.1,0.3
			C1490.2,384.4,1490.1,384.3,1490.1,384.3z M1451.7,166.3c-0.1-0.7-0.2-1.4-0.3-2.1c0.1,0.3,0.2,0.7,0.3,1
			C1451.7,165.6,1451.7,165.9,1451.7,166.3z M1121.6,280.1c0.2,3.2,0.4,6.5,0.6,9.7c-0.4-3-0.7-6-1.1-9.1
			C1121.3,280.6,1121.5,280.3,1121.6,280.1z M1300,370c0.3,1.7,0.7,3.4,1,5.2c-0.5,0.3-0.9,0.6-1.4,0.9
			C1299.8,374,1299.9,372,1300,370z M1463.8,167.8c-0.4-1.6-0.8-3.1-1.3-4.7c0-0.8,0.1-1.7,0.1-2.5
			C1463,163,1463.4,165.4,1463.8,167.8z M1382.3,76.5c0.2-0.1,0.5-0.2,0.7-0.3c0.4,2.2,0.9,4.3,1.3,6.5
			C1383.6,80.6,1383,78.6,1382.3,76.5z M1061.4-29.4c-0.3,0.2-0.5,0.4-0.8,0.7c0.1-1.2,0.3-2.4,0.4-3.6
			C1061.1-31.3,1061.2-30.3,1061.4-29.4z M1041.4-12.7c-0.4-2.2-0.8-4.3-1.2-6.5c0.9,1.7,1.8,3.4,2.7,5.2
			C1042.5-13.6,1042-13.2,1041.4-12.7z M546.7,205.4c0-0.1,0-0.3,0-0.4c0,0,0.1,0,0.1,0C546.8,205.1,546.8,205.3,546.7,205.4z
			 M677.9,425.7c-0.2,0.1-0.5,0.2-0.7,0.3c-0.4-2.2-0.9-4.3-1.3-6.5C676.5,421.6,677.2,423.6,677.9,425.7z M1078.7,389.1
			c0.2,1.2,0.4,2.3,0.6,3.5c-0.1,0.2-0.1,0.5-0.2,0.7C1079,391.9,1078.9,390.5,1078.7,389.1z M1563.9,136c-0.3,0.1-0.6,0.3-0.9,0.4
			c-1.2-3.9-2.4-7.7-3.7-11.6c0.8-3.1,1.7-6.3,2.5-9.4C1562.4,122.3,1563.2,129.1,1563.9,136z M1044.9-32c-0.3-0.6-0.6-1.1-0.9-1.7
			c0.1-0.1,0.3-0.2,0.4-0.4C1044.6-33.4,1044.8-32.7,1044.9-32z M569.9,117.8c0,0.1,0.1,0.1,0.1,0.2c-0.1,0.2-0.1,0.4-0.2,0.7
			c0-0.2,0-0.4,0-0.5C569.9,118,569.9,117.9,569.9,117.8z M608.4,335.9c0.1,0.7,0.2,1.4,0.3,2.1c-0.1-0.3-0.2-0.7-0.3-1
			C608.4,336.6,608.4,336.2,608.4,335.9z M1156.3,308.4c0.5,0.9,1,1.8,1.5,2.8c-0.3,0.5-0.6,0.9-0.9,1.4
			C1156.7,311.2,1156.5,309.8,1156.3,308.4z M1222.7,433.1c-0.2-1.1-0.3-2.2-0.5-3.3c0.4-5,0.7-10,1.1-15c0.4,5.5,0.7,11,1.1,16.5
			C1223.8,431.9,1223.2,432.5,1222.7,433.1z M1225.2,444.8c0.2,3.7,0.5,7.3,0.7,11c-0.5-3.4-1-6.8-1.4-10.2
			C1224.7,445.3,1225,445,1225.2,444.8z M1339.2,367.3c0-0.4,0-0.8,0.1-1.2c0.7-0.3,1.4-0.6,2-0.9c0.4,1.3,0.7,2.6,1.1,3.9
			c-1,0.4-2,0.8-2.9,1.2C1339.4,369.3,1339.3,368.3,1339.2,367.3z M1363.8,369.9c-1.6,12.3-3.2,24.7-4.7,37
			c0.9-12,1.7-24.1,2.6-36.1C1362.4,370.5,1363.1,370.2,1363.8,369.9z M1580,188.5c-0.3-3-0.6-5.9-0.9-8.9c0.5,2.9,1.1,5.7,1.6,8.6
			C1580.5,188.2,1580.2,188.3,1580,188.5z M798.1,204.9c0.2,1,0.5,1.9,0.7,2.9c-1,1.9-2.1,3.9-3.1,5.8c-0.2-0.1-0.5-0.1-0.7-0.2
			c-0.2-5.5-0.5-11-0.7-16.5c0.5-0.9,1-1.7,1.5-2.6C796.5,197.9,797.3,201.4,798.1,204.9z M753.9,239.5c-0.7,1.5-1.4,3-2,4.5
			c-0.2-0.8-0.5-1.6-0.7-2.4c0-0.8,0-1.7,0-2.5C752.1,239.3,752.9,239.4,753.9,239.5z M562.1,147.9c-0.6,2.2-1.2,4.4-1.8,6.6
			c-0.3,1.3-0.7,2.6-1,3.9c-0.3-3-0.7-6-1-9c1-2.9,2.1-5.7,3.1-8.6C561.6,143.2,561.8,145.5,562.1,147.9z M480.1,313.7
			c0.3,3,0.6,5.9,0.9,8.9c-0.5-2.9-1.1-5.7-1.6-8.6C479.7,314,479.9,313.9,480.1,313.7z M496.3,366.2c0.3-0.1,0.6-0.3,0.9-0.4
			c1.2,3.9,2.4,7.7,3.7,11.6c-0.8,3.1-1.7,6.3-2.5,9.4C497.7,379.9,497,373.1,496.3,366.2z M597.6,339.1c0,0.8-0.1,1.7-0.1,2.5
			c-0.4-2.4-0.8-4.8-1.2-7.2C596.8,336,597.2,337.5,597.6,339.1z M733.5,390.9c-0.2,1-0.3,1.9-0.5,2.9c-0.4-0.7-0.8-1.4-1.2-2.1
			C732.4,391.4,733,391.1,733.5,390.9z M1298.4,397.1c0.3-0.1,0.6-0.2,0.9-0.4c-0.5,3.5-1,7-1.5,10.5
			C1298,403.8,1298.2,400.5,1298.4,397.1z M1324.8,357.8c0.3,1.5,0.5,3,0.8,4.5c-0.5,0.2-1,0.5-1.5,0.7
			C1324.3,361.3,1324.6,359.6,1324.8,357.8z M1340.4,379.6c0.8-0.3,1.5-0.6,2.3-0.9c-0.4,3.5-0.9,7-1.3,10.5
			C1341.1,386,1340.8,382.8,1340.4,379.6z M1597.3,216.2c2.4,10.8,5.1,21.5,8.1,32.1c-0.4,0.7-0.9,1.3-1.3,2
			c-2-9.5-3.9-19.1-5.9-28.6c-0.1-0.5-0.3-0.9-0.6-1.3c-0.7-3.7-1.4-7.4-2.1-11.1C1596.1,211.5,1596.7,213.8,1597.3,216.2z
			 M1581.3,112.3c0.9,0.3,1.8,0.6,2.7,0.8c-0.5,1.4-0.9,2.8-1.4,4.1C1582.1,115.6,1581.7,114,1581.3,112.3z M1488.6,114.4
			c0.2-2.7,0.5-5.4,0.7-8.1c0.4-0.1,0.7-0.1,1.1-0.2c0.1,0,0.2-0.1,0.3-0.1c0,2.3,0,4.6,0.1,6.9
			C1489.9,113.2,1489.1,113.7,1488.6,114.4z M845.3,119.6c0-0.2,0-0.3,0-0.5c0,0.1,0,0.2,0,0.2C845.4,119.5,845.4,119.6,845.3,119.6
			z M462.8,286c-2.4-10.8-5.1-21.5-8.1-32.1c0.4-0.7,0.9-1.3,1.3-2c2,9.5,3.9,19.1,5.9,28.6c0.1,0.5,0.3,0.9,0.6,1.3
			c0.7,3.7,1.4,7.4,2.1,11.1C464,290.7,463.4,288.4,462.8,286z M478.9,389.9c-0.9-0.3-1.8-0.6-2.7-0.8c0.5-1.4,0.9-2.8,1.4-4.1
			C478,386.6,478.5,388.2,478.9,389.9z M817,313.4c0.2,0.5,0.4,0.9,0.6,1.4c-0.3,1.7-0.7,3.5-0.9,5.2c-0.2-1.2-0.4-2.4-0.6-3.7
			C816.3,315.4,816.6,314.4,817,313.4z M1099.8,435.2c1.2,2.8,2.4,5.6,3.5,8.3c-0.4,3.2-0.9,6.4-1.3,9.6
			C1101.3,447.2,1100.5,441.2,1099.8,435.2z M1322.5,373.9c1.4-0.7,2.8-1.4,4.1-2c0.1-0.1,0.2-0.1,0.4-0.2c-0.3,1.4-0.6,2.7-1,4.1
			c-1.4,0.6-2.7,1.1-4.1,1.7C1322.2,376.3,1322.3,375.1,1322.5,373.9z M1598,104.7c0.1-1.1,0.2-2.2,0.3-3.4c0-0.3,0.1-0.5,0.1-0.8
			c-0.1,1.4-0.2,2.8-0.3,4.2C1598.1,104.8,1598.1,104.7,1598,104.7z M1624.7,63.7c-1.2-3.8-6.6-4-9.1-1.7c-0.1-0.3-0.3-0.7-0.4-1
			c-0.1-0.3-0.3-0.6-0.5-0.8c1-7.8,2-15.7,3.1-23.5c3,10,5.9,20,8.7,30c-0.3-0.2-0.6-0.3-0.9-0.4
			C1625.2,65.4,1624.9,64.5,1624.7,63.7z M1453.3,119.6c-0.3,1-0.6,2-0.9,3c0.3-2.2,0.7-4.4,1-6.7
			C1453.4,117.2,1453.3,118.4,1453.3,119.6z M462.1,397.4c-0.1,1.1-0.2,2.2-0.3,3.4c0,0.3-0.1,0.5-0.1,0.8c0.1-1.4,0.2-2.8,0.3-4.2
			C462.1,397.4,462.1,397.4,462.1,397.4z M637.3,392.6c0.3-0.1,0.7-0.1,1-0.2c0.2,1.4,0.3,2.8,0.5,4.3c0,0,0,0.1,0,0.1
			c-0.7-0.1-1.4-0.2-2.1-0.3C636.9,395.1,637.1,393.8,637.3,392.6z M1054,434.8c0.7,3.6,1.3,7.2,2,10.8c-0.4-0.9-0.8-1.9-1.2-2.8
			C1054.5,440.1,1054.2,437.5,1054,434.8z M1159.6,335.2c0.3-0.5,0.4-1.1,0.3-1.8c-0.2-1.7-0.5-3.4-0.7-5.1c1.6-2.5,3.2-5,4.8-7.4
			c0.5,3.2,1.1,6.3,1.6,9.5c0.4,12.8,1,25.5,1.7,38.3C1164.7,357.4,1162.2,346.3,1159.6,335.2z M1319.5,394.7c0.3-2.3,0.7-4.5,1-6.8
			c1-0.4,2-0.8,3-1.3c-1.1,4.8-2.3,9.7-3.4,14.5C1319.9,399,1319.7,396.9,1319.5,394.7z M1406.8,405.7c0.7,1.1,1.3,2.3,2,3.4
			c-0.2,1.5-0.4,3-0.5,4.6C1407.7,411.1,1407.2,408.4,1406.8,405.7z M1440.5,465.2c0.2-0.1,0.3-0.2,0.5-0.3c0.1,0.1,0.1,0.2,0.2,0.3
			c0,2,0,4.1,0,6.1c-0.1,0.5-0.2,0.9-0.3,1.4c-0.3-0.4-0.7-0.9-1-1.3C1440.1,469.4,1440.3,467.3,1440.5,465.2z M1621.5,248.6
			c-0.1-0.4-0.2-0.8-0.3-1.2c0-0.7,0.1-1.3,0.1-2c0.1,1.2,0.2,2.4,0.3,3.6C1621.6,248.9,1621.5,248.8,1621.5,248.6z M1587.4,135.8
			c0,0,0-0.1,0.1-0.1c0,0.1,0,0.2,0,0.3C1587.4,135.9,1587.4,135.8,1587.4,135.8z M1422.8,109.6c-0.3,0.1-0.7,0.1-1,0.2
			c-0.2-1.4-0.3-2.8-0.5-4.3c0,0,0-0.1,0-0.1c0.7,0.1,1.4,0.2,2.1,0.3C1423.2,107.1,1423,108.3,1422.8,109.6z M970.3-19.4
			c-0.3,0.2-0.6,0.4-0.9,0.7c-0.8-2.2-1.6-4.5-2.3-6.8c0-0.5,0.1-0.9,0.1-1.4c0.1-0.3,0.1-0.7,0.2-1c0.8,1.8,1.6,3.6,2.4,5.4
			C969.9-21.4,970.1-20.4,970.3-19.4z M900.8,101.2c-0.4-1.6-0.8-3.2-1.2-4.7c0.5-0.5,1-1,1.5-1.5C901,97,900.9,99.1,900.8,101.2z
			 M798.6,154.5c-0.2,0.3-0.4,0.7-0.6,1c-1.6-7.9-3.1-15.8-4.7-23.6c0.5-0.3,1-0.7,1.5-1C796.1,138.8,797.4,146.6,798.6,154.5z
			 M438.5,253.1c0,0.1,0.1,0.3,0.1,0.4c0.1,0.4,0.2,0.8,0.3,1.2c0,0.7-0.1,1.3-0.1,2C438.8,255.6,438.7,254.3,438.5,253.1z
			 M472.8,366.4c0,0,0,0.1-0.1,0.1c0-0.1,0-0.2,0-0.3C472.8,366.3,472.8,366.4,472.8,366.4z M607.1,374.9c0.3,1.1,0.6,2.2,0.9,3.3
			c-0.4,2.7-0.8,5.3-1.2,8C606.9,382.4,607,378.7,607.1,374.9z M1315,468.6c0.3-1.2,0.6-2.5,0.9-3.7c0.2,1.9,0.4,3.8,0.6,5.6
			c-0.4-0.4-0.9-0.7-1.4-0.9C1315,469.3,1315,468.9,1315,468.6z M1487,453.5c0-3.7,0-7.3,0-11c0.3,1.6,0.7,3.2,1,4.7
			c-0.3,2.8-0.7,5.7-1,8.5C1487,455,1487,454.3,1487,453.5z M1612.7,216.1c-0.9-3.5-1.7-7-2.5-10.5c0.9,2.4,1.9,4.9,2.8,7.3
			C1612.8,214,1612.7,215.1,1612.7,216.1z M1554.7,4.7c0.4,1.1,0.7,2.2,1.1,3.3c-0.4,2-0.7,4-1.1,6c-0.1-1.8-0.2-3.7-0.3-5.5
			C1554.5,7.3,1554.6,6,1554.7,4.7z M948.2,8.9c-0.8,0.8-1.7,1.6-2.5,2.4c0.1-0.6,0.2-1.2,0.3-1.8c0.8-0.5,1.5-1,2.3-1.5
			C948.3,8.3,948.3,8.6,948.2,8.9z M901.2,72.8c0.3,2.5,0.5,5,0.8,7.4c0,0.1,0,0.2,0,0.3c-1.7,1.6-3.4,3.3-5.1,5
			c-0.6-2.3-1.2-4.6-1.8-6.9C897.1,76.6,899.1,74.7,901.2,72.8C901.2,72.8,901.2,72.8,901.2,72.8z M760.2,132.2
			c-0.3-1.7-0.7-3.4-1-5.2c0.5-0.3,0.9-0.6,1.4-0.9C760.4,128.2,760.3,130.2,760.2,132.2z M501.8,42.3c-0.3,6.5-0.5,13-0.8,19.5
			c-0.4-2.3-0.9-4.6-1.3-6.8C500.3,50.7,501,46.5,501.8,42.3z M481.4,128.1c2,0.4,4.1,0,5.3-1.2c0,0.3,0,0.6,0,0.8
			c-1.2,4.3-2.4,8.6-3.6,12.9C482.5,136.5,482,132.3,481.4,128.1z M486.7,167.1C486.7,167.1,486.7,167.1,486.7,167.1
			C486.7,167.1,486.7,167.1,486.7,167.1C486.7,167.1,486.7,167.1,486.7,167.1z M447.5,286.1c0.9,3.5,1.7,7,2.5,10.5
			c-0.9-2.4-1.9-4.9-2.8-7.3C447.3,288.2,447.4,287.1,447.5,286.1z M741.4,436.4c0.5,1.2,1,2.5,1.5,3.7c-0.3,3.9-0.6,7.9-0.9,11.8
			c-0.3-0.9-0.6-1.7-0.9-2.6C741.2,445.1,741.3,440.8,741.4,436.4z M1216.6,507.9c0,0.2,0.1,0.4,0.1,0.5c0,0.2,0.1,0.3,0.1,0.5
			c-0.2,1.1-0.4,2.1-0.6,3.2C1216.4,510.7,1216.5,509.3,1216.6,507.9z M1323.5,435.4c0.4-0.2,0.9-0.4,1.3-0.6
			c-0.1,2.4-0.3,4.8-0.4,7.1c-0.2-1.2-0.4-2.4-0.6-3.6C1323.7,437.3,1323.6,436.4,1323.5,435.4z M1523.6,457.3
			c1.2,3.8,2.3,7.6,3.4,11.4c-0.8,3.8-1.5,7.5-2.3,11.3c0,0,0,0.1,0,0.1c-0.5-6.7-1.1-13.4-1.6-20.1
			C1523.2,459.1,1523.4,458.2,1523.6,457.3z M1558.4,459.9c0.3-6.5,0.5-13,0.8-19.5c0.4,2.3,0.9,4.6,1.3,6.8
			C1559.8,451.5,1559.1,455.7,1558.4,459.9z M1578.8,374.1c-2-0.4-4.1,0-5.3,1.2c0-0.3,0-0.6,0-0.8c1.2-4.3,2.4-8.6,3.6-12.9
			C1577.6,365.7,1578.2,369.9,1578.8,374.1z M1573.4,335.1C1573.4,335.1,1573.4,335.1,1573.4,335.1
			C1573.4,335.1,1573.4,335.1,1573.4,335.1C1573.4,335.1,1573.4,335.1,1573.4,335.1z M1600,152.7c-0.5-1.1-1.5-1.9-2.7-2.4
			c0.2-2.8,0.4-5.6,0.5-8.4c0.8,3.9,1.7,7.9,2.6,11.8C1600.3,153.3,1600.2,153,1600,152.7z M1629.7,73c0.1,0.1,0.2,0.1,0.4,0.1
			c0.7,1.7,1.5,3.5,2.3,5.2c0.8,3,1.6,6.1,2.4,9.1C1633.2,82.7,1631.5,77.8,1629.7,73z M921.3,31.2c-0.5,0.4-1.1,0.7-1.6,1.1
			c-0.5-1.2-1-2.4-1.5-3.5c0.5-0.3,1-0.7,1.4-1C920.2,28.9,920.7,30,921.3,31.2z M653.4,96.4c-0.7-1.1-1.3-2.3-2-3.4
			c0.2-1.5,0.4-3,0.5-4.6C652.4,91.1,652.9,93.8,653.4,96.4z M573.2,48.7c0,3.6,0,7.3,0,10.9c-0.3-1.6-0.7-3.2-1-4.7
			c0.3-2.8,0.7-5.7,1-8.5C573.2,47.2,573.2,47.9,573.2,48.7z M460.1,349.5c0.5,1.1,1.5,1.9,2.7,2.4c-0.2,2.8-0.4,5.6-0.5,8.4
			c-0.8-3.9-1.7-7.9-2.6-11.8C459.8,348.9,460,349.2,460.1,349.5z M505.4,497.5c-0.4-1.1-0.7-2.2-1.1-3.3c0.4-2,0.7-4,1.1-6
			c0.1,1.8,0.2,3.7,0.3,5.5C505.7,494.9,505.6,496.2,505.4,497.5z M937.2,198.3c0,0,0.1-0.1,0.1-0.1c0.3,1.1,0.5,2.3,0.8,3.4
			c-0.2,0.2-0.4,0.5-0.6,0.7C937.4,201,937.3,199.7,937.2,198.3z M1001.9,364.3c-0.2-1.3-0.5-2.7-0.7-4c0.3,0.7,0.6,1.3,0.9,2
			c0.4,1.7,0.8,3.5,1.2,5.2C1002.8,366.4,1002.3,365.3,1001.9,364.3z M1134.6,361.1c0.3,0.4,0.6,0.9,0.9,1.3c-0.5,3.2-1,6.4-1.5,9.6
			C1134.2,368.4,1134.4,364.7,1134.6,361.1z M1222.9,535.5c0.8,4.9,1.6,9.8,2.3,14.7c-1.2-1.1-3-1.5-4.7-1.2
			C1221.3,544.5,1222.1,540,1222.9,535.5z M1317.7,481.8c0.1,1,0.2,2,0.3,3c-0.1,0-0.2,0-0.3,0.1
			C1317.7,483.8,1317.7,482.8,1317.7,481.8z M1401.7,439.8c0-0.3,0-0.6,0-1c0.1,0.2,0.2,0.3,0.3,0.5c0.1,0.4,0.2,0.9,0.2,1.3
			C1402.1,440.4,1401.9,440.1,1401.7,439.8z M1616,173.5c-0.7-2.8-1.4-5.6-2.1-8.4c0.6,1.7,1.3,3.3,1.9,5
			C1615.9,171.3,1616,172.4,1616,173.5z M1631.3,33.3c0,0,0.1,0,0.1-0.1c0.1,0.4,0.1,0.8,0.2,1.2
			C1631.5,34.1,1631.4,33.7,1631.3,33.3z M1543.6,8.6c-0.4,4.3-0.8,8.6-1.2,12.8c0.2-7.6,0.5-15.2,0.7-22.8
			C1543.3,1.9,1543.5,5.3,1543.6,8.6z M1033.4-66.6c0.6-1.2,1.2-2.5,1.8-3.7c0.2,0.6,0.3,1.2,0.5,1.8
			C1035-67.9,1034.2-67.2,1033.4-66.6z M836.9,87.7c-0.5,1.1-0.9,2.2-1.4,3.4c-0.5,0.4-1,0.7-1.6,1.1c-0.1-0.8-0.2-1.7-0.3-2.5
			c1.1-1.1,2.2-2.1,3.3-3.2C836.9,86.9,836.9,87.3,836.9,87.7z M790.6,113.7c-0.2-4.2-0.4-8.3-0.5-12.5c0.6,3.6,1.2,7.2,1.7,10.8
			C791.4,112.5,791,113.1,790.6,113.7z M619.7,37c-0.2,0.1-0.3,0.2-0.5,0.3c-0.1-0.1-0.1-0.2-0.2-0.3c0-2,0-4.1,0-6.1
			c0.1-0.5,0.2-0.9,0.3-1.4c0.3,0.4,0.7,0.9,1,1.3C620.1,32.8,619.9,34.9,619.7,37z M405.8,158.5c0.4,5.1,0.9,10.2,1.2,15.3
			c-0.7-5-1.5-10-2.4-15.1C405.1,158.7,405.5,158.6,405.8,158.5z M416.4,234.4c0.5,3.5,1,6.9,1.4,10.4c-0.8-4.4-1.6-8.8-2.4-13.3
			C415.8,232.5,416.1,233.4,416.4,234.4z M444.1,328.7c0.7,2.8,1.4,5.6,2.1,8.4c-0.6-1.7-1.3-3.3-1.9-5
			C444.2,330.9,444.2,329.8,444.1,328.7z M516.5,493.6c0.4-4.3,0.8-8.6,1.2-12.8c-0.2,7.6-0.5,15.2-0.7,22.8
			C516.9,500.2,516.7,496.9,516.5,493.6z M571.6,387.8c-0.2,2.7-0.5,5.4-0.7,8.1c-0.4,0.1-0.7,0.1-1.1,0.2c-0.1,0-0.2,0.1-0.3,0.1
			c0-2.3,0-4.6-0.1-6.9C570.3,389,571,388.5,571.6,387.8z M938.2,216.4c0.7-0.8,1.4-1.6,2.1-2.4c0.3,1.9,0.5,3.9,0.7,5.8
			c-0.6,4.1-1.3,8.2-1.9,12.3C938.8,226.8,938.5,221.6,938.2,216.4z M1400.9,457.1c0,0.1,0.1,0.1,0.1,0.2c0,0-0.1,0-0.1,0.1
			C1400.9,457.3,1400.9,457.2,1400.9,457.1z M1495.3,510.8c0.8,3.6,1.5,7.2,2.3,10.8c-1.2-1.8-2.3-3.6-3.5-5.4
			C1494.4,514.4,1494.9,512.6,1495.3,510.8z M1498,498.1c0,0.5,0,1,0,1.5c-0.1,0-0.2,0-0.3,0C1497.8,499.2,1497.9,498.6,1498,498.1z
			 M1654.3,343.7c-0.4-5.1-0.9-10.2-1.2-15.3c0.7,5,1.5,10,2.4,15.1C1655,343.5,1654.7,343.6,1654.3,343.7z M1643.8,267.8
			c-0.5-3.5-1-6.9-1.4-10.4c0.8,4.4,1.6,8.8,2.4,13.3C1644.4,269.7,1644.1,268.8,1643.8,267.8z M1443.8,82.3c0-0.5,0.1-1.1,0.1-1.6
			c0.1-1,0.3-1.9,0.4-2.9c0.3-0.1,0.7-0.2,1-0.2C1444.8,79.2,1444.3,80.7,1443.8,82.3z M1318.8,65.7c-0.5-1.2-1-2.5-1.5-3.7
			c0.3-3.9,0.6-7.9,0.9-11.8c0.3,0.9,0.6,1.7,0.9,2.6C1319,57.1,1318.9,61.4,1318.8,65.7z M1054.1-79c-2.1,1.5-4.2,3-6.2,4.4
			c-0.9-0.3-1.9-0.4-2.9-0.3c-0.8-2.9-1.5-5.9-2.3-8.8c3.2-2.3,6.5-4.6,9.8-6.8C1053-86.7,1053.6-82.8,1054.1-79z M897,31.1
			c0.2,0.3,0.3,0.6,0.5,1c-1.4,1.9-0.2,4,2,5.1c0.3,1.9,0.5,3.9,0.8,5.8c-0.3,0.2-0.6,0.4-0.8,0.7c-1.6-3.5-3.1-7.1-4.6-10.7
			C895.6,32.3,896.3,31.7,897,31.1z M895.9,61.2c-1.4,1.5-2.8,2.9-4.2,4.4c-0.1-0.6-0.3-1.1-0.4-1.7c0-0.1-0.1-0.2-0.1-0.3
			c1.5-1,2.9-2,4.4-3.1C895.7,60.8,895.8,61,895.9,61.2z M837.5,69.1c0.1,1,0.3,2,0.5,3c-1.9,1.8-3.7,3.6-5.6,5.3
			c-0.1-0.8-0.2-1.5-0.2-2.3C833.9,73.1,835.7,71.1,837.5,69.1z M797.7,57.4c0.1,1.1,0.2,2.1,0.3,3.2c-0.2,0.2-0.5,0.4-0.7,0.6
			c0,0-0.1,0.1-0.1,0.1C797.4,60,797.5,58.7,797.7,57.4z M720.9,134.3c-0.2-0.7-0.4-1.5-0.6-2.2c0.1-0.1,0.2-0.1,0.4-0.2
			C720.8,132.7,720.8,133.5,720.9,134.3z M717.9,123.3c-0.1-0.4-0.2-0.8-0.3-1.1c0.4-3,0.8-6.1,1.1-9.1c0.3,3.2,0.7,6.3,1,9.5
			C719.1,122.8,718.5,123.1,717.9,123.3z M698.5,131.4c-0.7,0.3-1.4,0.6-2.1,0.9c1.6-12.3,3.2-24.7,4.7-37
			C700.2,107.3,699.3,119.3,698.5,131.4z M459.4,104C459.4,104,459.4,104,459.4,104C459.4,104,459.4,104,459.4,104
			C459.4,104,459.4,104,459.4,104C459.4,104,459.4,104,459.4,104z M454.5,85.4c-0.1-2.5-0.1-5.1-0.2-7.6c0-1.9-0.1-3.7-0.1-5.6
			c0.5,3.1,1.1,6.3,1.6,9.4C455.3,82.8,454.9,84.1,454.5,85.4z M1162.2,436.5c-0.3-2-0.7-4-1-6.1c0.4,2.2,0.9,4.5,1.3,6.7
			C1162.4,436.9,1162.3,436.7,1162.2,436.5z M1400.5,467.2c0.5-0.2,1-0.4,1.6-0.6c-0.5,4.1-1,8.3-1.5,12.4c-0.1-1.3-0.3-2.6-0.4-3.9
			C1400.2,472.5,1400.3,469.8,1400.5,467.2z M1600.8,398.2C1600.8,398.2,1600.8,398.2,1600.8,398.2
			C1600.8,398.2,1600.8,398.2,1600.8,398.2C1600.8,398.2,1600.8,398.2,1600.8,398.2C1600.8,398.2,1600.8,398.2,1600.8,398.2z
			 M1605.7,416.8c0.1,2.5,0.1,5.1,0.2,7.6c0,1.9,0.1,3.7,0.1,5.6c-0.5-3.1-1.1-6.3-1.6-9.4C1604.8,419.3,1605.2,418.1,1605.7,416.8z
			 M1447.5,68.2c-0.6,0.1-1.2,0.2-1.8,0.3c0.3-2,0.6-4.1,0.8-6.1C1446.9,64.4,1447.2,66.3,1447.5,68.2z M1395.1,11.3
			C1395.1,11.3,1395.1,11.3,1395.1,11.3C1395.1,11.3,1395.1,11.3,1395.1,11.3C1395.1,11.3,1395.1,11.3,1395.1,11.3z M1266.3,109.8
			c0.2,2.3,0.5,4.7,0.7,7c-0.5,1.5-1.1,3-1.6,4.5c-0.5-3.1-1.1-6.1-1.6-9.2C1264.6,111.4,1265.5,110.6,1266.3,109.8z M925.8,10.9
			c-0.1,0.4-0.1,0.8-0.2,1.1c-0.5,0.4-1.1,0.8-1.6,1.2c-0.6-1.3-1.3-2.6-2-3.9c0.8-0.7,1.6-1.3,2.4-2
			C924.8,8.5,925.3,9.7,925.8,10.9z M886.9,40.8c1.6,3.7,3.2,7.3,4.8,11c-1.4,0.9-2.7,1.9-4.1,2.8c-0.3-4.3-0.6-8.6-0.9-12.9
			C886.8,41.4,886.9,41.1,886.9,40.8z M835.7,56.6c-1.5,1.6-3,3.2-4.5,4.9c0.8-4.6,1.6-9.2,2.4-13.7c0.3-0.2,0.5-0.4,0.8-0.5
			C834.8,50.4,835.2,53.5,835.7,56.6z M796.5,66.3c0.6,0.6,1.4,1.2,2.3,1.5c1,10,2,20.1,2.9,30.1c-0.1,0.2-0.3,0.4-0.4,0.6
			c-1.7-9.9-3.4-19.8-5.1-29.7C796.2,68,796.3,67.1,796.5,66.3z M735.3,144.4c-0.3-1.5-0.5-3-0.8-4.5c0.5-0.2,1-0.5,1.5-0.7
			C735.8,140.9,735.6,142.6,735.3,144.4z M658.5,62.3c0,0.3,0,0.6,0,1c-0.1-0.2-0.2-0.3-0.3-0.5c-0.1-0.4-0.2-0.9-0.2-1.3
			C658.1,61.8,658.3,62.1,658.5,62.3z M457.8,31.8c-0.1-0.6-0.2-1.3-0.3-1.9c1.2-0.9,1.9-2.4,1.5-4.2c-1.2-5.5-2.5-11.1-3.7-16.6
			c1.6,1,4,1.1,5.9,0.4c-0.1,13.6-0.1,27.3,0.1,40.9C460.1,44.3,458.9,38.1,457.8,31.8z M428.1-0.3c0.1-1.2,0.2-2.4,0.3-3.6
			c0.1,2.3,0.3,4.5,0.4,6.8C428.6,1.8,428.3,0.7,428.1-0.3z M430.4,429.2c-0.1-0.1-0.2-0.1-0.4-0.1c-0.7-1.7-1.5-3.5-2.3-5.2
			c-0.8-3-1.6-6.1-2.4-9.1C427,419.5,428.7,424.4,430.4,429.2z M434.7,435.9c0.3,0.9,0.5,1.7,0.8,2.6c1.2,3.8,6.6,4,9.1,1.7
			c0.1,0.3,0.3,0.7,0.4,1c0.1,0.3,0.3,0.6,0.5,0.8c-1,7.8-2,15.7-3.1,23.5c-3-10-5.9-20-8.7-30C434.1,435.7,434.4,435.8,434.7,435.9
			z M612.7,434c0.6-0.1,1.2-0.2,1.8-0.3c-0.3,2-0.6,4.1-0.8,6.1C613.3,437.8,613,435.9,612.7,434z M614.8,424.6
			c0.5-1.6,1-3.2,1.5-4.8c0,0.5-0.1,1.1-0.1,1.6c-0.1,1-0.3,1.9-0.4,2.9C615.5,424.5,615.1,424.6,614.8,424.6z M665.1,490.9
			C665.1,490.9,665.1,490.9,665.1,490.9C665.1,490.9,665.1,490.9,665.1,490.9C665.1,490.9,665.1,490.9,665.1,490.9z M667.3,508.8
			c0.7,5.7,1.4,11.4,2.1,17.1c-0.7-0.4-1.5-0.6-2.4-0.8c-0.3-1.5-0.7-3-1-4.4c-0.1-3.3-0.1-6.6-0.2-10
			C666.5,510.2,667.1,509.6,667.3,508.8z M945.1,278.4c-1.1-2.5-2.3-4.9-3.4-7.4c-0.5-7.4-1.1-14.7-1.6-22.1
			c1.2,0.4,2.7,0.4,3.9,0.2c0.2,1.9,0.4,3.7,0.5,5.6c0.9,9.7,1.9,19.3,2.8,29C946.7,281.8,945.9,280.1,945.1,278.4z M984.4,359.7
			c2.6,6.3,5.1,12.6,7.7,18.9c0.8,3.8,1.5,7.6,2.3,11.4c0.2,1,0.9,1.8,1.8,2.3c0.7,3.9,1.4,7.8,2.1,11.7
			c-5.6-13.8-11.3-27.7-17-41.5C982.4,361.6,983.4,360.6,984.4,359.7z M1160.3,462.3c0.7,0,1.3-0.1,2-0.3c2.4,5.6,4.8,11.2,7.2,16.7
			c-0.2,1-0.4,2-0.6,2.9c-2.7-5-5.3-10-8-15C1160.6,465.3,1160.5,463.8,1160.3,462.3z M1190.1,539.1c1.5,2.4,3.1,4.9,4.6,7.3
			c0,1.9,0,3.8,0.1,5.8c-1.6-3.6-3.2-7.3-4.8-10.9C1190,540.5,1190,539.8,1190.1,539.1z M1269.3,492.4c0.1-0.6,0.2-1.2,0.3-1.8
			c1.4,1,3,1.7,4.6,2.3c0,0.1,0,0.1,0.1,0.2c-0.4,12.8-0.8,25.6-1.1,38.4c-0.6,0.4-1.2,0.8-1.8,1.2
			C1270.6,519.3,1269.9,505.8,1269.3,492.4z M1272.5,550.5c0,0,0-0.1,0-0.1c0,1.3-0.1,2.6-0.1,3.8c-0.1-1-0.1-2-0.2-3
			C1272.3,551,1272.4,550.8,1272.5,550.5z M1373.5,550.1c0,0.8,0,1.5,0,2.3c-0.1-0.1-0.2-0.1-0.3-0.2
			C1373.3,551.5,1373.4,550.8,1373.5,550.1z M1602.4,470.4c0.1,0.6,0.2,1.3,0.3,1.9c-1.2,0.9-1.9,2.4-1.5,4.2
			c1.2,5.5,2.5,11.1,3.7,16.6c-1.6-1-4-1.1-5.9-0.4c0.1-13.6,0.1-27.3-0.1-40.9C1600.1,457.9,1601.2,464.1,1602.4,470.4z
			 M1632.1,502.5c-0.1,1.2-0.2,2.4-0.3,3.6c-0.1-2.3-0.3-4.5-0.4-6.8C1631.6,500.4,1631.8,501.4,1632.1,502.5z M1630,153.9
			c0.3,0.7,0.7,1.3,1,2c0.6,1.1,1.4,1.9,2.5,2.4c1.5,7.9,3,15.9,4.3,23.9C1635.2,172.8,1632.5,163.3,1630,153.9z M1541.3-26.3
			c-3-1.5-8-0.2-8.4,3.7c0,0.1,0,0.3,0,0.4c-0.1-0.5-0.3-1-0.4-1.5c1.1-4.5,2.1-9.1,3.1-13.6C1537.4-33.6,1539.3-29.9,1541.3-26.3z
			 M1491.2-32.1c-0.2-1-0.5-2-0.7-3c0.6-3.5,1.3-7,1.9-10.4C1492-41,1491.6-36.5,1491.2-32.1z M1489.4-12.1
			c-1.3,14.5-2.6,28.9-4,43.4c-0.4,1.2-0.8,2.4-1.2,3.6c1.4-15.7,2.6-31.4,3.6-47.1C1488.3-12.1,1488.8-12.1,1489.4-12.1z
			 M1394.2-18.4c0.1,3.3,0.1,6.6,0.2,10c-0.7,0.5-1.3,1.1-1.5,1.9c-0.7-5.7-1.4-11.4-2.1-17.1c0.7,0.4,1.5,0.6,2.4,0.8
			C1393.5-21.4,1393.8-19.9,1394.2-18.4z M1263.7,98.7c-0.7,0.6-1.3,1.1-2,1.7c-0.2-0.9-0.3-1.8-0.5-2.6c-0.2-2.1-0.5-4.3-0.7-6.4
			c0.1-0.6,0.3-1.2,0.4-1.9C1261.9,92.6,1262.8,95.6,1263.7,98.7z M737.7,128.3c-1.4,0.7-2.8,1.4-4.1,2c-0.1,0.1-0.2,0.1-0.4,0.2
			c0.3-1.4,0.6-2.7,1-4.1c1.4-0.6,2.7-1.1,4.1-1.7C738,125.9,737.8,127.1,737.7,128.3z M659.3,45.1c0-0.1-0.1-0.1-0.1-0.2
			c0,0,0.1,0,0.1-0.1C659.3,44.9,659.3,45,659.3,45.1z M430.2,348.3c-0.3-0.7-0.7-1.3-1-2c-0.6-1.1-1.4-1.9-2.5-2.4
			c-1.5-7.9-3-15.9-4.3-23.9C425,329.4,427.6,338.8,430.2,348.3z M428.8,468.9c0,0-0.1,0-0.1,0.1c-0.1-0.4-0.1-0.8-0.2-1.2
			C428.6,468.1,428.7,468.5,428.8,468.9z M518.9,528.5c3,1.5,8,0.2,8.4-3.7c0-0.1,0-0.3,0-0.4c0.1,0.5,0.3,1,0.4,1.5
			c-1.1,4.5-2.1,9.1-3.1,13.6C522.7,535.8,520.8,532.1,518.9,528.5z M569,534.2c0.2,1,0.5,2,0.7,3c-0.6,3.5-1.3,7-1.9,10.4
			C568.2,543.2,568.6,538.7,569,534.2z M570.8,514.3c1.6-17.3,3.1-34.5,4.7-51.8c0.2,1.3,0.3,2.6,0.5,3.9c-1.4,16-2.6,32-3.6,48
			C571.9,514.3,571.3,514.3,570.8,514.3z M951.1,340.8c-2.2-12.6-4.5-25.2-6.8-37.8c0-0.2,0-0.5-0.1-0.7c2.1,4.9,4.2,9.7,6.3,14.6
			c1.6,17.8,3.2,35.5,4.7,53.3c0.5,5.9,1,11.8,1.5,17.8c-1.8-3.9-3.6-7.9-5.4-11.8c-1.1-10.1-2.2-20.2-3.2-30.4
			C950.1,344.9,951.5,343.2,951.1,340.8z M1165.5,497.2c-0.1,0.3-0.1,0.6-0.2,0.9c-0.1-0.6-0.2-1.1-0.3-1.7
			C1165.2,496.6,1165.3,496.9,1165.5,497.2z M1350.1,560.1c0.1,1.2,0.3,2.4,0.4,3.7c0,0,0,0,0,0.1c-0.3,0.1-0.6,0.2-1,0.3
			C1349.8,562.8,1350,561.5,1350.1,560.1z M1440.9,526.3c0.2-0.1,0.3-0.2,0.4-0.3c-0.1,0.4-0.2,0.8-0.3,1.3
			C1441,526.9,1441,526.6,1440.9,526.3z M1492.3,533.4c-0.1-0.5-0.4-1-0.8-1.3c-0.3-0.5-0.6-1-0.9-1.5c0.2-0.7,0.3-1.4,0.5-2.2
			c1.7,0.6,3.8,0.4,5.3-0.3c-0.6,3.2-1.2,6.4-1.7,9.6C1493.9,536.2,1493.1,534.8,1492.3,533.4z M1651,185.5c0.2,4.5,0.3,9,0.2,13.5
			c-0.7-4.4-1.3-8.7-2-13.1C1649.8,185.8,1650.4,185.7,1651,185.5z M1539.1-53.3c0-0.1,0.1-0.2,0.1-0.4c0.1,0.4,0.2,0.8,0.3,1.2
			C1539.3-52.7,1539.2-53,1539.1-53.3z M895.1,5.8c0,0,0-0.1-0.1-0.1c0,0,0,0,0,0C895.1,5.7,895.1,5.8,895.1,5.8z M740.7,107.4
			c-0.3,2.3-0.7,4.5-1,6.8c-1,0.4-2,0.8-3,1.3c1.1-4.8,2.3-9.7,3.4-14.5C740.2,103.2,740.5,105.3,740.7,107.4z M659.7,35
			c-0.5,0.2-1,0.4-1.6,0.6c0.5-4.1,1-8.3,1.5-12.4c0.1,1.3,0.3,2.6,0.4,3.9C659.9,29.7,659.8,32.3,659.7,35z M567.9-31.2
			c0.1,0.5,0.4,1,0.8,1.3c0.3,0.5,0.6,1,0.9,1.5c-0.2,0.7-0.3,1.4-0.5,2.2c-1.7-0.6-3.8-0.4-5.3,0.3c0.6-3.2,1.2-6.4,1.7-9.6
			C566.2-34,567.1-32.6,567.9-31.2z M562.5-19.5c1.2,1.8,2.4,3.7,3.6,5.5c-1.4,6-2.7,12-4,18.1c0.1-7,0.1-14.1,0.1-21.1
			c0-0.5,0.1-1,0.1-1.5C562.4-18.9,562.5-19.2,562.5-19.5z M453.7,2.4c-0.9-4.1-1.8-8.1-2.7-12.2c1.7-8,3.4-16,5.1-23.9
			c0,0.1,0,0.1,0.1,0.2C455.4-21.6,454.5-9.6,453.7,2.4z M418.3,48.8c-0.1,0.2-0.1,0.3-0.2,0.5c-0.3-1.2-0.7-2.5-1-3.7
			c0.3-1.9,0.6-3.9,0.9-5.8C418.1,42.8,418.2,45.8,418.3,48.8z M409.2,316.7c-0.2-4.5-0.3-9-0.2-13.5c0.7,4.4,1.3,8.7,2,13.1
			C410.4,316.3,409.8,316.5,409.2,316.7z M521.1,555.5c0,0.1-0.1,0.2-0.1,0.4c-0.1-0.4-0.2-0.8-0.3-1.2
			C520.8,554.9,521,555.2,521.1,555.5z M705.8,510.9c0.5,1.6,1,3.1,1.5,4.7c-0.6,0-1.1,0-1.7,0.1
			C705.6,514.1,705.7,512.5,705.8,510.9z M827.9,474.3c-0.9-8.6-1.9-17.3-2.8-25.9c0.2-2.5,0.3-5.1,0.5-7.6c0.2,0.5,0.3,0.9,0.5,1.4
			c0.9,5.2,1.7,10.3,2.6,15.5C828.4,463.2,828.1,468.8,827.9,474.3z M1002.3,452.7c-1,3.7-2.1,7.3-3.2,11
			c-3.6-16.5-7-33.1-10.3-49.7C993.4,426.8,997.9,439.7,1002.3,452.7z M1006.4,476.5c-0.6,4.1-1.2,8.3-1.7,12.4
			c-0.3-1.3-0.6-2.6-0.9-3.9C1004.6,482.2,1005.5,479.3,1006.4,476.5z M1019.9,521.4c-2.3-4.4-4.6-8.8-6.9-13.2
			c0.6-4.8,1.2-9.7,1.8-14.5C1016.5,502.9,1018.2,512.2,1019.9,521.4z M1328.9,577.4c0-0.1,0-0.1,0-0.2c0.1,0.9,0.2,1.7,0.3,2.6
			c-0.1-0.6-0.3-1.2-0.4-1.7C1328.9,577.9,1328.9,577.6,1328.9,577.4z M1347.7,579.2c0.3,3.7,0.7,7.3,1.1,11
			c-0.3,3.6-0.7,7.2-1,10.8c-0.5-3.9-0.9-7.7-1.4-11.6C1346.8,586,1347.3,582.6,1347.7,579.2z M1405.8,525.7
			c0.7-6.2,1.5-12.5,2.2-18.7c-0.4,9.9-0.7,19.9-0.9,29.8C1406.6,533.1,1406.2,529.4,1405.8,525.7z M1606.4,499.8
			c0.9,4.1,1.8,8.1,2.7,12.2c-1.7,8-3.4,16-5.1,23.9c0-0.1,0-0.1-0.1-0.2C1604.8,523.8,1605.6,511.8,1606.4,499.8z M1641.9,453.3
			c0.1-0.2,0.1-0.3,0.2-0.5c0.3,1.2,0.7,2.5,1,3.7c-0.3,1.9-0.6,3.9-0.9,5.8C1642.1,459.4,1642,456.4,1641.9,453.3z M1549.6-69.6
			c-0.2,3.8-0.5,7.6-0.7,11.4c-1.7-6.1-3.4-12.1-5.1-18.2c0.3-1.7,0.7-3.5,1-5.2C1546.4-77.6,1548-73.6,1549.6-69.6z M1498-66.8
			c-0.6,0.1-1.2,0.4-1.8,0.7c0.3-1.4,0.5-2.7,0.8-4.1c0.2,0.4,0.3,0.8,0.5,1.2C1497.7-68.3,1497.9-67.6,1498-66.8z M826.5,27
			c-1-7.7-2-15.4-3-23.1c1.8,3,3.7,5.9,5.5,8.9C828.2,17.5,827.4,22.2,826.5,27z M686.9-50c-0.1,0.7-0.2,1.4-0.3,2.1
			c0-0.8,0-1.5,0-2.3C686.7-50.1,686.8-50.1,686.9-50z M428.2-63.8c-0.4,0-0.8,0-1.2,0.1c0.1-1.3,0.2-2.6,0.4-3.9
			C427.6-66.3,427.9-65,428.2-63.8z M465.2,534.8c0-1.1,0.1-2.3,0.1-3.4c0.3,2.5,0.6,5,0.9,7.5c-2.1,0.5-3.7,1.8-3.6,3.8
			c-0.4-1.3-0.7-2.5-1.1-3.8C463.6,538.4,465.2,537,465.2,534.8z M510.6,571.7c0.2-3.8,0.5-7.6,0.7-11.4c1.7,6.1,3.4,12.1,5.1,18.2
			c-0.3,1.7-0.7,3.5-1,5.2C513.7,579.7,512.2,575.7,510.6,571.7z M562.1,569c0.6-0.1,1.2-0.4,1.8-0.7c-0.3,1.4-0.5,2.7-0.8,4.1
			c-0.2-0.4-0.3-0.8-0.5-1.2C562.4,570.5,562.3,569.8,562.1,569z M704.8,536c0.2,1.3,0.5,2.7,0.7,4c-0.2-0.8-0.5-1.7-0.7-2.5
			C704.7,537,704.8,536.5,704.8,536z M826.3,503.4c0.1,0,0.1,0,0.2,0c0,0.2,0,0.4,0,0.6C826.4,503.7,826.4,503.5,826.3,503.4z
			 M1023.7,549.1c0.6,5.7,1.1,11.3,1.7,17c-0.5-1-1.5-1.7-2.7-2.1c-2.6-9.9-5-19.9-7.5-29.8C1018,539.2,1020.8,544.2,1023.7,549.1z
			 M1632,566c0.4,0,0.8,0,1.2-0.1c-0.1,1.3-0.2,2.6-0.4,3.9C1632.5,568.5,1632.3,567.2,1632,566z M1658,245.4
			c-0.2-0.6-0.5-1.1-0.9-1.6c-0.5-4.1-1-8.2-1.5-12.3c1.3-0.4,2.6-1.1,3.3-2.2c1.4,10.8,2.8,21.6,4.2,32.4
			C1661.4,256.2,1659.7,250.8,1658,245.4z M1589.8-96.6c-0.4-1-0.9-2-1.3-3.1c1.1-2,2.3-3.9,3.5-5.8
			C1591.3-102.5,1590.5-99.5,1589.8-96.6z M1562.6-90.3c0-1.2,0-2.4,0.1-3.6c0.7,1.5,1.3,3,2,4.5
			C1564.1-89.9,1563.4-90.2,1562.6-90.3z M1354.4-8.7c-0.5-1.6-1-3.1-1.5-4.7c0.6,0,1.1,0,1.7-0.1
			C1354.5-11.9,1354.5-10.3,1354.4-8.7z M1136.3-95.8c-0.6-0.7-1.4-1.2-2.3-1.5c-0.4-1.5-0.7-3-1.1-4.6c0.5-0.3,0.9-0.6,1.4-0.9
			C1135-100.5,1135.7-98.2,1136.3-95.8z M984.2-55.1c-0.2,0.1-0.3,0.3-0.5,0.4c0,0,0-0.1,0-0.1C983.8-55,984-55.1,984.2-55.1
			C984.1-55.2,984.2-55.1,984.2-55.1z M917.4-3.2c0.1-2,0.2-4,0.3-6c0.6,1.5,1.2,2.9,1.7,4.4C918.8-4.3,918.1-3.7,917.4-3.2z
			 M843.5-5.6c-0.1-0.3-0.2-0.7-0.3-1c0.2-1.1,0.4-2.2,0.6-3.3C843.7-8.4,843.6-7,843.5-5.6z M827.1-9.8c-2.3-3.8-4.6-7.6-7-11.4
			c-0.3-2.4-0.7-4.8-1-7.2c0.3-7,0.6-14,0.9-21c1.5,5,2.9,10.1,4.4,15.1C825.3-26.1,826.1-17.9,827.1-9.8z M790.9,9.8
			c-0.1,0.6-0.2,1.2-0.3,1.8c-1.4-1-3-1.7-4.6-2.3c0-0.1,0-0.1-0.1-0.2c0.4-12.8,0.8-25.6,1.1-38.4c0.6-0.4,1.2-0.8,1.8-1.2
			C789.5-17.1,790.2-3.6,790.9,9.8z M736.7,66.8c-0.4,0.2-0.9,0.4-1.3,0.6c0.1-2.4,0.3-4.8,0.4-7.1c0.2,1.2,0.4,2.4,0.6,3.6
			C736.5,64.8,736.6,65.8,736.7,66.8z M416-33.3c0,4.8,0,9.6,0,14.4c-1,0.5-1.7,1.2-2.1,2.2C414.6-22.2,415.3-27.7,416-33.3z
			 M386.2,99.9c0.1-1,0.2-1.9,0.3-2.9c0.9,3.9,1.7,7.7,2.7,11.6c0.8,8.8,1.6,17.7,2.3,26.5c-1.1,2-1.6,4.3-1.8,6.7
			c-1.9-6-3.8-12-5.7-17.9C384.6,115.9,385.4,107.9,386.2,99.9z M381.1,153.7c1.8,4.9,3.5,9.7,5.3,14.6c0.1,0.2,0.2,0.5,0.3,0.7
			c2.7,9.2,5.2,18.4,7.7,27.7c-1.7-5.6-3.5-11.2-5.2-16.8c-0.7-2.3-3.7-3.3-6.3-3.1c-0.8-5.9-1.5-11.9-2.2-17.8
			C380.9,157.2,381,155.5,381.1,153.7z M402.1,256.8c0.2,0.6,0.5,1.1,0.9,1.6c0.5,4.1,1,8.2,1.5,12.3c-1.3,0.4-2.6,1.1-3.3,2.2
			c-1.4-10.8-2.8-21.6-4.2-32.4C398.7,246,400.4,251.4,402.1,256.8z M463.3,544.9c1.8,4.8,3.5,9.5,5.2,14.3c0.1,0.6,0.1,1.2,0.2,1.8
			c-1.5-4.3-3-8.5-4.5-12.8C463.9,547.1,463.6,546,463.3,544.9z M481.8,557.5c-0.1,0.8-0.3,1.6-0.4,2.4c-0.1-0.1-0.1-0.3-0.2-0.4
			C481.4,558.8,481.6,558.1,481.8,557.5z M489.1,576.6c0.4,1.1,0.8,2.3,1.3,3.4c-0.4-1-0.9-2-1.3-3C489,576.9,489,576.7,489.1,576.6
			z M497.5,592.5c0,1.2,0,2.4-0.1,3.6c-0.7-1.5-1.3-3-2-4.5C496.1,592.1,496.8,592.3,497.5,592.5z M824.2,546.5c0-4.7,0-9.4,0-14
			c0.2,0.7,0.5,1.5,0.7,2.2C824.6,538.6,824.4,542.5,824.2,546.5z M845.2,370.1c0-1.1-0.1-2.1-0.1-3.2c0.4,1.1,0.8,2.2,1.1,3.2
			c-0.1,1.3-0.1,2.5-0.2,3.8C845.8,372.6,845.5,371.3,845.2,370.1z M1042.4,555c0.5,2.6,1,5.1,1.6,7.7c0.1,0.6,0.3,1.2,0.4,1.8
			c-0.2,1.4-0.5,2.7-0.7,4.1c-0.4-1.8-0.9-3.6-1.3-5.4C1042.4,560.4,1042.4,557.7,1042.4,555z M1138.9,466.3
			c1.8,4.2,3.6,8.3,5.4,12.5c-0.1,0.9-0.1,1.9-0.2,2.8c-2-3.9-3.9-7.9-5.9-11.8C1138.5,468.6,1138.7,467.5,1138.9,466.3z
			 M1644.1,535.5c0-4.8,0-9.6,0-14.4c1-0.5,1.7-1.2,2.1-2.2C1645.6,524.4,1644.9,529.9,1644.1,535.5z M1674,402.3
			c-0.1,1-0.2,1.9-0.3,2.9c-0.9-3.9-1.7-7.7-2.7-11.6c-0.8-8.8-1.6-17.7-2.3-26.5c1.1-2,1.6-4.3,1.8-6.7c1.9,6,3.8,12,5.7,17.9
			C1675.5,386.3,1674.8,394.3,1674,402.3z M1679,348.5c-1.8-4.9-3.5-9.7-5.3-14.6c-0.1-0.2-0.2-0.5-0.3-0.7
			c-2.7-9.2-5.2-18.4-7.7-27.7c1.7,5.6,3.5,11.2,5.2,16.8c0.7,2.3,3.7,3.3,6.3,3.1c0.8,5.9,1.5,11.9,2.2,17.8
			C1679.3,345,1679.2,346.7,1679,348.5z M1355.4-35.3c0,0.5,0,1-0.1,1.4c-0.2-1.3-0.5-2.7-0.7-4C1354.9-37,1355.2-36.1,1355.4-35.3z
			 M1196.2,53.2c-0.1-0.7-0.2-1.3-0.4-2c0.1,0.5,0.3,1,0.4,1.5C1196.3,52.8,1196.3,53,1196.2,53.2z M929.9-12.9
			c-0.6,0.5-1.2,0.9-1.8,1.4c-0.6-1.4-1.1-2.8-1.7-4.2c1.5-1,2.9-2,4.4-3C930.5-16.8,930.2-14.8,929.9-12.9z M837.3-33.3
			c-0.8-4.9-1.6-9.8-2.3-14.7c1.2,1.1,3,1.5,4.7,1.2C838.8-42.3,838-37.8,837.3-33.3z M787.9-49.1c-0.1,0.2-0.1,0.5-0.2,0.7
			c0,0,0,0.1,0,0.1c0-1.3,0.1-2.6,0.1-3.8C787.8-51.1,787.9-50.1,787.9-49.1z M742.4,20.4c-0.1-1-0.2-2-0.3-3c0.1,0,0.2,0,0.3-0.1
			C742.4,18.4,742.4,19.4,742.4,20.4z M652.1-4.8c0.4-9.9,0.7-19.9,0.9-29.8c0.4,3.7,0.8,7.4,1.3,11.1
			C653.6-17.3,652.9-11.1,652.1-4.8z M570.3-50.8c-0.6-0.8-1.2-1.6-1.9-2.4c0.2-1.1,0.4-2.2,0.5-3.3c0.6,0.9,1.2,1.8,1.7,2.7
			C570.6-52.8,570.4-51.8,570.3-50.8z M531.3-30.2c-0.3,1-0.5,1.9-0.8,2.9c0-1.9,0.1-3.8,0.1-5.8c0.1-5.9-10-5.6-10.7,0
			c-0.5,3.6-0.9,7.3-1.4,10.9c-0.3-1-0.6-2.1-0.9-3.1c2.1-13.9,4.3-27.9,6.6-41.8c1.1,0.4,2.4,0.4,3.6,0.2
			c0.8,11.9,1.9,23.9,3.3,35.8C531.1-30.8,531.2-30.5,531.3-30.2z M473.1-35.3c-1-4.5-1.9-8.9-2.9-13.4c0.6-5.5,1.3-10.9,2-16.4
			c0.9,2.4,1.8,4.8,2.8,7.1C474.4-50.5,473.8-42.9,473.1-35.3z M413.8-15.3C413.8-15.3,413.8-15.3,413.8-15.3
			c0.3,3.4,0.6,6.8,0.8,10.2c-1.4,7.9-2.7,15.9-4,23.8C411.4,7.4,412.4-4,413.8-15.3z M386.6,242.8c0.3,2.5,0.6,4.9,0.9,7.4
			c-0.3-1.4-0.6-2.8-0.9-4.2C386.6,244.9,386.6,243.8,386.6,242.8z M649.8,514.9c0.1-1.3,0.2-2.5,0.2-3.8c0.4-2.1,0.9-4.2,1.3-6.3
			c0.1,0.3,0.1,0.5,0.2,0.8c0.3,5.9,0.6,11.8,1,17.7c-0.2,0-0.5,0.1-0.7,0.1C651.1,520.5,650.4,517.7,649.8,514.9z M834.1,594.2
			c-0.3-1.2-1.1-2-2.1-2.5c0.6-9.3,1.2-18.6,1.8-27.9c1.5,4.8,3,9.6,4.5,14.4c0.9,3.8,1.8,7.5,2.6,11.3c-2.2,2-4.3,4-6.5,6
			C834.4,595.1,834.3,594.7,834.1,594.2z M863.9,449c0.1,0.7,0.2,1.3,0.4,2c-0.1-0.5-0.3-1-0.4-1.5
			C863.9,449.4,863.9,449.2,863.9,449z M916.2,406.8c0-0.1,0-0.1,0-0.2c1-8.8,2-17.5,2.9-26.3c1.4,7.9,2.8,15.9,4.1,23.8
			c1.7,10,3.4,20,5,30.1C924.2,425.1,920.2,415.9,916.2,406.8z M997.5,505.4c0.8,3.4,1.6,6.8,2.4,10.3c-1.2,0-2.3,0.3-3.3,0.8
			c-0.3-1.9-0.5-3.8-0.8-5.6C996.3,509,996.9,507.2,997.5,505.4z M1059.6,575.4c0.2,1.3,0.4,2.6,0.6,3.9c-0.3-1.6-0.6-3.2-1-4.8
			C1059.4,574.8,1059.5,575.1,1059.6,575.4z M1135.2,486.8c0.2,0.4,0.4,0.8,0.6,1.2c-0.2-0.1-0.5-0.2-0.7-0.4
			C1135.1,487.4,1135.1,487.1,1135.2,486.8z M1435.4,580.2c1.3-0.7,2.1-1.9,2-3.5c-0.2-2.3-0.4-4.6-0.6-7c0.5-4,1.1-8,1.6-12
			c1.1,0.2,2.2,0.1,3.2-0.2c0.1,11.7,0.1,23.4,0.2,35c-0.9,3.5-1.8,7.1-2.7,10.6c-1.8-3.5-3.6-7-5.5-10.5
			C1434.2,588.6,1434.8,584.4,1435.4,580.2z M1587,537.5c1,4.5,1.9,8.9,2.9,13.4c-0.6,5.5-1.3,10.9-2,16.4c-0.9-2.4-1.8-4.8-2.8-7.1
			C1585.8,552.7,1586.4,545.1,1587,537.5z M1646.4,517.5C1646.4,517.5,1646.4,517.4,1646.4,517.5c-0.3-3.4-0.6-6.8-0.8-10.2
			c1.4-7.9,2.7-15.9,4-23.8C1648.8,494.8,1647.7,506.2,1646.4,517.5z M1673.6,259.4c-0.3-2.5-0.6-4.9-0.9-7.4
			c0.3,1.4,0.6,2.8,0.9,4.2C1673.5,257.3,1673.5,258.4,1673.6,259.4z M1513.6-118.3c0.2,2.8,0.5,5.7,0.7,8.5c-0.1,0-0.2-0.1-0.3-0.1
			c-1.2-2.8-2.3-5.7-3.4-8.6C1511.5-118.2,1512.6-118.1,1513.6-118.3z M1172.3-23.7c-0.5-2.4-1-4.8-1.4-7.2c0.4,0.8,0.8,1.6,1.1,2.4
			c0.2,1.5,0.4,3,0.7,4.5C1172.6-23.9,1172.4-23.8,1172.3-23.7z M933.1-32.7c-0.1,0.4-0.1,0.8-0.2,1.2c-3.3,2.3-6.7,4.6-10,6.8
			c-0.1-0.3-0.2-0.5-0.3-0.8c3.5-2.5,6.9-5,10.4-7.5C933-32.9,933.1-32.8,933.1-32.7z M619.2-24.1c-0.2,0.1-0.3,0.2-0.4,0.3
			c0.1-0.4,0.2-0.8,0.3-1.3C619.2-24.7,619.2-24.4,619.2-24.1z M477.3-87.6c-0.2,1.9-0.3,3.9-0.5,5.8c-0.7-1.6-1.3-3.2-2-4.8
			c0.5-4.3,1.1-8.5,1.6-12.8c0.4,1.5,0.9,3.1,1.3,4.6C477.7-92.4,477.5-90,477.3-87.6z M546.5,620.5c-0.2-2.8-0.5-5.7-0.7-8.5
			c0.1,0,0.2,0.1,0.3,0.1c1.2,2.8,2.3,5.7,3.4,8.6C548.6,620.3,547.6,620.3,546.5,620.5z M768.3,587c0.1-1.5,0.3-3,0.4-4.5
			c0.3,0.7,0.6,1.4,0.8,2c0,2.6,0,5.1,0,7.7C769.1,590.5,768.7,588.8,768.3,587z M847.5,567.7c-1-3.1-1.9-6.1-2.9-9.2
			c0.9-0.7,1.4-1.7,1.5-3c0.1-6.3,0.2-12.6,0.3-18.9c1.8,9.3,3.6,18.6,5.5,27.9C849.9,564.9,848.1,566,847.5,567.7z M886.3,518.2
			c1,4.9,2,9.9,3,14.8c-0.4-0.8-0.8-1.6-1.1-2.4C887.5,526.5,886.9,522.4,886.3,518.2z M931.9,467.9c0.8,1.8,1.6,3.6,2.4,5.4
			c0.2,1.5,0.5,3,0.7,4.6C934,474.6,933,471.3,931.9,467.9z M926.5,361.7c0.7-0.5,1.3-1.1,1.6-1.8c0.5,1.3,1,2.6,1.5,3.8
			c0.9,5.6,1.9,11.3,2.8,16.9c3.4,20,6.9,40,10.6,59.9c1.9,13,3.8,25.9,5.6,38.9c-1.3-2.8-2.6-5.6-3.8-8.4
			C939.1,434.5,933.1,398.1,926.5,361.7z M1582.8,589.8c0.2-1.9,0.3-3.9,0.5-5.8c0.7,1.6,1.3,3.2,2,4.8c-0.5,4.3-1.1,8.5-1.6,12.8
			c-0.4-1.5-0.9-3.1-1.3-4.6C1582.5,594.6,1582.7,592.2,1582.8,589.8z M1596.3-137.8c1.2-1.5,2.4-2.9,3.6-4.4
			c-0.6,3.1-1.2,6.2-1.9,9.4C1597.5-134.5,1596.9-136.2,1596.3-137.8z M1597.1-154.6c0-0.3-0.1-0.5-0.2-0.7c0.5-2.6,1-5.3,1.5-7.9
			c0.2,2.1,0.4,4.2,0.6,6.2C1598.3-156.1,1597.7-155.4,1597.1-154.6z M1565.9-175.8c0.2-2.9,0.4-5.9,0.6-8.8
			c0.6,1.7,1.2,3.5,1.8,5.2C1567.5-178.2,1566.7-177,1565.9-175.8z M1291.9-84.9c-0.2,2.7-0.5,5.5-0.7,8.2c-0.2-0.5-0.4-1.1-0.5-1.6
			c0-4,0-7.9,0.1-11.9C1291.1-88.3,1291.5-86.6,1291.9-84.9z M1131.1-113.1c-0.3,0.1-0.5,0.3-0.8,0.4c-0.6-2.7-1.3-5.3-1.9-8
			c0.1-0.1,0.2-0.1,0.3-0.2C1129.5-118.3,1130.3-115.7,1131.1-113.1z M934.7-61.9c-0.1,2.9-0.3,5.8-0.4,8.7c-0.5-1-1-2.1-1.6-3.1
			c-3.7-7.3-7.4-14.5-11.1-21.8c0.4-6.3,0.7-12.6,1.1-18.9C926.6-85.2,930.6-73.5,934.7-61.9z M928.7-41.5c-3.2,2.3-6.3,4.6-9.5,6.9
			c0.4-7.7,0.9-15.4,1.3-23.1C923.2-52.3,926-46.9,928.7-41.5z M866.9,4.3c-0.3,0.3-0.7,0.5-1,0.8c0,0,0,0,0,0
			c0-4.9-0.1-9.8-0.1-14.7c0.6,1.5,1.2,3.1,1.9,4.6C867.4-1.9,867.2,1.2,866.9,4.3z M625.9-37.3c-1-0.5-2.2-0.7-3.4-0.7
			c0.8-3.1,1.7-6.2,2.5-9.3C625.4-44,625.6-40.7,625.9-37.3z M550.5-35.6c0,1.8-0.1,3.5-0.1,5.3c-1.5,8.4-3.1,16.8-4.6,25.1
			c0.2-8.4,0.4-16.8,0.5-25.2c1.5-7.1,3-14.2,4.5-21.4C550.7-46.3,550.6-40.9,550.5-35.6z M401,4.6c-0.5-2.2-1-4.4-1.5-6.5
			c1.1-4.1,2.3-8.3,3.4-12.4C402.2-8.1,401.5-1.7,401,4.6z M712.1,616.4c0.5-5.5,0.9-11,1.3-16.4c0.7,2,1.4,4.1,2.1,6.1
			c-0.2,3.6-0.4,7.2-0.5,10.8c-0.1,2.2-0.2,4.5-0.4,6.7c-0.2-0.7-0.4-1.3-0.7-2C713.3,619.8,712.7,618.1,712.1,616.4z M791.4,579.7
			c-0.2-6.1-0.3-12.2-0.4-18.3c0.6,1.4,1.1,2.9,1.7,4.3C792.3,570.4,791.8,575.1,791.4,579.7z M790.7,531.3c0-5.1-0.1-10.2-0.1-15.2
			c0.2-0.1,0.4-0.1,0.7-0.2c1.5,5.5,3,11,4.5,16.5c-0.3,3.2-0.6,6.5-0.9,9.7C793.4,538.5,792,534.9,790.7,531.3z M803.8,561.6
			c1.2,4.1,2.3,8.2,3.5,12.4c0,0.2,0,0.4,0,0.5c-1.3-3.3-2.5-6.6-3.8-9.8C803.6,563.6,803.7,562.6,803.8,561.6z M858.6,503.9
			c-0.6-6.8-1.1-13.7-1.5-20.5c1.8,4.5,3.6,9.1,5.4,13.6c0.8,2,1.6,4,2.4,6c-1.2,2.6-2.6,5.2-4,7.7
			C860.2,508.4,859.4,506.1,858.6,503.9z M954.7,540c-1.5-10.9-3-21.9-4.6-32.8c1.1,2.4,2.3,4.7,3.4,7.1c1.8,12.9,3.6,25.9,5.4,38.8
			C957.5,548.7,956.1,544.3,954.7,540z M1134.5,522.5c0-1-0.1-2-0.1-3.1c2.2,5.7,4.4,11.4,6.6,17.1c-0.2,4.3-0.5,8.6-0.7,12.9
			C1138.6,540.4,1136.7,531.4,1134.5,522.5z M1153.4,522.2c0.4,0.8,0.9,1.7,1.3,2.5c0.4,3.4,0.9,6.8,1.3,10.2
			c-0.7-2.6-1.4-5.2-2.2-7.8C1153.7,525.5,1153.6,523.9,1153.4,522.2z M1250.5,664.8c0-1.8,0-3.6,0-5.4c0.4-0.4,0.8-0.7,1.2-1.1
			c0.1,0.6,0.2,1.2,0.4,1.7c0.1,3.4,0.1,6.8,0.2,10.2C1251.7,668.4,1251.1,666.6,1250.5,664.8z M1421.3,548
			C1421.3,548,1421.3,548,1421.3,548c0,1.2-0.1,2.4-0.1,3.5c-1.4,13.9-2.8,27.7-4.1,41.6c-0.1,0.3-0.1,0.5-0.2,0.8
			c0.1-8,0.2-15.9,0.3-23.9C1418.5,562.7,1419.9,555.4,1421.3,548z M1659.2,497.6c0.5,2.2,1,4.4,1.5,6.5c-1.1,4.1-2.3,8.3-3.4,12.4
			C1658,510.2,1658.6,503.9,1659.2,497.6z M1646.2-31.4c-0.4,0.6-0.9,1.2-1.3,1.8c-1.6-13.6-3.4-27.3-5.3-40.9
			c-0.3-5.2-0.6-10.5-0.9-15.7c1.3-4.8,2.8-9.5,4.2-14.2c1.4,8.7,2.8,17.5,4,26.2C1646.7-60,1646.5-45.7,1646.2-31.4z M1201.5-1.7
			c0.6,6.8,1.1,13.7,1.5,20.5c-1.8-4.5-3.6-9.1-5.4-13.6c-0.3-0.8-0.7-1.7-1-2.5c1.4-2.3,2.7-4.6,4-7
			C1200.9-3.4,1201.2-2.5,1201.5-1.7z M1047.6-124.1c-0.1,0.2-0.3,0.4-0.4,0.6c-2.4,1.6-4.7,3.2-7.1,4.8c1.8-6.7,3.6-13.4,5.3-20.1
			C1046.2-133.9,1046.9-129,1047.6-124.1z M956.8-154.7c-0.6-0.2-1.3-0.3-1.9-0.3c0-0.1,0-0.1-0.1-0.2c-0.5-1.2-1.4-2.1-2.5-2.6
			c1.4-7,2.7-14,4.1-21C956.7-170.7,956.8-162.7,956.8-154.7z M909-113.1c1.3-5.2,2.5-10.3,3.8-15.5c0,0,0,0.1,0,0.1
			c-1.7,7.9-3.4,15.8-5.1,23.7c-0.9-1.8-1.9-3.5-2.8-5.3C906.8-110.3,908.5-111.3,909-113.1z M909.8-58.9c-0.3-0.7-0.5-1.4-0.8-2.2
			c0.4-1.9,0.8-3.9,1.3-5.8C910.1-64.2,910-61.5,909.8-58.9z M908.4-33.2c-0.1,2.2-0.3,4.5-0.4,6.7c-0.9,0.7-1.9,1.4-2.8,2.1
			c-0.5-3.9-1-7.9-1.5-11.8c0.4-2,0.9-4,1.3-6C906.1-39.2,907.2-36.2,908.4-33.2z M883.2-62.1c-0.1-0.2-0.3-0.5-0.4-0.7
			c0-0.3,0.1-0.7,0.1-1C883-63.2,883.1-62.6,883.2-62.1z M885-23.1c-0.9-0.2-1.8-0.3-2.7-0.3c-0.1-2.4-0.3-4.8-0.4-7.1
			C882.9-28,884-25.5,885-23.1z M661-80.3c-0.4-0.2-0.7-0.3-1.1-0.5c0.2-0.7,0.4-1.4,0.6-2.1c0.3-0.1,0.6-0.1,0.9-0.2
			C661.2-82.1,661.1-81.2,661-80.3z M562-81.9c0.1-2.6,0.1-5.3,0.2-7.9c0.3-9.7,0.9-19.4,2.8-28.9c0.3,2.4,0.7,4.9,1,7.3
			C564.7-101.6,563.4-91.7,562-81.9z M376.1,259.7c0.4,1.7,1.8,2.7,3.4,3c0,0.2,0.1,0.4,0.1,0.6c-1.7-0.5-3.5-0.5-4.9,0.3
			c0.1-2.7,0.2-5.5,0.4-8.2C375.4,256.8,375.7,258.2,376.1,259.7z M453.9,561.9c0.8,1.8,1.6,3.6,2.5,5.4c1.7,6.5,3.5,13,5.2,19.5
			c0.1,0.5,0.3,0.9,0.6,1.2c-0.7,2.6-1.3,5.2-2,7.8c-1.8-5.7-3.7-11.3-5.5-17c-0.2-0.7-0.5-1.5-0.8-2.3
			C453.9,571.7,453.9,566.8,453.9,561.9z M725.5,634.2c0.3,0.9,0.7,1.8,1,2.7c-0.7,5.5-1.4,11.1-2,16.7c-0.1-0.3-0.2-0.6-0.3-0.9
			C724.6,646.5,725.1,640.4,725.5,634.2z M799.9,601.3c0.9-4.1,1.3-8.3,1.7-12.5c1,2.5,1.9,5,2.9,7.6c0.3,7.2,0.7,14.4,1,21.6
			c0,0.7-0.1,1.5-0.1,2.2c-2.2-5-4.3-10-6.5-15C799.2,603.9,799.6,602.6,799.9,601.3z M866,582.7c-0.2-0.9-0.4-1.8-0.6-2.7
			c0.9-0.9,1.8-1.7,2.7-2.6c0.4,1.9,0.7,3.8,1.1,5.8C868.3,582.7,867.1,582.6,866,582.7z M863.1,560.6c-0.4,0.3-0.8,0.6-1.2,1
			c-2-10.1-4-20.2-5.9-30.3c0.3,0,0.6,0,0.8-0.1c3.1,9.3,6.3,18.5,9.4,27.8C865,559.3,864,559.9,863.1,560.6z M871.4,541.6
			c-2.1-6.2-4.2-12.4-6.3-18.6c1.7-2.3,3.3-4.8,4.7-7.2c2.5,9.4,5,18.8,7.5,28.2C876.2,542,873.7,541.2,871.4,541.6z M1336.7,661.5
			c1.3,4.3,2.7,8.6,4,12.9c-0.5,2.6-1.1,5.3-1.6,7.9c-1.3-6.1-2.6-12.2-3.8-18.3C1335.7,663.1,1336.2,662.3,1336.7,661.5z
			 M1497.9,586c0.1,0.1,0.1,0.3,0.2,0.4c0,1.9-0.1,3.8-0.1,5.6c-0.3,9.7-0.9,19.4-2.8,28.9c-0.3-2.4-0.7-4.9-1-7.3
			C1495.3,604.4,1496.6,595.2,1497.9,586z M1512.1,590.6c0.1,0.5,0.2,1.1,0.3,1.6c-0.2-0.4-0.4-0.9-0.6-1.3
			C1511.9,590.8,1512,590.7,1512.1,590.6z M1684.1,242.5c-0.4-1.7-1.8-2.7-3.4-3c0-0.2-0.1-0.4-0.1-0.6c1.7,0.5,3.5,0.5,4.9-0.3
			c-0.1,2.7-0.2,5.5-0.4,8.2C1684.8,245.4,1684.4,244,1684.1,242.5z M1568.8-214c0.3-3.1,0.5-6.1,0.8-9.2c0.2,1,0.5,2,0.7,3
			c-0.1,3.2-0.1,6.4-0.1,9.6C1569.7-211.7,1569.2-212.8,1568.8-214z M1415.8-95.9c-0.8,11.5-1.5,23.1-2.3,34.6
			c-1.3,0.1-2.6,0.5-3.5,1.4c-0.5-2.3-1.1-4.6-1.6-6.8c-0.4-1.9-2.2-2.9-4.2-3.1c1.5-14.6,3-29.2,4.5-43.8
			C1411.1-107.7,1413.5-101.8,1415.8-95.9z M1232.3,27.9c0.9,8.6,1.9,17.3,2.8,25.9c-0.2,2.5-0.3,5.1-0.5,7.6
			c-0.2-0.5-0.3-0.9-0.5-1.4c-0.9-5.2-1.7-10.3-2.6-15.5C1231.8,38.9,1232,33.4,1232.3,27.9z M904.3-89.2c-0.7,3.2-1.4,6.4-2.1,9.6
			c-1.1-3-2.2-6-3.3-9c-1.6-4.6-3.5-9.3-5.1-14.1c-0.4-2.4-0.8-4.9-1.2-7.3c0.1-0.1,0.3-0.1,0.4-0.2
			C896.9-103.3,900.6-96.3,904.3-89.2z M710-57.9c-0.1-1.2-0.3-2.4-0.4-3.7c-0.1-1-0.2-2-0.4-3c1.1-11.4,2.1-22.8,3.2-34.2
			c0.5,3.9,0.9,7.7,1.4,11.6C712.5-77.4,711.3-67.7,710-57.9z M549.8-89.6c-1.2,0.5-2.1,1.4-2.5,2.8c-0.1,0.2-0.1,0.4-0.2,0.6
			c0.4-10.1,0.6-20.2,0.4-30.3c0.1-2.2,0.3-4.3,0.4-6.5C548.6-111.9,549.3-100.7,549.8-89.6z M454.8,613.3c0.2,0.7,0.5,1.5,0.7,2.2
			c-0.2,0.8-0.4,1.6-0.5,2.4C454.9,616.4,454.9,614.9,454.8,613.3z M470.4,598.8c0.9,2.1,1.8,4.1,2.7,6.2c-1,5.6-2.1,11.1-3.1,16.7
			c-1-2.7-2.1-5.3-3.1-8C467.9,608.6,469.1,603.7,470.4,598.8z M491.4,716.2c-0.3,3.1-0.5,6.1-0.8,9.2c-0.2-1-0.5-2-0.7-3
			c0.1-3.2,0.1-6.4,0.1-9.6C490.5,713.9,490.9,715,491.4,716.2z M644.3,598.1c0.2-3.2,0.4-6.5,0.6-9.7c1.8-7.1,3.9-14,6.4-20.8
			c0.1,0.4,0.2,0.9,0.3,1.3c0.4,1.9,2.2,2.9,4.2,3.1c-1.5,14.6-3,29.2-4.5,43.8C649,609.9,646.7,604,644.3,598.1z M783.5,627.7
			c-0.1-0.5-0.3-1.1-0.4-1.6c0.2-1.9,0.4-3.8,0.6-5.8c1.1,3,2.2,6,3.3,9C786.1,628.4,784.8,627.9,783.5,627.7z M869.3,598.7
			c-0.4-1.7-0.7-3.5-1.1-5.2c0.8-1.1,1.6-2.2,2.4-3.4c0.5,2.9,1.1,5.8,1.6,8.7C871.3,598.6,870.3,598.5,869.3,598.7z M1423.5,664.3
			c0.6-4.3,1.2-8.6,1.8-12.6c0.3,1,0.7,2,1,3c-0.9,3.5-1.8,7-2.6,10.5C1423.6,664.9,1423.5,664.6,1423.5,664.3z M1512.7,618.7
			c-0.1,2.1-0.3,4.3-0.4,6.4c-0.2-2.9-0.4-5.9-0.6-8.8C1512,617.1,1512.4,617.9,1512.7,618.7z M1502.1-150.6
			c-0.1,0.6-0.3,1.2-0.4,1.9c0-1.1,0.1-2.1,0.1-3.2C1502-151.5,1502.1-151,1502.1-150.6z M1480-135.7c-3.1-7.2-6.3-14.5-9.4-21.7
			c0.2-4.2,0.4-8.5,0.6-12.7c0.3-6.9,0.6-13.7,0.9-20.6c3,10.2,6,20.4,9.1,30.7C1480.3-151.9,1479.9-143.8,1480-135.7z
			 M1471.9-128.1c-0.2,3-0.5,6-0.7,9c-0.7-2.9-1.3-5.7-2-8.6c0.1-2,0.2-4,0.3-6C1470.3-131.8,1471.1-130,1471.9-128.1z M1452.4-88.6
			c-0.4-1.4-0.9-2.8-1.3-4.3c0.1-3.4,0.3-6.9,0.4-10.3c0.6,1.5,1.2,3.1,1.8,4.6C1452.9-95.3,1452.7-92,1452.4-88.6z M1400.1-134.4
			c-0.5,4.5-0.9,9-1.4,13.5c-0.3-6.2-0.6-12.5-0.8-18.7C1398.6-137.9,1399.4-136.1,1400.1-134.4z M1387-122.4
			c-0.5-1.3-0.9-2.7-1.4-4c0.2-10.7,0.4-21.4,0.5-32.1c0-0.5-0.1-1-0.2-1.5c0.1-1.8,0.3-3.6,0.4-5.5c0.4,14.3,1,28.6,1.6,42.8
			C1387.6-122.5,1387.3-122.4,1387-122.4z M1334.6-132.1c-0.4-1.1-0.8-2.2-1.2-3.3c0.1-7.2,0.3-14.5,0.4-21.7
			c0.7,2.2,1.4,4.4,2.1,6.6C1335.5-144.4,1335.1-138.2,1334.6-132.1z M1277.1-123.9c-0.2,1.9-0.4,3.8-0.6,5.8c-1.1-3-2.2-6-3.3-9
			c0.9,0.9,2.1,1.4,3.4,1.6C1276.8-125,1276.9-124.4,1277.1-123.9z M1268.7-77.5c0.2,6.1,0.3,12.2,0.4,18.3
			c-0.6-1.4-1.1-2.9-1.7-4.3C1267.9-68.2,1268.3-72.9,1268.7-77.5z M1269.5-29.1c0,5.1,0.1,10.2,0.1,15.2c-0.2,0.1-0.4,0.1-0.7,0.2
			c-1.5-5.5-3-11-4.5-16.5c0.3-3.2,0.6-6.5,0.9-9.7C1266.7-36.3,1268.1-32.7,1269.5-29.1z M1256.4-59.4c-1.2-4.1-2.3-8.2-3.5-12.4
			c0-0.2,0-0.4,0-0.5c1.3,3.3,2.5,6.6,3.8,9.8C1256.5-61.4,1256.5-60.4,1256.4-59.4z M1233.8-1.2c-0.1,0-0.1,0-0.2,0
			c0-0.2,0-0.4,0-0.6C1233.7-1.5,1233.8-1.4,1233.8-1.2z M1195-20.8c-1.7,2.3-3.3,4.8-4.7,7.2c-0.8-3-1.6-6-2.4-9
			c1.8-1.1,3.6-2.2,5.4-3.2C1193.9-24.1,1194.5-22.5,1195-20.8z M931-128.7c-0.3-0.6-0.7-1.2-1-1.8c0.5-1.7,0.9-3.4,1.4-5
			C931.3-133.2,931.2-131,931-128.7z M899.3-120.4c-0.5-1-1.1-2-1.6-3c1.5-6.8,3.2-13.6,4.8-20.3
			C901.4-135.9,900.3-128.1,899.3-120.4z M865.3-71.1c1.5,3.7,3,7.3,4.5,11c0.3,5.7,0.5,11.4,0.8,17.1c-0.2,2-0.3,4.1-0.5,6.1
			c-1.5-2.4-3.1-4.9-4.6-7.3C865.4-53.1,865.3-62.1,865.3-71.1z M736.4-94.4c-1.7,0.6-3,1.9-3.2,3.8c-0.6,5.1-1.3,10.2-1.9,15.4
			c0,0.1,0,0.1,0,0.2c-0.2-1.9-0.5-3.8-0.7-5.7c1.7-24.9,3.3-49.8,5-74.7c1.7,13.5,3.5,26.9,5.3,40.4
			C739.3-108.1,737.8-101.2,736.4-94.4z M631.4-126.3c-2.2,16.1-4.4,32.2-6.6,48.3c-1.3,0.7-2.1,1.9-2,3.5c0.2,2.3,0.4,4.6,0.6,7
			c-0.5,4-1.1,8-1.6,12c-1.1-0.2-2.2-0.1-3.2,0.2c-0.1-11.7-0.1-23.4-0.2-35c3.9-15.7,7.8-31.3,11.8-47c0.9-0.9,1.4-2.2,1-3.8
			c0,0,0-0.1,0-0.1c2-8.1,4.1-16.2,6.1-24.4C635-148.7,631.8-129.7,631.4-126.3z M384.7,534c0.3,8.5,0.6,17,0.9,25.5
			c0.1,1.8,1.2,3.1,2.6,3.7c-0.1,4.2-0.2,8.5-0.3,12.7c0-0.4-0.1-0.8-0.1-1.3c-0.3-3.8-6-5.5-8.9-3.5
			C380.8,558.7,382.7,546.3,384.7,534z M558,652.8c0.1-0.6,0.3-1.2,0.4-1.9c0,1.1-0.1,2.1-0.1,3.2
			C558.2,653.7,558.1,653.2,558,652.8z M580.2,637.8c3.1,7.2,6.3,14.5,9.4,21.7c-0.2,4.2-0.4,8.5-0.6,12.7
			c-0.3,6.9-0.6,13.7-0.9,20.6c-3-10.2-6-20.4-9.1-30.7C579.9,654.1,580.2,646,580.2,637.8z M588.2,630.3c0.2-3,0.5-6,0.7-9
			c0.7,2.9,1.3,5.7,2,8.6c-0.1,2-0.2,4-0.3,6C589.9,634,589.1,632.1,588.2,630.3z M660.1,636.6c0.5-4.5,0.9-9,1.4-13.5
			c0.3,6.2,0.6,12.5,0.8,18.7C661.5,640.1,660.8,638.3,660.1,636.6z M673.2,624.5c0.5,1.3,0.9,2.7,1.4,4
			c-0.2,10.7-0.4,21.4-0.5,32.1c0,0.5,0.1,1,0.2,1.5c-0.1,1.8-0.3,3.6-0.4,5.5c-0.4-14.3-1-28.6-1.6-42.8
			C672.6,624.7,672.9,624.6,673.2,624.5z M926.1,599.5c2.3,9.3,4.5,18.7,6.8,28c-3.1-9.8-6.1-19.6-9.1-29.5
			C924.4,598.7,925.2,599.2,926.1,599.5z M1434.5,691.7c-0.6,6.2-1.2,12.3-1.8,18.5c-0.5-2.3-0.9-4.5-1.4-6.8
			C1432.4,699.5,1433.5,695.6,1434.5,691.7z M1647.9-156.7c-0.8-1.5-2.9-2.2-4.9-2.1c-0.1-0.5-0.2-1-0.3-1.5
			c0.6-10.5,0.9-21.8,3-32.4c1.7,13.9,3.3,27.8,5,41.6C1649.7-153,1648.8-154.8,1647.9-156.7z M1499.8-194.6c0,0.1,0,0.2,0.1,0.2
			c0,0-0.1,0-0.1,0C1499.7-194.5,1499.8-194.5,1499.8-194.6z M1455.7-139.3c0.2,0.9,0.4,1.7,0.6,2.6c-0.4,4.6-0.7,9.3-1.1,13.9
			c-0.9-2.2-1.7-4.5-2.6-6.7c0.3-6.3,0.5-12.5,0.8-18.8C1454.1-145.1,1455-142.1,1455.7-139.3z M1417.5-129.7
			c-1.5-5.1-2.9-10.2-4.4-15.3c1.4,3.4,2.8,6.7,4.2,10.1C1417.3-133.2,1417.4-131.4,1417.5-129.7z M1310.7-161.8c-2-6-4-12.1-6-18.1
			c2.1,5.2,4.3,10.4,6.3,15.6C1310.9-163.4,1310.8-162.6,1310.7-161.8z M1260.3-99.1c-0.9,4.1-1.3,8.3-1.7,12.5
			c-3.7-9.7-7.4-19.3-11-29c-4.3-16.3-8.6-32.6-12.9-48.9c8.9,20.5,17.8,41,26.8,61.5C1260.9-101.7,1260.5-100.4,1260.3-99.1z
			 M1236-44.3c0,4.7,0,9.4,0,14c-0.2-0.7-0.5-1.5-0.7-2.2C1235.5-36.4,1235.7-40.4,1236-44.3z M1185.5-31.9
			c-0.9-3.3-1.8-6.6-2.6-9.9c1.1,2,3.6,2.7,5.9,2.4c0.5,1.6,1.1,3.2,1.6,4.8C1188.7-33.7,1187.1-32.8,1185.5-31.9z M1019.1-177.5
			c-0.4,1.9-0.8,3.7-1.2,5.6c-1-6.7-2-13.3-3.2-20c0.4-1,0.7-2.1,1.1-3.1C1017.4-189.2,1018.5-183.4,1019.1-177.5z M1010.3-123.8
			c-0.7,6.3-1.2,12.7-1.6,19c-0.3,2.3-0.4,4.6-0.4,6.9c0,0.1,0,0.1,0,0.2c-3.3-15.5-6.6-31-10-46.5c1.7-5.4,3.4-10.7,5.2-16.1
			C1005.8-148.1,1008-135.9,1010.3-123.8z M981.7-125.9c-0.3,1-0.6,2-0.9,3.1c-1.3-3.6-2.6-7.1-3.9-10.6c0.7-2.8,1.4-5.6,2.1-8.5
			C980-136.6,980.9-131.3,981.7-125.9z M971.7-156.3c-1.1-0.1-2.2,0.1-3.2,0.5c0.7-11,1.4-21.9,1.6-32.9c0-0.7,0-1.4,0-2.1
			c1.5,7.7,3,15.5,4.4,23.2C973.6-163.8,972.6-160,971.7-156.3z M963.2-225c-1.5-1.2-3.8-1.7-5.7-1.2c0,0-0.1-0.1-0.1-0.1
			c0.8-4.2,1.7-8.3,2.9-12.4C961.2-234.2,962.2-229.6,963.2-225z M825.2-151.5c-0.6-0.8-1.3-1.6-1.9-2.4c0.6-2.3,1.3-4.6,2-6.9
			C825.2-157.7,825.2-154.6,825.2-151.5z M723.5-136.2c-0.1-1.1-0.3-2.1-0.4-3.2c0.2-0.3,0.5-0.7,0.7-1
			C723.7-139,723.6-137.6,723.5-136.2z M643.1-67.9c-1.4,7.3-2.8,14.7-4.2,22c0,0,0,0,0,0c0-1.2,0.1-2.4,0.1-3.6
			c1.4-13.9,2.8-27.7,4.1-41.6c0.1-0.3,0.1-0.5,0.2-0.8C643.3-83.8,643.2-75.8,643.1-67.9z M643-201.6c-0.6-0.2-1.2-0.3-1.8-0.4
			c-0.3,0-0.7-0.1-1.1-0.1c1-3.5,2-7,3-10.5C643.1-209,643.1-205.3,643-201.6z M505.4-122.7c-0.5,4.4-1,8.9-1.5,13.3
			c-4.9-9.4-8.7-19.4-12-29.5c0-0.4,0.1-0.7,0.1-1.1c0.9-12.1,1.9-24.3,2-36.4c3.3,13.7,6.9,27.4,10.7,41
			C505.1-131.2,505.3-126.9,505.4-122.7z M444.7-150c-0.5-0.1-0.9-0.1-1.4-0.1c1-5.3,2-10.5,3.1-15.8
			C445.8-160.6,445.3-155.3,444.7-150z M412.3,658.9c0.8,1.5,2.9,2.2,4.9,2.1c0.1,0.5,0.2,1,0.3,1.5c-0.6,10.5-0.9,21.8-3,32.4
			c-1.7-13.9-3.3-27.8-5-41.6C410.4,655.1,411.3,657,412.3,658.9z M443.6,661.4c0-1.6,0.1-3.2,0.1-4.8c0.1-5.1,0.2-10.1,0.3-15.2
			c0.2-2.1,0.5-4.1,0.7-6.2c0.1,0,0.2,0,0.3,0c0.1,1.6,0.2,3.1,0.3,4.7c0.4,6.1,0.9,12.2,1.5,18.3c-0.2,1.2-0.4,2.5-0.7,3.7
			C445.4,661.6,444.5,661.4,443.6,661.4z M460.5,652c-0.1-1.1-0.5-1.9-1.2-2.6c0.9-4.8,1.9-9.6,2.8-14.3c1.1,3.3,2.3,6.6,3.4,10
			c-1.3,6.8-2.5,13.6-3.8,20.3C461.3,660.9,460.9,656.5,460.5,652z M560.4,696.8c0-0.1,0-0.2-0.1-0.2c0,0,0.1,0,0.1,0
			C560.4,696.6,560.4,696.7,560.4,696.8z M604.5,641.5c-0.2-0.9-0.4-1.7-0.6-2.6c0.4-4.6,0.7-9.3,1.1-13.9c0.4,1.2,0.9,2.3,1.3,3.5
			c0.4,2.6,0.7,5.2,1.1,7.9c-0.2,4.7-0.4,9.5-0.6,14.2C606,647.3,605.1,644.2,604.5,641.5z M642.7,631.9c1.5,5.1,2.9,10.2,4.4,15.3
			c-1.4-3.4-2.8-6.7-4.2-10.1C642.8,635.4,642.7,633.6,642.7,631.9z M749.5,664c2,6,4,12.1,6,18.1c-2.1-5.2-4.3-10.4-6.3-15.6
			C749.3,665.6,749.4,664.8,749.5,664z M814.1,634.2c1-0.4,1.8-1.1,2.3-2c3,11.5,6.1,23,9.1,34.5c-4.1-9.5-8.2-18.9-12.3-28.4
			C813.5,636.9,813.8,635.6,814.1,634.2z M874,608.4c0.1,0.6,0.2,1.1,0.3,1.7c-0.3-0.1-0.5-0.2-0.8-0.2
			C873.7,609.3,873.9,608.8,874,608.4z M1152.5,607c1.1,2.2,2.3,4.3,3.5,6.5c1.2,5.8,2.4,11.6,3.8,17.4c1.8,11.8,3.6,23.7,5.5,35.5
			c-5.2-18.2-9.7-36.5-13.6-55.1C1151.9,609.8,1152.2,608.4,1152.5,607z M1315.5,669.9c-0.1-3.3-3.6-4.8-6.6-4.2
			c-0.8-4.3-1.7-8.5-2.7-12.8c1.2,0.3,2.4,0.3,3.4,0c2.8,7.6,5.6,15.1,8.4,22.7c-0.7,1.6-1.4,3.3-2.1,4.9
			C1315.7,677.1,1315.6,673.5,1315.5,669.9z M1554.8,624.9c0.5-4.4,1-8.9,1.5-13.3c4.9,9.4,8.7,19.4,12,29.5c0,0.4-0.1,0.7-0.1,1.1
			c-0.9,12.1-1.9,24.3-2,36.4c-3.3-13.7-6.9-27.4-10.7-41C1555,633.4,1554.8,629.1,1554.8,624.9z M1615.4,652.2
			c0.5,0.1,0.9,0.1,1.4,0.1c-1,5.3-2,10.5-3.1,15.8C1614.3,662.8,1614.9,657.5,1615.4,652.2z M1695.9-20.3c1,17.8,1.8,35.7,2.4,53.5
			c-2.6,0.1-5.1,1.5-5.1,4.3c-0.9,31.9-1.1,63.7-0.8,95.6c-2.1-50-4.3-100-6.4-149.9c-0.1-1.4-0.7-2.4-1.6-3.1
			c2.2-14.4,4.5-28.7,6.7-43.1c2,3.4,2.6,8.3,2.9,11.6C1695-41.1,1695.4-30.7,1695.9-20.3z M1583.5-266c0.4-4.5,0.9-9.1,1.4-13.6
			c3.2,22.2,5.9,44.5,8.3,66.8c-2.1,4-4,8.1-5.7,12.3c-1.2-0.2-2.5-0.2-3.7,0.2c-0.6-6.9-1.5-13.8-2.9-20.6c0.1-3.2,0.2-6.3,0.3-9.5
			C1581.7-242.3,1582.5-254.2,1583.5-266z M1415.3-178.2c0.2,0.7,0.4,1.3,0.5,2c0.1,3.8,0.3,7.6,0.4,11.4c-0.6-1.5-1.2-3-1.9-4.5
			C1414.7-172.2,1415-175.2,1415.3-178.2z M1372.3-197.2c-1.4,0.7-2.4,1.9-2.6,3.6c-0.3,4.2-0.6,8.4-0.9,12.6
			c-4.5-16.2-8.5-32.5-12.1-48.9C1362-219,1367.2-208.1,1372.3-197.2z M1356.7-172.4c-1.3,5.5-2.5,11-3.4,16.5
			c-1.7-5.5-3.3-11.1-4.9-16.7c0.1-2.7,0.3-5.3,0.4-8c0.1-2.4-1.7-3.8-3.9-4.2c-4.9-17.4-9.5-34.8-13.9-52.3
			C1339.8-215.6,1348.4-194,1356.7-172.4z M1274.8-247.1c5.7,11.9,11.2,23.9,16.5,36c-3.5-0.9-8.1,1.1-6.9,5.2
			c2.9,10.3,5.9,20.7,8.8,31c-0.7-1.8-1.3-3.5-2-5.3c-5.3-13.8-10.6-27.5-16-41.2C1274.5-230,1274.3-238.6,1274.8-247.1z
			 M1260.9-163.8c2.2,7.5,4.5,14.9,7,22.3c-2.1-5.6-4.2-11.2-6.3-16.8c-0.6-3-1.2-6-1.9-9C1260.1-166.2,1260.5-165,1260.9-163.8z
			 M1246.3-169.1c1.7,4.3,3.3,8.7,5,13c0.5,2.3,1,4.6,1.4,6.9c-9.5-21.8-18.9-43.5-28.4-65.3
			C1235.7-202.5,1240.7-183.4,1246.3-169.1z M1226-92c0.3,1.2,1.1,2,2.1,2.5c-0.6,9.3-1.2,18.6-1.8,27.9c-1.5-4.8-3-9.6-4.5-14.4
			c-7.1-30.3-13.8-60.8-19.9-91.3C1210.9-142.5,1218.9-117.4,1226-92z M1187.6-112.8c5,24.6,10,49.1,14.8,73.7
			c-0.8-0.2-1.6-0.3-2.4-0.2c-3.5-10.3-7-20.6-10.5-30.8c1.8-0.9,3-2.5,2.6-4.8c-3.8-19.9-7.5-39.9-11.3-59.8
			C1183-127.5,1185.3-120.2,1187.6-112.8z M1046.5-216.8c3.6,7.8,4.9,17,7,25.3c1,3.9,1.9,7.8,2.8,11.6c-0.6-0.3-1.2-0.6-1.9-0.7
			c-1.9-3.2-8.3-3.2-9.9,0.8c-0.7,1.7-1.5,3.5-2.2,5.2c-1,0.8-1.7,1.8-1.6,3c0,0.2,0.1,0.4,0.1,0.5c-0.6,1.3-1.1,2.7-1.7,4
			c0-11.8-0.2-23.6-0.7-35.5c-0.1-2.7-2.3-4.1-4.7-4.3c0.4-7.3,0.9-14.6,1.3-21.9C1039.8-229.6,1045-220,1046.5-216.8z M991.2-190.5
			c0.9-3.6,3.3-18.7,8.6-22.1c0.5,2.2,1,4.5,1.4,6.7c-2.9,0.2-5.6,2.2-5,5.5c1.2,6.3,2.3,12.7,3.5,19c-2,5.6-3.9,11.2-5.8,16.9
			c-0.5-2.3-1-4.6-1.5-6.9c-0.5-2.4-2.9-3.4-5.2-3.2C988.5-179.9,989.8-185.2,991.2-190.5z M944-209c-0.7,6.3-1.2,12.6-1.7,18.9
			c0,0.5-0.1,0.9-0.1,1.4c-2.1-0.7-4.7-0.4-6.3,0.9c0.3-2.2,0.6-4.3,0.9-6.5c0.3-2.2-1.3-3.6-3.4-4.1C936.8-202,940.4-205.5,944-209
			z M809.3-142.3c-0.3,1.7-0.6,3.5-0.9,5.2c0-1.3,0-2.6-0.1-3.9C808.6-141.5,809-141.9,809.3-142.3z M778.2-172.5
			c-0.3,0.5-0.5,1-0.5,1.5c-2.8,23.1-5.5,46.2-8.3,69.4c-0.1-1-0.2-2-0.3-3c-0.3-10.2-0.6-20.4-0.8-30.6c-0.1-9.9-0.3-19.9-0.6-29.8
			c-0.1-5.7-10.8-5.8-10.7,0c0.1,5.3,0.2,10.6,0.3,15.8c-2.6-2.5-8.5-3-9.4,1.3c-0.1,0.3-0.1,0.6-0.2,0.8c-0.6-4-1.3-8-1.9-12
			c-0.6-3.8-5.8-5.1-8.7-3.7c2.7-5.2,5.1-10.4,7.3-15.8c0.1,3.6,0.2,7.1,0.3,10.7c0.2,4.8,7.5,5.7,10,2.2
			c8.9-12.5,17.1-25.5,24.5-38.9C778.8-193.8,778.5-183.2,778.2-172.5z M727.6-211.9c0.3-1.2,0.7-2.9,1.3-4.6c-1.2,18-2.4,36-3.6,54
			c-1.4,2.5-2.8,5-4.2,7.4c-0.7-5.1-1.3-10.1-2-15.2c1.4-6.9,2.8-13.9,4.2-20.8C724.7-198,725.9-205,727.6-211.9z M660.9-154
			c-0.8,8.2-1.7,16.4-2.5,24.6c-1.6,3.8-3,7.8-4.2,11.8c0-4.1,0-8.2-0.1-12.2C656.3-137.9,658.6-145.9,660.9-154z M565.6-172.6
			c-0.4-1.8-0.8-3.5-1.2-5.3c0-0.5-0.1-1-0.1-1.5C564.7-177.1,565.1-174.8,565.6-172.6z M424.6-152.7c-0.8-2.1-1.7-4.3-2.5-6.4
			c-0.4-1-1.2-1.7-2.3-2.3c-1.1-3.5-2.1-7-3.2-10.5c-0.3-4.4-0.6-8.9-0.9-13.3c-0.1-0.9-0.4-1.7-1-2.4c-0.2-4.8-0.4-9.7-0.6-14.5
			c3.9,12,7.8,24,11.7,36C425.5-161.6,425-157.1,424.6-152.7z M361.8,469c2.6-0.1,5.1-1.5,5.1-4.3c0.9-31.9,1.1-63.7,0.8-95.6
			c2.1,50,4.3,100,6.4,149.9c0.1,1.4,0.7,2.4,1.6,3.1c-2.2,14.4-4.5,28.7-6.7,43.1c-2-3.4-2.6-8.3-2.9-11.6
			c-1-10.3-1.4-20.8-1.9-31.2C363.2,504.7,362.4,486.8,361.8,469z M372.7,577.9c1.4,0.1,2.8-0.3,3.8-1c-1.5,7.3-3.1,14.7-4.6,22
			c0.3-6.7,0.5-13.5,0.8-20.2C372.8,578.4,372.8,578.1,372.7,577.9z M364.9,731.2c0.3-3.7,0.7-7.4,1.1-11.1
			c0.3,4.2,0.5,8.4,0.8,12.6C366.3,732.1,365.7,731.5,364.9,731.2z M476.6,768.2c-0.4,4.5-0.9,9.1-1.4,13.6
			c-3.8-26.2-6.8-52.6-9.6-78.9c2.3-12.6,4.7-25.2,7-37.7c1.1,3.2,2.3,6.5,3.5,9.7c-1.1,16.2-0.1,32.4,3.1,48.3
			c-0.1,3.2-0.2,6.3-0.3,9.5C478.4,744.5,477.7,756.4,476.6,768.2z M644.9,680.4c-0.2-0.7-0.4-1.3-0.5-2c-0.1-3.8-0.3-7.6-0.4-11.4
			c0.6,1.5,1.2,3,1.9,4.5C645.5,674.4,645.2,677.4,644.9,680.4z M687.9,699.4c1.4-0.7,2.4-1.9,2.6-3.6c0.3-4.2,0.6-8.4,0.9-12.6
			c4.5,16.2,8.5,32.5,12.1,48.9C698.1,721.2,693,710.3,687.9,699.4z M703.4,674.6c1.3-5.5,2.5-11,3.4-16.5
			c1.7,5.5,3.3,11.1,4.9,16.7c-0.1,2.7-0.3,5.3-0.4,8c-0.1,2.4,1.7,3.8,3.9,4.2c4.9,17.4,9.5,34.8,13.9,52.3
			C720.4,717.8,711.8,696.2,703.4,674.6z M785.3,749.3c-5.7-11.9-11.2-23.9-16.5-36c3.5,0.9,8.1-1.1,6.9-5.2
			c-2.9-10.3-5.9-20.7-8.8-31c0.7,1.8,1.3,3.5,2,5.3c5.3,13.8,10.6,27.5,16,41.2C785.6,732.2,785.8,740.8,785.3,749.3z M799.2,666
			c-2.1-6.9-4.2-13.8-6.5-20.6c0,0,0,0,0.1,0c1.9,5.1,3.8,10.1,5.7,15.2c0.6,3,1.2,6,1.9,9C800,668.3,799.6,667.2,799.2,666z
			 M813.9,671.2c-1.7-4.3-3.3-8.7-5-13c-0.3-1.4-0.6-2.8-0.9-4.2c0.1-0.2,0.3-0.4,0.4-0.6c9.2,21.1,18.3,42.1,27.5,63.2
			C824.5,704.7,819.4,685.6,813.9,671.2z M849.4,644.1c1.1,0.7,2.5,1.1,3.8,1c1.7,8.1,3.4,16.3,5,24.5
			C855.2,661.1,852.2,652.6,849.4,644.1z M874.4,620.8c0.5-0.8,1-1.7,1.5-2.6c1.2,6.2,2.3,12.5,3.5,18.7
			C877.7,631.6,876.1,626.2,874.4,620.8z M1013.7,719c-3.6-7.8-4.9-17-7-25.3c-1-3.9-1.9-7.8-2.8-11.6c3,1.8,8.4,0.2,8.7-3.7
			c1-0.1,2-0.2,3-0.5c0.4-0.1,0.8-0.2,1.1-0.4c2.9,13.4,5.9,26.7,9.2,40c-0.3,4.4-0.5,8.9-0.8,13.3
			C1020.3,731.8,1015.1,722.2,1013.7,719z M1124.6,666.4c1.8,11.2,3.7,22.4,5.5,33.6c-1.2-4.3-2.5-8.6-3.7-12.9
			C1125.8,680.2,1125.2,673.3,1124.6,666.4z M1267.3,734c-1-5.9-2.1-11.7-3.3-17.6c0.8-0.7,1.3-1.7,1.3-2.9c0-1.2-0.1-2.4-0.1-3.5
			c1.7,5.7,3.6,11.4,5.4,17.1C1269.4,729.4,1268.3,731.7,1267.3,734z M1281.1,702.2c0-0.3,0-0.6,0-1c0.4,0.9,0.9,1.9,1.3,2.8
			c-0.2,0.4-0.4,0.7-0.6,1.1C1281.6,704.1,1281.4,703.1,1281.1,702.2z M1417,714.8c0-3,0-6.1,0.1-9.1c0.5,1.3,0.9,2.6,1.4,4
			C1418,711.4,1417.5,713.1,1417,714.8z M1494.6,674.8c0.4,1.8,0.8,3.5,1.2,5.3c0,0.5,0.1,1,0.1,1.5
			C1495.5,679.3,1495,677,1494.6,674.8z M1635.5,654.9c0.8,2.1,1.7,4.3,2.5,6.4c0.4,1,1.2,1.7,2.3,2.3c1.1,3.5,2.1,7,3.2,10.5
			c0.3,4.4,0.6,8.9,0.9,13.3c0.1,0.9,0.4,1.7,1,2.4c0.2,4.8,0.4,9.7,0.6,14.5c-3.9-12-7.8-24-11.7-36
			C1634.7,663.8,1635.1,659.3,1635.5,654.9z"/>
		<path id="XMLID_61_" class="st1" d="M1705.2,281c6.7,0,6.8-8.7,0-8.7C1698.5,272.3,1698.5,281,1705.2,281z"/>
	</g>
</g>
</svg>
