<?xml version="1.0" encoding="utf-8"?>
<!-- Generator: Adobe Illustrator 19.0.0, SVG Export Plug-In . SVG Version: 6.00 Build 0)  -->
<svg version="1.1" id="Layer_1" xmlns="http://www.w3.org/2000/svg" xmlns:xlink="http://www.w3.org/1999/xlink" x="0px" y="0px"
	 viewBox="390 -137 1280 775" style="enable-background:new 390 -137 1280 775;" xml:space="preserve">
<style type="text/css">
	.st0{clip-path:url(#XMLID_4_);}
	.st1{fill:#00A78D;}
</style>
<g id="XMLID_19_">
	<defs>
		<rect id="XMLID_18_" x="389.8" y="-136.1" width="1279.6" height="775"/>
	</defs>
	<clipPath id="XMLID_4_">
		<use xlink:href="#XMLID_18_"  style="overflow:visible;"/>
	</clipPath>
	<g id="XMLID_2_" class="st0">
		<path id="XMLID_3_" class="st1" d="M354.8,221.2c-6.7,0-6.8,8.7,0,8.7C361.5,229.9,361.5,221.2,354.8,221.2z"/>
		<path id="XMLID_65_" class="st1" d="M1732.2,174.5c-0.2-2.5-2.2-3.9-4.4-4.2c-1-32.1-2.8-64.2-5.5-96.3c-0.5-5.9-9.8-5.5-10.7,0
			c-0.5,3-1,6-1.4,9c-0.6-37.3-2-74.6-4.2-111.8c-0.8-14,1.8-43.7-17.7-46.8c-3.2-0.5-6.3,0.8-6.8,4.2c-2.1,13.2-4.1,26.4-6.2,39.7
			c-0.3-8.5-0.6-17-0.9-25.5c0-0.8-0.3-1.5-0.7-2.1c0.1-0.3,0.3-0.6,0.4-0.8c1-2.3-0.3-4-2.2-4.8c0.2-10.1,0.3-20.3,0.4-30.4
			c2.6,2.9,9.2,1.9,9.8-2.7c2.3-19.6,4.1-39.3,5.7-59c2.2,3.6,9.4,2.8,10.1-2c2.9-21.1,5.4-42.3,7.4-63.5c1.1-0.5,2-1.4,2.3-2.8
			c2.1-9.3,2.1-18.3,0.1-27.6c-1.1-5.1-10.2-3.8-10.5,1.2c-0.1,1.8-0.3,3.5-0.4,5.3c-1,0.7-1.8,1.8-2,3.2c-0.5,3.2-1.1,6.4-1.6,9.7
			c-0.2-3.5-0.5-7.1-0.7-10.6c-0.4-5.7-10.6-5.8-10.7,0c-0.4,15.2-1.1,30.5-1.9,45.7c-0.5-23.4-1.1-46.9-1.6-70.3
			c-0.1-5.7-10.7-5.8-10.7,0c-0.2,25.2-0.7,50.4-1.6,75.7c-0.3-2.9-0.6-5.7-1-8.6c-0.6-4.8-7.9-5.7-10.1-2.2
			c-0.4-3.6-0.9-7.3-1.3-10.9c-0.5-4.4-7.6-6.2-10-2.2c-9.8,16.2-10.2,35.4-11.6,53.7c-0.1,0.8-0.1,1.6-0.2,2.5
			c-0.2,0.7-0.4,1.5-0.6,2.2c-0.3-4.1-0.6-8.2-0.8-12.3c-0.1-2-1.3-3.2-2.9-3.8c0.5-16.5,1.1-33.1,1.8-49.6
			c1.3-29.7,3-59.4,5.1-89.1c0.4-5.8-10.1-5.7-10.7,0c-2.1,18.9-4.2,37.9-6.5,56.8c-0.8-16.8-1.7-33.7-2.5-50.5
			c-0.3-5.7-10.8-5.8-10.7,0c0.2,27.1-0.1,54.3-0.9,81.4c-0.2,0-0.4,0.1-0.7,0.1c-2.9-25.1-6.1-50.2-10.1-75.2
			c-0.6-3.6-4.8-5.6-8.1-3.8c-9.1,5-9.1,15.8-10.2,25.1c-0.1,0.8-0.2,1.5-0.2,2.3c-2.6-2.4-9.1-1.4-9.7,3
			c-1.7,12.6-3.5,25.2-5.2,37.8c-0.5,1.9-1,3.7-1.4,5.6c-2.9,0.3-5.5,2.2-4.5,5.4c0.6,2,1.2,3.9,1.9,5.9c-0.8,3.8-1.6,7.6-2.2,11.4
			c-0.1,0.3-0.2,0.7-0.2,1c-1.3-4.4-2.8-8.7-4.5-12.9c-1.8-4.5-10.3-4.2-10.5,1.2c-0.2,3.5-0.3,7-0.4,10.5c-1.6-0.6-3.4-0.6-4.9,0
			c0.3-11.1,0.5-22.2,0.5-33.4c0-5.1-9.4-6-10.5-1.2c-3.7,16.3-7.3,32.7-10.8,49c-0.4-1-0.8-2.1-1.2-3.1c-1.6-3.9-7.8-3.9-9.9-1
			c2-17.9,3.9-35.7,5.9-53.6c0.6-5.7-9.9-5.6-10.7,0c-3.5,22.3-6.7,44.7-9.5,67.2c-1.9-5.1-3.7-10.3-5.5-15.4c-1.1-3-5-3.7-7.7-2.6
			c0.4-9.8,0.9-19.5,1.3-29.3c0.3-5.7-10.3-5.7-10.7,0c-1.3,19.3-2.7,38.5-4.1,57.8c-1.6,0.1-3.2,0.8-4.2,2.1
			c-0.2,0.3-0.4,0.5-0.5,0.8c0.7-17.2,1.4-34.4,2.2-51.7c0.2-5.8-10.2-5.7-10.7,0c-0.6,6-1.2,12-1.7,18c-2.9-2.2-8.7-1.1-9.1,3.2
			c-0.4,4.1-0.8,8.1-1.2,12.2c-2,0.4-3.7,1.7-4,3.7c-1.3-3-2.6-6-3.8-9.1c-0.3-8-0.6-16-0.8-24.1c-0.1-4.2-6.3-5.6-9.2-3.1
			c-0.8,0.7-1.5,1.5-2.2,2.4c-3.6-1.7-9,0.1-7.8,4.8c0.7,2.7,1.3,5.3,2,8c-1.2,5.4-1.5,11.2-2,16.7c0,0.1,0,0.1,0,0.2
			c-3.2-7.8-6.5-15.6-9.7-23.4c0-0.8,0-1.6,0-2.3c0-1.7-1-2.9-2.4-3.6c-1.8-4.3-3.6-8.7-5.4-13c-2.1-5-12-3.6-10.3,2.3
			c1.6,5.5,3.1,11,4.7,16.5c-1.4,2.2-2.3,4.7-3.1,7.3c-9.7-20.7-19.8-41.2-30.2-61.6c-2.5-4.8-11.4-3.9-10.3,2.3
			c2.3,13.2,4.9,26.4,7.8,39.5c-9.6-23.6-19.4-47.1-29.6-70.5c-2.2-5-11.6-3.7-10.3,2.3c4.3,20.2,9,40.3,14,60.3
			c-3.5-2.1-9.8-0.2-8.5,4.6c5.2,18.6,10.6,37.2,16.3,55.7c-2.3,0.1-4.5,1.3-5.1,3.5c0.1-2.7,0.2-5.4,0.2-8.1
			c0.1-4.3-5.3-5.3-8.5-3.3c-0.5-1.2-1-2.4-1.5-3.6c-11.4-27.5-23.8-54.6-36.9-81.4c-1.7-3.4-9.4-5-10.3,0
			c-1.1,5.9-1.8,11.9-2.1,17.8c-1.8-4.4-3.5-8.9-5.3-13.3c-2-5.1-12.3-3.5-10.3,2.3c5.7,17.1,11.5,34.1,17.2,51.2
			c0.7,5.8,1.6,11.6,2.7,17.3c-4.5-13.9-9.1-27.7-14.1-41.4c-1.4-4-7.4-4-9.6-1.2c-3.3-2.7-10-1-9,4.2c1.4,6.7,2.8,13.4,4.2,20
			c-5.1-8.2-11.6-15.2-20.5-19.6c-0.6-0.3-1.3-0.4-2.1-0.5c-0.2-0.4-0.4-0.9-0.6-1.3c-2-4.6-10.5-3.8-10.5,1c-0.1-0.3-0.2-0.6-0.4-1
			c-2-5.2-11.5-3.7-10.3,2.3c1.9,10.5,4,20.9,6.1,31.3c-3.4-8.6-6.8-17.1-10.4-25.5c-2.2-5.1-11.4-3.7-10.3,2.3
			c2.3,13.2,4.8,26.3,7.3,39.5c-4.1-12.8-8.3-25.7-12.5-38.5c-1.6-4.8-9.6-3.9-10.4,0.6c-0.5-1.7-1.1-3.5-1.6-5.2
			c-1.7-5.4-11.5-3.6-10.3,2.3c2.7,14.2,5.4,28.5,8,42.7c-2.8-9.5-5.6-19.1-8.3-28.6c-1.3-4.6-11.3-4-10.5,1.2
			c0.5,3.5,1.1,7.1,1.6,10.6c-0.7-0.7-1.6-1.2-2.5-1.4c-2.4-5.7-4.8-11.5-7.3-17.2c-2.2-5-12-3.7-10.3,2.3
			c2.4,8.3,4.7,16.6,7.1,24.8c-2.4-7.6-4.8-15.1-7.2-22.7c-1.7-5.4-11.3-3.6-10.3,2.3c1.5,8.5,3,17.1,4.6,25.6
			c-3.7-9.4-7.5-18.7-11.5-27.9c-1.8-4.1-8.7-4-10.2-0.4c-0.2-0.8-0.5-1.5-0.7-2.3c-0.6-2.1-3.2-3.2-5.2-3.2c-0.7,0-1.3,0-1.9,0.1
			c-0.9-2.5-1.9-5-2.8-7.4c-2-5.2-11.6-3.7-10.3,2.3c0.8,3.7,1.6,7.4,2.3,11.1c-0.7,0.9-1.4,1.9-1.9,3c-0.8-2.3-1.7-4.7-2.5-7
			c-1.9-5.2-11.9-3.6-10.3,2.3c3.2,11.7,6.3,23.5,9.5,35.2c0,0.5,0.1,0.9,0.1,1.4c-1.1-1.4-3-1.9-4.9-1.8c-0.1-0.4-0.2-0.7-0.3-1.1
			c0-0.1-0.1-0.3-0.1-0.4c-0.9-3.8-1.8-7.6-2.7-11.4c-3.6-15-5.6-34.5-19.3-44.2c-4.9-3.5-11.2-4.7-16.8-1.8c-3.8,1.9-4.2,4-4.5,8
			c-0.3,5.3-0.7,10.7-1,16c-0.1,1.9-0.2,3.7-0.3,5.6c-0.6-1.5-1.3-3.1-2.1-4.6c-1.8-3.8-8-4.4-10.1-0.6c-0.5-2.4-1-4.8-1.6-7.1
			c-0.4-1.6-2.3-2.7-3.7-3c-9.7-1.9-16.3,4.5-20.1,12.8c-2.4,5.2-3.4,11-4.8,16.6c-4.4-22.4-9.1-44.8-14.2-67
			c-1.1-4.8-8.8-3.7-10.3,0c-4.9,11.2-7.9,23-10,35c-4.3,3.9-8.5,7.9-12.6,11.9c0.4-2.2,0.8-4.3,1.2-6.5c1.1-5.9-9-7.8-10.3-2.3
			c-0.5,1.9-0.9,3.8-1.4,5.6c-0.4-4.4-9.2-4.5-10.6-0.3c-2.3,7-4.5,14-6.7,21c0.4-3.4,0.9-6.7,1.3-10.1c0.5-3.7-4.3-5-7.6-3.9
			c0.8-5.1,1.7-10.2,2.5-15.3c0.8-5.2-9.1-5.7-10.5-1.2c-0.3,1.1-0.7,2.2-1,3.2c0.2-1.4,0.5-2.8,0.7-4.2c0.9-5.4-8.8-5.3-10.5-1.2
			c-0.5,1.3-1,2.5-1.5,3.8c-0.3,0.4-0.6,0.9-0.8,1.5c-0.2,0.6-0.3,1.1-0.5,1.7c-5.7,15.1-10,30.7-12.9,46.6
			c-0.5,2.8,1.4,4.6,3.8,5.3c-0.8,7.4-1.5,14.8-1.9,22.3c-1.3,0.3-2.4,0.9-3.1,2c-0.7,1.2-1.3,2.4-1.9,3.7c-0.2-1.2-0.4-2.4-0.6-3.5
			c-1.3-7.8-2.9-16.3-5.7-24.2c-0.6-12.3-1.4-24.5-2.3-36.7c-0.4-5.7-10.9-5.8-10.7,0c0.1,4.6,0.3,9.2,0.4,13.8c-0.1-1-0.3-2-0.4-3
			c-0.5-3.3-4.2-4.8-7.2-4.1c-2.1-3.7-10.2-3.1-10.2,1.9c0,3.5,0.1,7,0.1,10.5c-1.5,2.5-2.9,5-4.1,7.6c0-1.7,0-3.4-0.1-5
			c-0.1-5.7-10.5-5.7-10.7,0c-0.3,8.8-0.5,17.6-0.5,26.5c-0.5,0.5-1,1-1.5,1.4c-0.2-16-0.5-32-0.7-48c-0.1-5-9.4-6.1-10.5-1.2
			c-1.6,7.4-3.3,14.8-4.9,22.2c-0.1-1-0.1-2-0.2-3.1c-0.1-1.7-1-2.8-2.3-3.5c0.2-6.2,0.4-12.3,0.6-18.5c0.1-3.4-3.7-4.8-6.8-4.1
			c9.6-18.3,17.8-37.4,24.4-57.1c1.9-5.7-8.6-7.6-10.3-2.3c-10.4,30.8-24.6,60.1-42.3,87.4c-0.3-8.1-0.5-16.2-0.8-24.3
			c-0.2-5.1-9.3-6-10.5-1.2c-1.6,6.3-3.6,12.5-5.7,18.6c0.8-12.5,1.7-25,2.5-37.5c0.2-2.6-3.1-4.5-5.4-4.4c-6.1,0.4-10.2,3.3-13,7.4
			c0.9-6,1.9-12,2.8-17.9c0.7-4.4-7-5.6-9.7-2.8c-2.7-2-8.5-1.6-9.2,2c-0.1,0.5-0.2,1-0.3,1.5c-3-0.5-6.4,0.8-6.2,4.1
			c0.4,6.1,0.9,12.2,1.3,18.4c-0.2,0.9-0.4,1.8-0.6,2.7c-1,0.6-1.9,1.5-2.3,2.5c-0.5,1.4-0.9,2.7-1.4,4.1c-2.9-1.6-8.1-1-8.6,2.3
			c-1.2,7.1-2.4,14.3-3.6,21.4c-2.9-0.9-6.8,0-7.5,2.8c-1,3.9-2.1,7.8-3.1,11.7c1.4-14.1,2.9-28.1,4.3-42.2
			c0.5-5.2-9.2-5.8-10.5-1.2c-4.6,16.4-9.3,32.8-13.9,49.3c-0.2-5.7-0.3-11.5-0.5-17.2c1.3-19.8,1.5-39.6-0.5-59.6
			c-0.5-5-8.9-6.1-10.5-1.2c-5.9,18.2-11.2,36.5-16.2,54.9c1-10.1,2-20.1,2.9-30.2c0.5-5.1-7.7-5.2-10-2.2
			c-3.3,4.4-5.8,9.2-7.7,14.2c-0.5-0.3-1.1-0.6-1.7-0.8c-2.6-1.1-6.9-0.6-7.9,2.6c-0.7,2.1-1.3,4.3-1.9,6.5
			c-0.1-0.3-0.2-0.5-0.2-0.8c-1.3-4.6-11.4-4-10.5,1.2c1.7,10.6,2.1,21.2,1.2,31.7c-0.7-2.3-1.4-4.5-2-6.8c-0.2-2.6-0.5-5.2-0.7-7.8
			c-0.1-1.6-1.1-2.7-2.3-3.4c-0.2-0.9-0.5-1.7-0.7-2.6c-1.4-8.4-3.2-16.8-5.2-25.1c-1.1-4.3-7.6-4-9.7-0.8c-2-3.9-11-3.1-10.3,1.8
			c0.2,1.6,0.5,3.3,0.8,4.9c-0.7-2.7-1.5-5.5-2.3-8.2c-1.4-4.5-11.4-4-10.5,1.2c0.1,0.4,0.1,0.8,0.2,1.2c0,0,0,0,0,0c0,0,0,0,0,0
			c1.4,8.7,3,17.4,4.8,26.1c-2.9-2.3-8.6-1.3-9.1,3.1c-0.1,0.7-0.2,1.4-0.2,2.1c-1-7.4-2.2-14.7-3.6-22.1c-0.2-1.3-1-2.2-2-2.7
			c-0.1-1.6-0.2-3.2-0.3-4.7c-0.4-5.2-8.1-5.6-10.2-1.6c-0.5-1.8-1-3.5-1.5-5.3c-1.5-5.4-11.7-3.6-10.3,2.3
			c2.4,10.3,5.2,20.5,8.4,30.6c0,0.1,0,0.1,0,0.2c-0.2,1.6-0.3,3.2-0.5,4.8c-0.3-0.1-0.5-0.2-0.8-0.3c-3-12.7-6.2-25.4-9.9-37.9
			c-1.3-4.6-11.2-4-10.5,1.2c2.5,19,6.1,37.9,10.8,56.4c0,0.3-0.1,0.6-0.1,0.8c-3.8-18.9-9.7-37.6-15.6-55.9
			c-1.7-5.3-11.5-3.6-10.3,2.3c0.2,0.9,0.4,1.7,0.5,2.6c-0.9,0.1-1.8,0.4-2.6,0.8c0-0.6-0.1-1.2-0.1-1.8c-0.1-2.5-2-3.9-4.2-4.2
			c0.7-10.1,1.4-20.1,2.1-30.2c0.4-5.8-10-5.6-10.7,0c-0.3,2.2-0.6,4.5-0.9,6.7c0.1-2.1,0.2-4.2,0.4-6.2c0.4-7.2-0.3-14.5-6.2-19.3
			c-2.4-1.9-8.2-1.8-9,1.9c-1.9,9-3.7,18-5.5,27c3.4-27.5,6.8-54.9,10.2-82.4c2.7-22.3,5.5-44.5,8.2-66.8c0.7-5.6-10-5.7-10.7,0
			c-7.1,57.3-14.2,114.7-21.2,172c-2.8-0.2-5.8,1.2-6.1,4.3c-0.5,5.6-1,11.1-1.6,16.7c-5.5-16.8-10.9-33.7-16.4-50.5
			c-1.5-4.5-10.8-4.2-10.5,1.2c0.8,15.7,1.7,31.3,2.3,47c-2.3,0.7-4.1,2.5-3.5,5.2c1,4.4,1.9,8.8,2.9,13.1
			c-1.3,5.8-2.5,11.6-3.8,17.4c0.6-13.5,0.6-27,0.2-40.5c-0.2-5.7-10.9-5.7-10.7,0c0.2,5.7,0.3,11.3,0.3,17c-1.8-1.9-5.5-2-7.7-0.4
			c-0.5-12.7-1.1-25.4-1.6-38c-0.2-5.8-10.3-5.7-10.7,0c-0.5,6.5-1,12.9-1.6,19.4c-1.2,7.5-2.2,15-3,22.5c-0.8,0.9-1.2,2.2-0.8,3.7
			c0.1,0.3,0.2,0.7,0.3,1c-0.5,5.3-0.9,10.6-1.3,15.9c-1.9-2.4-3.9-4.7-6.1-6.8c-3.1-3-10.3-0.5-9,4.2c5.9,21.6,11.8,43.3,17.5,65
			c0.1,10.4,0.5,20.7,1.2,31.1c0.3,3.9,4.8,5.1,7.9,3.8c0.3,1,0.5,2.1,0.8,3.1c-3.1-1-7.6,0.6-7.8,4.1c-0.1,1.4-0.1,2.7-0.2,4.1
			c-0.1-0.2-0.2-0.5-0.3-0.7c-2.1-5.1-11.6-3.7-10.3,2.3c1.4,7.1,2.9,14.2,4.5,21.3c-1.5,0.6-2.7,1.9-2.8,3.9
			c-0.5,9.8-0.8,19.6-1.1,29.5c-2.4,0.3-4.7,1.9-4.9,4.3c-1.2,16.7-2,33.4-2.4,50.1c-1.2,0.7-2,1.9-2,3.3
			c-0.4,16.7-0.9,33.4-1.3,50.1c0,0.9,0.2,1.6,0.6,2.3c-2.5,0.6-4.5,2.5-3.8,5.3c2.8,11.8,5.6,23.6,8.4,35.4
			c0.8,12.3,1.8,24.6,3,36.9c0.3,3.5,3.8,4.8,6.8,4.1c1.4,5.8,2.8,11.7,4.2,17.5c-0.8,12.8-1.4,25.6-1.6,38.4c0,0.1-0.1,0.1-0.1,0.2
			c-0.2-3.5-0.4-7.1-0.6-10.6c-0.4-5.8-10.2-5.7-10.7,0c-0.8,8.6-1.6,17.2-2.4,25.7c-1.1-21.5-2.9-43-5.3-64.4
			c-0.5-4.7-9.5-6.4-10.5-1.2c-7.9,40.8-10.2,82.5-6.3,123.9c0.2,2.5,2.2,3.9,4.4,4.2c1,32.1,2.8,64.2,5.5,96.3
			c0.5,5.9,9.8,5.5,10.7,0c0.5-3,1-6,1.4-9c0.6,37.3,2,74.6,4.2,111.8c0.7,12.1-1.1,35.6,10.7,44c-1.4,0.7-2.5,1.9-2.7,3.6
			c-0.2,2.4-0.5,4.8-0.7,7.2c-3.1-1.1-7.6,0.2-7.8,3.9c-0.7,11.4-0.8,22.7-0.3,34.1c-0.1,17.5-0.3,35-0.4,52.5
			c0,3.5,3.8,4.9,6.9,4.1c-1.9,14.8-3.5,29.6-4.9,44.4c-1.1,0.5-2,1.4-2.3,2.8c-2.1,9.3-2.1,18.3-0.1,27.6
			c1.1,5.1,10.2,3.8,10.5-1.2c0.1-1.8,0.3-3.5,0.4-5.3c1-0.7,1.8-1.8,2-3.2c0.5-3.2,1.1-6.4,1.6-9.7c0.2,3.5,0.5,7.1,0.7,10.6
			c0.4,5.7,10.6,5.8,10.7,0c0.4-15.2,1.1-30.5,1.9-45.7c0.5,23.4,1.1,46.9,1.6,70.3c0.1,5.7,10.7,5.8,10.7,0
			c0.2-25.2,0.7-50.4,1.6-75.7c0.3,2.9,0.6,5.7,1,8.6c0.6,4.8,7.9,5.7,10.1,2.2c0.4,3.6,0.9,7.3,1.3,10.9c0.5,4.4,7.6,6.2,10,2.2
			c9.8-16.2,10.2-35.4,11.6-53.7c0.1-0.8,0.1-1.6,0.2-2.5c0.2-0.7,0.4-1.5,0.6-2.2c0.3,4.1,0.6,8.2,0.8,12.3c0.1,2,1.3,3.2,2.9,3.8
			c-0.5,16.5-1.1,33.1-1.8,49.6c-1.3,29.7-3,59.4-5.1,89.1c-0.4,5.8,10.1,5.7,10.7,0c2.1-18.9,4.2-37.9,6.5-56.8
			c0.8,16.8,1.7,33.7,2.5,50.5c0.3,5.7,10.8,5.8,10.7,0c-0.2-28.7,0.1-57.4,1-86c3,26.7,6.4,53.3,10.6,79.8c0.6,3.6,4.8,5.6,8.1,3.8
			c9.1-5,9.1-15.8,10.2-25.1c0.1-0.8,0.2-1.5,0.2-2.3c2.6,2.4,9.1,1.4,9.7-3c1.7-12.6,3.5-25.2,5.2-37.8c0.5-1.9,1-3.7,1.4-5.6
			c2.9-0.3,5.5-2.2,4.5-5.4c-0.6-2-1.2-3.9-1.9-5.9c0.8-3.8,1.6-7.6,2.2-11.4c0.1-0.3,0.2-0.7,0.2-1c1.3,4.4,2.8,8.7,4.5,12.9
			c1.8,4.5,10.3,4.2,10.5-1.2c0.2-3.5,0.3-7,0.4-10.5c1.6,0.6,3.4,0.6,4.9,0c-0.3,11.1-0.5,22.2-0.5,33.4c0,5.1,9.4,6,10.5,1.2
			c3.7-16.3,7.3-32.7,10.8-49c0.4,1,0.8,2.1,1.2,3.1c1.6,3.9,7.8,3.9,9.9,1c-2,17.9-3.9,35.7-5.9,53.6c-0.6,5.7,9.9,5.6,10.7,0
			c3.5-22.3,6.7-44.7,9.5-67.2c1.9,5.1,3.7,10.3,5.5,15.4c1.1,3,5,3.7,7.7,2.6c-0.4,9.8-0.9,19.5-1.3,29.3c-0.3,5.7,10.3,5.7,10.7,0
			c1.3-19.3,2.7-38.5,4.1-57.8c1.6-0.1,3.2-0.8,4.2-2.1c0.2-0.3,0.4-0.5,0.5-0.8c-0.7,17.2-1.4,34.4-2.2,51.7
			c-0.2,5.8,10.2,5.7,10.7,0c0.6-6,1.2-12,1.7-18c2.9,2.2,8.7,1.1,9.1-3.2c0.2-2.1,0.4-4.1,0.6-6.2c0.1-0.3,0.3-0.6,0.3-0.9
			c0.5-1.8,1-3.7,1.4-5.5c1.5-0.6,2.6-1.7,2.9-3.4c1.3,3,2.6,6,3.8,9.1c0.3,8,0.6,16,0.8,24.1c0.1,4.2,6.3,5.6,9.2,3.1
			c0.8-0.7,1.5-1.5,2.2-2.4c3.6,1.7,9-0.1,7.8-4.8c-0.7-2.7-1.3-5.3-2-8c1.2-5.4,1.5-11.2,2-16.7c0-0.1,0-0.1,0-0.2
			c3.2,7.8,6.5,15.6,9.7,23.4c0,0.8,0,1.6,0,2.3c0,1.7,1,2.9,2.4,3.6c1.8,4.3,3.6,8.7,5.4,13c2.1,5,12,3.6,10.3-2.3
			c-1.6-5.5-3.1-11-4.7-16.5c1.4-2.2,2.3-4.7,3.1-7.3c9.7,20.7,19.8,41.2,30.2,61.6c2.5,4.8,11.4,3.9,10.3-2.3
			c-2.3-13.2-4.9-26.4-7.8-39.5c9.6,23.6,19.4,47.1,29.6,70.5c2.2,5,11.6,3.7,10.3-2.3c-4.3-20.2-9-40.3-14-60.3
			c3.5,2.1,9.8,0.2,8.5-4.6c-5.2-18.6-10.6-37.2-16.3-55.7c2.3-0.1,4.5-1.3,5.1-3.5c-0.1,2.7-0.2,5.4-0.2,8.1
			c-0.1,4.3,5.3,5.3,8.5,3.3c0.5,1.2,1,2.4,1.5,3.6c11.4,27.5,23.8,54.6,36.9,81.4c1.7,3.4,9.4,5,10.3,0c1.1-5.9,1.8-11.9,2.1-17.8
			c1.8,4.4,3.5,8.9,5.3,13.3c2,5.1,12.3,3.5,10.3-2.3c-5.7-17.1-11.5-34.1-17.2-51.2c-0.7-5.8-1.6-11.6-2.7-17.3
			c4.5,13.9,9.1,27.7,14.1,41.4c1.4,4,7.4,4,9.6,1.2c3.3,2.7,10,1,9-4.2c-1.4-6.7-2.8-13.4-4.2-20c5.1,8.2,11.6,15.2,20.5,19.6
			c0.6,0.3,1.3,0.4,2.1,0.5c0.2,0.4,0.4,0.9,0.6,1.3c2,4.6,10.5,3.8,10.5-1c0.1,0.3,0.2,0.6,0.4,1c2,5.2,11.5,3.7,10.3-2.3
			c-1.9-10.5-4-20.9-6.1-31.3c3.4,8.6,6.8,17.1,10.4,25.5c2.2,5.1,11.4,3.7,10.3-2.3c-2.3-13.2-4.8-26.3-7.3-39.5
			c4.1,12.8,8.3,25.7,12.5,38.5c1.6,4.8,9.6,3.9,10.4-0.6c0.5,1.7,1.1,3.5,1.6,5.2c1.7,5.4,11.5,3.6,10.3-2.3
			c-2.7-14.2-5.4-28.5-8-42.7c2.8,9.5,5.6,19.1,8.3,28.6c1.3,4.6,11.3,4,10.5-1.2c-0.5-3.5-1.1-7.1-1.6-10.6
			c0.7,0.7,1.6,1.2,2.5,1.4c2.4,5.7,4.8,11.5,7.3,17.2c2.2,5,12,3.7,10.3-2.3c-2.4-8.3-4.7-16.6-7.1-24.8c2.4,7.6,4.8,15.1,7.2,22.7
			c1.7,5.4,11.3,3.6,10.3-2.3c-1.5-8.5-3-17.1-4.6-25.6c3.7,9.4,7.5,18.7,11.5,27.9c1.8,4.1,8.7,4,10.2,0.4c0.2,0.8,0.5,1.5,0.7,2.3
			c0.6,2.1,3.2,3.2,5.2,3.2c0.7,0,1.3,0,1.9-0.1c0.9,2.5,1.9,5,2.8,7.4c2,5.2,11.6,3.7,10.3-2.3c-0.8-3.7-1.6-7.4-2.3-11.1
			c0.7-0.9,1.4-1.9,1.9-3c0.8,2.3,1.7,4.7,2.5,7c1.9,5.2,11.9,3.6,10.3-2.3c-3.2-11.7-6.3-23.5-9.5-35.2c0-0.5-0.1-0.9-0.1-1.4
			c1.1,1.4,3,1.9,4.9,1.8c0.1,0.4,0.2,0.7,0.3,1.1c0,0.1,0.1,0.3,0.1,0.4c0.9,3.8,1.8,7.6,2.7,11.4c3.6,15,5.6,34.5,19.3,44.2
			c4.9,3.5,11.1,4.6,16.7,1.9c0.5,1.1,1.6,1.8,2.8,2.2c0.1,0.3,0.1,0.5,0.2,0.8c0.7,3.2,5.6,3.9,8.5,2.4c0.9,3.6,1.8,7.2,2.7,10.8
			c1.4,5.5,11.4,3.6,10.3-2.3c-1.3-7.5-2.7-14.9-4-22.4c0.8,3.3,1.6,6.6,2.4,9.9c1.3,5.4,11.7,3.6,10.3-2.3
			c-2.2-9.7-4.4-19.4-6.6-29.1c1.3,0.1,2.7-0.1,3.8-0.8c3.1,14.1,6.6,28.2,10.4,42.1c1.5,5.4,11.4,3.6,10.3-2.3
			c-0.6-3.6-1.3-7.3-1.9-10.9c0.5,0.6,1.3,1.1,2.1,1.5c3.1,12.7,6.4,25.4,10,38c1.5,5.4,11.6,3.6,10.3-2.3c-0.6-3.1-1.3-6.2-1.9-9.3
			c1.4-0.5,2.5-1.4,3-2.6c0.2-0.4,0.3-0.8,0.5-1.1c0.1,0.5,0.3,1,0.4,1.5c0.9,3.3,5.1,3.9,7.9,2.5c0.7,2.7,1.4,5.3,2.1,8
			c1.3,4.7,8.9,3.9,10.2-0.2c0.9,3.4,1.8,6.8,2.6,10.2c1.4,5.4,11.8,3.6,10.3-2.3c-1.9-7.7-3.8-15.3-5.6-23
			c-0.4-4.9-0.9-9.8-1.3-14.6c4.5,15.7,9,31.5,13.5,47.2c1.3,4.6,11.4,4,10.5-1.2c-5.9-36-11.8-72-17.7-107.9c0,0,0.1,0,0.1,0
			c5.4,20.3,10.8,40.7,16.1,61c1.4,5.4,11.5,3.6,10.3-2.3c-0.1-0.5-0.2-1-0.3-1.6c1.4-0.7,2.3-1.9,2.1-3.6
			c-2.2-16.7-4.4-33.4-6.6-50.1c4.7,15.1,9.8,30.1,15.5,45c1.6,4.3,11.4,4.2,10.5-1.2c-2-13-4-26-6-39c2.8,7.5,5.8,15,9,22.4
			c1.3,3,6.8,3.9,9.3,2.1c0.2,0.6,0.4,1.2,0.6,1.8c0.8,2.4,4,3.4,6.7,3c0.3,1.4,0.6,2.8,0.9,4.3c0.9,4.4,7.7,4,9.8,0.6
			c3.7,11.2,7.3,22.5,11,33.7c1.5,4.5,10.9,4.2,10.5-1.2c-0.2-3-0.4-5.9-0.6-8.9c0.2,0.6,0.3,1.2,0.5,1.7c1.4,4.6,11,4.1,10.5-1.2
			c-0.4-4.3-0.8-8.6-1.3-12.8c1.1,3.4,2.2,6.8,3.3,10.3c0.2,0.8,0.7,1.4,1.2,1.8c0.1,0.3,0.1,0.5,0.2,0.8c1.6,5.3,11.9,3.6,10.3-2.3
			c-0.4-1.4-0.7-2.8-1.1-4.2c0-0.1,0-0.1,0-0.2c1.3,0.4,2.8,0.3,4.1-0.2c-4.4,10.1-8.3,20.4-11.9,30.8c-1.9,5.7,8.6,7.6,10.3,2.3
			c3.7-10.8,7.8-21.5,12.4-31.9c2.2,6.4,4.4,12.8,6.6,19.2c1.5,4.4,11.3,4.2,10.5-1.2c-1.8-13.2-4.1-26.4-7-39.4
			c0.7-1.4,1.4-2.7,2.1-4.1c0.8,2.8,1.6,5.5,2.4,8.3c1.5,5.4,11.6,3.6,10.3-2.3c-0.1-0.3-0.1-0.6-0.2-1c0.5-0.6,0.7-1.5,0.6-2.6
			c-0.7-7.3-1.4-14.7-2-22c0.4-0.6,0.7-1.2,1.1-1.7c1.4,3.7,2.8,7.3,4.3,10.9c0.4,0.9,1,1.5,1.9,2c0,0.9,0.1,1.8,0.1,2.6
			c0.2,5.1,9.3,6,10.5,1.2c1.6-6.3,3.6-12.5,5.7-18.6c-0.8,12.5-1.7,25-2.5,37.5c-0.2,2.6,3.1,4.5,5.4,4.4c6.1-0.4,10.2-3.3,13-7.4
			c-0.9,6-1.9,12-2.8,17.9c-0.7,4.4,7,5.6,9.7,2.8c2.7,2,8.5,1.6,9.2-2c0.1-0.5,0.2-1,0.3-1.5c3,0.5,6.4-0.8,6.2-4.1
			c-0.4-6.1-0.9-12.2-1.3-18.4c0.2-0.9,0.4-1.8,0.6-2.7c1-0.6,1.9-1.5,2.3-2.5c0.5-1.4,0.9-2.7,1.4-4.1c1.2,0.7,2.8,1,4.3,0.8
			c1.9,6.2,3.8,12.3,5.7,18.4c1.6,5.3,11.8,3.6,10.3-2.3c-3.1-12.5-6-25.1-8.6-37.7c0.2-1,0.3-2,0.5-3c2.8,0.9,6.8,0,7.5-2.8
			c1-3.9,2.1-7.8,3.1-11.7c-1.4,14.1-2.9,28.1-4.3,42.2c-0.5,5.2,9.2,5.8,10.5,1.2c4.1-14.7,8.3-29.4,12.4-44.1
			c0.6,1.5,1.2,3,1.8,4.5c0.1,2.5,0.2,5,0.2,7.5c-1.3,19.8-1.5,39.6,0.5,59.6c0.5,5,8.9,6.1,10.5,1.2c2.1-6.5,4.1-13,6.1-19.5
			c0.7,2.2,1.4,4.3,2.1,6.5c1.7,5.3,11.5,3.6,10.3-2.3c-0.3-1.7-0.7-3.5-1-5.2c2.2,0.2,4.6-0.5,5.7-2c1.6-2.1,3.1-4.4,4.3-6.7
			c1.8,6.3,3.6,12.5,5.6,18.7c1.7,5.3,12.1,3.5,10.3-2.3c-1.9-6.4-3.8-12.8-5.7-19.2c-0.3-1.1-0.6-2.3-1-3.4c1.7-0.3,3.2-1.2,3.7-3
			c0.7-2.1,1.3-4.3,1.9-6.5c0.1,0.3,0.2,0.5,0.2,0.8c1.3,4.6,11.4,4,10.5-1.2c-0.3-1.8-0.5-3.7-0.8-5.5
			c6.2,14.5,12.3,29.1,18.4,43.7c1.7,4.1,11.2,4.3,10.5-1.2c-0.8-6.6-1.6-13.2-2.5-19.9c2.4-0.3,4.4-1.8,4.1-4.2
			c-0.2-1.6-0.5-3.3-0.8-4.9c0.7,2.7,1.5,5.5,2.3,8.2c1.4,4.5,11.4,4,10.5-1.2c-0.1-0.4-0.1-0.8-0.2-1.2c0,0,0,0,0,0c0,0,0,0,0,0
			c-1.4-8.7-3-17.4-4.8-26.1c2.9,2.3,8.6,1.3,9.1-3.1c0.1-0.7,0.2-1.4,0.2-2.1c1,7.4,2.2,14.7,3.6,22.1c0.2,1.3,1,2.2,2,2.7
			c0.1,1.6,0.2,3.2,0.3,4.7c0.4,5.2,8.1,5.6,10.2,1.6c0.5,1.8,1,3.5,1.5,5.3c1.5,5.4,11.7,3.6,10.3-2.3c-2.4-10.3-5.2-20.5-8.4-30.6
			c0-0.1,0-0.1,0-0.2c0.2-1.6,0.3-3.2,0.5-4.8c0.3,0.1,0.5,0.2,0.8,0.3c3,12.7,6.2,25.4,9.9,37.9c1.3,4.6,11.2,4,10.5-1.2
			c-2.5-19-6.1-37.9-10.8-56.4c0-0.3,0.1-0.6,0.1-0.8c3.8,18.9,9.7,37.6,15.6,55.9c1.7,5.3,11.5,3.6,10.3-2.3
			c-0.2-0.9-0.4-1.7-0.5-2.6c0.9-0.1,1.8-0.4,2.6-0.8c0,0.6,0.1,1.2,0.1,1.8c0.1,2.5,2,3.9,4.2,4.2c-0.7,10.1-1.4,20.1-2.1,30.2
			c-0.4,5.8,10,5.6,10.7,0c0.3-2.2,0.6-4.5,0.9-6.7c-0.1,2.1-0.2,4.2-0.4,6.2c-0.4,7.2,0.3,14.5,6.2,19.3c2.4,1.9,8.2,1.8,9-1.9
			c1.9-9,3.7-18,5.5-27c-3.4,27.5-6.8,54.9-10.2,82.4c-2.7,22.3-5.5,44.5-8.2,66.8c-0.7,5.6,10,5.7,10.7,0
			c7.1-57.3,14.2-114.7,21.2-172c2.8,0.2,5.8-1.2,6.1-4.3c0.5-5.6,1-11.1,1.6-16.7c5.5,16.8,10.9,33.7,16.4,50.5
			c1.5,4.5,10.8,4.2,10.5-1.2c-0.8-15.7-1.7-31.3-2.3-47c2.3-0.7,4.1-2.5,3.5-5.2c-1-4.4-1.9-8.8-2.9-13.1
			c1.3-5.8,2.5-11.6,3.8-17.4c-0.6,13.5-0.6,27-0.2,40.5c0.2,5.7,10.9,5.7,10.7,0c-0.2-5.7-0.3-11.3-0.3-17c1.8,1.9,5.5,2,7.7,0.4
			c0.5,12.7,1.1,25.4,1.6,38c0.2,5.8,10.3,5.7,10.7,0c0.5-6.5,1-12.9,1.6-19.4c1.2-7.5,2.2-15,3-22.5c0.8-0.9,1.2-2.2,0.8-3.7
			c-0.1-0.3-0.2-0.7-0.3-1c0.5-5.3,0.9-10.6,1.3-15.9c1.9,2.4,3.9,4.7,6.1,6.8c3.1,3,10.3,0.5,9-4.2c-5.9-21.6-11.8-43.3-17.5-65
			c-0.1-10.4-0.5-20.7-1.2-31.1c-0.3-3.9-4.8-5.1-7.9-3.8c-0.3-1-0.5-2.1-0.8-3.1c3.1,1,7.6-0.6,7.8-4.1c0.1-1.4,0.1-2.7,0.2-4.1
			c0.1,0.2,0.2,0.5,0.3,0.7c2.1,5.1,11.6,3.7,10.3-2.3c-1.4-7.1-2.9-14.2-4.5-21.3c1.5-0.6,2.7-1.9,2.8-3.9
			c0.5-9.8,0.8-19.6,1.1-29.5c2.4-0.3,4.7-1.9,4.9-4.3c1.2-16.7,2-33.4,2.4-50.1c1.2-0.7,2-1.9,2-3.3c0.4-16.7,0.9-33.4,1.3-50.1
			c0-0.9-0.2-1.6-0.6-2.3c2.5-0.6,4.5-2.5,3.8-5.3c-2.8-11.8-5.6-23.6-8.4-35.4c-0.8-12.3-1.8-24.6-3-36.9c-0.3-3.5-3.8-4.8-6.8-4.1
			c-1.4-5.8-2.8-11.7-4.2-17.5c0.8-12.8,1.4-25.6,1.6-38.4c0-0.1,0.1-0.1,0.1-0.2c0.2,3.5,0.4,7.1,0.6,10.6c0.4,5.8,10.2,5.7,10.7,0
			c0.8-8.6,1.6-17.2,2.4-25.7c1.1,21.5,2.9,43,5.3,64.4c0.5,4.7,9.5,6.4,10.5,1.2C1733.8,257.6,1736,216,1732.2,174.5z M1695.1-229
			c-0.3,3.7-0.7,7.4-1.1,11.1c-0.3-4.2-0.5-8.4-0.8-12.6C1693.7-229.9,1694.3-229.4,1695.1-229z M1401.1,636.8
			c0.2-1.8,0.4-3.5,0.5-5.3c1-2.4,1.9-4.9,2.8-7.3c0.5,2.5,1,5,1.5,7.4c0,0.1,0,0.3,0,0.4c-0.9,3.2-1.8,6.4-2.7,9.7
			C1402.5,640.1,1401.8,638.4,1401.1,636.8z M1331.5,712.9c0.2,0.6,0.5,1.3,0.7,1.9c-0.3,1.1-0.6,2.4-1.1,3.8
			C1331.3,716.7,1331.4,714.8,1331.5,712.9z M845.8,633.5c1.4-0.9,2.7-1.9,4-2.8c-0.8,2.7-1.6,5.5-2.2,8.2
			C846.9,637.1,846.4,635.3,845.8,633.5z M370.3,657.6c1.1-5.3,2.2-10.6,3.4-16c-0.5,5.9-1,11.8-1.5,17.6
			C371.7,658.5,371,658,370.3,657.6z M865-82.2c-0.1-14.1-1.3-29.6,2.1-43.6c0.1,0.1,0.3,0.2,0.4,0.3c0.2,0.6,0.3,1.2,0.5,1.8
			c0,14.5,0.3,28.9,0.8,43.4c-1.4,0-2.7,0.4-3.8,1.1C865-80.2,865-81.2,865-82.2z M488.3,660.1c-0.2-3.1-3-4.5-5.7-4.3
			c-1.8-5.1-3.7-10.2-5.6-15.3c1.1-6,2.2-12,3.3-18c5,12,10,24,14.8,36c-0.5,9.4-1.1,18.8-1.7,28.1c-1.5-4.3-2.9-8.5-4.4-12.8
			C488.8,669.4,488.6,664.8,488.3,660.1z M1212.5-65.5c1,3.1,1.9,6.1,2.9,9.2c-0.9,0.7-1.4,1.7-1.5,3c-0.1,6.3-0.2,12.6-0.3,18.9
			c-1.8-9.3-3.6-18.6-5.5-27.9C1210.1-62.7,1211.9-63.8,1212.5-65.5z M1649.1,598.3c-0.2-2.5-0.3-4.9-0.5-7.4c3-12,6-23.9,9.2-35.9
			c-1.3,11.1-2.5,22.2-3.5,33.3C1652.1,591.4,1650.4,594.8,1649.1,598.3z M421,603.6c-0.7,3.7-1.3,7.5-2,11.2
			c-1.3-7.3-2.5-14.6-3.6-21.9c1.4-9.2,2.7-18.5,3.9-27.8c0.3,2.5,0.7,5,1,7.6c0.4,6.9,0.8,13.8,1.2,20.8c0,0.1,0,0.2,0,0.4
			c-0.1,1.3-0.1,2.7-0.2,4C421.3,599.8,421.1,601.7,421,603.6z M410.8-96.1c0.2,2.5,0.3,4.9,0.5,7.4c-3,12-6,23.9-9.2,35.9
			c1.3-11.1,2.5-22.2,3.5-33.3C407.8-89.2,409.5-92.6,410.8-96.1z M1345.5-121.4c0.2,0.7,0.4,1.3,0.7,2c0.6,1.7,1.2,3.5,1.8,5.2
			c-0.5,5.5-0.9,11-1.3,16.4c-0.7-2-1.4-4.1-2.1-6.1c0.2-3.6,0.4-7.2,0.5-10.8C1345.2-116.9,1345.3-119.1,1345.5-121.4z M742.2-47.1
			c0.1,5.5,0.1,11,0.2,16.4c0,13.1-0.1,26.1-0.1,39.2c-0.4,0.1-0.9,0.2-1.3,0.2c-0.6-5.2-1.2-10.4-1.8-15.6
			c0.8-14.5,1.6-28.9,2.3-43.4C741.8-49.2,742-48.1,742.2-47.1z M1408.2-21.2c0.7,2.8,1.3,5.7,2,8.5c-0.1,1.3-0.2,2.5-0.2,3.8
			c-0.4,2.1-0.9,4.2-1.3,6.3c-0.1-0.3-0.1-0.5-0.2-0.8c-0.3-5.9-0.6-11.8-1-17.7C1407.8-21.1,1408-21.1,1408.2-21.2z M1434.1,539.5
			c1,0.5,2.2,0.7,3.4,0.7c-0.8,3.1-1.7,6.2-2.5,9.3C1434.6,546.2,1434.4,542.9,1434.1,539.5z M535.3,22.1
			C535.3,22.1,535.3,22.1,535.3,22.1c0.5,6.6,1.1,13.3,1.6,20c-0.4,2.4-0.9,4.9-1.3,7.3c-0.9-4.8-1.9-9.7-2.9-14.5
			C533.6,30.7,534.4,26.4,535.3,22.1z M1576.6-149.6c0-0.2,0.1-0.5,0.1-0.7c0.3,0,0.5,0,0.8-0.1
			C1577.2-150.2,1576.9-149.9,1576.6-149.6z M1026.7,473.8c-2.3-5.6-4.6-11.1-6.9-16.7c0.4-2.4,0.7-4.8,1.1-7.2c0.7,1.7,1.3,3.3,2,5
			c0.7,3.2,1.4,6.5,2.1,9.7C1025.6,467.7,1026.2,470.7,1026.7,473.8z M1214.8,132.1c0,1.1,0.1,2.1,0.1,3.2c-0.4-1.1-0.8-2.2-1.1-3.2
			c0.1-1.3,0.1-2.5,0.2-3.8C1214.2,129.6,1214.5,130.8,1214.8,132.1z M1075.5,550.8c0.4,2.9,0.8,5.8,1.2,8.7
			c-3-7.3-5.9-14.6-8.9-21.8c-0.6-2-1.3-4.1-1.9-6.1c1-3.6,1.9-7.2,2.9-10.8c1.3,3.7,2.6,7.3,3.9,11
			C1073.6,538.1,1074.6,544.5,1075.5,550.8z M663,457.5c1.1,5.7,2.2,11.5,3.2,17.2c0.6,3.5,1.1,6.9,1.7,10.4c0,0.3,0.1,0.5,0.2,0.8
			c-1.7,0.5-3,1.5-3.3,3C664.4,478.4,663.7,467.9,663,457.5z M1396.9,44.7c-1.1-5.7-2.2-11.5-3.2-17.2c-0.6-3.5-1.1-6.9-1.7-10.4
			c0-0.3-0.1-0.5-0.2-0.8c1.7-0.5,3-1.5,3.3-3C1395.5,23.8,1396.1,34.2,1396.9,44.7z M1577.2,463.6c-0.2,0-0.3,0-0.5,0
			c1.6-22.6,3.2-45.2,4.8-67.8c0.8,6.1,1.7,12.1,2.5,18.2c0.1,1.1,0.6,1.9,1.2,2.6c-1.6,10.6-3.3,21.2-4.9,31.8
			C1579.3,453.5,1578.3,458.6,1577.2,463.6z M1317.4,535c0-0.7,0-1.5,0-2.2c0-13.1,0.1-26.1,0.1-39.2c0.4-0.1,0.9-0.2,1.3-0.2
			c0.6,5.2,1.2,10.4,1.8,15.6c-0.6,10.5-1.1,21.1-1.7,31.6C1318.4,538.8,1318,536.9,1317.4,535z M1142.1,393.4
			c-0.1-0.3-0.3-0.6-0.4-0.9c0.2-1.3,0.4-2.6,0.6-3.9c0.2,1.1,0.4,2.2,0.6,3.3c-0.1,0.3-0.2,0.7-0.2,1
			C1142.5,393,1142.3,393.2,1142.1,393.4z M795.4,400.7c-0.4-1.5-0.9-3-1.3-4.5c-0.4-3.6-0.8-7.2-1.2-10.8c0.5-1.5,1.1-3,1.6-4.5
			c1.4,7.9,2.7,15.7,4.1,23.6c0.2,2.1,0.5,4.3,0.7,6.4c-0.1,0.6-0.3,1.2-0.4,1.9C797.8,408.7,796.6,404.7,795.4,400.7z M482.6,38.6
			c0.2,0,0.3,0,0.5,0c-1.6,22.6-3.2,45.2-4.8,67.8c-0.8-6.1-1.7-12.1-2.5-18.2c-0.1-1.1-0.6-1.9-1.2-2.6c1.6-10.6,3.3-21.2,4.9-31.8
			C480.5,48.7,481.6,43.6,482.6,38.6z M1259.6,459.1c-0.1-1-0.1-2.1-0.2-3.1c-0.1-2.5-2.2-3.9-4.6-4.2c0.1-1.6,0.1-3.2,0.2-4.8
			c1.7,0,3.4-0.7,4.2-2.2c1.4-2.5,2.7-4.9,4.1-7.4c-1,7.2-2,14.3-3,21.5C1260.1,458.9,1259.8,459,1259.6,459.1z M534.8,178.4
			c0.1,1.6,0.1,3.3,0.2,4.9c-0.4,1.3-0.9,2.5-1.3,3.8c-1.4-12.1-2.7-24.2-4.1-36.3c-0.2-2.2-0.5-4.3-0.7-6.5
			c1.2-6.4,2.4-12.8,3.5-19.1c0.1,0.3,0.2,0.7,0.3,1C533.4,143.6,534.1,161,534.8,178.4z M472.8,398.6c0.1-0.4,0.3-0.8,0.4-1.2
			c1.1-0.3,2.7,1.8,3.1,2.4c2.2,3,2.3,7.5,2.7,11c0.8,6.8,1.5,13.7,2.2,20.5c-1.8-8.7-4-17.3-6.5-25.8c-0.4-1.4-1.4-2.3-2.7-2.7
			c0-0.3,0.1-0.6,0.1-0.9c0-0.4,0.1-1.5,0.2-2.5C472.6,399.1,472.7,398.9,472.8,398.6z M1587,103.6c-0.1,0.4-0.3,0.8-0.4,1.2
			c-1.1,0.3-2.7-1.8-3.1-2.4c-2.2-3-2.3-7.5-2.7-11c-0.8-6.8-1.5-13.7-2.2-20.5c1.8,8.7,4,17.3,6.5,25.8c0.4,1.4,1.4,2.3,2.7,2.7
			c0,0.3-0.1,0.6-0.1,0.9c0,0.4-0.1,1.5-0.2,2.5C1587.3,103,1587.1,103.3,1587,103.6z M857.1,193.9c-0.2,0.2-0.3,0.4-0.5,0.5
			c-0.3-1.1-0.5-2.3-0.8-3.4C856.2,192,856.6,192.9,857.1,193.9z M517.4,282.7c0,1.3,0.1,2.5,0.1,3.8c0,1,0.5,1.8,1.1,2.5
			c-0.2,3.7-0.4,7.4-0.6,11.2c-0.3,1-0.6,2-1,3c-0.8-3.3-1.5-6.5-2.3-9.8C515.6,289.8,516.5,286.2,517.4,282.7z M627.2,146.8
			c0.6,0.7,1.2,1.4,1.8,2.1c-0.2,1.8-0.3,3.5-0.4,5.3c0,0-0.1,0-0.1,0c-0.1-0.2-0.3-0.3-0.4-0.5
			C627.7,151.4,627.4,149.1,627.2,146.8z M677.9,274.8c0.2-1.2,0.3-2.5,0.5-3.7c0.1,2,0.2,4,0.3,5.9
			C678.4,276.3,678.2,275.6,677.9,274.8z M673.3,326c0.1-1.2,0.2-2.3,0.3-3.5c1,3.3,2,6.5,3,9.8c-0.4,2-0.9,4-1.3,6
			C674.7,334.3,674,330.1,673.3,326z M666.8,211.9c-0.1-0.6-0.2-1.3-0.3-1.9c0.2-1.1,0.4-2.2,0.6-3.3c0,0,0.1,0,0.1,0
			C667.1,208.4,667,210.2,666.8,211.9z M711,299.9c-0.1,0-0.2,0-0.4,0c0-0.4-0.1-0.7-0.1-1.1c0.2,0.3,0.3,0.5,0.5,0.8
			C711,299.7,711,299.8,711,299.9z M725.4,329.4c0.2,1.4,0.4,2.8,0.6,4.3c-0.5,0.1-0.9,0.2-1.4,0.3
			C724.9,332.4,725.1,330.9,725.4,329.4z M713.4,271.6c-0.2,2.9-0.3,5.8-0.5,8.7c-0.1,0.7-0.2,1.3-0.3,2c-1.6-2.8-3.3-5.6-4.9-8.4
			c-0.8-6.9-1.5-13.7-2.3-20.6c0.3-0.3,0.6-0.7,0.9-1C709,258.6,711.3,265.1,713.4,271.6z M595.2,127.8c0,0.2,0,0.4-0.1,0.5
			c-0.3-0.4-0.6-0.7-0.9-1.1c0-0.3-0.1-0.6-0.1-0.9C594.5,126.8,594.8,127.3,595.2,127.8z M722.9,343.3c1.4-0.3,2.8-0.6,4.3-0.9
			c0.1,0.8,0.2,1.6,0.3,2.5c-1.7,0.3-3.4,0.7-5.1,1C722.6,345,722.8,344.1,722.9,343.3z M680.9,371.2c0,0.1,0,0.2,0,0.3
			C680.9,371.5,680.8,371.4,680.9,371.2C680.8,371.2,680.9,371.2,680.9,371.2z M507.5,259.8c0.3,0.3,0.7,0.6,1.1,0.9
			c-0.4,1.1-0.7,2.1-1.1,3.2c-0.3-1.2-0.6-2.3-0.9-3.5C507,260.2,507.2,260,507.5,259.8z M620.9,288.2c0.7-9.5,0.8-19,0.5-28.6
			c0.9,4.2,1.8,8.5,2.8,12.7c-0.9,5.8-1.8,11.6-2.7,17.4C621.3,289.1,621.1,288.7,620.9,288.2z M728.8,354.1c0,0,0,0.1,0,0.1
			c-0.4,0.1-0.8,0.1-1.2,0.2C728,354.3,728.4,354.2,728.8,354.1z M723.5,364c2.2-0.4,4.3-0.7,6.5-1.1c0.3,2.3,0.6,4.5,0.9,6.8
			c-1.9,0.2-3.9,0.5-5.8,0.7C724.6,368.3,724,366.1,723.5,364z M1525.1,323.8c-0.1-1.6-0.1-3.3-0.2-4.9c0.4-1.3,0.9-2.5,1.3-3.8
			c1.4,12.1,2.7,24.2,4.1,36.3c0.2,2.2,0.5,4.3,0.7,6.5c-1.2,6.4-2.4,12.8-3.5,19.1c-0.1-0.3-0.2-0.7-0.3-1
			C1526.4,358.6,1525.7,341.2,1525.1,323.8z M1065.6,251.9c-1-5.7-2-11.5-3-17.2c0.1-0.7,0.2-1.4,0.4-2c0.3-1.7-0.3-3-1.4-4
			c-0.1-0.6-0.2-1.3-0.3-1.9c0,0,0-0.1,0.1-0.1c0.6,1.1,1.1,2.3,1.7,3.4c0.9,7.2,1.8,14.4,2.7,21.6
			C1065.7,251.8,1065.6,251.8,1065.6,251.9z M1264.3,307.8c-0.5-2.1-0.9-4.1-1.4-6.2c0.9-1.3,1.7-2.6,2.6-3.8
			c0.1,2.4,0.2,4.9,0.3,7.3c-0.1,0.1-0.1,0.2-0.2,0.3C1265.2,306.2,1264.7,307,1264.3,307.8z M1381.5,231c-0.1-2-0.2-4-0.3-5.9
			c0.3,0.7,0.5,1.5,0.8,2.2C1381.8,228.6,1381.6,229.8,1381.5,231z M1431.4,348C1431.4,348,1431.4,348,1431.4,348
			c0.2,0.2,0.4,0.3,0.5,0.5c0.3,2.3,0.5,4.6,0.8,6.9c-0.6-0.7-1.2-1.4-1.8-2.1C1431.1,351.6,1431.2,349.8,1431.4,348z M1393,290.3
			c0.1,0.6,0.2,1.3,0.3,1.9c-0.2,1.1-0.4,2.2-0.6,3.3c0,0-0.1,0-0.1,0C1392.8,293.8,1392.9,292,1393,290.3z M1386.5,176.2
			c-0.1,1.2-0.2,2.3-0.3,3.5c-0.6-2-1.2-4-1.8-6c0.3-0.8,0.5-1.5,0.8-2.3c0.2-0.7,0.3-1.4,0.2-1.9c0,0,0-0.1,0-0.1
			C1385.8,171.6,1386.2,173.9,1386.5,176.2z M1464.7,374.4c0-0.2,0-0.4,0.1-0.5c0.3,0.4,0.6,0.7,0.9,1.1c0,0.3,0.1,0.6,0.1,0.9
			C1465.4,375.4,1465,374.9,1464.7,374.4z M1334.9,170.4c-0.2,0.3-0.4,0.7-0.6,1c-0.1-1-0.3-1.9-0.4-2.9c0.5-0.1,0.9-0.2,1.4-0.3
			C1335.1,169,1335,169.7,1334.9,170.4z M1336.9,158.9c-1.4,0.3-2.8,0.6-4.3,0.9c-0.1-0.8-0.2-1.6-0.3-2.5c1.7-0.3,3.4-0.7,5.1-1
			C1337.2,157.2,1337.1,158.1,1336.9,158.9z M1246.9,278.8c0.4,1.5,0.8,2.9,1.1,4.4c-0.4,0.7-0.7,1.4-1.1,2.1
			c-2.8-0.3-5.6,1-5.6,4.2c0,2.2,0,4.4,0,6.6c-3.4,6.7-6.8,13.4-10,20.2c-0.3-1.5-0.5-3-0.8-4.5c0.1-1,0.1-1.9,0.2-2.9
			c2.6-0.1,5.1-1.4,4.6-4.2c-0.5-3.1-1-6.3-1.4-9.4c2.7-6.3,5.4-12.5,8.1-18.8C1242.9,278.1,1244.9,278.8,1246.9,278.8z
			 M1200.6,303.4c0.1-1.7,0.3-3.5,0.4-5.2c1,4.3,2,8.7,3.1,13C1202.9,308.6,1201.7,306,1200.6,303.4z M1075.8,179.9
			c-0.2-1.3-0.4-2.6-0.6-3.8c0.7,1.5,1.4,3,2,4.5c-0.2,0.4-0.4,0.7-0.7,1.1C1076.3,181.1,1076,180.5,1075.8,179.9z M1057.7,49.5
			c0.9-3,1.8-6.1,2.6-9.1c0.2-0.3,0.5-0.6,0.7-0.9c2,9.3,3.9,18.5,5.8,27.8c-0.8,0.8-1.6,1.5-2.4,2.3
			C1062.3,62.9,1060,56.2,1057.7,49.5z M1069.2,78.5c0.7,3.3,1.3,6.5,2,9.8c-1-2.9-2.1-5.8-3.1-8.7
			C1068.5,79.2,1068.9,78.8,1069.2,78.5z M1065,116.5c-1.1-6.1-2.2-12.2-3.3-18.3c5.6,13.8,11.2,27.6,16.9,41.3
			c-1.3-0.3-2.9-0.3-4.2,0.1C1071.3,131.9,1068.1,124.2,1065,116.5z M1038.8,181.1c1.3,2.6,2.5,5.1,3.8,7.7
			c0.9,6.2,1.8,12.4,2.6,18.7C1043.1,198.6,1041,189.8,1038.8,181.1z M1005.3,59.4C1005.3,59.4,1005.3,59.5,1005.3,59.4
			c-1,1.8-2.1,3.4-3.1,5.1c-0.1-0.3-0.2-0.5-0.4-0.8c-0.6-3.9-1.3-7.7-1.9-11.6c0.5-0.5,1-1.1,1.5-1.6
			C1002.7,53.5,1004,56.4,1005.3,59.4z M1056,190.5c0.3,0.4,0.5,0.9,0.8,1.3c0.2,1.1,0.5,2.1,0.7,3.2c-0.4-0.9-0.9-1.8-1.3-2.8
			C1056.1,191.6,1056.1,191.1,1056,190.5z M1104.8,132c-0.5-5.9-1-11.8-1.5-17.8c1.8,3.9,3.6,7.9,5.4,11.8c0.1,0.7,0.2,1.4,0.2,2.1
			c-1.3,2.1-2.6,4.3-3.9,6.4C1104.9,133.7,1104.8,132.9,1104.8,132z M1017.2,37.7c0,1.2,0,2.4,0,3.6c-0.4,0.6-0.8,1.2-1.2,1.8
			c-0.7-1.6-1.4-3.2-2.1-4.8c0-0.3-0.1-0.6-0.1-0.9c0.8-0.8,1.6-1.6,2.4-2.5C1016.5,35.9,1016.9,36.8,1017.2,37.7z M971.5,149.4
			c0.4-1.5,0.7-3,1.1-4.6c0-0.1,0.1-0.1,0.1-0.2c1.2,4.9,2.4,9.9,3.6,14.8c0,0-0.1,0.1-0.1,0.1C974.6,156.2,973.1,152.8,971.5,149.4
			z M1020.1,263.5c0.2,1.1,0.5,2.2,0.7,3.3c0.1,1.6,0.2,3.3,0.3,4.9c-0.2-1.1-0.4-2.3-0.5-3.4
			C1020.4,266.8,1020.2,265.1,1020.1,263.5z M1114.1,188.6c-2.4-10.4-4.7-20.9-7.2-31.3c-0.2-1.8-0.3-3.6-0.5-5.4
			c1.4-2.3,2.8-4.6,4.2-6.9c1.5,14.3,2.8,28.6,4.1,42.9C1114.5,188.1,1114.3,188.3,1114.1,188.6z M1128.8,228.9
			c-0.3-4.6-0.7-9.2-1.1-13.8c0.6,2.8,1.2,5.6,1.7,8.4c0.5,2.6,1.1,5.2,1.6,7.9c-0.2,0.3-0.4,0.6-0.6,1
			C1129.9,231.3,1129.4,230.1,1128.8,228.9z M1513.3,296.8c0,0.1,0,0.3,0,0.4c0,0-0.1,0-0.1,0
			C1513.2,297.1,1513.2,296.9,1513.3,296.8z M1542.5,219.5c0-1.3-0.1-2.5-0.1-3.8c0-1-0.5-1.8-1.1-2.5c0.2-3.7,0.4-7.4,0.6-11.2
			c0.3-1,0.6-2,1-3c0.8,3.3,1.5,6.5,2.3,9.8C1544.3,212.4,1543.4,216,1542.5,219.5z M1143.8,95.4c0,0.1,0,0.1,0,0.2
			c-1,8.8-2,17.5-2.9,26.3c-1.2-7-2.4-14-3.6-21.1c1.7-2.8,3.4-5.7,5.1-8.5C1142.9,93.3,1143.3,94.4,1143.8,95.4z M1133.5,140.5
			c-0.7,0.5-1.3,1.1-1.6,1.8c-0.5-1.3-1-2.6-1.5-3.8c-0.9-5.6-1.9-11.3-2.8-16.9c-0.2-1.2-0.4-2.5-0.6-3.7c0.6-1.1,1.3-2.1,1.9-3.2
			C1130.4,123.3,1131.9,131.9,1133.5,140.5z M1124.4,102.4c-2.4-13.6-4.8-27.2-7.3-40.8c-1.2-8.3-2.4-16.6-3.6-24.8
			c0.8-0.7,1.6-1.4,2.4-2.2c3.3,21.6,6.8,43.1,10.5,64.6C1125.6,100.3,1125,101.4,1124.4,102.4z M1111.8,25.2
			c-0.1-0.8-0.2-1.6-0.3-2.4c0.3,0.6,0.6,1.3,0.9,1.9C1112.1,24.8,1111.9,25,1111.8,25.2z M1104.3-27.8c-0.2-1.5-0.4-3-0.6-4.6
			c0.7-1,1.3-1.9,2-2.9c0.2,1.7,0.5,3.4,0.7,5.1C1105.7-29.4,1105-28.6,1104.3-27.8z M969.4,70.3c-1.8,1.9-3.5,3.8-5.3,5.7
			c-1.3-3.1-2.7-6.2-4-9.3c4.1-3.4,8.3-6.8,12.4-10.2C971.4,61.1,970.4,65.7,969.4,70.3z M984.6,208.9c1.2,2.3,2.4,4.7,3.7,7
			c1.3,8.5,2.7,17,4.1,25.6C989.8,230.6,987.2,219.8,984.6,208.9z M1082.3,226.8c0.7,0,1.4-0.1,2-0.3c0,0.3,0.1,0.5,0.1,0.8
			c-0.6,0.8-1.2,1.6-1.8,2.4C1082.5,228.7,1082.4,227.7,1082.3,226.8z M1283.3,333.6c-0.2,1.4-0.4,2.8-0.7,4.2
			c-0.1-0.9-0.2-1.8-0.3-2.6C1282.7,334.6,1283,334.1,1283.3,333.6z M1137.4,80.8c-0.9,1.5-1.8,3-2.8,4.6c-1-5.8-1.9-11.6-2.9-17.4
			C1133.7,72.2,1135.6,76.5,1137.4,80.8z M1106.5-12.1c-0.1-0.6-0.2-1.2-0.3-1.8c0.7-0.8,1.4-1.6,2-2.4c0.5,3.8,1.1,7.6,1.6,11.3
			C1108.8-7.3,1107.6-9.7,1106.5-12.1z M971.4,45c-4.8,4-9.7,7.9-14.5,11.9c0.2-1.7,0.5-3.4,0.7-5.1c3.5-4.5,7-9,10.5-13.5
			C969.2,40.4,970.3,42.7,971.4,45z M1084.6,243.4c0.6-0.8,1.3-1.7,1.9-2.5c0.8,5.4,1.6,10.8,2.4,16.2c-1.3-3.2-2.5-6.5-3.6-9.7
			C1085.1,246.1,1084.9,244.8,1084.6,243.4z M1238.8,355.4c-0.4-0.5-0.9-1-1.3-1.5c-0.7-4.6-1.5-9.2-2.3-13.9c2-3.2,3.9-6.4,5.8-9.7
			c0,6.9-0.1,13.8-0.1,20.7C1240.3,352.6,1239.5,354,1238.8,355.4z M1438.9,214c-0.7,9.5-0.8,19-0.5,28.6c-0.9-4.2-1.8-8.5-2.8-12.7
			c0.9-5.8,1.8-11.6,2.7-17.4C1438.5,213,1438.7,213.5,1438.9,214z M1128.1,34.2c-0.8-1.8-1.6-3.6-2.4-5.4c-0.1-0.9-0.3-1.8-0.4-2.8
			c0.1-0.1,0.2-0.1,0.2-0.2C1126.3,28.7,1127.2,31.5,1128.1,34.2z M922.3,154.5c0.5,0.8,1.1,1.5,1.6,2.3c-0.4,3.1-0.9,6.2-1.3,9.3
			c-0.3-2.4-0.6-4.7-0.9-7.1C921.9,157.4,922.1,155.9,922.3,154.5z M1214.7,382.6c0,0.2,0,0.3,0,0.5c0-0.1,0-0.2,0-0.2
			C1214.6,382.7,1214.6,382.6,1214.7,382.6z M1497.9,354.3c0.6-2.2,1.2-4.4,1.8-6.6c0.3-1.3,0.7-2.6,1-3.9c0.3,3,0.7,6,1,9
			c-1,2.9-2.1,5.7-3.1,8.6C1498.4,359,1498.2,356.7,1497.9,354.3z M1552.3,242.4c-0.3-0.3-0.7-0.6-1.1-0.9c0.4-1.1,0.7-2.1,1.1-3.2
			c0.3,1.2,0.6,2.3,0.9,3.5C1552.9,242,1552.6,242.2,1552.3,242.4z M1101.9-48.5c-0.1,0.1-0.2,0.3-0.4,0.4c-0.1-0.9-0.3-1.8-0.4-2.8
			C1101.4-50.1,1101.7-49.3,1101.9-48.5z M916.6,112.4c0.3,1,0.5,2,0.8,2.9c-0.2,1.2-0.4,2.5-0.5,3.7c-0.2-1.7-0.4-3.3-0.6-5
			C916.3,113.5,916.4,112.9,916.6,112.4z M1261.6,347.3c-0.1,0.2-0.1,0.3-0.2,0.5c0,0,0-0.1,0-0.1
			C1261.4,347.6,1261.5,347.4,1261.6,347.3z M1334.8,131.9c-1.7,2.2-3.4,4.4-5,6.6c-0.3-2-0.5-4-0.8-6c1.9-0.2,3.9-0.5,5.8-0.7
			C1334.7,131.8,1334.8,131.9,1334.8,131.9z M1156.2,281.8c0.6,2.6,1.3,5.2,1.9,7.8c-0.7-1.3-1.4-2.7-2-4
			C1156.1,284.3,1156.2,283.1,1156.2,281.8z M1263.4,360.2c0.4,0,0.9,0,1.3,0c0.9,4.5,1.8,8.9,2.7,13.4c-0.5,0.7-1,1.4-1.4,2.2
			C1265,370.6,1264.2,365.4,1263.4,360.2z M1489.9,384.3c0.1-0.2,0.1-0.4,0.2-0.7c0,0.2,0,0.4,0,0.5c0,0.1-0.1,0.2-0.1,0.3
			C1490,384.4,1490,384.3,1489.9,384.3z M1451.6,166.3c-0.1-0.7-0.2-1.4-0.3-2.1c0.1,0.3,0.2,0.7,0.3,1
			C1451.6,165.6,1451.6,165.9,1451.6,166.3z M1121.5,280.1c0.2,3.2,0.4,6.5,0.6,9.7c-0.4-3-0.7-6-1.1-9.1
			C1121.1,280.6,1121.3,280.3,1121.5,280.1z M1299.8,370c0.3,1.7,0.7,3.4,1,5.2c-0.5,0.3-0.9,0.6-1.4,0.9
			C1299.6,374,1299.7,372,1299.8,370z M1463.7,167.8c-0.4-1.6-0.8-3.1-1.3-4.7c0-0.8,0.1-1.7,0.1-2.5
			C1462.9,163,1463.3,165.4,1463.7,167.8z M1382.1,76.5c0.2-0.1,0.5-0.2,0.7-0.3c0.4,2.2,0.9,4.3,1.3,6.5
			C1383.5,80.6,1382.8,78.6,1382.1,76.5z M1061.2-29.4c-0.3,0.2-0.5,0.4-0.8,0.7c0.1-1.2,0.3-2.4,0.4-3.6
			C1060.9-31.3,1061.1-30.3,1061.2-29.4z M1041.3-12.7c-0.4-2.2-0.8-4.3-1.2-6.5c0.9,1.7,1.8,3.4,2.7,5.2
			C1042.3-13.6,1041.8-13.2,1041.3-12.7z M546.6,205.4c0-0.1,0-0.3,0-0.4c0,0,0.1,0,0.1,0C546.7,205.1,546.6,205.3,546.6,205.4z
			 M677.7,425.7c-0.2,0.1-0.5,0.2-0.7,0.3c-0.4-2.2-0.9-4.3-1.3-6.5C676.4,421.6,677,423.6,677.7,425.7z M1078.6,389.1
			c0.2,1.2,0.4,2.3,0.6,3.5c-0.1,0.2-0.1,0.5-0.2,0.7C1078.9,391.9,1078.7,390.5,1078.6,389.1z M1563.7,136
			c-0.3,0.1-0.6,0.3-0.9,0.4c-1.2-3.9-2.4-7.7-3.7-11.6c0.8-3.1,1.7-6.3,2.5-9.4C1562.3,122.3,1563,129.1,1563.7,136z M1044.8-32
			c-0.3-0.6-0.6-1.1-0.9-1.7c0.1-0.1,0.3-0.2,0.4-0.4C1044.4-33.4,1044.6-32.7,1044.8-32z M569.8,117.8c0,0.1,0.1,0.1,0.1,0.2
			c-0.1,0.2-0.1,0.4-0.2,0.7c0-0.2,0-0.4,0-0.5C569.7,118,569.8,117.9,569.8,117.8z M608.3,335.9c0.1,0.7,0.2,1.4,0.3,2.1
			c-0.1-0.3-0.2-0.7-0.3-1C608.3,336.6,608.3,336.2,608.3,335.9z M1156.2,308.4c0.5,0.9,1,1.8,1.5,2.8c-0.3,0.5-0.6,0.9-0.9,1.4
			C1156.6,311.2,1156.4,309.8,1156.2,308.4z M1222.5,433.1c-0.2-1.1-0.3-2.2-0.5-3.3c0.4-5,0.7-10,1.1-15c0.4,5.5,0.7,11,1.1,16.5
			C1223.6,431.9,1223.1,432.5,1222.5,433.1z M1225.1,444.8c0.2,3.7,0.5,7.3,0.7,11c-0.5-3.4-1-6.8-1.4-10.2
			C1224.6,445.3,1224.8,445,1225.1,444.8z M1339,367.3c0-0.4,0-0.8,0.1-1.2c0.7-0.3,1.4-0.6,2-0.9c0.4,1.3,0.7,2.6,1.1,3.9
			c-1,0.4-2,0.8-2.9,1.2C1339.2,369.3,1339.1,368.3,1339,367.3z M1363.7,369.9c-1.6,12.3-3.2,24.7-4.7,37c0.9-12,1.7-24.1,2.6-36.1
			C1362.2,370.5,1362.9,370.2,1363.7,369.9z M1579.9,188.5c-0.3-3-0.6-5.9-0.9-8.9c0.5,2.9,1.1,5.7,1.6,8.6
			C1580.3,188.2,1580.1,188.3,1579.9,188.5z M797.9,204.9c0.2,1,0.5,1.9,0.7,2.9c-1,1.9-2.1,3.9-3.1,5.8c-0.2-0.1-0.5-0.1-0.7-0.2
			c-0.2-5.5-0.5-11-0.7-16.5c0.5-0.9,1-1.7,1.5-2.6C796.3,197.9,797.1,201.4,797.9,204.9z M753.7,239.5c-0.7,1.5-1.4,3-2,4.5
			c-0.2-0.8-0.5-1.6-0.7-2.4c0-0.8,0-1.7,0-2.5C751.9,239.3,752.8,239.4,753.7,239.5z M561.9,147.9c-0.6,2.2-1.2,4.4-1.8,6.6
			c-0.3,1.3-0.7,2.6-1,3.9c-0.3-3-0.7-6-1-9c1-2.9,2.1-5.7,3.1-8.6C561.4,143.2,561.7,145.5,561.9,147.9z M480,313.7
			c0.3,3,0.6,5.9,0.9,8.9c-0.5-2.9-1.1-5.7-1.6-8.6C479.5,314,479.8,313.9,480,313.7z M496.1,366.2c0.3-0.1,0.6-0.3,0.9-0.4
			c1.2,3.9,2.4,7.7,3.7,11.6c-0.8,3.1-1.7,6.3-2.5,9.4C497.6,379.9,496.8,373.1,496.1,366.2z M597.4,339.1c0,0.8-0.1,1.7-0.1,2.5
			c-0.4-2.4-0.8-4.8-1.2-7.2C596.6,336,597,337.5,597.4,339.1z M733.4,390.9c-0.2,1-0.3,1.9-0.5,2.9c-0.4-0.7-0.8-1.4-1.2-2.1
			C732.3,391.4,732.8,391.1,733.4,390.9z M1298.2,397.1c0.3-0.1,0.6-0.2,0.9-0.4c-0.5,3.5-1,7-1.5,10.5
			C1297.8,403.8,1298,400.5,1298.2,397.1z M1324.7,357.8c0.3,1.5,0.5,3,0.8,4.5c-0.5,0.2-1,0.5-1.5,0.7
			C1324.2,361.3,1324.4,359.6,1324.7,357.8z M1340.3,379.6c0.8-0.3,1.5-0.6,2.3-0.9c-0.4,3.5-0.9,7-1.3,10.5
			C1340.9,386,1340.6,382.8,1340.3,379.6z M1597.2,216.2c2.4,10.8,5.1,21.5,8.1,32.1c-0.4,0.7-0.9,1.3-1.3,2
			c-2-9.5-3.9-19.1-5.9-28.6c-0.1-0.5-0.3-0.9-0.6-1.3c-0.7-3.7-1.4-7.4-2.1-11.1C1596,211.5,1596.6,213.8,1597.2,216.2z
			 M1581.1,112.3c0.9,0.3,1.8,0.6,2.7,0.8c-0.5,1.4-0.9,2.8-1.4,4.1C1582,115.6,1581.5,114,1581.1,112.3z M1488.4,114.4
			c0.2-2.7,0.5-5.4,0.7-8.1c0.4-0.1,0.7-0.1,1.1-0.2c0.1,0,0.2-0.1,0.3-0.1c0,2.3,0,4.6,0.1,6.9
			C1489.7,113.2,1489,113.7,1488.4,114.4z M845.2,119.6c0-0.2,0-0.3,0-0.5c0,0.1,0,0.2,0,0.2C845.2,119.5,845.2,119.6,845.2,119.6z
			 M462.7,286c-2.4-10.8-5.1-21.5-8.1-32.1c0.4-0.7,0.9-1.3,1.3-2c2,9.5,3.9,19.1,5.9,28.6c0.1,0.5,0.3,0.9,0.6,1.3
			c0.7,3.7,1.4,7.4,2.1,11.1C463.9,290.7,463.3,288.4,462.7,286z M478.7,389.9c-0.9-0.3-1.8-0.6-2.7-0.8c0.5-1.4,0.9-2.8,1.4-4.1
			C477.9,386.6,478.3,388.2,478.7,389.9z M816.8,313.4c0.2,0.5,0.4,0.9,0.6,1.4c-0.3,1.7-0.7,3.5-0.9,5.2c-0.2-1.2-0.4-2.4-0.6-3.7
			C816.2,315.4,816.5,314.4,816.8,313.4z M1099.6,435.2c1.2,2.8,2.4,5.6,3.5,8.3c-0.4,3.2-0.9,6.4-1.3,9.6
			C1101.1,447.2,1100.4,441.2,1099.6,435.2z M1322.3,373.9c1.4-0.7,2.8-1.4,4.1-2c0.1-0.1,0.2-0.1,0.4-0.2c-0.3,1.4-0.6,2.7-1,4.1
			c-1.4,0.6-2.7,1.1-4.1,1.7C1322,376.3,1322.2,375.1,1322.3,373.9z M1597.9,104.7c0.1-1.1,0.2-2.2,0.3-3.4c0-0.3,0.1-0.5,0.1-0.8
			c-0.1,1.4-0.2,2.8-0.3,4.2C1597.9,104.8,1597.9,104.7,1597.9,104.7z M1624.5,63.7c-1.2-3.8-6.6-4-9.1-1.7c-0.1-0.3-0.3-0.7-0.4-1
			c-0.1-0.3-0.3-0.6-0.5-0.8c1-7.8,2-15.7,3.1-23.5c3,10,5.9,20,8.7,30c-0.3-0.2-0.6-0.3-0.9-0.4C1625,65.4,1624.8,64.5,1624.5,63.7
			z M1453.1,119.6c-0.3,1-0.6,2-0.9,3c0.3-2.2,0.7-4.4,1-6.7C1453.2,117.2,1453.2,118.4,1453.1,119.6z M462,397.4
			c-0.1,1.1-0.2,2.2-0.3,3.4c0,0.3-0.1,0.5-0.1,0.8c0.1-1.4,0.2-2.8,0.3-4.2C461.9,397.4,461.9,397.4,462,397.4z M637.2,392.6
			c0.3-0.1,0.7-0.1,1-0.2c0.2,1.4,0.3,2.8,0.5,4.3c0,0,0,0.1,0,0.1c-0.7-0.1-1.4-0.2-2.1-0.3C636.8,395.1,637,393.8,637.2,392.6z
			 M1053.8,434.8c0.7,3.6,1.3,7.2,2,10.8c-0.4-0.9-0.8-1.9-1.2-2.8C1054.3,440.1,1054.1,437.5,1053.8,434.8z M1159.5,335.2
			c0.3-0.5,0.4-1.1,0.3-1.8c-0.2-1.7-0.5-3.4-0.7-5.1c1.6-2.5,3.2-5,4.8-7.4c0.5,3.2,1.1,6.3,1.6,9.5c0.4,12.8,1,25.5,1.7,38.3
			C1164.6,357.4,1162,346.3,1159.5,335.2z M1319.3,394.7c0.3-2.3,0.7-4.5,1-6.8c1-0.4,2-0.8,3-1.3c-1.1,4.8-2.3,9.7-3.4,14.5
			C1319.8,399,1319.5,396.9,1319.3,394.7z M1406.6,405.7c0.7,1.1,1.3,2.3,2,3.4c-0.2,1.5-0.4,3-0.5,4.6
			C1407.6,411.1,1407.1,408.4,1406.6,405.7z M1440.3,465.2c0.2-0.1,0.3-0.2,0.5-0.3c0.1,0.1,0.1,0.2,0.2,0.3c0,2,0,4.1,0,6.1
			c-0.1,0.5-0.2,0.9-0.3,1.4c-0.3-0.4-0.7-0.9-1-1.3C1439.9,469.4,1440.1,467.3,1440.3,465.2z M1621.3,248.6
			c-0.1-0.4-0.2-0.8-0.3-1.2c0-0.7,0.1-1.3,0.1-2c0.1,1.2,0.2,2.4,0.3,3.6C1621.4,248.9,1621.4,248.8,1621.3,248.6z M1587.2,135.8
			c0,0,0-0.1,0.1-0.1c0,0.1,0,0.2,0,0.3C1587.2,135.9,1587.2,135.8,1587.2,135.8z M1422.7,109.6c-0.3,0.1-0.7,0.1-1,0.2
			c-0.2-1.4-0.3-2.8-0.5-4.3c0,0,0-0.1,0-0.1c0.7,0.1,1.4,0.2,2.1,0.3C1423.1,107.1,1422.9,108.3,1422.7,109.6z M970.1-19.4
			c-0.3,0.2-0.6,0.4-0.9,0.7c-0.8-2.2-1.6-4.5-2.3-6.8c0-0.5,0.1-0.9,0.1-1.4c0.1-0.3,0.1-0.7,0.2-1c0.8,1.8,1.6,3.6,2.4,5.4
			C969.7-21.4,969.9-20.4,970.1-19.4z M900.6,101.2c-0.4-1.6-0.8-3.2-1.2-4.7c0.5-0.5,1-1,1.5-1.5C900.8,97,900.7,99.1,900.6,101.2z
			 M798.5,154.5c-0.2,0.3-0.4,0.7-0.6,1c-1.6-7.9-3.1-15.8-4.7-23.6c0.5-0.3,1-0.7,1.5-1C796,138.8,797.2,146.6,798.5,154.5z
			 M438.4,253.1c0,0.1,0.1,0.3,0.1,0.4c0.1,0.4,0.2,0.8,0.3,1.2c0,0.7-0.1,1.3-0.1,2C438.6,255.6,438.5,254.3,438.4,253.1z
			 M472.6,366.4c0,0,0,0.1-0.1,0.1c0-0.1,0-0.2,0-0.3C472.6,366.3,472.6,366.4,472.6,366.4z M607,374.9c0.3,1.1,0.6,2.2,0.9,3.3
			c-0.4,2.7-0.8,5.3-1.2,8C606.7,382.4,606.9,378.7,607,374.9z M1314.8,468.6c0.3-1.2,0.6-2.5,0.9-3.7c0.2,1.9,0.4,3.8,0.6,5.6
			c-0.4-0.4-0.9-0.7-1.4-0.9C1314.9,469.3,1314.9,468.9,1314.8,468.6z M1486.8,453.5c0-3.7,0-7.3,0-11c0.3,1.6,0.7,3.2,1,4.7
			c-0.3,2.8-0.7,5.7-1,8.5C1486.8,455,1486.8,454.3,1486.8,453.5z M1612.5,216.1c-0.9-3.5-1.7-7-2.5-10.5c0.9,2.4,1.9,4.9,2.8,7.3
			C1612.7,214,1612.6,215.1,1612.5,216.1z M1554.6,4.7c0.4,1.1,0.7,2.2,1.1,3.3c-0.4,2-0.7,4-1.1,6c-0.1-1.8-0.2-3.7-0.3-5.5
			C1554.3,7.3,1554.4,6,1554.6,4.7z M948.1,8.9c-0.8,0.8-1.7,1.6-2.5,2.4c0.1-0.6,0.2-1.2,0.3-1.8c0.8-0.5,1.5-1,2.3-1.5
			C948.1,8.3,948.1,8.6,948.1,8.9z M901,72.8c0.3,2.5,0.5,5,0.8,7.4c0,0.1,0,0.2,0,0.3c-1.7,1.6-3.4,3.3-5.1,5
			c-0.6-2.3-1.2-4.6-1.8-6.9C897,76.6,899,74.7,901,72.8C901,72.8,901,72.8,901,72.8z M760,132.2c-0.3-1.7-0.7-3.4-1-5.2
			c0.5-0.3,0.9-0.6,1.4-0.9C760.2,128.2,760.1,130.2,760,132.2z M501.6,42.3c-0.3,6.5-0.5,13-0.8,19.5c-0.4-2.3-0.9-4.6-1.3-6.8
			C500.2,50.7,500.9,46.5,501.6,42.3z M481.2,128.1c2,0.4,4.1,0,5.3-1.2c0,0.3,0,0.6,0,0.8c-1.2,4.3-2.4,8.6-3.6,12.9
			C482.4,136.5,481.8,132.3,481.2,128.1z M486.6,167.1C486.6,167.1,486.6,167.1,486.6,167.1C486.6,167.1,486.6,167.1,486.6,167.1
			C486.6,167.1,486.6,167.1,486.6,167.1z M447.3,286.1c0.9,3.5,1.7,7,2.5,10.5c-0.9-2.4-1.9-4.9-2.8-7.3
			C447.2,288.2,447.3,287.1,447.3,286.1z M741.2,436.4c0.5,1.2,1,2.5,1.5,3.7c-0.3,3.9-0.6,7.9-0.9,11.8c-0.3-0.9-0.6-1.7-0.9-2.6
			C741,445.1,741.1,440.8,741.2,436.4z M1216.5,507.9c0,0.2,0.1,0.4,0.1,0.5c0,0.2,0.1,0.3,0.1,0.5c-0.2,1.1-0.4,2.1-0.6,3.2
			C1216.3,510.7,1216.4,509.3,1216.5,507.9z M1323.3,435.4c0.4-0.2,0.9-0.4,1.3-0.6c-0.1,2.4-0.3,4.8-0.4,7.1
			c-0.2-1.2-0.4-2.4-0.6-3.6C1323.5,437.3,1323.4,436.4,1323.3,435.4z M1523.4,457.3c1.2,3.8,2.3,7.6,3.4,11.4
			c-0.8,3.8-1.5,7.5-2.3,11.3c0,0,0,0.1,0,0.1c-0.5-6.7-1.1-13.4-1.6-20.1C1523.1,459.1,1523.3,458.2,1523.4,457.3z M1558.2,459.9
			c0.3-6.5,0.5-13,0.8-19.5c0.4,2.3,0.9,4.6,1.3,6.8C1559.7,451.5,1559,455.7,1558.2,459.9z M1578.6,374.1c-2-0.4-4.1,0-5.3,1.2
			c0-0.3,0-0.6,0-0.8c1.2-4.3,2.4-8.6,3.6-12.9C1577.5,365.7,1578,369.9,1578.6,374.1z M1573.3,335.1
			C1573.3,335.1,1573.3,335.1,1573.3,335.1C1573.3,335.1,1573.3,335.1,1573.3,335.1C1573.3,335.1,1573.3,335.1,1573.3,335.1z
			 M1599.9,152.7c-0.5-1.1-1.5-1.9-2.7-2.4c0.2-2.8,0.4-5.6,0.5-8.4c0.8,3.9,1.7,7.9,2.6,11.8C1600.2,153.3,1600,153,1599.9,152.7z
			 M1629.6,73c0.1,0.1,0.2,0.1,0.4,0.1c0.7,1.7,1.5,3.5,2.3,5.2c0.8,3,1.6,6.1,2.4,9.1C1633,82.7,1631.3,77.8,1629.6,73z
			 M921.2,31.2c-0.5,0.4-1.1,0.7-1.6,1.1c-0.5-1.2-1-2.4-1.5-3.5c0.5-0.3,1-0.7,1.4-1C920,28.9,920.6,30,921.2,31.2z M653.2,96.4
			c-0.7-1.1-1.3-2.3-2-3.4c0.2-1.5,0.4-3,0.5-4.6C652.3,91.1,652.8,93.8,653.2,96.4z M573,48.7c0,3.6,0,7.3,0,10.9
			c-0.3-1.6-0.7-3.2-1-4.7c0.3-2.8,0.7-5.7,1-8.5C573,47.2,573,47.9,573,48.7z M460,349.5c0.5,1.1,1.5,1.9,2.7,2.4
			c-0.2,2.8-0.4,5.6-0.5,8.4c-0.8-3.9-1.7-7.9-2.6-11.8C459.7,348.9,459.8,349.2,460,349.5z M505.3,497.5c-0.4-1.1-0.7-2.2-1.1-3.3
			c0.4-2,0.7-4,1.1-6c0.1,1.8,0.2,3.7,0.3,5.5C505.5,494.9,505.4,496.2,505.3,497.5z M937.1,198.3c0,0,0.1-0.1,0.1-0.1
			c0.3,1.1,0.5,2.3,0.8,3.4c-0.2,0.2-0.4,0.5-0.6,0.7C937.2,201,937.1,199.7,937.1,198.3z M1001.7,364.3c-0.2-1.3-0.5-2.7-0.7-4
			c0.3,0.7,0.6,1.3,0.9,2c0.4,1.7,0.8,3.5,1.2,5.2C1002.7,366.4,1002.2,365.3,1001.7,364.3z M1134.4,361.1c0.3,0.4,0.6,0.9,0.9,1.3
			c-0.5,3.2-1,6.4-1.5,9.6C1134.1,368.4,1134.2,364.7,1134.4,361.1z M1222.7,535.5c0.8,4.9,1.6,9.8,2.3,14.7c-1.2-1.1-3-1.5-4.7-1.2
			C1221.2,544.5,1222,540,1222.7,535.5z M1317.6,481.8c0.1,1,0.2,2,0.3,3c-0.1,0-0.2,0-0.3,0.1
			C1317.6,483.8,1317.6,482.8,1317.6,481.8z M1401.5,439.8c0-0.3,0-0.6,0-1c0.1,0.2,0.2,0.3,0.3,0.5c0.1,0.4,0.2,0.9,0.2,1.3
			C1401.9,440.4,1401.7,440.1,1401.5,439.8z M1615.9,173.5c-0.7-2.8-1.4-5.6-2.1-8.4c0.6,1.7,1.3,3.3,1.9,5
			C1615.8,171.3,1615.8,172.4,1615.9,173.5z M1631.2,33.3c0,0,0.1,0,0.1-0.1c0.1,0.4,0.1,0.8,0.2,1.2
			C1631.4,34.1,1631.3,33.7,1631.2,33.3z M1543.5,8.6c-0.4,4.3-0.8,8.6-1.2,12.8c0.2-7.6,0.5-15.2,0.7-22.8
			C1543.1,1.9,1543.3,5.3,1543.5,8.6z M1033.3-66.6c0.6-1.2,1.2-2.5,1.8-3.7c0.2,0.6,0.3,1.2,0.5,1.8
			C1034.8-67.9,1034-67.2,1033.3-66.6z M836.7,87.7c-0.5,1.1-0.9,2.2-1.4,3.4c-0.5,0.4-1,0.7-1.6,1.1c-0.1-0.8-0.2-1.7-0.3-2.5
			c1.1-1.1,2.2-2.1,3.3-3.2C836.8,86.9,836.8,87.3,836.7,87.7z M790.5,113.7c-0.2-4.2-0.4-8.3-0.5-12.5c0.6,3.6,1.2,7.2,1.7,10.8
			C791.3,112.5,790.9,113.1,790.5,113.7z M619.5,37c-0.2,0.1-0.3,0.2-0.5,0.3c-0.1-0.1-0.1-0.2-0.2-0.3c0-2,0-4.1,0-6.1
			c0.1-0.5,0.2-0.9,0.3-1.4c0.3,0.4,0.7,0.9,1,1.3C619.9,32.8,619.7,34.9,619.5,37z M405.7,158.5c0.4,5.1,0.9,10.2,1.2,15.3
			c-0.7-5-1.5-10-2.4-15.1C405,158.7,405.3,158.6,405.7,158.5z M416.2,234.4c0.5,3.5,1,6.9,1.4,10.4c-0.8-4.4-1.6-8.8-2.4-13.3
			C415.6,232.5,415.9,233.4,416.2,234.4z M444,328.7c0.7,2.8,1.4,5.6,2.1,8.4c-0.6-1.7-1.3-3.3-1.9-5
			C444.1,330.9,444,329.8,444,328.7z M516.4,493.6c0.4-4.3,0.8-8.6,1.2-12.8c-0.2,7.6-0.5,15.2-0.7,22.8
			C516.7,500.2,516.5,496.9,516.4,493.6z M571.4,387.8c-0.2,2.7-0.5,5.4-0.7,8.1c-0.4,0.1-0.7,0.1-1.1,0.2c-0.1,0-0.2,0.1-0.3,0.1
			c0-2.3,0-4.6-0.1-6.9C570.1,389,570.9,388.5,571.4,387.8z M938,216.4c0.7-0.8,1.4-1.6,2.1-2.4c0.3,1.9,0.5,3.9,0.7,5.8
			c-0.6,4.1-1.3,8.2-1.9,12.3C938.6,226.8,938.3,221.6,938,216.4z M1400.7,457.1c0,0.1,0.1,0.1,0.1,0.2c0,0-0.1,0-0.1,0.1
			C1400.7,457.3,1400.7,457.2,1400.7,457.1z M1495.1,510.8c0.8,3.6,1.5,7.2,2.3,10.8c-1.2-1.8-2.3-3.6-3.5-5.4
			C1494.3,514.4,1494.7,512.6,1495.1,510.8z M1497.9,498.1c0,0.5,0,1,0,1.5c-0.1,0-0.2,0-0.3,0
			C1497.6,499.2,1497.7,498.6,1497.9,498.1z M1654.2,343.7c-0.4-5.1-0.9-10.2-1.2-15.3c0.7,5,1.5,10,2.4,15.1
			C1654.9,343.5,1654.5,343.6,1654.2,343.7z M1643.6,267.8c-0.5-3.5-1-6.9-1.4-10.4c0.8,4.4,1.6,8.8,2.4,13.3
			C1644.2,269.7,1643.9,268.8,1643.6,267.8z M1443.7,82.3c0-0.5,0.1-1.1,0.1-1.6c0.1-1,0.3-1.9,0.4-2.9c0.3-0.1,0.7-0.2,1-0.2
			C1444.7,79.2,1444.2,80.7,1443.7,82.3z M1318.6,65.7c-0.5-1.2-1-2.5-1.5-3.7c0.3-3.9,0.6-7.9,0.9-11.8c0.3,0.9,0.6,1.7,0.9,2.6
			C1318.8,57.1,1318.7,61.4,1318.6,65.7z M1054-79c-2.1,1.5-4.2,3-6.2,4.4c-0.9-0.3-1.9-0.4-2.9-0.3c-0.8-2.9-1.5-5.9-2.3-8.8
			c3.2-2.3,6.5-4.6,9.8-6.8C1052.9-86.7,1053.4-82.8,1054-79z M896.9,31.1c0.2,0.3,0.3,0.6,0.5,1c-1.4,1.9-0.2,4,2,5.1
			c0.3,1.9,0.5,3.9,0.8,5.8c-0.3,0.2-0.6,0.4-0.8,0.7c-1.6-3.5-3.1-7.1-4.6-10.7C895.4,32.3,896.2,31.7,896.9,31.1z M895.8,61.2
			c-1.4,1.5-2.8,2.9-4.2,4.4c-0.1-0.6-0.3-1.1-0.4-1.7c0-0.1-0.1-0.2-0.1-0.3c1.5-1,2.9-2,4.4-3.1C895.6,60.8,895.7,61,895.8,61.2z
			 M837.3,69.1c0.1,1,0.3,2,0.5,3c-1.9,1.8-3.7,3.6-5.6,5.3c-0.1-0.8-0.2-1.5-0.2-2.3C833.7,73.1,835.5,71.1,837.3,69.1z
			 M797.6,57.4c0.1,1.1,0.2,2.1,0.3,3.2c-0.2,0.2-0.5,0.4-0.7,0.6c0,0-0.1,0.1-0.1,0.1C797.2,60,797.4,58.7,797.6,57.4z
			 M720.8,134.3c-0.2-0.7-0.4-1.5-0.6-2.2c0.1-0.1,0.2-0.1,0.4-0.2C720.6,132.7,720.7,133.5,720.8,134.3z M717.7,123.3
			c-0.1-0.4-0.2-0.8-0.3-1.1c0.4-3,0.8-6.1,1.1-9.1c0.3,3.2,0.7,6.3,1,9.5C719,122.8,718.4,123.1,717.7,123.3z M698.3,131.4
			c-0.7,0.3-1.4,0.6-2.1,0.9c1.6-12.3,3.2-24.7,4.7-37C700.1,107.3,699.2,119.3,698.3,131.4z M459.2,104
			C459.2,104,459.2,104,459.2,104C459.2,104,459.2,104,459.2,104C459.2,104,459.2,104,459.2,104C459.2,104,459.2,104,459.2,104z
			 M454.3,85.4c-0.1-2.5-0.1-5.1-0.2-7.6c0-1.9-0.1-3.7-0.1-5.6c0.5,3.1,1.1,6.3,1.6,9.4C455.2,82.8,454.8,84.1,454.3,85.4z
			 M1162,436.5c-0.3-2-0.7-4-1-6.1c0.4,2.2,0.9,4.5,1.3,6.7C1162.2,436.9,1162.1,436.7,1162,436.5z M1400.3,467.2
			c0.5-0.2,1-0.4,1.6-0.6c-0.5,4.1-1,8.3-1.5,12.4c-0.1-1.3-0.3-2.6-0.4-3.9C1400.1,472.5,1400.2,469.8,1400.3,467.2z M1600.6,398.2
			C1600.6,398.2,1600.6,398.2,1600.6,398.2C1600.6,398.2,1600.6,398.2,1600.6,398.2C1600.6,398.2,1600.6,398.2,1600.6,398.2
			C1600.6,398.2,1600.6,398.2,1600.6,398.2z M1605.5,416.8c0.1,2.5,0.1,5.1,0.2,7.6c0,1.9,0.1,3.7,0.1,5.6c-0.5-3.1-1.1-6.3-1.6-9.4
			C1604.7,419.3,1605.1,418.1,1605.5,416.8z M1447.3,68.2c-0.6,0.1-1.2,0.2-1.8,0.3c0.3-2,0.6-4.1,0.8-6.1
			C1446.7,64.4,1447,66.3,1447.3,68.2z M1394.9,11.3C1394.9,11.3,1394.9,11.3,1394.9,11.3C1394.9,11.3,1394.9,11.3,1394.9,11.3
			C1394.9,11.3,1394.9,11.3,1394.9,11.3z M1266.1,109.8c0.2,2.3,0.5,4.7,0.7,7c-0.5,1.5-1.1,3-1.6,4.5c-0.5-3.1-1.1-6.1-1.6-9.2
			C1264.5,111.4,1265.3,110.6,1266.1,109.8z M925.6,10.9c-0.1,0.4-0.1,0.8-0.2,1.1c-0.5,0.4-1.1,0.8-1.6,1.2c-0.6-1.3-1.3-2.6-2-3.9
			c0.8-0.7,1.6-1.3,2.4-2C924.7,8.5,925.2,9.7,925.6,10.9z M886.8,40.8c1.6,3.7,3.2,7.3,4.8,11c-1.4,0.9-2.7,1.9-4.1,2.8
			c-0.3-4.3-0.6-8.6-0.9-12.9C886.7,41.4,886.7,41.1,886.8,40.8z M835.5,56.6c-1.5,1.6-3,3.2-4.5,4.9c0.8-4.6,1.6-9.2,2.4-13.7
			c0.3-0.2,0.5-0.4,0.8-0.5C834.6,50.4,835.1,53.5,835.5,56.6z M796.3,66.3c0.6,0.6,1.4,1.2,2.3,1.5c1,10,2,20.1,2.9,30.1
			c-0.1,0.2-0.3,0.4-0.4,0.6c-1.7-9.9-3.4-19.8-5.1-29.7C796.1,68,796.2,67.1,796.3,66.3z M735.2,144.4c-0.3-1.5-0.5-3-0.8-4.5
			c0.5-0.2,1-0.5,1.5-0.7C735.7,140.9,735.4,142.6,735.2,144.4z M658.3,62.3c0,0.3,0,0.6,0,1c-0.1-0.2-0.2-0.3-0.3-0.5
			c-0.1-0.4-0.2-0.9-0.2-1.3C657.9,61.8,658.1,62.1,658.3,62.3z M457.6,31.8c-0.1-0.6-0.2-1.3-0.3-1.9c1.2-0.9,1.9-2.4,1.5-4.2
			c-1.2-5.5-2.5-11.1-3.7-16.6c1.6,1,4,1.1,5.9,0.4c-0.1,13.6-0.1,27.3,0.1,40.9C459.9,44.3,458.8,38.1,457.6,31.8z M427.9-0.3
			c0.1-1.2,0.2-2.4,0.3-3.6c0.1,2.3,0.3,4.5,0.4,6.8C428.4,1.8,428.2,0.7,427.9-0.3z M430.3,429.2c-0.1-0.1-0.2-0.1-0.4-0.1
			c-0.7-1.7-1.5-3.5-2.3-5.2c-0.8-3-1.6-6.1-2.4-9.1C426.8,419.5,428.5,424.4,430.3,429.2z M434.5,436c0.3,0.9,0.5,1.7,0.8,2.6
			c1.2,3.8,6.6,4,9.1,1.7c0.1,0.3,0.3,0.7,0.4,1c0.1,0.3,0.3,0.6,0.5,0.8c-1,7.8-2,15.7-3.1,23.5c-3-10-5.9-20-8.7-30
			C433.9,435.7,434.2,435.8,434.5,436z M612.5,434c0.6-0.1,1.2-0.2,1.8-0.3c-0.3,2-0.6,4.1-0.8,6.1
			C613.1,437.8,612.8,435.9,612.5,434z M614.7,424.6c0.5-1.6,1-3.2,1.5-4.8c0,0.5-0.1,1.1-0.1,1.6c-0.1,1-0.3,1.9-0.4,2.9
			C615.3,424.5,615,424.6,614.7,424.6z M664.9,490.9C664.9,490.9,664.9,490.9,664.9,490.9C664.9,490.9,664.9,490.9,664.9,490.9
			C664.9,490.9,664.9,490.9,664.9,490.9z M667.2,508.8c0.7,5.7,1.4,11.4,2.1,17.1c-0.7-0.4-1.5-0.6-2.4-0.8c-0.3-1.5-0.7-3-1-4.4
			c-0.1-3.3-0.1-6.6-0.2-10C666.4,510.2,666.9,509.6,667.2,508.8z M945,278.4c-1.1-2.5-2.3-4.9-3.4-7.4c-0.5-7.4-1.1-14.7-1.6-22.1
			c1.2,0.4,2.7,0.4,3.9,0.2c0.2,1.9,0.4,3.7,0.5,5.6c0.9,9.7,1.9,19.3,2.8,29C946.5,281.8,945.8,280.1,945,278.4z M984.3,359.7
			c2.6,6.3,5.1,12.6,7.7,18.9c0.8,3.8,1.5,7.6,2.3,11.4c0.2,1,0.9,1.8,1.8,2.3c0.7,3.9,1.4,7.8,2.1,11.7
			c-5.6-13.8-11.3-27.7-17-41.5C982.2,361.6,983.3,360.6,984.3,359.7z M1160.1,462.3c0.7,0,1.3-0.1,2-0.3c2.4,5.6,4.8,11.2,7.2,16.7
			c-0.2,1-0.4,2-0.6,2.9c-2.7-5-5.3-10-8-15C1160.5,465.3,1160.3,463.8,1160.1,462.3z M1189.9,539.1c1.5,2.4,3.1,4.9,4.6,7.3
			c0,1.9,0,3.8,0.1,5.8c-1.6-3.6-3.2-7.3-4.8-10.9C1189.8,540.5,1189.9,539.8,1189.9,539.1z M1269.1,492.4c0.1-0.6,0.2-1.2,0.3-1.8
			c1.4,1,3,1.7,4.6,2.3c0,0.1,0,0.1,0.1,0.2c-0.4,12.8-0.8,25.6-1.1,38.4c-0.6,0.4-1.2,0.8-1.8,1.2
			C1270.5,519.3,1269.8,505.8,1269.1,492.4z M1272.3,550.5c0,0,0-0.1,0-0.1c0,1.3-0.1,2.6-0.1,3.8c0-1-0.1-2-0.2-3
			C1272.2,551,1272.2,550.8,1272.3,550.5z M1373.4,550.1c0,0.8,0,1.5,0,2.3c-0.1-0.1-0.2-0.1-0.3-0.2
			C1373.2,551.5,1373.3,550.8,1373.4,550.1z M1602.2,470.4c0.1,0.6,0.2,1.3,0.3,1.9c-1.2,0.9-1.9,2.4-1.5,4.2
			c1.2,5.5,2.5,11.1,3.7,16.6c-1.6-1-4-1.1-5.9-0.4c0.1-13.6,0.1-27.3-0.1-40.9C1599.9,457.9,1601.1,464.1,1602.2,470.4z
			 M1631.9,502.5c-0.1,1.2-0.2,2.4-0.3,3.6c-0.1-2.3-0.3-4.5-0.4-6.8C1631.4,500.4,1631.7,501.4,1631.9,502.5z M1629.8,153.9
			c0.3,0.7,0.7,1.3,1,2c0.6,1.1,1.4,1.9,2.5,2.4c1.5,7.9,3,15.9,4.3,23.9C1635,172.8,1632.4,163.3,1629.8,153.9z M1541.1-26.3
			c-3-1.5-8-0.2-8.4,3.7c0,0.1,0,0.3,0,0.4c-0.1-0.5-0.3-1-0.4-1.5c1.1-4.5,2.1-9.1,3.1-13.6C1537.3-33.6,1539.2-29.9,1541.1-26.3z
			 M1491-32.1c-0.2-1-0.5-2-0.7-3c0.6-3.5,1.3-7,1.9-10.4C1491.8-41,1491.4-36.5,1491-32.1z M1489.2-12.1c-1.3,14.5-2.6,28.9-4,43.4
			c-0.4,1.2-0.8,2.4-1.2,3.6c1.4-15.7,2.6-31.4,3.6-47.1C1488.1-12.1,1488.7-12.1,1489.2-12.1z M1394-18.4c0.1,3.3,0.1,6.6,0.2,10
			c-0.7,0.5-1.3,1.1-1.5,1.9c-0.7-5.7-1.4-11.4-2.1-17.1c0.7,0.4,1.5,0.6,2.4,0.8C1393.3-21.4,1393.7-19.9,1394-18.4z M1263.6,98.7
			c-0.7,0.6-1.3,1.1-2,1.7c-0.2-0.9-0.3-1.8-0.5-2.6c-0.2-2.1-0.5-4.3-0.7-6.4c0.1-0.6,0.3-1.2,0.4-1.9
			C1261.8,92.6,1262.7,95.6,1263.6,98.7z M737.5,128.3c-1.4,0.7-2.8,1.4-4.1,2c-0.1,0.1-0.2,0.1-0.4,0.2c0.3-1.4,0.6-2.7,1-4.1
			c1.4-0.6,2.7-1.1,4.1-1.7C737.8,125.9,737.7,127.1,737.5,128.3z M659.1,45.1c0-0.1-0.1-0.1-0.1-0.2c0,0,0.1,0,0.1-0.1
			C659.1,44.9,659.1,45,659.1,45.1z M430,348.3c-0.3-0.7-0.7-1.3-1-2c-0.6-1.1-1.4-1.9-2.5-2.4c-1.5-7.9-3-15.9-4.3-23.9
			C424.8,329.4,427.5,338.8,430,348.3z M428.7,468.9c0,0-0.1,0-0.1,0.1c-0.1-0.4-0.1-0.8-0.2-1.2
			C428.5,468.1,428.6,468.5,428.7,468.9z M518.7,528.5c3,1.5,8,0.2,8.4-3.7c0-0.1,0-0.3,0-0.4c0.1,0.5,0.3,1,0.4,1.5
			c-1.1,4.5-2.1,9.1-3.1,13.6C522.6,535.8,520.7,532.1,518.7,528.5z M568.8,534.2c0.2,1,0.5,2,0.7,3c-0.6,3.5-1.3,7-1.9,10.4
			C568,543.2,568.4,538.7,568.8,534.2z M570.6,514.3c1.6-17.3,3.1-34.5,4.7-51.8c0.2,1.3,0.3,2.6,0.5,3.9c-1.4,16-2.6,32-3.6,48
			C571.7,514.3,571.2,514.3,570.6,514.3z M950.9,340.8c-2.2-12.6-4.5-25.2-6.8-37.8c0-0.2,0-0.5-0.1-0.7c2.1,4.9,4.2,9.7,6.3,14.6
			c1.6,17.8,3.2,35.5,4.7,53.3c0.5,5.9,1,11.8,1.5,17.8c-1.8-3.9-3.6-7.9-5.4-11.8c-1.1-10.1-2.2-20.2-3.2-30.4
			C949.9,344.9,951.3,343.2,950.9,340.8z M1165.3,497.2c-0.1,0.3-0.1,0.6-0.2,0.9c-0.1-0.6-0.2-1.1-0.3-1.7
			C1165,496.6,1165.2,496.9,1165.3,497.2z M1350,560.1c0.1,1.2,0.3,2.4,0.4,3.7c0,0,0,0,0,0.1c-0.3,0.1-0.6,0.2-1,0.3
			C1349.6,562.8,1349.8,561.5,1350,560.1z M1440.8,526.3c0.2-0.1,0.3-0.2,0.4-0.3c-0.1,0.4-0.2,0.8-0.3,1.3
			C1440.8,526.9,1440.8,526.6,1440.8,526.3z M1492.1,533.4c-0.1-0.5-0.4-1-0.8-1.3c-0.3-0.5-0.6-1-0.9-1.5c0.2-0.7,0.3-1.4,0.5-2.2
			c1.7,0.6,3.8,0.4,5.3-0.3c-0.6,3.2-1.2,6.4-1.7,9.6C1493.7,536.2,1492.9,534.8,1492.1,533.4z M1650.8,185.5
			c0.2,4.5,0.3,9,0.2,13.5c-0.7-4.4-1.3-8.7-2-13.1C1649.6,185.8,1650.2,185.7,1650.8,185.5z M1538.9-53.3c0-0.1,0.1-0.2,0.1-0.4
			c0.1,0.4,0.2,0.8,0.3,1.2C1539.2-52.7,1539-53,1538.9-53.3z M895,5.8c0,0,0-0.1-0.1-0.1c0,0,0,0,0,0C895,5.7,895,5.8,895,5.8z
			 M740.5,107.4c-0.3,2.3-0.7,4.5-1,6.8c-1,0.4-2,0.8-3,1.3c1.1-4.8,2.3-9.7,3.4-14.5C740.1,103.2,740.3,105.3,740.5,107.4z
			 M659.5,35c-0.5,0.2-1,0.4-1.6,0.6c0.5-4.1,1-8.3,1.5-12.4c0.1,1.3,0.3,2.6,0.4,3.9C659.8,29.7,659.7,32.3,659.5,35z M567.7-31.2
			c0.1,0.5,0.4,1,0.8,1.3c0.3,0.5,0.6,1,0.9,1.5c-0.2,0.7-0.3,1.4-0.5,2.2c-1.7-0.6-3.8-0.4-5.3,0.3c0.6-3.2,1.2-6.4,1.7-9.6
			C566.1-34,566.9-32.6,567.7-31.2z M562.4-19.5c1.2,1.8,2.4,3.7,3.6,5.5c-1.4,6-2.7,12-4,18.1c0.1-7,0.1-14.1,0.1-21.1
			c0-0.5,0.1-1,0.1-1.5C562.3-18.9,562.3-19.2,562.4-19.5z M453.6,2.4c-0.9-4.1-1.8-8.1-2.7-12.2c1.7-8,3.4-16,5.1-23.9
			c0,0.1,0,0.1,0.1,0.2C455.2-21.6,454.4-9.6,453.6,2.4z M418.1,48.8c-0.1,0.2-0.1,0.3-0.2,0.5c-0.3-1.2-0.7-2.5-1-3.7
			c0.3-1.9,0.6-3.9,0.9-5.8C417.9,42.8,418,45.8,418.1,48.8z M409,316.7c-0.2-4.5-0.3-9-0.2-13.5c0.7,4.4,1.3,8.7,2,13.1
			C410.2,316.3,409.6,316.5,409,316.7z M520.9,555.5c0,0.1-0.1,0.2-0.1,0.4c-0.1-0.4-0.2-0.8-0.3-1.2
			C520.7,554.9,520.8,555.2,520.9,555.5z M705.6,510.9c0.5,1.6,1,3.1,1.5,4.7c-0.6,0-1.1,0-1.7,0.1
			C705.5,514.1,705.5,512.5,705.6,510.9z M827.7,474.3c-0.9-8.6-1.9-17.3-2.8-25.9c0.2-2.5,0.3-5.1,0.5-7.6c0.2,0.5,0.3,0.9,0.5,1.4
			c0.9,5.2,1.7,10.3,2.6,15.5C828.2,463.2,828,468.8,827.7,474.3z M1002.1,452.7c-1,3.7-2.1,7.3-3.2,11c-3.6-16.5-7-33.1-10.3-49.7
			C993.3,426.8,997.8,439.7,1002.1,452.7z M1006.2,476.5c-0.6,4.1-1.2,8.3-1.7,12.4c-0.3-1.3-0.6-2.6-0.9-3.9
			C1004.5,482.2,1005.3,479.3,1006.2,476.5z M1019.7,521.4c-2.3-4.4-4.6-8.8-6.9-13.2c0.6-4.8,1.2-9.7,1.8-14.5
			C1016.4,502.9,1018,512.2,1019.7,521.4z M1328.8,577.4c0-0.1,0-0.1,0-0.2c0.1,0.9,0.2,1.7,0.3,2.6c-0.1-0.6-0.3-1.2-0.4-1.7
			C1328.7,577.9,1328.7,577.6,1328.8,577.4z M1347.5,579.2c0.3,3.7,0.7,7.3,1.1,11c-0.3,3.6-0.7,7.2-1,10.8
			c-0.5-3.9-0.9-7.7-1.4-11.6C1346.7,586,1347.1,582.6,1347.5,579.2z M1405.7,525.7c0.7-6.2,1.5-12.5,2.2-18.7
			c-0.4,9.9-0.7,19.9-0.9,29.8C1406.5,533.1,1406.1,529.4,1405.7,525.7z M1606.3,499.8c0.9,4.1,1.8,8.1,2.7,12.2
			c-1.7,8-3.4,16-5.1,23.9c0-0.1,0-0.1-0.1-0.2C1604.6,523.8,1605.5,511.8,1606.3,499.8z M1641.7,453.3c0.1-0.2,0.1-0.3,0.2-0.5
			c0.3,1.2,0.7,2.5,1,3.7c-0.3,1.9-0.6,3.9-0.9,5.8C1641.9,459.4,1641.8,456.4,1641.7,453.3z M1549.4-69.6
			c-0.2,3.8-0.5,7.6-0.7,11.4c-1.7-6.1-3.4-12.1-5.1-18.2c0.3-1.7,0.7-3.5,1-5.2C1546.3-77.6,1547.8-73.6,1549.4-69.6z M1497.9-66.8
			c-0.6,0.1-1.2,0.4-1.8,0.7c0.3-1.4,0.5-2.7,0.8-4.1c0.2,0.4,0.3,0.8,0.5,1.2C1497.6-68.3,1497.7-67.6,1497.9-66.8z M826.4,27
			c-1-7.7-2-15.4-3-23.1c1.8,3,3.7,5.9,5.5,8.9C828.1,17.5,827.2,22.2,826.4,27z M686.8-50c-0.1,0.7-0.2,1.4-0.3,2.1
			c0-0.8,0-1.5,0-2.3C686.6-50.1,686.7-50.1,686.8-50z M428-63.8c-0.4,0-0.8,0-1.2,0.1c0.1-1.3,0.2-2.6,0.4-3.9
			C427.5-66.3,427.7-65,428-63.8z M465.1,534.8c0-1.1,0.1-2.3,0.1-3.4c0.3,2.5,0.6,5,0.9,7.5c-2.1,0.5-3.7,1.8-3.6,3.8
			c-0.4-1.3-0.7-2.5-1.1-3.8C463.4,538.4,465,537,465.1,534.8z M510.4,571.7c0.2-3.8,0.5-7.6,0.7-11.4c1.7,6.1,3.4,12.1,5.1,18.2
			c-0.3,1.7-0.7,3.5-1,5.2C513.6,579.7,512,575.7,510.4,571.7z M562,569c0.6-0.1,1.2-0.4,1.8-0.7c-0.3,1.4-0.5,2.7-0.8,4.1
			c-0.2-0.4-0.3-0.8-0.5-1.2C562.3,570.5,562.1,569.8,562,569z M704.6,536c0.2,1.3,0.5,2.7,0.7,4c-0.2-0.8-0.5-1.7-0.7-2.5
			C704.6,537,704.6,536.5,704.6,536z M826.2,503.4c0.1,0,0.1,0,0.2,0c0,0.2,0,0.4,0,0.6C826.3,503.7,826.2,503.5,826.2,503.4z
			 M1023.5,549.1c0.6,5.7,1.1,11.3,1.7,17c-0.5-1-1.5-1.7-2.7-2.1c-2.6-9.9-5-19.9-7.5-29.8C1017.8,539.2,1020.7,544.2,1023.5,549.1
			z M1631.8,566c0.4,0,0.8,0,1.2-0.1c-0.1,1.3-0.2,2.6-0.4,3.9C1632.4,568.5,1632.1,567.2,1631.8,566z M1657.9,245.4
			c-0.2-0.6-0.5-1.1-0.9-1.6c-0.5-4.1-1-8.2-1.5-12.3c1.3-0.4,2.6-1.1,3.3-2.2c1.4,10.8,2.8,21.6,4.2,32.4
			C1661.3,256.2,1659.6,250.8,1657.9,245.4z M1589.6-96.6c-0.4-1-0.9-2-1.3-3.1c1.1-2,2.3-3.9,3.5-5.8
			C1591.1-102.5,1590.4-99.5,1589.6-96.6z M1562.5-90.3c0-1.2,0-2.4,0.1-3.6c0.7,1.5,1.3,3,2,4.5
			C1563.9-89.9,1563.2-90.2,1562.5-90.3z M1354.2-8.7c-0.5-1.6-1-3.1-1.5-4.7c0.6,0,1.1,0,1.7-0.1
			C1354.4-11.9,1354.3-10.3,1354.2-8.7z M1136.2-95.8c-0.6-0.7-1.4-1.2-2.3-1.5c-0.4-1.5-0.7-3-1.1-4.6c0.5-0.3,0.9-0.6,1.4-0.9
			C1134.8-100.5,1135.5-98.2,1136.2-95.8z M984-55.1c-0.2,0.1-0.3,0.3-0.5,0.4c0,0,0-0.1,0-0.1C983.6-55,983.8-55.1,984-55.1
			C984-55.2,984-55.1,984-55.1z M917.2-3.2c0.1-2,0.2-4,0.3-6c0.6,1.5,1.2,2.9,1.7,4.4C918.6-4.3,917.9-3.7,917.2-3.2z M843.4-5.6
			c-0.1-0.3-0.2-0.7-0.3-1c0.2-1.1,0.4-2.2,0.6-3.3C843.6-8.4,843.5-7,843.4-5.6z M826.9-9.8c-2.3-3.8-4.6-7.6-7-11.4
			c-0.3-2.4-0.7-4.8-1-7.2c0.3-7,0.6-14,0.9-21c1.5,5,2.9,10.1,4.4,15.1C825.1-26.1,826-17.9,826.9-9.8z M790.7,9.8
			c-0.1,0.6-0.2,1.2-0.3,1.8c-1.4-1-3-1.7-4.6-2.3c0-0.1,0-0.1-0.1-0.2c0.4-12.8,0.8-25.6,1.1-38.4c0.6-0.4,1.2-0.8,1.8-1.2
			C789.4-17.1,790.1-3.6,790.7,9.8z M736.5,66.8c-0.4,0.2-0.9,0.4-1.3,0.6c0.1-2.4,0.3-4.8,0.4-7.1c0.2,1.2,0.4,2.4,0.6,3.6
			C736.3,64.8,736.4,65.8,736.5,66.8z M415.9-33.3c0,4.8,0,9.6,0,14.4c-1,0.5-1.7,1.2-2.1,2.2C414.4-22.2,415.1-27.7,415.9-33.3z
			 M386,99.9c0.1-1,0.2-1.9,0.3-2.9c0.9,3.9,1.7,7.7,2.7,11.6c0.8,8.8,1.6,17.7,2.3,26.5c-1.1,2-1.6,4.3-1.8,6.7
			c-1.9-6-3.8-12-5.7-17.9C384.5,115.9,385.2,107.9,386,99.9z M381,153.7c1.8,4.9,3.5,9.7,5.3,14.6c0.1,0.2,0.2,0.5,0.3,0.7
			c2.7,9.2,5.2,18.4,7.7,27.7c-1.7-5.6-3.5-11.2-5.2-16.8c-0.7-2.3-3.7-3.3-6.3-3.1c-0.8-5.9-1.5-11.9-2.2-17.8
			C380.7,157.2,380.8,155.5,381,153.7z M402,256.8c0.2,0.6,0.5,1.1,0.9,1.6c0.5,4.1,1,8.2,1.5,12.3c-1.3,0.4-2.6,1.1-3.3,2.2
			c-1.4-10.8-2.8-21.6-4.2-32.4C398.6,246,400.3,251.4,402,256.8z M463.1,544.9c1.8,4.8,3.5,9.5,5.2,14.3c0.1,0.6,0.1,1.2,0.2,1.8
			c-1.5-4.3-3-8.5-4.5-12.8C463.7,547.1,463.4,546,463.1,544.9z M481.7,557.5c-0.1,0.8-0.3,1.6-0.4,2.4c-0.1-0.1-0.1-0.3-0.2-0.4
			C481.3,558.8,481.5,558.1,481.7,557.5z M488.9,576.6c0.4,1.1,0.8,2.3,1.3,3.4c-0.4-1-0.9-2-1.3-3
			C488.8,576.9,488.9,576.7,488.9,576.6z M497.4,592.5c0,1.2,0,2.4-0.1,3.6c-0.7-1.5-1.3-3-2-4.5
			C495.9,592.1,496.6,592.3,497.4,592.5z M824,546.5c0-4.7,0-9.4,0-14c0.2,0.7,0.5,1.5,0.7,2.2C824.5,538.6,824.3,542.5,824,546.5z
			 M845.1,370.1c0-1.1-0.1-2.1-0.1-3.2c0.4,1.1,0.8,2.2,1.1,3.2c-0.1,1.3-0.1,2.5-0.2,3.8C845.6,372.6,845.3,371.3,845.1,370.1z
			 M1042.3,555c0.5,2.6,1,5.1,1.6,7.7c0.1,0.6,0.3,1.2,0.4,1.8c-0.2,1.4-0.5,2.7-0.7,4.1c-0.4-1.8-0.9-3.6-1.3-5.4
			C1042.2,560.4,1042.2,557.7,1042.3,555z M1138.7,466.3c1.8,4.2,3.6,8.3,5.4,12.5c-0.1,0.9-0.1,1.9-0.2,2.8
			c-2-3.9-3.9-7.9-5.9-11.8C1138.3,468.6,1138.5,467.5,1138.7,466.3z M1644,535.5c0-4.8,0-9.6,0-14.4c1-0.5,1.7-1.2,2.1-2.2
			C1645.4,524.4,1644.7,529.9,1644,535.5z M1673.8,402.3c-0.1,1-0.2,1.9-0.3,2.9c-0.9-3.9-1.7-7.7-2.7-11.6
			c-0.8-8.8-1.6-17.7-2.3-26.5c1.1-2,1.6-4.3,1.8-6.7c1.9,6,3.8,12,5.7,17.9C1675.4,386.3,1674.6,394.3,1673.8,402.3z M1678.9,348.5
			c-1.8-4.9-3.5-9.7-5.3-14.6c-0.1-0.2-0.2-0.5-0.3-0.7c-2.7-9.2-5.2-18.4-7.7-27.7c1.7,5.6,3.5,11.2,5.2,16.8
			c0.7,2.3,3.7,3.3,6.3,3.1c0.8,5.9,1.5,11.9,2.2,17.8C1679.1,345,1679,346.7,1678.9,348.5z M1355.3-35.3c0,0.5,0,1-0.1,1.4
			c-0.2-1.3-0.5-2.7-0.7-4C1354.8-37,1355-36.1,1355.3-35.3z M1196.1,53.2c-0.1-0.7-0.2-1.3-0.4-2c0.1,0.5,0.3,1,0.4,1.5
			C1196.1,52.8,1196.1,53,1196.1,53.2z M929.7-12.9c-0.6,0.5-1.2,0.9-1.8,1.4c-0.6-1.4-1.1-2.8-1.7-4.2c1.5-1,2.9-2,4.4-3
			C930.4-16.8,930-14.8,929.7-12.9z M837.1-33.3c-0.8-4.9-1.6-9.8-2.3-14.7c1.2,1.1,3,1.5,4.7,1.2C838.7-42.3,837.9-37.8,837.1-33.3
			z M787.8-49.1c-0.1,0.2-0.1,0.5-0.2,0.7c0,0,0,0.1,0,0.1c0-1.3,0.1-2.6,0.1-3.8C787.7-51.1,787.7-50.1,787.8-49.1z M742.3,20.4
			c-0.1-1-0.2-2-0.3-3c0.1,0,0.2,0,0.3-0.1C742.3,18.4,742.3,19.4,742.3,20.4z M652-4.8c0.4-9.9,0.7-19.9,0.9-29.8
			c0.4,3.7,0.8,7.4,1.3,11.1C653.5-17.3,652.7-11.1,652-4.8z M570.1-50.8c-0.6-0.8-1.2-1.6-1.9-2.4c0.2-1.1,0.4-2.2,0.5-3.3
			c0.6,0.9,1.2,1.8,1.7,2.7C570.4-52.8,570.3-51.8,570.1-50.8z M531.1-30.2c-0.3,1-0.5,1.9-0.8,2.9c0-1.9,0.1-3.8,0.1-5.8
			c0.1-5.9-10-5.6-10.7,0c-0.5,3.6-0.9,7.3-1.4,10.9c-0.3-1-0.6-2.1-0.9-3.1c2.1-13.9,4.3-27.9,6.6-41.8c1.1,0.4,2.4,0.4,3.6,0.2
			c0.8,11.9,1.9,23.9,3.3,35.8C531-30.8,531-30.5,531.1-30.2z M473-35.3c-1-4.5-1.9-8.9-2.9-13.4c0.6-5.5,1.3-10.9,2-16.4
			c0.9,2.4,1.8,4.8,2.8,7.1C474.2-50.5,473.6-42.9,473-35.3z M413.6-15.3C413.6-15.3,413.6-15.3,413.6-15.3
			c0.3,3.4,0.6,6.8,0.8,10.2c-1.4,7.9-2.7,15.9-4,23.8C411.2,7.4,412.3-4,413.6-15.3z M386.4,242.8c0.3,2.5,0.6,4.9,0.9,7.4
			c-0.3-1.4-0.6-2.8-0.9-4.2C386.5,244.9,386.5,243.8,386.4,242.8z M649.6,514.9c0.1-1.3,0.2-2.5,0.2-3.8c0.4-2.1,0.9-4.2,1.3-6.3
			c0.1,0.3,0.1,0.5,0.2,0.8c0.3,5.9,0.6,11.8,1,17.7c-0.2,0-0.5,0.1-0.7,0.1C650.9,520.5,650.3,517.7,649.6,514.9z M834,594.2
			c-0.3-1.2-1.1-2-2.1-2.5c0.6-9.3,1.2-18.6,1.8-27.9c1.5,4.8,3,9.6,4.5,14.4c0.9,3.8,1.8,7.5,2.6,11.3c-2.2,2-4.3,4-6.5,6
			C834.2,595.1,834.1,594.7,834,594.2z M863.8,449c0.1,0.7,0.2,1.3,0.4,2c-0.1-0.5-0.3-1-0.4-1.5C863.7,449.4,863.7,449.2,863.8,449
			z M916.1,406.8c0-0.1,0-0.1,0-0.2c1-8.8,2-17.5,2.9-26.3c1.4,7.9,2.8,15.9,4.1,23.8c1.7,10,3.4,20,5,30.1
			C924,425.1,920,415.9,916.1,406.8z M997.3,505.4c0.8,3.4,1.6,6.8,2.4,10.3c-1.2,0-2.3,0.3-3.3,0.8c-0.3-1.9-0.5-3.8-0.8-5.6
			C996.2,509,996.8,507.2,997.3,505.4z M1059.5,575.4c0.2,1.3,0.4,2.6,0.6,3.9c-0.3-1.6-0.6-3.2-1-4.8
			C1059.2,574.8,1059.3,575.1,1059.5,575.4z M1135,486.8c0.2,0.4,0.4,0.8,0.6,1.2c-0.2-0.1-0.5-0.2-0.7-0.4
			C1134.9,487.4,1135,487.1,1135,486.8z M1435.2,580.2c1.3-0.7,2.1-1.9,2-3.5c-0.2-2.3-0.4-4.6-0.6-7c0.5-4,1.1-8,1.6-12
			c1.1,0.2,2.2,0.1,3.2-0.2c0.1,11.7,0.1,23.4,0.2,35c-0.9,3.5-1.8,7.1-2.7,10.6c-1.8-3.5-3.6-7-5.5-10.5
			C1434.1,588.6,1434.7,584.4,1435.2,580.2z M1586.9,537.5c1,4.5,1.9,8.9,2.9,13.4c-0.6,5.5-1.3,10.9-2,16.4
			c-0.9-2.4-1.8-4.8-2.8-7.1C1585.6,552.7,1586.2,545.1,1586.9,537.5z M1646.2,517.5C1646.2,517.5,1646.2,517.4,1646.2,517.5
			c-0.3-3.4-0.6-6.8-0.8-10.2c1.4-7.9,2.7-15.9,4-23.8C1648.6,494.8,1647.6,506.2,1646.2,517.5z M1673.4,259.4
			c-0.3-2.5-0.6-4.9-0.9-7.4c0.3,1.4,0.6,2.8,0.9,4.2C1673.4,257.3,1673.4,258.4,1673.4,259.4z M1513.5-118.3
			c0.2,2.8,0.5,5.7,0.7,8.5c-0.1,0-0.2-0.1-0.3-0.1c-1.2-2.8-2.3-5.7-3.4-8.6C1511.4-118.2,1512.4-118.1,1513.5-118.3z M1172.2-23.7
			c-0.5-2.4-1-4.8-1.4-7.2c0.4,0.8,0.8,1.6,1.1,2.4c0.2,1.5,0.4,3,0.7,4.5C1172.4-23.9,1172.3-23.8,1172.2-23.7z M932.9-32.7
			c-0.1,0.4-0.1,0.8-0.2,1.2c-3.3,2.3-6.7,4.6-10,6.8c-0.1-0.3-0.2-0.5-0.3-0.8c3.5-2.5,6.9-5,10.4-7.5
			C932.9-32.9,932.9-32.8,932.9-32.7z M619.1-24.1c-0.2,0.1-0.3,0.2-0.4,0.3c0.1-0.4,0.2-0.8,0.3-1.3C619-24.7,619-24.4,619.1-24.1z
			 M477.2-87.6c-0.2,1.9-0.3,3.9-0.5,5.8c-0.7-1.6-1.3-3.2-2-4.8c0.5-4.3,1.1-8.5,1.6-12.8c0.4,1.5,0.9,3.1,1.3,4.6
			C477.5-92.4,477.3-90,477.2-87.6z M546.4,620.5c-0.2-2.8-0.5-5.7-0.7-8.5c0.1,0,0.2,0.1,0.3,0.1c1.2,2.8,2.3,5.7,3.4,8.6
			C548.5,620.3,547.4,620.3,546.4,620.5z M768.1,587c0.1-1.5,0.3-3,0.4-4.5c0.3,0.7,0.6,1.4,0.8,2c0,2.6,0,5.1,0,7.7
			C768.9,590.5,768.5,588.8,768.1,587z M847.4,567.7c-1-3.1-1.9-6.1-2.9-9.2c0.9-0.7,1.4-1.7,1.5-3c0.1-6.3,0.2-12.6,0.3-18.9
			c1.8,9.3,3.6,18.6,5.5,27.9C849.7,564.9,847.9,566,847.4,567.7z M886.2,518.2c1,4.9,2,9.9,3,14.8c-0.4-0.8-0.8-1.6-1.1-2.4
			C887.4,526.5,886.8,522.4,886.2,518.2z M931.8,467.9c0.8,1.8,1.6,3.6,2.4,5.4c0.2,1.5,0.5,3,0.7,4.6
			C933.9,474.6,932.8,471.3,931.8,467.9z M926.4,361.7c0.7-0.5,1.3-1.1,1.6-1.8c0.5,1.3,1,2.6,1.5,3.8c0.9,5.6,1.9,11.3,2.8,16.9
			c3.4,20,6.9,40,10.6,59.9c1.9,13,3.8,25.9,5.6,38.9c-1.3-2.8-2.6-5.6-3.8-8.4C939,434.5,932.9,398.1,926.4,361.7z M1582.7,589.8
			c0.2-1.9,0.3-3.9,0.5-5.8c0.7,1.6,1.3,3.2,2,4.8c-0.5,4.3-1.1,8.5-1.6,12.8c-0.4-1.5-0.9-3.1-1.3-4.6
			C1582.3,594.6,1582.5,592.2,1582.7,589.8z M1596.2-137.8c1.2-1.5,2.4-2.9,3.6-4.4c-0.6,3.1-1.2,6.2-1.9,9.4
			C1597.3-134.5,1596.7-136.2,1596.2-137.8z M1596.9-154.6c0-0.3-0.1-0.5-0.2-0.7c0.5-2.6,1-5.3,1.5-7.9c0.2,2.1,0.4,4.2,0.6,6.2
			C1598.2-156.1,1597.6-155.4,1596.9-154.6z M1565.8-175.8c0.2-2.9,0.4-5.9,0.6-8.8c0.6,1.7,1.2,3.5,1.8,5.2
			C1567.3-178.2,1566.5-177,1565.8-175.8z M1291.7-84.9c-0.2,2.7-0.5,5.5-0.7,8.2c-0.2-0.5-0.4-1.1-0.5-1.6c0-4,0-7.9,0.1-11.9
			C1290.9-88.3,1291.3-86.6,1291.7-84.9z M1131-113.1c-0.3,0.1-0.5,0.3-0.8,0.4c-0.6-2.7-1.3-5.3-1.9-8c0.1-0.1,0.2-0.1,0.3-0.2
			C1129.3-118.3,1130.2-115.7,1131-113.1z M934.6-61.9c-0.1,2.9-0.3,5.8-0.4,8.7c-0.5-1-1-2.1-1.6-3.1c-3.7-7.3-7.4-14.5-11.1-21.8
			c0.4-6.3,0.7-12.6,1.1-18.9C926.4-85.2,930.4-73.5,934.6-61.9z M928.5-41.5c-3.2,2.3-6.3,4.6-9.5,6.9c0.4-7.7,0.9-15.4,1.3-23.1
			C923.1-52.3,925.8-46.9,928.5-41.5z M866.8,4.3c-0.3,0.3-0.7,0.5-1,0.8c0,0,0,0,0,0c0-4.9-0.1-9.8-0.1-14.7
			c0.6,1.5,1.2,3.1,1.9,4.6C867.3-1.9,867,1.2,866.8,4.3z M625.8-37.3c-1-0.5-2.2-0.7-3.4-0.7c0.8-3.1,1.7-6.2,2.5-9.3
			C625.2-44,625.5-40.7,625.8-37.3z M550.3-35.6c0,1.8-0.1,3.5-0.1,5.3c-1.5,8.4-3.1,16.8-4.6,25.1c0.2-8.4,0.4-16.8,0.5-25.2
			c1.5-7.1,3-14.2,4.5-21.4C550.5-46.3,550.4-40.9,550.3-35.6z M400.8,4.6c-0.5-2.2-1-4.4-1.5-6.5c1.1-4.1,2.3-8.3,3.4-12.4
			C402-8.1,401.4-1.7,400.8,4.6z M711.9,616.4c0.5-5.5,0.9-11,1.3-16.4c0.7,2,1.4,4.1,2.1,6.1c-0.2,3.6-0.4,7.2-0.5,10.8
			c-0.1,2.2-0.2,4.5-0.4,6.7c-0.2-0.7-0.4-1.3-0.7-2C713.1,619.8,712.5,618.1,711.9,616.4z M791.3,579.7c-0.2-6.1-0.3-12.2-0.4-18.3
			c0.6,1.4,1.1,2.9,1.7,4.3C792.1,570.4,791.7,575.1,791.3,579.7z M790.5,531.3c0-5.1-0.1-10.2-0.1-15.2c0.2-0.1,0.4-0.1,0.7-0.2
			c1.5,5.5,3,11,4.5,16.5c-0.3,3.2-0.6,6.5-0.9,9.7C793.3,538.5,791.9,534.9,790.5,531.3z M803.6,561.6c1.2,4.1,2.3,8.2,3.5,12.4
			c0,0.2,0,0.4,0,0.5c-1.3-3.3-2.5-6.6-3.8-9.8C803.5,563.6,803.5,562.6,803.6,561.6z M858.5,503.9c-0.6-6.8-1.1-13.7-1.5-20.5
			c1.8,4.5,3.6,9.1,5.4,13.6c0.8,2,1.6,4,2.4,6c-1.2,2.6-2.6,5.2-4,7.7C860,508.4,859.2,506.1,858.5,503.9z M954.5,540
			c-1.5-10.9-3-21.9-4.6-32.8c1.1,2.4,2.3,4.7,3.4,7.1c1.8,12.9,3.6,25.9,5.4,38.8C957.3,548.7,955.9,544.3,954.5,540z
			 M1134.3,522.5c0-1-0.1-2-0.1-3.1c2.2,5.7,4.4,11.4,6.6,17.1c-0.2,4.3-0.5,8.6-0.7,12.9C1138.5,540.4,1136.5,531.4,1134.3,522.5z
			 M1153.3,522.2c0.4,0.8,0.9,1.7,1.3,2.5c0.4,3.4,0.9,6.8,1.3,10.2c-0.7-2.6-1.4-5.2-2.2-7.8
			C1153.5,525.5,1153.4,523.9,1153.3,522.2z M1250.3,664.8c0-1.8,0-3.6,0-5.4c0.4-0.4,0.8-0.7,1.2-1.1c0.1,0.6,0.2,1.2,0.4,1.7
			c0.1,3.4,0.1,6.8,0.2,10.2C1251.5,668.4,1250.9,666.6,1250.3,664.8z M1421.1,548C1421.2,548,1421.2,548,1421.1,548
			c0,1.2-0.1,2.4-0.1,3.5c-1.4,13.9-2.8,27.7-4.1,41.6c-0.1,0.3-0.1,0.5-0.2,0.8c0.1-8,0.2-15.9,0.3-23.9
			C1418.3,562.7,1419.7,555.4,1421.1,548z M1659,497.6c0.5,2.2,1,4.4,1.5,6.5c-1.1,4.1-2.3,8.3-3.4,12.4
			C1657.8,510.2,1658.5,503.9,1659,497.6z M1646.1-31.4c-0.4,0.6-0.9,1.2-1.3,1.8c-1.6-13.6-3.4-27.3-5.3-40.9
			c-0.3-5.2-0.6-10.5-0.9-15.7c1.3-4.8,2.8-9.5,4.2-14.2c1.4,8.7,2.8,17.5,4,26.2C1646.6-60,1646.3-45.7,1646.1-31.4z M1201.4-1.7
			c0.6,6.8,1.1,13.7,1.5,20.5c-1.8-4.5-3.6-9.1-5.4-13.6c-0.3-0.8-0.7-1.7-1-2.5c1.4-2.3,2.7-4.6,4-7
			C1200.8-3.4,1201.1-2.5,1201.4-1.7z M1047.4-124.1c-0.1,0.2-0.3,0.4-0.4,0.6c-2.4,1.6-4.7,3.2-7.1,4.8c1.8-6.7,3.6-13.4,5.3-20.1
			C1046-133.9,1046.7-129,1047.4-124.1z M956.7-154.7c-0.6-0.2-1.3-0.3-1.9-0.3c0-0.1,0-0.1-0.1-0.2c-0.5-1.2-1.4-2.1-2.5-2.6
			c1.4-7,2.7-14,4.1-21C956.5-170.7,956.7-162.7,956.7-154.7z M908.8-113.1c1.3-5.2,2.5-10.3,3.8-15.5c0,0,0,0.1,0,0.1
			c-1.7,7.9-3.4,15.8-5.1,23.7c-0.9-1.8-1.9-3.5-2.8-5.3C906.6-110.3,908.4-111.3,908.8-113.1z M909.7-58.9
			c-0.3-0.7-0.5-1.4-0.8-2.2c0.4-1.9,0.8-3.9,1.3-5.8C910-64.2,909.8-61.5,909.7-58.9z M908.2-33.2c-0.1,2.2-0.3,4.5-0.4,6.7
			c-0.9,0.7-1.9,1.4-2.8,2.1c-0.5-3.9-1-7.9-1.5-11.8c0.4-2,0.9-4,1.3-6C905.9-39.2,907.1-36.2,908.2-33.2z M883.1-62.1
			c-0.1-0.2-0.3-0.5-0.4-0.7c0-0.3,0.1-0.7,0.1-1C882.9-63.2,883-62.6,883.1-62.1z M884.8-23.1c-0.9-0.2-1.8-0.3-2.7-0.3
			c-0.1-2.4-0.3-4.8-0.4-7.1C882.8-28,883.8-25.5,884.8-23.1z M660.8-80.3c-0.4-0.2-0.7-0.3-1.1-0.5c0.2-0.7,0.4-1.4,0.6-2.1
			c0.3-0.1,0.6-0.1,0.9-0.2C661-82.1,660.9-81.2,660.8-80.3z M561.9-81.9c0.1-2.6,0.1-5.3,0.2-7.9c0.3-9.7,0.9-19.4,2.8-28.9
			c0.3,2.4,0.7,4.9,1,7.3C564.6-101.6,563.3-91.7,561.9-81.9z M375.9,259.7c0.4,1.7,1.8,2.7,3.4,3c0,0.2,0.1,0.4,0.1,0.6
			c-1.7-0.5-3.5-0.5-4.9,0.3c0.1-2.7,0.2-5.5,0.4-8.2C375.2,256.8,375.6,258.2,375.9,259.7z M453.8,561.9c0.8,1.8,1.6,3.6,2.5,5.4
			c1.7,6.5,3.5,13,5.2,19.5c0.1,0.5,0.3,0.9,0.6,1.2c-0.7,2.6-1.3,5.2-2,7.8c-1.8-5.7-3.7-11.3-5.5-17c-0.2-0.7-0.5-1.5-0.8-2.3
			C453.8,571.7,453.8,566.8,453.8,561.9z M725.4,634.2c0.3,0.9,0.7,1.8,1,2.7c-0.7,5.5-1.4,11.1-2,16.7c-0.1-0.3-0.2-0.6-0.3-0.9
			C724.5,646.5,724.9,640.4,725.4,634.2z M799.7,601.3c0.9-4.1,1.3-8.3,1.7-12.5c1,2.5,1.9,5,2.9,7.6c0.3,7.2,0.7,14.4,1,21.6
			c0,0.7-0.1,1.5-0.1,2.2c-2.2-5-4.3-10-6.5-15C799.1,603.9,799.5,602.6,799.7,601.3z M865.9,582.7c-0.2-0.9-0.4-1.8-0.6-2.7
			c0.9-0.9,1.8-1.7,2.7-2.6c0.4,1.9,0.7,3.8,1.1,5.8C868.1,582.7,867,582.6,865.9,582.7z M862.9,560.6c-0.4,0.3-0.8,0.6-1.2,1
			c-2-10.1-4-20.2-5.9-30.3c0.3,0,0.6,0,0.8-0.1c3.1,9.3,6.3,18.5,9.4,27.8C864.9,559.3,863.8,559.9,862.9,560.6z M871.3,541.6
			c-2.1-6.2-4.2-12.4-6.3-18.6c1.7-2.3,3.3-4.8,4.7-7.2c2.5,9.4,5,18.8,7.5,28.2C876.1,542,873.6,541.2,871.3,541.6z M1336.5,661.5
			c1.3,4.3,2.7,8.6,4,12.9c-0.5,2.6-1.1,5.3-1.6,7.9c-1.3-6.1-2.6-12.2-3.8-18.3C1335.6,663.1,1336.1,662.3,1336.5,661.5z
			 M1497.7,586c0.1,0.1,0.1,0.3,0.2,0.4c0,1.9-0.1,3.8-0.1,5.6c-0.3,9.7-0.9,19.4-2.8,28.9c-0.3-2.4-0.7-4.9-1-7.3
			C1495.2,604.4,1496.4,595.2,1497.7,586z M1511.9,590.6c0.1,0.5,0.2,1.1,0.3,1.6c-0.2-0.4-0.4-0.9-0.6-1.3
			C1511.7,590.8,1511.8,590.7,1511.9,590.6z M1683.9,242.5c-0.4-1.7-1.8-2.7-3.4-3c0-0.2-0.1-0.4-0.1-0.6c1.7,0.5,3.5,0.5,4.9-0.3
			c-0.1,2.7-0.2,5.5-0.4,8.2C1684.6,245.4,1684.3,244,1683.9,242.5z M1568.6-214c0.3-3.1,0.5-6.1,0.8-9.2c0.2,1,0.5,2,0.7,3
			c-0.1,3.2-0.1,6.4-0.1,9.6C1569.5-211.7,1569.1-212.8,1568.6-214z M1415.7-95.9c-0.8,11.5-1.5,23.1-2.3,34.6
			c-1.3,0.1-2.6,0.5-3.5,1.4c-0.5-2.3-1.1-4.6-1.6-6.8c-0.4-1.9-2.2-2.9-4.2-3.1c1.5-14.6,3-29.2,4.5-43.8
			C1411-107.7,1413.3-101.8,1415.7-95.9z M1232.1,27.9c0.9,8.6,1.9,17.3,2.8,25.9c-0.2,2.5-0.3,5.1-0.5,7.6
			c-0.2-0.5-0.3-0.9-0.5-1.4c-0.9-5.2-1.7-10.3-2.6-15.5C1231.6,38.9,1231.9,33.4,1232.1,27.9z M904.1-89.2
			c-0.7,3.2-1.4,6.4-2.1,9.6c-1.1-3-2.2-6-3.3-9c-1.6-4.6-3.5-9.3-5.1-14.1c-0.4-2.4-0.8-4.9-1.2-7.3c0.1-0.1,0.3-0.1,0.4-0.2
			C896.7-103.3,900.4-96.3,904.1-89.2z M709.9-57.9c-0.1-1.2-0.3-2.4-0.4-3.7c-0.1-1-0.2-2-0.4-3c1.1-11.4,2.1-22.8,3.2-34.2
			c0.5,3.9,0.9,7.7,1.4,11.6C712.4-77.4,711.1-67.7,709.9-57.9z M549.6-89.6c-1.2,0.5-2.1,1.4-2.5,2.8c-0.1,0.2-0.1,0.4-0.2,0.6
			c0.4-10.1,0.6-20.2,0.4-30.3c0.1-2.2,0.3-4.3,0.4-6.5C548.5-111.9,549.1-100.7,549.6-89.6z M454.6,613.3c0.2,0.7,0.5,1.5,0.7,2.2
			c-0.2,0.8-0.4,1.6-0.5,2.4C454.8,616.4,454.7,614.9,454.6,613.3z M470.2,598.8c0.9,2.1,1.8,4.1,2.7,6.2c-1,5.6-2.1,11.1-3.1,16.7
			c-1-2.7-2.1-5.3-3.1-8C467.8,608.6,469,603.7,470.2,598.8z M491.2,716.2c-0.3,3.1-0.5,6.1-0.8,9.2c-0.2-1-0.5-2-0.7-3
			c0.1-3.2,0.1-6.4,0.1-9.6C490.3,713.9,490.8,715,491.2,716.2z M644.2,598.1c0.2-3.2,0.4-6.5,0.6-9.7c1.8-7.1,3.9-14,6.4-20.8
			c0.1,0.4,0.2,0.9,0.3,1.3c0.4,1.9,2.2,2.9,4.2,3.1c-1.5,14.6-3,29.2-4.5,43.8C648.9,609.9,646.5,604,644.2,598.1z M783.3,627.7
			c-0.1-0.5-0.3-1.1-0.4-1.6c0.2-1.9,0.4-3.8,0.6-5.8c1.1,3,2.2,6,3.3,9C785.9,628.4,784.7,627.9,783.3,627.7z M869.1,598.7
			c-0.4-1.7-0.7-3.5-1.1-5.2c0.8-1.1,1.6-2.2,2.4-3.4c0.5,2.9,1.1,5.8,1.6,8.7C871.1,598.6,870.1,598.5,869.1,598.7z M1423.3,664.3
			c0.6-4.3,1.2-8.6,1.8-12.6c0.3,1,0.7,2,1,3c-0.9,3.5-1.8,7-2.6,10.5C1423.4,664.9,1423.4,664.6,1423.3,664.3z M1512.5,618.7
			c-0.1,2.1-0.3,4.3-0.4,6.4c-0.2-2.9-0.4-5.9-0.6-8.8C1511.9,617.1,1512.2,617.9,1512.5,618.7z M1502-150.6
			c-0.1,0.6-0.3,1.2-0.4,1.9c0-1.1,0.1-2.1,0.1-3.2C1501.8-151.5,1501.9-151,1502-150.6z M1479.8-135.7c-3.1-7.2-6.3-14.5-9.4-21.7
			c0.2-4.2,0.4-8.5,0.6-12.7c0.3-6.9,0.6-13.7,0.9-20.6c3,10.2,6,20.4,9.1,30.7C1480.1-151.9,1479.8-143.8,1479.8-135.7z
			 M1471.8-128.1c-0.2,3-0.5,6-0.7,9c-0.7-2.9-1.3-5.7-2-8.6c0.1-2,0.2-4,0.3-6C1470.1-131.8,1470.9-130,1471.8-128.1z M1452.2-88.6
			c-0.4-1.4-0.9-2.8-1.3-4.3c0.1-3.4,0.3-6.9,0.4-10.3c0.6,1.5,1.2,3.1,1.8,4.6C1452.8-95.3,1452.5-92,1452.2-88.6z M1399.9-134.4
			c-0.5,4.5-0.9,9-1.4,13.5c-0.3-6.2-0.6-12.5-0.8-18.7C1398.5-137.9,1399.2-136.1,1399.9-134.4z M1386.8-122.4
			c-0.5-1.3-0.9-2.7-1.4-4c0.2-10.7,0.4-21.4,0.5-32.1c0-0.5-0.1-1-0.2-1.5c0.1-1.8,0.3-3.6,0.4-5.5c0.4,14.3,1,28.6,1.6,42.8
			C1387.4-122.5,1387.1-122.4,1386.8-122.4z M1334.5-132.1c-0.4-1.1-0.8-2.2-1.2-3.3c0.1-7.2,0.3-14.5,0.4-21.7
			c0.7,2.2,1.4,4.4,2.1,6.6C1335.4-144.4,1334.9-138.2,1334.5-132.1z M1276.9-123.9c-0.2,1.9-0.4,3.8-0.6,5.8c-1.1-3-2.2-6-3.3-9
			c0.9,0.9,2.1,1.4,3.4,1.6C1276.6-125,1276.8-124.4,1276.9-123.9z M1268.6-77.5c0.2,6.1,0.3,12.2,0.4,18.3
			c-0.6-1.4-1.1-2.9-1.7-4.3C1267.7-68.2,1268.1-72.9,1268.6-77.5z M1269.3-29.1c0,5.1,0.1,10.2,0.1,15.2c-0.2,0.1-0.4,0.1-0.7,0.2
			c-1.5-5.5-3-11-4.5-16.5c0.3-3.2,0.6-6.5,0.9-9.7C1266.6-36.3,1268-32.7,1269.3-29.1z M1256.2-59.4c-1.2-4.1-2.3-8.2-3.5-12.4
			c0-0.2,0-0.4,0-0.5c1.3,3.3,2.5,6.6,3.8,9.8C1256.4-61.4,1256.3-60.4,1256.2-59.4z M1233.7-1.2c-0.1,0-0.1,0-0.2,0
			c0-0.2,0-0.4,0-0.6C1233.6-1.5,1233.6-1.4,1233.7-1.2z M1194.9-20.8c-1.7,2.3-3.3,4.8-4.7,7.2c-0.8-3-1.6-6-2.4-9
			c1.8-1.1,3.6-2.2,5.4-3.2C1193.8-24.1,1194.3-22.5,1194.9-20.8z M930.9-128.7c-0.3-0.6-0.7-1.2-1-1.8c0.5-1.7,0.9-3.4,1.4-5
			C931.1-133.2,931-131,930.9-128.7z M899.1-120.4c-0.5-1-1.1-2-1.6-3c1.5-6.8,3.2-13.6,4.8-20.3
			C901.3-135.9,900.2-128.1,899.1-120.4z M865.1-71.1c1.5,3.7,3,7.3,4.5,11c0.3,5.7,0.5,11.4,0.8,17.1c-0.2,2-0.3,4.1-0.5,6.1
			c-1.5-2.4-3.1-4.9-4.6-7.3C865.3-53.1,865.2-62.1,865.1-71.1z M736.2-94.4c-1.7,0.6-3,1.9-3.2,3.8c-0.6,5.1-1.3,10.2-1.9,15.4
			c0,0.1,0,0.1,0,0.2c-0.2-1.9-0.5-3.8-0.7-5.7c1.7-24.9,3.3-49.8,5-74.7c1.7,13.5,3.5,26.9,5.3,40.4
			C739.2-108.1,737.7-101.2,736.2-94.4z M631.2-126.3c-2.2,16.1-4.4,32.2-6.6,48.3c-1.3,0.7-2.1,1.9-2,3.5c0.2,2.3,0.4,4.6,0.6,7
			c-0.5,4-1.1,8-1.6,12c-1.1-0.2-2.2-0.1-3.2,0.2c-0.1-11.7-0.1-23.4-0.2-35c3.9-15.7,7.8-31.3,11.8-47c0.9-0.9,1.4-2.2,1-3.8
			c0,0,0-0.1,0-0.1c2-8.1,4.1-16.2,6.1-24.4C634.8-148.7,631.7-129.7,631.2-126.3z M384.5,534c0.3,8.5,0.6,17,0.9,25.5
			c0.1,1.8,1.2,3.1,2.6,3.7c-0.1,4.2-0.2,8.5-0.3,12.7c0-0.4-0.1-0.8-0.1-1.3c-0.3-3.8-6-5.5-8.9-3.5
			C380.7,558.7,382.6,546.3,384.5,534z M557.9,652.8c0.1-0.6,0.3-1.2,0.4-1.9c0,1.1-0.1,2.1-0.1,3.2
			C558,653.7,557.9,653.2,557.9,652.8z M580,637.8c3.1,7.2,6.3,14.5,9.4,21.7c-0.2,4.2-0.4,8.5-0.6,12.7c-0.3,6.9-0.6,13.7-0.9,20.6
			c-3-10.2-6-20.4-9.1-30.7C579.7,654.1,580.1,646,580,637.8z M588.1,630.3c0.2-3,0.5-6,0.7-9c0.7,2.9,1.3,5.7,2,8.6
			c-0.1,2-0.2,4-0.3,6C589.7,634,588.9,632.1,588.1,630.3z M659.9,636.6c0.5-4.5,0.9-9,1.4-13.5c0.3,6.2,0.6,12.5,0.8,18.7
			C661.4,640.1,660.6,638.3,659.9,636.6z M673,624.5c0.5,1.3,0.9,2.7,1.4,4c-0.2,10.7-0.4,21.4-0.5,32.1c0,0.5,0.1,1,0.2,1.5
			c-0.1,1.8-0.3,3.6-0.4,5.5c-0.4-14.3-1-28.6-1.6-42.8C672.4,624.7,672.7,624.6,673,624.5z M926,599.5c2.3,9.3,4.5,18.7,6.8,28
			c-3.1-9.8-6.1-19.6-9.1-29.5C924.2,598.7,925.1,599.2,926,599.5z M1434.4,691.7c-0.6,6.2-1.2,12.3-1.8,18.5
			c-0.5-2.3-0.9-4.5-1.4-6.8C1432.2,699.5,1433.3,695.6,1434.4,691.7z M1647.7-156.7c-0.8-1.5-2.9-2.2-4.9-2.1
			c-0.1-0.5-0.2-1-0.3-1.5c0.6-10.5,0.9-21.8,3-32.4c1.7,13.9,3.3,27.8,5,41.6C1649.6-153,1648.7-154.8,1647.7-156.7z M1499.6-194.6
			c0,0.1,0,0.2,0.1,0.2c0,0-0.1,0-0.1,0C1499.6-194.5,1499.6-194.5,1499.6-194.6z M1455.5-139.3c0.2,0.9,0.4,1.7,0.6,2.6
			c-0.4,4.6-0.7,9.3-1.1,13.9c-0.9-2.2-1.7-4.5-2.6-6.7c0.3-6.3,0.5-12.5,0.8-18.8C1454-145.1,1454.9-142.1,1455.5-139.3z
			 M1417.3-129.7c-1.5-5.1-2.9-10.2-4.4-15.3c1.4,3.4,2.8,6.7,4.2,10.1C1417.2-133.2,1417.2-131.4,1417.3-129.7z M1310.5-161.8
			c-2-6-4-12.1-6-18.1c2.1,5.2,4.3,10.4,6.3,15.6C1310.7-163.4,1310.6-162.6,1310.5-161.8z M1260.1-99.1c-0.9,4.1-1.3,8.3-1.7,12.5
			c-3.7-9.7-7.4-19.3-11-29c-4.3-16.3-8.6-32.6-12.9-48.9c8.9,20.5,17.8,41,26.8,61.5C1260.8-101.7,1260.4-100.4,1260.1-99.1z
			 M1235.8-44.3c0,4.7,0,9.4,0,14c-0.2-0.7-0.5-1.5-0.7-2.2C1235.4-36.4,1235.6-40.4,1235.8-44.3z M1185.3-31.9
			c-0.9-3.3-1.8-6.6-2.6-9.9c1.1,2,3.6,2.7,5.9,2.4c0.5,1.6,1.1,3.2,1.6,4.8C1188.5-33.7,1186.9-32.8,1185.3-31.9z M1018.9-177.5
			c-0.4,1.9-0.8,3.7-1.2,5.6c-1-6.7-2-13.3-3.2-20c0.4-1,0.7-2.1,1.1-3.1C1017.3-189.2,1018.3-183.4,1018.9-177.5z M1010.1-123.8
			c-0.7,6.3-1.2,12.7-1.6,19c-0.3,2.3-0.4,4.6-0.4,6.9c0,0.1,0,0.1,0,0.2c-3.3-15.5-6.6-31-10-46.5c1.7-5.4,3.4-10.7,5.2-16.1
			C1005.7-148.1,1007.9-135.9,1010.1-123.8z M981.6-125.9c-0.3,1-0.6,2-0.9,3.1c-1.3-3.6-2.6-7.1-3.9-10.6c0.7-2.8,1.4-5.6,2.1-8.5
			C979.8-136.6,980.7-131.3,981.6-125.9z M971.5-156.3c-1.1-0.1-2.2,0.1-3.2,0.5c0.7-11,1.4-21.9,1.6-32.9c0-0.7,0-1.4,0-2.1
			c1.5,7.7,3,15.5,4.4,23.2C973.4-163.8,972.5-160,971.5-156.3z M963-225c-1.5-1.2-3.8-1.7-5.7-1.2c0,0-0.1-0.1-0.1-0.1
			c0.8-4.2,1.7-8.3,2.9-12.4C961-234.2,962-229.6,963-225z M825-151.5c-0.6-0.8-1.3-1.6-1.9-2.4c0.6-2.3,1.3-4.6,2-6.9
			C825.1-157.7,825.1-154.6,825-151.5z M723.3-136.2c-0.1-1.1-0.3-2.1-0.4-3.2c0.2-0.3,0.5-0.7,0.7-1
			C723.5-139,723.4-137.6,723.3-136.2z M642.9-67.9c-1.4,7.3-2.8,14.7-4.2,22c0,0,0,0,0,0c0-1.2,0.1-2.4,0.1-3.6
			c1.4-13.9,2.8-27.7,4.1-41.6c0.1-0.3,0.1-0.5,0.2-0.8C643.1-83.8,643-75.8,642.9-67.9z M642.8-201.6c-0.6-0.2-1.2-0.3-1.8-0.4
			c-0.3,0-0.7-0.1-1.1-0.1c1-3.5,2-7,3-10.5C643-209,642.9-205.3,642.8-201.6z M505.2-122.7c-0.5,4.4-1,8.9-1.5,13.3
			c-4.9-9.4-8.7-19.4-12-29.5c0-0.4,0.1-0.7,0.1-1.1c0.9-12.1,1.9-24.3,2-36.4c3.3,13.7,6.9,27.4,10.7,41
			C505-131.2,505.2-126.9,505.2-122.7z M444.6-150c-0.5-0.1-0.9-0.1-1.4-0.1c1-5.3,2-10.5,3.1-15.8
			C445.7-160.6,445.1-155.3,444.6-150z M412.1,658.9c0.8,1.5,2.9,2.2,4.9,2.1c0.1,0.5,0.2,1,0.3,1.5c-0.6,10.5-0.9,21.8-3,32.4
			c-1.7-13.9-3.3-27.8-5-41.6C410.3,655.1,411.2,657,412.1,658.9z M443.5,661.4c0-1.6,0.1-3.2,0.1-4.8c0.1-5.1,0.2-10.1,0.3-15.2
			c0.2-2.1,0.5-4.1,0.7-6.2c0.1,0,0.2,0,0.3,0c0.1,1.6,0.2,3.1,0.3,4.7c0.4,6.1,0.9,12.2,1.5,18.3c-0.2,1.2-0.4,2.5-0.7,3.7
			C445.3,661.6,444.4,661.4,443.5,661.4z M460.3,652c-0.1-1.1-0.5-1.9-1.2-2.6c0.9-4.8,1.9-9.6,2.8-14.3c1.1,3.3,2.3,6.6,3.4,10
			c-1.3,6.8-2.5,13.6-3.8,20.3C461.2,660.9,460.8,656.5,460.3,652z M560.2,696.8c0-0.1,0-0.2-0.1-0.2c0,0,0.1,0,0.1,0
			C560.3,696.6,560.2,696.7,560.2,696.8z M604.3,641.5c-0.2-0.9-0.4-1.7-0.6-2.6c0.4-4.6,0.7-9.3,1.1-13.9c0.4,1.2,0.9,2.3,1.3,3.5
			c0.4,2.6,0.7,5.2,1.1,7.9c-0.2,4.7-0.4,9.5-0.6,14.2C605.9,647.3,605,644.2,604.3,641.5z M642.5,631.9c1.5,5.1,2.9,10.2,4.4,15.3
			c-1.4-3.4-2.8-6.7-4.2-10.1C642.7,635.4,642.6,633.6,642.5,631.9z M749.3,664c2,6,4,12.1,6,18.1c-2.1-5.2-4.3-10.4-6.3-15.6
			C749.1,665.6,749.2,664.8,749.3,664z M814,634.2c1-0.4,1.8-1.1,2.3-2c3,11.5,6.1,23,9.1,34.5c-4.1-9.5-8.2-18.9-12.3-28.4
			C813.4,636.9,813.7,635.6,814,634.2z M873.9,608.4c0.1,0.6,0.2,1.1,0.3,1.7c-0.3-0.1-0.5-0.2-0.8-0.2
			C873.6,609.3,873.7,608.8,873.9,608.4z M1152.4,607c1.1,2.2,2.3,4.3,3.5,6.5c1.2,5.8,2.4,11.6,3.8,17.4
			c1.8,11.8,3.6,23.7,5.5,35.5c-5.2-18.2-9.7-36.5-13.6-55.1C1151.7,609.8,1152,608.4,1152.4,607z M1315.3,669.9
			c-0.1-3.3-3.6-4.8-6.6-4.2c-0.8-4.3-1.7-8.5-2.7-12.8c1.2,0.3,2.4,0.3,3.4,0c2.8,7.6,5.6,15.1,8.4,22.7c-0.7,1.6-1.4,3.3-2.1,4.9
			C1315.5,677.1,1315.4,673.5,1315.3,669.9z M1554.6,624.9c0.5-4.4,1-8.9,1.5-13.3c4.9,9.4,8.7,19.4,12,29.5c0,0.4-0.1,0.7-0.1,1.1
			c-0.9,12.1-1.9,24.3-2,36.4c-3.3-13.7-6.9-27.4-10.7-41C1554.9,633.4,1554.7,629.1,1554.6,624.9z M1615.3,652.2
			c0.5,0.1,0.9,0.1,1.4,0.1c-1,5.3-2,10.5-3.1,15.8C1614.2,662.8,1614.7,657.5,1615.3,652.2z M1695.8-20.3c1,17.8,1.8,35.7,2.4,53.5
			c-2.6,0.1-5.1,1.5-5.1,4.3c-0.9,31.9-1.1,63.7-0.8,95.6c-2.1-50-4.3-100-6.4-149.9c-0.1-1.4-0.7-2.4-1.6-3.1
			c2.2-14.4,4.5-28.7,6.7-43.1c2,3.4,2.6,8.3,2.9,11.6C1694.8-41.1,1695.2-30.7,1695.8-20.3z M1583.4-266c0.4-4.5,0.9-9.1,1.4-13.6
			c3.2,22.2,5.9,44.5,8.3,66.8c-2.1,4-4,8.1-5.7,12.3c-1.2-0.2-2.5-0.2-3.7,0.2c-0.6-6.9-1.5-13.8-2.9-20.6c0.1-3.2,0.2-6.3,0.3-9.5
			C1581.6-242.3,1582.3-254.2,1583.4-266z M1415.1-178.2c0.2,0.7,0.4,1.3,0.5,2c0.1,3.8,0.3,7.6,0.4,11.4c-0.6-1.5-1.2-3-1.9-4.5
			C1414.5-172.2,1414.8-175.2,1415.1-178.2z M1372.1-197.2c-1.4,0.7-2.4,1.9-2.6,3.6c-0.3,4.2-0.6,8.4-0.9,12.6
			c-4.5-16.2-8.5-32.5-12.1-48.9C1361.9-219,1367-208.1,1372.1-197.2z M1356.6-172.4c-1.3,5.5-2.5,11-3.4,16.5
			c-1.7-5.5-3.3-11.1-4.9-16.7c0.1-2.7,0.3-5.3,0.4-8c0.1-2.4-1.7-3.8-3.9-4.2c-4.9-17.4-9.5-34.8-13.9-52.3
			C1339.6-215.6,1348.2-194,1356.6-172.4z M1274.7-247.1c5.7,11.9,11.2,23.9,16.5,36c-3.5-0.9-8.1,1.1-6.9,5.2
			c2.9,10.3,5.9,20.7,8.8,31c-0.7-1.8-1.3-3.5-2-5.3c-5.3-13.8-10.6-27.5-16-41.2C1274.4-230,1274.2-238.6,1274.7-247.1z
			 M1260.8-163.8c2.2,7.5,4.5,14.9,7,22.3c-2.1-5.6-4.2-11.2-6.3-16.8c-0.6-3-1.2-6-1.9-9C1260-166.2,1260.4-165,1260.8-163.8z
			 M1246.1-169.1c1.7,4.3,3.3,8.7,5,13c0.5,2.3,1,4.6,1.4,6.9c-9.5-21.8-18.9-43.5-28.4-65.3
			C1235.5-202.5,1240.6-183.4,1246.1-169.1z M1225.9-92c0.3,1.2,1.1,2,2.1,2.5c-0.6,9.3-1.2,18.6-1.8,27.9c-1.5-4.8-3-9.6-4.5-14.4
			c-7.1-30.3-13.8-60.8-19.9-91.3C1210.7-142.5,1218.8-117.4,1225.9-92z M1187.4-112.8c5,24.6,10,49.1,14.8,73.7
			c-0.8-0.2-1.6-0.3-2.4-0.2c-3.5-10.3-7-20.6-10.5-30.8c1.8-0.9,3-2.5,2.6-4.8c-3.8-19.9-7.5-39.9-11.3-59.8
			C1182.9-127.5,1185.1-120.2,1187.4-112.8z M1046.3-216.8c3.6,7.8,4.9,17,7,25.3c1,3.9,1.9,7.8,2.8,11.6c-0.6-0.3-1.2-0.6-1.9-0.7
			c-1.9-3.2-8.3-3.2-9.9,0.8c-0.7,1.7-1.5,3.5-2.2,5.2c-1,0.8-1.7,1.8-1.6,3c0,0.2,0.1,0.4,0.1,0.5c-0.6,1.3-1.1,2.7-1.7,4
			c0-11.8-0.2-23.6-0.7-35.5c-0.1-2.7-2.3-4.1-4.7-4.3c0.4-7.3,0.9-14.6,1.3-21.9C1039.7-229.6,1044.9-220,1046.3-216.8z M991-190.5
			c0.9-3.6,3.3-18.7,8.6-22.1c0.5,2.2,1,4.5,1.4,6.7c-2.9,0.2-5.6,2.2-5,5.5c1.2,6.3,2.3,12.7,3.5,19c-2,5.6-3.9,11.2-5.8,16.9
			c-0.5-2.3-1-4.6-1.5-6.9c-0.5-2.4-2.9-3.4-5.2-3.2C988.4-179.9,989.7-185.2,991-190.5z M943.8-209c-0.7,6.3-1.2,12.6-1.7,18.9
			c0,0.5-0.1,0.9-0.1,1.4c-2.1-0.7-4.7-0.4-6.3,0.9c0.3-2.2,0.6-4.3,0.9-6.5c0.3-2.2-1.3-3.6-3.4-4.1
			C936.7-202,940.2-205.5,943.8-209z M809.2-142.3c-0.3,1.7-0.6,3.5-0.9,5.2c0-1.3,0-2.6-0.1-3.9
			C808.5-141.5,808.8-141.9,809.2-142.3z M778-172.5c-0.3,0.5-0.5,1-0.5,1.5c-2.8,23.1-5.5,46.2-8.3,69.4c-0.1-1-0.2-2-0.3-3
			c-0.3-10.2-0.6-20.4-0.8-30.6c-0.1-9.9-0.3-19.9-0.6-29.8c-0.1-5.7-10.8-5.8-10.7,0c0.1,5.3,0.2,10.6,0.3,15.8
			c-2.6-2.5-8.5-3-9.4,1.3c-0.1,0.3-0.1,0.6-0.2,0.8c-0.6-4-1.3-8-1.9-12c-0.6-3.8-5.8-5.1-8.7-3.7c2.7-5.2,5.1-10.4,7.3-15.8
			c0.1,3.6,0.2,7.1,0.3,10.7c0.2,4.8,7.5,5.7,10,2.2c8.9-12.5,17.1-25.5,24.5-38.9C778.7-193.8,778.4-183.2,778-172.5z M727.4-211.9
			c0.3-1.2,0.7-2.9,1.3-4.6c-1.2,18-2.4,36-3.6,54c-1.4,2.5-2.8,5-4.2,7.4c-0.7-5.1-1.3-10.1-2-15.2c1.4-6.9,2.8-13.9,4.2-20.8
			C724.5-198,725.7-205,727.4-211.9z M660.7-154c-0.8,8.2-1.7,16.4-2.5,24.6c-1.6,3.8-3,7.8-4.2,11.8c0-4.1,0-8.2-0.1-12.2
			C656.2-137.9,658.5-145.9,660.7-154z M565.4-172.6c-0.4-1.8-0.8-3.5-1.2-5.3c0-0.5-0.1-1-0.1-1.5
			C564.5-177.1,565-174.8,565.4-172.6z M424.5-152.7c-0.8-2.1-1.7-4.3-2.5-6.4c-0.4-1-1.2-1.7-2.3-2.3c-1.1-3.5-2.1-7-3.2-10.5
			c-0.3-4.4-0.6-8.9-0.9-13.3c-0.1-0.9-0.4-1.7-1-2.4c-0.2-4.8-0.4-9.7-0.6-14.5c3.9,12,7.8,24,11.7,36
			C425.3-161.6,424.9-157.1,424.5-152.7z M361.7,469c2.6-0.1,5.1-1.5,5.1-4.3c0.9-31.9,1.1-63.7,0.8-95.6c2.1,50,4.3,100,6.4,149.9
			c0.1,1.4,0.7,2.4,1.6,3.1c-2.2,14.4-4.5,28.7-6.7,43.1c-2-3.4-2.6-8.3-2.9-11.6c-1-10.3-1.4-20.8-1.9-31.2
			C363.1,504.7,362.3,486.8,361.7,469z M372.6,577.9c1.4,0.1,2.8-0.3,3.8-1c-1.5,7.3-3.1,14.7-4.6,22c0.3-6.7,0.5-13.5,0.8-20.2
			C372.6,578.4,372.6,578.1,372.6,577.9z M364.7,731.2c0.3-3.7,0.7-7.4,1.1-11.1c0.3,4.2,0.5,8.4,0.8,12.6
			C366.2,732.1,365.5,731.5,364.7,731.2z M476.4,768.2c-0.4,4.5-0.9,9.1-1.4,13.6c-3.8-26.2-6.8-52.6-9.6-78.9
			c2.3-12.6,4.7-25.2,7-37.7c1.1,3.2,2.3,6.5,3.5,9.7c-1.1,16.2-0.1,32.4,3.1,48.3c-0.1,3.2-0.2,6.3-0.3,9.5
			C478.3,744.5,477.5,756.4,476.4,768.2z M644.7,680.4c-0.2-0.7-0.4-1.3-0.5-2c-0.1-3.8-0.3-7.6-0.4-11.4c0.6,1.5,1.2,3,1.9,4.5
			C645.3,674.4,645,677.4,644.7,680.4z M687.7,699.4c1.4-0.7,2.4-1.9,2.6-3.6c0.3-4.2,0.6-8.4,0.9-12.6c4.5,16.2,8.5,32.5,12.1,48.9
			C698,721.2,692.8,710.3,687.7,699.4z M703.3,674.6c1.3-5.5,2.5-11,3.4-16.5c1.7,5.5,3.3,11.1,4.9,16.7c-0.1,2.7-0.3,5.3-0.4,8
			c-0.1,2.4,1.7,3.8,3.9,4.2c4.9,17.4,9.5,34.8,13.9,52.3C720.2,717.8,711.6,696.2,703.3,674.6z M785.2,749.3
			c-5.7-11.9-11.2-23.9-16.5-36c3.5,0.9,8.1-1.1,6.9-5.2c-2.9-10.3-5.9-20.7-8.8-31c0.7,1.8,1.3,3.5,2,5.3
			c5.3,13.8,10.6,27.5,16,41.2C785.5,732.2,785.7,740.8,785.2,749.3z M799.1,666c-2.1-6.9-4.2-13.8-6.5-20.6c0,0,0,0,0.1,0
			c1.9,5.1,3.8,10.1,5.7,15.2c0.6,3,1.2,6,1.9,9C799.9,668.3,799.5,667.2,799.1,666z M813.7,671.2c-1.7-4.3-3.3-8.7-5-13
			c-0.3-1.4-0.6-2.8-0.9-4.2c0.1-0.2,0.3-0.4,0.4-0.6c9.2,21.1,18.3,42.1,27.5,63.2C824.3,704.7,819.3,685.6,813.7,671.2z
			 M849.2,644.1c1.1,0.7,2.5,1.1,3.8,1c1.7,8.1,3.4,16.3,5,24.5C855,661.1,852.1,652.6,849.2,644.1z M874.2,620.8
			c0.5-0.8,1-1.7,1.5-2.6c1.2,6.2,2.3,12.5,3.5,18.7C877.6,631.6,875.9,626.2,874.2,620.8z M1013.5,719c-3.6-7.8-4.9-17-7-25.3
			c-1-3.9-1.9-7.8-2.8-11.6c3,1.8,8.4,0.2,8.7-3.7c1-0.1,2-0.2,3-0.5c0.4-0.1,0.8-0.2,1.1-0.4c2.9,13.4,5.9,26.7,9.2,40
			c-0.3,4.4-0.5,8.9-0.8,13.3C1020.2,731.8,1015,722.2,1013.5,719z M1124.4,666.4c1.8,11.2,3.7,22.4,5.5,33.6
			c-1.2-4.3-2.5-8.6-3.7-12.9C1125.6,680.2,1125,673.3,1124.4,666.4z M1267.1,734c-1-5.9-2.1-11.7-3.3-17.6c0.8-0.7,1.3-1.7,1.3-2.9
			c0-1.2-0.1-2.4-0.1-3.5c1.7,5.7,3.6,11.4,5.4,17.1C1269.2,729.4,1268.2,731.7,1267.1,734z M1281,702.2c0-0.3,0-0.6,0-1
			c0.4,0.9,0.9,1.9,1.3,2.8c-0.2,0.4-0.4,0.7-0.6,1.1C1281.5,704.1,1281.2,703.1,1281,702.2z M1416.9,714.8c0-3,0-6.1,0.1-9.1
			c0.5,1.3,0.9,2.6,1.4,4C1417.9,711.4,1417.4,713.1,1416.9,714.8z M1494.4,674.8c0.4,1.8,0.8,3.5,1.2,5.3c0,0.5,0.1,1,0.1,1.5
			C1495.3,679.3,1494.9,677,1494.4,674.8z M1635.4,654.9c0.8,2.1,1.7,4.3,2.5,6.4c0.4,1,1.2,1.7,2.3,2.3c1.1,3.5,2.1,7,3.2,10.5
			c0.3,4.4,0.6,8.9,0.9,13.3c0.1,0.9,0.4,1.7,1,2.4c0.2,4.8,0.4,9.7,0.6,14.5c-3.9-12-7.8-24-11.7-36
			C1634.5,663.8,1635,659.3,1635.4,654.9z"/>
		<path id="XMLID_581_" class="st1" d="M1705.1,281c6.7,0,6.8-8.7,0-8.7C1698.3,272.3,1698.3,281,1705.1,281z"/>
	</g>
</g>
</svg>
