<?xml version="1.0" encoding="utf-8"?>
<!-- Generator: Adobe Illustrator 19.0.0, SVG Export Plug-In . SVG Version: 6.00 Build 0)  -->
<svg version="1.1" id="Layer_1" xmlns="http://www.w3.org/2000/svg" xmlns:xlink="http://www.w3.org/1999/xlink" x="0px" y="0px"
	 viewBox="390 -137 1280 775" style="enable-background:new 390 -137 1280 775;" xml:space="preserve">
<style type="text/css">
	.st0{clip-path:url(#XMLID_2_);}
	.st1{fill:#00A78D;}
	.st2{fill:#E86547;}
</style>
<g id="XMLID_1675_">
	<defs>
		<rect id="XMLID_1676_" x="389.8" y="-136" width="1279.6" height="775"/>
	</defs>
	<clipPath id="XMLID_2_">
		<use xlink:href="#XMLID_1676_"  style="overflow:visible;"/>
	</clipPath>
	<g id="XMLID_1677_" class="st0">
		<path id="XMLID_2197_" class="st1" d="M354.8,221.3c-6.7,0-6.8,8.7,0,8.7C361.5,230,361.5,221.3,354.8,221.3z"/>
		<path id="XMLID_1679_" class="st2" d="M1732.2,174.6c-0.2-2.5-2.2-3.9-4.4-4.2c-1-32.1-2.8-64.2-5.5-96.3c-0.5-5.9-9.8-5.5-10.7,0
			c-0.5,3-1,6-1.4,9c-0.6-37.3-2-74.6-4.2-111.8c-0.8-14,1.8-43.7-17.7-46.8c-3.2-0.5-6.3,0.8-6.8,4.2c-2.1,13.2-4.1,26.4-6.2,39.7
			c-0.3-8.5-0.6-17-0.9-25.5c0-0.8-0.3-1.5-0.7-2.1c0.1-0.3,0.3-0.6,0.4-0.8c1-2.3-0.3-4-2.2-4.8c0.2-10.1,0.3-20.3,0.4-30.4
			c2.6,2.9,9.2,1.9,9.8-2.7c2.3-19.6,4.1-39.3,5.7-59c2.2,3.6,9.4,2.8,10.1-2c2.9-21.1,5.4-42.3,7.4-63.5c1.1-0.5,2-1.4,2.3-2.8
			c2.1-9.3,2.1-18.3,0.1-27.6c-1.1-5.1-10.2-3.8-10.5,1.2c-0.1,1.8-0.3,3.5-0.4,5.3c-1,0.7-1.8,1.8-2,3.2c-0.5,3.2-1.1,6.4-1.6,9.7
			c-0.2-3.5-0.5-7.1-0.7-10.6c-0.4-5.7-10.6-5.8-10.7,0c-0.4,15.2-1.1,30.5-1.9,45.7c-0.5-23.4-1.1-46.9-1.6-70.3
			c-0.1-5.7-10.7-5.8-10.7,0c-0.2,25.2-0.7,50.4-1.6,75.7c-0.3-2.9-0.6-5.7-1-8.6c-0.6-4.8-7.9-5.7-10.1-2.2
			c-0.4-3.6-0.9-7.3-1.3-10.9c-0.5-4.4-7.6-6.2-10-2.2c-9.8,16.2-10.2,35.4-11.6,53.7c-0.1,0.8-0.1,1.6-0.2,2.5
			c-0.2,0.7-0.4,1.5-0.6,2.2c-0.3-4.1-0.6-8.2-0.8-12.3c-0.1-2-1.3-3.2-2.9-3.8c0.5-16.5,1.1-33.1,1.8-49.6
			c1.3-29.7,3-59.4,5.1-89.1c0.4-5.8-10.1-5.7-10.7,0c-2.1,18.9-4.2,37.9-6.5,56.8c-0.8-16.8-1.7-33.7-2.5-50.5
			c-0.3-5.7-10.8-5.8-10.7,0c0.2,27.1-0.1,54.3-0.9,81.4c-0.2,0-0.4,0.1-0.7,0.1c-2.9-25.1-6.1-50.2-10.1-75.2
			c-0.6-3.6-4.8-5.6-8.1-3.8c-9.1,5-9.1,15.8-10.2,25.1c-0.1,0.8-0.2,1.5-0.2,2.3c-2.6-2.4-9.1-1.4-9.7,3
			c-1.7,12.6-3.5,25.2-5.2,37.8c-0.5,1.9-1,3.7-1.4,5.6c-2.9,0.3-5.5,2.2-4.5,5.4c0.6,2,1.2,3.9,1.9,5.9c-0.8,3.8-1.6,7.6-2.2,11.4
			c-0.1,0.3-0.2,0.7-0.2,1c-1.3-4.4-2.8-8.7-4.5-12.9c-1.8-4.5-10.3-4.2-10.5,1.2c-0.2,3.5-0.3,7-0.4,10.5c-1.6-0.6-3.4-0.6-4.9,0
			c0.3-11.1,0.5-22.2,0.5-33.4c0-5.1-9.4-6-10.5-1.2c-3.7,16.3-7.3,32.7-10.8,49c-0.4-1-0.8-2.1-1.2-3.1c-1.6-3.9-7.8-3.9-9.9-1
			c2-17.9,3.9-35.7,5.9-53.6c0.6-5.7-9.9-5.6-10.7,0c-3.5,22.3-6.7,44.7-9.5,67.2c-1.9-5.1-3.7-10.3-5.5-15.4c-1.1-3-5-3.7-7.7-2.6
			c0.4-9.8,0.9-19.5,1.3-29.3c0.3-5.7-10.3-5.7-10.7,0c-1.3,19.3-2.7,38.5-4.1,57.8c-1.6,0.1-3.2,0.8-4.2,2.1
			c-0.2,0.3-0.4,0.5-0.5,0.8c0.7-17.2,1.4-34.4,2.2-51.7c0.2-5.8-10.2-5.7-10.7,0c-0.6,6-1.2,12-1.7,18c-2.9-2.2-8.7-1.1-9.1,3.2
			c-0.4,4.1-0.8,8.1-1.2,12.2c-2,0.4-3.7,1.7-4,3.7c-1.3-3-2.6-6-3.8-9.1c-0.3-8-0.6-16-0.8-24.1c-0.1-4.2-6.3-5.6-9.2-3.1
			c-0.8,0.7-1.5,1.5-2.2,2.4c-3.6-1.7-9,0.1-7.8,4.8c0.7,2.7,1.3,5.3,2,8c-1.2,5.4-1.5,11.2-2,16.7c0,0.1,0,0.1,0,0.2
			c-3.2-7.8-6.5-15.6-9.7-23.4c0-0.8,0-1.6,0-2.3c0-1.7-1-2.9-2.4-3.6c-1.8-4.3-3.6-8.7-5.4-13c-2.1-5-12-3.6-10.3,2.3
			c1.6,5.5,3.1,11,4.7,16.5c-1.4,2.2-2.3,4.7-3.1,7.3c-9.7-20.7-19.8-41.2-30.2-61.6c-2.5-4.8-11.4-3.9-10.3,2.3
			c2.3,13.2,4.9,26.4,7.8,39.5c-9.6-23.6-19.4-47.1-29.6-70.5c-2.2-5-11.6-3.7-10.3,2.3c4.3,20.2,9,40.3,14,60.3
			c-3.5-2.1-9.8-0.2-8.5,4.6c5.2,18.6,10.6,37.2,16.3,55.7c-2.3,0.1-4.5,1.3-5.1,3.5c0.1-2.7,0.2-5.4,0.2-8.1
			c0.1-4.3-5.3-5.3-8.5-3.3c-0.5-1.2-1-2.4-1.5-3.6c-11.4-27.5-23.8-54.6-36.9-81.4c-1.7-3.4-9.4-5-10.3,0
			c-1.1,5.9-1.8,11.9-2.1,17.8c-1.8-4.4-3.5-8.9-5.3-13.3c-2-5.1-12.3-3.5-10.3,2.3c5.7,17.1,11.5,34.1,17.2,51.2
			c0.7,5.8,1.6,11.6,2.7,17.3c-4.5-13.9-9.1-27.7-14.1-41.4c-1.4-4-7.4-4-9.6-1.2c-3.3-2.7-10-1-9,4.2c1.4,6.7,2.8,13.4,4.2,20
			c-5.1-8.2-11.6-15.2-20.5-19.6c-0.6-0.3-1.3-0.4-2.1-0.5c-0.2-0.4-0.4-0.9-0.6-1.3c-2-4.6-10.5-3.8-10.5,1c-0.1-0.3-0.2-0.6-0.4-1
			c-2-5.2-11.5-3.7-10.3,2.3c1.9,10.5,4,20.9,6.1,31.3c-3.4-8.6-6.8-17.1-10.4-25.5c-2.2-5.1-11.4-3.7-10.3,2.3
			c2.3,13.2,4.8,26.3,7.3,39.5c-4.1-12.8-8.3-25.7-12.5-38.5c-1.6-4.8-9.6-3.9-10.4,0.6c-0.5-1.7-1.1-3.5-1.6-5.2
			c-1.7-5.4-11.5-3.6-10.3,2.3c2.7,14.2,5.4,28.5,8,42.7c-2.8-9.5-5.6-19.1-8.3-28.6c-1.3-4.6-11.3-4-10.5,1.2
			c0.5,3.5,1.1,7.1,1.6,10.6c-0.7-0.7-1.6-1.2-2.5-1.4c-2.4-5.7-4.8-11.5-7.3-17.2c-2.2-5-12-3.7-10.3,2.3
			c2.4,8.3,4.7,16.6,7.1,24.8c-2.4-7.6-4.8-15.1-7.2-22.7c-1.7-5.4-11.3-3.6-10.3,2.3c1.5,8.5,3,17.1,4.6,25.6
			c-3.7-9.4-7.5-18.7-11.5-27.9c-1.8-4.1-8.7-4-10.2-0.4c-0.2-0.8-0.5-1.5-0.7-2.3c-0.6-2.1-3.2-3.2-5.2-3.2c-0.7,0-1.3,0-1.9,0.1
			c-0.9-2.5-1.9-5-2.8-7.4c-2-5.2-11.6-3.7-10.3,2.3c0.8,3.7,1.6,7.4,2.3,11.1c-0.7,0.9-1.4,1.9-1.9,3c-0.8-2.3-1.7-4.7-2.5-7
			c-1.9-5.2-11.9-3.6-10.3,2.3c3.2,11.7,6.3,23.5,9.5,35.2c0,0.5,0.1,0.9,0.1,1.4c-1.1-1.4-3-1.9-4.9-1.8c-0.1-0.4-0.2-0.7-0.3-1.1
			c0-0.1-0.1-0.3-0.1-0.4c-0.9-3.8-1.8-7.6-2.7-11.4c-3.6-15-5.6-34.5-19.3-44.2c-4.9-3.5-11.2-4.7-16.8-1.8c-3.8,1.9-4.2,4-4.5,8
			c-0.3,5.3-0.7,10.7-1,16c-0.1,1.9-0.2,3.7-0.3,5.6c-0.6-1.5-1.3-3.1-2.1-4.6c-1.8-3.8-8-4.4-10.1-0.6c-0.5-2.4-1-4.8-1.6-7.1
			c-0.4-1.6-2.3-2.7-3.7-3c-9.7-1.9-16.3,4.5-20.1,12.8c-2.4,5.2-3.4,11-4.8,16.6c-4.4-22.4-9.1-44.8-14.2-67
			c-1.1-4.8-8.8-3.7-10.3,0c-4.9,11.2-7.9,23-10,35c-4.3,3.9-8.5,7.9-12.6,11.9c0.4-2.2,0.8-4.3,1.2-6.5c1.1-5.9-9-7.8-10.3-2.3
			c-0.5,1.9-0.9,3.8-1.4,5.6c-0.4-4.4-9.2-4.5-10.6-0.3c-2.3,7-4.5,14-6.7,21c0.4-3.4,0.9-6.7,1.3-10.1c0.5-3.7-4.3-5-7.6-3.9
			c0.8-5.1,1.7-10.2,2.5-15.3c0.8-5.2-9.1-5.7-10.5-1.2c-0.3,1.1-0.7,2.2-1,3.2c0.2-1.4,0.5-2.8,0.7-4.2c0.9-5.4-8.8-5.3-10.5-1.2
			c-0.5,1.3-1,2.5-1.5,3.8c-0.3,0.4-0.6,0.9-0.8,1.5c-0.2,0.6-0.3,1.1-0.5,1.7c-5.7,15.1-10,30.7-12.9,46.6
			c-0.5,2.8,1.4,4.6,3.8,5.3c-0.8,7.4-1.5,14.8-1.9,22.3c-1.3,0.3-2.4,0.9-3.1,2c-0.7,1.2-1.3,2.4-1.9,3.7c-0.2-1.2-0.4-2.4-0.6-3.5
			c-1.3-7.8-2.9-16.3-5.7-24.2c-0.6-12.3-1.4-24.5-2.3-36.7c-0.4-5.7-10.9-5.8-10.7,0c0.1,4.6,0.3,9.2,0.4,13.8c-0.1-1-0.3-2-0.4-3
			c-0.5-3.3-4.2-4.8-7.2-4.1c-2.1-3.7-10.2-3.1-10.2,1.9c0,3.5,0.1,7,0.1,10.5c-1.5,2.5-2.9,5-4.1,7.6c0-1.7,0-3.4-0.1-5
			c-0.1-5.7-10.5-5.7-10.7,0c-0.3,8.8-0.5,17.6-0.5,26.5c-0.5,0.5-1,1-1.5,1.4c-0.2-16-0.5-32-0.7-48c-0.1-5-9.4-6.1-10.5-1.2
			c-1.6,7.4-3.3,14.8-4.9,22.2c-0.1-1-0.1-2-0.2-3.1c-0.1-1.7-1-2.8-2.3-3.5c0.2-6.2,0.4-12.3,0.6-18.5c0.1-3.4-3.7-4.8-6.8-4.1
			c9.6-18.3,17.8-37.4,24.4-57.1c1.9-5.7-8.6-7.6-10.3-2.3c-10.4,30.8-24.6,60.1-42.3,87.4c-0.3-8.1-0.5-16.2-0.8-24.3
			c-0.2-5.1-9.3-6-10.5-1.2c-1.6,6.3-3.6,12.5-5.7,18.6c0.8-12.5,1.7-25,2.5-37.5c0.2-2.6-3.1-4.5-5.4-4.4c-6.1,0.4-10.2,3.3-13,7.4
			c0.9-6,1.9-12,2.8-17.9c0.7-4.4-7-5.6-9.7-2.8c-2.7-2-8.5-1.6-9.2,2c-0.1,0.5-0.2,1-0.3,1.5c-3-0.5-6.4,0.8-6.2,4.1
			c0.4,6.1,0.9,12.2,1.3,18.4c-0.2,0.9-0.4,1.8-0.6,2.7c-1,0.6-1.9,1.5-2.3,2.5c-0.5,1.4-0.9,2.7-1.4,4.1c-2.9-1.6-8.1-1-8.6,2.3
			c-1.2,7.1-2.4,14.3-3.6,21.4c-2.9-0.9-6.8,0-7.5,2.8c-1,3.9-2.1,7.8-3.1,11.7c1.4-14.1,2.9-28.1,4.3-42.2
			c0.5-5.2-9.2-5.8-10.5-1.2c-4.6,16.4-9.3,32.8-13.9,49.3c-0.2-5.7-0.3-11.5-0.5-17.2c1.3-19.8,1.5-39.6-0.5-59.6
			c-0.5-5-8.9-6.1-10.5-1.2c-5.9,18.2-11.2,36.5-16.2,54.9c1-10.1,2-20.1,2.9-30.2c0.5-5.1-7.7-5.2-10-2.2
			c-3.3,4.4-5.8,9.2-7.7,14.2c-0.5-0.3-1.1-0.6-1.7-0.8c-2.6-1.1-6.9-0.6-7.9,2.6c-0.7,2.1-1.3,4.3-1.9,6.5
			c-0.1-0.3-0.2-0.5-0.2-0.8c-1.3-4.6-11.4-4-10.5,1.2c1.7,10.6,2.1,21.2,1.2,31.7c-0.7-2.3-1.4-4.5-2-6.8c-0.2-2.6-0.5-5.2-0.7-7.8
			c-0.1-1.6-1.1-2.7-2.3-3.4c-0.2-0.9-0.5-1.7-0.7-2.6c-1.4-8.4-3.2-16.8-5.2-25.1c-1.1-4.3-7.6-4-9.7-0.8c-2-3.9-11-3.1-10.3,1.8
			c0.2,1.6,0.5,3.3,0.8,4.9c-0.7-2.7-1.5-5.5-2.3-8.2c-1.4-4.5-11.4-4-10.5,1.2c0.1,0.4,0.1,0.8,0.2,1.2c0,0,0,0,0,0c0,0,0,0,0,0
			c1.4,8.7,3,17.4,4.8,26.1c-2.9-2.3-8.6-1.3-9.1,3.1c-0.1,0.7-0.2,1.4-0.2,2.1c-1-7.4-2.2-14.7-3.6-22.1c-0.2-1.3-1-2.2-2-2.7
			c-0.1-1.6-0.2-3.2-0.3-4.7c-0.4-5.2-8.1-5.6-10.2-1.6c-0.5-1.8-1-3.5-1.5-5.3c-1.5-5.4-11.7-3.6-10.3,2.3
			c2.4,10.3,5.2,20.5,8.4,30.6c0,0.1,0,0.1,0,0.2c-0.2,1.6-0.3,3.2-0.5,4.8c-0.3-0.1-0.5-0.2-0.8-0.3c-3-12.7-6.2-25.4-9.9-37.9
			c-1.3-4.6-11.2-4-10.5,1.2c2.5,19,6.1,37.9,10.8,56.4c0,0.3-0.1,0.6-0.1,0.8c-3.8-18.9-9.7-37.6-15.6-55.9
			c-1.7-5.3-11.5-3.6-10.3,2.3c0.2,0.9,0.4,1.7,0.5,2.6c-0.9,0.1-1.8,0.4-2.6,0.8c0-0.6-0.1-1.2-0.1-1.8c-0.1-2.5-2-3.9-4.2-4.2
			c0.7-10.1,1.4-20.1,2.1-30.2c0.4-5.8-10-5.6-10.7,0c-0.3,2.2-0.6,4.5-0.9,6.7c0.1-2.1,0.2-4.2,0.4-6.2c0.4-7.2-0.3-14.5-6.2-19.3
			c-2.4-1.9-8.2-1.8-9,1.9c-1.9,9-3.7,18-5.5,27c3.4-27.5,6.8-54.9,10.2-82.4c2.7-22.3,5.5-44.5,8.2-66.8c0.7-5.6-10-5.7-10.7,0
			c-7.1,57.3-14.2,114.7-21.2,172c-2.8-0.2-5.8,1.2-6.1,4.3c-0.5,5.6-1,11.1-1.6,16.7c-5.5-16.8-10.9-33.7-16.4-50.5
			c-1.5-4.5-10.8-4.2-10.5,1.2c0.8,15.7,1.7,31.3,2.3,47c-2.3,0.7-4.1,2.5-3.5,5.2c1,4.4,1.9,8.8,2.9,13.1
			c-1.3,5.8-2.5,11.6-3.8,17.4c0.6-13.5,0.6-27,0.2-40.5c-0.2-5.7-10.9-5.7-10.7,0c0.2,5.7,0.3,11.3,0.3,17c-1.8-1.9-5.5-2-7.7-0.4
			c-0.5-12.7-1.1-25.4-1.6-38c-0.2-5.8-10.3-5.7-10.7,0c-0.5,6.5-1,12.9-1.6,19.4c-1.2,7.5-2.2,15-3,22.5c-0.8,0.9-1.2,2.2-0.8,3.7
			c0.1,0.3,0.2,0.7,0.3,1c-0.5,5.3-0.9,10.6-1.3,15.9c-1.9-2.4-3.9-4.7-6.1-6.8c-3.1-3-10.3-0.5-9,4.2c5.9,21.6,11.8,43.3,17.5,65
			c0.1,10.4,0.5,20.7,1.2,31.1c0.3,3.9,4.8,5.1,7.9,3.8c0.3,1,0.5,2.1,0.8,3.1c-3.1-1-7.6,0.6-7.8,4.1c-0.1,1.4-0.1,2.7-0.2,4.1
			c-0.1-0.2-0.2-0.5-0.3-0.7c-2.1-5.1-11.6-3.7-10.3,2.3c1.4,7.1,2.9,14.2,4.5,21.3c-1.5,0.6-2.7,1.9-2.8,3.9
			c-0.5,9.8-0.8,19.6-1.1,29.5c-2.4,0.3-4.7,1.9-4.9,4.3c-1.2,16.7-2,33.4-2.4,50.1c-1.2,0.7-2,1.9-2,3.3
			c-0.4,16.7-0.9,33.4-1.3,50.1c0,0.9,0.2,1.6,0.6,2.3c-2.5,0.6-4.5,2.5-3.8,5.3c2.8,11.8,5.6,23.6,8.4,35.4
			c0.8,12.3,1.8,24.6,3,36.9c0.3,3.5,3.8,4.8,6.8,4.1c1.4,5.8,2.8,11.7,4.2,17.5c-0.8,12.8-1.4,25.6-1.6,38.4c0,0.1-0.1,0.1-0.1,0.2
			c-0.2-3.5-0.4-7.1-0.6-10.6c-0.4-5.8-10.2-5.7-10.7,0c-0.8,8.6-1.6,17.2-2.4,25.7c-1.1-21.5-2.9-43-5.3-64.4
			c-0.5-4.7-9.5-6.4-10.5-1.2c-7.9,40.8-10.2,82.5-6.3,123.9c0.2,2.5,2.2,3.9,4.4,4.2c1,32.1,2.8,64.2,5.5,96.3
			c0.5,5.9,9.8,5.5,10.7,0c0.5-3,1-6,1.4-9c0.6,37.3,2,74.6,4.2,111.8c0.7,12.1-1.1,35.6,10.7,44c-1.4,0.7-2.5,1.9-2.7,3.6
			c-0.2,2.4-0.5,4.8-0.7,7.2c-3.1-1.1-7.6,0.2-7.8,3.9c-0.7,11.4-0.8,22.7-0.3,34.1c-0.1,17.5-0.3,35-0.4,52.5
			c0,3.5,3.8,4.9,6.9,4.1c-1.9,14.8-3.5,29.6-4.9,44.4c-1.1,0.5-2,1.4-2.3,2.8c-2.1,9.3-2.1,18.3-0.1,27.6
			c1.1,5.1,10.2,3.8,10.5-1.2c0.1-1.8,0.3-3.5,0.4-5.3c1-0.7,1.8-1.8,2-3.2c0.5-3.2,1.1-6.4,1.6-9.7c0.2,3.5,0.5,7.1,0.7,10.6
			c0.4,5.7,10.6,5.8,10.7,0c0.4-15.2,1.1-30.5,1.9-45.7c0.5,23.4,1.1,46.9,1.6,70.3c0.1,5.7,10.7,5.8,10.7,0
			c0.2-25.2,0.7-50.4,1.6-75.7c0.3,2.9,0.6,5.7,1,8.6c0.6,4.8,7.9,5.7,10.1,2.2c0.4,3.6,0.9,7.3,1.3,10.9c0.5,4.4,7.6,6.2,10,2.2
			c9.8-16.2,10.2-35.4,11.6-53.7c0.1-0.8,0.1-1.6,0.2-2.5c0.2-0.7,0.4-1.5,0.6-2.2c0.3,4.1,0.6,8.2,0.8,12.3c0.1,2,1.3,3.2,2.9,3.8
			c-0.5,16.5-1.1,33.1-1.8,49.6c-1.3,29.7-3,59.4-5.1,89.1c-0.4,5.8,10.1,5.7,10.7,0c2.1-18.9,4.2-37.9,6.5-56.8
			c0.8,16.8,1.7,33.7,2.5,50.5c0.3,5.7,10.8,5.8,10.7,0c-0.2-28.7,0.1-57.4,1-86c3,26.7,6.4,53.3,10.6,79.8c0.6,3.6,4.8,5.6,8.1,3.8
			c9.1-5,9.1-15.8,10.2-25.1c0.1-0.8,0.2-1.5,0.2-2.3c2.6,2.4,9.1,1.4,9.7-3c1.7-12.6,3.5-25.2,5.2-37.8c0.5-1.9,1-3.7,1.4-5.6
			c2.9-0.3,5.5-2.2,4.5-5.4c-0.6-2-1.2-3.9-1.9-5.9c0.8-3.8,1.6-7.6,2.2-11.4c0.1-0.3,0.2-0.7,0.2-1c1.3,4.4,2.8,8.7,4.5,12.9
			c1.8,4.5,10.3,4.2,10.5-1.2c0.2-3.5,0.3-7,0.4-10.5c1.6,0.6,3.4,0.6,4.9,0c-0.3,11.1-0.5,22.2-0.5,33.4c0,5.1,9.4,6,10.5,1.2
			c3.7-16.3,7.3-32.7,10.8-49c0.4,1,0.8,2.1,1.2,3.1c1.6,3.9,7.8,3.9,9.9,1c-2,17.9-3.9,35.7-5.9,53.6c-0.6,5.7,9.9,5.6,10.7,0
			c3.5-22.3,6.7-44.7,9.5-67.2c1.9,5.1,3.7,10.3,5.5,15.4c1.1,3,5,3.7,7.7,2.6c-0.4,9.8-0.9,19.5-1.3,29.3c-0.3,5.7,10.3,5.7,10.7,0
			c1.3-19.3,2.7-38.5,4.1-57.8c1.6-0.1,3.2-0.8,4.2-2.1c0.2-0.3,0.4-0.5,0.5-0.8c-0.7,17.2-1.4,34.4-2.2,51.7
			c-0.2,5.8,10.2,5.7,10.7,0c0.6-6,1.2-12,1.7-18c2.9,2.2,8.7,1.1,9.1-3.2c0.2-2.1,0.4-4.1,0.6-6.2c0.1-0.3,0.3-0.6,0.3-0.9
			c0.5-1.8,1-3.7,1.4-5.5c1.5-0.6,2.6-1.7,2.9-3.4c1.3,3,2.6,6,3.8,9.1c0.3,8,0.6,16,0.8,24.1c0.1,4.2,6.3,5.6,9.2,3.1
			c0.8-0.7,1.5-1.5,2.2-2.4c3.6,1.7,9-0.1,7.8-4.8c-0.7-2.7-1.3-5.3-2-8c1.2-5.4,1.5-11.2,2-16.7c0-0.1,0-0.1,0-0.2
			c3.2,7.8,6.5,15.6,9.7,23.4c0,0.8,0,1.6,0,2.3c0,1.7,1,2.9,2.4,3.6c1.8,4.3,3.6,8.7,5.4,13c2.1,5,12,3.6,10.3-2.3
			c-1.6-5.5-3.1-11-4.7-16.5c1.4-2.2,2.3-4.7,3.1-7.3c9.7,20.7,19.8,41.2,30.2,61.6c2.5,4.8,11.4,3.9,10.3-2.3
			c-2.3-13.2-4.9-26.4-7.8-39.5c9.6,23.6,19.4,47.1,29.6,70.5c2.2,5,11.6,3.7,10.3-2.3c-4.3-20.2-9-40.3-14-60.3
			c3.5,2.1,9.8,0.2,8.5-4.6c-5.2-18.6-10.6-37.2-16.3-55.7c2.3-0.1,4.5-1.3,5.1-3.5c-0.1,2.7-0.2,5.4-0.2,8.1
			c-0.1,4.3,5.3,5.3,8.5,3.3c0.5,1.2,1,2.4,1.5,3.6c11.4,27.5,23.8,54.6,36.9,81.4c1.7,3.4,9.4,5,10.3,0c1.1-5.9,1.8-11.9,2.1-17.8
			c1.8,4.4,3.5,8.9,5.3,13.3c2,5.1,12.3,3.5,10.3-2.3c-5.7-17.1-11.5-34.1-17.2-51.2c-0.7-5.8-1.6-11.6-2.7-17.3
			c4.5,13.9,9.1,27.7,14.1,41.4c1.4,4,7.4,4,9.6,1.2c3.3,2.7,10,1,9-4.2c-1.4-6.7-2.8-13.4-4.2-20c5.1,8.2,11.6,15.2,20.5,19.6
			c0.6,0.3,1.3,0.4,2.1,0.5c0.2,0.4,0.4,0.9,0.6,1.3c2,4.6,10.5,3.8,10.5-1c0.1,0.3,0.2,0.6,0.4,1c2,5.2,11.5,3.7,10.3-2.3
			c-1.9-10.5-4-20.9-6.1-31.3c3.4,8.6,6.8,17.1,10.4,25.5c2.2,5.1,11.4,3.7,10.3-2.3c-2.3-13.2-4.8-26.3-7.3-39.5
			c4.1,12.8,8.3,25.7,12.5,38.5c1.6,4.8,9.6,3.9,10.4-0.6c0.5,1.7,1.1,3.5,1.6,5.2c1.7,5.4,11.5,3.6,10.3-2.3
			c-2.7-14.2-5.4-28.5-8-42.7c2.8,9.5,5.6,19.1,8.3,28.6c1.3,4.6,11.3,4,10.5-1.2c-0.5-3.5-1.1-7.1-1.6-10.6
			c0.7,0.7,1.6,1.2,2.5,1.4c2.4,5.7,4.8,11.5,7.3,17.2c2.2,5,12,3.7,10.3-2.3c-2.4-8.3-4.7-16.6-7.1-24.8c2.4,7.6,4.8,15.1,7.2,22.7
			c1.7,5.4,11.3,3.6,10.3-2.3c-1.5-8.5-3-17.1-4.6-25.6c3.7,9.4,7.5,18.7,11.5,27.9c1.8,4.1,8.7,4,10.2,0.4c0.2,0.8,0.5,1.5,0.7,2.3
			c0.6,2.1,3.2,3.2,5.2,3.2c0.7,0,1.3,0,1.9-0.1c0.9,2.5,1.9,5,2.8,7.4c2,5.2,11.6,3.7,10.3-2.3c-0.8-3.7-1.6-7.4-2.3-11.1
			c0.7-0.9,1.4-1.9,1.9-3c0.8,2.3,1.7,4.7,2.5,7c1.9,5.2,11.9,3.6,10.3-2.3c-3.2-11.7-6.3-23.5-9.5-35.2c0-0.5-0.1-0.9-0.1-1.4
			c1.1,1.4,3,1.9,4.9,1.8c0.1,0.4,0.2,0.7,0.3,1.1c0,0.1,0.1,0.3,0.1,0.4c0.9,3.8,1.8,7.6,2.7,11.4c3.6,15,5.6,34.5,19.3,44.2
			c4.9,3.5,11.1,4.6,16.7,1.9c0.5,1.1,1.6,1.8,2.8,2.2c0.1,0.3,0.1,0.5,0.2,0.8c0.7,3.2,5.6,3.9,8.5,2.4c0.9,3.6,1.8,7.2,2.7,10.8
			c1.4,5.5,11.4,3.6,10.3-2.3c-1.3-7.5-2.7-14.9-4-22.4c0.8,3.3,1.6,6.6,2.4,9.9c1.3,5.4,11.7,3.6,10.3-2.3
			c-2.2-9.7-4.4-19.4-6.6-29.1c1.3,0.1,2.7-0.1,3.8-0.8c3.1,14.1,6.6,28.2,10.4,42.1c1.5,5.4,11.4,3.6,10.3-2.3
			c-0.6-3.6-1.3-7.3-1.9-10.9c0.5,0.6,1.3,1.1,2.1,1.5c3.1,12.7,6.4,25.4,10,38c1.5,5.4,11.6,3.6,10.3-2.3c-0.6-3.1-1.3-6.2-1.9-9.3
			c1.4-0.5,2.5-1.4,3-2.6c0.2-0.4,0.3-0.8,0.5-1.1c0.1,0.5,0.3,1,0.4,1.5c0.9,3.3,5.1,3.9,7.9,2.5c0.7,2.7,1.4,5.3,2.1,8
			c1.3,4.7,8.9,3.9,10.2-0.2c0.9,3.4,1.8,6.8,2.6,10.2c1.4,5.4,11.8,3.6,10.3-2.3c-1.9-7.7-3.8-15.3-5.6-23
			c-0.4-4.9-0.9-9.8-1.3-14.6c4.5,15.7,9,31.5,13.5,47.2c1.3,4.6,11.4,4,10.5-1.2c-5.9-36-11.8-72-17.7-107.9c0,0,0.1,0,0.1,0
			c5.4,20.3,10.8,40.7,16.1,61c1.4,5.4,11.5,3.6,10.3-2.3c-0.1-0.5-0.2-1-0.3-1.6c1.4-0.7,2.3-1.9,2.1-3.6
			c-2.2-16.7-4.4-33.4-6.6-50.1c4.7,15.1,9.8,30.1,15.5,45c1.6,4.3,11.4,4.2,10.5-1.2c-2-13-4-26-6-39c2.8,7.5,5.8,15,9,22.4
			c1.3,3,6.8,3.9,9.3,2.1c0.2,0.6,0.4,1.2,0.6,1.8c0.8,2.4,4,3.4,6.7,3c0.3,1.4,0.6,2.8,0.9,4.3c0.9,4.4,7.7,4,9.8,0.6
			c3.7,11.2,7.3,22.5,11,33.7c1.5,4.5,10.9,4.2,10.5-1.2c-0.2-3-0.4-5.9-0.6-8.9c0.2,0.6,0.3,1.2,0.5,1.7c1.4,4.6,11,4.1,10.5-1.2
			c-0.4-4.3-0.8-8.6-1.3-12.8c1.1,3.4,2.2,6.8,3.3,10.3c0.2,0.8,0.7,1.4,1.2,1.8c0.1,0.3,0.1,0.5,0.2,0.8c1.6,5.3,11.9,3.6,10.3-2.3
			c-0.4-1.4-0.7-2.8-1.1-4.2c0-0.1,0-0.1,0-0.2c1.3,0.4,2.8,0.3,4.1-0.2c-4.4,10.1-8.3,20.4-11.9,30.8c-1.9,5.7,8.6,7.6,10.3,2.3
			c3.7-10.8,7.8-21.5,12.4-31.9c2.2,6.4,4.4,12.8,6.6,19.2c1.5,4.4,11.3,4.2,10.5-1.2c-1.8-13.2-4.1-26.4-7-39.4
			c0.7-1.4,1.4-2.7,2.1-4.1c0.8,2.8,1.6,5.5,2.4,8.3c1.5,5.4,11.6,3.6,10.3-2.3c-0.1-0.3-0.1-0.6-0.2-1c0.5-0.6,0.7-1.5,0.6-2.6
			c-0.7-7.3-1.4-14.7-2-22c0.4-0.6,0.7-1.2,1.1-1.7c1.4,3.7,2.8,7.3,4.3,10.9c0.4,0.9,1,1.5,1.9,2c0,0.9,0.1,1.8,0.1,2.6
			c0.2,5.1,9.3,6,10.5,1.2c1.6-6.3,3.6-12.5,5.7-18.6c-0.8,12.5-1.7,25-2.5,37.5c-0.2,2.6,3.1,4.5,5.4,4.4c6.1-0.4,10.2-3.3,13-7.4
			c-0.9,6-1.9,12-2.8,17.9c-0.7,4.4,7,5.6,9.7,2.8c2.7,2,8.5,1.6,9.2-2c0.1-0.5,0.2-1,0.3-1.5c3,0.5,6.4-0.8,6.2-4.1
			c-0.4-6.1-0.9-12.2-1.3-18.4c0.2-0.9,0.4-1.8,0.6-2.7c1-0.6,1.9-1.5,2.3-2.5c0.5-1.4,0.9-2.7,1.4-4.1c1.2,0.7,2.8,1,4.3,0.8
			c1.9,6.2,3.8,12.3,5.7,18.4c1.6,5.3,11.8,3.6,10.3-2.3c-3.1-12.5-6-25.1-8.6-37.7c0.2-1,0.3-2,0.5-3c2.8,0.9,6.8,0,7.5-2.8
			c1-3.9,2.1-7.8,3.1-11.7c-1.4,14.1-2.9,28.1-4.3,42.2c-0.5,5.2,9.2,5.8,10.5,1.2c4.1-14.7,8.3-29.4,12.4-44.1
			c0.6,1.5,1.2,3,1.8,4.5c0.1,2.5,0.2,5,0.2,7.5c-1.3,19.8-1.5,39.6,0.5,59.6c0.5,5,8.9,6.1,10.5,1.2c2.1-6.5,4.1-13,6.1-19.5
			c0.7,2.2,1.4,4.3,2.1,6.5c1.7,5.3,11.5,3.6,10.3-2.3c-0.3-1.7-0.7-3.5-1-5.2c2.2,0.2,4.6-0.5,5.7-2c1.6-2.1,3.1-4.4,4.3-6.7
			c1.8,6.3,3.6,12.5,5.6,18.7c1.7,5.3,12.1,3.5,10.3-2.3c-1.9-6.4-3.8-12.8-5.7-19.2c-0.3-1.1-0.6-2.3-1-3.4c1.7-0.3,3.2-1.2,3.7-3
			c0.7-2.1,1.3-4.3,1.9-6.5c0.1,0.3,0.2,0.5,0.2,0.8c1.3,4.6,11.4,4,10.5-1.2c-0.3-1.8-0.5-3.7-0.8-5.5
			c6.2,14.5,12.3,29.1,18.4,43.7c1.7,4.1,11.2,4.3,10.5-1.2c-0.8-6.6-1.6-13.2-2.5-19.9c2.4-0.3,4.4-1.8,4.1-4.2
			c-0.2-1.6-0.5-3.3-0.8-4.9c0.7,2.7,1.5,5.5,2.3,8.2c1.4,4.5,11.4,4,10.5-1.2c-0.1-0.4-0.1-0.8-0.2-1.2c0,0,0,0,0,0c0,0,0,0,0,0
			c-1.4-8.7-3-17.4-4.8-26.1c2.9,2.3,8.6,1.3,9.1-3.1c0.1-0.7,0.2-1.4,0.2-2.1c1,7.4,2.2,14.7,3.6,22.1c0.2,1.3,1,2.2,2,2.7
			c0.1,1.6,0.2,3.2,0.3,4.7c0.4,5.2,8.1,5.6,10.2,1.6c0.5,1.8,1,3.5,1.5,5.3c1.5,5.4,11.7,3.6,10.3-2.3c-2.4-10.3-5.2-20.5-8.4-30.6
			c0-0.1,0-0.1,0-0.2c0.2-1.6,0.3-3.2,0.5-4.8c0.3,0.1,0.5,0.2,0.8,0.3c3,12.7,6.2,25.4,9.9,37.9c1.3,4.6,11.2,4,10.5-1.2
			c-2.5-19-6.1-37.9-10.8-56.4c0-0.3,0.1-0.6,0.1-0.8c3.8,18.9,9.7,37.6,15.6,55.9c1.7,5.3,11.5,3.6,10.3-2.3
			c-0.2-0.9-0.4-1.7-0.5-2.6c0.9-0.1,1.8-0.4,2.6-0.8c0,0.6,0.1,1.2,0.1,1.8c0.1,2.5,2,3.9,4.2,4.2c-0.7,10.1-1.4,20.1-2.1,30.2
			c-0.4,5.8,10,5.6,10.7,0c0.3-2.2,0.6-4.5,0.9-6.7c-0.1,2.1-0.2,4.2-0.4,6.2c-0.4,7.2,0.3,14.5,6.2,19.3c2.4,1.9,8.2,1.8,9-1.9
			c1.9-9,3.7-18,5.5-27c-3.4,27.5-6.8,54.9-10.2,82.4c-2.7,22.3-5.5,44.5-8.2,66.8c-0.7,5.6,10,5.7,10.7,0
			c7.1-57.3,14.2-114.7,21.2-172c2.8,0.2,5.8-1.2,6.1-4.3c0.5-5.6,1-11.1,1.6-16.7c5.5,16.8,10.9,33.7,16.4,50.5
			c1.5,4.5,10.8,4.2,10.5-1.2c-0.8-15.7-1.7-31.3-2.3-47c2.3-0.7,4.1-2.5,3.5-5.2c-1-4.4-1.9-8.8-2.9-13.1
			c1.3-5.8,2.5-11.6,3.8-17.4c-0.6,13.5-0.6,27-0.2,40.5c0.2,5.7,10.9,5.7,10.7,0c-0.2-5.7-0.3-11.3-0.3-17c1.8,1.9,5.5,2,7.7,0.4
			c0.5,12.7,1.1,25.4,1.6,38c0.2,5.8,10.3,5.7,10.7,0c0.5-6.5,1-12.9,1.6-19.4c1.2-7.5,2.2-15,3-22.5c0.8-0.9,1.2-2.2,0.8-3.7
			c-0.1-0.3-0.2-0.7-0.3-1c0.5-5.3,0.9-10.6,1.3-15.9c1.9,2.4,3.9,4.7,6.1,6.8c3.1,3,10.3,0.5,9-4.2c-5.9-21.6-11.8-43.3-17.5-65
			c-0.1-10.4-0.5-20.7-1.2-31.1c-0.3-3.9-4.8-5.1-7.9-3.8c-0.3-1-0.5-2.1-0.8-3.1c3.1,1,7.6-0.6,7.8-4.1c0.1-1.4,0.1-2.7,0.2-4.1
			c0.1,0.2,0.2,0.5,0.3,0.7c2.1,5.1,11.6,3.7,10.3-2.3c-1.4-7.1-2.9-14.2-4.5-21.3c1.5-0.6,2.7-1.9,2.8-3.9
			c0.5-9.8,0.8-19.6,1.1-29.5c2.4-0.3,4.7-1.9,4.9-4.3c1.2-16.7,2-33.4,2.4-50.1c1.2-0.7,2-1.9,2-3.3c0.4-16.7,0.9-33.4,1.3-50.1
			c0-0.9-0.2-1.6-0.6-2.3c2.5-0.6,4.5-2.5,3.8-5.3c-2.8-11.8-5.6-23.6-8.4-35.4c-0.8-12.3-1.8-24.6-3-36.9c-0.3-3.5-3.8-4.8-6.8-4.1
			c-1.4-5.8-2.8-11.7-4.2-17.5c0.8-12.8,1.4-25.6,1.6-38.4c0-0.1,0.1-0.1,0.1-0.2c0.2,3.5,0.4,7.1,0.6,10.6c0.4,5.8,10.2,5.7,10.7,0
			c0.8-8.6,1.6-17.2,2.4-25.7c1.1,21.5,2.9,43,5.3,64.4c0.5,4.7,9.5,6.4,10.5,1.2C1733.8,257.7,1736,216.1,1732.2,174.6z
			 M1695.1-228.9c-0.3,3.7-0.7,7.4-1.1,11.1c-0.3-4.2-0.5-8.4-0.8-12.6C1693.7-229.8,1694.3-229.3,1695.1-228.9z M1401.1,636.9
			c0.2-1.8,0.4-3.5,0.5-5.3c1-2.4,1.9-4.9,2.8-7.3c0.5,2.5,1,5,1.5,7.4c0,0.1,0,0.3,0,0.4c-0.9,3.2-1.8,6.4-2.7,9.7
			C1402.5,640.2,1401.8,638.5,1401.1,636.9z M1331.5,713c0.2,0.6,0.5,1.3,0.7,1.9c-0.3,1.1-0.6,2.4-1.1,3.8
			C1331.3,716.8,1331.4,714.9,1331.5,713z M845.8,633.6c1.4-0.9,2.7-1.9,4-2.8c-0.8,2.7-1.6,5.5-2.2,8.2
			C846.9,637.2,846.4,635.4,845.8,633.6z M370.3,657.7c1.1-5.3,2.2-10.6,3.4-16c-0.5,5.9-1,11.8-1.5,17.6
			C371.7,658.6,371,658.1,370.3,657.7z M865-82.1c-0.1-14.1-1.3-29.6,2.1-43.6c0.1,0.1,0.3,0.2,0.4,0.3c0.2,0.6,0.3,1.2,0.5,1.8
			c0,14.5,0.3,28.9,0.8,43.4c-1.4,0-2.7,0.4-3.8,1.1C865-80.1,865-81.1,865-82.1z M488.3,660.2c-0.2-3.1-3-4.5-5.7-4.3
			c-1.8-5.1-3.7-10.2-5.6-15.3c1.1-6,2.2-12,3.3-18c5,12,10,24,14.8,36c-0.5,9.4-1.1,18.8-1.7,28.1c-1.5-4.3-2.9-8.5-4.4-12.8
			C488.8,669.5,488.6,664.9,488.3,660.2z M1212.5-65.5c1,3.1,1.9,6.1,2.9,9.2c-0.9,0.7-1.4,1.7-1.5,3c-0.1,6.3-0.2,12.6-0.3,18.9
			c-1.8-9.3-3.6-18.6-5.5-27.9C1210.1-62.6,1211.9-63.7,1212.5-65.5z M1649.1,598.4c-0.2-2.5-0.3-4.9-0.5-7.4c3-12,6-23.9,9.2-35.9
			c-1.3,11.1-2.5,22.2-3.5,33.3C1652,591.5,1650.4,594.9,1649.1,598.4z M421,603.7c-0.7,3.7-1.3,7.5-2,11.2
			c-1.3-7.3-2.5-14.6-3.6-21.9c1.4-9.2,2.7-18.5,3.9-27.8c0.3,2.5,0.7,5,1,7.6c0.4,6.9,0.8,13.8,1.2,20.8c0,0.1,0,0.2,0,0.4
			c-0.1,1.3-0.1,2.7-0.2,4.1C421.2,599.8,421.1,601.8,421,603.7z M410.8-96c0.2,2.5,0.3,4.9,0.5,7.4c-3,12-6,23.9-9.2,35.9
			c1.3-11.1,2.5-22.2,3.5-33.3C407.8-89.1,409.5-92.5,410.8-96z M1345.5-121.3c0.2,0.7,0.4,1.3,0.7,2c0.6,1.7,1.2,3.5,1.8,5.2
			c-0.5,5.5-0.9,11-1.3,16.4c-0.7-2-1.4-4.1-2.1-6.1c0.2-3.6,0.4-7.2,0.5-10.8C1345.2-116.8,1345.3-119,1345.5-121.3z M742.2-47
			c0.1,5.5,0.1,11,0.2,16.4c0,13.1-0.1,26.1-0.1,39.2c-0.4,0.1-0.9,0.2-1.3,0.2c-0.6-5.2-1.2-10.4-1.8-15.6
			c0.8-14.5,1.6-28.9,2.3-43.4C741.8-49.1,742-48,742.2-47z M1408.2-21.1c0.7,2.8,1.3,5.7,2,8.5c-0.1,1.3-0.2,2.5-0.2,3.8
			c-0.4,2.1-0.9,4.2-1.3,6.3c-0.1-0.3-0.1-0.5-0.2-0.8c-0.3-5.9-0.6-11.8-1-17.7C1407.8-21,1408-21,1408.2-21.1z M1434.1,539.6
			c1,0.5,2.2,0.7,3.4,0.7c-0.8,3.1-1.7,6.2-2.5,9.3C1434.6,546.3,1434.4,543,1434.1,539.6z M535.3,22.2
			C535.3,22.2,535.3,22.1,535.3,22.2c0.5,6.6,1.1,13.3,1.6,20c-0.4,2.4-0.9,4.9-1.3,7.3c-0.9-4.8-1.9-9.7-2.9-14.5
			C533.6,30.7,534.4,26.5,535.3,22.2z M1576.6-149.5c0-0.2,0.1-0.5,0.1-0.7c0.3,0,0.5,0,0.8-0.1
			C1577.2-150.1,1576.9-149.8,1576.6-149.5z M1026.7,473.9c-2.3-5.6-4.6-11.1-6.9-16.7c0.4-2.4,0.7-4.8,1.1-7.2c0.7,1.7,1.3,3.3,2,5
			c0.7,3.2,1.4,6.5,2.1,9.7C1025.6,467.8,1026.2,470.8,1026.7,473.9z M1214.8,132.2c0,1.1,0.1,2.1,0.1,3.2c-0.4-1.1-0.8-2.2-1.1-3.2
			c0.1-1.3,0.1-2.5,0.2-3.8C1214.2,129.7,1214.5,130.9,1214.8,132.2z M1075.5,550.9c0.4,2.9,0.8,5.8,1.2,8.7
			c-3-7.3-5.9-14.6-8.9-21.8c-0.6-2-1.3-4.1-1.9-6.1c1-3.6,1.9-7.2,2.9-10.8c1.3,3.7,2.6,7.3,3.9,11
			C1073.6,538.2,1074.6,544.6,1075.5,550.9z M663,457.6c1.1,5.7,2.2,11.5,3.2,17.2c0.6,3.5,1.1,6.9,1.7,10.4c0,0.3,0.1,0.5,0.2,0.8
			c-1.7,0.5-3,1.5-3.3,3C664.4,478.5,663.7,468,663,457.6z M1396.9,44.8c-1.1-5.7-2.2-11.5-3.2-17.2c-0.6-3.5-1.1-6.9-1.7-10.4
			c0-0.3-0.1-0.5-0.2-0.8c1.7-0.5,3-1.5,3.3-3C1395.5,23.9,1396.1,34.3,1396.9,44.8z M1577.2,463.7c-0.2,0-0.3,0-0.5,0
			c1.6-22.6,3.2-45.2,4.8-67.8c0.8,6.1,1.7,12.1,2.5,18.2c0.1,1.1,0.6,1.9,1.2,2.6c-1.6,10.6-3.3,21.2-4.9,31.8
			C1579.3,453.6,1578.3,458.7,1577.2,463.7z M1317.4,535.1c0-0.7,0-1.5,0-2.2c0-13.1,0.1-26.1,0.1-39.2c0.4-0.1,0.9-0.2,1.3-0.2
			c0.6,5.2,1.2,10.4,1.8,15.6c-0.6,10.5-1.1,21.1-1.7,31.6C1318.4,538.9,1317.9,537,1317.4,535.1z M1142.1,393.5
			c-0.1-0.3-0.3-0.6-0.4-0.9c0.2-1.3,0.4-2.6,0.6-3.9c0.2,1.1,0.4,2.2,0.6,3.3c-0.1,0.3-0.2,0.7-0.2,1
			C1142.4,393.1,1142.3,393.3,1142.1,393.5z M795.4,400.8c-0.4-1.5-0.9-3-1.3-4.5c-0.4-3.6-0.8-7.2-1.2-10.8c0.5-1.5,1.1-3,1.6-4.5
			c1.4,7.9,2.7,15.7,4.1,23.6c0.2,2.1,0.5,4.3,0.7,6.4c-0.1,0.6-0.3,1.2-0.4,1.9C797.8,408.8,796.6,404.8,795.4,400.8z M482.6,38.7
			c0.2,0,0.3,0,0.5,0c-1.6,22.6-3.2,45.2-4.8,67.8c-0.8-6.1-1.7-12.1-2.5-18.2c-0.1-1.1-0.6-1.9-1.2-2.6c1.6-10.6,3.3-21.2,4.9-31.8
			C480.5,48.8,481.6,43.7,482.6,38.7z M1259.6,459.2c-0.1-1-0.1-2.1-0.2-3.1c-0.1-2.5-2.2-3.9-4.6-4.2c0.1-1.6,0.1-3.2,0.2-4.8
			c1.7,0,3.4-0.7,4.2-2.2c1.4-2.5,2.7-4.9,4.1-7.4c-1,7.2-2,14.3-3,21.5C1260.1,459,1259.8,459.1,1259.6,459.2z M534.8,178.5
			c0.1,1.6,0.1,3.3,0.2,4.9c-0.4,1.3-0.9,2.5-1.3,3.8c-1.4-12.1-2.7-24.2-4.1-36.3c-0.2-2.2-0.5-4.3-0.7-6.5
			c1.2-6.4,2.4-12.8,3.5-19.1c0.1,0.3,0.2,0.7,0.3,1C533.4,143.7,534.1,161.1,534.8,178.5z M472.8,398.7c0.1-0.4,0.3-0.8,0.4-1.2
			c1.1-0.3,2.7,1.8,3.1,2.4c2.2,3,2.3,7.5,2.7,11c0.8,6.8,1.5,13.7,2.2,20.5c-1.8-8.7-4-17.3-6.5-25.8c-0.4-1.4-1.4-2.3-2.7-2.7
			c0-0.3,0.1-0.6,0.1-0.9c0-0.4,0.1-1.5,0.2-2.5C472.6,399.2,472.7,399,472.8,398.7z M1587,103.7c-0.1,0.4-0.3,0.8-0.4,1.2
			c-1.1,0.3-2.7-1.8-3.1-2.4c-2.2-3-2.3-7.5-2.7-11c-0.8-6.8-1.5-13.7-2.2-20.5c1.8,8.7,4,17.3,6.5,25.8c0.4,1.4,1.4,2.3,2.7,2.7
			c0,0.3-0.1,0.6-0.1,0.9c0,0.4-0.1,1.5-0.2,2.5C1587.3,103.1,1587.1,103.4,1587,103.7z M857.1,194c-0.2,0.2-0.3,0.4-0.5,0.5
			c-0.3-1.1-0.5-2.3-0.8-3.4C856.2,192.1,856.6,193,857.1,194z M517.4,282.8c0,1.3,0.1,2.5,0.1,3.8c0,1,0.5,1.8,1.1,2.5
			c-0.2,3.7-0.4,7.4-0.6,11.2c-0.3,1-0.6,2-1,3c-0.8-3.3-1.5-6.5-2.3-9.8C515.6,289.9,516.5,286.3,517.4,282.8z M627.2,146.9
			c0.6,0.7,1.2,1.4,1.8,2.1c-0.2,1.8-0.3,3.5-0.4,5.3c0,0-0.1,0-0.1,0c-0.1-0.2-0.3-0.3-0.4-0.5
			C627.7,151.5,627.4,149.2,627.2,146.9z M677.9,274.9c0.2-1.2,0.3-2.5,0.5-3.7c0.1,2,0.2,4,0.3,5.9
			C678.4,276.4,678.2,275.7,677.9,274.9z M673.3,326.1c0.1-1.2,0.2-2.3,0.3-3.5c1,3.3,2,6.5,3,9.8c-0.4,2-0.9,4-1.3,6
			C674.7,334.4,674,330.2,673.3,326.1z M666.8,212c-0.1-0.6-0.2-1.3-0.3-1.9c0.2-1.1,0.4-2.2,0.6-3.3c0,0,0.1,0,0.1,0
			C667.1,208.5,667,210.2,666.8,212z M711,300c-0.1,0-0.2,0-0.4,0c0-0.4-0.1-0.7-0.1-1.1c0.2,0.3,0.3,0.5,0.5,0.8
			C711,299.8,711,299.9,711,300z M725.4,329.5c0.2,1.4,0.4,2.8,0.6,4.3c-0.5,0.1-0.9,0.2-1.4,0.3C724.9,332.5,725.1,331,725.4,329.5
			z M713.4,271.7c-0.2,2.9-0.3,5.8-0.5,8.7c-0.1,0.7-0.2,1.3-0.3,2c-1.6-2.8-3.3-5.6-4.9-8.4c-0.8-6.9-1.5-13.7-2.3-20.6
			c0.3-0.3,0.6-0.7,0.9-1C709,258.7,711.3,265.2,713.4,271.7z M595.2,127.9c0,0.2,0,0.4-0.1,0.5c-0.3-0.4-0.6-0.7-0.9-1.1
			c0-0.3-0.1-0.6-0.1-0.9C594.5,126.9,594.8,127.4,595.2,127.9z M722.9,343.4c1.4-0.3,2.8-0.6,4.3-0.9c0.1,0.8,0.2,1.6,0.3,2.5
			c-1.7,0.3-3.4,0.7-5.1,1C722.6,345.1,722.8,344.2,722.9,343.4z M680.9,371.3c0,0.1,0,0.2,0,0.3
			C680.9,371.6,680.8,371.5,680.9,371.3C680.8,371.3,680.9,371.3,680.9,371.3z M507.5,259.9c0.3,0.3,0.7,0.6,1.1,0.9
			c-0.4,1.1-0.7,2.1-1.1,3.2c-0.3-1.2-0.6-2.3-0.9-3.5C507,260.3,507.2,260.1,507.5,259.9z M620.9,288.3c0.7-9.5,0.8-19,0.5-28.6
			c0.9,4.2,1.8,8.5,2.8,12.7c-0.9,5.8-1.8,11.6-2.7,17.4C621.3,289.2,621.1,288.8,620.9,288.3z M728.8,354.2c0,0,0,0.1,0,0.1
			c-0.4,0.1-0.8,0.1-1.2,0.2C728,354.4,728.4,354.3,728.8,354.2z M723.5,364.1c2.2-0.4,4.3-0.7,6.5-1.1c0.3,2.3,0.6,4.5,0.9,6.8
			c-1.9,0.2-3.9,0.5-5.8,0.7C724.6,368.4,724,366.2,723.5,364.1z M1525.1,323.9c-0.1-1.6-0.1-3.3-0.2-4.9c0.4-1.3,0.9-2.5,1.3-3.8
			c1.4,12.1,2.7,24.2,4.1,36.3c0.2,2.2,0.5,4.3,0.7,6.5c-1.2,6.4-2.4,12.8-3.5,19.1c-0.1-0.3-0.2-0.7-0.3-1
			C1526.4,358.7,1525.7,341.3,1525.1,323.9z M1065.6,252c-1-5.7-2-11.5-3-17.2c0.1-0.7,0.2-1.4,0.4-2c0.3-1.7-0.3-3-1.4-4
			c-0.1-0.6-0.2-1.3-0.3-1.9c0,0,0-0.1,0.1-0.1c0.6,1.1,1.1,2.3,1.7,3.4c0.9,7.2,1.8,14.4,2.7,21.6
			C1065.7,251.8,1065.6,251.9,1065.6,252z M1264.3,307.9c-0.5-2.1-0.9-4.1-1.4-6.2c0.9-1.3,1.7-2.6,2.6-3.8c0.1,2.4,0.2,4.9,0.3,7.3
			c-0.1,0.1-0.1,0.2-0.2,0.3C1265.2,306.3,1264.7,307.1,1264.3,307.9z M1381.5,231.1c-0.1-2-0.2-4-0.3-5.9c0.3,0.7,0.5,1.5,0.8,2.2
			C1381.8,228.7,1381.6,229.9,1381.5,231.1z M1431.4,348.1C1431.4,348.1,1431.4,348.1,1431.4,348.1c0.2,0.2,0.4,0.3,0.5,0.5
			c0.3,2.3,0.5,4.6,0.8,6.9c-0.6-0.7-1.2-1.4-1.8-2.1C1431.1,351.7,1431.2,349.9,1431.4,348.1z M1393,290.4c0.1,0.6,0.2,1.3,0.3,1.9
			c-0.2,1.1-0.4,2.2-0.6,3.3c0,0-0.1,0-0.1,0C1392.8,293.9,1392.9,292.1,1393,290.4z M1386.5,176.3c-0.1,1.2-0.2,2.3-0.3,3.5
			c-0.6-2-1.2-4-1.8-6c0.3-0.8,0.5-1.5,0.8-2.3c0.2-0.7,0.3-1.4,0.2-1.9c0,0,0-0.1,0-0.1C1385.8,171.7,1386.2,174,1386.5,176.3z
			 M1464.7,374.5c0-0.2,0-0.4,0.1-0.5c0.3,0.4,0.6,0.7,0.9,1.1c0,0.3,0.1,0.6,0.1,0.9C1465.4,375.5,1465,375,1464.7,374.5z
			 M1334.9,170.5c-0.2,0.3-0.4,0.7-0.6,1c-0.1-1-0.3-1.9-0.4-2.9c0.5-0.1,0.9-0.2,1.4-0.3C1335.1,169,1335,169.8,1334.9,170.5z
			 M1336.9,159c-1.4,0.3-2.8,0.6-4.3,0.9c-0.1-0.8-0.2-1.6-0.3-2.5c1.7-0.3,3.4-0.7,5.1-1C1337.2,157.3,1337.1,158.2,1336.9,159z
			 M1246.9,278.9c0.4,1.5,0.8,2.9,1.1,4.4c-0.4,0.7-0.7,1.4-1.1,2.1c-2.8-0.3-5.6,1-5.6,4.2c0,2.2,0,4.4,0,6.6
			c-3.4,6.7-6.8,13.4-10,20.2c-0.3-1.5-0.5-3-0.8-4.5c0.1-1,0.1-1.9,0.2-2.9c2.6-0.1,5.1-1.4,4.6-4.2c-0.5-3.1-1-6.3-1.4-9.4
			c2.7-6.3,5.4-12.5,8.1-18.8C1242.9,278.2,1244.9,278.9,1246.9,278.9z M1200.6,303.5c0.1-1.7,0.3-3.5,0.4-5.2c1,4.3,2,8.7,3.1,13
			C1202.9,308.7,1201.7,306.1,1200.6,303.5z M1075.8,180c-0.2-1.3-0.4-2.6-0.6-3.8c0.7,1.5,1.4,3,2,4.5c-0.2,0.4-0.4,0.7-0.7,1.1
			C1076.3,181.2,1076,180.6,1075.8,180z M1057.7,49.6c0.9-3,1.8-6.1,2.6-9.1c0.2-0.3,0.5-0.6,0.7-0.9c2,9.3,3.9,18.5,5.8,27.8
			c-0.8,0.8-1.6,1.5-2.4,2.3C1062.3,63,1060,56.3,1057.7,49.6z M1069.2,78.6c0.7,3.3,1.3,6.5,2,9.8c-1-2.9-2.1-5.8-3.1-8.7
			C1068.5,79.3,1068.9,78.9,1069.2,78.6z M1065,116.6c-1.1-6.1-2.2-12.2-3.3-18.3c5.6,13.8,11.2,27.6,16.9,41.3
			c-1.3-0.3-2.9-0.3-4.2,0.1C1071.3,132,1068.1,124.3,1065,116.6z M1038.8,181.2c1.3,2.6,2.5,5.1,3.8,7.7c0.9,6.2,1.8,12.4,2.6,18.7
			C1043.1,198.7,1041,189.9,1038.8,181.2z M1005.3,59.5C1005.3,59.5,1005.3,59.6,1005.3,59.5c-1,1.8-2.1,3.4-3.1,5.1
			c-0.1-0.3-0.2-0.5-0.4-0.8c-0.6-3.9-1.3-7.7-1.9-11.6c0.5-0.5,1-1.1,1.5-1.6C1002.7,53.6,1004,56.5,1005.3,59.5z M1056,190.6
			c0.3,0.4,0.5,0.9,0.8,1.3c0.2,1.1,0.5,2.1,0.7,3.2c-0.4-0.9-0.9-1.8-1.3-2.8C1056.1,191.7,1056.1,191.2,1056,190.6z M1104.7,132.1
			c-0.5-5.9-1-11.8-1.5-17.8c1.8,3.9,3.6,7.9,5.4,11.8c0.1,0.7,0.2,1.4,0.2,2.1c-1.3,2.1-2.6,4.3-3.9,6.4
			C1104.9,133.8,1104.8,133,1104.7,132.1z M1017.2,37.8c0,1.2,0,2.4,0,3.6c-0.4,0.6-0.8,1.2-1.2,1.8c-0.7-1.6-1.4-3.2-2.1-4.8
			c0-0.3-0.1-0.6-0.1-0.9c0.8-0.8,1.6-1.6,2.4-2.5C1016.5,36,1016.9,36.9,1017.2,37.8z M971.5,149.5c0.4-1.5,0.7-3,1.1-4.6
			c0-0.1,0.1-0.1,0.1-0.2c1.2,4.9,2.4,9.9,3.6,14.8c0,0-0.1,0.1-0.1,0.1C974.6,156.3,973,152.9,971.5,149.5z M1020.1,263.6
			c0.2,1.1,0.5,2.2,0.7,3.3c0.1,1.6,0.2,3.3,0.3,4.9c-0.2-1.1-0.4-2.3-0.5-3.4C1020.4,266.9,1020.2,265.2,1020.1,263.6z
			 M1114.1,188.7c-2.4-10.4-4.7-20.9-7.2-31.3c-0.2-1.8-0.3-3.6-0.5-5.4c1.4-2.3,2.8-4.6,4.2-6.9c1.5,14.3,2.8,28.6,4.1,42.9
			C1114.5,188.2,1114.3,188.4,1114.1,188.7z M1128.8,229c-0.3-4.6-0.7-9.2-1.1-13.8c0.6,2.8,1.2,5.6,1.7,8.4
			c0.5,2.6,1.1,5.2,1.6,7.9c-0.2,0.3-0.4,0.6-0.6,1C1129.9,231.4,1129.3,230.2,1128.8,229z M1513.3,296.9c0,0.1,0,0.3,0,0.4
			c0,0-0.1,0-0.1,0C1513.2,297.2,1513.2,297,1513.3,296.9z M1542.5,219.6c0-1.3-0.1-2.5-0.1-3.8c0-1-0.5-1.8-1.1-2.5
			c0.2-3.7,0.4-7.4,0.6-11.2c0.3-1,0.6-2,1-3c0.8,3.3,1.5,6.5,2.3,9.8C1544.3,212.5,1543.4,216.1,1542.5,219.6z M1143.8,95.5
			c0,0.1,0,0.1,0,0.2c-1,8.8-2,17.5-2.9,26.3c-1.2-7-2.4-14-3.6-21.1c1.7-2.8,3.4-5.7,5.1-8.5C1142.9,93.4,1143.3,94.5,1143.8,95.5z
			 M1133.5,140.6c-0.7,0.5-1.3,1.1-1.6,1.8c-0.5-1.3-1-2.6-1.5-3.8c-0.9-5.6-1.9-11.3-2.8-16.9c-0.2-1.2-0.4-2.5-0.6-3.7
			c0.6-1.1,1.3-2.1,1.9-3.2C1130.4,123.4,1131.9,132,1133.5,140.6z M1124.4,102.5c-2.4-13.6-4.8-27.2-7.3-40.8
			c-1.2-8.3-2.4-16.6-3.6-24.8c0.8-0.7,1.6-1.4,2.4-2.2c3.3,21.6,6.8,43.1,10.5,64.6C1125.6,100.4,1125,101.5,1124.4,102.5z
			 M1111.8,25.3c-0.1-0.8-0.2-1.6-0.3-2.4c0.3,0.6,0.6,1.3,0.9,1.9C1112.1,24.9,1111.9,25.1,1111.8,25.3z M1104.3-27.8
			c-0.2-1.5-0.4-3-0.6-4.6c0.7-1,1.3-1.9,2-2.9c0.2,1.7,0.5,3.4,0.7,5.1C1105.7-29.3,1105-28.5,1104.3-27.8z M969.4,70.4
			c-1.8,1.9-3.5,3.8-5.3,5.7c-1.3-3.1-2.7-6.2-4-9.3c4.1-3.4,8.3-6.8,12.4-10.2C971.4,61.1,970.4,65.7,969.4,70.4z M984.6,209
			c1.2,2.3,2.4,4.7,3.7,7c1.3,8.5,2.7,17,4.1,25.6C989.8,230.7,987.2,219.9,984.6,209z M1082.3,226.9c0.7,0,1.4-0.1,2-0.3
			c0,0.3,0.1,0.5,0.1,0.8c-0.6,0.8-1.2,1.6-1.8,2.4C1082.5,228.8,1082.4,227.8,1082.3,226.9z M1283.3,333.7
			c-0.2,1.4-0.4,2.8-0.7,4.2c-0.1-0.9-0.2-1.8-0.3-2.6C1282.7,334.7,1283,334.2,1283.3,333.7z M1137.4,80.9c-0.9,1.5-1.8,3-2.8,4.6
			c-1-5.8-1.9-11.6-2.9-17.4C1133.7,72.3,1135.6,76.6,1137.4,80.9z M1106.5-12c-0.1-0.6-0.2-1.2-0.3-1.8c0.7-0.8,1.4-1.6,2-2.4
			c0.5,3.8,1.1,7.6,1.6,11.3C1108.8-7.3,1107.6-9.6,1106.5-12z M971.4,45.1c-4.8,4-9.7,7.9-14.5,11.9c0.2-1.7,0.5-3.4,0.7-5.1
			c3.5-4.5,7-9,10.5-13.5C969.2,40.5,970.3,42.8,971.4,45.1z M1084.6,243.5c0.6-0.8,1.3-1.7,1.9-2.5c0.8,5.4,1.6,10.8,2.4,16.2
			c-1.3-3.2-2.5-6.5-3.6-9.7C1085.1,246.2,1084.9,244.9,1084.6,243.5z M1238.8,355.5c-0.4-0.5-0.9-1-1.3-1.5
			c-0.7-4.6-1.5-9.2-2.3-13.9c2-3.2,3.9-6.4,5.8-9.7c0,6.9-0.1,13.8-0.1,20.7C1240.2,352.7,1239.5,354.1,1238.8,355.5z
			 M1438.9,214.1c-0.7,9.5-0.8,19-0.5,28.6c-0.9-4.2-1.8-8.5-2.8-12.7c0.9-5.8,1.8-11.6,2.7-17.4
			C1438.5,213.1,1438.7,213.6,1438.9,214.1z M1128.1,34.3c-0.8-1.8-1.6-3.6-2.4-5.4c-0.1-0.9-0.3-1.8-0.4-2.8
			c0.1-0.1,0.2-0.1,0.2-0.2C1126.3,28.8,1127.2,31.5,1128.1,34.3z M922.3,154.6c0.5,0.8,1.1,1.5,1.6,2.3c-0.4,3.1-0.9,6.2-1.3,9.3
			c-0.3-2.4-0.6-4.7-0.9-7.1C921.9,157.5,922.1,156,922.3,154.6z M1214.7,382.7c0,0.2,0,0.3,0,0.5c0-0.1,0-0.2,0-0.2
			C1214.6,382.8,1214.6,382.7,1214.7,382.7z M1497.9,354.4c0.6-2.2,1.2-4.4,1.8-6.6c0.3-1.3,0.7-2.6,1-3.9c0.3,3,0.7,6,1,9
			c-1,2.9-2.1,5.7-3.1,8.6C1498.4,359.1,1498.2,356.7,1497.9,354.4z M1552.3,242.5c-0.3-0.3-0.7-0.6-1.1-0.9
			c0.4-1.1,0.7-2.1,1.1-3.2c0.3,1.2,0.6,2.3,0.9,3.5C1552.9,242.1,1552.6,242.3,1552.3,242.5z M1101.9-48.5
			c-0.1,0.1-0.2,0.3-0.4,0.4c-0.1-0.9-0.3-1.8-0.4-2.8C1101.4-50,1101.7-49.2,1101.9-48.5z M916.6,112.5c0.3,1,0.5,2,0.8,2.9
			c-0.2,1.2-0.4,2.5-0.5,3.7c-0.2-1.7-0.4-3.3-0.6-5C916.3,113.6,916.4,113,916.6,112.5z M1261.6,347.4c-0.1,0.2-0.1,0.3-0.2,0.5
			c0,0,0-0.1,0-0.1C1261.4,347.7,1261.5,347.5,1261.6,347.4z M1334.8,132c-1.7,2.2-3.4,4.4-5,6.6c-0.3-2-0.5-4-0.8-6
			c1.9-0.2,3.9-0.5,5.8-0.7C1334.7,131.9,1334.8,132,1334.8,132z M1156.2,281.9c0.6,2.6,1.3,5.2,1.9,7.8c-0.7-1.3-1.4-2.7-2-4
			C1156.1,284.4,1156.2,283.2,1156.2,281.9z M1263.4,360.3c0.4,0,0.9,0,1.3,0c0.9,4.5,1.8,8.9,2.7,13.4c-0.5,0.7-1,1.4-1.4,2.2
			C1265,370.7,1264.2,365.5,1263.4,360.3z M1489.9,384.4c0.1-0.2,0.1-0.4,0.2-0.7c0,0.2,0,0.4,0,0.5c0,0.1-0.1,0.2-0.1,0.3
			C1490,384.5,1490,384.4,1489.9,384.4z M1451.6,166.4c-0.1-0.7-0.2-1.4-0.3-2.1c0.1,0.3,0.2,0.7,0.3,1
			C1451.6,165.7,1451.6,166,1451.6,166.4z M1121.5,280.2c0.2,3.2,0.4,6.5,0.6,9.7c-0.4-3-0.7-6-1.1-9.1
			C1121.1,280.7,1121.3,280.4,1121.5,280.2z M1299.8,370.1c0.3,1.7,0.7,3.4,1,5.2c-0.5,0.3-0.9,0.6-1.4,0.9
			C1299.6,374.1,1299.7,372.1,1299.8,370.1z M1463.7,167.8c-0.4-1.6-0.8-3.1-1.3-4.7c0-0.8,0.1-1.7,0.1-2.5
			C1462.9,163.1,1463.3,165.5,1463.7,167.8z M1382.1,76.6c0.2-0.1,0.5-0.2,0.7-0.3c0.4,2.2,0.9,4.3,1.3,6.5
			C1383.5,80.7,1382.8,78.7,1382.1,76.6z M1061.2-29.3c-0.3,0.2-0.5,0.4-0.8,0.7c0.1-1.2,0.3-2.4,0.4-3.6
			C1060.9-31.2,1061.1-30.2,1061.2-29.3z M1041.3-12.7c-0.4-2.2-0.8-4.3-1.2-6.5c0.9,1.7,1.8,3.4,2.7,5.2
			C1042.3-13.5,1041.8-13.1,1041.3-12.7z M546.6,205.5c0-0.1,0-0.3,0-0.4c0,0,0.1,0,0.1,0C546.7,205.2,546.6,205.3,546.6,205.5z
			 M677.7,425.8c-0.2,0.1-0.5,0.2-0.7,0.3c-0.4-2.2-0.9-4.3-1.3-6.5C676.4,421.7,677,423.7,677.7,425.8z M1078.6,389.2
			c0.2,1.2,0.4,2.3,0.6,3.5c-0.1,0.2-0.1,0.5-0.2,0.7C1078.9,392,1078.7,390.6,1078.6,389.2z M1563.7,136.1
			c-0.3,0.1-0.6,0.3-0.9,0.4c-1.2-3.9-2.4-7.7-3.7-11.6c0.8-3.1,1.7-6.3,2.5-9.4C1562.3,122.4,1563,129.2,1563.7,136.1z
			 M1044.8-31.9c-0.3-0.6-0.6-1.1-0.9-1.7c0.1-0.1,0.3-0.2,0.4-0.4C1044.4-33.3,1044.6-32.6,1044.8-31.9z M569.8,117.9
			c0,0.1,0.1,0.1,0.1,0.2c-0.1,0.2-0.1,0.4-0.2,0.7c0-0.2,0-0.4,0-0.5C569.7,118,569.8,117.9,569.8,117.9z M608.3,336
			c0.1,0.7,0.2,1.4,0.3,2.1c-0.1-0.3-0.2-0.7-0.3-1C608.3,336.7,608.3,336.3,608.3,336z M1156.2,308.5c0.5,0.9,1,1.8,1.5,2.8
			c-0.3,0.5-0.6,0.9-0.9,1.4C1156.6,311.3,1156.4,309.9,1156.2,308.5z M1222.5,433.2c-0.2-1.1-0.3-2.2-0.5-3.3c0.4-5,0.7-10,1.1-15
			c0.4,5.5,0.7,11,1.1,16.5C1223.6,432,1223.1,432.6,1222.5,433.2z M1225.1,444.9c0.2,3.7,0.5,7.3,0.7,11c-0.5-3.4-1-6.8-1.4-10.2
			C1224.6,445.4,1224.8,445.1,1225.1,444.9z M1339,367.4c0-0.4,0-0.8,0.1-1.2c0.7-0.3,1.4-0.6,2-0.9c0.4,1.3,0.7,2.6,1.1,3.9
			c-1,0.4-2,0.8-2.9,1.2C1339.2,369.4,1339.1,368.4,1339,367.4z M1363.7,370c-1.6,12.3-3.2,24.7-4.7,37c0.9-12,1.7-24.1,2.6-36.1
			C1362.2,370.6,1362.9,370.3,1363.7,370z M1579.9,188.6c-0.3-3-0.6-5.9-0.9-8.9c0.5,2.9,1.1,5.7,1.6,8.6
			C1580.3,188.3,1580.1,188.4,1579.9,188.6z M797.9,205c0.2,1,0.5,1.9,0.7,2.9c-1,1.9-2.1,3.9-3.1,5.8c-0.2-0.1-0.5-0.1-0.7-0.2
			c-0.2-5.5-0.5-11-0.7-16.5c0.5-0.9,1-1.7,1.5-2.6C796.3,198,797.1,201.5,797.9,205z M753.7,239.5c-0.7,1.5-1.4,3-2,4.5
			c-0.2-0.8-0.5-1.6-0.7-2.4c0-0.8,0-1.7,0-2.5C751.9,239.4,752.8,239.5,753.7,239.5z M561.9,148c-0.6,2.2-1.2,4.4-1.8,6.6
			c-0.3,1.3-0.7,2.6-1,3.9c-0.3-3-0.7-6-1-9c1-2.9,2.1-5.7,3.1-8.6C561.4,143.3,561.7,145.6,561.9,148z M480,313.8
			c0.3,3,0.6,5.9,0.9,8.9c-0.5-2.9-1.1-5.7-1.6-8.6C479.5,314.1,479.8,313.9,480,313.8z M496.1,366.3c0.3-0.1,0.6-0.3,0.9-0.4
			c1.2,3.9,2.4,7.7,3.7,11.6c-0.8,3.1-1.7,6.3-2.5,9.4C497.6,380,496.8,373.2,496.1,366.3z M597.4,339.2c0,0.8-0.1,1.7-0.1,2.5
			c-0.4-2.4-0.8-4.8-1.2-7.2C596.6,336.1,597,337.6,597.4,339.2z M733.4,391c-0.2,1-0.3,1.9-0.5,2.9c-0.4-0.7-0.8-1.4-1.2-2.1
			C732.3,391.5,732.8,391.2,733.4,391z M1298.2,397.2c0.3-0.1,0.6-0.2,0.9-0.4c-0.5,3.5-1,7-1.5,10.5
			C1297.8,403.9,1298,400.6,1298.2,397.2z M1324.7,357.9c0.3,1.5,0.5,3,0.8,4.5c-0.5,0.2-1,0.5-1.5,0.7
			C1324.2,361.4,1324.4,359.7,1324.7,357.9z M1340.3,379.7c0.8-0.3,1.5-0.6,2.3-0.9c-0.4,3.5-0.9,7-1.3,10.5
			C1340.9,386.1,1340.6,382.9,1340.3,379.7z M1597.2,216.2c2.4,10.8,5.1,21.5,8.1,32.1c-0.4,0.7-0.9,1.3-1.3,2
			c-2-9.5-3.9-19.1-5.9-28.6c-0.1-0.5-0.3-0.9-0.6-1.3c-0.7-3.7-1.4-7.4-2.1-11.1C1596,211.6,1596.6,213.9,1597.2,216.2z
			 M1581.1,112.4c0.9,0.3,1.8,0.6,2.7,0.8c-0.5,1.4-0.9,2.8-1.4,4.1C1582,115.7,1581.5,114,1581.1,112.4z M1488.4,114.5
			c0.2-2.7,0.5-5.4,0.7-8.1c0.4-0.1,0.7-0.1,1.1-0.2c0.1,0,0.2-0.1,0.3-0.1c0,2.3,0,4.6,0.1,6.9
			C1489.7,113.3,1489,113.8,1488.4,114.5z M845.2,119.7c0-0.2,0-0.3,0-0.5c0,0.1,0,0.2,0,0.2C845.2,119.6,845.2,119.6,845.2,119.7z
			 M462.7,286.1c-2.4-10.8-5.1-21.5-8.1-32.1c0.4-0.7,0.9-1.3,1.3-2c2,9.5,3.9,19.1,5.9,28.6c0.1,0.5,0.3,0.9,0.6,1.3
			c0.7,3.7,1.4,7.4,2.1,11.1C463.9,290.8,463.3,288.5,462.7,286.1z M478.7,390c-0.9-0.3-1.8-0.6-2.7-0.8c0.5-1.4,0.9-2.8,1.4-4.1
			C477.9,386.7,478.3,388.3,478.7,390z M816.8,313.5c0.2,0.5,0.4,0.9,0.6,1.4c-0.3,1.7-0.7,3.5-0.9,5.2c-0.2-1.2-0.4-2.4-0.6-3.7
			C816.2,315.5,816.5,314.5,816.8,313.5z M1099.6,435.3c1.2,2.8,2.4,5.6,3.5,8.3c-0.4,3.2-0.9,6.4-1.3,9.6
			C1101.1,447.3,1100.4,441.3,1099.6,435.3z M1322.3,374c1.4-0.7,2.8-1.4,4.1-2c0.1-0.1,0.2-0.1,0.4-0.2c-0.3,1.4-0.6,2.7-1,4.1
			c-1.4,0.6-2.7,1.1-4.1,1.7C1322,376.4,1322.2,375.2,1322.3,374z M1597.9,104.8c0.1-1.1,0.2-2.2,0.3-3.4c0-0.3,0.1-0.5,0.1-0.8
			c-0.1,1.4-0.2,2.8-0.3,4.2C1597.9,104.9,1597.9,104.8,1597.9,104.8z M1624.5,63.8c-1.2-3.8-6.6-4-9.1-1.7c-0.1-0.3-0.3-0.7-0.4-1
			c-0.1-0.3-0.3-0.6-0.5-0.8c1-7.8,2-15.7,3.1-23.5c3,10,5.9,20,8.7,30c-0.3-0.2-0.6-0.3-0.9-0.4C1625,65.5,1624.8,64.6,1624.5,63.8
			z M1453.1,119.7c-0.3,1-0.6,2-0.9,3c0.3-2.2,0.7-4.4,1-6.7C1453.2,117.3,1453.2,118.5,1453.1,119.7z M462,397.5
			c-0.1,1.1-0.2,2.2-0.3,3.4c0,0.3-0.1,0.5-0.1,0.8c0.1-1.4,0.2-2.8,0.3-4.2C461.9,397.5,461.9,397.5,462,397.5z M637.2,392.6
			c0.3-0.1,0.7-0.1,1-0.2c0.2,1.4,0.3,2.8,0.5,4.3c0,0,0,0.1,0,0.1c-0.7-0.1-1.4-0.2-2.1-0.3C636.8,395.2,637,393.9,637.2,392.6z
			 M1053.8,434.9c0.7,3.6,1.3,7.2,2,10.8c-0.4-0.9-0.8-1.9-1.2-2.8C1054.3,440.2,1054.1,437.6,1053.8,434.9z M1159.5,335.3
			c0.3-0.5,0.4-1.1,0.3-1.8c-0.2-1.7-0.5-3.4-0.7-5.1c1.6-2.5,3.2-5,4.8-7.4c0.5,3.2,1.1,6.3,1.6,9.5c0.4,12.8,1,25.5,1.7,38.3
			C1164.6,357.5,1162,346.4,1159.5,335.3z M1319.3,394.8c0.3-2.3,0.7-4.5,1-6.8c1-0.4,2-0.8,3-1.3c-1.1,4.8-2.3,9.7-3.4,14.5
			C1319.8,399.1,1319.5,397,1319.3,394.8z M1406.6,405.8c0.7,1.1,1.3,2.3,2,3.4c-0.2,1.5-0.4,3-0.5,4.6
			C1407.6,411.2,1407.1,408.5,1406.6,405.8z M1440.3,465.3c0.2-0.1,0.3-0.2,0.5-0.3c0.1,0.1,0.1,0.2,0.2,0.3c0,2,0,4.1,0,6.1
			c-0.1,0.5-0.2,0.9-0.3,1.4c-0.3-0.4-0.7-0.9-1-1.3C1439.9,469.5,1440.1,467.4,1440.3,465.3z M1621.3,248.7
			c-0.1-0.4-0.2-0.8-0.3-1.2c0-0.7,0.1-1.3,0.1-2c0.1,1.2,0.2,2.4,0.3,3.6C1621.4,249,1621.4,248.9,1621.3,248.7z M1587.2,135.9
			c0,0,0-0.1,0.1-0.1c0,0.1,0,0.2,0,0.3C1587.2,136,1587.2,135.9,1587.2,135.9z M1422.7,109.7c-0.3,0.1-0.7,0.1-1,0.2
			c-0.2-1.4-0.3-2.8-0.5-4.3c0,0,0-0.1,0-0.1c0.7,0.1,1.4,0.2,2.1,0.3C1423.1,107.1,1422.9,108.4,1422.7,109.7z M970.1-19.3
			c-0.3,0.2-0.6,0.4-0.9,0.7c-0.8-2.2-1.6-4.5-2.3-6.8c0-0.5,0.1-0.9,0.1-1.4c0.1-0.3,0.1-0.7,0.2-1c0.8,1.8,1.6,3.6,2.4,5.4
			C969.7-21.4,969.9-20.3,970.1-19.3z M900.6,101.3c-0.4-1.6-0.8-3.2-1.2-4.7c0.5-0.5,1-1,1.5-1.5
			C900.8,97.1,900.7,99.2,900.6,101.3z M798.5,154.6c-0.2,0.3-0.4,0.7-0.6,1c-1.6-7.9-3.1-15.8-4.7-23.6c0.5-0.3,1-0.7,1.5-1
			C796,138.8,797.2,146.7,798.5,154.6z M438.4,253.2c0,0.1,0.1,0.3,0.1,0.4c0.1,0.4,0.2,0.8,0.3,1.2c0,0.7-0.1,1.3-0.1,2
			C438.6,255.6,438.5,254.4,438.4,253.2z M472.6,366.5c0,0,0,0.1-0.1,0.1c0-0.1,0-0.2,0-0.3C472.6,366.4,472.6,366.5,472.6,366.5z
			 M607,375c0.3,1.1,0.6,2.2,0.9,3.3c-0.4,2.7-0.8,5.3-1.2,8C606.7,382.5,606.8,378.7,607,375z M1314.8,468.6
			c0.3-1.2,0.6-2.5,0.9-3.7c0.2,1.9,0.4,3.8,0.6,5.6c-0.4-0.4-0.9-0.7-1.4-0.9C1314.9,469.3,1314.9,469,1314.8,468.6z M1486.8,453.6
			c0-3.7,0-7.3,0-11c0.3,1.6,0.7,3.2,1,4.7c-0.3,2.8-0.7,5.7-1,8.5C1486.8,455.1,1486.8,454.4,1486.8,453.6z M1612.5,216.2
			c-0.9-3.5-1.7-7-2.5-10.5c0.9,2.4,1.9,4.9,2.8,7.3C1612.7,214.1,1612.6,215.2,1612.5,216.2z M1554.6,4.8c0.4,1.1,0.7,2.2,1.1,3.3
			c-0.4,2-0.7,4-1.1,6c-0.1-1.8-0.2-3.7-0.3-5.5C1554.3,7.4,1554.4,6.1,1554.6,4.8z M948.1,9c-0.8,0.8-1.7,1.6-2.5,2.4
			c0.1-0.6,0.2-1.2,0.3-1.8c0.8-0.5,1.5-1,2.3-1.5C948.1,8.4,948.1,8.7,948.1,9z M901,72.9c0.3,2.5,0.5,5,0.8,7.4c0,0.1,0,0.2,0,0.3
			c-1.7,1.6-3.4,3.3-5.1,5c-0.6-2.3-1.2-4.6-1.8-6.9C897,76.7,899,74.8,901,72.9C901,72.9,901,72.9,901,72.9z M760,132.3
			c-0.3-1.7-0.7-3.4-1-5.2c0.5-0.3,0.9-0.6,1.4-0.9C760.2,128.3,760.1,130.3,760,132.3z M501.6,42.4c-0.3,6.5-0.5,13-0.8,19.5
			c-0.4-2.3-0.9-4.6-1.3-6.8C500.2,50.8,500.9,46.6,501.6,42.4z M481.2,128.2c2,0.4,4.1,0,5.3-1.2c0,0.3,0,0.6,0,0.8
			c-1.2,4.3-2.4,8.6-3.6,12.9C482.4,136.6,481.8,132.4,481.2,128.2z M486.6,167.2C486.6,167.2,486.6,167.2,486.6,167.2
			C486.6,167.2,486.6,167.2,486.6,167.2C486.6,167.2,486.6,167.2,486.6,167.2z M447.3,286.2c0.9,3.5,1.7,7,2.5,10.5
			c-0.9-2.4-1.9-4.9-2.8-7.3C447.2,288.3,447.3,287.2,447.3,286.2z M741.2,436.5c0.5,1.2,1,2.5,1.5,3.7c-0.3,3.9-0.6,7.9-0.9,11.8
			c-0.3-0.9-0.6-1.7-0.9-2.6C741,445.2,741.1,440.9,741.2,436.5z M1216.5,508c0,0.2,0.1,0.4,0.1,0.5c0,0.2,0.1,0.3,0.1,0.5
			c-0.2,1.1-0.4,2.1-0.6,3.2C1216.3,510.8,1216.4,509.4,1216.5,508z M1323.3,435.5c0.4-0.2,0.9-0.4,1.3-0.6
			c-0.1,2.4-0.3,4.8-0.4,7.1c-0.2-1.2-0.4-2.4-0.6-3.6C1323.5,437.4,1323.4,436.5,1323.3,435.5z M1523.4,457.4
			c1.2,3.8,2.3,7.6,3.4,11.4c-0.8,3.8-1.5,7.5-2.3,11.3c0,0,0,0.1,0,0.1c-0.5-6.7-1.1-13.4-1.6-20.1
			C1523.1,459.2,1523.3,458.3,1523.4,457.4z M1558.2,460c0.3-6.5,0.5-13,0.8-19.5c0.4,2.3,0.9,4.6,1.3,6.8
			C1559.7,451.6,1559,455.8,1558.2,460z M1578.6,374.1c-2-0.4-4.1,0-5.3,1.2c0-0.3,0-0.6,0-0.8c1.2-4.3,2.4-8.6,3.6-12.9
			C1577.5,365.8,1578,370,1578.6,374.1z M1573.3,335.2C1573.3,335.2,1573.3,335.2,1573.3,335.2
			C1573.3,335.2,1573.3,335.2,1573.3,335.2C1573.3,335.2,1573.3,335.2,1573.3,335.2z M1599.9,152.7c-0.5-1.1-1.5-1.9-2.7-2.4
			c0.2-2.8,0.4-5.6,0.5-8.4c0.8,3.9,1.7,7.9,2.6,11.8C1600.2,153.4,1600,153.1,1599.9,152.7z M1629.6,73.1c0.1,0.1,0.2,0.1,0.4,0.1
			c0.7,1.7,1.5,3.5,2.3,5.2c0.8,3,1.6,6.1,2.4,9.1C1633,82.8,1631.3,77.9,1629.6,73.1z M921.2,31.3c-0.5,0.4-1.1,0.7-1.6,1.1
			c-0.5-1.2-1-2.4-1.5-3.5c0.5-0.3,1-0.7,1.4-1C920,29,920.6,30.1,921.2,31.3z M653.2,96.5c-0.7-1.1-1.3-2.3-2-3.4
			c0.2-1.5,0.4-3,0.5-4.6C652.3,91.2,652.7,93.9,653.2,96.5z M573,48.8c0,3.6,0,7.3,0,10.9c-0.3-1.6-0.7-3.2-1-4.7
			c0.3-2.8,0.7-5.7,1-8.5C573,47.3,573,48,573,48.8z M460,349.6c0.5,1.1,1.5,1.9,2.7,2.4c-0.2,2.8-0.4,5.6-0.5,8.4
			c-0.8-3.9-1.7-7.9-2.6-11.8C459.7,349,459.8,349.3,460,349.6z M505.3,497.6c-0.4-1.1-0.7-2.2-1.1-3.3c0.4-2,0.7-4,1.1-6
			c0.1,1.8,0.2,3.7,0.3,5.5C505.5,495,505.4,496.3,505.3,497.6z M937.1,198.4c0,0,0.1-0.1,0.1-0.1c0.3,1.1,0.5,2.3,0.8,3.4
			c-0.2,0.2-0.4,0.5-0.6,0.7C937.2,201.1,937.1,199.8,937.1,198.4z M1001.7,364.3c-0.2-1.3-0.5-2.7-0.7-4c0.3,0.7,0.6,1.3,0.9,2
			c0.4,1.7,0.8,3.5,1.2,5.2C1002.7,366.5,1002.2,365.4,1001.7,364.3z M1134.4,361.2c0.3,0.4,0.6,0.9,0.9,1.3c-0.5,3.2-1,6.4-1.5,9.6
			C1134.1,368.5,1134.2,364.8,1134.4,361.2z M1222.7,535.6c0.8,4.9,1.6,9.8,2.3,14.7c-1.2-1.1-3-1.5-4.7-1.2
			C1221.2,544.6,1221.9,540.1,1222.7,535.6z M1317.6,481.9c0.1,1,0.2,2,0.3,3c-0.1,0-0.2,0-0.3,0.1
			C1317.6,483.9,1317.6,482.9,1317.6,481.9z M1401.5,439.9c0-0.3,0-0.6,0-1c0.1,0.2,0.2,0.3,0.3,0.5c0.1,0.4,0.2,0.9,0.2,1.3
			C1401.9,440.5,1401.7,440.2,1401.5,439.9z M1615.9,173.6c-0.7-2.8-1.4-5.6-2.1-8.4c0.6,1.7,1.3,3.3,1.9,5
			C1615.8,171.4,1615.8,172.5,1615.9,173.6z M1631.2,33.4c0,0,0.1,0,0.1-0.1c0.1,0.4,0.1,0.8,0.2,1.2
			C1631.4,34.2,1631.3,33.8,1631.2,33.4z M1543.5,8.7c-0.4,4.3-0.8,8.6-1.2,12.8c0.2-7.6,0.5-15.2,0.7-22.8
			C1543.1,2,1543.3,5.3,1543.5,8.7z M1033.3-66.5c0.6-1.2,1.2-2.5,1.8-3.7c0.2,0.6,0.3,1.2,0.5,1.8
			C1034.8-67.8,1034-67.1,1033.3-66.5z M836.7,87.8c-0.5,1.1-0.9,2.2-1.4,3.4c-0.5,0.4-1,0.7-1.6,1.1c-0.1-0.8-0.2-1.7-0.3-2.5
			c1.1-1.1,2.2-2.1,3.3-3.2C836.8,87,836.8,87.4,836.7,87.8z M790.5,113.8c-0.2-4.2-0.4-8.3-0.5-12.5c0.6,3.6,1.2,7.2,1.7,10.8
			C791.3,112.6,790.9,113.2,790.5,113.8z M619.5,37.1c-0.2,0.1-0.3,0.2-0.5,0.3c-0.1-0.1-0.1-0.2-0.2-0.3c0-2,0-4.1,0-6.1
			c0.1-0.5,0.2-0.9,0.3-1.4c0.3,0.4,0.7,0.9,1,1.3C619.9,32.9,619.7,35,619.5,37.1z M405.7,158.6c0.4,5.1,0.9,10.2,1.2,15.3
			c-0.7-5-1.5-10-2.4-15.1C405,158.8,405.3,158.7,405.7,158.6z M416.2,234.5c0.5,3.5,1,6.9,1.4,10.4c-0.8-4.4-1.6-8.8-2.4-13.3
			C415.6,232.5,415.9,233.5,416.2,234.5z M444,328.8c0.7,2.8,1.4,5.6,2.1,8.4c-0.6-1.7-1.3-3.3-1.9-5C444.1,331,444,329.9,444,328.8
			z M516.4,493.7c0.4-4.3,0.8-8.6,1.2-12.8c-0.2,7.6-0.5,15.2-0.7,22.8C516.7,500.3,516.5,497,516.4,493.7z M571.4,387.9
			c-0.2,2.7-0.5,5.4-0.7,8.1c-0.4,0.1-0.7,0.1-1.1,0.2c-0.1,0-0.2,0.1-0.3,0.1c0-2.3,0-4.6-0.1-6.9
			C570.1,389.1,570.9,388.6,571.4,387.9z M938,216.5c0.7-0.8,1.4-1.6,2.1-2.4c0.3,1.9,0.5,3.9,0.7,5.8c-0.6,4.1-1.3,8.2-1.9,12.3
			C938.6,226.9,938.3,221.7,938,216.5z M1400.7,457.2c0,0.1,0.1,0.1,0.1,0.2c0,0-0.1,0-0.1,0.1
			C1400.7,457.4,1400.7,457.3,1400.7,457.2z M1495.1,510.9c0.8,3.6,1.5,7.2,2.3,10.8c-1.2-1.8-2.3-3.6-3.5-5.4
			C1494.3,514.5,1494.7,512.7,1495.1,510.9z M1497.9,498.2c0,0.5,0,1,0,1.5c-0.1,0-0.2,0-0.3,0
			C1497.6,499.3,1497.7,498.7,1497.9,498.2z M1654.2,343.8c-0.4-5.1-0.9-10.2-1.2-15.3c0.7,5,1.5,10,2.4,15.1
			C1654.9,343.6,1654.5,343.7,1654.2,343.8z M1643.6,267.9c-0.5-3.5-1-6.9-1.4-10.4c0.8,4.4,1.6,8.8,2.4,13.3
			C1644.2,269.8,1643.9,268.9,1643.6,267.9z M1443.7,82.4c0-0.5,0.1-1.1,0.1-1.6c0.1-1,0.3-1.9,0.4-2.9c0.3-0.1,0.7-0.2,1-0.2
			C1444.7,79.2,1444.2,80.8,1443.7,82.4z M1318.6,65.8c-0.5-1.2-1-2.5-1.5-3.7c0.3-3.9,0.6-7.9,0.9-11.8c0.3,0.9,0.6,1.7,0.9,2.6
			C1318.8,57.2,1318.7,61.5,1318.6,65.8z M1054-78.9c-2.1,1.5-4.2,3-6.2,4.4c-0.9-0.3-1.9-0.4-2.9-0.3c-0.8-2.9-1.5-5.9-2.3-8.8
			c3.2-2.3,6.5-4.6,9.8-6.8C1052.9-86.6,1053.4-82.7,1054-78.9z M896.9,31.2c0.2,0.3,0.3,0.6,0.5,1c-1.4,1.9-0.2,4,2,5.1
			c0.3,1.9,0.5,3.9,0.8,5.8c-0.3,0.2-0.6,0.4-0.8,0.7c-1.6-3.5-3.1-7.1-4.6-10.7C895.4,32.4,896.1,31.8,896.9,31.2z M895.8,61.3
			c-1.4,1.5-2.8,2.9-4.2,4.4c-0.1-0.6-0.3-1.1-0.4-1.7c0-0.1-0.1-0.2-0.1-0.3c1.5-1,2.9-2,4.4-3.1C895.6,60.9,895.7,61.1,895.8,61.3
			z M837.3,69.2c0.1,1,0.3,2,0.5,3c-1.9,1.8-3.7,3.6-5.6,5.3c-0.1-0.8-0.2-1.5-0.2-2.3C833.7,73.2,835.5,71.2,837.3,69.2z
			 M797.6,57.5c0.1,1.1,0.2,2.1,0.3,3.2c-0.2,0.2-0.5,0.4-0.7,0.6c0,0-0.1,0.1-0.1,0.1C797.2,60.1,797.4,58.8,797.6,57.5z
			 M720.8,134.4c-0.2-0.7-0.4-1.5-0.6-2.2c0.1-0.1,0.2-0.1,0.4-0.2C720.6,132.8,720.7,133.6,720.8,134.4z M717.7,123.4
			c-0.1-0.4-0.2-0.8-0.3-1.1c0.4-3,0.8-6.1,1.1-9.1c0.3,3.2,0.7,6.3,1,9.5C719,122.9,718.3,123.2,717.7,123.4z M698.3,131.5
			c-0.7,0.3-1.4,0.6-2.1,0.9c1.6-12.3,3.2-24.7,4.7-37C700.1,107.4,699.2,119.4,698.3,131.5z M459.2,104.1
			C459.2,104.1,459.2,104.1,459.2,104.1C459.2,104.1,459.2,104.1,459.2,104.1C459.2,104.1,459.2,104.1,459.2,104.1
			C459.2,104.1,459.2,104.1,459.2,104.1z M454.3,85.5c-0.1-2.5-0.1-5.1-0.2-7.6c0-1.9-0.1-3.7-0.1-5.6c0.5,3.1,1.1,6.3,1.6,9.4
			C455.2,82.9,454.8,84.2,454.3,85.5z M1162,436.6c-0.3-2-0.7-4-1-6.1c0.4,2.2,0.9,4.5,1.3,6.7C1162.2,437,1162.1,436.8,1162,436.6z
			 M1400.3,467.3c0.5-0.2,1-0.4,1.6-0.6c-0.5,4.1-1,8.3-1.5,12.4c-0.1-1.3-0.3-2.6-0.4-3.9C1400.1,472.6,1400.2,469.9,1400.3,467.3z
			 M1600.6,398.3C1600.6,398.3,1600.6,398.3,1600.6,398.3C1600.6,398.3,1600.6,398.3,1600.6,398.3
			C1600.6,398.3,1600.6,398.3,1600.6,398.3C1600.6,398.3,1600.6,398.3,1600.6,398.3z M1605.5,416.9c0.1,2.5,0.1,5.1,0.2,7.6
			c0,1.9,0.1,3.7,0.1,5.6c-0.5-3.1-1.1-6.3-1.6-9.4C1604.7,419.4,1605.1,418.2,1605.5,416.9z M1447.3,68.3c-0.6,0.1-1.2,0.2-1.8,0.3
			c0.3-2,0.6-4.1,0.8-6.1C1446.7,64.4,1447,66.4,1447.3,68.3z M1394.9,11.4C1394.9,11.4,1394.9,11.4,1394.9,11.4
			C1394.9,11.4,1394.9,11.4,1394.9,11.4C1394.9,11.4,1394.9,11.4,1394.9,11.4z M1266.1,109.9c0.2,2.3,0.5,4.7,0.7,7
			c-0.5,1.5-1.1,3-1.6,4.5c-0.5-3.1-1.1-6.1-1.6-9.2C1264.5,111.5,1265.3,110.7,1266.1,109.9z M925.6,11c-0.1,0.4-0.1,0.8-0.2,1.1
			c-0.5,0.4-1.1,0.8-1.6,1.2c-0.6-1.3-1.3-2.6-2-3.9c0.8-0.7,1.6-1.3,2.4-2C924.7,8.6,925.1,9.8,925.6,11z M886.8,40.9
			c1.6,3.7,3.2,7.3,4.8,11c-1.4,0.9-2.7,1.9-4.1,2.8c-0.3-4.3-0.6-8.6-0.9-12.9C886.7,41.5,886.7,41.2,886.8,40.9z M835.5,56.7
			c-1.5,1.6-3,3.2-4.5,4.9c0.8-4.6,1.6-9.2,2.4-13.7c0.3-0.2,0.5-0.4,0.8-0.5C834.6,50.5,835.1,53.6,835.5,56.7z M796.3,66.4
			c0.6,0.6,1.4,1.2,2.3,1.5c1,10,2,20.1,2.9,30.1c-0.1,0.2-0.3,0.4-0.4,0.6c-1.7-9.9-3.4-19.8-5.1-29.7
			C796.1,68.1,796.2,67.2,796.3,66.4z M735.2,144.4c-0.3-1.5-0.5-3-0.8-4.5c0.5-0.2,1-0.5,1.5-0.7
			C735.7,141,735.4,142.7,735.2,144.4z M658.3,62.4c0,0.3,0,0.6,0,1c-0.1-0.2-0.2-0.3-0.3-0.5c-0.1-0.4-0.2-0.9-0.2-1.3
			C657.9,61.9,658.1,62.1,658.3,62.4z M457.6,31.9c-0.1-0.6-0.2-1.3-0.3-1.9c1.2-0.9,1.9-2.4,1.5-4.2c-1.2-5.5-2.5-11.1-3.7-16.6
			c1.6,1,4,1.1,5.9,0.4c-0.1,13.6-0.1,27.3,0.1,40.9C459.9,44.4,458.8,38.2,457.6,31.9z M427.9-0.2c0.1-1.2,0.2-2.4,0.3-3.6
			c0.1,2.3,0.3,4.5,0.4,6.8C428.4,1.9,428.1,0.8,427.9-0.2z M430.3,429.3c-0.1-0.1-0.2-0.1-0.4-0.1c-0.7-1.7-1.5-3.5-2.3-5.2
			c-0.8-3-1.6-6.1-2.4-9.1C426.8,419.6,428.5,424.4,430.3,429.3z M434.5,436c0.3,0.9,0.5,1.7,0.8,2.6c1.2,3.8,6.6,4,9.1,1.7
			c0.1,0.3,0.3,0.7,0.4,1c0.1,0.3,0.3,0.6,0.5,0.8c-1,7.8-2,15.7-3.1,23.5c-3-10-5.9-20-8.7-30C433.9,435.8,434.2,435.9,434.5,436z
			 M612.5,434.1c0.6-0.1,1.2-0.2,1.8-0.3c-0.3,2-0.6,4.1-0.8,6.1C613.1,437.9,612.8,436,612.5,434.1z M614.7,424.7
			c0.5-1.6,1-3.2,1.5-4.8c0,0.5-0.1,1.1-0.1,1.6c-0.1,1-0.3,1.9-0.4,2.9C615.3,424.6,615,424.6,614.7,424.7z M664.9,491
			C664.9,491,664.9,491,664.9,491C664.9,491,664.9,491,664.9,491C664.9,491,664.9,491,664.9,491z M667.2,508.9
			c0.7,5.7,1.4,11.4,2.1,17.1c-0.7-0.4-1.5-0.6-2.4-0.8c-0.3-1.5-0.7-3-1-4.4c-0.1-3.3-0.1-6.6-0.2-10
			C666.4,510.3,666.9,509.7,667.2,508.9z M945,278.5c-1.1-2.5-2.3-4.9-3.4-7.4c-0.5-7.4-1.1-14.7-1.6-22.1c1.2,0.4,2.7,0.4,3.9,0.2
			c0.2,1.9,0.4,3.7,0.5,5.6c0.9,9.7,1.9,19.3,2.8,29C946.5,281.9,945.8,280.2,945,278.5z M984.3,359.8c2.6,6.3,5.1,12.6,7.7,18.9
			c0.8,3.8,1.5,7.6,2.3,11.4c0.2,1,0.9,1.8,1.8,2.3c0.7,3.9,1.4,7.8,2.1,11.7c-5.6-13.8-11.3-27.7-17-41.5
			C982.2,361.7,983.3,360.7,984.3,359.8z M1160.1,462.4c0.7,0,1.3-0.1,2-0.3c2.4,5.6,4.8,11.2,7.2,16.7c-0.2,1-0.4,2-0.6,2.9
			c-2.7-5-5.3-10-8-15C1160.5,465.4,1160.3,463.9,1160.1,462.4z M1189.9,539.2c1.5,2.4,3.1,4.9,4.6,7.3c0,1.9,0,3.8,0.1,5.8
			c-1.6-3.6-3.2-7.3-4.8-10.9C1189.8,540.6,1189.9,539.9,1189.9,539.2z M1269.1,492.5c0.1-0.6,0.2-1.2,0.3-1.8c1.4,1,3,1.7,4.6,2.3
			c0,0.1,0,0.1,0.1,0.2c-0.4,12.8-0.8,25.6-1.1,38.4c-0.6,0.4-1.2,0.8-1.8,1.2C1270.5,519.4,1269.8,505.9,1269.1,492.5z
			 M1272.3,550.6c0,0,0-0.1,0-0.1c0,1.3-0.1,2.6-0.1,3.8c0-1-0.1-2-0.2-3C1272.2,551.1,1272.2,550.9,1272.3,550.6z M1373.4,550.2
			c0,0.8,0,1.5,0,2.3c-0.1-0.1-0.2-0.1-0.3-0.2C1373.2,551.6,1373.3,550.9,1373.4,550.2z M1602.2,470.4c0.1,0.6,0.2,1.3,0.3,1.9
			c-1.2,0.9-1.9,2.4-1.5,4.2c1.2,5.5,2.5,11.1,3.7,16.6c-1.6-1-4-1.1-5.9-0.4c0.1-13.6,0.1-27.3-0.1-40.9
			C1599.9,458,1601.1,464.2,1602.2,470.4z M1631.9,502.6c-0.1,1.2-0.2,2.4-0.3,3.6c-0.1-2.3-0.3-4.5-0.4-6.8
			C1631.4,500.5,1631.7,501.5,1631.9,502.6z M1629.8,154c0.3,0.7,0.7,1.3,1,2c0.6,1.1,1.4,1.9,2.5,2.4c1.5,7.9,3,15.9,4.3,23.9
			C1635,172.8,1632.4,163.4,1629.8,154z M1541.1-26.2c-3-1.5-8-0.2-8.4,3.7c0,0.1,0,0.3,0,0.4c-0.1-0.5-0.3-1-0.4-1.5
			c1.1-4.5,2.1-9.1,3.1-13.6C1537.3-33.5,1539.2-29.8,1541.1-26.2z M1491-32c-0.2-1-0.5-2-0.7-3c0.6-3.5,1.3-7,1.9-10.4
			C1491.8-40.9,1491.4-36.4,1491-32z M1489.2-12c-1.3,14.5-2.6,28.9-4,43.4c-0.4,1.2-0.8,2.4-1.2,3.6c1.4-15.7,2.6-31.4,3.6-47.1
			C1488.1-12,1488.7-12,1489.2-12z M1394-18.3c0.1,3.3,0.1,6.6,0.2,10c-0.7,0.5-1.3,1.1-1.5,1.9c-0.7-5.7-1.4-11.4-2.1-17.1
			c0.7,0.4,1.5,0.6,2.4,0.8C1393.3-21.3,1393.7-19.8,1394-18.3z M1263.6,98.8c-0.7,0.6-1.3,1.1-2,1.7c-0.2-0.9-0.3-1.8-0.5-2.6
			c-0.2-2.1-0.5-4.3-0.7-6.4c0.1-0.6,0.3-1.2,0.4-1.9C1261.8,92.6,1262.7,95.7,1263.6,98.8z M737.5,128.4c-1.4,0.7-2.8,1.4-4.1,2
			c-0.1,0.1-0.2,0.1-0.4,0.2c0.3-1.4,0.6-2.7,1-4.1c1.4-0.6,2.7-1.1,4.1-1.7C737.8,126,737.7,127.2,737.5,128.4z M659.1,45.2
			c0-0.1-0.1-0.1-0.1-0.2c0,0,0.1,0,0.1-0.1C659.1,45,659.1,45.1,659.1,45.2z M430,348.4c-0.3-0.7-0.7-1.3-1-2
			c-0.6-1.1-1.4-1.9-2.5-2.4c-1.5-7.9-3-15.9-4.3-23.9C424.8,329.5,427.5,338.9,430,348.4z M428.7,469c0,0-0.1,0-0.1,0.1
			c-0.1-0.4-0.1-0.8-0.2-1.2C428.5,468.2,428.6,468.6,428.7,469z M518.7,528.5c3,1.5,8,0.2,8.4-3.7c0-0.1,0-0.3,0-0.4
			c0.1,0.5,0.3,1,0.4,1.5c-1.1,4.5-2.1,9.1-3.1,13.6C522.6,535.9,520.7,532.2,518.7,528.5z M568.8,534.3c0.2,1,0.5,2,0.7,3
			c-0.6,3.5-1.3,7-1.9,10.4C568,543.3,568.4,538.8,568.8,534.3z M570.6,514.4c1.6-17.3,3.1-34.5,4.7-51.8c0.2,1.3,0.3,2.6,0.5,3.9
			c-1.4,16-2.6,32-3.6,48C571.7,514.4,571.2,514.4,570.6,514.4z M950.9,340.9c-2.2-12.6-4.5-25.2-6.8-37.8c0-0.2,0-0.5-0.1-0.7
			c2.1,4.9,4.2,9.7,6.3,14.6c1.6,17.8,3.2,35.5,4.7,53.3c0.5,5.9,1,11.8,1.5,17.8c-1.8-3.9-3.6-7.9-5.4-11.8
			c-1.1-10.1-2.2-20.2-3.2-30.4C949.9,345,951.3,343.3,950.9,340.9z M1165.3,497.3c-0.1,0.3-0.1,0.6-0.2,0.9
			c-0.1-0.6-0.2-1.1-0.3-1.7C1165,496.7,1165.2,497,1165.3,497.3z M1350,560.2c0.1,1.2,0.3,2.4,0.4,3.7c0,0,0,0,0,0.1
			c-0.3,0.1-0.6,0.2-1,0.3C1349.6,562.9,1349.8,561.6,1350,560.2z M1440.8,526.4c0.2-0.1,0.3-0.2,0.4-0.3c-0.1,0.4-0.2,0.8-0.3,1.3
			C1440.8,527,1440.8,526.7,1440.8,526.4z M1492.1,533.5c-0.1-0.5-0.4-1-0.8-1.3c-0.3-0.5-0.6-1-0.9-1.5c0.2-0.7,0.3-1.4,0.5-2.2
			c1.7,0.6,3.8,0.4,5.3-0.3c-0.6,3.2-1.2,6.4-1.7,9.6C1493.7,536.3,1492.9,534.9,1492.1,533.5z M1650.8,185.5
			c0.2,4.5,0.3,9,0.2,13.5c-0.7-4.4-1.3-8.7-2-13.1C1649.6,185.9,1650.2,185.8,1650.8,185.5z M1538.9-53.2c0-0.1,0.1-0.2,0.1-0.4
			c0.1,0.4,0.2,0.8,0.3,1.2C1539.2-52.6,1539-52.9,1538.9-53.2z M895,5.9c0,0,0-0.1-0.1-0.1c0,0,0,0,0,0C895,5.8,895,5.9,895,5.9z
			 M740.5,107.5c-0.3,2.3-0.7,4.5-1,6.8c-1,0.4-2,0.8-3,1.3c1.1-4.8,2.3-9.7,3.4-14.5C740.1,103.3,740.3,105.4,740.5,107.5z
			 M659.5,35.1c-0.5,0.2-1,0.4-1.6,0.6c0.5-4.1,1-8.3,1.5-12.4c0.1,1.3,0.3,2.6,0.4,3.9C659.8,29.8,659.7,32.4,659.5,35.1z
			 M567.7-31.1c0.1,0.5,0.4,1,0.8,1.3c0.3,0.5,0.6,1,0.9,1.5c-0.2,0.7-0.3,1.4-0.5,2.2c-1.7-0.6-3.8-0.4-5.3,0.3
			c0.6-3.2,1.2-6.4,1.7-9.6C566.1-33.9,566.9-32.5,567.7-31.1z M562.4-19.4c1.2,1.8,2.4,3.7,3.6,5.5c-1.4,6-2.7,12-4,18.1
			c0.1-7,0.1-14.1,0.1-21.1c0-0.5,0.1-1,0.1-1.5C562.3-18.8,562.3-19.1,562.4-19.4z M453.6,2.5c-0.9-4.1-1.8-8.1-2.7-12.2
			c1.7-8,3.4-16,5.1-23.9c0,0.1,0,0.1,0.1,0.2C455.2-21.5,454.4-9.5,453.6,2.5z M418.1,48.9c-0.1,0.2-0.1,0.3-0.2,0.5
			c-0.3-1.2-0.7-2.5-1-3.7c0.3-1.9,0.6-3.9,0.9-5.8C417.9,42.9,418,45.9,418.1,48.9z M409,316.8c-0.2-4.5-0.3-9-0.2-13.5
			c0.7,4.4,1.3,8.7,2,13.1C410.2,316.4,409.6,316.6,409,316.8z M520.9,555.5c0,0.1-0.1,0.2-0.1,0.4c-0.1-0.4-0.2-0.8-0.3-1.2
			C520.7,555,520.8,555.3,520.9,555.5z M705.6,511c0.5,1.6,1,3.1,1.5,4.7c-0.6,0-1.1,0-1.7,0.1C705.5,514.2,705.5,512.6,705.6,511z
			 M827.7,474.4c-0.9-8.6-1.9-17.3-2.8-25.9c0.2-2.5,0.3-5.1,0.5-7.6c0.2,0.5,0.3,0.9,0.5,1.4c0.9,5.2,1.7,10.3,2.6,15.5
			C828.2,463.3,828,468.9,827.7,474.4z M1002.1,452.8c-1,3.7-2.1,7.3-3.2,11c-3.6-16.5-7-33.1-10.3-49.7
			C993.3,426.9,997.8,439.8,1002.1,452.8z M1006.2,476.6c-0.6,4.1-1.2,8.3-1.7,12.4c-0.3-1.3-0.6-2.6-0.9-3.9
			C1004.5,482.3,1005.3,479.4,1006.2,476.6z M1019.7,521.5c-2.3-4.4-4.6-8.8-6.9-13.2c0.6-4.8,1.2-9.7,1.8-14.5
			C1016.4,503,1018,512.3,1019.7,521.5z M1328.8,577.5c0-0.1,0-0.1,0-0.2c0.1,0.9,0.2,1.7,0.3,2.6c-0.1-0.6-0.3-1.2-0.4-1.7
			C1328.7,577.9,1328.7,577.7,1328.8,577.5z M1347.5,579.3c0.3,3.7,0.7,7.3,1.1,11c-0.3,3.6-0.7,7.2-1,10.8
			c-0.5-3.9-0.9-7.7-1.4-11.6C1346.7,586.1,1347.1,582.7,1347.5,579.3z M1405.7,525.8c0.7-6.2,1.5-12.5,2.2-18.7
			c-0.4,9.9-0.7,19.9-0.9,29.8C1406.5,533.2,1406.1,529.5,1405.7,525.8z M1606.3,499.9c0.9,4.1,1.8,8.1,2.7,12.2
			c-1.7,8-3.4,16-5.1,23.9c0-0.1,0-0.1-0.1-0.2C1604.6,523.9,1605.5,511.9,1606.3,499.9z M1641.7,453.4c0.1-0.2,0.1-0.3,0.2-0.5
			c0.3,1.2,0.7,2.5,1,3.7c-0.3,1.9-0.6,3.9-0.9,5.8C1641.9,459.5,1641.8,456.4,1641.7,453.4z M1549.4-69.5
			c-0.2,3.8-0.5,7.6-0.7,11.4c-1.7-6.1-3.4-12.1-5.1-18.2c0.3-1.7,0.7-3.5,1-5.2C1546.2-77.5,1547.8-73.5,1549.4-69.5z M1497.9-66.7
			c-0.6,0.1-1.2,0.4-1.8,0.7c0.3-1.4,0.5-2.7,0.8-4.1c0.2,0.4,0.3,0.8,0.5,1.2C1497.6-68.2,1497.7-67.5,1497.9-66.7z M826.4,27.1
			c-1-7.7-2-15.4-3-23.1c1.8,3,3.7,5.9,5.5,8.9C828.1,17.5,827.2,22.3,826.4,27.1z M686.8-49.9c-0.1,0.7-0.2,1.4-0.3,2.1
			c0-0.8,0-1.5,0-2.3C686.6-50,686.7-50,686.8-49.9z M428-63.7c-0.4,0-0.8,0-1.2,0.1c0.1-1.3,0.2-2.6,0.4-3.9
			C427.4-66.2,427.7-64.9,428-63.7z M465.1,534.9c0-1.1,0.1-2.3,0.1-3.4c0.3,2.5,0.6,5,0.9,7.5c-2.1,0.5-3.7,1.8-3.6,3.8
			c-0.4-1.3-0.7-2.5-1.1-3.8C463.4,538.5,465,537.1,465.1,534.9z M510.4,571.8c0.2-3.8,0.5-7.6,0.7-11.4c1.7,6.1,3.4,12.1,5.1,18.2
			c-0.3,1.7-0.7,3.5-1,5.2C513.6,579.8,512,575.8,510.4,571.8z M562,569.1c0.6-0.1,1.2-0.4,1.8-0.7c-0.3,1.4-0.5,2.7-0.8,4.1
			c-0.2-0.4-0.3-0.8-0.5-1.2C562.3,570.6,562.1,569.9,562,569.1z M704.6,536.1c0.2,1.3,0.5,2.7,0.7,4c-0.2-0.8-0.5-1.7-0.7-2.5
			C704.6,537.1,704.6,536.6,704.6,536.1z M826.2,503.5c0.1,0,0.1,0,0.2,0c0,0.2,0,0.4,0,0.6C826.3,503.8,826.2,503.6,826.2,503.5z
			 M1023.5,549.2c0.6,5.7,1.1,11.3,1.7,17c-0.5-1-1.5-1.7-2.7-2.1c-2.6-9.9-5-19.9-7.5-29.8C1017.8,539.3,1020.7,544.3,1023.5,549.2
			z M1631.8,566.1c0.4,0,0.8,0,1.2-0.1c-0.1,1.3-0.2,2.6-0.4,3.9C1632.4,568.6,1632.1,567.3,1631.8,566.1z M1657.9,245.5
			c-0.2-0.6-0.5-1.1-0.9-1.6c-0.5-4.1-1-8.2-1.5-12.3c1.3-0.4,2.6-1.1,3.3-2.2c1.4,10.8,2.8,21.6,4.2,32.4
			C1661.3,256.3,1659.6,250.9,1657.9,245.5z M1589.6-96.5c-0.4-1-0.9-2-1.3-3.1c1.1-2,2.3-3.9,3.5-5.8
			C1591.1-102.4,1590.4-99.4,1589.6-96.5z M1562.5-90.2c0-1.2,0-2.4,0.1-3.6c0.7,1.5,1.3,3,2,4.5
			C1563.9-89.8,1563.2-90.1,1562.5-90.2z M1354.2-8.6c-0.5-1.6-1-3.1-1.5-4.7c0.6,0,1.1,0,1.7-0.1
			C1354.4-11.8,1354.3-10.2,1354.2-8.6z M1136.2-95.8c-0.6-0.7-1.4-1.2-2.3-1.5c-0.4-1.5-0.7-3-1.1-4.6c0.5-0.3,0.9-0.6,1.4-0.9
			C1134.8-100.4,1135.5-98.1,1136.2-95.8z M984-55c-0.2,0.1-0.3,0.3-0.5,0.4c0,0,0-0.1,0-0.1C983.6-54.9,983.8-55,984-55
			C984-55.1,984-55.1,984-55z M917.2-3.1c0.1-2,0.2-4,0.3-6c0.6,1.5,1.2,2.9,1.7,4.4C918.6-4.2,917.9-3.6,917.2-3.1z M843.4-5.5
			c-0.1-0.3-0.2-0.7-0.3-1c0.2-1.1,0.4-2.2,0.6-3.3C843.6-8.3,843.5-6.9,843.4-5.5z M826.9-9.7c-2.3-3.8-4.6-7.6-7-11.4
			c-0.3-2.4-0.7-4.8-1-7.2c0.3-7,0.6-14,0.9-21c1.5,5,2.9,10.1,4.4,15.1C825.1-26,826-17.8,826.9-9.7z M790.7,9.9
			c-0.1,0.6-0.2,1.2-0.3,1.8c-1.4-1-3-1.7-4.6-2.3c0-0.1,0-0.1-0.1-0.2c0.4-12.8,0.8-25.6,1.1-38.4c0.6-0.4,1.2-0.8,1.8-1.2
			C789.4-17,790.1-3.6,790.7,9.9z M736.5,66.9c-0.4,0.2-0.9,0.4-1.3,0.6c0.1-2.4,0.3-4.8,0.4-7.1c0.2,1.2,0.4,2.4,0.6,3.6
			C736.3,64.9,736.4,65.9,736.5,66.9z M415.9-33.2c0,4.8,0,9.6,0,14.4c-1,0.5-1.7,1.2-2.1,2.2C414.4-22.1,415.1-27.6,415.9-33.2z
			 M386,100c0.1-1,0.2-1.9,0.3-2.9c0.9,3.9,1.7,7.7,2.7,11.6c0.8,8.8,1.6,17.7,2.3,26.5c-1.1,2-1.6,4.3-1.8,6.7
			c-1.9-6-3.8-12-5.7-17.9C384.5,116,385.2,108,386,100z M381,153.8c1.8,4.9,3.5,9.7,5.3,14.6c0.1,0.2,0.2,0.5,0.3,0.7
			c2.7,9.2,5.2,18.4,7.7,27.7c-1.7-5.6-3.5-11.2-5.2-16.8c-0.7-2.3-3.7-3.3-6.3-3.1c-0.8-5.9-1.5-11.9-2.2-17.8
			C380.7,157.3,380.8,155.6,381,153.8z M402,256.9c0.2,0.6,0.5,1.1,0.9,1.6c0.5,4.1,1,8.2,1.5,12.3c-1.3,0.4-2.6,1.1-3.3,2.2
			c-1.4-10.8-2.8-21.6-4.2-32.4C398.6,246.1,400.3,251.5,402,256.9z M463.1,544.9c1.8,4.8,3.5,9.5,5.2,14.3c0.1,0.6,0.1,1.2,0.2,1.8
			c-1.5-4.3-3-8.5-4.5-12.8C463.7,547.2,463.4,546.1,463.1,544.9z M481.7,557.6c-0.1,0.8-0.3,1.6-0.4,2.4c-0.1-0.1-0.1-0.3-0.2-0.4
			C481.3,558.9,481.5,558.2,481.7,557.6z M488.9,576.7c0.4,1.1,0.8,2.3,1.3,3.4c-0.4-1-0.9-2-1.3-3
			C488.8,577,488.9,576.8,488.9,576.7z M497.4,592.6c0,1.2,0,2.4-0.1,3.6c-0.7-1.5-1.3-3-2-4.5C495.9,592.2,496.6,592.4,497.4,592.6
			z M824,546.6c0-4.7,0-9.4,0-14c0.2,0.7,0.5,1.5,0.7,2.2C824.5,538.7,824.3,542.6,824,546.6z M845.1,370.2c0-1.1-0.1-2.1-0.1-3.2
			c0.4,1.1,0.8,2.2,1.1,3.2c-0.1,1.3-0.1,2.5-0.2,3.8C845.6,372.7,845.3,371.4,845.1,370.2z M1042.3,555.1c0.5,2.6,1,5.1,1.6,7.7
			c0.1,0.6,0.3,1.2,0.4,1.8c-0.2,1.4-0.5,2.7-0.7,4.1c-0.4-1.8-0.9-3.6-1.3-5.4C1042.2,560.5,1042.2,557.8,1042.3,555.1z
			 M1138.7,466.4c1.8,4.2,3.6,8.3,5.4,12.5c-0.1,0.9-0.1,1.9-0.2,2.8c-2-3.9-3.9-7.9-5.9-11.8
			C1138.3,468.7,1138.5,467.6,1138.7,466.4z M1644,535.5c0-4.8,0-9.6,0-14.4c1-0.5,1.7-1.2,2.1-2.2
			C1645.4,524.4,1644.7,530,1644,535.5z M1673.8,402.4c-0.1,1-0.2,1.9-0.3,2.9c-0.9-3.9-1.7-7.7-2.7-11.6
			c-0.8-8.8-1.6-17.7-2.3-26.5c1.1-2,1.6-4.3,1.8-6.7c1.9,6,3.8,12,5.7,17.9C1675.4,386.3,1674.6,394.3,1673.8,402.4z M1678.9,348.6
			c-1.8-4.9-3.5-9.7-5.3-14.6c-0.1-0.2-0.2-0.5-0.3-0.7c-2.7-9.2-5.2-18.4-7.7-27.7c1.7,5.6,3.5,11.2,5.2,16.8
			c0.7,2.3,3.7,3.3,6.3,3.1c0.8,5.9,1.5,11.9,2.2,17.8C1679.1,345.1,1679,346.8,1678.9,348.6z M1355.3-35.2c0,0.5,0,1-0.1,1.4
			c-0.2-1.3-0.5-2.7-0.7-4C1354.8-36.9,1355-36.1,1355.3-35.2z M1196.1,53.3c-0.1-0.7-0.2-1.3-0.4-2c0.1,0.5,0.3,1,0.4,1.5
			C1196.1,52.9,1196.1,53.1,1196.1,53.3z M929.7-12.8c-0.6,0.5-1.2,0.9-1.8,1.4c-0.6-1.4-1.1-2.8-1.7-4.2c1.5-1,2.9-2,4.4-3
			C930.4-16.7,930-14.7,929.7-12.8z M837.1-33.2c-0.8-4.9-1.6-9.8-2.3-14.7c1.2,1.1,3,1.5,4.7,1.2C838.7-42.2,837.9-37.7,837.1-33.2
			z M787.8-49c-0.1,0.2-0.1,0.5-0.2,0.7c0,0,0,0.1,0,0.1c0-1.3,0.1-2.6,0.1-3.8C787.7-51,787.7-50,787.8-49z M742.3,20.5
			c-0.1-1-0.2-2-0.3-3c0.1,0,0.2,0,0.3-0.1C742.3,18.5,742.3,19.5,742.3,20.5z M652-4.7c0.4-9.9,0.7-19.9,0.9-29.8
			c0.4,3.7,0.8,7.4,1.3,11.1C653.5-17.2,652.7-11,652-4.7z M570.1-50.7c-0.6-0.8-1.2-1.6-1.9-2.4c0.2-1.1,0.4-2.2,0.5-3.3
			c0.6,0.9,1.2,1.8,1.7,2.7C570.4-52.8,570.3-51.7,570.1-50.7z M531.1-30.1c-0.3,1-0.5,1.9-0.8,2.9c0-1.9,0.1-3.8,0.1-5.8
			c0.1-5.9-10-5.6-10.7,0c-0.5,3.6-0.9,7.3-1.4,10.9c-0.3-1-0.6-2.1-0.9-3.1c2.1-13.9,4.3-27.9,6.6-41.8c1.1,0.4,2.4,0.4,3.6,0.2
			c0.8,11.9,1.9,23.9,3.3,35.8C531-30.8,531-30.4,531.1-30.1z M473-35.3c-1-4.5-1.9-8.9-2.9-13.4c0.6-5.5,1.3-10.9,2-16.4
			c0.9,2.4,1.8,4.8,2.8,7.1C474.2-50.4,473.6-42.8,473-35.3z M413.6-15.2C413.6-15.2,413.6-15.2,413.6-15.2
			c0.3,3.4,0.6,6.8,0.8,10.2c-1.4,7.9-2.7,15.9-4,23.8C411.2,7.5,412.3-3.9,413.6-15.2z M386.4,242.8c0.3,2.5,0.6,4.9,0.9,7.4
			c-0.3-1.4-0.6-2.8-0.9-4.2C386.5,245,386.5,243.9,386.4,242.8z M649.6,515c0.1-1.3,0.2-2.5,0.2-3.8c0.4-2.1,0.9-4.2,1.3-6.3
			c0.1,0.3,0.1,0.5,0.2,0.8c0.3,5.9,0.6,11.8,1,17.7c-0.2,0-0.5,0.1-0.7,0.1C650.9,520.6,650.3,517.8,649.6,515z M834,594.3
			c-0.3-1.2-1.1-2-2.1-2.5c0.6-9.3,1.2-18.6,1.8-27.9c1.5,4.8,3,9.6,4.5,14.4c0.9,3.8,1.8,7.5,2.6,11.3c-2.2,2-4.3,4-6.5,6
			C834.2,595.2,834.1,594.7,834,594.3z M863.8,449.1c0.1,0.7,0.2,1.3,0.4,2c-0.1-0.5-0.3-1-0.4-1.5
			C863.7,449.4,863.7,449.3,863.8,449.1z M916.1,406.9c0-0.1,0-0.1,0-0.2c1-8.8,2-17.5,2.9-26.3c1.4,7.9,2.8,15.9,4.1,23.8
			c1.7,10,3.4,20,5,30.1C924,425.2,920,416,916.1,406.9z M997.3,505.5c0.8,3.4,1.6,6.8,2.4,10.3c-1.2,0-2.3,0.3-3.3,0.8
			c-0.3-1.9-0.5-3.8-0.8-5.6C996.2,509.1,996.8,507.3,997.3,505.5z M1059.5,575.5c0.2,1.3,0.4,2.6,0.6,3.9c-0.3-1.6-0.6-3.2-1-4.8
			C1059.2,574.9,1059.3,575.2,1059.5,575.5z M1135,486.9c0.2,0.4,0.4,0.8,0.6,1.2c-0.2-0.1-0.5-0.2-0.7-0.4
			C1134.9,487.5,1135,487.2,1135,486.9z M1435.2,580.3c1.3-0.7,2.1-1.9,2-3.5c-0.2-2.3-0.4-4.6-0.6-7c0.5-4,1.1-8,1.6-12
			c1.1,0.2,2.2,0.1,3.2-0.2c0.1,11.7,0.1,23.4,0.2,35c-0.9,3.5-1.8,7.1-2.7,10.6c-1.8-3.5-3.6-7-5.5-10.5
			C1434.1,588.6,1434.7,584.5,1435.2,580.3z M1586.9,537.6c1,4.5,1.9,8.9,2.9,13.4c-0.6,5.5-1.3,10.9-2,16.4
			c-0.9-2.4-1.8-4.8-2.8-7.1C1585.6,552.8,1586.2,545.2,1586.9,537.6z M1646.2,517.6C1646.2,517.6,1646.2,517.5,1646.2,517.6
			c-0.3-3.4-0.6-6.8-0.8-10.2c1.4-7.9,2.7-15.9,4-23.8C1648.6,494.9,1647.6,506.3,1646.2,517.6z M1673.4,259.5
			c-0.3-2.5-0.6-4.9-0.9-7.4c0.3,1.4,0.6,2.8,0.9,4.2C1673.4,257.4,1673.4,258.5,1673.4,259.5z M1513.5-118.2
			c0.2,2.8,0.5,5.7,0.7,8.5c-0.1,0-0.2-0.1-0.3-0.1c-1.2-2.8-2.3-5.7-3.4-8.6C1511.4-118.1,1512.4-118,1513.5-118.2z M1172.2-23.6
			c-0.5-2.4-1-4.8-1.4-7.2c0.4,0.8,0.8,1.6,1.1,2.4c0.2,1.5,0.4,3,0.7,4.5C1172.4-23.8,1172.3-23.7,1172.2-23.6z M932.9-32.6
			c-0.1,0.4-0.1,0.8-0.2,1.2c-3.3,2.3-6.7,4.6-10,6.8c-0.1-0.3-0.2-0.5-0.3-0.8c3.5-2.5,6.9-5,10.4-7.5
			C932.9-32.8,932.9-32.7,932.9-32.6z M619.1-24c-0.2,0.1-0.3,0.2-0.4,0.3c0.1-0.4,0.2-0.8,0.3-1.3C619-24.7,619-24.3,619.1-24z
			 M477.2-87.5c-0.2,1.9-0.3,3.9-0.5,5.8c-0.7-1.6-1.3-3.2-2-4.8c0.5-4.3,1.1-8.5,1.6-12.8c0.4,1.5,0.9,3.1,1.3,4.6
			C477.5-92.3,477.3-89.9,477.2-87.5z M546.4,620.6c-0.2-2.8-0.5-5.7-0.7-8.5c0.1,0,0.2,0.1,0.3,0.1c1.2,2.8,2.3,5.7,3.4,8.6
			C548.5,620.4,547.4,620.4,546.4,620.6z M768.1,587.1c0.1-1.5,0.3-3,0.4-4.5c0.3,0.7,0.6,1.4,0.8,2c0,2.6,0,5.1,0,7.7
			C768.9,590.6,768.5,588.9,768.1,587.1z M847.4,567.8c-1-3.1-1.9-6.1-2.9-9.2c0.9-0.7,1.4-1.7,1.5-3c0.1-6.3,0.2-12.6,0.3-18.9
			c1.8,9.3,3.6,18.6,5.5,27.9C849.7,565,847.9,566.1,847.4,567.8z M886.2,518.3c1,4.9,2,9.9,3,14.8c-0.4-0.8-0.8-1.6-1.1-2.4
			C887.4,526.6,886.8,522.5,886.2,518.3z M931.8,468c0.8,1.8,1.6,3.6,2.4,5.4c0.2,1.5,0.5,3,0.7,4.6
			C933.9,474.7,932.8,471.4,931.8,468z M926.4,361.8c0.7-0.5,1.3-1.1,1.6-1.8c0.5,1.3,1,2.6,1.5,3.8c0.9,5.6,1.9,11.3,2.8,16.9
			c3.4,20,6.9,40,10.6,59.9c1.9,13,3.8,25.9,5.6,38.9c-1.3-2.8-2.6-5.6-3.8-8.4C939,434.6,932.9,398.2,926.4,361.8z M1582.7,589.9
			c0.2-1.9,0.3-3.9,0.5-5.8c0.7,1.6,1.3,3.2,2,4.8c-0.5,4.3-1.1,8.5-1.6,12.8c-0.4-1.5-0.9-3.1-1.3-4.6
			C1582.3,594.7,1582.5,592.3,1582.7,589.9z M1596.2-137.7c1.2-1.5,2.4-2.9,3.6-4.4c-0.6,3.1-1.2,6.2-1.9,9.4
			C1597.3-134.4,1596.7-136.1,1596.2-137.7z M1596.9-154.5c0-0.3-0.1-0.5-0.2-0.7c0.5-2.6,1-5.3,1.5-7.9c0.2,2.1,0.4,4.2,0.6,6.2
			C1598.2-156,1597.5-155.3,1596.9-154.5z M1565.8-175.7c0.2-2.9,0.4-5.9,0.6-8.8c0.6,1.7,1.2,3.5,1.8,5.2
			C1567.3-178.1,1566.5-176.9,1565.8-175.7z M1291.7-84.8c-0.2,2.7-0.5,5.5-0.7,8.2c-0.2-0.5-0.4-1.1-0.5-1.6c0-4,0-7.9,0.1-11.9
			C1290.9-88.3,1291.3-86.5,1291.7-84.8z M1131-113c-0.3,0.1-0.5,0.3-0.8,0.4c-0.6-2.7-1.3-5.3-1.9-8c0.1-0.1,0.2-0.1,0.3-0.2
			C1129.3-118.2,1130.2-115.6,1131-113z M934.6-61.8c-0.1,2.9-0.3,5.8-0.4,8.7c-0.5-1-1-2.1-1.6-3.1c-3.7-7.3-7.4-14.5-11.1-21.8
			c0.4-6.3,0.7-12.6,1.1-18.9C926.4-85.1,930.4-73.4,934.6-61.8z M928.5-41.4c-3.2,2.3-6.3,4.6-9.5,6.9c0.4-7.7,0.9-15.4,1.3-23.1
			C923.1-52.2,925.8-46.8,928.5-41.4z M866.8,4.4c-0.3,0.3-0.7,0.5-1,0.8c0,0,0,0,0,0c0-4.9-0.1-9.8-0.1-14.7
			c0.6,1.5,1.2,3.1,1.9,4.6C867.3-1.8,867,1.3,866.8,4.4z M625.8-37.3c-1-0.5-2.2-0.7-3.4-0.7c0.8-3.1,1.7-6.2,2.5-9.3
			C625.2-43.9,625.5-40.6,625.8-37.3z M550.3-35.5c0,1.8-0.1,3.5-0.1,5.3c-1.5,8.4-3.1,16.8-4.6,25.1c0.2-8.4,0.4-16.8,0.5-25.2
			c1.5-7.1,3-14.2,4.5-21.4C550.5-46.2,550.4-40.8,550.3-35.5z M400.8,4.7c-0.5-2.2-1-4.4-1.5-6.5c1.1-4.1,2.3-8.3,3.4-12.4
			C402-8,401.4-1.6,400.8,4.7z M711.9,616.4c0.5-5.5,0.9-11,1.3-16.4c0.7,2,1.4,4.1,2.1,6.1c-0.2,3.6-0.4,7.2-0.5,10.8
			c-0.1,2.2-0.2,4.5-0.4,6.7c-0.2-0.7-0.4-1.3-0.7-2C713.1,619.9,712.5,618.2,711.9,616.4z M791.3,579.8c-0.2-6.1-0.3-12.2-0.4-18.3
			c0.6,1.4,1.1,2.9,1.7,4.3C792.1,570.5,791.7,575.2,791.3,579.8z M790.5,531.4c0-5.1-0.1-10.2-0.1-15.2c0.2-0.1,0.4-0.1,0.7-0.2
			c1.5,5.5,3,11,4.5,16.5c-0.3,3.2-0.6,6.5-0.9,9.7C793.3,538.6,791.9,535,790.5,531.4z M803.6,561.7c1.2,4.1,2.3,8.2,3.5,12.4
			c0,0.2,0,0.4,0,0.5c-1.3-3.3-2.5-6.6-3.8-9.8C803.5,563.7,803.5,562.7,803.6,561.7z M858.5,503.9c-0.6-6.8-1.1-13.7-1.5-20.5
			c1.8,4.5,3.6,9.1,5.4,13.6c0.8,2,1.6,4,2.4,6c-1.2,2.6-2.6,5.2-4,7.7C860,508.5,859.2,506.2,858.5,503.9z M954.5,540.1
			c-1.5-10.9-3-21.9-4.6-32.8c1.1,2.4,2.3,4.7,3.4,7.1c1.8,12.9,3.6,25.9,5.4,38.8C957.3,548.8,955.9,544.4,954.5,540.1z
			 M1134.3,522.6c0-1-0.1-2-0.1-3.1c2.2,5.7,4.4,11.4,6.6,17.1c-0.2,4.3-0.5,8.6-0.7,12.9C1138.5,540.5,1136.5,531.5,1134.3,522.6z
			 M1153.3,522.3c0.4,0.8,0.9,1.7,1.3,2.5c0.4,3.4,0.9,6.8,1.3,10.2c-0.7-2.6-1.4-5.2-2.2-7.8
			C1153.5,525.6,1153.4,523.9,1153.3,522.3z M1250.3,664.9c0-1.8,0-3.6,0-5.4c0.4-0.4,0.8-0.7,1.2-1.1c0.1,0.6,0.2,1.2,0.4,1.7
			c0.1,3.4,0.1,6.8,0.2,10.2C1251.5,668.5,1250.9,666.7,1250.3,664.9z M1421.1,548.1C1421.1,548.1,1421.2,548.1,1421.1,548.1
			c0,1.2-0.1,2.4-0.1,3.5c-1.4,13.9-2.8,27.7-4.1,41.6c-0.1,0.3-0.1,0.5-0.2,0.8c0.1-8,0.2-15.9,0.3-23.9
			C1418.3,562.8,1419.7,555.5,1421.1,548.1z M1659,497.7c0.5,2.2,1,4.4,1.5,6.5c-1.1,4.1-2.3,8.3-3.4,12.4
			C1657.8,510.3,1658.5,504,1659,497.7z M1646.1-31.3c-0.4,0.6-0.9,1.2-1.3,1.8c-1.6-13.6-3.4-27.3-5.3-40.9
			c-0.3-5.2-0.6-10.5-0.9-15.7c1.3-4.8,2.8-9.5,4.2-14.2c1.4,8.7,2.8,17.5,4,26.2C1646.6-59.9,1646.3-45.6,1646.1-31.3z M1201.4-1.6
			c0.6,6.8,1.1,13.7,1.5,20.5c-1.8-4.5-3.6-9.1-5.4-13.6c-0.3-0.8-0.7-1.7-1-2.5c1.4-2.3,2.7-4.6,4-7
			C1200.8-3.3,1201.1-2.4,1201.4-1.6z M1047.4-124c-0.1,0.2-0.3,0.4-0.4,0.6c-2.4,1.6-4.7,3.2-7.1,4.8c1.8-6.7,3.6-13.4,5.3-20.1
			C1046-133.8,1046.7-128.9,1047.4-124z M956.7-154.6c-0.6-0.2-1.3-0.3-1.9-0.3c0-0.1,0-0.1-0.1-0.2c-0.5-1.2-1.4-2.1-2.5-2.6
			c1.4-7,2.7-14,4.1-21C956.5-170.7,956.6-162.6,956.7-154.6z M908.8-113c1.3-5.2,2.5-10.3,3.8-15.5c0,0,0,0.1,0,0.1
			c-1.7,7.9-3.4,15.8-5.1,23.7c-0.9-1.8-1.9-3.5-2.8-5.3C906.6-110.2,908.4-111.2,908.8-113z M909.7-58.8c-0.3-0.7-0.5-1.4-0.8-2.2
			c0.4-1.9,0.8-3.9,1.3-5.8C910-64.1,909.8-61.4,909.7-58.8z M908.2-33.1c-0.1,2.2-0.3,4.5-0.4,6.7c-0.9,0.7-1.9,1.4-2.8,2.1
			c-0.5-3.9-1-7.9-1.5-11.8c0.4-2,0.9-4,1.3-6C905.9-39.1,907.1-36.1,908.2-33.1z M883.1-62c-0.1-0.2-0.3-0.5-0.4-0.7
			c0-0.3,0.1-0.7,0.1-1C882.9-63.1,883-62.6,883.1-62z M884.8-23c-0.9-0.2-1.8-0.3-2.7-0.3c-0.1-2.4-0.3-4.8-0.4-7.1
			C882.8-27.9,883.8-25.4,884.8-23z M660.8-80.2c-0.4-0.2-0.7-0.3-1.1-0.5c0.2-0.7,0.4-1.4,0.6-2.1c0.3-0.1,0.6-0.1,0.9-0.2
			C661-82,660.9-81.1,660.8-80.2z M561.9-81.8c0.1-2.6,0.1-5.3,0.2-7.9c0.3-9.7,0.9-19.4,2.8-28.9c0.3,2.4,0.7,4.9,1,7.3
			C564.6-101.5,563.3-91.6,561.9-81.8z M375.9,259.8c0.4,1.7,1.8,2.7,3.4,3c0,0.2,0.1,0.4,0.1,0.6c-1.7-0.5-3.5-0.5-4.9,0.3
			c0.1-2.7,0.2-5.5,0.4-8.2C375.2,256.9,375.6,258.3,375.9,259.8z M453.8,562c0.8,1.8,1.6,3.6,2.5,5.4c1.7,6.5,3.5,13,5.2,19.5
			c0.1,0.5,0.3,0.9,0.6,1.2c-0.7,2.6-1.3,5.2-2,7.8c-1.8-5.7-3.7-11.3-5.5-17c-0.2-0.7-0.5-1.5-0.8-2.3
			C453.8,571.8,453.8,566.9,453.8,562z M725.3,634.3c0.3,0.9,0.7,1.8,1,2.7c-0.7,5.5-1.4,11.1-2,16.7c-0.1-0.3-0.2-0.6-0.3-0.9
			C724.5,646.6,724.9,640.5,725.3,634.3z M799.7,601.4c0.9-4.1,1.3-8.3,1.7-12.5c1,2.5,1.9,5,2.9,7.6c0.3,7.2,0.7,14.4,1,21.6
			c0,0.7-0.1,1.5-0.1,2.2c-2.2-5-4.3-10-6.5-15C799.1,604,799.5,602.7,799.7,601.4z M865.9,582.8c-0.2-0.9-0.4-1.8-0.6-2.7
			c0.9-0.9,1.8-1.7,2.7-2.6c0.4,1.9,0.7,3.8,1.1,5.8C868.1,582.8,867,582.7,865.9,582.8z M862.9,560.7c-0.4,0.3-0.8,0.6-1.2,1
			c-2-10.1-4-20.2-5.9-30.3c0.3,0,0.6,0,0.8-0.1c3.1,9.3,6.3,18.5,9.4,27.8C864.9,559.4,863.8,560,862.9,560.7z M871.3,541.7
			c-2.1-6.2-4.2-12.4-6.3-18.6c1.7-2.3,3.3-4.8,4.7-7.2c2.5,9.4,5,18.8,7.5,28.2C876.1,542,873.5,541.3,871.3,541.7z M1336.5,661.6
			c1.3,4.3,2.7,8.6,4,12.9c-0.5,2.6-1.1,5.3-1.6,7.9c-1.3-6.1-2.6-12.2-3.8-18.3C1335.6,663.2,1336.1,662.4,1336.5,661.6z
			 M1497.7,586.1c0.1,0.1,0.1,0.3,0.2,0.4c0,1.9-0.1,3.8-0.1,5.6c-0.3,9.7-0.9,19.4-2.8,28.9c-0.3-2.4-0.7-4.9-1-7.3
			C1495.2,604.5,1496.4,595.3,1497.7,586.1z M1511.9,590.7c0.1,0.5,0.2,1.1,0.3,1.6c-0.2-0.4-0.4-0.9-0.6-1.3
			C1511.7,590.9,1511.8,590.8,1511.9,590.7z M1683.9,242.6c-0.4-1.7-1.8-2.7-3.4-3c0-0.2-0.1-0.4-0.1-0.6c1.7,0.5,3.5,0.5,4.9-0.3
			c-0.1,2.7-0.2,5.5-0.4,8.2C1684.6,245.5,1684.3,244.1,1683.9,242.6z M1568.6-213.9c0.3-3.1,0.5-6.1,0.8-9.2c0.2,1,0.5,2,0.7,3
			c-0.1,3.2-0.1,6.4-0.1,9.6C1569.5-211.6,1569.1-212.8,1568.6-213.9z M1415.7-95.8c-0.8,11.5-1.5,23.1-2.3,34.6
			c-1.3,0.1-2.6,0.5-3.5,1.4c-0.5-2.3-1.1-4.6-1.6-6.8c-0.4-1.9-2.2-2.9-4.2-3.1c1.5-14.6,3-29.2,4.5-43.8
			C1411-107.7,1413.3-101.7,1415.7-95.8z M1232.1,28c0.9,8.6,1.9,17.3,2.8,25.9c-0.2,2.5-0.3,5.1-0.5,7.6c-0.2-0.5-0.3-0.9-0.5-1.4
			c-0.9-5.2-1.7-10.3-2.6-15.5C1231.6,39,1231.9,33.5,1232.1,28z M904.1-89.1c-0.7,3.2-1.4,6.4-2.1,9.6c-1.1-3-2.2-6-3.3-9
			c-1.6-4.6-3.5-9.3-5.1-14.1c-0.4-2.4-0.8-4.9-1.2-7.3c0.1-0.1,0.3-0.1,0.4-0.2C896.7-103.2,900.4-96.2,904.1-89.1z M709.9-57.8
			c-0.1-1.2-0.3-2.4-0.4-3.7c-0.1-1-0.2-2-0.4-3c1.1-11.4,2.1-22.8,3.2-34.2c0.5,3.9,0.9,7.7,1.4,11.6
			C712.4-77.3,711.1-67.6,709.9-57.8z M549.6-89.5c-1.2,0.5-2.1,1.4-2.5,2.8c-0.1,0.2-0.1,0.4-0.2,0.6c0.4-10.1,0.6-20.2,0.4-30.3
			c0.1-2.2,0.3-4.3,0.4-6.5C548.5-111.8,549.1-100.7,549.6-89.5z M454.6,613.4c0.2,0.7,0.5,1.5,0.7,2.2c-0.2,0.8-0.4,1.6-0.5,2.4
			C454.8,616.5,454.7,615,454.6,613.4z M470.2,598.8c0.9,2.1,1.8,4.1,2.7,6.2c-1,5.6-2.1,11.1-3.1,16.7c-1-2.7-2.1-5.3-3.1-8
			C467.8,608.7,469,603.8,470.2,598.8z M491.2,716.3c-0.3,3.1-0.5,6.1-0.8,9.2c-0.2-1-0.5-2-0.7-3c0.1-3.2,0.1-6.4,0.1-9.6
			C490.3,714,490.8,715.1,491.2,716.3z M644.2,598.2c0.2-3.2,0.4-6.5,0.6-9.7c1.8-7.1,3.9-14,6.4-20.8c0.1,0.4,0.2,0.9,0.3,1.3
			c0.4,1.9,2.2,2.9,4.2,3.1c-1.5,14.6-3,29.2-4.5,43.8C648.9,610,646.5,604.1,644.2,598.2z M783.3,627.8c-0.1-0.5-0.3-1.1-0.4-1.6
			c0.2-1.9,0.4-3.8,0.6-5.8c1.1,3,2.2,6,3.3,9C785.9,628.5,784.6,628,783.3,627.8z M869.1,598.8c-0.4-1.7-0.7-3.5-1.1-5.2
			c0.8-1.1,1.6-2.2,2.4-3.4c0.5,2.9,1.1,5.8,1.6,8.7C871.1,598.7,870.1,598.6,869.1,598.8z M1423.3,664.4c0.6-4.3,1.2-8.6,1.8-12.6
			c0.3,1,0.7,2,1,3c-0.9,3.5-1.8,7-2.6,10.5C1423.4,665,1423.4,664.7,1423.3,664.4z M1512.5,618.8c-0.1,2.1-0.3,4.3-0.4,6.4
			c-0.2-2.9-0.4-5.9-0.6-8.8C1511.9,617.2,1512.2,618,1512.5,618.8z M1502-150.5c-0.1,0.6-0.3,1.2-0.4,1.9c0-1.1,0.1-2.1,0.1-3.2
			C1501.8-151.4,1501.9-150.9,1502-150.5z M1479.8-135.6c-3.1-7.2-6.3-14.5-9.4-21.7c0.2-4.2,0.4-8.5,0.6-12.7
			c0.3-6.9,0.6-13.7,0.9-20.6c3,10.2,6,20.4,9.1,30.7C1480.1-151.8,1479.8-143.7,1479.8-135.6z M1471.8-128c-0.2,3-0.5,6-0.7,9
			c-0.7-2.9-1.3-5.7-2-8.6c0.1-2,0.2-4,0.3-6C1470.1-131.7,1470.9-129.9,1471.8-128z M1452.2-88.5c-0.4-1.4-0.9-2.8-1.3-4.3
			c0.1-3.4,0.3-6.9,0.4-10.3c0.6,1.5,1.2,3.1,1.8,4.6C1452.8-95.2,1452.5-91.9,1452.2-88.5z M1399.9-134.3c-0.5,4.5-0.9,9-1.4,13.5
			c-0.3-6.2-0.6-12.5-0.8-18.7C1398.5-137.8,1399.2-136.1,1399.9-134.3z M1386.8-122.3c-0.5-1.3-0.9-2.7-1.4-4
			c0.2-10.7,0.4-21.4,0.5-32.1c0-0.5-0.1-1-0.2-1.5c0.1-1.8,0.3-3.6,0.4-5.5c0.4,14.3,1,28.6,1.6,42.8
			C1387.4-122.4,1387.1-122.3,1386.8-122.3z M1334.5-132c-0.4-1.1-0.8-2.2-1.2-3.3c0.1-7.2,0.3-14.5,0.4-21.7
			c0.7,2.2,1.4,4.4,2.1,6.6C1335.4-144.3,1334.9-138.1,1334.5-132z M1276.9-123.8c-0.2,1.9-0.4,3.8-0.6,5.8c-1.1-3-2.2-6-3.3-9
			c0.9,0.9,2.1,1.4,3.4,1.6C1276.6-124.9,1276.8-124.3,1276.9-123.8z M1268.6-77.5c0.2,6.1,0.3,12.2,0.4,18.3
			c-0.6-1.4-1.1-2.9-1.7-4.3C1267.7-68.1,1268.1-72.8,1268.6-77.5z M1269.3-29c0,5.1,0.1,10.2,0.1,15.2c-0.2,0.1-0.4,0.1-0.7,0.2
			c-1.5-5.5-3-11-4.5-16.5c0.3-3.2,0.6-6.5,0.9-9.7C1266.6-36.2,1268-32.6,1269.3-29z M1256.2-59.3c-1.2-4.1-2.3-8.2-3.5-12.4
			c0-0.2,0-0.4,0-0.5c1.3,3.3,2.5,6.6,3.8,9.8C1256.4-61.3,1256.3-60.3,1256.2-59.3z M1233.7-1.1c-0.1,0-0.1,0-0.2,0
			c0-0.2,0-0.4,0-0.6C1233.5-1.4,1233.6-1.3,1233.7-1.1z M1194.9-20.7c-1.7,2.3-3.3,4.8-4.7,7.2c-0.8-3-1.6-6-2.4-9
			c1.8-1.1,3.6-2.2,5.4-3.2C1193.8-24,1194.3-22.4,1194.9-20.7z M930.9-128.6c-0.3-0.6-0.7-1.2-1-1.8c0.5-1.7,0.9-3.4,1.4-5
			C931.1-133.2,931-130.9,930.9-128.6z M899.1-120.3c-0.5-1-1.1-2-1.6-3c1.5-6.8,3.2-13.6,4.8-20.3
			C901.3-135.8,900.2-128,899.1-120.3z M865.1-71c1.5,3.7,3,7.3,4.5,11c0.3,5.7,0.5,11.4,0.8,17.1c-0.2,2-0.3,4.1-0.5,6.1
			c-1.5-2.4-3.1-4.9-4.6-7.3C865.3-53,865.2-62,865.1-71z M736.2-94.3c-1.7,0.6-3,1.9-3.2,3.8c-0.6,5.1-1.3,10.2-1.9,15.4
			c0,0.1,0,0.1,0,0.2c-0.2-1.9-0.5-3.8-0.7-5.7c1.7-24.9,3.3-49.8,5-74.7c1.7,13.5,3.5,26.9,5.3,40.4
			C739.2-108,737.7-101.1,736.2-94.3z M631.2-126.2c-2.2,16.1-4.4,32.2-6.6,48.3c-1.3,0.7-2.1,1.9-2,3.5c0.2,2.3,0.4,4.6,0.6,7
			c-0.5,4-1.1,8-1.6,12c-1.1-0.2-2.2-0.1-3.2,0.2c-0.1-11.7-0.1-23.4-0.2-35c3.9-15.7,7.8-31.3,11.8-47c0.9-0.9,1.4-2.2,1-3.8
			c0,0,0-0.1,0-0.1c2-8.1,4.1-16.2,6.1-24.4C634.8-148.6,631.7-129.7,631.2-126.2z M384.5,534.1c0.3,8.5,0.6,17,0.9,25.5
			c0.1,1.8,1.2,3.1,2.6,3.7c-0.1,4.2-0.2,8.5-0.3,12.7c0-0.4-0.1-0.8-0.1-1.3c-0.3-3.8-6-5.5-8.9-3.5
			C380.7,558.8,382.6,546.4,384.5,534.1z M557.9,652.9c0.1-0.6,0.3-1.2,0.4-1.9c0,1.1-0.1,2.1-0.1,3.2
			C558,653.8,557.9,653.3,557.9,652.9z M580,637.9c3.1,7.2,6.3,14.5,9.4,21.7c-0.2,4.2-0.4,8.5-0.6,12.7c-0.3,6.9-0.6,13.7-0.9,20.6
			c-3-10.2-6-20.4-9.1-30.7C579.7,654.2,580.1,646.1,580,637.9z M588.1,630.4c0.2-3,0.5-6,0.7-9c0.7,2.9,1.3,5.7,2,8.6
			c-0.1,2-0.2,4-0.3,6C589.7,634.1,588.9,632.2,588.1,630.4z M659.9,636.7c0.5-4.5,0.9-9,1.4-13.5c0.3,6.2,0.6,12.5,0.8,18.7
			C661.4,640.2,660.6,638.4,659.9,636.7z M673,624.6c0.5,1.3,0.9,2.7,1.4,4c-0.2,10.7-0.4,21.4-0.5,32.1c0,0.5,0.1,1,0.2,1.5
			c-0.1,1.8-0.3,3.6-0.4,5.5c-0.4-14.3-1-28.6-1.6-42.8C672.4,624.8,672.7,624.7,673,624.6z M926,599.6c2.3,9.3,4.5,18.7,6.8,28
			c-3.1-9.8-6.1-19.6-9.1-29.5C924.2,598.8,925.1,599.3,926,599.6z M1434.4,691.8c-0.6,6.2-1.2,12.3-1.8,18.5
			c-0.5-2.3-0.9-4.5-1.4-6.8C1432.2,699.6,1433.3,695.7,1434.4,691.8z M1647.7-156.6c-0.8-1.5-2.9-2.2-4.9-2.1
			c-0.1-0.5-0.2-1-0.3-1.5c0.6-10.5,0.9-21.8,3-32.4c1.7,13.9,3.3,27.8,5,41.6C1649.6-152.9,1648.7-154.7,1647.7-156.6z
			 M1499.6-194.5c0,0.1,0,0.2,0.1,0.2c0,0-0.1,0-0.1,0C1499.6-194.4,1499.6-194.4,1499.6-194.5z M1455.5-139.2
			c0.2,0.9,0.4,1.7,0.6,2.6c-0.4,4.6-0.7,9.3-1.1,13.9c-0.9-2.2-1.7-4.5-2.6-6.7c0.3-6.3,0.5-12.5,0.8-18.8
			C1454-145,1454.9-142,1455.5-139.2z M1417.3-129.6c-1.5-5.1-2.9-10.2-4.4-15.3c1.4,3.4,2.8,6.7,4.2,10.1
			C1417.2-133.1,1417.2-131.4,1417.3-129.6z M1310.5-161.7c-2-6-4-12.1-6-18.1c2.1,5.2,4.3,10.4,6.3,15.6
			C1310.7-163.3,1310.6-162.5,1310.5-161.7z M1260.1-99c-0.9,4.1-1.3,8.3-1.7,12.5c-3.7-9.7-7.4-19.3-11-29
			c-4.3-16.3-8.6-32.6-12.9-48.9c8.9,20.5,17.8,41,26.8,61.5C1260.8-101.6,1260.4-100.3,1260.1-99z M1235.8-44.2c0,4.7,0,9.4,0,14
			c-0.2-0.7-0.5-1.5-0.7-2.2C1235.4-36.3,1235.6-40.3,1235.8-44.2z M1185.3-31.8c-0.9-3.3-1.8-6.6-2.6-9.9c1.1,2,3.6,2.7,5.9,2.4
			c0.5,1.6,1.1,3.2,1.6,4.8C1188.5-33.6,1186.9-32.7,1185.3-31.8z M1018.9-177.4c-0.4,1.9-0.8,3.7-1.2,5.6c-1-6.7-2-13.3-3.2-20
			c0.4-1,0.7-2.1,1.1-3.1C1017.3-189.1,1018.3-183.3,1018.9-177.4z M1010.1-123.7c-0.7,6.3-1.2,12.7-1.6,19
			c-0.3,2.3-0.4,4.6-0.4,6.9c0,0.1,0,0.1,0,0.2c-3.3-15.5-6.6-31-10-46.5c1.7-5.4,3.4-10.7,5.2-16.1
			C1005.7-148,1007.9-135.9,1010.1-123.7z M981.6-125.8c-0.3,1-0.6,2-0.9,3.1c-1.3-3.6-2.6-7.1-3.9-10.6c0.7-2.8,1.4-5.6,2.1-8.5
			C979.8-136.5,980.7-131.2,981.6-125.8z M971.5-156.2c-1.1-0.1-2.2,0.1-3.2,0.5c0.7-11,1.4-21.9,1.6-32.9c0-0.7,0-1.4,0-2.1
			c1.5,7.7,3,15.5,4.4,23.2C973.4-163.7,972.5-159.9,971.5-156.2z M963-225c-1.5-1.2-3.8-1.7-5.7-1.2c0,0-0.1-0.1-0.1-0.1
			c0.8-4.2,1.7-8.3,2.9-12.4C961-234.1,962-229.5,963-225z M825-151.4c-0.6-0.8-1.3-1.6-1.9-2.4c0.6-2.3,1.3-4.6,2-6.9
			C825.1-157.6,825.1-154.5,825-151.4z M723.3-136.1c-0.1-1.1-0.3-2.1-0.4-3.2c0.2-0.3,0.5-0.7,0.7-1
			C723.5-138.9,723.4-137.5,723.3-136.1z M642.9-67.8c-1.4,7.3-2.8,14.7-4.2,22c0,0,0,0,0,0c0-1.2,0.1-2.4,0.1-3.6
			c1.4-13.9,2.8-27.7,4.1-41.6c0.1-0.3,0.1-0.5,0.2-0.8C643.1-83.7,643-75.8,642.9-67.8z M642.8-201.5c-0.6-0.2-1.2-0.3-1.8-0.4
			c-0.3,0-0.7-0.1-1.1-0.1c1-3.5,2-7,3-10.5C643-208.9,642.9-205.2,642.8-201.5z M505.2-122.6c-0.5,4.4-1,8.9-1.5,13.3
			c-4.9-9.4-8.7-19.4-12-29.5c0-0.4,0.1-0.7,0.1-1.1c0.9-12.1,1.9-24.3,2-36.4c3.3,13.7,6.9,27.4,10.7,41
			C505-131.1,505.2-126.8,505.2-122.6z M444.6-149.9c-0.5-0.1-0.9-0.1-1.4-0.1c1-5.3,2-10.5,3.1-15.8
			C445.7-160.5,445.1-155.2,444.6-149.9z M412.1,659c0.8,1.5,2.9,2.2,4.9,2.1c0.1,0.5,0.2,1,0.3,1.5c-0.6,10.5-0.9,21.8-3,32.4
			c-1.7-13.9-3.3-27.8-5-41.6C410.3,655.2,411.1,657.1,412.1,659z M443.5,661.4c0-1.6,0.1-3.2,0.1-4.8c0.1-5.1,0.2-10.1,0.3-15.2
			c0.2-2.1,0.5-4.1,0.7-6.2c0.1,0,0.2,0,0.3,0c0.1,1.6,0.2,3.1,0.3,4.7c0.4,6.1,0.9,12.2,1.5,18.3c-0.2,1.2-0.4,2.5-0.7,3.7
			C445.3,661.7,444.4,661.5,443.5,661.4z M460.3,652.1c-0.1-1.1-0.5-1.9-1.2-2.6c0.9-4.8,1.9-9.6,2.8-14.3c1.1,3.3,2.3,6.6,3.4,10
			c-1.3,6.8-2.5,13.6-3.8,20.3C461.2,661,460.8,656.6,460.3,652.1z M560.2,696.9c0-0.1,0-0.2-0.1-0.2c0,0,0.1,0,0.1,0
			C560.3,696.7,560.2,696.8,560.2,696.9z M604.3,641.5c-0.2-0.9-0.4-1.7-0.6-2.6c0.4-4.6,0.7-9.3,1.1-13.9c0.4,1.2,0.9,2.3,1.3,3.5
			c0.4,2.6,0.7,5.2,1.1,7.9c-0.2,4.7-0.4,9.5-0.6,14.2C605.9,647.4,605,644.3,604.3,641.5z M642.5,632c1.5,5.1,2.9,10.2,4.4,15.3
			c-1.4-3.4-2.8-6.7-4.2-10.1C642.7,635.5,642.6,633.7,642.5,632z M749.3,664.1c2,6,4,12.1,6,18.1c-2.1-5.2-4.3-10.4-6.3-15.6
			C749.1,665.7,749.2,664.9,749.3,664.1z M814,634.3c1-0.4,1.8-1.1,2.3-2c3,11.5,6.1,23,9.1,34.5c-4.1-9.5-8.2-18.9-12.3-28.4
			C813.4,637,813.7,635.7,814,634.3z M873.9,608.5c0.1,0.6,0.2,1.1,0.3,1.7c-0.3-0.1-0.5-0.2-0.8-0.2
			C873.6,609.4,873.7,608.9,873.9,608.5z M1152.4,607.1c1.1,2.2,2.3,4.3,3.5,6.5c1.2,5.8,2.4,11.6,3.8,17.4
			c1.8,11.8,3.6,23.7,5.5,35.5c-5.2-18.2-9.7-36.5-13.6-55.1C1151.7,609.9,1152,608.5,1152.4,607.1z M1315.3,670
			c-0.1-3.3-3.6-4.8-6.6-4.2c-0.8-4.3-1.7-8.5-2.7-12.8c1.2,0.3,2.4,0.3,3.4,0c2.8,7.6,5.6,15.1,8.4,22.7c-0.7,1.6-1.4,3.3-2.1,4.9
			C1315.5,677.1,1315.4,673.6,1315.3,670z M1554.6,625c0.5-4.4,1-8.9,1.5-13.3c4.9,9.4,8.7,19.4,12,29.5c0,0.4-0.1,0.7-0.1,1.1
			c-0.9,12.1-1.9,24.3-2,36.4c-3.3-13.7-6.9-27.4-10.7-41C1554.9,633.5,1554.7,629.2,1554.6,625z M1615.3,652.3
			c0.5,0.1,0.9,0.1,1.4,0.1c-1,5.3-2,10.5-3.1,15.8C1614.2,662.8,1614.7,657.6,1615.3,652.3z M1695.8-20.2c1,17.8,1.8,35.7,2.4,53.5
			c-2.6,0.1-5.1,1.5-5.1,4.3c-0.9,31.9-1.1,63.7-0.8,95.6c-2.1-50-4.3-100-6.4-149.9c-0.1-1.4-0.7-2.4-1.6-3.1
			c2.2-14.4,4.5-28.7,6.7-43.1c2,3.4,2.6,8.3,2.9,11.6C1694.8-41,1695.2-30.6,1695.8-20.2z M1583.4-265.9c0.4-4.5,0.9-9.1,1.4-13.6
			c3.2,22.2,5.9,44.5,8.3,66.8c-2.1,4-4,8.1-5.7,12.3c-1.2-0.2-2.5-0.2-3.7,0.2c-0.6-6.9-1.5-13.8-2.9-20.6c0.1-3.2,0.2-6.3,0.3-9.5
			C1581.6-242.2,1582.3-254.1,1583.4-265.9z M1415.1-178.1c0.2,0.7,0.4,1.3,0.5,2c0.1,3.8,0.3,7.6,0.4,11.4c-0.6-1.5-1.2-3-1.9-4.5
			C1414.5-172.1,1414.8-175.1,1415.1-178.1z M1372.1-197.1c-1.4,0.7-2.4,1.9-2.6,3.6c-0.3,4.2-0.6,8.4-0.9,12.6
			c-4.5-16.2-8.5-32.5-12.1-48.9C1361.9-219,1367-208.1,1372.1-197.1z M1356.6-172.3c-1.3,5.5-2.5,11-3.4,16.5
			c-1.7-5.5-3.3-11.1-4.9-16.7c0.1-2.7,0.3-5.3,0.4-8c0.1-2.4-1.7-3.8-3.9-4.2c-4.9-17.4-9.5-34.8-13.9-52.3
			C1339.6-215.5,1348.2-194,1356.6-172.3z M1274.7-247c5.7,11.9,11.2,23.9,16.5,36c-3.5-0.9-8.1,1.1-6.9,5.2
			c2.9,10.3,5.9,20.7,8.8,31c-0.7-1.8-1.3-3.5-2-5.3c-5.3-13.8-10.6-27.5-16-41.2C1274.4-229.9,1274.2-238.5,1274.7-247z
			 M1260.8-163.7c2.2,7.5,4.5,14.9,7,22.3c-2.1-5.6-4.2-11.2-6.3-16.8c-0.6-3-1.2-6-1.9-9C1260-166.1,1260.4-164.9,1260.8-163.7z
			 M1246.1-169c1.7,4.3,3.3,8.7,5,13c0.5,2.3,1,4.6,1.4,6.9c-9.5-21.8-18.9-43.5-28.4-65.3C1235.5-202.4,1240.6-183.3,1246.1-169z
			 M1225.9-91.9c0.3,1.2,1.1,2,2.1,2.5c-0.6,9.3-1.2,18.6-1.8,27.9c-1.5-4.8-3-9.6-4.5-14.4c-7.1-30.3-13.8-60.8-19.9-91.3
			C1210.7-142.4,1218.8-117.3,1225.9-91.9z M1187.4-112.7c5,24.6,10,49.1,14.8,73.7c-0.8-0.2-1.6-0.3-2.4-0.2
			c-3.5-10.3-7-20.6-10.5-30.8c1.8-0.9,3-2.5,2.6-4.8c-3.8-19.9-7.5-39.9-11.3-59.8C1182.9-127.4,1185.1-120.1,1187.4-112.7z
			 M1046.3-216.7c3.6,7.8,4.9,17,7,25.3c1,3.9,1.9,7.8,2.8,11.6c-0.6-0.3-1.2-0.6-1.9-0.7c-1.9-3.2-8.3-3.2-9.9,0.8
			c-0.7,1.7-1.5,3.5-2.2,5.2c-1,0.8-1.7,1.8-1.6,3c0,0.2,0.1,0.4,0.1,0.5c-0.6,1.3-1.1,2.7-1.7,4c0-11.8-0.2-23.6-0.7-35.5
			c-0.1-2.7-2.3-4.1-4.7-4.3c0.4-7.3,0.9-14.6,1.3-21.9C1039.7-229.5,1044.9-219.9,1046.3-216.7z M991-190.4
			c0.9-3.6,3.3-18.7,8.6-22.1c0.5,2.2,1,4.5,1.4,6.7c-2.9,0.2-5.6,2.2-5,5.5c1.2,6.3,2.3,12.7,3.5,19c-2,5.6-3.9,11.2-5.8,16.9
			c-0.5-2.3-1-4.6-1.5-6.9c-0.5-2.4-2.9-3.4-5.2-3.2C988.4-179.8,989.7-185.1,991-190.4z M943.8-208.9c-0.7,6.3-1.2,12.6-1.7,18.9
			c0,0.5-0.1,0.9-0.1,1.4c-2.1-0.7-4.7-0.4-6.3,0.9c0.3-2.2,0.6-4.3,0.9-6.5c0.3-2.2-1.3-3.6-3.4-4.1
			C936.7-201.9,940.2-205.4,943.8-208.9z M809.2-142.2c-0.3,1.7-0.6,3.5-0.9,5.2c0-1.3,0-2.6-0.1-3.9
			C808.5-141.4,808.8-141.8,809.2-142.2z M778-172.4c-0.3,0.5-0.5,1-0.5,1.5c-2.8,23.1-5.5,46.2-8.3,69.4c-0.1-1-0.2-2-0.3-3
			c-0.3-10.2-0.6-20.4-0.8-30.6c-0.1-9.9-0.3-19.9-0.6-29.8c-0.1-5.7-10.8-5.8-10.7,0c0.1,5.3,0.2,10.6,0.3,15.8
			c-2.6-2.5-8.5-3-9.4,1.3c-0.1,0.3-0.1,0.6-0.2,0.8c-0.6-4-1.3-8-1.9-12c-0.6-3.8-5.8-5.1-8.7-3.7c2.7-5.2,5.1-10.4,7.3-15.8
			c0.1,3.6,0.2,7.1,0.3,10.7c0.2,4.8,7.5,5.7,10,2.2c8.9-12.5,17.1-25.5,24.5-38.9C778.7-193.7,778.4-183.1,778-172.4z M727.4-211.8
			c0.3-1.2,0.7-2.9,1.3-4.6c-1.2,18-2.4,36-3.6,54c-1.4,2.5-2.8,5-4.2,7.4c-0.7-5.1-1.3-10.1-2-15.2c1.4-6.9,2.8-13.9,4.2-20.8
			C724.5-197.9,725.7-204.9,727.4-211.8z M660.7-153.9c-0.8,8.2-1.7,16.4-2.5,24.6c-1.6,3.8-3,7.8-4.2,11.8c0-4.1,0-8.2-0.1-12.2
			C656.2-137.8,658.5-145.8,660.7-153.9z M565.4-172.5c-0.4-1.8-0.8-3.5-1.2-5.3c0-0.5-0.1-1-0.1-1.5
			C564.5-177,565-174.8,565.4-172.5z M424.5-152.6c-0.8-2.1-1.7-4.3-2.5-6.4c-0.4-1-1.2-1.7-2.3-2.3c-1.1-3.5-2.1-7-3.2-10.5
			c-0.3-4.4-0.6-8.9-0.9-13.3c-0.1-0.9-0.4-1.7-1-2.4c-0.2-4.8-0.4-9.7-0.6-14.5c3.9,12,7.8,24,11.7,36
			C425.3-161.5,424.9-157,424.5-152.6z M361.6,469.1c2.6-0.1,5.1-1.5,5.1-4.3c0.9-31.9,1.1-63.7,0.8-95.6c2.1,50,4.3,100,6.4,149.9
			c0.1,1.4,0.7,2.4,1.6,3.1c-2.2,14.4-4.5,28.7-6.7,43.1c-2-3.4-2.6-8.3-2.9-11.6c-1-10.3-1.4-20.8-1.9-31.2
			C363.1,504.8,362.3,486.9,361.6,469.1z M372.6,578c1.4,0.1,2.8-0.3,3.8-1c-1.5,7.3-3.1,14.7-4.6,22c0.3-6.7,0.5-13.5,0.8-20.2
			C372.6,578.5,372.6,578.2,372.6,578z M364.7,731.3c0.3-3.7,0.7-7.4,1.1-11.1c0.3,4.2,0.5,8.4,0.8,12.6
			C366.2,732.2,365.5,731.6,364.7,731.3z M476.4,768.3c-0.4,4.5-0.9,9.1-1.4,13.6c-3.8-26.2-6.8-52.6-9.6-78.9
			c2.3-12.6,4.7-25.2,7-37.7c1.1,3.2,2.3,6.5,3.5,9.7c-1.1,16.2-0.1,32.4,3.1,48.3c-0.1,3.2-0.2,6.3-0.3,9.5
			C478.3,744.6,477.5,756.5,476.4,768.3z M644.7,680.5c-0.2-0.7-0.4-1.3-0.5-2c-0.1-3.8-0.3-7.6-0.4-11.4c0.6,1.5,1.2,3,1.9,4.5
			C645.3,674.5,645,677.5,644.7,680.5z M687.7,699.5c1.4-0.7,2.4-1.9,2.6-3.6c0.3-4.2,0.6-8.4,0.9-12.6c4.5,16.2,8.5,32.5,12.1,48.9
			C698,721.3,692.8,710.4,687.7,699.5z M703.3,674.7c1.3-5.5,2.5-11,3.4-16.5c1.7,5.5,3.3,11.1,4.9,16.7c-0.1,2.7-0.3,5.3-0.4,8
			c-0.1,2.4,1.7,3.8,3.9,4.2c4.9,17.4,9.5,34.8,13.9,52.3C720.2,717.9,711.6,696.3,703.3,674.7z M785.2,749.4
			c-5.7-11.9-11.2-23.9-16.5-36c3.5,0.9,8.1-1.1,6.9-5.2c-2.9-10.3-5.9-20.7-8.8-31c0.7,1.8,1.3,3.5,2,5.3
			c5.3,13.8,10.6,27.5,16,41.2C785.5,732.3,785.7,740.9,785.2,749.4z M799.1,666.1c-2.1-6.9-4.2-13.8-6.5-20.6c0,0,0,0,0.1,0
			c1.9,5.1,3.8,10.1,5.7,15.2c0.6,3,1.2,6,1.9,9C799.9,668.4,799.5,667.3,799.1,666.1z M813.7,671.3c-1.7-4.3-3.3-8.7-5-13
			c-0.3-1.4-0.6-2.8-0.9-4.2c0.1-0.2,0.3-0.4,0.4-0.6c9.2,21.1,18.3,42.1,27.5,63.2C824.3,704.8,819.3,685.7,813.7,671.3z
			 M849.2,644.2c1.1,0.7,2.5,1.1,3.8,1c1.7,8.1,3.4,16.3,5,24.5C855,661.2,852.1,652.7,849.2,644.2z M874.2,620.9
			c0.5-0.8,1-1.7,1.5-2.6c1.2,6.2,2.3,12.5,3.5,18.7C877.6,631.7,875.9,626.3,874.2,620.9z M1013.5,719.1c-3.6-7.8-4.9-17-7-25.3
			c-1-3.9-1.9-7.8-2.8-11.6c3,1.8,8.4,0.2,8.7-3.7c1-0.1,2-0.2,3-0.5c0.4-0.1,0.8-0.2,1.1-0.4c2.9,13.4,5.9,26.7,9.2,40
			c-0.3,4.4-0.5,8.9-0.8,13.3C1020.2,731.9,1015,722.3,1013.5,719.1z M1124.4,666.5c1.8,11.2,3.7,22.4,5.5,33.6
			c-1.2-4.3-2.5-8.6-3.7-12.9C1125.6,680.3,1125,673.4,1124.4,666.5z M1267.1,734.1c-1-5.9-2.1-11.7-3.3-17.6
			c0.8-0.7,1.3-1.7,1.3-2.9c0-1.2-0.1-2.4-0.1-3.5c1.7,5.7,3.6,11.4,5.4,17.1C1269.2,729.5,1268.2,731.8,1267.1,734.1z M1281,702.3
			c0-0.3,0-0.6,0-1c0.4,0.9,0.9,1.9,1.3,2.8c-0.2,0.4-0.4,0.7-0.6,1.1C1281.5,704.2,1281.2,703.2,1281,702.3z M1416.9,714.9
			c0-3,0-6.1,0.1-9.1c0.5,1.3,0.9,2.6,1.4,4C1417.9,711.5,1417.4,713.2,1416.9,714.9z M1494.4,674.9c0.4,1.8,0.8,3.5,1.2,5.3
			c0,0.5,0.1,1,0.1,1.5C1495.3,679.4,1494.9,677.1,1494.4,674.9z M1635.4,655c0.8,2.1,1.7,4.3,2.5,6.4c0.4,1,1.2,1.7,2.3,2.3
			c1.1,3.5,2.1,7,3.2,10.5c0.3,4.4,0.6,8.9,0.9,13.3c0.1,0.9,0.4,1.7,1,2.4c0.2,4.8,0.4,9.7,0.6,14.5c-3.9-12-7.8-24-11.7-36
			C1634.5,663.9,1635,659.4,1635.4,655z"/>
		<path id="XMLID_1678_" class="st1" d="M1705.1,281.1c6.7,0,6.8-8.7,0-8.7C1698.3,272.4,1698.3,281.1,1705.1,281.1z"/>
	</g>
</g>
</svg>
