<?xml version="1.0" encoding="utf-8"?>
<!-- Generator: Adobe Illustrator 19.0.0, SVG Export Plug-In . SVG Version: 6.00 Build 0)  -->
<svg version="1.1" id="Layer_1" xmlns="http://www.w3.org/2000/svg" xmlns:xlink="http://www.w3.org/1999/xlink" x="0px" y="0px"
	 viewBox="390 -137 1280 775" style="enable-background:new 390 -137 1280 775;" xml:space="preserve">
<style type="text/css">
	.st0{clip-path:url(#XMLID_2_);}
	.st1{fill:#00A78D;}
	.st2{fill:#AA5C98;}
</style>
<g id="XMLID_1126_">
	<defs>
		<rect id="XMLID_1127_" x="390" y="-136" width="1279.6" height="775"/>
	</defs>
	<clipPath id="XMLID_2_">
		<use xlink:href="#XMLID_1127_"  style="overflow:visible;"/>
	</clipPath>
	<g id="XMLID_1128_" class="st0">
		<path id="XMLID_1648_" class="st1" d="M354.9,221.3c-6.7,0-6.8,8.7,0,8.7C361.7,230,361.7,221.3,354.9,221.3z"/>
		<path id="XMLID_1130_" class="st2" d="M1732.3,174.6c-0.2-2.5-2.2-3.9-4.4-4.2c-1-32.1-2.8-64.2-5.5-96.3c-0.5-5.9-9.8-5.5-10.7,0
			c-0.5,3-1,6-1.4,9c-0.6-37.3-2-74.6-4.2-111.8c-0.8-14,1.8-43.7-17.7-46.8c-3.2-0.5-6.3,0.8-6.8,4.2c-2.1,13.2-4.1,26.4-6.2,39.7
			c-0.3-8.5-0.6-17-0.9-25.5c0-0.8-0.3-1.5-0.7-2.1c0.1-0.3,0.3-0.6,0.4-0.8c1-2.3-0.3-4-2.2-4.8c0.2-10.1,0.3-20.3,0.4-30.4
			c2.6,2.9,9.2,1.9,9.8-2.7c2.3-19.6,4.1-39.3,5.7-59c2.2,3.6,9.4,2.8,10.1-2c2.9-21.1,5.4-42.3,7.4-63.5c1.1-0.5,2-1.4,2.3-2.8
			c2.1-9.3,2.1-18.3,0.1-27.6c-1.1-5.1-10.2-3.8-10.5,1.2c-0.1,1.8-0.3,3.5-0.4,5.3c-1,0.7-1.8,1.8-2,3.2c-0.5,3.2-1.1,6.4-1.6,9.7
			c-0.2-3.5-0.5-7.1-0.7-10.6c-0.4-5.7-10.6-5.8-10.7,0c-0.4,15.2-1.1,30.5-1.9,45.7c-0.5-23.4-1.1-46.9-1.6-70.3
			c-0.1-5.7-10.7-5.8-10.7,0c-0.2,25.2-0.7,50.4-1.6,75.7c-0.3-2.9-0.6-5.7-1-8.6c-0.6-4.8-7.9-5.7-10.1-2.2
			c-0.4-3.6-0.9-7.3-1.3-10.9c-0.5-4.4-7.6-6.2-10-2.2c-9.8,16.2-10.2,35.4-11.6,53.7c-0.1,0.8-0.1,1.6-0.2,2.5
			c-0.2,0.7-0.4,1.5-0.6,2.2c-0.3-4.1-0.6-8.2-0.8-12.3c-0.1-2-1.3-3.2-2.9-3.8c0.5-16.5,1.1-33.1,1.8-49.6
			c1.3-29.7,3-59.4,5.1-89.1c0.4-5.8-10.1-5.7-10.7,0c-2.1,18.9-4.2,37.9-6.5,56.8c-0.8-16.8-1.7-33.7-2.5-50.5
			c-0.3-5.7-10.8-5.8-10.7,0c0.2,27.1-0.1,54.3-0.9,81.4c-0.2,0-0.4,0.1-0.7,0.1c-2.9-25.1-6.1-50.2-10.1-75.2
			c-0.6-3.6-4.8-5.6-8.1-3.8c-9.1,5-9.1,15.8-10.2,25.1c-0.1,0.8-0.2,1.5-0.2,2.3c-2.6-2.4-9.1-1.4-9.7,3
			c-1.7,12.6-3.5,25.2-5.2,37.8c-0.5,1.9-1,3.7-1.4,5.6c-2.9,0.3-5.5,2.2-4.5,5.4c0.6,2,1.2,3.9,1.9,5.9c-0.8,3.8-1.6,7.6-2.2,11.4
			c-0.1,0.3-0.2,0.7-0.2,1c-1.3-4.4-2.8-8.7-4.5-12.9c-1.8-4.5-10.3-4.2-10.5,1.2c-0.2,3.5-0.3,7-0.4,10.5c-1.6-0.6-3.4-0.6-4.9,0
			c0.3-11.1,0.5-22.2,0.5-33.4c0-5.1-9.4-6-10.5-1.2c-3.7,16.3-7.3,32.7-10.8,49c-0.4-1-0.8-2.1-1.2-3.1c-1.6-3.9-7.8-3.9-9.9-1
			c2-17.9,3.9-35.7,5.9-53.6c0.6-5.7-9.9-5.6-10.7,0c-3.5,22.3-6.7,44.7-9.5,67.2c-1.9-5.1-3.7-10.3-5.5-15.4c-1.1-3-5-3.7-7.7-2.6
			c0.4-9.8,0.9-19.5,1.3-29.3c0.3-5.7-10.3-5.7-10.7,0c-1.3,19.3-2.7,38.5-4.1,57.8c-1.6,0.1-3.2,0.8-4.2,2.1
			c-0.2,0.3-0.4,0.5-0.5,0.8c0.7-17.2,1.4-34.4,2.2-51.7c0.2-5.8-10.2-5.7-10.7,0c-0.6,6-1.2,12-1.7,18c-2.9-2.2-8.7-1.1-9.1,3.2
			c-0.4,4.1-0.8,8.1-1.2,12.2c-2,0.4-3.7,1.7-4,3.7c-1.3-3-2.6-6-3.8-9.1c-0.3-8-0.6-16-0.8-24.1c-0.1-4.2-6.3-5.6-9.2-3.1
			c-0.8,0.7-1.5,1.5-2.2,2.4c-3.6-1.7-9,0.1-7.8,4.8c0.7,2.7,1.3,5.3,2,8c-1.2,5.4-1.5,11.2-2,16.7c0,0.1,0,0.1,0,0.2
			c-3.2-7.8-6.5-15.6-9.7-23.4c0-0.8,0-1.6,0-2.3c0-1.7-1-2.9-2.4-3.6c-1.8-4.3-3.6-8.7-5.4-13c-2.1-5-12-3.6-10.3,2.3
			c1.6,5.5,3.1,11,4.7,16.5c-1.4,2.2-2.3,4.7-3.1,7.3c-9.7-20.7-19.8-41.2-30.2-61.6c-2.5-4.8-11.4-3.9-10.3,2.3
			c2.3,13.2,4.9,26.4,7.8,39.5c-9.6-23.6-19.4-47.1-29.6-70.5c-2.2-5-11.6-3.7-10.3,2.3c4.3,20.2,9,40.3,14,60.3
			c-3.5-2.1-9.8-0.2-8.5,4.6c5.2,18.6,10.6,37.2,16.3,55.7c-2.3,0.1-4.5,1.3-5.1,3.5c0.1-2.7,0.2-5.4,0.2-8.1
			c0.1-4.3-5.3-5.3-8.5-3.3c-0.5-1.2-1-2.4-1.5-3.6c-11.4-27.5-23.8-54.6-36.9-81.4c-1.7-3.4-9.4-5-10.3,0
			c-1.1,5.9-1.8,11.9-2.1,17.8c-1.8-4.4-3.5-8.9-5.3-13.3c-2-5.1-12.3-3.5-10.3,2.3c5.7,17.1,11.5,34.1,17.2,51.2
			c0.7,5.8,1.6,11.6,2.7,17.3c-4.5-13.9-9.1-27.7-14.1-41.4c-1.4-4-7.4-4-9.6-1.2c-3.3-2.7-10-1-9,4.2c1.4,6.7,2.8,13.4,4.2,20
			c-5.1-8.2-11.6-15.2-20.5-19.6c-0.6-0.3-1.3-0.4-2.1-0.5c-0.2-0.4-0.4-0.9-0.6-1.3c-2-4.6-10.5-3.8-10.5,1c-0.1-0.3-0.2-0.6-0.4-1
			c-2-5.2-11.5-3.7-10.3,2.3c1.9,10.5,4,20.9,6.1,31.3c-3.4-8.6-6.8-17.1-10.4-25.5c-2.2-5.1-11.4-3.7-10.3,2.3
			c2.3,13.2,4.8,26.3,7.3,39.5c-4.1-12.8-8.3-25.7-12.5-38.5c-1.6-4.8-9.6-3.9-10.4,0.6c-0.5-1.7-1.1-3.5-1.6-5.2
			c-1.7-5.4-11.5-3.6-10.3,2.3c2.7,14.2,5.4,28.5,8,42.7c-2.8-9.5-5.6-19.1-8.3-28.6c-1.3-4.6-11.3-4-10.5,1.2
			c0.5,3.5,1.1,7.1,1.6,10.6c-0.7-0.7-1.6-1.2-2.5-1.4c-2.4-5.7-4.8-11.5-7.3-17.2c-2.2-5-12-3.7-10.3,2.3
			c2.4,8.3,4.7,16.6,7.1,24.8c-2.4-7.6-4.8-15.1-7.2-22.7c-1.7-5.4-11.3-3.6-10.3,2.3c1.5,8.5,3,17.1,4.6,25.6
			c-3.7-9.4-7.5-18.7-11.5-27.9c-1.8-4.1-8.7-4-10.2-0.4c-0.2-0.8-0.5-1.5-0.7-2.3c-0.6-2.1-3.2-3.2-5.2-3.2c-0.7,0-1.3,0-1.9,0.1
			c-0.9-2.5-1.9-5-2.8-7.4c-2-5.2-11.6-3.7-10.3,2.3c0.8,3.7,1.6,7.4,2.3,11.1c-0.7,0.9-1.4,1.9-1.9,3c-0.8-2.3-1.7-4.7-2.5-7
			c-1.9-5.2-11.9-3.6-10.3,2.3c3.2,11.7,6.3,23.5,9.5,35.2c0,0.5,0.1,0.9,0.1,1.4c-1.1-1.4-3-1.9-4.9-1.8c-0.1-0.4-0.2-0.7-0.3-1.1
			c0-0.1-0.1-0.3-0.1-0.4c-0.9-3.8-1.8-7.6-2.7-11.4c-3.6-15-5.6-34.5-19.3-44.2c-4.9-3.5-11.2-4.7-16.8-1.8c-3.8,1.9-4.2,4-4.5,8
			c-0.3,5.3-0.7,10.7-1,16c-0.1,1.9-0.2,3.7-0.3,5.6c-0.6-1.5-1.3-3.1-2.1-4.6c-1.8-3.8-8-4.4-10.1-0.6c-0.5-2.4-1-4.8-1.6-7.1
			c-0.4-1.6-2.3-2.7-3.7-3c-9.7-1.9-16.3,4.5-20.1,12.8c-2.4,5.2-3.4,11-4.8,16.6c-4.4-22.4-9.1-44.8-14.2-67
			c-1.1-4.8-8.8-3.7-10.3,0c-4.9,11.2-7.9,23-10,35c-4.3,3.9-8.5,7.9-12.6,11.9c0.4-2.2,0.8-4.3,1.2-6.5c1.1-5.9-9-7.8-10.3-2.3
			c-0.5,1.9-0.9,3.8-1.4,5.6c-0.4-4.4-9.2-4.5-10.6-0.3c-2.3,7-4.5,14-6.7,21c0.4-3.4,0.9-6.7,1.3-10.1c0.5-3.7-4.3-5-7.6-3.9
			c0.8-5.1,1.7-10.2,2.5-15.3c0.8-5.2-9.1-5.7-10.5-1.2c-0.3,1.1-0.7,2.2-1,3.2c0.2-1.4,0.5-2.8,0.7-4.2c0.9-5.4-8.8-5.3-10.5-1.2
			c-0.5,1.3-1,2.5-1.5,3.8c-0.3,0.4-0.6,0.9-0.8,1.5c-0.2,0.6-0.3,1.1-0.5,1.7c-5.7,15.1-10,30.7-12.9,46.6
			c-0.5,2.8,1.4,4.6,3.8,5.3c-0.8,7.4-1.5,14.8-1.9,22.3c-1.3,0.3-2.4,0.9-3.1,2c-0.7,1.2-1.3,2.4-1.9,3.7c-0.2-1.2-0.4-2.4-0.6-3.5
			c-1.3-7.8-2.9-16.3-5.7-24.2c-0.6-12.3-1.4-24.5-2.3-36.7c-0.4-5.7-10.9-5.8-10.7,0c0.1,4.6,0.3,9.2,0.4,13.8c-0.1-1-0.3-2-0.4-3
			c-0.5-3.3-4.2-4.8-7.2-4.1c-2.1-3.7-10.2-3.1-10.2,1.9c0,3.5,0.1,7,0.1,10.5c-1.5,2.5-2.9,5-4.1,7.6c0-1.7,0-3.4-0.1-5
			c-0.1-5.7-10.5-5.7-10.7,0c-0.3,8.8-0.5,17.6-0.5,26.5c-0.5,0.5-1,1-1.5,1.4c-0.2-16-0.5-32-0.7-48c-0.1-5-9.4-6.1-10.5-1.2
			c-1.6,7.4-3.3,14.8-4.9,22.2c-0.1-1-0.1-2-0.2-3.1c-0.1-1.7-1-2.8-2.3-3.5c0.2-6.2,0.4-12.3,0.6-18.5c0.1-3.4-3.7-4.8-6.8-4.1
			c9.6-18.3,17.8-37.4,24.4-57.1c1.9-5.7-8.6-7.6-10.3-2.3c-10.4,30.8-24.6,60.1-42.3,87.4c-0.3-8.1-0.5-16.2-0.8-24.3
			c-0.2-5.1-9.3-6-10.5-1.2c-1.6,6.3-3.6,12.5-5.7,18.6c0.8-12.5,1.7-25,2.5-37.5c0.2-2.6-3.1-4.5-5.4-4.4c-6.1,0.4-10.2,3.3-13,7.4
			c0.9-6,1.9-12,2.8-17.9c0.7-4.4-7-5.6-9.7-2.8c-2.7-2-8.5-1.6-9.2,2c-0.1,0.5-0.2,1-0.3,1.5c-3-0.5-6.4,0.8-6.2,4.1
			c0.4,6.1,0.9,12.2,1.3,18.4c-0.2,0.9-0.4,1.8-0.6,2.7c-1,0.6-1.9,1.5-2.3,2.5c-0.5,1.4-0.9,2.7-1.4,4.1c-2.9-1.6-8.1-1-8.6,2.3
			c-1.2,7.1-2.4,14.3-3.6,21.4c-2.9-0.9-6.8,0-7.5,2.8c-1,3.9-2.1,7.8-3.1,11.7c1.4-14.1,2.9-28.1,4.3-42.2
			c0.5-5.2-9.2-5.8-10.5-1.2c-4.6,16.4-9.3,32.8-13.9,49.3c-0.2-5.7-0.3-11.5-0.5-17.2c1.3-19.8,1.5-39.6-0.5-59.6
			c-0.5-5-8.9-6.1-10.5-1.2c-5.9,18.2-11.2,36.5-16.2,54.9c1-10.1,2-20.1,2.9-30.2c0.5-5.1-7.7-5.2-10-2.2
			c-3.3,4.4-5.8,9.2-7.7,14.2c-0.5-0.3-1.1-0.6-1.7-0.8c-2.6-1.1-6.9-0.6-7.9,2.6c-0.7,2.1-1.3,4.3-1.9,6.5
			c-0.1-0.3-0.2-0.5-0.2-0.8c-1.3-4.6-11.4-4-10.5,1.2c1.7,10.6,2.1,21.2,1.2,31.7c-0.7-2.3-1.4-4.5-2-6.8c-0.2-2.6-0.5-5.2-0.7-7.8
			c-0.1-1.6-1.1-2.7-2.3-3.4c-0.2-0.9-0.5-1.7-0.7-2.6c-1.4-8.4-3.2-16.8-5.2-25.1c-1.1-4.3-7.6-4-9.7-0.8c-2-3.9-11-3.1-10.3,1.8
			c0.2,1.6,0.5,3.3,0.8,4.9c-0.7-2.7-1.5-5.5-2.3-8.2c-1.4-4.5-11.4-4-10.5,1.2c0.1,0.4,0.1,0.8,0.2,1.2c0,0,0,0,0,0c0,0,0,0,0,0
			c1.4,8.7,3,17.4,4.8,26.1c-2.9-2.3-8.6-1.3-9.1,3.1c-0.1,0.7-0.2,1.4-0.2,2.1c-1-7.4-2.2-14.7-3.6-22.1c-0.2-1.3-1-2.2-2-2.7
			c-0.1-1.6-0.2-3.2-0.3-4.7c-0.4-5.2-8.1-5.6-10.2-1.6c-0.5-1.8-1-3.5-1.5-5.3c-1.5-5.4-11.7-3.6-10.3,2.3
			c2.4,10.3,5.2,20.5,8.4,30.6c0,0.1,0,0.1,0,0.2c-0.2,1.6-0.3,3.2-0.5,4.8c-0.3-0.1-0.5-0.2-0.8-0.3c-3-12.7-6.2-25.4-9.9-37.9
			c-1.3-4.6-11.2-4-10.5,1.2c2.5,19,6.1,37.9,10.8,56.4c0,0.3-0.1,0.6-0.1,0.8c-3.8-18.9-9.7-37.6-15.6-55.9
			c-1.7-5.3-11.5-3.6-10.3,2.3c0.2,0.9,0.4,1.7,0.5,2.6c-0.9,0.1-1.8,0.4-2.6,0.8c0-0.6-0.1-1.2-0.1-1.8c-0.1-2.5-2-3.9-4.2-4.2
			c0.7-10.1,1.4-20.1,2.1-30.2c0.4-5.8-10-5.6-10.7,0c-0.3,2.2-0.6,4.5-0.9,6.7c0.1-2.1,0.2-4.2,0.4-6.2c0.4-7.2-0.3-14.5-6.2-19.3
			c-2.4-1.9-8.2-1.8-9,1.9c-1.9,9-3.7,18-5.5,27c3.4-27.5,6.8-54.9,10.2-82.4c2.7-22.3,5.5-44.5,8.2-66.8c0.7-5.6-10-5.7-10.7,0
			c-7.1,57.3-14.2,114.7-21.2,172c-2.8-0.2-5.8,1.2-6.1,4.3c-0.5,5.6-1,11.1-1.6,16.7c-5.5-16.8-10.9-33.7-16.4-50.5
			c-1.5-4.5-10.8-4.2-10.5,1.2c0.8,15.7,1.7,31.3,2.3,47c-2.3,0.7-4.1,2.5-3.5,5.2c1,4.4,1.9,8.8,2.9,13.1
			c-1.3,5.8-2.5,11.6-3.8,17.4c0.6-13.5,0.6-27,0.2-40.5c-0.2-5.7-10.9-5.7-10.7,0c0.2,5.7,0.3,11.3,0.3,17c-1.8-1.9-5.5-2-7.7-0.4
			c-0.5-12.7-1.1-25.4-1.6-38c-0.2-5.8-10.3-5.7-10.7,0c-0.5,6.5-1,12.9-1.6,19.4c-1.2,7.5-2.2,15-3,22.5c-0.8,0.9-1.2,2.2-0.8,3.7
			c0.1,0.3,0.2,0.7,0.3,1c-0.5,5.3-0.9,10.6-1.3,15.9c-1.9-2.4-3.9-4.7-6.1-6.8c-3.1-3-10.3-0.5-9,4.2c5.9,21.6,11.8,43.3,17.5,65
			c0.1,10.4,0.5,20.7,1.2,31.1c0.3,3.9,4.8,5.1,7.9,3.8c0.3,1,0.5,2.1,0.8,3.1c-3.1-1-7.6,0.6-7.8,4.1c-0.1,1.4-0.1,2.7-0.2,4.1
			c-0.1-0.2-0.2-0.5-0.3-0.7c-2.1-5.1-11.6-3.7-10.3,2.3c1.4,7.1,2.9,14.2,4.5,21.3c-1.5,0.6-2.7,1.9-2.8,3.9
			c-0.5,9.8-0.8,19.6-1.1,29.5c-2.4,0.3-4.7,1.9-4.9,4.3c-1.2,16.7-2,33.4-2.4,50.1c-1.2,0.7-2,1.9-2,3.3
			c-0.4,16.7-0.9,33.4-1.3,50.1c0,0.9,0.2,1.6,0.6,2.3c-2.5,0.6-4.5,2.5-3.8,5.3c2.8,11.8,5.6,23.6,8.4,35.4
			c0.8,12.3,1.8,24.6,3,36.9c0.3,3.5,3.8,4.8,6.8,4.1c1.4,5.8,2.8,11.7,4.2,17.5c-0.8,12.8-1.4,25.6-1.6,38.4c0,0.1-0.1,0.1-0.1,0.2
			c-0.2-3.5-0.4-7.1-0.6-10.6c-0.4-5.8-10.2-5.7-10.7,0c-0.8,8.6-1.6,17.2-2.4,25.7c-1.1-21.5-2.9-43-5.3-64.4
			c-0.5-4.7-9.5-6.4-10.5-1.2c-7.9,40.8-10.2,82.5-6.3,123.9c0.2,2.5,2.2,3.9,4.4,4.2c1,32.1,2.8,64.2,5.5,96.3
			c0.5,5.9,9.8,5.5,10.7,0c0.5-3,1-6,1.4-9c0.6,37.3,2,74.6,4.2,111.8c0.7,12.1-1.1,35.6,10.7,44c-1.4,0.7-2.5,1.9-2.7,3.6
			c-0.2,2.4-0.5,4.8-0.7,7.2c-3.1-1.1-7.6,0.2-7.8,3.9c-0.7,11.4-0.8,22.7-0.3,34.1c-0.1,17.5-0.3,35-0.4,52.5
			c0,3.5,3.8,4.9,6.9,4.1c-1.9,14.8-3.5,29.6-4.9,44.4c-1.1,0.5-2,1.4-2.3,2.8c-2.1,9.3-2.1,18.3-0.1,27.6
			c1.1,5.1,10.2,3.8,10.5-1.2c0.1-1.8,0.3-3.5,0.4-5.3c1-0.7,1.8-1.8,2-3.2c0.5-3.2,1.1-6.4,1.6-9.7c0.2,3.5,0.5,7.1,0.7,10.6
			c0.4,5.7,10.6,5.8,10.7,0c0.4-15.2,1.1-30.5,1.9-45.7c0.5,23.4,1.1,46.9,1.6,70.3c0.1,5.7,10.7,5.8,10.7,0
			c0.2-25.2,0.7-50.4,1.6-75.7c0.3,2.9,0.6,5.7,1,8.6c0.6,4.8,7.9,5.7,10.1,2.2c0.4,3.6,0.9,7.3,1.3,10.9c0.5,4.4,7.6,6.2,10,2.2
			c9.8-16.2,10.2-35.4,11.6-53.7c0.1-0.8,0.1-1.6,0.2-2.5c0.2-0.7,0.4-1.5,0.6-2.2c0.3,4.1,0.6,8.2,0.8,12.3c0.1,2,1.3,3.2,2.9,3.8
			c-0.5,16.5-1.1,33.1-1.8,49.6c-1.3,29.7-3,59.4-5.1,89.1c-0.4,5.8,10.1,5.7,10.7,0c2.1-18.9,4.2-37.9,6.5-56.8
			c0.8,16.8,1.7,33.7,2.5,50.5c0.3,5.7,10.8,5.8,10.7,0c-0.2-28.7,0.1-57.4,1-86c3,26.7,6.4,53.3,10.6,79.8c0.6,3.6,4.8,5.6,8.1,3.8
			c9.1-5,9.1-15.8,10.2-25.1c0.1-0.8,0.2-1.5,0.2-2.3c2.6,2.4,9.1,1.4,9.7-3c1.7-12.6,3.5-25.2,5.2-37.8c0.5-1.9,1-3.7,1.4-5.6
			c2.9-0.3,5.5-2.2,4.5-5.4c-0.6-2-1.2-3.9-1.9-5.9c0.8-3.8,1.6-7.6,2.2-11.4c0.1-0.3,0.2-0.7,0.2-1c1.3,4.4,2.8,8.7,4.5,12.9
			c1.8,4.5,10.3,4.2,10.5-1.2c0.2-3.5,0.3-7,0.4-10.5c1.6,0.6,3.4,0.6,4.9,0c-0.3,11.1-0.5,22.2-0.5,33.4c0,5.1,9.4,6,10.5,1.2
			c3.7-16.3,7.3-32.7,10.8-49c0.4,1,0.8,2.1,1.2,3.1c1.6,3.9,7.8,3.9,9.9,1c-2,17.9-3.9,35.7-5.9,53.6c-0.6,5.7,9.9,5.6,10.7,0
			c3.5-22.3,6.7-44.7,9.5-67.2c1.9,5.1,3.7,10.3,5.5,15.4c1.1,3,5,3.7,7.7,2.6c-0.4,9.8-0.9,19.5-1.3,29.3c-0.3,5.7,10.3,5.7,10.7,0
			c1.3-19.3,2.7-38.5,4.1-57.8c1.6-0.1,3.2-0.8,4.2-2.1c0.2-0.3,0.4-0.5,0.5-0.8c-0.7,17.2-1.4,34.4-2.2,51.7
			c-0.2,5.8,10.2,5.7,10.7,0c0.6-6,1.2-12,1.7-18c2.9,2.2,8.7,1.1,9.1-3.2c0.2-2.1,0.4-4.1,0.6-6.2c0.1-0.3,0.3-0.6,0.3-0.9
			c0.5-1.8,1-3.7,1.4-5.5c1.5-0.6,2.6-1.7,2.9-3.4c1.3,3,2.6,6,3.8,9.1c0.3,8,0.6,16,0.8,24.1c0.1,4.2,6.3,5.6,9.2,3.1
			c0.8-0.7,1.5-1.5,2.2-2.4c3.6,1.7,9-0.1,7.8-4.8c-0.7-2.7-1.3-5.3-2-8c1.2-5.4,1.5-11.2,2-16.7c0-0.1,0-0.1,0-0.2
			c3.2,7.8,6.5,15.6,9.7,23.4c0,0.8,0,1.6,0,2.3c0,1.7,1,2.9,2.4,3.6c1.8,4.3,3.6,8.7,5.4,13c2.1,5,12,3.6,10.3-2.3
			c-1.6-5.5-3.1-11-4.7-16.5c1.4-2.2,2.3-4.7,3.1-7.3c9.7,20.7,19.8,41.2,30.2,61.6c2.5,4.8,11.4,3.9,10.3-2.3
			c-2.3-13.2-4.9-26.4-7.8-39.5c9.6,23.6,19.4,47.1,29.6,70.5c2.2,5,11.6,3.7,10.3-2.3c-4.3-20.2-9-40.3-14-60.3
			c3.5,2.1,9.8,0.2,8.5-4.6c-5.2-18.6-10.6-37.2-16.3-55.7c2.3-0.1,4.5-1.3,5.1-3.5c-0.1,2.7-0.2,5.4-0.2,8.1
			c-0.1,4.3,5.3,5.3,8.5,3.3c0.5,1.2,1,2.4,1.5,3.6c11.4,27.5,23.8,54.6,36.9,81.4c1.7,3.4,9.4,5,10.3,0c1.1-5.9,1.8-11.9,2.1-17.8
			c1.8,4.4,3.5,8.9,5.3,13.3c2,5.1,12.3,3.5,10.3-2.3c-5.7-17.1-11.5-34.1-17.2-51.2c-0.7-5.8-1.6-11.6-2.7-17.3
			c4.5,13.9,9.1,27.7,14.1,41.4c1.4,4,7.4,4,9.6,1.2c3.3,2.7,10,1,9-4.2c-1.4-6.7-2.8-13.4-4.2-20c5.1,8.2,11.6,15.2,20.5,19.6
			c0.6,0.3,1.3,0.4,2.1,0.5c0.2,0.4,0.4,0.9,0.6,1.3c2,4.6,10.5,3.8,10.5-1c0.1,0.3,0.2,0.6,0.4,1c2,5.2,11.5,3.7,10.3-2.3
			c-1.9-10.5-4-20.9-6.1-31.3c3.4,8.6,6.8,17.1,10.4,25.5c2.2,5.1,11.4,3.7,10.3-2.3c-2.3-13.2-4.8-26.3-7.3-39.5
			c4.1,12.8,8.3,25.7,12.5,38.5c1.6,4.8,9.6,3.9,10.4-0.6c0.5,1.7,1.1,3.5,1.6,5.2c1.7,5.4,11.5,3.6,10.3-2.3
			c-2.7-14.2-5.4-28.5-8-42.7c2.8,9.5,5.6,19.1,8.3,28.6c1.3,4.6,11.3,4,10.5-1.2c-0.5-3.5-1.1-7.1-1.6-10.6
			c0.7,0.7,1.6,1.2,2.5,1.4c2.4,5.7,4.8,11.5,7.3,17.2c2.2,5,12,3.7,10.3-2.3c-2.4-8.3-4.7-16.6-7.1-24.8c2.4,7.6,4.8,15.1,7.2,22.7
			c1.7,5.4,11.3,3.6,10.3-2.3c-1.5-8.5-3-17.1-4.6-25.6c3.7,9.4,7.5,18.7,11.5,27.9c1.8,4.1,8.7,4,10.2,0.4c0.2,0.8,0.5,1.5,0.7,2.3
			c0.6,2.1,3.2,3.2,5.2,3.2c0.7,0,1.3,0,1.9-0.1c0.9,2.5,1.9,5,2.8,7.4c2,5.2,11.6,3.7,10.3-2.3c-0.8-3.7-1.6-7.4-2.3-11.1
			c0.7-0.9,1.4-1.9,1.9-3c0.8,2.3,1.7,4.7,2.5,7c1.9,5.2,11.9,3.6,10.3-2.3c-3.2-11.7-6.3-23.5-9.5-35.2c0-0.5-0.1-0.9-0.1-1.4
			c1.1,1.4,3,1.9,4.9,1.8c0.1,0.4,0.2,0.7,0.3,1.1c0,0.1,0.1,0.3,0.1,0.4c0.9,3.8,1.8,7.6,2.7,11.4c3.6,15,5.6,34.5,19.3,44.2
			c4.9,3.5,11.1,4.6,16.7,1.9c0.5,1.1,1.6,1.8,2.8,2.2c0.1,0.3,0.1,0.5,0.2,0.8c0.7,3.2,5.6,3.9,8.5,2.4c0.9,3.6,1.8,7.2,2.7,10.8
			c1.4,5.5,11.4,3.6,10.3-2.3c-1.3-7.5-2.7-14.9-4-22.4c0.8,3.3,1.6,6.6,2.4,9.9c1.3,5.4,11.7,3.6,10.3-2.3
			c-2.2-9.7-4.4-19.4-6.6-29.1c1.3,0.1,2.7-0.1,3.8-0.8c3.1,14.1,6.6,28.2,10.4,42.1c1.5,5.4,11.4,3.6,10.3-2.3
			c-0.6-3.6-1.3-7.3-1.9-10.9c0.5,0.6,1.3,1.1,2.1,1.5c3.1,12.7,6.4,25.4,10,38c1.5,5.4,11.6,3.6,10.3-2.3c-0.6-3.1-1.3-6.2-1.9-9.3
			c1.4-0.5,2.5-1.4,3-2.6c0.2-0.4,0.3-0.8,0.5-1.1c0.1,0.5,0.3,1,0.4,1.5c0.9,3.3,5.1,3.9,7.9,2.5c0.7,2.7,1.4,5.3,2.1,8
			c1.3,4.7,8.9,3.9,10.2-0.2c0.9,3.4,1.8,6.8,2.6,10.2c1.4,5.4,11.8,3.6,10.3-2.3c-1.9-7.7-3.8-15.3-5.6-23
			c-0.4-4.9-0.9-9.8-1.3-14.6c4.5,15.7,9,31.5,13.5,47.2c1.3,4.6,11.4,4,10.5-1.2c-5.9-36-11.8-72-17.7-107.9c0,0,0.1,0,0.1,0
			c5.4,20.3,10.8,40.7,16.1,61c1.4,5.4,11.5,3.6,10.3-2.3c-0.1-0.5-0.2-1-0.3-1.6c1.4-0.7,2.3-1.9,2.1-3.6
			c-2.2-16.7-4.4-33.4-6.6-50.1c4.7,15.1,9.8,30.1,15.5,45c1.6,4.3,11.4,4.2,10.5-1.2c-2-13-4-26-6-39c2.8,7.5,5.8,15,9,22.4
			c1.3,3,6.8,3.9,9.3,2.1c0.2,0.6,0.4,1.2,0.6,1.8c0.8,2.4,4,3.4,6.7,3c0.3,1.4,0.6,2.8,0.9,4.3c0.9,4.4,7.7,4,9.8,0.6
			c3.7,11.2,7.3,22.5,11,33.7c1.5,4.5,10.9,4.2,10.5-1.2c-0.2-3-0.4-5.9-0.6-8.9c0.2,0.6,0.4,1.2,0.5,1.7c1.4,4.6,11,4.1,10.5-1.2
			c-0.4-4.3-0.8-8.6-1.3-12.8c1.1,3.4,2.2,6.8,3.3,10.3c0.2,0.8,0.7,1.4,1.2,1.8c0.1,0.3,0.1,0.5,0.2,0.8c1.6,5.3,11.9,3.6,10.3-2.3
			c-0.4-1.4-0.7-2.8-1.1-4.2c0-0.1,0-0.1,0-0.2c1.3,0.4,2.8,0.3,4.1-0.2c-4.4,10.1-8.3,20.4-11.9,30.8c-1.9,5.7,8.6,7.6,10.3,2.3
			c3.7-10.8,7.8-21.5,12.4-31.9c2.2,6.4,4.4,12.8,6.6,19.2c1.5,4.4,11.3,4.2,10.5-1.2c-1.8-13.2-4.1-26.4-7-39.4
			c0.7-1.4,1.4-2.7,2.1-4.1c0.8,2.8,1.6,5.5,2.4,8.3c1.5,5.4,11.6,3.6,10.3-2.3c-0.1-0.3-0.1-0.6-0.2-1c0.5-0.6,0.7-1.5,0.6-2.6
			c-0.7-7.3-1.4-14.7-2-22c0.4-0.6,0.7-1.2,1.1-1.7c1.4,3.7,2.8,7.3,4.3,10.9c0.4,0.9,1,1.5,1.9,2c0,0.9,0.1,1.8,0.1,2.6
			c0.2,5.1,9.3,6,10.5,1.2c1.6-6.3,3.6-12.5,5.7-18.6c-0.8,12.5-1.7,25-2.5,37.5c-0.2,2.6,3.1,4.5,5.4,4.4c6.1-0.4,10.2-3.3,13-7.4
			c-0.9,6-1.9,12-2.8,17.9c-0.7,4.4,7,5.6,9.7,2.8c2.7,2,8.5,1.6,9.2-2c0.1-0.5,0.2-1,0.3-1.5c3,0.5,6.4-0.8,6.2-4.1
			c-0.4-6.1-0.9-12.2-1.3-18.4c0.2-0.9,0.4-1.8,0.6-2.7c1-0.6,1.9-1.5,2.3-2.5c0.5-1.4,0.9-2.7,1.4-4.1c1.2,0.7,2.8,1,4.3,0.8
			c1.9,6.2,3.8,12.3,5.7,18.4c1.6,5.3,11.8,3.6,10.3-2.3c-3.1-12.5-6-25.1-8.6-37.7c0.2-1,0.3-2,0.5-3c2.9,0.9,6.8,0,7.5-2.8
			c1-3.9,2.1-7.8,3.1-11.7c-1.4,14.1-2.9,28.1-4.3,42.2c-0.5,5.2,9.2,5.8,10.5,1.2c4.1-14.7,8.3-29.4,12.4-44.1
			c0.6,1.5,1.2,3,1.8,4.5c0.1,2.5,0.2,5,0.2,7.5c-1.3,19.8-1.5,39.6,0.5,59.6c0.5,5,8.9,6.1,10.5,1.2c2.1-6.5,4.1-13,6.1-19.5
			c0.7,2.2,1.4,4.3,2.1,6.5c1.7,5.3,11.5,3.6,10.3-2.3c-0.3-1.7-0.7-3.5-1-5.2c2.2,0.2,4.6-0.5,5.7-2c1.6-2.1,3.1-4.4,4.3-6.7
			c1.8,6.3,3.6,12.5,5.6,18.7c1.7,5.3,12.1,3.5,10.3-2.3c-1.9-6.4-3.8-12.8-5.7-19.2c-0.3-1.1-0.6-2.3-1-3.4c1.7-0.3,3.2-1.2,3.7-3
			c0.7-2.1,1.3-4.3,1.9-6.5c0.1,0.3,0.2,0.5,0.2,0.8c1.3,4.6,11.4,4,10.5-1.2c-0.3-1.8-0.5-3.7-0.8-5.5
			c6.2,14.5,12.3,29.1,18.4,43.7c1.7,4.1,11.2,4.3,10.5-1.2c-0.8-6.6-1.6-13.2-2.5-19.9c2.4-0.3,4.4-1.8,4.1-4.2
			c-0.2-1.6-0.5-3.3-0.8-4.9c0.7,2.7,1.5,5.5,2.3,8.2c1.4,4.5,11.4,4,10.5-1.2c-0.1-0.4-0.1-0.8-0.2-1.2c0,0,0,0,0,0c0,0,0,0,0,0
			c-1.4-8.7-3-17.4-4.8-26.1c2.9,2.3,8.6,1.3,9.1-3.1c0.1-0.7,0.2-1.4,0.2-2.1c1,7.4,2.2,14.7,3.6,22.1c0.2,1.3,1,2.2,2,2.7
			c0.1,1.6,0.2,3.2,0.3,4.7c0.4,5.2,8.1,5.6,10.2,1.6c0.5,1.8,1,3.5,1.5,5.3c1.5,5.4,11.7,3.6,10.3-2.3c-2.4-10.3-5.2-20.5-8.4-30.6
			c0-0.1,0-0.1,0-0.2c0.2-1.6,0.3-3.2,0.5-4.8c0.3,0.1,0.5,0.2,0.8,0.3c3,12.7,6.2,25.4,9.9,37.9c1.3,4.6,11.2,4,10.5-1.2
			c-2.5-19-6.1-37.9-10.8-56.4c0-0.3,0.1-0.6,0.1-0.8c3.8,18.9,9.7,37.6,15.6,55.9c1.7,5.3,11.5,3.6,10.3-2.3
			c-0.2-0.9-0.4-1.7-0.5-2.6c0.9-0.1,1.8-0.4,2.6-0.8c0,0.6,0.1,1.2,0.1,1.8c0.1,2.5,2,3.9,4.2,4.2c-0.7,10.1-1.4,20.1-2.1,30.2
			c-0.4,5.8,10,5.6,10.7,0c0.3-2.2,0.6-4.5,0.9-6.7c-0.1,2.1-0.2,4.2-0.4,6.2c-0.4,7.2,0.3,14.5,6.2,19.3c2.4,1.9,8.2,1.8,9-1.9
			c1.9-9,3.7-18,5.5-27c-3.4,27.5-6.8,54.9-10.2,82.4c-2.7,22.3-5.5,44.5-8.2,66.8c-0.7,5.6,10,5.7,10.7,0
			c7.1-57.3,14.2-114.7,21.2-172c2.8,0.2,5.8-1.2,6.1-4.3c0.5-5.6,1-11.1,1.6-16.7c5.5,16.8,10.9,33.7,16.4,50.5
			c1.5,4.5,10.8,4.2,10.5-1.2c-0.8-15.7-1.7-31.3-2.3-47c2.3-0.7,4.1-2.5,3.5-5.2c-1-4.4-1.9-8.8-2.9-13.1
			c1.3-5.8,2.5-11.6,3.8-17.4c-0.6,13.5-0.6,27-0.2,40.5c0.2,5.7,10.9,5.7,10.7,0c-0.2-5.7-0.3-11.3-0.3-17c1.8,1.9,5.5,2,7.7,0.4
			c0.5,12.7,1.1,25.4,1.6,38c0.2,5.8,10.3,5.7,10.7,0c0.5-6.5,1-12.9,1.6-19.4c1.2-7.5,2.2-15,3-22.5c0.8-0.9,1.2-2.2,0.8-3.7
			c-0.1-0.3-0.2-0.7-0.3-1c0.5-5.3,0.9-10.6,1.3-15.9c1.9,2.4,3.9,4.7,6.1,6.8c3.1,3,10.3,0.5,9-4.2c-5.9-21.6-11.8-43.3-17.5-65
			c-0.1-10.4-0.5-20.7-1.2-31.1c-0.3-3.9-4.8-5.1-7.9-3.8c-0.3-1-0.5-2.1-0.8-3.1c3.1,1,7.6-0.6,7.8-4.1c0.1-1.4,0.1-2.7,0.2-4.1
			c0.1,0.2,0.2,0.5,0.3,0.7c2.1,5.1,11.6,3.7,10.3-2.3c-1.4-7.1-2.9-14.2-4.5-21.3c1.5-0.6,2.7-1.9,2.8-3.9
			c0.5-9.8,0.8-19.6,1.1-29.5c2.4-0.3,4.7-1.9,4.9-4.3c1.2-16.7,2-33.4,2.4-50.1c1.2-0.7,2-1.9,2-3.3c0.4-16.7,0.9-33.4,1.3-50.1
			c0-0.9-0.2-1.6-0.6-2.3c2.5-0.6,4.5-2.5,3.8-5.3c-2.8-11.8-5.6-23.6-8.4-35.4c-0.8-12.3-1.8-24.6-3-36.9c-0.3-3.5-3.8-4.8-6.8-4.1
			c-1.4-5.8-2.8-11.7-4.2-17.5c0.8-12.8,1.4-25.6,1.6-38.4c0-0.1,0.1-0.1,0.1-0.2c0.2,3.5,0.4,7.1,0.6,10.6c0.4,5.8,10.2,5.7,10.7,0
			c0.8-8.6,1.6-17.2,2.4-25.7c1.1,21.5,2.9,43,5.3,64.4c0.5,4.7,9.5,6.4,10.5,1.2C1733.9,257.7,1736.2,216.1,1732.3,174.6z
			 M1695.3-228.9c-0.3,3.7-0.7,7.4-1.1,11.1c-0.3-4.2-0.5-8.4-0.8-12.6C1693.8-229.8,1694.5-229.3,1695.3-228.9z M1401.3,636.9
			c0.2-1.8,0.4-3.5,0.5-5.3c1-2.4,1.9-4.9,2.8-7.3c0.5,2.5,1,5,1.5,7.4c0,0.1,0,0.3,0,0.4c-0.9,3.2-1.8,6.4-2.7,9.7
			C1402.7,640.2,1402,638.5,1401.3,636.9z M1331.7,713c0.2,0.6,0.5,1.3,0.7,1.9c-0.3,1.1-0.6,2.4-1.1,3.8
			C1331.4,716.8,1331.6,714.9,1331.7,713z M845.9,633.6c1.4-0.9,2.7-1.9,4-2.8c-0.8,2.7-1.6,5.5-2.2,8.2
			C847.1,637.2,846.5,635.4,845.9,633.6z M370.4,657.7c1.1-5.3,2.2-10.6,3.4-16c-0.5,5.9-1,11.8-1.5,17.6
			C371.8,658.6,371.2,658.1,370.4,657.7z M865.2-82.1c-0.1-14.1-1.3-29.6,2.1-43.6c0.1,0.1,0.3,0.2,0.4,0.3c0.2,0.6,0.3,1.2,0.5,1.8
			c0,14.5,0.3,28.9,0.8,43.4c-1.4,0-2.7,0.4-3.8,1.1C865.2-80.1,865.2-81.1,865.2-82.1z M488.4,660.2c-0.2-3.1-3-4.5-5.7-4.3
			c-1.8-5.1-3.7-10.2-5.6-15.3c1.1-6,2.2-12,3.3-18c5,12,10,24,14.8,36c-0.5,9.4-1.1,18.8-1.7,28.1c-1.5-4.3-2.9-8.5-4.4-12.8
			C489,669.5,488.7,664.9,488.4,660.2z M1212.6-65.5c1,3.1,1.9,6.1,2.9,9.2c-0.9,0.7-1.4,1.7-1.5,3c-0.1,6.3-0.2,12.6-0.3,18.9
			c-1.8-9.3-3.6-18.6-5.5-27.9C1210.3-62.6,1212.1-63.7,1212.6-65.5z M1649.2,598.4c-0.2-2.5-0.3-4.9-0.5-7.4c3-12,6-23.9,9.2-35.9
			c-1.3,11.1-2.5,22.2-3.5,33.3C1652.2,591.5,1650.5,594.9,1649.2,598.4z M421.2,603.7c-0.7,3.7-1.3,7.5-2,11.2
			c-1.3-7.3-2.5-14.6-3.6-21.9c1.4-9.2,2.7-18.5,3.9-27.8c0.3,2.5,0.7,5,1,7.6c0.4,6.9,0.8,13.8,1.2,20.8c0,0.1,0,0.2,0,0.4
			c-0.1,1.3-0.1,2.7-0.2,4.1C421.4,599.8,421.3,601.8,421.2,603.7z M410.9-96c0.2,2.5,0.3,4.9,0.5,7.4c-3,12-6,23.9-9.2,35.9
			c1.3-11.1,2.5-22.2,3.5-33.3C407.9-89.1,409.6-92.5,410.9-96z M1345.6-121.3c0.2,0.7,0.4,1.3,0.7,2c0.6,1.7,1.2,3.5,1.8,5.2
			c-0.5,5.5-0.9,11-1.3,16.4c-0.7-2-1.4-4.1-2.1-6.1c0.2-3.6,0.4-7.2,0.5-10.8C1345.4-116.8,1345.5-119,1345.6-121.3z M742.4-47
			c0.1,5.5,0.1,11,0.2,16.4c0,13.1-0.1,26.1-0.1,39.2c-0.4,0.1-0.9,0.2-1.3,0.2c-0.6-5.2-1.2-10.4-1.8-15.6
			c0.8-14.5,1.6-28.9,2.3-43.4C741.9-49.1,742.1-48,742.4-47z M1408.4-21.1c0.7,2.8,1.3,5.7,2,8.5c-0.1,1.3-0.2,2.5-0.2,3.8
			c-0.4,2.1-0.9,4.2-1.3,6.3c-0.1-0.3-0.1-0.5-0.2-0.8c-0.3-5.9-0.6-11.8-1-17.7C1407.9-21,1408.2-21,1408.4-21.1z M1434.2,539.6
			c1,0.5,2.2,0.7,3.4,0.7c-0.8,3.1-1.7,6.2-2.5,9.3C1434.8,546.3,1434.5,543,1434.2,539.6z M535.4,22.2
			C535.5,22.2,535.5,22.1,535.4,22.2c0.5,6.6,1.1,13.3,1.6,20c-0.4,2.4-0.9,4.9-1.3,7.3c-0.9-4.8-1.9-9.7-2.9-14.5
			C533.7,30.7,534.6,26.5,535.4,22.2z M1576.8-149.5c0-0.2,0.1-0.5,0.1-0.7c0.3,0,0.5,0,0.8-0.1
			C1577.4-150.1,1577.1-149.8,1576.8-149.5z M1026.9,473.9c-2.3-5.6-4.6-11.1-6.9-16.7c0.4-2.4,0.7-4.8,1.1-7.2c0.7,1.7,1.3,3.3,2,5
			c0.7,3.2,1.4,6.5,2.1,9.7C1025.8,467.8,1026.3,470.8,1026.9,473.9z M1214.9,132.2c0,1.1,0.1,2.1,0.1,3.2c-0.4-1.1-0.8-2.2-1.1-3.2
			c0.1-1.3,0.1-2.5,0.2-3.8C1214.4,129.7,1214.7,130.9,1214.9,132.2z M1075.6,550.9c0.4,2.9,0.8,5.8,1.2,8.7
			c-3-7.3-5.9-14.6-8.9-21.8c-0.6-2-1.3-4.1-1.9-6.1c1-3.6,1.9-7.2,2.9-10.8c1.3,3.7,2.6,7.3,3.9,11
			C1073.8,538.2,1074.7,544.6,1075.6,550.9z M663.1,457.6c1.1,5.7,2.2,11.5,3.2,17.2c0.6,3.5,1.1,6.9,1.7,10.4
			c0,0.3,0.1,0.5,0.2,0.8c-1.7,0.5-3,1.5-3.3,3C664.5,478.5,663.9,468,663.1,457.6z M1397,44.8c-1.1-5.7-2.2-11.5-3.2-17.2
			c-0.6-3.5-1.1-6.9-1.7-10.4c0-0.3-0.1-0.5-0.2-0.8c1.7-0.5,3-1.5,3.3-3C1395.6,23.9,1396.3,34.3,1397,44.8z M1577.4,463.7
			c-0.2,0-0.3,0-0.5,0c1.6-22.6,3.2-45.2,4.8-67.8c0.8,6.1,1.7,12.1,2.5,18.2c0.1,1.1,0.6,1.9,1.2,2.6c-1.6,10.6-3.3,21.2-4.9,31.8
			C1579.5,453.6,1578.4,458.7,1577.4,463.7z M1317.6,535.1c0-0.7,0-1.5,0-2.2c0-13.1,0.1-26.1,0.1-39.2c0.4-0.1,0.9-0.2,1.3-0.2
			c0.6,5.2,1.2,10.4,1.8,15.6c-0.6,10.5-1.1,21.1-1.7,31.6C1318.6,538.9,1318.1,537,1317.6,535.1z M1142.3,393.5
			c-0.1-0.3-0.3-0.6-0.4-0.9c0.2-1.3,0.4-2.6,0.6-3.9c0.2,1.1,0.4,2.2,0.6,3.3c-0.1,0.3-0.2,0.7-0.2,1
			C1142.6,393.1,1142.4,393.3,1142.3,393.5z M795.6,400.8c-0.4-1.5-0.9-3-1.3-4.5c-0.4-3.6-0.8-7.2-1.2-10.8c0.5-1.5,1.1-3,1.6-4.5
			c1.4,7.9,2.7,15.7,4.1,23.6c0.2,2.1,0.5,4.3,0.7,6.4c-0.1,0.6-0.3,1.2-0.4,1.9C798,408.8,796.8,404.8,795.6,400.8z M482.8,38.7
			c0.2,0,0.3,0,0.5,0c-1.6,22.6-3.2,45.2-4.8,67.8c-0.8-6.1-1.7-12.1-2.5-18.2c-0.1-1.1-0.6-1.9-1.2-2.6c1.6-10.6,3.3-21.2,4.9-31.8
			C480.7,48.8,481.7,43.7,482.8,38.7z M1259.8,459.2c-0.1-1-0.1-2.1-0.2-3.1c-0.1-2.5-2.2-3.9-4.6-4.2c0.1-1.6,0.1-3.2,0.2-4.8
			c1.7,0,3.4-0.7,4.2-2.2c1.4-2.5,2.7-4.9,4.1-7.4c-1,7.2-2,14.3-3,21.5C1260.2,459,1260,459.1,1259.8,459.2z M534.9,178.5
			c0.1,1.6,0.1,3.3,0.2,4.9c-0.4,1.3-0.9,2.5-1.3,3.8c-1.4-12.1-2.7-24.2-4.1-36.3c-0.2-2.2-0.5-4.3-0.7-6.5
			c1.2-6.4,2.4-12.8,3.5-19.1c0.1,0.3,0.2,0.7,0.3,1C533.6,143.7,534.3,161.1,534.9,178.5z M473,398.7c0.1-0.4,0.3-0.8,0.4-1.2
			c1.1-0.3,2.7,1.8,3.1,2.4c2.2,3,2.3,7.5,2.7,11c0.8,6.8,1.5,13.7,2.2,20.5c-1.8-8.7-4-17.3-6.5-25.8c-0.4-1.4-1.4-2.3-2.7-2.7
			c0-0.3,0.1-0.6,0.1-0.9c0-0.4,0.1-1.5,0.2-2.5C472.7,399.2,472.9,399,473,398.7z M1587.2,103.7c-0.1,0.4-0.3,0.8-0.4,1.2
			c-1.1,0.3-2.7-1.8-3.1-2.4c-2.2-3-2.3-7.5-2.7-11c-0.8-6.8-1.5-13.7-2.2-20.5c1.8,8.7,4,17.3,6.5,25.8c0.4,1.4,1.4,2.3,2.7,2.7
			c0,0.3-0.1,0.6-0.1,0.9c0,0.4-0.1,1.5-0.2,2.5C1587.4,103.1,1587.3,103.4,1587.2,103.7z M857.2,194c-0.2,0.2-0.3,0.4-0.5,0.5
			c-0.3-1.1-0.5-2.3-0.8-3.4C856.4,192.1,856.8,193,857.2,194z M517.5,282.8c0,1.3,0.1,2.5,0.1,3.8c0,1,0.5,1.8,1.1,2.5
			c-0.2,3.7-0.4,7.4-0.6,11.2c-0.3,1-0.6,2-1,3c-0.8-3.3-1.5-6.5-2.3-9.8C515.7,289.9,516.6,286.3,517.5,282.8z M627.3,146.9
			c0.6,0.7,1.2,1.4,1.8,2.1c-0.2,1.8-0.3,3.5-0.4,5.3c0,0-0.1,0-0.1,0c-0.1-0.2-0.3-0.3-0.4-0.5
			C627.9,151.5,627.6,149.2,627.3,146.9z M678,274.9c0.2-1.2,0.3-2.5,0.5-3.7c0.1,2,0.2,4,0.3,5.9
			C678.6,276.4,678.3,275.7,678,274.9z M673.5,326.1c0.1-1.2,0.2-2.3,0.3-3.5c1,3.3,2,6.5,3,9.8c-0.4,2-0.9,4-1.3,6
			C674.8,334.4,674.2,330.2,673.5,326.1z M667,212c-0.1-0.6-0.2-1.3-0.3-1.9c0.2-1.1,0.4-2.2,0.6-3.3c0,0,0.1,0,0.1,0
			C667.2,208.5,667.1,210.2,667,212z M711.1,300c-0.1,0-0.2,0-0.4,0c0-0.4-0.1-0.7-0.1-1.1c0.2,0.3,0.3,0.5,0.5,0.8
			C711.1,299.8,711.1,299.9,711.1,300z M725.6,329.5c0.2,1.4,0.4,2.8,0.6,4.3c-0.5,0.1-0.9,0.2-1.4,0.3
			C725,332.5,725.3,331,725.6,329.5z M713.6,271.7c-0.2,2.9-0.3,5.8-0.5,8.7c-0.1,0.7-0.2,1.3-0.3,2c-1.6-2.8-3.3-5.6-4.9-8.4
			c-0.8-6.9-1.5-13.7-2.3-20.6c0.3-0.3,0.6-0.7,0.9-1C709.1,258.7,711.5,265.2,713.6,271.7z M595.3,127.9c0,0.2,0,0.4-0.1,0.5
			c-0.3-0.4-0.6-0.7-0.9-1.1c0-0.3-0.1-0.6-0.1-0.9C594.6,126.9,595,127.4,595.3,127.9z M723.1,343.4c1.4-0.3,2.8-0.6,4.3-0.9
			c0.1,0.8,0.2,1.6,0.3,2.5c-1.7,0.3-3.4,0.7-5.1,1C722.8,345.1,722.9,344.2,723.1,343.4z M681,371.3c0,0.1,0,0.2,0,0.3
			C681,371.6,681,371.5,681,371.3C681,371.3,681,371.3,681,371.3z M507.7,259.9c0.3,0.3,0.7,0.6,1.1,0.9c-0.4,1.1-0.7,2.1-1.1,3.2
			c-0.3-1.2-0.6-2.3-0.9-3.5C507.1,260.3,507.4,260.1,507.7,259.9z M621.1,288.3c0.7-9.5,0.8-19,0.5-28.6c0.9,4.2,1.8,8.5,2.8,12.7
			c-0.9,5.8-1.8,11.6-2.7,17.4C621.5,289.2,621.3,288.8,621.1,288.3z M728.9,354.2c0,0,0,0.1,0,0.1c-0.4,0.1-0.8,0.1-1.2,0.2
			C728.2,354.4,728.6,354.3,728.9,354.2z M723.6,364.1c2.2-0.4,4.3-0.7,6.5-1.1c0.3,2.3,0.6,4.5,0.9,6.8c-1.9,0.2-3.9,0.5-5.8,0.7
			C724.7,368.4,724.2,366.2,723.6,364.1z M1525.2,323.9c-0.1-1.6-0.1-3.3-0.2-4.9c0.4-1.3,0.9-2.5,1.3-3.8
			c1.4,12.1,2.7,24.2,4.1,36.3c0.2,2.2,0.5,4.3,0.7,6.5c-1.2,6.4-2.4,12.8-3.5,19.1c-0.1-0.3-0.2-0.7-0.3-1
			C1526.6,358.7,1525.9,341.3,1525.2,323.9z M1065.8,252c-1-5.7-2-11.5-3-17.2c0.1-0.7,0.2-1.4,0.4-2c0.3-1.7-0.3-3-1.4-4
			c-0.1-0.6-0.2-1.3-0.3-1.9c0,0,0-0.1,0.1-0.1c0.6,1.1,1.1,2.3,1.7,3.4c0.9,7.2,1.8,14.4,2.7,21.6
			C1065.9,251.8,1065.8,251.9,1065.8,252z M1264.4,307.9c-0.5-2.1-0.9-4.1-1.4-6.2c0.9-1.3,1.7-2.6,2.6-3.8c0.1,2.4,0.2,4.9,0.3,7.3
			c-0.1,0.1-0.1,0.2-0.2,0.3C1265.3,306.3,1264.9,307.1,1264.4,307.9z M1381.6,231.1c-0.1-2-0.2-4-0.3-5.9c0.3,0.7,0.5,1.5,0.8,2.2
			C1381.9,228.7,1381.8,229.9,1381.6,231.1z M1431.5,348.1C1431.5,348.1,1431.6,348.1,1431.5,348.1c0.2,0.2,0.4,0.3,0.5,0.5
			c0.3,2.3,0.5,4.6,0.8,6.9c-0.6-0.7-1.2-1.4-1.8-2.1C1431.2,351.7,1431.4,349.9,1431.5,348.1z M1393.2,290.4
			c0.1,0.6,0.2,1.3,0.3,1.9c-0.2,1.1-0.4,2.2-0.6,3.3c0,0-0.1,0-0.1,0C1392.9,293.9,1393,292.1,1393.2,290.4z M1386.7,176.3
			c-0.1,1.2-0.2,2.3-0.3,3.5c-0.6-2-1.2-4-1.8-6c0.3-0.8,0.5-1.5,0.8-2.3c0.2-0.7,0.3-1.4,0.2-1.9c0,0,0-0.1,0-0.1
			C1385.9,171.7,1386.3,174,1386.7,176.3z M1464.8,374.5c0-0.2,0-0.4,0.1-0.5c0.3,0.4,0.6,0.7,0.9,1.1c0,0.3,0.1,0.6,0.1,0.9
			C1465.5,375.5,1465.2,375,1464.8,374.5z M1335,170.5c-0.2,0.3-0.4,0.7-0.6,1c-0.1-1-0.3-1.9-0.4-2.9c0.5-0.1,0.9-0.2,1.4-0.3
			C1335.3,169,1335.1,169.8,1335,170.5z M1337.1,159c-1.4,0.3-2.8,0.6-4.3,0.9c-0.1-0.8-0.2-1.6-0.3-2.5c1.7-0.3,3.4-0.7,5.1-1
			C1337.4,157.3,1337.2,158.2,1337.1,159z M1247,278.9c0.4,1.5,0.8,2.9,1.1,4.4c-0.4,0.7-0.7,1.4-1.1,2.1c-2.8-0.3-5.6,1-5.6,4.2
			c0,2.2,0,4.4,0,6.6c-3.4,6.7-6.8,13.4-10,20.2c-0.3-1.5-0.5-3-0.8-4.5c0.1-1,0.1-1.9,0.2-2.9c2.6-0.1,5.1-1.4,4.6-4.2
			c-0.5-3.1-1-6.3-1.4-9.4c2.7-6.3,5.4-12.5,8.1-18.8C1243.1,278.2,1245.1,278.9,1247,278.9z M1200.7,303.5c0.1-1.7,0.3-3.5,0.4-5.2
			c1,4.3,2,8.7,3.1,13C1203.1,308.7,1201.9,306.1,1200.7,303.5z M1075.9,180c-0.2-1.3-0.4-2.6-0.6-3.8c0.7,1.5,1.4,3,2,4.5
			c-0.2,0.4-0.4,0.7-0.7,1.1C1076.4,181.2,1076.2,180.6,1075.9,180z M1057.9,49.6c0.9-3,1.8-6.1,2.6-9.1c0.2-0.3,0.5-0.6,0.7-0.9
			c2,9.3,3.9,18.5,5.8,27.8c-0.8,0.8-1.6,1.5-2.4,2.3C1062.4,63,1060.1,56.3,1057.9,49.6z M1069.4,78.6c0.7,3.3,1.3,6.5,2,9.8
			c-1-2.9-2.1-5.8-3.1-8.7C1068.6,79.3,1069,78.9,1069.4,78.6z M1065.1,116.6c-1.1-6.1-2.2-12.2-3.3-18.3
			c5.6,13.8,11.2,27.6,16.9,41.3c-1.3-0.3-2.9-0.3-4.2,0.1C1071.4,132,1068.3,124.3,1065.1,116.6z M1038.9,181.2
			c1.3,2.6,2.5,5.1,3.8,7.7c0.9,6.2,1.8,12.4,2.6,18.7C1043.3,198.7,1041.1,189.9,1038.9,181.2z M1005.4,59.5
			C1005.4,59.5,1005.4,59.6,1005.4,59.5c-1,1.8-2.1,3.4-3.1,5.1c-0.1-0.3-0.2-0.5-0.4-0.8c-0.6-3.9-1.3-7.7-1.9-11.6
			c0.5-0.5,1-1.1,1.5-1.6C1002.8,53.6,1004.1,56.5,1005.4,59.5z M1056.2,190.6c0.3,0.4,0.5,0.9,0.8,1.3c0.2,1.1,0.5,2.1,0.7,3.2
			c-0.4-0.9-0.9-1.8-1.3-2.8C1056.3,191.7,1056.2,191.2,1056.2,190.6z M1104.9,132.1c-0.5-5.9-1-11.8-1.5-17.8
			c1.8,3.9,3.6,7.9,5.4,11.8c0.1,0.7,0.2,1.4,0.2,2.1c-1.3,2.1-2.6,4.3-3.9,6.4C1105.1,133.8,1105,133,1104.9,132.1z M1017.4,37.8
			c0,1.2,0,2.4,0,3.6c-0.4,0.6-0.8,1.2-1.2,1.8c-0.7-1.6-1.4-3.2-2.1-4.8c0-0.3-0.1-0.6-0.1-0.9c0.8-0.8,1.6-1.6,2.4-2.5
			C1016.7,36,1017,36.9,1017.4,37.8z M971.6,149.5c0.4-1.5,0.7-3,1.1-4.6c0-0.1,0.1-0.1,0.1-0.2c1.2,4.9,2.4,9.9,3.6,14.8
			c0,0-0.1,0.1-0.1,0.1C974.8,156.3,973.2,152.9,971.6,149.5z M1020.2,263.6c0.2,1.1,0.5,2.2,0.7,3.3c0.1,1.6,0.2,3.3,0.3,4.9
			c-0.2-1.1-0.4-2.3-0.5-3.4C1020.5,266.9,1020.4,265.2,1020.2,263.6z M1114.3,188.7c-2.4-10.4-4.7-20.9-7.2-31.3
			c-0.2-1.8-0.3-3.6-0.5-5.4c1.4-2.3,2.8-4.6,4.2-6.9c1.5,14.3,2.8,28.6,4.1,42.9C1114.7,188.2,1114.5,188.4,1114.3,188.7z
			 M1129,229c-0.3-4.6-0.7-9.2-1.1-13.8c0.6,2.8,1.2,5.6,1.7,8.4c0.5,2.6,1.1,5.2,1.6,7.9c-0.2,0.3-0.4,0.6-0.6,1
			C1130.1,231.4,1129.5,230.2,1129,229z M1513.4,296.9c0,0.1,0,0.3,0,0.4c0,0-0.1,0-0.1,0C1513.3,297.2,1513.4,297,1513.4,296.9z
			 M1542.6,219.6c0-1.3-0.1-2.5-0.1-3.8c0-1-0.5-1.8-1.1-2.5c0.2-3.7,0.4-7.4,0.6-11.2c0.3-1,0.6-2,1-3c0.8,3.3,1.5,6.5,2.3,9.8
			C1544.4,212.5,1543.5,216.1,1542.6,219.6z M1143.9,95.5c0,0.1,0,0.1,0,0.2c-1,8.8-2,17.5-2.9,26.3c-1.2-7-2.4-14-3.6-21.1
			c1.7-2.8,3.4-5.7,5.1-8.5C1143,93.4,1143.5,94.5,1143.9,95.5z M1133.6,140.6c-0.7,0.5-1.3,1.1-1.6,1.8c-0.5-1.3-1-2.6-1.5-3.8
			c-0.9-5.6-1.9-11.3-2.8-16.9c-0.2-1.2-0.4-2.5-0.6-3.7c0.6-1.1,1.3-2.1,1.9-3.2C1130.6,123.4,1132.1,132,1133.6,140.6z
			 M1124.5,102.5c-2.4-13.6-4.8-27.2-7.3-40.8c-1.2-8.3-2.4-16.6-3.6-24.8c0.8-0.7,1.6-1.4,2.4-2.2c3.3,21.6,6.8,43.1,10.5,64.6
			C1125.8,100.4,1125.1,101.5,1124.5,102.5z M1111.9,25.3c-0.1-0.8-0.2-1.6-0.3-2.4c0.3,0.6,0.6,1.3,0.9,1.9
			C1112.3,24.9,1112.1,25.1,1111.9,25.3z M1104.5-27.8c-0.2-1.5-0.4-3-0.6-4.6c0.7-1,1.3-1.9,2-2.9c0.2,1.7,0.5,3.4,0.7,5.1
			C1105.8-29.3,1105.1-28.5,1104.5-27.8z M969.5,70.4c-1.8,1.9-3.5,3.8-5.3,5.7c-1.3-3.1-2.7-6.2-4-9.3c4.1-3.4,8.3-6.8,12.4-10.2
			C971.6,61.1,970.5,65.7,969.5,70.4z M984.7,209c1.2,2.3,2.4,4.7,3.7,7c1.3,8.5,2.7,17,4.1,25.6C989.9,230.7,987.3,219.9,984.7,209
			z M1082.5,226.9c0.7,0,1.4-0.1,2-0.3c0,0.3,0.1,0.5,0.1,0.8c-0.6,0.8-1.2,1.6-1.8,2.4C1082.7,228.8,1082.6,227.8,1082.5,226.9z
			 M1283.5,333.7c-0.2,1.4-0.4,2.8-0.7,4.2c-0.1-0.9-0.2-1.8-0.3-2.6C1282.9,334.7,1283.2,334.2,1283.5,333.7z M1137.6,80.9
			c-0.9,1.5-1.8,3-2.8,4.6c-1-5.8-1.9-11.6-2.9-17.4C1133.8,72.3,1135.7,76.6,1137.6,80.9z M1106.7-12c-0.1-0.6-0.2-1.2-0.3-1.8
			c0.7-0.8,1.4-1.6,2-2.4c0.5,3.8,1.1,7.6,1.6,11.3C1108.9-7.3,1107.8-9.6,1106.7-12z M971.6,45.1c-4.8,4-9.7,7.9-14.5,11.9
			c0.2-1.7,0.5-3.4,0.7-5.1c3.5-4.5,7-9,10.5-13.5C969.3,40.5,970.5,42.8,971.6,45.1z M1084.8,243.5c0.6-0.8,1.3-1.7,1.9-2.5
			c0.8,5.4,1.6,10.8,2.4,16.2c-1.3-3.2-2.5-6.5-3.6-9.7C1085.3,246.2,1085,244.9,1084.8,243.5z M1239,355.5c-0.4-0.5-0.9-1-1.3-1.5
			c-0.7-4.6-1.5-9.2-2.3-13.9c2-3.2,3.9-6.4,5.8-9.7c0,6.9-0.1,13.8-0.1,20.7C1240.4,352.7,1239.7,354.1,1239,355.5z M1439.1,214.1
			c-0.7,9.5-0.8,19-0.5,28.6c-0.9-4.2-1.8-8.5-2.8-12.7c0.9-5.8,1.8-11.6,2.7-17.4C1438.7,213.1,1438.9,213.6,1439.1,214.1z
			 M1128.2,34.3c-0.8-1.8-1.6-3.6-2.4-5.4c-0.1-0.9-0.3-1.8-0.4-2.8c0.1-0.1,0.2-0.1,0.2-0.2C1126.5,28.8,1127.4,31.5,1128.2,34.3z
			 M922.5,154.6c0.5,0.8,1.1,1.5,1.6,2.3c-0.4,3.1-0.9,6.2-1.3,9.3c-0.3-2.4-0.6-4.7-0.9-7.1C922.1,157.5,922.3,156,922.5,154.6z
			 M1214.8,382.7c0,0.2,0,0.3,0,0.5c0-0.1,0-0.2,0-0.2C1214.8,382.8,1214.8,382.7,1214.8,382.7z M1498.1,354.4
			c0.6-2.2,1.2-4.4,1.8-6.6c0.3-1.3,0.7-2.6,1-3.9c0.3,3,0.7,6,1,9c-1,2.9-2.1,5.7-3.1,8.6C1498.6,359.1,1498.3,356.7,1498.1,354.4z
			 M1552.5,242.5c-0.3-0.3-0.7-0.6-1.1-0.9c0.4-1.1,0.7-2.1,1.1-3.2c0.3,1.2,0.6,2.3,0.9,3.5C1553,242.1,1552.8,242.3,1552.5,242.5z
			 M1102.1-48.5c-0.1,0.1-0.2,0.3-0.4,0.4c-0.1-0.9-0.3-1.8-0.4-2.8C1101.6-50,1101.8-49.2,1102.1-48.5z M916.7,112.5
			c0.3,1,0.5,2,0.8,2.9c-0.2,1.2-0.4,2.5-0.5,3.7c-0.2-1.7-0.4-3.3-0.6-5C916.5,113.6,916.6,113,916.7,112.5z M1261.8,347.4
			c-0.1,0.2-0.1,0.3-0.2,0.5c0,0,0-0.1,0-0.1C1261.6,347.7,1261.7,347.5,1261.8,347.4z M1334.9,132c-1.7,2.2-3.4,4.4-5,6.6
			c-0.3-2-0.5-4-0.8-6c1.9-0.2,3.9-0.5,5.8-0.7C1334.9,131.9,1334.9,132,1334.9,132z M1156.4,281.9c0.6,2.6,1.3,5.2,1.9,7.8
			c-0.7-1.3-1.4-2.7-2-4C1156.3,284.4,1156.3,283.2,1156.4,281.9z M1263.5,360.3c0.4,0,0.9,0,1.3,0c0.9,4.5,1.8,8.9,2.7,13.4
			c-0.5,0.7-1,1.4-1.4,2.2C1265.2,370.7,1264.4,365.5,1263.5,360.3z M1490.1,384.4c0.1-0.2,0.1-0.4,0.2-0.7c0,0.2,0,0.4,0,0.5
			c0,0.1-0.1,0.2-0.1,0.3C1490.2,384.5,1490.1,384.4,1490.1,384.4z M1451.7,166.4c-0.1-0.7-0.2-1.4-0.3-2.1c0.1,0.3,0.2,0.7,0.3,1
			C1451.7,165.7,1451.7,166,1451.7,166.4z M1121.6,280.2c0.2,3.2,0.4,6.5,0.6,9.7c-0.4-3-0.7-6-1.1-9.1
			C1121.3,280.7,1121.5,280.4,1121.6,280.2z M1300,370.1c0.3,1.7,0.7,3.4,1,5.2c-0.5,0.3-0.9,0.6-1.4,0.9
			C1299.8,374.1,1299.9,372.1,1300,370.1z M1463.8,167.8c-0.4-1.6-0.8-3.1-1.3-4.7c0-0.8,0.1-1.7,0.1-2.5
			C1463,163.1,1463.4,165.5,1463.8,167.8z M1382.3,76.6c0.2-0.1,0.5-0.2,0.7-0.3c0.4,2.2,0.9,4.3,1.3,6.5
			C1383.6,80.7,1383,78.7,1382.3,76.6z M1061.4-29.3c-0.3,0.2-0.5,0.4-0.8,0.7c0.1-1.2,0.3-2.4,0.4-3.6
			C1061.1-31.2,1061.2-30.2,1061.4-29.3z M1041.4-12.7c-0.4-2.2-0.8-4.3-1.2-6.5c0.9,1.7,1.8,3.4,2.7,5.2
			C1042.5-13.5,1042-13.1,1041.4-12.7z M546.7,205.5c0-0.1,0-0.3,0-0.4c0,0,0.1,0,0.1,0C546.8,205.2,546.8,205.3,546.7,205.5z
			 M677.9,425.8c-0.2,0.1-0.5,0.2-0.7,0.3c-0.4-2.2-0.9-4.3-1.3-6.5C676.5,421.7,677.2,423.7,677.9,425.8z M1078.7,389.2
			c0.2,1.2,0.4,2.3,0.6,3.5c-0.1,0.2-0.1,0.5-0.2,0.7C1079,392,1078.9,390.6,1078.7,389.2z M1563.9,136.1c-0.3,0.1-0.6,0.3-0.9,0.4
			c-1.2-3.9-2.4-7.7-3.7-11.6c0.8-3.1,1.7-6.3,2.5-9.4C1562.4,122.4,1563.2,129.2,1563.9,136.1z M1044.9-31.9
			c-0.3-0.6-0.6-1.1-0.9-1.7c0.1-0.1,0.3-0.2,0.4-0.4C1044.6-33.3,1044.8-32.6,1044.9-31.9z M569.9,117.9c0,0.1,0.1,0.1,0.1,0.2
			c-0.1,0.2-0.1,0.4-0.2,0.7c0-0.2,0-0.4,0-0.5C569.9,118,569.9,117.9,569.9,117.9z M608.4,336c0.1,0.7,0.2,1.4,0.3,2.1
			c-0.1-0.3-0.2-0.7-0.3-1C608.4,336.7,608.4,336.3,608.4,336z M1156.3,308.5c0.5,0.9,1,1.8,1.5,2.8c-0.3,0.5-0.6,0.9-0.9,1.4
			C1156.7,311.3,1156.5,309.9,1156.3,308.5z M1222.7,433.2c-0.2-1.1-0.3-2.2-0.5-3.3c0.4-5,0.7-10,1.1-15c0.4,5.5,0.7,11,1.1,16.5
			C1223.8,432,1223.2,432.6,1222.7,433.2z M1225.2,444.9c0.2,3.7,0.5,7.3,0.7,11c-0.5-3.4-1-6.8-1.4-10.2
			C1224.7,445.4,1225,445.1,1225.2,444.9z M1339.2,367.4c0-0.4,0-0.8,0.1-1.2c0.7-0.3,1.4-0.6,2-0.9c0.4,1.3,0.7,2.6,1.1,3.9
			c-1,0.4-2,0.8-2.9,1.2C1339.4,369.4,1339.3,368.4,1339.2,367.4z M1363.8,370c-1.6,12.3-3.2,24.7-4.7,37c0.9-12,1.7-24.1,2.6-36.1
			C1362.4,370.6,1363.1,370.3,1363.8,370z M1580,188.6c-0.3-3-0.6-5.9-0.9-8.9c0.5,2.9,1.1,5.7,1.6,8.6
			C1580.5,188.3,1580.2,188.4,1580,188.6z M798.1,205c0.2,1,0.5,1.9,0.7,2.9c-1,1.9-2.1,3.9-3.1,5.8c-0.2-0.1-0.5-0.1-0.7-0.2
			c-0.2-5.5-0.5-11-0.7-16.5c0.5-0.9,1-1.7,1.5-2.6C796.5,198,797.3,201.5,798.1,205z M753.9,239.5c-0.7,1.5-1.4,3-2,4.5
			c-0.2-0.8-0.5-1.6-0.7-2.4c0-0.8,0-1.7,0-2.5C752.1,239.4,752.9,239.5,753.9,239.5z M562.1,148c-0.6,2.2-1.2,4.4-1.8,6.6
			c-0.3,1.3-0.7,2.6-1,3.9c-0.3-3-0.7-6-1-9c1-2.9,2.1-5.7,3.1-8.6C561.6,143.3,561.8,145.6,562.1,148z M480.1,313.8
			c0.3,3,0.6,5.9,0.9,8.9c-0.5-2.9-1.1-5.7-1.6-8.6C479.7,314.1,479.9,313.9,480.1,313.8z M496.3,366.3c0.3-0.1,0.6-0.3,0.9-0.4
			c1.2,3.9,2.4,7.7,3.7,11.6c-0.8,3.1-1.7,6.3-2.5,9.4C497.7,380,497,373.2,496.3,366.3z M597.6,339.2c0,0.8-0.1,1.7-0.1,2.5
			c-0.4-2.4-0.8-4.8-1.2-7.2C596.8,336.1,597.2,337.6,597.6,339.2z M733.5,391c-0.2,1-0.3,1.9-0.5,2.9c-0.4-0.7-0.8-1.4-1.2-2.1
			C732.4,391.5,733,391.2,733.5,391z M1298.4,397.2c0.3-0.1,0.6-0.2,0.9-0.4c-0.5,3.5-1,7-1.5,10.5
			C1298,403.9,1298.2,400.6,1298.4,397.2z M1324.8,357.9c0.3,1.5,0.5,3,0.8,4.5c-0.5,0.2-1,0.5-1.5,0.7
			C1324.3,361.4,1324.6,359.7,1324.8,357.9z M1340.4,379.7c0.8-0.3,1.5-0.6,2.3-0.9c-0.4,3.5-0.9,7-1.3,10.5
			C1341.1,386.1,1340.8,382.9,1340.4,379.7z M1597.3,216.2c2.4,10.8,5.1,21.5,8.1,32.1c-0.4,0.7-0.9,1.3-1.3,2
			c-2-9.5-3.9-19.1-5.9-28.6c-0.1-0.5-0.3-0.9-0.6-1.3c-0.7-3.7-1.4-7.4-2.1-11.1C1596.1,211.6,1596.7,213.9,1597.3,216.2z
			 M1581.3,112.4c0.9,0.3,1.8,0.6,2.7,0.8c-0.5,1.4-0.9,2.8-1.4,4.1C1582.1,115.7,1581.7,114,1581.3,112.4z M1488.6,114.5
			c0.2-2.7,0.5-5.4,0.7-8.1c0.4-0.1,0.7-0.1,1.1-0.2c0.1,0,0.2-0.1,0.3-0.1c0,2.3,0,4.6,0.1,6.9
			C1489.9,113.3,1489.1,113.8,1488.6,114.5z M845.3,119.7c0-0.2,0-0.3,0-0.5c0,0.1,0,0.2,0,0.2C845.4,119.6,845.4,119.6,845.3,119.7
			z M462.8,286.1c-2.4-10.8-5.1-21.5-8.1-32.1c0.4-0.7,0.9-1.3,1.3-2c2,9.5,3.9,19.1,5.9,28.6c0.1,0.5,0.3,0.9,0.6,1.3
			c0.7,3.7,1.4,7.4,2.1,11.1C464,290.8,463.4,288.5,462.8,286.1z M478.9,390c-0.9-0.3-1.8-0.6-2.7-0.8c0.5-1.4,0.9-2.8,1.4-4.1
			C478,386.7,478.5,388.3,478.9,390z M817,313.5c0.2,0.5,0.4,0.9,0.6,1.4c-0.3,1.7-0.7,3.5-0.9,5.2c-0.2-1.2-0.4-2.4-0.6-3.7
			C816.3,315.5,816.6,314.5,817,313.5z M1099.8,435.3c1.2,2.8,2.4,5.6,3.5,8.3c-0.4,3.2-0.9,6.4-1.3,9.6
			C1101.3,447.3,1100.5,441.3,1099.8,435.3z M1322.5,374c1.4-0.7,2.8-1.4,4.1-2c0.1-0.1,0.2-0.1,0.4-0.2c-0.3,1.4-0.6,2.7-1,4.1
			c-1.4,0.6-2.7,1.1-4.1,1.7C1322.2,376.4,1322.3,375.2,1322.5,374z M1598,104.8c0.1-1.1,0.2-2.2,0.3-3.4c0-0.3,0.1-0.5,0.1-0.8
			c-0.1,1.4-0.2,2.8-0.3,4.2C1598.1,104.9,1598.1,104.8,1598,104.8z M1624.7,63.8c-1.2-3.8-6.6-4-9.1-1.7c-0.1-0.3-0.3-0.7-0.4-1
			c-0.1-0.3-0.3-0.6-0.5-0.8c1-7.8,2-15.7,3.1-23.5c3,10,5.9,20,8.7,30c-0.3-0.2-0.6-0.3-0.9-0.4
			C1625.2,65.5,1624.9,64.6,1624.7,63.8z M1453.3,119.7c-0.3,1-0.6,2-0.9,3c0.3-2.2,0.7-4.4,1-6.7
			C1453.4,117.3,1453.3,118.5,1453.3,119.7z M462.1,397.5c-0.1,1.1-0.2,2.2-0.3,3.4c0,0.3-0.1,0.5-0.1,0.8c0.1-1.4,0.2-2.8,0.3-4.2
			C462.1,397.5,462.1,397.5,462.1,397.5z M637.3,392.6c0.3-0.1,0.7-0.1,1-0.2c0.2,1.4,0.3,2.8,0.5,4.3c0,0,0,0.1,0,0.1
			c-0.7-0.1-1.4-0.2-2.1-0.3C636.9,395.2,637.1,393.9,637.3,392.6z M1054,434.9c0.7,3.6,1.3,7.2,2,10.8c-0.4-0.9-0.8-1.9-1.2-2.8
			C1054.5,440.2,1054.2,437.6,1054,434.9z M1159.6,335.3c0.3-0.5,0.4-1.1,0.3-1.8c-0.2-1.7-0.5-3.4-0.7-5.1c1.6-2.5,3.2-5,4.8-7.4
			c0.5,3.2,1.1,6.3,1.6,9.5c0.4,12.8,1,25.5,1.7,38.3C1164.7,357.5,1162.2,346.4,1159.6,335.3z M1319.5,394.8c0.3-2.3,0.7-4.5,1-6.8
			c1-0.4,2-0.8,3-1.3c-1.1,4.8-2.3,9.7-3.4,14.5C1319.9,399.1,1319.7,397,1319.5,394.8z M1406.8,405.8c0.7,1.1,1.3,2.3,2,3.4
			c-0.2,1.5-0.4,3-0.5,4.6C1407.7,411.2,1407.2,408.5,1406.8,405.8z M1440.5,465.3c0.2-0.1,0.3-0.2,0.5-0.3c0.1,0.1,0.1,0.2,0.2,0.3
			c0,2,0,4.1,0,6.1c-0.1,0.5-0.2,0.9-0.3,1.4c-0.3-0.4-0.7-0.9-1-1.3C1440.1,469.5,1440.3,467.4,1440.5,465.3z M1621.5,248.7
			c-0.1-0.4-0.2-0.8-0.3-1.2c0-0.7,0.1-1.3,0.1-2c0.1,1.2,0.2,2.4,0.3,3.6C1621.6,249,1621.5,248.9,1621.5,248.7z M1587.4,135.9
			c0,0,0-0.1,0.1-0.1c0,0.1,0,0.2,0,0.3C1587.4,136,1587.4,135.9,1587.4,135.9z M1422.8,109.7c-0.3,0.1-0.7,0.1-1,0.2
			c-0.2-1.4-0.3-2.8-0.5-4.3c0,0,0-0.1,0-0.1c0.7,0.1,1.4,0.2,2.1,0.3C1423.2,107.1,1423,108.4,1422.8,109.7z M970.3-19.3
			c-0.3,0.2-0.6,0.4-0.9,0.7c-0.8-2.2-1.6-4.5-2.3-6.8c0-0.5,0.1-0.9,0.1-1.4c0.1-0.3,0.1-0.7,0.2-1c0.8,1.8,1.6,3.6,2.4,5.4
			C969.9-21.4,970.1-20.3,970.3-19.3z M900.8,101.3c-0.4-1.6-0.8-3.2-1.2-4.7c0.5-0.5,1-1,1.5-1.5C901,97.1,900.9,99.2,900.8,101.3z
			 M798.6,154.6c-0.2,0.3-0.4,0.7-0.6,1c-1.6-7.9-3.1-15.8-4.7-23.6c0.5-0.3,1-0.7,1.5-1C796.1,138.8,797.4,146.7,798.6,154.6z
			 M438.5,253.2c0,0.1,0.1,0.3,0.1,0.4c0.1,0.4,0.2,0.8,0.3,1.2c0,0.7-0.1,1.3-0.1,2C438.8,255.6,438.7,254.4,438.5,253.2z
			 M472.8,366.5c0,0,0,0.1-0.1,0.1c0-0.1,0-0.2,0-0.3C472.8,366.4,472.8,366.5,472.8,366.5z M607.1,375c0.3,1.1,0.6,2.2,0.9,3.3
			c-0.4,2.7-0.8,5.3-1.2,8C606.9,382.5,607,378.7,607.1,375z M1315,468.6c0.3-1.2,0.6-2.5,0.9-3.7c0.2,1.9,0.4,3.8,0.6,5.6
			c-0.4-0.4-0.9-0.7-1.4-0.9C1315,469.3,1315,469,1315,468.6z M1487,453.6c0-3.7,0-7.3,0-11c0.3,1.6,0.7,3.2,1,4.7
			c-0.3,2.8-0.7,5.7-1,8.5C1487,455.1,1487,454.4,1487,453.6z M1612.7,216.2c-0.9-3.5-1.7-7-2.5-10.5c0.9,2.4,1.9,4.9,2.8,7.3
			C1612.8,214.1,1612.7,215.2,1612.7,216.2z M1554.7,4.8c0.4,1.1,0.7,2.2,1.1,3.3c-0.4,2-0.7,4-1.1,6c-0.1-1.8-0.2-3.7-0.3-5.5
			C1554.5,7.4,1554.6,6.1,1554.7,4.8z M948.2,9c-0.8,0.8-1.7,1.6-2.5,2.4c0.1-0.6,0.2-1.2,0.3-1.8c0.8-0.5,1.5-1,2.3-1.5
			C948.3,8.4,948.3,8.7,948.2,9z M901.2,72.9c0.3,2.5,0.5,5,0.8,7.4c0,0.1,0,0.2,0,0.3c-1.7,1.6-3.4,3.3-5.1,5
			c-0.6-2.3-1.2-4.6-1.8-6.9C897.1,76.7,899.1,74.8,901.2,72.9C901.2,72.9,901.2,72.9,901.2,72.9z M760.2,132.3
			c-0.3-1.7-0.7-3.4-1-5.2c0.5-0.3,0.9-0.6,1.4-0.9C760.4,128.3,760.3,130.3,760.2,132.3z M501.8,42.4c-0.3,6.5-0.5,13-0.8,19.5
			c-0.4-2.3-0.9-4.6-1.3-6.8C500.3,50.8,501,46.6,501.8,42.4z M481.4,128.2c2,0.4,4.1,0,5.3-1.2c0,0.3,0,0.6,0,0.8
			c-1.2,4.3-2.4,8.6-3.6,12.9C482.5,136.6,482,132.4,481.4,128.2z M486.7,167.2C486.7,167.2,486.7,167.2,486.7,167.2
			C486.7,167.2,486.7,167.2,486.7,167.2C486.7,167.2,486.7,167.2,486.7,167.2z M447.5,286.2c0.9,3.5,1.7,7,2.5,10.5
			c-0.9-2.4-1.9-4.9-2.8-7.3C447.3,288.3,447.4,287.2,447.5,286.2z M741.4,436.5c0.5,1.2,1,2.5,1.5,3.7c-0.3,3.9-0.6,7.9-0.9,11.8
			c-0.3-0.9-0.6-1.7-0.9-2.6C741.2,445.2,741.3,440.9,741.4,436.5z M1216.6,508c0,0.2,0.1,0.4,0.1,0.5c0,0.2,0.1,0.3,0.1,0.5
			c-0.2,1.1-0.4,2.1-0.6,3.2C1216.4,510.8,1216.5,509.4,1216.6,508z M1323.5,435.5c0.4-0.2,0.9-0.4,1.3-0.6
			c-0.1,2.4-0.3,4.8-0.4,7.1c-0.2-1.2-0.4-2.4-0.6-3.6C1323.7,437.4,1323.6,436.5,1323.5,435.5z M1523.6,457.4
			c1.2,3.8,2.3,7.6,3.4,11.4c-0.8,3.8-1.5,7.5-2.3,11.3c0,0,0,0.1,0,0.1c-0.5-6.7-1.1-13.4-1.6-20.1
			C1523.2,459.2,1523.4,458.3,1523.6,457.4z M1558.4,460c0.3-6.5,0.5-13,0.8-19.5c0.4,2.3,0.9,4.6,1.3,6.8
			C1559.8,451.6,1559.1,455.8,1558.4,460z M1578.8,374.1c-2-0.4-4.1,0-5.3,1.2c0-0.3,0-0.6,0-0.8c1.2-4.3,2.4-8.6,3.6-12.9
			C1577.6,365.8,1578.2,370,1578.8,374.1z M1573.4,335.2C1573.4,335.2,1573.4,335.2,1573.4,335.2
			C1573.4,335.2,1573.4,335.2,1573.4,335.2C1573.4,335.2,1573.4,335.2,1573.4,335.2z M1600,152.7c-0.5-1.1-1.5-1.9-2.7-2.4
			c0.2-2.8,0.4-5.6,0.5-8.4c0.8,3.9,1.7,7.9,2.6,11.8C1600.3,153.4,1600.2,153.1,1600,152.7z M1629.7,73.1c0.1,0.1,0.2,0.1,0.4,0.1
			c0.7,1.7,1.5,3.5,2.3,5.2c0.8,3,1.6,6.1,2.4,9.1C1633.2,82.8,1631.5,77.9,1629.7,73.1z M921.3,31.3c-0.5,0.4-1.1,0.7-1.6,1.1
			c-0.5-1.2-1-2.4-1.5-3.5c0.5-0.3,1-0.7,1.4-1C920.2,29,920.7,30.1,921.3,31.3z M653.4,96.5c-0.7-1.1-1.3-2.3-2-3.4
			c0.2-1.5,0.4-3,0.5-4.6C652.4,91.2,652.9,93.9,653.4,96.5z M573.2,48.8c0,3.6,0,7.3,0,10.9c-0.3-1.6-0.7-3.2-1-4.7
			c0.3-2.8,0.7-5.7,1-8.5C573.2,47.3,573.2,48,573.2,48.8z M460.1,349.6c0.5,1.1,1.5,1.9,2.7,2.4c-0.2,2.8-0.4,5.6-0.5,8.4
			c-0.8-3.9-1.7-7.9-2.6-11.8C459.8,349,460,349.3,460.1,349.6z M505.4,497.6c-0.4-1.1-0.7-2.2-1.1-3.3c0.4-2,0.7-4,1.1-6
			c0.1,1.8,0.2,3.7,0.3,5.5C505.7,495,505.6,496.3,505.4,497.6z M937.2,198.4c0,0,0.1-0.1,0.1-0.1c0.3,1.1,0.5,2.3,0.8,3.4
			c-0.2,0.2-0.4,0.5-0.6,0.7C937.4,201.1,937.3,199.8,937.2,198.4z M1001.9,364.3c-0.2-1.3-0.5-2.7-0.7-4c0.3,0.7,0.6,1.3,0.9,2
			c0.4,1.7,0.8,3.5,1.2,5.2C1002.8,366.5,1002.3,365.4,1001.9,364.3z M1134.6,361.2c0.3,0.4,0.6,0.9,0.9,1.3c-0.5,3.2-1,6.4-1.5,9.6
			C1134.2,368.5,1134.4,364.8,1134.6,361.2z M1222.9,535.6c0.8,4.9,1.6,9.8,2.3,14.7c-1.2-1.1-3-1.5-4.7-1.2
			C1221.3,544.6,1222.1,540.1,1222.9,535.6z M1317.7,481.9c0.1,1,0.2,2,0.3,3c-0.1,0-0.2,0-0.3,0.1
			C1317.7,483.9,1317.7,482.9,1317.7,481.9z M1401.7,439.9c0-0.3,0-0.6,0-1c0.1,0.2,0.2,0.3,0.3,0.5c0.1,0.4,0.2,0.9,0.2,1.3
			C1402.1,440.5,1401.9,440.2,1401.7,439.9z M1616,173.6c-0.7-2.8-1.4-5.6-2.1-8.4c0.6,1.7,1.3,3.3,1.9,5
			C1615.9,171.4,1616,172.5,1616,173.6z M1631.3,33.4c0,0,0.1,0,0.1-0.1c0.1,0.4,0.1,0.8,0.2,1.2
			C1631.5,34.2,1631.4,33.8,1631.3,33.4z M1543.6,8.7c-0.4,4.3-0.8,8.6-1.2,12.8c0.2-7.6,0.5-15.2,0.7-22.8
			C1543.3,2,1543.5,5.3,1543.6,8.7z M1033.4-66.5c0.6-1.2,1.2-2.5,1.8-3.7c0.2,0.6,0.3,1.2,0.5,1.8
			C1035-67.8,1034.2-67.1,1033.4-66.5z M836.9,87.8c-0.5,1.1-0.9,2.2-1.4,3.4c-0.5,0.4-1,0.7-1.6,1.1c-0.1-0.8-0.2-1.7-0.3-2.5
			c1.1-1.1,2.2-2.1,3.3-3.2C836.9,87,836.9,87.4,836.9,87.8z M790.6,113.8c-0.2-4.2-0.4-8.3-0.5-12.5c0.6,3.6,1.2,7.2,1.7,10.8
			C791.4,112.6,791,113.2,790.6,113.8z M619.7,37.1c-0.2,0.1-0.3,0.2-0.5,0.3c-0.1-0.1-0.1-0.2-0.2-0.3c0-2,0-4.1,0-6.1
			c0.1-0.5,0.2-0.9,0.3-1.4c0.3,0.4,0.7,0.9,1,1.3C620.1,32.9,619.9,35,619.7,37.1z M405.8,158.6c0.4,5.1,0.9,10.2,1.2,15.3
			c-0.7-5-1.5-10-2.4-15.1C405.1,158.8,405.5,158.7,405.8,158.6z M416.4,234.5c0.5,3.5,1,6.9,1.4,10.4c-0.8-4.4-1.6-8.8-2.4-13.3
			C415.8,232.5,416.1,233.5,416.4,234.5z M444.1,328.8c0.7,2.8,1.4,5.6,2.1,8.4c-0.6-1.7-1.3-3.3-1.9-5
			C444.2,331,444.2,329.9,444.1,328.8z M516.5,493.7c0.4-4.3,0.8-8.6,1.2-12.8c-0.2,7.6-0.5,15.2-0.7,22.8
			C516.9,500.3,516.7,497,516.5,493.7z M571.6,387.9c-0.2,2.7-0.5,5.4-0.7,8.1c-0.4,0.1-0.7,0.1-1.1,0.2c-0.1,0-0.2,0.1-0.3,0.1
			c0-2.3,0-4.6-0.1-6.9C570.3,389.1,571,388.6,571.6,387.9z M938.2,216.5c0.7-0.8,1.4-1.6,2.1-2.4c0.3,1.9,0.5,3.9,0.7,5.8
			c-0.6,4.1-1.3,8.2-1.9,12.3C938.8,226.9,938.5,221.7,938.2,216.5z M1400.9,457.2c0,0.1,0.1,0.1,0.1,0.2c0,0-0.1,0-0.1,0.1
			C1400.9,457.4,1400.9,457.3,1400.9,457.2z M1495.3,510.9c0.8,3.6,1.5,7.2,2.3,10.8c-1.2-1.8-2.3-3.6-3.5-5.4
			C1494.4,514.5,1494.9,512.7,1495.3,510.9z M1498,498.2c0,0.5,0,1,0,1.5c-0.1,0-0.2,0-0.3,0C1497.8,499.3,1497.9,498.7,1498,498.2z
			 M1654.3,343.8c-0.4-5.1-0.9-10.2-1.2-15.3c0.7,5,1.5,10,2.4,15.1C1655,343.6,1654.7,343.7,1654.3,343.8z M1643.8,267.9
			c-0.5-3.5-1-6.9-1.4-10.4c0.8,4.4,1.6,8.8,2.4,13.3C1644.4,269.8,1644.1,268.9,1643.8,267.9z M1443.8,82.4c0-0.5,0.1-1.1,0.1-1.6
			c0.1-1,0.3-1.9,0.4-2.9c0.3-0.1,0.7-0.2,1-0.2C1444.8,79.2,1444.3,80.8,1443.8,82.4z M1318.8,65.8c-0.5-1.2-1-2.5-1.5-3.7
			c0.3-3.9,0.6-7.9,0.9-11.8c0.3,0.9,0.6,1.7,0.9,2.6C1319,57.2,1318.9,61.5,1318.8,65.8z M1054.1-78.9c-2.1,1.5-4.2,3-6.2,4.4
			c-0.9-0.3-1.9-0.4-2.9-0.3c-0.8-2.9-1.5-5.9-2.3-8.8c3.2-2.3,6.5-4.6,9.8-6.8C1053-86.6,1053.6-82.7,1054.1-78.9z M897,31.2
			c0.2,0.3,0.3,0.6,0.5,1c-1.4,1.9-0.2,4,2,5.1c0.3,1.9,0.5,3.9,0.8,5.8c-0.3,0.2-0.6,0.4-0.8,0.7c-1.6-3.5-3.1-7.1-4.6-10.7
			C895.6,32.4,896.3,31.8,897,31.2z M895.9,61.3c-1.4,1.5-2.8,2.9-4.2,4.4c-0.1-0.6-0.3-1.1-0.4-1.7c0-0.1-0.1-0.2-0.1-0.3
			c1.5-1,2.9-2,4.4-3.1C895.7,60.9,895.8,61.1,895.9,61.3z M837.5,69.2c0.1,1,0.3,2,0.5,3c-1.9,1.8-3.7,3.6-5.6,5.3
			c-0.1-0.8-0.2-1.5-0.2-2.3C833.9,73.2,835.7,71.2,837.5,69.2z M797.7,57.5c0.1,1.1,0.2,2.1,0.3,3.2c-0.2,0.2-0.5,0.4-0.7,0.6
			c0,0-0.1,0.1-0.1,0.1C797.4,60.1,797.5,58.8,797.7,57.5z M720.9,134.4c-0.2-0.7-0.4-1.5-0.6-2.2c0.1-0.1,0.2-0.1,0.4-0.2
			C720.8,132.8,720.8,133.6,720.9,134.4z M717.9,123.4c-0.1-0.4-0.2-0.8-0.3-1.1c0.4-3,0.8-6.1,1.1-9.1c0.3,3.2,0.7,6.3,1,9.5
			C719.1,122.9,718.5,123.2,717.9,123.4z M698.5,131.5c-0.7,0.3-1.4,0.6-2.1,0.9c1.6-12.3,3.2-24.7,4.7-37
			C700.2,107.4,699.3,119.4,698.5,131.5z M459.4,104.1C459.4,104.1,459.4,104.1,459.4,104.1C459.4,104.1,459.4,104.1,459.4,104.1
			C459.4,104.1,459.4,104.1,459.4,104.1C459.4,104.1,459.4,104.1,459.4,104.1z M454.5,85.5c-0.1-2.5-0.1-5.1-0.2-7.6
			c0-1.9-0.1-3.7-0.1-5.6c0.5,3.1,1.1,6.3,1.6,9.4C455.3,82.9,454.9,84.2,454.5,85.5z M1162.2,436.6c-0.3-2-0.7-4-1-6.1
			c0.4,2.2,0.9,4.5,1.3,6.7C1162.4,437,1162.3,436.8,1162.2,436.6z M1400.5,467.3c0.5-0.2,1-0.4,1.6-0.6c-0.5,4.1-1,8.3-1.5,12.4
			c-0.1-1.3-0.3-2.6-0.4-3.9C1400.2,472.6,1400.3,469.9,1400.5,467.3z M1600.8,398.3C1600.8,398.3,1600.8,398.3,1600.8,398.3
			C1600.8,398.3,1600.8,398.3,1600.8,398.3C1600.8,398.3,1600.8,398.3,1600.8,398.3C1600.8,398.3,1600.8,398.3,1600.8,398.3z
			 M1605.7,416.9c0.1,2.5,0.1,5.1,0.2,7.6c0,1.9,0.1,3.7,0.1,5.6c-0.5-3.1-1.1-6.3-1.6-9.4C1604.8,419.4,1605.2,418.2,1605.7,416.9z
			 M1447.5,68.3c-0.6,0.1-1.2,0.2-1.8,0.3c0.3-2,0.6-4.1,0.8-6.1C1446.9,64.4,1447.2,66.4,1447.5,68.3z M1395.1,11.4
			C1395.1,11.4,1395.1,11.4,1395.1,11.4C1395.1,11.4,1395.1,11.4,1395.1,11.4C1395.1,11.4,1395.1,11.4,1395.1,11.4z M1266.3,109.9
			c0.2,2.3,0.5,4.7,0.7,7c-0.5,1.5-1.1,3-1.6,4.5c-0.5-3.1-1.1-6.1-1.6-9.2C1264.6,111.5,1265.5,110.7,1266.3,109.9z M925.8,11
			c-0.1,0.4-0.1,0.8-0.2,1.1c-0.5,0.4-1.1,0.8-1.6,1.2c-0.6-1.3-1.3-2.6-2-3.9c0.8-0.7,1.6-1.3,2.4-2C924.8,8.6,925.3,9.8,925.8,11z
			 M886.9,40.9c1.6,3.7,3.2,7.3,4.8,11c-1.4,0.9-2.7,1.9-4.1,2.8c-0.3-4.3-0.6-8.6-0.9-12.9C886.8,41.5,886.9,41.2,886.9,40.9z
			 M835.7,56.7c-1.5,1.6-3,3.2-4.5,4.9c0.8-4.6,1.6-9.2,2.4-13.7c0.3-0.2,0.5-0.4,0.8-0.5C834.8,50.5,835.2,53.6,835.7,56.7z
			 M796.5,66.4c0.6,0.6,1.4,1.2,2.3,1.5c1,10,2,20.1,2.9,30.1c-0.1,0.2-0.3,0.4-0.4,0.6c-1.7-9.9-3.4-19.8-5.1-29.7
			C796.2,68.1,796.3,67.2,796.5,66.4z M735.3,144.4c-0.3-1.5-0.5-3-0.8-4.5c0.5-0.2,1-0.5,1.5-0.7
			C735.8,141,735.6,142.7,735.3,144.4z M658.5,62.4c0,0.3,0,0.6,0,1c-0.1-0.2-0.2-0.3-0.3-0.5c-0.1-0.4-0.2-0.9-0.2-1.3
			C658.1,61.9,658.3,62.1,658.5,62.4z M457.8,31.9c-0.1-0.6-0.2-1.3-0.3-1.9c1.2-0.9,1.9-2.4,1.5-4.2c-1.2-5.5-2.5-11.1-3.7-16.6
			c1.6,1,4,1.1,5.9,0.4C461,23.3,461,37,461.2,50.6C460.1,44.4,458.9,38.2,457.8,31.9z M428.1-0.2c0.1-1.2,0.2-2.4,0.3-3.6
			c0.1,2.3,0.3,4.5,0.4,6.8C428.6,1.9,428.3,0.8,428.1-0.2z M430.4,429.3c-0.1-0.1-0.2-0.1-0.4-0.1c-0.7-1.7-1.5-3.5-2.3-5.2
			c-0.8-3-1.6-6.1-2.4-9.1C427,419.6,428.7,424.4,430.4,429.3z M434.7,436c0.3,0.9,0.5,1.7,0.8,2.6c1.2,3.8,6.6,4,9.1,1.7
			c0.1,0.3,0.3,0.7,0.4,1c0.1,0.3,0.3,0.6,0.5,0.8c-1,7.8-2,15.7-3.1,23.5c-3-10-5.9-20-8.7-30C434.1,435.8,434.4,435.9,434.7,436z
			 M612.7,434.1c0.6-0.1,1.2-0.2,1.8-0.3c-0.3,2-0.6,4.1-0.8,6.1C613.3,437.9,613,436,612.7,434.1z M614.8,424.7
			c0.5-1.6,1-3.2,1.5-4.8c0,0.5-0.1,1.1-0.1,1.6c-0.1,1-0.3,1.9-0.4,2.9C615.5,424.6,615.1,424.6,614.8,424.7z M665.1,491
			C665.1,491,665.1,491,665.1,491C665.1,491,665.1,491,665.1,491C665.1,491,665.1,491,665.1,491z M667.3,508.9
			c0.7,5.7,1.4,11.4,2.1,17.1c-0.7-0.4-1.5-0.6-2.4-0.8c-0.3-1.5-0.7-3-1-4.4c-0.1-3.3-0.1-6.6-0.2-10
			C666.5,510.3,667.1,509.7,667.3,508.9z M945.1,278.5c-1.1-2.5-2.3-4.9-3.4-7.4c-0.5-7.4-1.1-14.7-1.6-22.1
			c1.2,0.4,2.7,0.4,3.9,0.2c0.2,1.9,0.4,3.7,0.5,5.6c0.9,9.7,1.9,19.3,2.8,29C946.7,281.9,945.9,280.2,945.1,278.5z M984.4,359.8
			c2.6,6.3,5.1,12.6,7.7,18.9c0.8,3.8,1.5,7.6,2.3,11.4c0.2,1,0.9,1.8,1.8,2.3c0.7,3.9,1.4,7.8,2.1,11.7
			c-5.6-13.8-11.3-27.7-17-41.5C982.4,361.7,983.4,360.7,984.4,359.8z M1160.3,462.4c0.7,0,1.3-0.1,2-0.3c2.4,5.6,4.8,11.2,7.2,16.7
			c-0.2,1-0.4,2-0.6,2.9c-2.7-5-5.3-10-8-15C1160.6,465.4,1160.5,463.9,1160.3,462.4z M1190.1,539.2c1.5,2.4,3.1,4.9,4.6,7.3
			c0,1.9,0,3.8,0.1,5.8c-1.6-3.6-3.2-7.3-4.8-10.9C1190,540.6,1190,539.9,1190.1,539.2z M1269.3,492.5c0.1-0.6,0.2-1.2,0.3-1.8
			c1.4,1,3,1.7,4.6,2.3c0,0.1,0,0.1,0.1,0.2c-0.4,12.8-0.8,25.6-1.1,38.4c-0.6,0.4-1.2,0.8-1.8,1.2
			C1270.6,519.4,1269.9,505.9,1269.3,492.5z M1272.5,550.6c0,0,0-0.1,0-0.1c0,1.3-0.1,2.6-0.1,3.8c-0.1-1-0.1-2-0.2-3
			C1272.3,551.1,1272.4,550.9,1272.5,550.6z M1373.5,550.2c0,0.8,0,1.5,0,2.3c-0.1-0.1-0.2-0.1-0.3-0.2
			C1373.3,551.6,1373.4,550.9,1373.5,550.2z M1602.4,470.4c0.1,0.6,0.2,1.3,0.3,1.9c-1.2,0.9-1.9,2.4-1.5,4.2
			c1.2,5.5,2.5,11.1,3.7,16.6c-1.6-1-4-1.1-5.9-0.4c0.1-13.6,0.1-27.3-0.1-40.9C1600.1,458,1601.2,464.2,1602.4,470.4z
			 M1632.1,502.6c-0.1,1.2-0.2,2.4-0.3,3.6c-0.1-2.3-0.3-4.5-0.4-6.8C1631.6,500.5,1631.8,501.5,1632.1,502.6z M1630,154
			c0.3,0.7,0.7,1.3,1,2c0.6,1.1,1.4,1.9,2.5,2.4c1.5,7.9,3,15.9,4.3,23.9C1635.2,172.8,1632.5,163.4,1630,154z M1541.3-26.2
			c-3-1.5-8-0.2-8.4,3.7c0,0.1,0,0.3,0,0.4c-0.1-0.5-0.3-1-0.4-1.5c1.1-4.5,2.1-9.1,3.1-13.6C1537.4-33.5,1539.3-29.8,1541.3-26.2z
			 M1491.2-32c-0.2-1-0.5-2-0.7-3c0.6-3.5,1.3-7,1.9-10.4C1492-40.9,1491.6-36.4,1491.2-32z M1489.4-12c-1.3,14.5-2.6,28.9-4,43.4
			c-0.4,1.2-0.8,2.4-1.2,3.6c1.4-15.7,2.6-31.4,3.6-47.1C1488.3-12,1488.8-12,1489.4-12z M1394.2-18.3c0.1,3.3,0.1,6.6,0.2,10
			c-0.7,0.5-1.3,1.1-1.5,1.9c-0.7-5.7-1.4-11.4-2.1-17.1c0.7,0.4,1.5,0.6,2.4,0.8C1393.5-21.3,1393.8-19.8,1394.2-18.3z
			 M1263.7,98.8c-0.7,0.6-1.3,1.1-2,1.7c-0.2-0.9-0.3-1.8-0.5-2.6c-0.2-2.1-0.5-4.3-0.7-6.4c0.1-0.6,0.3-1.2,0.4-1.9
			C1261.9,92.6,1262.8,95.7,1263.7,98.8z M737.7,128.4c-1.4,0.7-2.8,1.4-4.1,2c-0.1,0.1-0.2,0.1-0.4,0.2c0.3-1.4,0.6-2.7,1-4.1
			c1.4-0.6,2.7-1.1,4.1-1.7C738,126,737.8,127.2,737.7,128.4z M659.3,45.2c0-0.1-0.1-0.1-0.1-0.2c0,0,0.1,0,0.1-0.1
			C659.3,45,659.3,45.1,659.3,45.2z M430.2,348.4c-0.3-0.7-0.7-1.3-1-2c-0.6-1.1-1.4-1.9-2.5-2.4c-1.5-7.9-3-15.9-4.3-23.9
			C425,329.5,427.6,338.9,430.2,348.4z M428.8,469c0,0-0.1,0-0.1,0.1c-0.1-0.4-0.1-0.8-0.2-1.2C428.6,468.2,428.7,468.6,428.8,469z
			 M518.9,528.5c3,1.5,8,0.2,8.4-3.7c0-0.1,0-0.3,0-0.4c0.1,0.5,0.3,1,0.4,1.5c-1.1,4.5-2.1,9.1-3.1,13.6
			C522.7,535.9,520.8,532.2,518.9,528.5z M569,534.3c0.2,1,0.5,2,0.7,3c-0.6,3.5-1.3,7-1.9,10.4C568.2,543.3,568.6,538.8,569,534.3z
			 M570.8,514.4c1.6-17.3,3.1-34.5,4.7-51.8c0.2,1.3,0.3,2.6,0.5,3.9c-1.4,16-2.6,32-3.6,48C571.9,514.4,571.3,514.4,570.8,514.4z
			 M951.1,340.9c-2.2-12.6-4.5-25.2-6.8-37.8c0-0.2,0-0.5-0.1-0.7c2.1,4.9,4.2,9.7,6.3,14.6c1.6,17.8,3.2,35.5,4.7,53.3
			c0.5,5.9,1,11.8,1.5,17.8c-1.8-3.9-3.6-7.9-5.4-11.8c-1.1-10.1-2.2-20.2-3.2-30.4C950.1,345,951.5,343.3,951.1,340.9z
			 M1165.5,497.3c-0.1,0.3-0.1,0.6-0.2,0.9c-0.1-0.6-0.2-1.1-0.3-1.7C1165.2,496.7,1165.3,497,1165.5,497.3z M1350.1,560.2
			c0.1,1.2,0.3,2.4,0.4,3.7c0,0,0,0,0,0.1c-0.3,0.1-0.6,0.2-1,0.3C1349.8,562.9,1350,561.6,1350.1,560.2z M1440.9,526.4
			c0.2-0.1,0.3-0.2,0.4-0.3c-0.1,0.4-0.2,0.8-0.3,1.3C1441,527,1441,526.7,1440.9,526.4z M1492.3,533.5c-0.1-0.5-0.4-1-0.8-1.3
			c-0.3-0.5-0.6-1-0.9-1.5c0.2-0.7,0.3-1.4,0.5-2.2c1.7,0.6,3.8,0.4,5.3-0.3c-0.6,3.2-1.2,6.4-1.7,9.6
			C1493.9,536.3,1493.1,534.9,1492.3,533.5z M1651,185.5c0.2,4.5,0.3,9,0.2,13.5c-0.7-4.4-1.3-8.7-2-13.1
			C1649.8,185.9,1650.4,185.8,1651,185.5z M1539.1-53.2c0-0.1,0.1-0.2,0.1-0.4c0.1,0.4,0.2,0.8,0.3,1.2
			C1539.3-52.6,1539.2-52.9,1539.1-53.2z M895.1,5.9c0,0,0-0.1-0.1-0.1c0,0,0,0,0,0C895.1,5.8,895.1,5.9,895.1,5.9z M740.7,107.5
			c-0.3,2.3-0.7,4.5-1,6.8c-1,0.4-2,0.8-3,1.3c1.1-4.8,2.3-9.7,3.4-14.5C740.2,103.3,740.5,105.4,740.7,107.5z M659.7,35.1
			c-0.5,0.2-1,0.4-1.6,0.6c0.5-4.1,1-8.3,1.5-12.4c0.1,1.3,0.3,2.6,0.4,3.9C659.9,29.8,659.8,32.4,659.7,35.1z M567.9-31.1
			c0.1,0.5,0.4,1,0.8,1.3c0.3,0.5,0.6,1,0.9,1.5c-0.2,0.7-0.3,1.4-0.5,2.2c-1.7-0.6-3.8-0.4-5.3,0.3c0.6-3.2,1.2-6.4,1.7-9.6
			C566.2-33.9,567.1-32.5,567.9-31.1z M562.5-19.4c1.2,1.8,2.4,3.7,3.6,5.5c-1.4,6-2.7,12-4,18.1c0.1-7,0.1-14.1,0.1-21.1
			c0-0.5,0.1-1,0.1-1.5C562.4-18.8,562.5-19.1,562.5-19.4z M453.7,2.5c-0.9-4.1-1.8-8.1-2.7-12.2c1.7-8,3.4-16,5.1-23.9
			c0,0.1,0,0.1,0.1,0.2C455.4-21.5,454.5-9.5,453.7,2.5z M418.3,48.9c-0.1,0.2-0.1,0.3-0.2,0.5c-0.3-1.2-0.7-2.5-1-3.7
			c0.3-1.9,0.6-3.9,0.9-5.8C418.1,42.9,418.2,45.9,418.3,48.9z M409.2,316.8c-0.2-4.5-0.3-9-0.2-13.5c0.7,4.4,1.3,8.7,2,13.1
			C410.4,316.4,409.8,316.6,409.2,316.8z M521.1,555.5c0,0.1-0.1,0.2-0.1,0.4c-0.1-0.4-0.2-0.8-0.3-1.2
			C520.8,555,521,555.3,521.1,555.5z M705.8,511c0.5,1.6,1,3.1,1.5,4.7c-0.6,0-1.1,0-1.7,0.1C705.6,514.2,705.7,512.6,705.8,511z
			 M827.9,474.4c-0.9-8.6-1.9-17.3-2.8-25.9c0.2-2.5,0.3-5.1,0.5-7.6c0.2,0.5,0.3,0.9,0.5,1.4c0.9,5.2,1.7,10.3,2.6,15.5
			C828.4,463.3,828.1,468.9,827.9,474.4z M1002.3,452.8c-1,3.7-2.1,7.3-3.2,11c-3.6-16.5-7-33.1-10.3-49.7
			C993.4,426.9,997.9,439.8,1002.3,452.8z M1006.4,476.6c-0.6,4.1-1.2,8.3-1.7,12.4c-0.3-1.3-0.6-2.6-0.9-3.9
			C1004.6,482.3,1005.5,479.4,1006.4,476.6z M1019.9,521.5c-2.3-4.4-4.6-8.8-6.9-13.2c0.6-4.8,1.2-9.7,1.8-14.5
			C1016.5,503,1018.2,512.3,1019.9,521.5z M1328.9,577.5c0-0.1,0-0.1,0-0.2c0.1,0.9,0.2,1.7,0.3,2.6c-0.1-0.6-0.3-1.2-0.4-1.7
			C1328.9,577.9,1328.9,577.7,1328.9,577.5z M1347.7,579.3c0.3,3.7,0.7,7.3,1.1,11c-0.3,3.6-0.7,7.2-1,10.8
			c-0.5-3.9-0.9-7.7-1.4-11.6C1346.8,586.1,1347.3,582.7,1347.7,579.3z M1405.8,525.8c0.7-6.2,1.5-12.5,2.2-18.7
			c-0.4,9.9-0.7,19.9-0.9,29.8C1406.6,533.2,1406.2,529.5,1405.8,525.8z M1606.4,499.9c0.9,4.1,1.8,8.1,2.7,12.2
			c-1.7,8-3.4,16-5.1,23.9c0-0.1,0-0.1-0.1-0.2C1604.8,523.9,1605.6,511.9,1606.4,499.9z M1641.9,453.4c0.1-0.2,0.1-0.3,0.2-0.5
			c0.3,1.2,0.7,2.5,1,3.7c-0.3,1.9-0.6,3.9-0.9,5.8C1642.1,459.5,1642,456.4,1641.9,453.4z M1549.6-69.5c-0.2,3.8-0.5,7.6-0.7,11.4
			c-1.7-6.1-3.4-12.1-5.1-18.2c0.3-1.7,0.7-3.5,1-5.2C1546.4-77.5,1548-73.5,1549.6-69.5z M1498-66.7c-0.6,0.1-1.2,0.4-1.8,0.7
			c0.3-1.4,0.5-2.7,0.8-4.1c0.2,0.4,0.3,0.8,0.5,1.2C1497.7-68.2,1497.9-67.5,1498-66.7z M826.5,27.1c-1-7.7-2-15.4-3-23.1
			c1.8,3,3.7,5.9,5.5,8.9C828.2,17.5,827.4,22.3,826.5,27.1z M686.9-49.9c-0.1,0.7-0.2,1.4-0.3,2.1c0-0.8,0-1.5,0-2.3
			C686.7-50,686.8-50,686.9-49.9z M428.2-63.7c-0.4,0-0.8,0-1.2,0.1c0.1-1.3,0.2-2.6,0.4-3.9C427.6-66.2,427.9-64.9,428.2-63.7z
			 M465.2,534.9c0-1.1,0.1-2.3,0.1-3.4c0.3,2.5,0.6,5,0.9,7.5c-2.1,0.5-3.7,1.8-3.6,3.8c-0.4-1.3-0.7-2.5-1.1-3.8
			C463.6,538.5,465.2,537.1,465.2,534.9z M510.6,571.8c0.2-3.8,0.5-7.6,0.7-11.4c1.7,6.1,3.4,12.1,5.1,18.2c-0.3,1.7-0.7,3.5-1,5.2
			C513.7,579.8,512.2,575.8,510.6,571.8z M562.1,569.1c0.6-0.1,1.2-0.4,1.8-0.7c-0.3,1.4-0.5,2.7-0.8,4.1c-0.2-0.4-0.3-0.8-0.5-1.2
			C562.4,570.6,562.3,569.9,562.1,569.1z M704.8,536.1c0.2,1.3,0.5,2.7,0.7,4c-0.2-0.8-0.5-1.7-0.7-2.5
			C704.7,537.1,704.8,536.6,704.8,536.1z M826.3,503.5c0.1,0,0.1,0,0.2,0c0,0.2,0,0.4,0,0.6C826.4,503.8,826.4,503.6,826.3,503.5z
			 M1023.7,549.2c0.6,5.7,1.1,11.3,1.7,17c-0.5-1-1.5-1.7-2.7-2.1c-2.6-9.9-5-19.9-7.5-29.8C1018,539.3,1020.8,544.3,1023.7,549.2z
			 M1632,566.1c0.4,0,0.8,0,1.2-0.1c-0.1,1.3-0.2,2.6-0.4,3.9C1632.5,568.6,1632.3,567.3,1632,566.1z M1658,245.5
			c-0.2-0.6-0.5-1.1-0.9-1.6c-0.5-4.1-1-8.2-1.5-12.3c1.3-0.4,2.6-1.1,3.3-2.2c1.4,10.8,2.8,21.6,4.2,32.4
			C1661.4,256.3,1659.7,250.9,1658,245.5z M1589.8-96.5c-0.4-1-0.9-2-1.3-3.1c1.1-2,2.3-3.9,3.5-5.8
			C1591.3-102.4,1590.5-99.4,1589.8-96.5z M1562.6-90.2c0-1.2,0-2.4,0.1-3.6c0.7,1.5,1.3,3,2,4.5
			C1564.1-89.8,1563.4-90.1,1562.6-90.2z M1354.4-8.6c-0.5-1.6-1-3.1-1.5-4.7c0.6,0,1.1,0,1.7-0.1
			C1354.5-11.8,1354.5-10.2,1354.4-8.6z M1136.3-95.8c-0.6-0.7-1.4-1.2-2.3-1.5c-0.4-1.5-0.7-3-1.1-4.6c0.5-0.3,0.9-0.6,1.4-0.9
			C1135-100.4,1135.7-98.1,1136.3-95.8z M984.2-55c-0.2,0.1-0.3,0.3-0.5,0.4c0,0,0-0.1,0-0.1C983.8-54.9,984-55,984.2-55
			C984.1-55.1,984.2-55.1,984.2-55z M917.4-3.1c0.1-2,0.2-4,0.3-6c0.6,1.5,1.2,2.9,1.7,4.4C918.8-4.2,918.1-3.6,917.4-3.1z
			 M843.5-5.5c-0.1-0.3-0.2-0.7-0.3-1c0.2-1.1,0.4-2.2,0.6-3.3C843.7-8.3,843.6-6.9,843.5-5.5z M827.1-9.7c-2.3-3.8-4.6-7.6-7-11.4
			c-0.3-2.4-0.7-4.8-1-7.2c0.3-7,0.6-14,0.9-21c1.5,5,2.9,10.1,4.4,15.1C825.3-26,826.1-17.8,827.1-9.7z M790.9,9.9
			c-0.1,0.6-0.2,1.2-0.3,1.8c-1.4-1-3-1.7-4.6-2.3c0-0.1,0-0.1-0.1-0.2c0.4-12.8,0.8-25.6,1.1-38.4c0.6-0.4,1.2-0.8,1.8-1.2
			C789.5-17,790.2-3.6,790.9,9.9z M736.7,66.9c-0.4,0.2-0.9,0.4-1.3,0.6c0.1-2.4,0.3-4.8,0.4-7.1c0.2,1.2,0.4,2.4,0.6,3.6
			C736.5,64.9,736.6,65.9,736.7,66.9z M416-33.2c0,4.8,0,9.6,0,14.4c-1,0.5-1.7,1.2-2.1,2.2C414.6-22.1,415.3-27.6,416-33.2z
			 M386.2,100c0.1-1,0.2-1.9,0.3-2.9c0.9,3.9,1.7,7.7,2.7,11.6c0.8,8.8,1.6,17.7,2.3,26.5c-1.1,2-1.6,4.3-1.8,6.7
			c-1.9-6-3.8-12-5.7-17.9C384.6,116,385.4,108,386.2,100z M381.1,153.8c1.8,4.9,3.5,9.7,5.3,14.6c0.1,0.2,0.2,0.5,0.3,0.7
			c2.7,9.2,5.2,18.4,7.7,27.7c-1.7-5.6-3.5-11.2-5.2-16.8c-0.7-2.3-3.7-3.3-6.3-3.1c-0.8-5.9-1.5-11.9-2.2-17.8
			C380.9,157.3,381,155.6,381.1,153.8z M402.1,256.9c0.2,0.6,0.5,1.1,0.9,1.6c0.5,4.1,1,8.2,1.5,12.3c-1.3,0.4-2.6,1.1-3.3,2.2
			c-1.4-10.8-2.8-21.6-4.2-32.4C398.7,246.1,400.4,251.5,402.1,256.9z M463.3,544.9c1.8,4.8,3.5,9.5,5.2,14.3
			c0.1,0.6,0.1,1.2,0.2,1.8c-1.5-4.3-3-8.5-4.5-12.8C463.9,547.2,463.6,546.1,463.3,544.9z M481.8,557.6c-0.1,0.8-0.3,1.6-0.4,2.4
			c-0.1-0.1-0.1-0.3-0.2-0.4C481.4,558.9,481.6,558.2,481.8,557.6z M489.1,576.7c0.4,1.1,0.8,2.3,1.3,3.4c-0.4-1-0.9-2-1.3-3
			C489,577,489,576.8,489.1,576.7z M497.5,592.6c0,1.2,0,2.4-0.1,3.6c-0.7-1.5-1.3-3-2-4.5C496.1,592.2,496.8,592.4,497.5,592.6z
			 M824.2,546.6c0-4.7,0-9.4,0-14c0.2,0.7,0.5,1.5,0.7,2.2C824.6,538.7,824.4,542.6,824.2,546.6z M845.2,370.2
			c0-1.1-0.1-2.1-0.1-3.2c0.4,1.1,0.8,2.2,1.1,3.2c-0.1,1.3-0.1,2.5-0.2,3.8C845.8,372.7,845.5,371.4,845.2,370.2z M1042.4,555.1
			c0.5,2.6,1,5.1,1.6,7.7c0.1,0.6,0.3,1.2,0.4,1.8c-0.2,1.4-0.5,2.7-0.7,4.1c-0.4-1.8-0.9-3.6-1.3-5.4
			C1042.4,560.5,1042.4,557.8,1042.4,555.1z M1138.9,466.4c1.8,4.2,3.6,8.3,5.4,12.5c-0.1,0.9-0.1,1.9-0.2,2.8
			c-2-3.9-3.9-7.9-5.9-11.8C1138.5,468.7,1138.7,467.6,1138.9,466.4z M1644.1,535.5c0-4.8,0-9.6,0-14.4c1-0.5,1.7-1.2,2.1-2.2
			C1645.6,524.4,1644.9,530,1644.1,535.5z M1674,402.4c-0.1,1-0.2,1.9-0.3,2.9c-0.9-3.9-1.7-7.7-2.7-11.6
			c-0.8-8.8-1.6-17.7-2.3-26.5c1.1-2,1.6-4.3,1.8-6.7c1.9,6,3.8,12,5.7,17.9C1675.5,386.3,1674.8,394.3,1674,402.4z M1679,348.6
			c-1.8-4.9-3.5-9.7-5.3-14.6c-0.1-0.2-0.2-0.5-0.3-0.7c-2.7-9.2-5.2-18.4-7.7-27.7c1.7,5.6,3.5,11.2,5.2,16.8
			c0.7,2.3,3.7,3.3,6.3,3.1c0.8,5.9,1.5,11.9,2.2,17.8C1679.3,345.1,1679.2,346.8,1679,348.6z M1355.4-35.2c0,0.5,0,1-0.1,1.4
			c-0.2-1.3-0.5-2.7-0.7-4C1354.9-36.9,1355.2-36.1,1355.4-35.2z M1196.2,53.3c-0.1-0.7-0.2-1.3-0.4-2c0.1,0.5,0.3,1,0.4,1.5
			C1196.3,52.9,1196.3,53.1,1196.2,53.3z M929.9-12.8c-0.6,0.5-1.2,0.9-1.8,1.4c-0.6-1.4-1.1-2.8-1.7-4.2c1.5-1,2.9-2,4.4-3
			C930.5-16.7,930.2-14.7,929.9-12.8z M837.3-33.2c-0.8-4.9-1.6-9.8-2.3-14.7c1.2,1.1,3,1.5,4.7,1.2C838.8-42.2,838-37.7,837.3-33.2
			z M787.9-49c-0.1,0.2-0.1,0.5-0.2,0.7c0,0,0,0.1,0,0.1c0-1.3,0.1-2.6,0.1-3.8C787.8-51,787.9-50,787.9-49z M742.4,20.5
			c-0.1-1-0.2-2-0.3-3c0.1,0,0.2,0,0.3-0.1C742.4,18.5,742.4,19.5,742.4,20.5z M652.1-4.7c0.4-9.9,0.7-19.9,0.9-29.8
			c0.4,3.7,0.8,7.4,1.3,11.1C653.6-17.2,652.9-11,652.1-4.7z M570.3-50.7c-0.6-0.8-1.2-1.6-1.9-2.4c0.2-1.1,0.4-2.2,0.5-3.3
			c0.6,0.9,1.2,1.8,1.7,2.7C570.6-52.8,570.4-51.7,570.3-50.7z M531.3-30.1c-0.3,1-0.5,1.9-0.8,2.9c0-1.9,0.1-3.8,0.1-5.8
			c0.1-5.9-10-5.6-10.7,0c-0.5,3.6-0.9,7.3-1.4,10.9c-0.3-1-0.6-2.1-0.9-3.1c2.1-13.9,4.3-27.9,6.6-41.8c1.1,0.4,2.4,0.4,3.6,0.2
			c0.8,11.9,1.9,23.9,3.3,35.8C531.1-30.8,531.2-30.4,531.3-30.1z M473.1-35.3c-1-4.5-1.9-8.9-2.9-13.4c0.6-5.5,1.3-10.9,2-16.4
			c0.9,2.4,1.8,4.8,2.8,7.1C474.4-50.4,473.8-42.8,473.1-35.3z M413.8-15.2C413.8-15.2,413.8-15.2,413.8-15.2
			c0.3,3.4,0.6,6.8,0.8,10.2c-1.4,7.9-2.7,15.9-4,23.8C411.4,7.5,412.4-3.9,413.8-15.2z M386.6,242.8c0.3,2.5,0.6,4.9,0.9,7.4
			c-0.3-1.4-0.6-2.8-0.9-4.2C386.6,245,386.6,243.9,386.6,242.8z M649.8,515c0.1-1.3,0.2-2.5,0.2-3.8c0.4-2.1,0.9-4.2,1.3-6.3
			c0.1,0.3,0.1,0.5,0.2,0.8c0.3,5.9,0.6,11.8,1,17.7c-0.2,0-0.5,0.1-0.7,0.1C651.1,520.6,650.4,517.8,649.8,515z M834.1,594.3
			c-0.3-1.2-1.1-2-2.1-2.5c0.6-9.3,1.2-18.6,1.8-27.9c1.5,4.8,3,9.6,4.5,14.4c0.9,3.8,1.8,7.5,2.6,11.3c-2.2,2-4.3,4-6.5,6
			C834.4,595.2,834.3,594.7,834.1,594.3z M863.9,449.1c0.1,0.7,0.2,1.3,0.4,2c-0.1-0.5-0.3-1-0.4-1.5
			C863.9,449.4,863.9,449.3,863.9,449.1z M916.2,406.9c0-0.1,0-0.1,0-0.2c1-8.8,2-17.5,2.9-26.3c1.4,7.9,2.8,15.9,4.1,23.8
			c1.7,10,3.4,20,5,30.1C924.2,425.2,920.2,416,916.2,406.9z M997.5,505.5c0.8,3.4,1.6,6.8,2.4,10.3c-1.2,0-2.3,0.3-3.3,0.8
			c-0.3-1.9-0.5-3.8-0.8-5.6C996.3,509.1,996.9,507.3,997.5,505.5z M1059.6,575.5c0.2,1.3,0.4,2.6,0.6,3.9c-0.3-1.6-0.6-3.2-1-4.8
			C1059.4,574.9,1059.5,575.2,1059.6,575.5z M1135.2,486.9c0.2,0.4,0.4,0.8,0.6,1.2c-0.2-0.1-0.5-0.2-0.7-0.4
			C1135.1,487.5,1135.1,487.2,1135.2,486.9z M1435.4,580.3c1.3-0.7,2.1-1.9,2-3.5c-0.2-2.3-0.4-4.6-0.6-7c0.5-4,1.1-8,1.6-12
			c1.1,0.2,2.2,0.1,3.2-0.2c0.1,11.7,0.1,23.4,0.2,35c-0.9,3.5-1.8,7.1-2.7,10.6c-1.8-3.5-3.6-7-5.5-10.5
			C1434.2,588.6,1434.8,584.5,1435.4,580.3z M1587,537.6c1,4.5,1.9,8.9,2.9,13.4c-0.6,5.5-1.3,10.9-2,16.4c-0.9-2.4-1.8-4.8-2.8-7.1
			C1585.8,552.8,1586.4,545.2,1587,537.6z M1646.4,517.6C1646.4,517.6,1646.4,517.5,1646.4,517.6c-0.3-3.4-0.6-6.8-0.8-10.2
			c1.4-7.9,2.7-15.9,4-23.8C1648.8,494.9,1647.7,506.3,1646.4,517.6z M1673.6,259.5c-0.3-2.5-0.6-4.9-0.9-7.4
			c0.3,1.4,0.6,2.8,0.9,4.2C1673.5,257.4,1673.5,258.5,1673.6,259.5z M1513.6-118.2c0.2,2.8,0.5,5.7,0.7,8.5c-0.1,0-0.2-0.1-0.3-0.1
			c-1.2-2.8-2.3-5.7-3.4-8.6C1511.5-118.1,1512.6-118,1513.6-118.2z M1172.3-23.6c-0.5-2.4-1-4.8-1.4-7.2c0.4,0.8,0.8,1.6,1.1,2.4
			c0.2,1.5,0.4,3,0.7,4.5C1172.6-23.8,1172.4-23.7,1172.3-23.6z M933.1-32.6c-0.1,0.4-0.1,0.8-0.2,1.2c-3.3,2.3-6.7,4.6-10,6.8
			c-0.1-0.3-0.2-0.5-0.3-0.8c3.5-2.5,6.9-5,10.4-7.5C933-32.8,933.1-32.7,933.1-32.6z M619.2-24c-0.2,0.1-0.3,0.2-0.4,0.3
			c0.1-0.4,0.2-0.8,0.3-1.3C619.2-24.7,619.2-24.3,619.2-24z M477.3-87.5c-0.2,1.9-0.3,3.9-0.5,5.8c-0.7-1.6-1.3-3.2-2-4.8
			c0.5-4.3,1.1-8.5,1.6-12.8c0.4,1.5,0.9,3.1,1.3,4.6C477.7-92.3,477.5-89.9,477.3-87.5z M546.5,620.6c-0.2-2.8-0.5-5.7-0.7-8.5
			c0.1,0,0.2,0.1,0.3,0.1c1.2,2.8,2.3,5.7,3.4,8.6C548.6,620.4,547.6,620.4,546.5,620.6z M768.3,587.1c0.1-1.5,0.3-3,0.4-4.5
			c0.3,0.7,0.6,1.4,0.8,2c0,2.6,0,5.1,0,7.7C769.1,590.6,768.7,588.9,768.3,587.1z M847.5,567.8c-1-3.1-1.9-6.1-2.9-9.2
			c0.9-0.7,1.4-1.7,1.5-3c0.1-6.3,0.2-12.6,0.3-18.9c1.8,9.3,3.6,18.6,5.5,27.9C849.9,565,848.1,566.1,847.5,567.8z M886.3,518.3
			c1,4.9,2,9.9,3,14.8c-0.4-0.8-0.8-1.6-1.1-2.4C887.5,526.6,886.9,522.5,886.3,518.3z M931.9,468c0.8,1.8,1.6,3.6,2.4,5.4
			c0.2,1.5,0.5,3,0.7,4.6C934,474.7,933,471.4,931.9,468z M926.5,361.8c0.7-0.5,1.3-1.1,1.6-1.8c0.5,1.3,1,2.6,1.5,3.8
			c0.9,5.6,1.9,11.3,2.8,16.9c3.4,20,6.9,40,10.6,59.9c1.9,13,3.8,25.9,5.6,38.9c-1.3-2.8-2.6-5.6-3.8-8.4
			C939.1,434.6,933.1,398.2,926.5,361.8z M1582.8,589.9c0.2-1.9,0.3-3.9,0.5-5.8c0.7,1.6,1.3,3.2,2,4.8c-0.5,4.3-1.1,8.5-1.6,12.8
			c-0.4-1.5-0.9-3.1-1.3-4.6C1582.5,594.7,1582.7,592.3,1582.8,589.9z M1596.3-137.7c1.2-1.5,2.4-2.9,3.6-4.4
			c-0.6,3.1-1.2,6.2-1.9,9.4C1597.5-134.4,1596.9-136.1,1596.3-137.7z M1597.1-154.5c0-0.3-0.1-0.5-0.2-0.7c0.5-2.6,1-5.3,1.5-7.9
			c0.2,2.1,0.4,4.2,0.6,6.2C1598.3-156,1597.7-155.3,1597.1-154.5z M1565.9-175.7c0.2-2.9,0.4-5.9,0.6-8.8c0.6,1.7,1.2,3.5,1.8,5.2
			C1567.5-178.1,1566.7-176.9,1565.9-175.7z M1291.9-84.8c-0.2,2.7-0.5,5.5-0.7,8.2c-0.2-0.5-0.4-1.1-0.5-1.6c0-4,0-7.9,0.1-11.9
			C1291.1-88.3,1291.5-86.5,1291.9-84.8z M1131.1-113c-0.3,0.1-0.5,0.3-0.8,0.4c-0.6-2.7-1.3-5.3-1.9-8c0.1-0.1,0.2-0.1,0.3-0.2
			C1129.5-118.2,1130.3-115.6,1131.1-113z M934.7-61.8c-0.1,2.9-0.3,5.8-0.4,8.7c-0.5-1-1-2.1-1.6-3.1c-3.7-7.3-7.4-14.5-11.1-21.8
			c0.4-6.3,0.7-12.6,1.1-18.9C926.6-85.1,930.6-73.4,934.7-61.8z M928.7-41.4c-3.2,2.3-6.3,4.6-9.5,6.9c0.4-7.7,0.9-15.4,1.3-23.1
			C923.2-52.2,926-46.8,928.7-41.4z M866.9,4.4c-0.3,0.3-0.7,0.5-1,0.8c0,0,0,0,0,0c0-4.9-0.1-9.8-0.1-14.7c0.6,1.5,1.2,3.1,1.9,4.6
			C867.4-1.8,867.2,1.3,866.9,4.4z M625.9-37.3c-1-0.5-2.2-0.7-3.4-0.7c0.8-3.1,1.7-6.2,2.5-9.3C625.4-43.9,625.6-40.6,625.9-37.3z
			 M550.5-35.5c0,1.8-0.1,3.5-0.1,5.3c-1.5,8.4-3.1,16.8-4.6,25.1c0.2-8.4,0.4-16.8,0.5-25.2c1.5-7.1,3-14.2,4.5-21.4
			C550.7-46.2,550.6-40.8,550.5-35.5z M401,4.7c-0.5-2.2-1-4.4-1.5-6.5c1.1-4.1,2.3-8.3,3.4-12.4C402.2-8,401.5-1.6,401,4.7z
			 M712.1,616.4c0.5-5.5,0.9-11,1.3-16.4c0.7,2,1.4,4.1,2.1,6.1c-0.2,3.6-0.4,7.2-0.5,10.8c-0.1,2.2-0.2,4.5-0.4,6.7
			c-0.2-0.7-0.4-1.3-0.7-2C713.3,619.9,712.7,618.2,712.1,616.4z M791.4,579.8c-0.2-6.1-0.3-12.2-0.4-18.3c0.6,1.4,1.1,2.9,1.7,4.3
			C792.3,570.5,791.8,575.2,791.4,579.8z M790.7,531.4c0-5.1-0.1-10.2-0.1-15.2c0.2-0.1,0.4-0.1,0.7-0.2c1.5,5.5,3,11,4.5,16.5
			c-0.3,3.2-0.6,6.5-0.9,9.7C793.4,538.6,792,535,790.7,531.4z M803.8,561.7c1.2,4.1,2.3,8.2,3.5,12.4c0,0.2,0,0.4,0,0.5
			c-1.3-3.3-2.5-6.6-3.8-9.8C803.6,563.7,803.7,562.7,803.8,561.7z M858.6,503.9c-0.6-6.8-1.1-13.7-1.5-20.5
			c1.8,4.5,3.6,9.1,5.4,13.6c0.8,2,1.6,4,2.4,6c-1.2,2.6-2.6,5.2-4,7.7C860.2,508.5,859.4,506.2,858.6,503.9z M954.7,540.1
			c-1.5-10.9-3-21.9-4.6-32.8c1.1,2.4,2.3,4.7,3.4,7.1c1.8,12.9,3.6,25.9,5.4,38.8C957.5,548.8,956.1,544.4,954.7,540.1z
			 M1134.5,522.6c0-1-0.1-2-0.1-3.1c2.2,5.7,4.4,11.4,6.6,17.1c-0.2,4.3-0.5,8.6-0.7,12.9C1138.6,540.5,1136.7,531.5,1134.5,522.6z
			 M1153.4,522.3c0.4,0.8,0.9,1.7,1.3,2.5c0.4,3.4,0.9,6.8,1.3,10.2c-0.7-2.6-1.4-5.2-2.2-7.8
			C1153.7,525.6,1153.6,523.9,1153.4,522.3z M1250.5,664.9c0-1.8,0-3.6,0-5.4c0.4-0.4,0.8-0.7,1.2-1.1c0.1,0.6,0.2,1.2,0.4,1.7
			c0.1,3.4,0.1,6.8,0.2,10.2C1251.7,668.5,1251.1,666.7,1250.5,664.9z M1421.3,548.1C1421.3,548.1,1421.3,548.1,1421.3,548.1
			c0,1.2-0.1,2.4-0.1,3.5c-1.4,13.9-2.8,27.7-4.1,41.6c-0.1,0.3-0.1,0.5-0.2,0.8c0.1-8,0.2-15.9,0.3-23.9
			C1418.5,562.8,1419.9,555.5,1421.3,548.1z M1659.2,497.7c0.5,2.2,1,4.4,1.5,6.5c-1.1,4.1-2.3,8.3-3.4,12.4
			C1658,510.3,1658.6,504,1659.2,497.7z M1646.2-31.3c-0.4,0.6-0.9,1.2-1.3,1.8c-1.6-13.6-3.4-27.3-5.3-40.9
			c-0.3-5.2-0.6-10.5-0.9-15.7c1.3-4.8,2.8-9.5,4.2-14.2c1.4,8.7,2.8,17.5,4,26.2C1646.7-59.9,1646.5-45.6,1646.2-31.3z M1201.5-1.6
			c0.6,6.8,1.1,13.7,1.5,20.5c-1.8-4.5-3.6-9.1-5.4-13.6c-0.3-0.8-0.7-1.7-1-2.5c1.4-2.3,2.7-4.6,4-7
			C1200.9-3.3,1201.2-2.4,1201.5-1.6z M1047.6-124c-0.1,0.2-0.3,0.4-0.4,0.6c-2.4,1.6-4.7,3.2-7.1,4.8c1.8-6.7,3.6-13.4,5.3-20.1
			C1046.2-133.8,1046.9-128.9,1047.6-124z M956.8-154.6c-0.6-0.2-1.3-0.3-1.9-0.3c0-0.1,0-0.1-0.1-0.2c-0.5-1.2-1.4-2.1-2.5-2.6
			c1.4-7,2.7-14,4.1-21C956.7-170.7,956.8-162.6,956.8-154.6z M909-113c1.3-5.2,2.5-10.3,3.8-15.5c0,0,0,0.1,0,0.1
			c-1.7,7.9-3.4,15.8-5.1,23.7c-0.9-1.8-1.9-3.5-2.8-5.3C906.8-110.2,908.5-111.2,909-113z M909.8-58.8c-0.3-0.7-0.5-1.4-0.8-2.2
			c0.4-1.9,0.8-3.9,1.3-5.8C910.1-64.1,910-61.4,909.8-58.8z M908.4-33.1c-0.1,2.2-0.3,4.5-0.4,6.7c-0.9,0.7-1.9,1.4-2.8,2.1
			c-0.5-3.9-1-7.9-1.5-11.8c0.4-2,0.9-4,1.3-6C906.1-39.1,907.2-36.1,908.4-33.1z M883.2-62c-0.1-0.2-0.3-0.5-0.4-0.7
			c0-0.3,0.1-0.7,0.1-1C883-63.1,883.1-62.6,883.2-62z M885-23c-0.9-0.2-1.8-0.3-2.7-0.3c-0.1-2.4-0.3-4.8-0.4-7.1
			C882.9-27.9,884-25.4,885-23z M661-80.2c-0.4-0.2-0.7-0.3-1.1-0.5c0.2-0.7,0.4-1.4,0.6-2.1c0.3-0.1,0.6-0.1,0.9-0.2
			C661.2-82,661.1-81.1,661-80.2z M562-81.8c0.1-2.6,0.1-5.3,0.2-7.9c0.3-9.7,0.9-19.4,2.8-28.9c0.3,2.4,0.7,4.9,1,7.3
			C564.7-101.5,563.4-91.6,562-81.8z M376.1,259.8c0.4,1.7,1.8,2.7,3.4,3c0,0.2,0.1,0.4,0.1,0.6c-1.7-0.5-3.5-0.5-4.9,0.3
			c0.1-2.7,0.2-5.5,0.4-8.2C375.4,256.9,375.7,258.3,376.1,259.8z M453.9,562c0.8,1.8,1.6,3.6,2.5,5.4c1.7,6.5,3.5,13,5.2,19.5
			c0.1,0.5,0.3,0.9,0.6,1.2c-0.7,2.6-1.3,5.2-2,7.8c-1.8-5.7-3.7-11.3-5.5-17c-0.2-0.7-0.5-1.5-0.8-2.3
			C453.9,571.8,453.9,566.9,453.9,562z M725.5,634.3c0.3,0.9,0.7,1.8,1,2.7c-0.7,5.5-1.4,11.1-2,16.7c-0.1-0.3-0.2-0.6-0.3-0.9
			C724.6,646.6,725.1,640.5,725.5,634.3z M799.9,601.4c0.9-4.1,1.3-8.3,1.7-12.5c1,2.5,1.9,5,2.9,7.6c0.3,7.2,0.7,14.4,1,21.6
			c0,0.7-0.1,1.5-0.1,2.2c-2.2-5-4.3-10-6.5-15C799.2,604,799.6,602.7,799.9,601.4z M866,582.8c-0.2-0.9-0.4-1.8-0.6-2.7
			c0.9-0.9,1.8-1.7,2.7-2.6c0.4,1.9,0.7,3.8,1.1,5.8C868.3,582.8,867.1,582.7,866,582.8z M863.1,560.7c-0.4,0.3-0.8,0.6-1.2,1
			c-2-10.1-4-20.2-5.9-30.3c0.3,0,0.6,0,0.8-0.1c3.1,9.3,6.3,18.5,9.4,27.8C865,559.4,864,560,863.1,560.7z M871.4,541.7
			c-2.1-6.2-4.2-12.4-6.3-18.6c1.7-2.3,3.3-4.8,4.7-7.2c2.5,9.4,5,18.8,7.5,28.2C876.2,542,873.7,541.3,871.4,541.7z M1336.7,661.6
			c1.3,4.3,2.7,8.6,4,12.9c-0.5,2.6-1.1,5.3-1.6,7.9c-1.3-6.1-2.6-12.2-3.8-18.3C1335.7,663.2,1336.2,662.4,1336.7,661.6z
			 M1497.9,586.1c0.1,0.1,0.1,0.3,0.2,0.4c0,1.9-0.1,3.8-0.1,5.6c-0.3,9.7-0.9,19.4-2.8,28.9c-0.3-2.4-0.7-4.9-1-7.3
			C1495.3,604.5,1496.6,595.3,1497.9,586.1z M1512.1,590.7c0.1,0.5,0.2,1.1,0.3,1.6c-0.2-0.4-0.4-0.9-0.6-1.3
			C1511.9,590.9,1512,590.8,1512.1,590.7z M1684.1,242.6c-0.4-1.7-1.8-2.7-3.4-3c0-0.2-0.1-0.4-0.1-0.6c1.7,0.5,3.5,0.5,4.9-0.3
			c-0.1,2.7-0.2,5.5-0.4,8.2C1684.8,245.5,1684.4,244.1,1684.1,242.6z M1568.8-213.9c0.3-3.1,0.5-6.1,0.8-9.2c0.2,1,0.5,2,0.7,3
			c-0.1,3.2-0.1,6.4-0.1,9.6C1569.7-211.6,1569.2-212.8,1568.8-213.9z M1415.8-95.8c-0.8,11.5-1.5,23.1-2.3,34.6
			c-1.3,0.1-2.6,0.5-3.5,1.4c-0.5-2.3-1.1-4.6-1.6-6.8c-0.4-1.9-2.2-2.9-4.2-3.1c1.5-14.6,3-29.2,4.5-43.8
			C1411.1-107.7,1413.5-101.7,1415.8-95.8z M1232.3,28c0.9,8.6,1.9,17.3,2.8,25.9c-0.2,2.5-0.3,5.1-0.5,7.6
			c-0.2-0.5-0.3-0.9-0.5-1.4c-0.9-5.2-1.7-10.3-2.6-15.5C1231.8,39,1232,33.5,1232.3,28z M904.3-89.1c-0.7,3.2-1.4,6.4-2.1,9.6
			c-1.1-3-2.2-6-3.3-9c-1.6-4.6-3.5-9.3-5.1-14.1c-0.4-2.4-0.8-4.9-1.2-7.3c0.1-0.1,0.3-0.1,0.4-0.2
			C896.9-103.2,900.6-96.2,904.3-89.1z M710-57.8c-0.1-1.2-0.3-2.4-0.4-3.7c-0.1-1-0.2-2-0.4-3c1.1-11.4,2.1-22.8,3.2-34.2
			c0.5,3.9,0.9,7.7,1.4,11.6C712.5-77.3,711.3-67.6,710-57.8z M549.8-89.5c-1.2,0.5-2.1,1.4-2.5,2.8c-0.1,0.2-0.1,0.4-0.2,0.6
			c0.4-10.1,0.6-20.2,0.4-30.3c0.1-2.2,0.3-4.3,0.4-6.5C548.6-111.8,549.3-100.7,549.8-89.5z M454.8,613.4c0.2,0.7,0.5,1.5,0.7,2.2
			c-0.2,0.8-0.4,1.6-0.5,2.4C454.9,616.5,454.9,615,454.8,613.4z M470.4,598.8c0.9,2.1,1.8,4.1,2.7,6.2c-1,5.6-2.1,11.1-3.1,16.7
			c-1-2.7-2.1-5.3-3.1-8C467.9,608.7,469.1,603.8,470.4,598.8z M491.4,716.3c-0.3,3.1-0.5,6.1-0.8,9.2c-0.2-1-0.5-2-0.7-3
			c0.1-3.2,0.1-6.4,0.1-9.6C490.5,714,490.9,715.1,491.4,716.3z M644.3,598.2c0.2-3.2,0.4-6.5,0.6-9.7c1.8-7.1,3.9-14,6.4-20.8
			c0.1,0.4,0.2,0.9,0.3,1.3c0.4,1.9,2.2,2.9,4.2,3.1c-1.5,14.6-3,29.2-4.5,43.8C649,610,646.7,604.1,644.3,598.2z M783.5,627.8
			c-0.1-0.5-0.3-1.1-0.4-1.6c0.2-1.9,0.4-3.8,0.6-5.8c1.1,3,2.2,6,3.3,9C786.1,628.5,784.8,628,783.5,627.8z M869.3,598.8
			c-0.4-1.7-0.7-3.5-1.1-5.2c0.8-1.1,1.6-2.2,2.4-3.4c0.5,2.9,1.1,5.8,1.6,8.7C871.3,598.7,870.3,598.6,869.3,598.8z M1423.5,664.4
			c0.6-4.3,1.2-8.6,1.8-12.6c0.3,1,0.7,2,1,3c-0.9,3.5-1.8,7-2.6,10.5C1423.6,665,1423.5,664.7,1423.5,664.4z M1512.7,618.8
			c-0.1,2.1-0.3,4.3-0.4,6.4c-0.2-2.9-0.4-5.9-0.6-8.8C1512,617.2,1512.4,618,1512.7,618.8z M1502.1-150.5c-0.1,0.6-0.3,1.2-0.4,1.9
			c0-1.1,0.1-2.1,0.1-3.2C1502-151.4,1502.1-150.9,1502.1-150.5z M1480-135.6c-3.1-7.2-6.3-14.5-9.4-21.7c0.2-4.2,0.4-8.5,0.6-12.7
			c0.3-6.9,0.6-13.7,0.9-20.6c3,10.2,6,20.4,9.1,30.7C1480.3-151.8,1479.9-143.7,1480-135.6z M1471.9-128c-0.2,3-0.5,6-0.7,9
			c-0.7-2.9-1.3-5.7-2-8.6c0.1-2,0.2-4,0.3-6C1470.3-131.7,1471.1-129.9,1471.9-128z M1452.4-88.5c-0.4-1.4-0.9-2.8-1.3-4.3
			c0.1-3.4,0.3-6.9,0.4-10.3c0.6,1.5,1.2,3.1,1.8,4.6C1452.9-95.2,1452.7-91.9,1452.4-88.5z M1400.1-134.3c-0.5,4.5-0.9,9-1.4,13.5
			c-0.3-6.2-0.6-12.5-0.8-18.7C1398.6-137.8,1399.4-136.1,1400.1-134.3z M1387-122.3c-0.5-1.3-0.9-2.7-1.4-4
			c0.2-10.7,0.4-21.4,0.5-32.1c0-0.5-0.1-1-0.2-1.5c0.1-1.8,0.3-3.6,0.4-5.5c0.4,14.3,1,28.6,1.6,42.8
			C1387.6-122.4,1387.3-122.3,1387-122.3z M1334.6-132c-0.4-1.1-0.8-2.2-1.2-3.3c0.1-7.2,0.3-14.5,0.4-21.7c0.7,2.2,1.4,4.4,2.1,6.6
			C1335.5-144.3,1335.1-138.1,1334.6-132z M1277.1-123.8c-0.2,1.9-0.4,3.8-0.6,5.8c-1.1-3-2.2-6-3.3-9c0.9,0.9,2.1,1.4,3.4,1.6
			C1276.8-124.9,1276.9-124.3,1277.1-123.8z M1268.7-77.5c0.2,6.1,0.3,12.2,0.4,18.3c-0.6-1.4-1.1-2.9-1.7-4.3
			C1267.9-68.1,1268.3-72.8,1268.7-77.5z M1269.5-29c0,5.1,0.1,10.2,0.1,15.2c-0.2,0.1-0.4,0.1-0.7,0.2c-1.5-5.5-3-11-4.5-16.5
			c0.3-3.2,0.6-6.5,0.9-9.7C1266.7-36.2,1268.1-32.6,1269.5-29z M1256.4-59.3c-1.2-4.1-2.3-8.2-3.5-12.4c0-0.2,0-0.4,0-0.5
			c1.3,3.3,2.5,6.6,3.8,9.8C1256.5-61.3,1256.5-60.3,1256.4-59.3z M1233.8-1.1c-0.1,0-0.1,0-0.2,0c0-0.2,0-0.4,0-0.6
			C1233.7-1.4,1233.8-1.3,1233.8-1.1z M1195-20.7c-1.7,2.3-3.3,4.8-4.7,7.2c-0.8-3-1.6-6-2.4-9c1.8-1.1,3.6-2.2,5.4-3.2
			C1193.9-24,1194.5-22.4,1195-20.7z M931-128.6c-0.3-0.6-0.7-1.2-1-1.8c0.5-1.7,0.9-3.4,1.4-5C931.3-133.2,931.2-130.9,931-128.6z
			 M899.3-120.3c-0.5-1-1.1-2-1.6-3c1.5-6.8,3.2-13.6,4.8-20.3C901.4-135.8,900.3-128,899.3-120.3z M865.3-71c1.5,3.7,3,7.3,4.5,11
			c0.3,5.7,0.5,11.4,0.8,17.1c-0.2,2-0.3,4.1-0.5,6.1c-1.5-2.4-3.1-4.9-4.6-7.3C865.4-53,865.3-62,865.3-71z M736.4-94.3
			c-1.7,0.6-3,1.9-3.2,3.8c-0.6,5.1-1.3,10.2-1.9,15.4c0,0.1,0,0.1,0,0.2c-0.2-1.9-0.5-3.8-0.7-5.7c1.7-24.9,3.3-49.8,5-74.7
			c1.7,13.5,3.5,26.9,5.3,40.4C739.3-108,737.8-101.1,736.4-94.3z M631.4-126.2c-2.2,16.1-4.4,32.2-6.6,48.3c-1.3,0.7-2.1,1.9-2,3.5
			c0.2,2.3,0.4,4.6,0.6,7c-0.5,4-1.1,8-1.6,12c-1.1-0.2-2.2-0.1-3.2,0.2c-0.1-11.7-0.1-23.4-0.2-35c3.9-15.7,7.8-31.3,11.8-47
			c0.9-0.9,1.4-2.2,1-3.8c0,0,0-0.1,0-0.1c2-8.1,4.1-16.2,6.1-24.4C635-148.6,631.8-129.7,631.4-126.2z M384.7,534.1
			c0.3,8.5,0.6,17,0.9,25.5c0.1,1.8,1.2,3.1,2.6,3.7c-0.1,4.2-0.2,8.5-0.3,12.7c0-0.4-0.1-0.8-0.1-1.3c-0.3-3.8-6-5.5-8.9-3.5
			C380.8,558.8,382.7,546.4,384.7,534.1z M558,652.9c0.1-0.6,0.3-1.2,0.4-1.9c0,1.1-0.1,2.1-0.1,3.2
			C558.2,653.8,558.1,653.3,558,652.9z M580.2,637.9c3.1,7.2,6.3,14.5,9.4,21.7c-0.2,4.2-0.4,8.5-0.6,12.7
			c-0.3,6.9-0.6,13.7-0.9,20.6c-3-10.2-6-20.4-9.1-30.7C579.9,654.2,580.2,646.1,580.2,637.9z M588.2,630.4c0.2-3,0.5-6,0.7-9
			c0.7,2.9,1.3,5.7,2,8.6c-0.1,2-0.2,4-0.3,6C589.9,634.1,589.1,632.2,588.2,630.4z M660.1,636.7c0.5-4.5,0.9-9,1.4-13.5
			c0.3,6.2,0.6,12.5,0.8,18.7C661.5,640.2,660.8,638.4,660.1,636.7z M673.2,624.6c0.5,1.3,0.9,2.7,1.4,4
			c-0.2,10.7-0.4,21.4-0.5,32.1c0,0.5,0.1,1,0.2,1.5c-0.1,1.8-0.3,3.6-0.4,5.5c-0.4-14.3-1-28.6-1.6-42.8
			C672.6,624.8,672.9,624.7,673.2,624.6z M926.1,599.6c2.3,9.3,4.5,18.7,6.8,28c-3.1-9.8-6.1-19.6-9.1-29.5
			C924.4,598.8,925.2,599.3,926.1,599.6z M1434.5,691.8c-0.6,6.2-1.2,12.3-1.8,18.5c-0.5-2.3-0.9-4.5-1.4-6.8
			C1432.4,699.6,1433.5,695.7,1434.5,691.8z M1647.9-156.6c-0.8-1.5-2.9-2.2-4.9-2.1c-0.1-0.5-0.2-1-0.3-1.5
			c0.6-10.5,0.9-21.8,3-32.4c1.7,13.9,3.3,27.8,5,41.6C1649.7-152.9,1648.8-154.7,1647.9-156.6z M1499.8-194.5c0,0.1,0,0.2,0.1,0.2
			c0,0-0.1,0-0.1,0C1499.7-194.4,1499.8-194.4,1499.8-194.5z M1455.7-139.2c0.2,0.9,0.4,1.7,0.6,2.6c-0.4,4.6-0.7,9.3-1.1,13.9
			c-0.9-2.2-1.7-4.5-2.6-6.7c0.3-6.3,0.5-12.5,0.8-18.8C1454.1-145,1455-142,1455.7-139.2z M1417.5-129.6
			c-1.5-5.1-2.9-10.2-4.4-15.3c1.4,3.4,2.8,6.7,4.2,10.1C1417.3-133.1,1417.4-131.4,1417.5-129.6z M1310.7-161.7c-2-6-4-12.1-6-18.1
			c2.1,5.2,4.3,10.4,6.3,15.6C1310.9-163.3,1310.8-162.5,1310.7-161.7z M1260.3-99c-0.9,4.1-1.3,8.3-1.7,12.5
			c-3.7-9.7-7.4-19.3-11-29c-4.3-16.3-8.6-32.6-12.9-48.9c8.9,20.5,17.8,41,26.8,61.5C1260.9-101.6,1260.5-100.3,1260.3-99z
			 M1236-44.2c0,4.7,0,9.4,0,14c-0.2-0.7-0.5-1.5-0.7-2.2C1235.5-36.3,1235.7-40.3,1236-44.2z M1185.5-31.8
			c-0.9-3.3-1.8-6.6-2.6-9.9c1.1,2,3.6,2.7,5.9,2.4c0.5,1.6,1.1,3.2,1.6,4.8C1188.7-33.6,1187.1-32.7,1185.5-31.8z M1019.1-177.4
			c-0.4,1.9-0.8,3.7-1.2,5.6c-1-6.7-2-13.3-3.2-20c0.4-1,0.7-2.1,1.1-3.1C1017.4-189.1,1018.5-183.3,1019.1-177.4z M1010.3-123.7
			c-0.7,6.3-1.2,12.7-1.6,19c-0.3,2.3-0.4,4.6-0.4,6.9c0,0.1,0,0.1,0,0.2c-3.3-15.5-6.6-31-10-46.5c1.7-5.4,3.4-10.7,5.2-16.1
			C1005.8-148,1008-135.9,1010.3-123.7z M981.7-125.8c-0.3,1-0.6,2-0.9,3.1c-1.3-3.6-2.6-7.1-3.9-10.6c0.7-2.8,1.4-5.6,2.1-8.5
			C980-136.5,980.9-131.2,981.7-125.8z M971.7-156.2c-1.1-0.1-2.2,0.1-3.2,0.5c0.7-11,1.4-21.9,1.6-32.9c0-0.7,0-1.4,0-2.1
			c1.5,7.7,3,15.5,4.4,23.2C973.6-163.7,972.6-159.9,971.7-156.2z M963.2-225c-1.5-1.2-3.8-1.7-5.7-1.2c0,0-0.1-0.1-0.1-0.1
			c0.8-4.2,1.7-8.3,2.9-12.4C961.2-234.1,962.2-229.5,963.2-225z M825.2-151.4c-0.6-0.8-1.3-1.6-1.9-2.4c0.6-2.3,1.3-4.6,2-6.9
			C825.2-157.6,825.2-154.5,825.2-151.4z M723.5-136.1c-0.1-1.1-0.3-2.1-0.4-3.2c0.2-0.3,0.5-0.7,0.7-1
			C723.7-138.9,723.6-137.5,723.5-136.1z M643.1-67.8c-1.4,7.3-2.8,14.7-4.2,22c0,0,0,0,0,0c0-1.2,0.1-2.4,0.1-3.6
			c1.4-13.9,2.8-27.7,4.1-41.6c0.1-0.3,0.1-0.5,0.2-0.8C643.3-83.7,643.2-75.8,643.1-67.8z M643-201.5c-0.6-0.2-1.2-0.3-1.8-0.4
			c-0.3,0-0.7-0.1-1.1-0.1c1-3.5,2-7,3-10.5C643.1-208.9,643.1-205.2,643-201.5z M505.4-122.6c-0.5,4.4-1,8.9-1.5,13.3
			c-4.9-9.4-8.7-19.4-12-29.5c0-0.4,0.1-0.7,0.1-1.1c0.9-12.1,1.9-24.3,2-36.4c3.3,13.7,6.9,27.4,10.7,41
			C505.1-131.1,505.3-126.8,505.4-122.6z M444.7-149.9c-0.5-0.1-0.9-0.1-1.4-0.1c1-5.3,2-10.5,3.1-15.8
			C445.8-160.5,445.3-155.2,444.7-149.9z M412.3,659c0.8,1.5,2.9,2.2,4.9,2.1c0.1,0.5,0.2,1,0.3,1.5c-0.6,10.5-0.9,21.8-3,32.4
			c-1.7-13.9-3.3-27.8-5-41.6C410.4,655.2,411.3,657.1,412.3,659z M443.6,661.4c0-1.6,0.1-3.2,0.1-4.8c0.1-5.1,0.2-10.1,0.3-15.2
			c0.2-2.1,0.5-4.1,0.7-6.2c0.1,0,0.2,0,0.3,0c0.1,1.6,0.2,3.1,0.3,4.7c0.4,6.1,0.9,12.2,1.5,18.3c-0.2,1.2-0.4,2.5-0.7,3.7
			C445.4,661.7,444.5,661.5,443.6,661.4z M460.5,652.1c-0.1-1.1-0.5-1.9-1.2-2.6c0.9-4.8,1.9-9.6,2.8-14.3c1.1,3.3,2.3,6.6,3.4,10
			c-1.3,6.8-2.5,13.6-3.8,20.3C461.3,661,460.9,656.6,460.5,652.1z M560.4,696.9c0-0.1,0-0.2-0.1-0.2c0,0,0.1,0,0.1,0
			C560.4,696.7,560.4,696.8,560.4,696.9z M604.5,641.5c-0.2-0.9-0.4-1.7-0.6-2.6c0.4-4.6,0.7-9.3,1.1-13.9c0.4,1.2,0.9,2.3,1.3,3.5
			c0.4,2.6,0.7,5.2,1.1,7.9c-0.2,4.7-0.4,9.5-0.6,14.2C606,647.4,605.1,644.3,604.5,641.5z M642.7,632c1.5,5.1,2.9,10.2,4.4,15.3
			c-1.4-3.4-2.8-6.7-4.2-10.1C642.8,635.5,642.7,633.7,642.7,632z M749.5,664.1c2,6,4,12.1,6,18.1c-2.1-5.2-4.3-10.4-6.3-15.6
			C749.3,665.7,749.4,664.9,749.5,664.1z M814.1,634.3c1-0.4,1.8-1.1,2.3-2c3,11.5,6.1,23,9.1,34.5c-4.1-9.5-8.2-18.9-12.3-28.4
			C813.5,637,813.8,635.7,814.1,634.3z M874,608.5c0.1,0.6,0.2,1.1,0.3,1.7c-0.3-0.1-0.5-0.2-0.8-0.2
			C873.7,609.4,873.9,608.9,874,608.5z M1152.5,607.1c1.1,2.2,2.3,4.3,3.5,6.5c1.2,5.8,2.4,11.6,3.8,17.4
			c1.8,11.8,3.6,23.7,5.5,35.5c-5.2-18.2-9.7-36.5-13.6-55.1C1151.9,609.9,1152.2,608.5,1152.5,607.1z M1315.5,670
			c-0.1-3.3-3.6-4.8-6.6-4.2c-0.8-4.3-1.7-8.5-2.7-12.8c1.2,0.3,2.4,0.3,3.4,0c2.8,7.6,5.6,15.1,8.4,22.7c-0.7,1.6-1.4,3.3-2.1,4.9
			C1315.7,677.1,1315.6,673.6,1315.5,670z M1554.8,625c0.5-4.4,1-8.9,1.5-13.3c4.9,9.4,8.7,19.4,12,29.5c0,0.4-0.1,0.7-0.1,1.1
			c-0.9,12.1-1.9,24.3-2,36.4c-3.3-13.7-6.9-27.4-10.7-41C1555,633.5,1554.8,629.2,1554.8,625z M1615.4,652.3
			c0.5,0.1,0.9,0.1,1.4,0.1c-1,5.3-2,10.5-3.1,15.8C1614.3,662.8,1614.9,657.6,1615.4,652.3z M1695.9-20.2c1,17.8,1.8,35.7,2.4,53.5
			c-2.6,0.1-5.1,1.5-5.1,4.3c-0.9,31.9-1.1,63.7-0.8,95.6c-2.1-50-4.3-100-6.4-149.9c-0.1-1.4-0.7-2.4-1.6-3.1
			c2.2-14.4,4.5-28.7,6.7-43.1c2,3.4,2.6,8.3,2.9,11.6C1695-41,1695.4-30.6,1695.9-20.2z M1583.5-265.9c0.4-4.5,0.9-9.1,1.4-13.6
			c3.2,22.2,5.9,44.5,8.3,66.8c-2.1,4-4,8.1-5.7,12.3c-1.2-0.2-2.5-0.2-3.7,0.2c-0.6-6.9-1.5-13.8-2.9-20.6c0.1-3.2,0.2-6.3,0.3-9.5
			C1581.7-242.2,1582.5-254.1,1583.5-265.9z M1415.3-178.1c0.2,0.7,0.4,1.3,0.5,2c0.1,3.8,0.3,7.6,0.4,11.4c-0.6-1.5-1.2-3-1.9-4.5
			C1414.7-172.1,1415-175.1,1415.3-178.1z M1372.3-197.1c-1.4,0.7-2.4,1.9-2.6,3.6c-0.3,4.2-0.6,8.4-0.9,12.6
			c-4.5-16.2-8.5-32.5-12.1-48.9C1362-219,1367.2-208.1,1372.3-197.1z M1356.7-172.3c-1.3,5.5-2.5,11-3.4,16.5
			c-1.7-5.5-3.3-11.1-4.9-16.7c0.1-2.7,0.3-5.3,0.4-8c0.1-2.4-1.7-3.8-3.9-4.2c-4.9-17.4-9.5-34.8-13.9-52.3
			C1339.8-215.5,1348.4-194,1356.7-172.3z M1274.8-247c5.7,11.9,11.2,23.9,16.5,36c-3.5-0.9-8.1,1.1-6.9,5.2
			c2.9,10.3,5.9,20.7,8.8,31c-0.7-1.8-1.3-3.5-2-5.3c-5.3-13.8-10.6-27.5-16-41.2C1274.5-229.9,1274.3-238.5,1274.8-247z
			 M1260.9-163.7c2.2,7.5,4.5,14.9,7,22.3c-2.1-5.6-4.2-11.2-6.3-16.8c-0.6-3-1.2-6-1.9-9C1260.1-166.1,1260.5-164.9,1260.9-163.7z
			 M1246.3-169c1.7,4.3,3.3,8.7,5,13c0.5,2.3,1,4.6,1.4,6.9c-9.5-21.8-18.9-43.5-28.4-65.3C1235.7-202.4,1240.7-183.3,1246.3-169z
			 M1226-91.9c0.3,1.2,1.1,2,2.1,2.5c-0.6,9.3-1.2,18.6-1.8,27.9c-1.5-4.8-3-9.6-4.5-14.4c-7.1-30.3-13.8-60.8-19.9-91.3
			C1210.9-142.4,1218.9-117.3,1226-91.9z M1187.6-112.7c5,24.6,10,49.1,14.8,73.7c-0.8-0.2-1.6-0.3-2.4-0.2
			c-3.5-10.3-7-20.6-10.5-30.8c1.8-0.9,3-2.5,2.6-4.8c-3.8-19.9-7.5-39.9-11.3-59.8C1183-127.4,1185.3-120.1,1187.6-112.7z
			 M1046.5-216.7c3.6,7.8,4.9,17,7,25.3c1,3.9,1.9,7.8,2.8,11.6c-0.6-0.3-1.2-0.6-1.9-0.7c-1.9-3.2-8.3-3.2-9.9,0.8
			c-0.7,1.7-1.5,3.5-2.2,5.2c-1,0.8-1.7,1.8-1.6,3c0,0.2,0.1,0.4,0.1,0.5c-0.6,1.3-1.1,2.7-1.7,4c0-11.8-0.2-23.6-0.7-35.5
			c-0.1-2.7-2.3-4.1-4.7-4.3c0.4-7.3,0.9-14.6,1.3-21.9C1039.8-229.5,1045-219.9,1046.5-216.7z M991.2-190.4
			c0.9-3.6,3.3-18.7,8.6-22.1c0.5,2.2,1,4.5,1.4,6.7c-2.9,0.2-5.6,2.2-5,5.5c1.2,6.3,2.3,12.7,3.5,19c-2,5.6-3.9,11.2-5.8,16.9
			c-0.5-2.3-1-4.6-1.5-6.9c-0.5-2.4-2.9-3.4-5.2-3.2C988.5-179.8,989.8-185.1,991.2-190.4z M944-208.9c-0.7,6.3-1.2,12.6-1.7,18.9
			c0,0.5-0.1,0.9-0.1,1.4c-2.1-0.7-4.7-0.4-6.3,0.9c0.3-2.2,0.6-4.3,0.9-6.5c0.3-2.2-1.3-3.6-3.4-4.1
			C936.8-201.9,940.4-205.4,944-208.9z M809.3-142.2c-0.3,1.7-0.6,3.5-0.9,5.2c0-1.3,0-2.6-0.1-3.9
			C808.6-141.4,809-141.8,809.3-142.2z M778.2-172.4c-0.3,0.5-0.5,1-0.5,1.5c-2.8,23.1-5.5,46.2-8.3,69.4c-0.1-1-0.2-2-0.3-3
			c-0.3-10.2-0.6-20.4-0.8-30.6c-0.1-9.9-0.3-19.9-0.6-29.8c-0.1-5.7-10.8-5.8-10.7,0c0.1,5.3,0.2,10.6,0.3,15.8
			c-2.6-2.5-8.5-3-9.4,1.3c-0.1,0.3-0.1,0.6-0.2,0.8c-0.6-4-1.3-8-1.9-12c-0.6-3.8-5.8-5.1-8.7-3.7c2.7-5.2,5.1-10.4,7.3-15.8
			c0.1,3.6,0.2,7.1,0.3,10.7c0.2,4.8,7.5,5.7,10,2.2c8.9-12.5,17.1-25.5,24.5-38.9C778.8-193.7,778.5-183.1,778.2-172.4z
			 M727.6-211.8c0.3-1.2,0.7-2.9,1.3-4.6c-1.2,18-2.4,36-3.6,54c-1.4,2.5-2.8,5-4.2,7.4c-0.7-5.1-1.3-10.1-2-15.2
			c1.4-6.9,2.8-13.9,4.2-20.8C724.7-197.9,725.9-204.9,727.6-211.8z M660.9-153.9c-0.8,8.2-1.7,16.4-2.5,24.6
			c-1.6,3.8-3,7.8-4.2,11.8c0-4.1,0-8.2-0.1-12.2C656.3-137.8,658.6-145.8,660.9-153.9z M565.6-172.5c-0.4-1.8-0.8-3.5-1.2-5.3
			c0-0.5-0.1-1-0.1-1.5C564.7-177,565.1-174.8,565.6-172.5z M424.6-152.6c-0.8-2.1-1.7-4.3-2.5-6.4c-0.4-1-1.2-1.7-2.3-2.3
			c-1.1-3.5-2.1-7-3.2-10.5c-0.3-4.4-0.6-8.9-0.9-13.3c-0.1-0.9-0.4-1.7-1-2.4c-0.2-4.8-0.4-9.7-0.6-14.5c3.9,12,7.8,24,11.7,36
			C425.5-161.5,425-157,424.6-152.6z M361.8,469.1c2.6-0.1,5.1-1.5,5.1-4.3c0.9-31.9,1.1-63.7,0.8-95.6c2.1,50,4.3,100,6.4,149.9
			c0.1,1.4,0.7,2.4,1.6,3.1c-2.2,14.4-4.5,28.7-6.7,43.1c-2-3.4-2.6-8.3-2.9-11.6c-1-10.3-1.4-20.8-1.9-31.2
			C363.2,504.8,362.4,486.9,361.8,469.1z M372.7,578c1.4,0.1,2.8-0.3,3.8-1c-1.5,7.3-3.1,14.7-4.6,22c0.3-6.7,0.5-13.5,0.8-20.2
			C372.8,578.5,372.8,578.2,372.7,578z M364.9,731.3c0.3-3.7,0.7-7.4,1.1-11.1c0.3,4.2,0.5,8.4,0.8,12.6
			C366.3,732.2,365.7,731.6,364.9,731.3z M476.6,768.3c-0.4,4.5-0.9,9.1-1.4,13.6c-3.8-26.2-6.8-52.6-9.6-78.9
			c2.3-12.6,4.7-25.2,7-37.7c1.1,3.2,2.3,6.5,3.5,9.7c-1.1,16.2-0.1,32.4,3.1,48.3c-0.1,3.2-0.2,6.3-0.3,9.5
			C478.4,744.6,477.7,756.5,476.6,768.3z M644.9,680.5c-0.2-0.7-0.4-1.3-0.5-2c-0.1-3.8-0.3-7.6-0.4-11.4c0.6,1.5,1.2,3,1.9,4.5
			C645.5,674.5,645.2,677.5,644.9,680.5z M687.9,699.5c1.4-0.7,2.4-1.9,2.6-3.6c0.3-4.2,0.6-8.4,0.9-12.6
			c4.5,16.2,8.5,32.5,12.1,48.9C698.1,721.3,693,710.4,687.9,699.5z M703.4,674.7c1.3-5.5,2.5-11,3.4-16.5
			c1.7,5.5,3.3,11.1,4.9,16.7c-0.1,2.7-0.3,5.3-0.4,8c-0.1,2.4,1.7,3.8,3.9,4.2c4.9,17.4,9.5,34.8,13.9,52.3
			C720.4,717.9,711.8,696.3,703.4,674.7z M785.3,749.4c-5.7-11.9-11.2-23.9-16.5-36c3.5,0.9,8.1-1.1,6.9-5.2
			c-2.9-10.3-5.9-20.7-8.8-31c0.7,1.8,1.3,3.5,2,5.3c5.3,13.8,10.6,27.5,16,41.2C785.6,732.3,785.8,740.9,785.3,749.4z M799.2,666.1
			c-2.1-6.9-4.2-13.8-6.5-20.6c0,0,0,0,0.1,0c1.9,5.1,3.8,10.1,5.7,15.2c0.6,3,1.2,6,1.9,9C800,668.4,799.6,667.3,799.2,666.1z
			 M813.9,671.3c-1.7-4.3-3.3-8.7-5-13c-0.3-1.4-0.6-2.8-0.9-4.2c0.1-0.2,0.3-0.4,0.4-0.6c9.2,21.1,18.3,42.1,27.5,63.2
			C824.5,704.8,819.4,685.7,813.9,671.3z M849.4,644.2c1.1,0.7,2.5,1.1,3.8,1c1.7,8.1,3.4,16.3,5,24.5
			C855.2,661.2,852.2,652.7,849.4,644.2z M874.4,620.9c0.5-0.8,1-1.7,1.5-2.6c1.2,6.2,2.3,12.5,3.5,18.7
			C877.7,631.7,876.1,626.3,874.4,620.9z M1013.7,719.1c-3.6-7.8-4.9-17-7-25.3c-1-3.9-1.9-7.8-2.8-11.6c3,1.8,8.4,0.2,8.7-3.7
			c1-0.1,2-0.2,3-0.5c0.4-0.1,0.8-0.2,1.1-0.4c2.9,13.4,5.9,26.7,9.2,40c-0.3,4.4-0.5,8.9-0.8,13.3
			C1020.3,731.9,1015.1,722.3,1013.7,719.1z M1124.6,666.5c1.8,11.2,3.7,22.4,5.5,33.6c-1.2-4.3-2.5-8.6-3.7-12.9
			C1125.8,680.3,1125.2,673.4,1124.6,666.5z M1267.3,734.1c-1-5.9-2.1-11.7-3.3-17.6c0.8-0.7,1.3-1.7,1.3-2.9c0-1.2-0.1-2.4-0.1-3.5
			c1.7,5.7,3.6,11.4,5.4,17.1C1269.4,729.5,1268.3,731.8,1267.3,734.1z M1281.1,702.3c0-0.3,0-0.6,0-1c0.4,0.9,0.9,1.9,1.3,2.8
			c-0.2,0.4-0.4,0.7-0.6,1.1C1281.6,704.2,1281.4,703.2,1281.1,702.3z M1417,714.9c0-3,0-6.1,0.1-9.1c0.5,1.3,0.9,2.6,1.4,4
			C1418,711.5,1417.5,713.2,1417,714.9z M1494.6,674.9c0.4,1.8,0.8,3.5,1.2,5.3c0,0.5,0.1,1,0.1,1.5
			C1495.5,679.4,1495,677.1,1494.6,674.9z M1635.5,655c0.8,2.1,1.7,4.3,2.5,6.4c0.4,1,1.2,1.7,2.3,2.3c1.1,3.5,2.1,7,3.2,10.5
			c0.3,4.4,0.6,8.9,0.9,13.3c0.1,0.9,0.4,1.7,1,2.4c0.2,4.8,0.4,9.7,0.6,14.5c-3.9-12-7.8-24-11.7-36
			C1634.7,663.9,1635.1,659.4,1635.5,655z"/>
		<path id="XMLID_1129_" class="st1" d="M1705.2,281.1c6.7,0,6.8-8.7,0-8.7C1698.5,272.4,1698.5,281.1,1705.2,281.1z"/>
	</g>
</g>
</svg>
