<?xml version="1.0" encoding="utf-8"?>
<!-- Generator: Adobe Illustrator 19.0.0, SVG Export Plug-In . SVG Version: 6.00 Build 0)  -->
<svg version="1.1" id="Layer_1" xmlns="http://www.w3.org/2000/svg" xmlns:xlink="http://www.w3.org/1999/xlink" x="0px" y="0px"
	 viewBox="-79 98 341 306" style="enable-background:new -79 98 341 306;" xml:space="preserve">
<style type="text/css">
	.st0{fill:#0D1F25;}
	.st1{fill:#424242;}
	.st2{fill:#B5BEC8;}
	.st3{fill:#268AAE;}
	.st4{fill:#195B72;}
	.st5{fill:#424243;}
	.st6{opacity:0.64;fill:#FFFFFF;}
	.st7{opacity:0.64;}
</style>
<path id="XMLID_23_" class="st0" d="M-41.9,103.4H-73c-0.8,0-1.4,0.6-1.4,1.4V136c0,0.8,0.6,1.4,1.4,1.4h31.2c0.8,0,1.4-0.6,1.4-1.4
	v-31.2C-40.5,104-41.1,103.4-41.9,103.4z M-49,117.1c0,0.2,0,0.3,0,0.5c0,5.2-3.9,11.2-11.2,11.2c-2.2,0-4.3-0.6-6-1.8
	c0.3,0,0.6,0.1,0.9,0.1c1.8,0,3.5-0.6,4.9-1.7c-1.7,0-3.2-1.2-3.7-2.7c0.2,0,0.5,0.1,0.7,0.1c0.4,0,0.7,0,1-0.1
	c-1.8-0.4-3.1-1.9-3.1-3.8c0,0,0,0,0,0c0.5,0.3,1.1,0.5,1.8,0.5c-1.1-0.7-1.7-1.9-1.7-3.3c0-0.7,0.2-1.4,0.5-2
	c1.9,2.4,4.8,3.9,8.1,4.1c-0.3-1.1,0-2.4,0.7-3.6c2.2-1.9,4.6-1.4,6,0c0.9-0.2,1.7-0.5,2.5-1c-0.3,0.9-0.9,1.7-1.7,2.2
	c0.8-0.1,1.6-0.3,2.3-0.6C-47.6,115.9-48.2,116.6-49,117.1z"/>
<path id="XMLID_22_" class="st0" d="M-41.9,150.4H-73c-0.8,0-1.4,0.6-1.4,1.4V183c0,0.8,0.6,1.4,1.4,1.4h16.7v-13.2h-4.4v-5.1h4.4
	v-3.8c0-4.4,2.7-6.8,6.6-6.8c1.9,0,3.5,0.1,4,0.2v4.6l-2.7,0c-2.1,0-2.5,1-2.5,2.5v3.3h5.1l-0.7,5.1H-51v13.2h9.1
	c0.8,0,1.4-0.6,1.4-1.4v-31.2C-40.5,151-41.1,150.4-41.9,150.4z"/>
<g id="XMLID_15_">
	<path id="XMLID_21_" class="st0" d="M66,111.1c-0.5-0.3-1-0.5-1.6-0.5c-0.8,0-1.5,0.3-2,1c-0.4,0.7-0.7,1.4-0.6,2.2
		c0,1.1,0.3,2.2,0.9,3.3c0.3,0.5,0.7,1,1.2,1.4c0.5,0.4,1,0.6,1.6,0.6c0.8,0,1.4-0.3,1.9-0.8c0.2-0.4,0.4-0.8,0.5-1.2
		c0-0.4,0.1-0.7,0.1-1c0-1.2-0.3-2.3-0.9-3.5C66.8,111.9,66.4,111.4,66,111.1z"/>
	<path id="XMLID_17_" class="st0" d="M84.1,103.4H53c-0.8,0-1.4,0.6-1.4,1.4V136c0,0.8,0.6,1.4,1.4,1.4h31.2c0.8,0,1.4-0.6,1.4-1.4
		v-31.2C85.5,104,84.9,103.4,84.1,103.4z M69.1,111.1c0.2,0.2,0.4,0.5,0.7,0.8c0.2,0.3,0.4,0.7,0.5,1.1c0.1,0.4,0.2,0.9,0.2,1.5
		c0,1.1-0.3,1.9-0.7,2.5c-0.2,0.3-0.5,0.6-0.7,0.8c-0.3,0.3-0.6,0.5-0.9,0.8c-0.2,0.2-0.3,0.4-0.5,0.6c-0.2,0.2-0.3,0.5-0.3,0.8
		c0,0.3,0.1,0.6,0.3,0.8c0.2,0.2,0.3,0.4,0.4,0.5l1,0.8c0.6,0.5,1.2,1.1,1.6,1.7c0.4,0.6,0.7,1.4,0.7,2.4c0,1.4-0.6,2.7-1.9,3.8
		c-1.3,1.1-3.2,1.7-5.6,1.8c-2.1,0-3.6-0.5-4.6-1.3c-1-0.8-1.5-1.8-1.5-2.9c0-0.5,0.2-1.2,0.5-1.8c0.3-0.7,0.9-1.3,1.8-1.8
		c1-0.5,2-0.9,3-1.1c1-0.2,1.9-0.2,2.6-0.3c-0.2-0.3-0.4-0.6-0.6-0.9c-0.2-0.3-0.3-0.7-0.3-1.1c0-0.3,0-0.5,0.1-0.7
		c0.1-0.2,0.1-0.4,0.2-0.5c-0.3,0-0.6,0.1-0.9,0.1c-1.6,0-2.8-0.5-3.6-1.5c-0.9-0.9-1.3-2-1.3-3.2c0-1.4,0.6-2.8,1.8-3.9
		c0.8-0.7,1.7-1.1,2.6-1.4c0.9-0.2,1.7-0.3,2.5-0.3h5.9l-1.8,1.1h-1.8C68.6,110.7,68.8,110.9,69.1,111.1z M81.2,120.5h-3.1v3.1h-1.8
		v-3.1h-3.1v-1.8h3.1v-3.1h1.8v3.1h3.1V120.5z"/>
	<path id="XMLID_16_" class="st0" d="M65.8,123.7c-0.2,0-0.5,0-1.2,0.1c-0.6,0.1-1.2,0.2-1.9,0.4c-0.1,0.1-0.4,0.1-0.6,0.3
		c-0.3,0.1-0.5,0.3-0.8,0.5c-0.3,0.2-0.5,0.5-0.7,0.9c-0.2,0.4-0.3,0.8-0.3,1.4c0,1,0.5,1.9,1.4,2.6c0.9,0.7,2.1,1,3.6,1
		c1.4,0,2.4-0.3,3.2-0.9c0.7-0.6,1.1-1.3,1.1-2.3c0-0.7-0.2-1.4-0.7-2c-0.5-0.5-1.3-1.2-2.4-1.9C66.2,123.7,66,123.7,65.8,123.7z"/>
</g>
<path id="XMLID_12_" class="st0" d="M84.1,150.4H53c-0.8,0-1.4,0.6-1.4,1.4V183c0,0.8,0.6,1.4,1.4,1.4h31.2c0.8,0,1.4-0.6,1.4-1.4
	v-31.2C85.5,151,84.9,150.4,84.1,150.4z M62.9,174l0-13.7l13.2,6.9L62.9,174z"/>
<path id="XMLID_87_" class="st1" d="M22.1,103.4H-9c-0.8,0-1.4,0.6-1.4,1.4V136c0,0.8,0.6,1.4,1.4,1.4h31.2c0.8,0,1.4-0.6,1.4-1.4
	v-31.2C23.5,104,22.9,103.4,22.1,103.4z M15,117.1c0,0.2,0,0.3,0,0.5c0,5.2-3.9,11.2-11.2,11.2c-2.2,0-4.3-0.6-6-1.8
	c0.3,0,0.6,0.1,0.9,0.1c1.8,0,3.5-0.6,4.9-1.7c-1.7,0-3.2-1.2-3.7-2.7c0.2,0,0.5,0.1,0.7,0.1c0.4,0,0.7,0,1-0.1
	c-1.8-0.4-3.1-1.9-3.1-3.8c0,0,0,0,0,0c0.5,0.3,1.1,0.5,1.8,0.5c-1.1-0.7-1.7-1.9-1.7-3.3c0-0.7,0.2-1.4,0.5-2
	c1.9,2.4,4.8,3.9,8.1,4.1c-0.3-1.1,0-2.4,0.7-3.6c2.2-1.9,4.6-1.4,6,0c0.9-0.2,1.7-0.5,2.5-1c-0.3,0.9-0.9,1.7-1.7,2.2
	c0.8-0.1,1.6-0.3,2.3-0.6C16.4,115.9,15.8,116.6,15,117.1z"/>
<path id="XMLID_86_" class="st1" d="M22.1,150.4H-9c-0.8,0-1.4,0.6-1.4,1.4V183c0,0.8,0.6,1.4,1.4,1.4H7.7v-13.2H3.3v-5.1h4.4v-3.8
	c0-4.4,2.7-6.8,6.6-6.8c1.9,0,3.5,0.1,4,0.2v4.6l-2.7,0c-2.1,0-2.5,1-2.5,2.5v3.3h5.1l-0.7,5.1H13v13.2h9.1c0.8,0,1.4-0.6,1.4-1.4
	v-31.2C23.5,151,22.9,150.4,22.1,150.4z"/>
<g id="XMLID_79_">
	<path id="XMLID_85_" class="st1" d="M127,111.1c-0.5-0.3-1-0.5-1.6-0.5c-0.8,0-1.5,0.3-2,1c-0.4,0.7-0.7,1.4-0.6,2.2
		c0,1.1,0.3,2.2,0.9,3.3c0.3,0.5,0.7,1,1.2,1.4c0.5,0.4,1,0.6,1.6,0.6c0.8,0,1.4-0.3,1.9-0.8c0.2-0.4,0.4-0.8,0.5-1.2
		c0-0.4,0.1-0.7,0.1-1c0-1.2-0.3-2.3-0.9-3.5C127.8,111.9,127.4,111.4,127,111.1z"/>
	<path id="XMLID_81_" class="st1" d="M145.1,103.4H114c-0.8,0-1.4,0.6-1.4,1.4V136c0,0.8,0.6,1.4,1.4,1.4h31.2
		c0.8,0,1.4-0.6,1.4-1.4v-31.2C146.5,104,145.9,103.4,145.1,103.4z M130.1,111.1c0.2,0.2,0.4,0.5,0.7,0.8c0.2,0.3,0.4,0.7,0.5,1.1
		c0.1,0.4,0.2,0.9,0.2,1.5c0,1.1-0.3,1.9-0.7,2.5c-0.2,0.3-0.5,0.6-0.7,0.8c-0.3,0.3-0.6,0.5-0.9,0.8c-0.2,0.2-0.3,0.4-0.5,0.6
		c-0.2,0.2-0.3,0.5-0.3,0.8c0,0.3,0.1,0.6,0.3,0.8c0.2,0.2,0.3,0.4,0.4,0.5l1,0.8c0.6,0.5,1.2,1.1,1.6,1.7c0.4,0.6,0.7,1.4,0.7,2.4
		c0,1.4-0.6,2.7-1.9,3.8c-1.3,1.1-3.2,1.7-5.6,1.8c-2.1,0-3.6-0.5-4.6-1.3c-1-0.8-1.5-1.8-1.5-2.9c0-0.5,0.2-1.2,0.5-1.8
		c0.3-0.7,0.9-1.3,1.8-1.8c1-0.5,2-0.9,3-1.1c1-0.2,1.9-0.2,2.6-0.3c-0.2-0.3-0.4-0.6-0.6-0.9c-0.2-0.3-0.3-0.7-0.3-1.1
		c0-0.3,0-0.5,0.1-0.7c0.1-0.2,0.1-0.4,0.2-0.5c-0.3,0-0.6,0.1-0.9,0.1c-1.6,0-2.8-0.5-3.6-1.5c-0.9-0.9-1.3-2-1.3-3.2
		c0-1.4,0.6-2.8,1.8-3.9c0.8-0.7,1.7-1.1,2.6-1.4c0.9-0.2,1.7-0.3,2.5-0.3h5.9l-1.8,1.1h-1.8C129.6,110.7,129.8,110.9,130.1,111.1z
		 M142.2,120.5h-3.1v3.1h-1.8v-3.1h-3.1v-1.8h3.1v-3.1h1.8v3.1h3.1V120.5z"/>
	<path id="XMLID_80_" class="st1" d="M126.8,123.7c-0.2,0-0.5,0-1.2,0.1c-0.6,0.1-1.2,0.2-1.9,0.4c-0.1,0.1-0.4,0.1-0.6,0.3
		c-0.3,0.1-0.5,0.3-0.8,0.5c-0.3,0.2-0.5,0.5-0.7,0.9c-0.2,0.4-0.3,0.8-0.3,1.4c0,1,0.5,1.9,1.4,2.6c0.9,0.7,2.1,1,3.6,1
		c1.4,0,2.4-0.3,3.2-0.9c0.7-0.6,1.1-1.3,1.1-2.3c0-0.7-0.2-1.4-0.7-2c-0.5-0.5-1.3-1.2-2.4-1.9C127.2,123.7,127,123.7,126.8,123.7z
		"/>
</g>
<path id="XMLID_76_" class="st1" d="M145.1,150.4H114c-0.8,0-1.4,0.6-1.4,1.4V183c0,0.8,0.6,1.4,1.4,1.4h31.2c0.8,0,1.4-0.6,1.4-1.4
	v-31.2C146.5,151,145.9,150.4,145.1,150.4z M123.9,174l0-13.7l13.2,6.9L123.9,174z"/>
<path id="XMLID_50_" class="st2" d="M-41.5,210.6c-0.2,0.5-2,2-2.4,2.4s-0.5,0.8-0.6,1.3s0,1.6,0,2.2c0,0.6,0.1,0.9,0.5,1.3
	c0.4,0.4,2.3,2,2.5,2.5c0.2,0.5-2.5,4.8-2.9,4.9c-0.4,0.1-1.7-0.6-2.5-0.8c-0.8-0.2-1.4-0.4-1.8-0.2c-0.4,0.2-1.9,1.1-2.3,1.4
	s-0.6,0.7-0.7,1.1c-0.1,0.4-0.5,2.9-0.9,3.2s-5.4,0.1-5.7,0s-0.7-2.7-0.7-2.7s-0.3-1.1-0.8-1.6s-1-0.7-1.7-1.1
	c-0.7-0.4-1.2-0.4-1.8-0.4c-0.7,0-2.4,0.9-3.1,1c-0.6,0.1-3.2-4.5-2.9-5.2c0.3-0.6,2.4-2.4,2.4-2.4s0.5-0.3,0.5-1.2
	c0-0.8,0-1.3,0-2.1c0-0.8-0.1-0.8-0.5-1.4c-1.4-1.4-1.8-1.2-2.3-2.3c-0.5-1.1,2.2-4.9,2.7-5.1c0.5-0.2,2.7,0.8,2.7,0.8
	s1.2,0.3,1.8,0c0.6-0.3,1.8-1,2.4-1.4c0.5-0.5,0.6-1.1,0.6-1.1s0.6-2.9,1-3.1c0.4-0.3,5.1-0.2,5.3,0c0.2,0.2,0.5,2.1,1,3.4
	c0.2,0.6,0.5,0.9,0.5,0.9l2,1.4c0,0,0.8,0.2,1.4,0.2c0.6,0,1.1-0.3,1.1-0.3s1.8-0.7,2.2-0.7C-44,205.8-41.3,210.1-41.5,210.6z
	 M-50.8,216.5c-0.4-1.9-1.4-3.2-1.8-4c-0.4-0.8-0.4-1.8-0.4-1.8s-1.2,0.5-0.3,2.8c0.8,2.3,0.5,5.1,0.5,5.1s0,0.4-0.4,0.4
	c-0.5,0-0.4-0.7-0.4-0.7s0.1-1.8-0.2-3.1c-0.2-1.3-0.7-2.1-0.7-2.1s-1.7-2.1-2-4.1c-0.2-1.3,0.9-3,0.9-3s-0.4-0.2-1,0.4
	c-2.2,2.7-1,4.7-1,4.7s1.3,2.9,1.4,5.2c0.1,2-0.6,3.4-1.3,3.4c-0.7,0,0.1-1.2,0.2-2.4c0,0,0,0,0-0.1c0,0,0,0,0,0.1
	c0,0,0.1-1.5-0.2-3c-0.2-0.9-0.8-1.7-1-2.4c-0.3-0.9-0.1-2-0.1-2s-0.5,0.5-0.7,1.3c-0.3,1.6,0.9,3.2,0.4,4.6
	c-0.7,1.8-1.1,2.3-1.4,3.2c-0.2,0.9-0.1,1.8,0.2,2.3c0.4,0.6,1.3,0.9,1.3,0.9l3.6,0.1c0,0,1.7,0.4,1.5,1.1c-0.1,0.7-2.2,0.3-2.2,0.3
	l-1.5-0.5c0,0-0.8,0.3,2.2,1.9c1.4,0.5,3,0.1,3.8-1.2c0.7-1.2,0.9-3,0.9-3S-50.3,218.5-50.8,216.5z"/>
<path id="XMLID_34_" class="st2" d="M9,209c-0.1,0.2-0.2,0.4-0.2,0.5c-0.1,0.1-0.2,0.2-0.3,0.3c-0.1,0.1-0.2,0.2-0.3,0.2
	c-0.1,0-0.2,0.1-0.4,0.1c-0.1,0-0.2,0-0.2,0c-0.1,0-0.2,0-0.2-0.1v-0.6c0.1,0,0.1,0,0.2,0.1c0.1,0,0.1,0,0.2,0c0.1,0,0.3,0,0.3-0.1
	c0.1-0.1,0.2-0.2,0.2-0.3l0.3-0.7l-1.6-4.1h0.8l1.2,3.3h0l1.1-3.3h0.7L9,209z M6.1,207.9c-0.2,0.2-0.4,0.3-0.6,0.5
	c-0.2,0.1-0.5,0.2-0.8,0.2c-0.1,0-0.2,0-0.3,0c-0.1,0-0.2-0.1-0.4-0.1c-0.1,0-0.2-0.1-0.3-0.2c-0.1-0.1-0.2-0.2-0.3-0.3h0v0.5H2.7
	v-5.6h0.7v2.1h0c0.1-0.2,0.3-0.4,0.5-0.5c0.2-0.1,0.5-0.2,0.8-0.2c0.3,0,0.6,0.1,0.8,0.2c0.2,0.1,0.4,0.3,0.6,0.5
	c0.2,0.2,0.3,0.4,0.4,0.7c0.1,0.3,0.1,0.5,0.1,0.8c0,0.3,0,0.6-0.1,0.8C6.4,207.5,6.3,207.7,6.1,207.9z M5.8,205.8
	c-0.1-0.2-0.1-0.3-0.2-0.5c-0.1-0.1-0.2-0.3-0.4-0.3c-0.2-0.1-0.3-0.1-0.6-0.1c-0.2,0-0.4,0-0.6,0.1c-0.2,0.1-0.3,0.2-0.4,0.4
	c-0.1,0.1-0.2,0.3-0.2,0.5c0,0.2-0.1,0.4-0.1,0.6c0,0.2,0,0.4,0.1,0.6c0,0.2,0.1,0.4,0.2,0.5c0.1,0.1,0.2,0.3,0.4,0.3
	c0.2,0.1,0.4,0.1,0.6,0.1c0.2,0,0.4,0,0.6-0.1c0.2-0.1,0.3-0.2,0.4-0.4c0.1-0.1,0.2-0.3,0.2-0.5c0-0.2,0.1-0.4,0.1-0.6
	C5.9,206.2,5.9,206,5.8,205.8z M-1.2,207.9L-1.2,207.9c-0.1,0.2-0.3,0.4-0.5,0.5c-0.2,0.1-0.5,0.2-0.8,0.2c-0.3,0-0.6-0.1-0.8-0.2
	c-0.2-0.1-0.4-0.3-0.6-0.5c-0.2-0.2-0.3-0.4-0.4-0.7c-0.1-0.3-0.1-0.5-0.1-0.8c0-0.3,0-0.6,0.1-0.8c0.1-0.3,0.2-0.5,0.3-0.7
	c0.2-0.2,0.4-0.3,0.6-0.5c0.2-0.1,0.5-0.2,0.8-0.2c0.1,0,0.2,0,0.3,0c0.1,0,0.2,0.1,0.4,0.1c0.1,0.1,0.2,0.1,0.3,0.2
	c0.1,0.1,0.2,0.2,0.3,0.3h0v-2.1h0.7v5.6h-0.7V207.9z M-1.3,205.8c0-0.2-0.1-0.4-0.2-0.5c-0.1-0.1-0.2-0.3-0.4-0.3
	c-0.2-0.1-0.4-0.1-0.6-0.1c-0.2,0-0.4,0-0.6,0.1c-0.2,0.1-0.3,0.2-0.4,0.4c-0.1,0.1-0.2,0.3-0.2,0.5c0,0.2-0.1,0.4-0.1,0.6
	c0,0.2,0,0.4,0.1,0.6c0.1,0.2,0.1,0.3,0.2,0.5s0.2,0.3,0.4,0.3c0.2,0.1,0.3,0.1,0.6,0.1c0.2,0,0.4,0,0.6-0.1
	c0.2-0.1,0.3-0.2,0.4-0.4c0.1-0.1,0.2-0.3,0.2-0.5c0-0.2,0.1-0.4,0.1-0.6C-1.2,206.2-1.2,206-1.3,205.8z M-7.9,206.6
	c0,0.2,0,0.3,0.1,0.5c0,0.2,0.1,0.3,0.2,0.4c0.1,0.1,0.2,0.2,0.4,0.3c0.2,0.1,0.4,0.1,0.6,0.1c0.3,0,0.5-0.1,0.7-0.2
	c0.2-0.1,0.3-0.3,0.4-0.6h0.7c-0.1,0.5-0.3,0.8-0.6,1c-0.3,0.2-0.7,0.3-1.2,0.3c-0.3,0-0.6-0.1-0.9-0.2c-0.2-0.1-0.4-0.3-0.6-0.4
	c-0.2-0.2-0.3-0.4-0.4-0.7c-0.1-0.3-0.1-0.6-0.1-0.9c0-0.3,0-0.6,0.1-0.9c0.1-0.3,0.2-0.5,0.4-0.7c0.2-0.2,0.4-0.3,0.6-0.4
	c0.2-0.1,0.5-0.2,0.8-0.2c0.4,0,0.7,0.1,0.9,0.2c0.2,0.2,0.4,0.3,0.6,0.6c0.1,0.2,0.2,0.5,0.3,0.8c0.1,0.3,0.1,0.5,0.1,0.8H-7.9z
	 M-5.7,205.5c-0.1-0.1-0.1-0.3-0.2-0.4c-0.1-0.1-0.2-0.2-0.4-0.2c-0.1-0.1-0.3-0.1-0.5-0.1c-0.2,0-0.3,0-0.5,0.1
	c-0.1,0.1-0.3,0.1-0.4,0.2c-0.1,0.1-0.2,0.2-0.2,0.4c-0.1,0.1-0.1,0.3-0.1,0.4h2.3C-5.6,205.8-5.6,205.7-5.7,205.5z M-9.5,205.1
	c-0.2,0.1-0.3,0.2-0.5,0.3c-0.1,0.1-0.2,0.3-0.3,0.5c-0.1,0.2-0.1,0.4-0.1,0.7v1.8h-0.7v-4.1h0.6v0.9h0c0.2-0.3,0.4-0.6,0.6-0.7
	c0.2-0.2,0.5-0.2,0.9-0.2v0.7C-9.1,205-9.3,205-9.5,205.1z M-14.7,206.6c0,0.2,0,0.3,0.1,0.5c0,0.2,0.1,0.3,0.2,0.4
	c0.1,0.1,0.2,0.2,0.4,0.3c0.2,0.1,0.4,0.1,0.6,0.1c0.3,0,0.5-0.1,0.7-0.2c0.2-0.1,0.3-0.3,0.4-0.6h0.7c-0.1,0.5-0.3,0.8-0.6,1
	c-0.3,0.2-0.7,0.3-1.2,0.3c-0.3,0-0.6-0.1-0.9-0.2c-0.2-0.1-0.4-0.3-0.6-0.4c-0.2-0.2-0.3-0.4-0.4-0.7c-0.1-0.3-0.1-0.6-0.1-0.9
	c0-0.3,0-0.6,0.1-0.9c0.1-0.3,0.2-0.5,0.4-0.7c0.2-0.2,0.4-0.3,0.6-0.4c0.2-0.1,0.5-0.2,0.8-0.2c0.4,0,0.7,0.1,0.9,0.2
	c0.2,0.2,0.4,0.3,0.6,0.6c0.1,0.2,0.2,0.5,0.3,0.8c0.1,0.3,0.1,0.5,0.1,0.8H-14.7z M-12.4,205.5c-0.1-0.1-0.1-0.3-0.2-0.4
	c-0.1-0.1-0.2-0.2-0.4-0.2c-0.1-0.1-0.3-0.1-0.5-0.1c-0.2,0-0.3,0-0.5,0.1c-0.1,0.1-0.3,0.1-0.4,0.2c-0.1,0.1-0.2,0.2-0.2,0.4
	c-0.1,0.1-0.1,0.3-0.1,0.4h2.3C-12.3,205.8-12.4,205.7-12.4,205.5z M-17.8,208.4l-0.8-3.3h0l-0.8,3.3h-0.7l-1.3-4.1h0.7l0.9,3.3h0
	l0.8-3.3h0.7l0.9,3.3h0l0.9-3.3h0.7l-1.3,4.1H-17.8z M-22.5,207.9c-0.2,0.2-0.4,0.3-0.6,0.5c-0.2,0.1-0.5,0.2-0.9,0.2
	c-0.3,0-0.6-0.1-0.9-0.2c-0.2-0.1-0.5-0.3-0.6-0.5c-0.2-0.2-0.3-0.4-0.4-0.7c-0.1-0.3-0.1-0.5-0.1-0.8c0-0.3,0-0.6,0.1-0.8
	c0.1-0.3,0.2-0.5,0.4-0.7c0.2-0.2,0.4-0.3,0.6-0.5c0.2-0.1,0.5-0.2,0.9-0.2c0.3,0,0.6,0.1,0.9,0.2c0.2,0.1,0.5,0.3,0.6,0.5
	c0.2,0.2,0.3,0.4,0.4,0.7c0.1,0.3,0.1,0.5,0.1,0.8c0,0.3,0,0.6-0.1,0.8C-22.2,207.5-22.3,207.7-22.5,207.9z M-22.8,205.7
	c-0.1-0.2-0.2-0.4-0.3-0.5c-0.1-0.1-0.3-0.2-0.4-0.3c-0.2-0.1-0.3-0.1-0.5-0.1c-0.2,0-0.3,0-0.5,0.1c-0.2,0.1-0.3,0.2-0.4,0.3
	c-0.1,0.1-0.2,0.3-0.3,0.5c-0.1,0.2-0.1,0.4-0.1,0.7c0,0.2,0,0.5,0.1,0.7c0.1,0.2,0.2,0.4,0.3,0.5c0.1,0.1,0.3,0.2,0.4,0.3
	c0.2,0.1,0.3,0.1,0.5,0.1c0.2,0,0.3,0,0.5-0.1c0.2-0.1,0.3-0.2,0.4-0.3c0.1-0.1,0.2-0.3,0.3-0.5c0.1-0.2,0.1-0.4,0.1-0.7
	C-22.7,206.1-22.7,205.9-22.8,205.7z M-28.2,206.1H-30v2.3h-0.8v-5.6h2.5c0.6,0,1,0.1,1.3,0.4c0.3,0.3,0.4,0.7,0.4,1.2
	c0,0.5-0.1,0.9-0.4,1.2C-27.2,206-27.7,206.1-28.2,206.1z M-27.6,203.7c-0.2-0.2-0.5-0.3-0.9-0.3H-30v2.1h1.5c0.4,0,0.7-0.1,0.9-0.3
	c0.2-0.2,0.3-0.4,0.3-0.8C-27.3,204.1-27.4,203.9-27.6,203.7z"/>
<path id="XMLID_25_" class="st2" d="M9,224.3v-6.7c0-0.6-0.2-1.1-0.5-1.5c-0.4-0.4-0.8-0.5-1.5-0.5c-0.5,0-0.9,0.1-1.3,0.2
	c-0.4,0.2-0.7,0.4-0.9,0.7c-0.2,0.3-0.4,0.6-0.5,1c-0.1,0.4-0.2,0.8-0.2,1.2v5.6H2.5v-9.9H4v1.6h0c0.7-1.2,1.7-1.8,3.2-1.8
	c0.7,0,1.2,0.1,1.6,0.3c0.4,0.2,0.8,0.4,1.1,0.7c0.3,0.3,0.5,0.7,0.6,1.1c0.1,0.4,0.2,0.9,0.2,1.5v6.5H9z M-2.2,214.4h1.6v9.9h-1.6
	V214.4z M-2.2,210.6h1.6v2h-1.6V210.6z M-7.6,228.1c-0.3,0-0.6,0-0.8-0.1v-1.4c0.1,0,0.1,0,0.2,0c0,0,0.1,0,0.1,0h0.3
	c0.4,0,0.6-0.1,0.7-0.3c0.1-0.2,0.2-0.6,0.2-1.1v-10.9h1.6v11.1c0,0.9-0.2,1.5-0.6,1.9C-6.3,227.9-6.9,228.1-7.6,228.1z M-6.9,210.6
	h1.6v2h-1.6V210.6z M-11.6,223L-11.6,223c-0.3,0.5-0.7,0.9-1.3,1.2c-0.6,0.2-1.2,0.4-1.9,0.4c-0.8,0-1.4-0.1-2-0.4
	c-0.6-0.3-1-0.7-1.4-1.1c-0.4-0.5-0.7-1-0.9-1.6c-0.2-0.6-0.3-1.3-0.3-2c0-0.7,0.1-1.4,0.3-2c0.2-0.6,0.5-1.2,0.8-1.6
	c0.4-0.5,0.8-0.8,1.4-1.1c0.6-0.3,1.2-0.4,2-0.4c0.3,0,0.5,0,0.8,0.1c0.3,0.1,0.6,0.1,0.9,0.3c0.3,0.1,0.6,0.3,0.8,0.5
	c0.3,0.2,0.5,0.4,0.7,0.7h0v-5.1h1.6v13.7h-1.6V223z M-11.7,218c-0.1-0.5-0.3-0.9-0.5-1.2c-0.2-0.3-0.6-0.6-1-0.8
	c-0.4-0.2-0.9-0.3-1.4-0.3c-0.5,0-1,0.1-1.4,0.3c-0.4,0.2-0.7,0.5-0.9,0.9c-0.2,0.4-0.4,0.8-0.5,1.2c-0.1,0.5-0.2,0.9-0.2,1.4
	c0,0.5,0.1,0.9,0.2,1.3c0.1,0.4,0.3,0.8,0.6,1.2c0.2,0.3,0.6,0.6,1,0.8c0.4,0.2,0.8,0.3,1.4,0.3c0.5,0,1-0.1,1.4-0.3
	c0.4-0.2,0.7-0.5,0.9-0.9c0.2-0.4,0.4-0.7,0.5-1.2c0.1-0.4,0.2-0.9,0.2-1.4C-11.5,218.9-11.6,218.4-11.7,218z M-30.7,210.6h9.4v1.5
	h-7.6v4.3h7.1v1.5h-7.1v4.7h7.7v1.5h-9.5V210.6z"/>
<path id="XMLID_138_" class="st1" d="M58.1,210.6c-0.2,0.5-2,2-2.4,2.4c-0.3,0.4-0.5,0.8-0.6,1.3c0,0.6,0,1.6,0,2.2
	c0,0.6,0.1,0.9,0.5,1.3c0.4,0.4,2.3,2,2.5,2.5c0.2,0.5-2.5,4.8-2.9,4.9c-0.4,0.1-1.7-0.6-2.5-0.8c-0.8-0.2-1.4-0.4-1.8-0.2
	c-0.4,0.2-1.9,1.1-2.3,1.4s-0.6,0.7-0.7,1.1c-0.1,0.4-0.5,2.9-0.9,3.2c-0.3,0.3-5.4,0.1-5.7,0c-0.3-0.2-0.7-2.7-0.7-2.7
	s-0.3-1.1-0.8-1.6c-0.6-0.5-1-0.7-1.7-1.1c-0.7-0.4-1.2-0.4-1.8-0.4c-0.7,0-2.4,0.9-3.1,1c-0.6,0.1-3.2-4.5-2.9-5.2
	c0.3-0.6,2.4-2.4,2.4-2.4s0.5-0.3,0.5-1.2c0-0.8,0-1.3,0-2.1c0-0.8-0.1-0.8-0.5-1.4c-1.4-1.4-1.8-1.2-2.3-2.3
	c-0.5-1.1,2.2-4.9,2.7-5.1c0.5-0.2,2.7,0.8,2.7,0.8s1.2,0.3,1.8,0c0.6-0.3,1.8-1,2.4-1.4c0.5-0.5,0.6-1.1,0.6-1.1s0.6-2.9,1-3.1
	s5.1-0.2,5.3,0c0.2,0.2,0.5,2.1,1,3.4c0.2,0.6,0.5,0.9,0.5,0.9l2,1.4c0,0,0.8,0.2,1.4,0.2c0.6,0,1.1-0.3,1.1-0.3s1.8-0.7,2.2-0.7
	C55.7,205.8,58.4,210.1,58.1,210.6z M48.9,216.5c-0.4-1.9-1.4-3.2-1.8-4c-0.4-0.8-0.4-1.8-0.4-1.8s-1.2,0.5-0.3,2.8
	c0.8,2.3,0.5,5.1,0.5,5.1s0,0.4-0.4,0.4s-0.4-0.7-0.4-0.7s0.1-1.8-0.2-3.1c-0.2-1.3-0.7-2.1-0.7-2.1s-1.7-2.1-2-4.1
	c-0.2-1.3,0.9-3,0.9-3s-0.4-0.2-1,0.4c-2.2,2.7-1,4.7-1,4.7s1.3,2.9,1.4,5.2c0.1,2-0.6,3.4-1.3,3.4c-0.7,0,0.1-1.2,0.2-2.4
	c0,0,0,0,0-0.1c0,0,0,0,0,0.1c0,0,0.1-1.5-0.2-3c-0.2-0.9-0.8-1.7-1-2.4c-0.3-0.9-0.1-2-0.1-2s-0.5,0.5-0.7,1.3
	c-0.3,1.6,0.9,3.2,0.4,4.6c-0.7,1.8-1.1,2.3-1.4,3.2s-0.1,1.8,0.2,2.3c0.4,0.6,1.3,0.9,1.3,0.9l3.6,0.1c0,0,1.7,0.4,1.5,1.1
	c-0.1,0.7-2.2,0.3-2.2,0.3l-1.5-0.5c0,0-0.8,0.3,2.2,1.9c1.4,0.5,3,0.1,3.8-1.2c0.7-1.2,0.9-3,0.9-3S49.3,218.5,48.9,216.5z"/>
<path id="XMLID_115_" class="st1" d="M108.6,209c-0.1,0.2-0.2,0.4-0.2,0.5c-0.1,0.1-0.2,0.2-0.3,0.3c-0.1,0.1-0.2,0.2-0.3,0.2
	c-0.1,0-0.2,0.1-0.4,0.1c-0.1,0-0.2,0-0.2,0c-0.1,0-0.2,0-0.2-0.1v-0.6c0.1,0,0.1,0,0.2,0.1c0.1,0,0.1,0,0.2,0c0.1,0,0.3,0,0.3-0.1
	c0.1-0.1,0.2-0.2,0.2-0.3l0.3-0.7l-1.6-4.1h0.8l1.2,3.3h0l1.1-3.3h0.7L108.6,209z M105.8,207.9c-0.2,0.2-0.4,0.3-0.6,0.5
	c-0.2,0.1-0.5,0.2-0.8,0.2c-0.1,0-0.2,0-0.3,0c-0.1,0-0.2-0.1-0.4-0.1c-0.1,0-0.2-0.1-0.3-0.2c-0.1-0.1-0.2-0.2-0.3-0.3h0v0.5h-0.7
	v-5.6h0.7v2.1h0c0.1-0.2,0.3-0.4,0.5-0.5c0.2-0.1,0.5-0.2,0.8-0.2c0.3,0,0.6,0.1,0.8,0.2c0.2,0.1,0.4,0.3,0.6,0.5
	c0.2,0.2,0.3,0.4,0.4,0.7c0.1,0.3,0.1,0.5,0.1,0.8c0,0.3,0,0.6-0.1,0.8C106.1,207.5,105.9,207.7,105.8,207.9z M105.5,205.8
	c-0.1-0.2-0.1-0.3-0.2-0.5s-0.2-0.3-0.4-0.3c-0.2-0.1-0.3-0.1-0.6-0.1c-0.2,0-0.4,0-0.6,0.1c-0.2,0.1-0.3,0.2-0.4,0.4
	c-0.1,0.1-0.2,0.3-0.2,0.5c0,0.2-0.1,0.4-0.1,0.6c0,0.2,0,0.4,0.1,0.6c0,0.2,0.1,0.4,0.2,0.5c0.1,0.1,0.2,0.3,0.4,0.3
	c0.2,0.1,0.4,0.1,0.6,0.1c0.2,0,0.4,0,0.6-0.1c0.2-0.1,0.3-0.2,0.4-0.4c0.1-0.1,0.2-0.3,0.2-0.5c0-0.2,0.1-0.4,0.1-0.6
	C105.5,206.2,105.5,206,105.5,205.8z M98.4,207.9L98.4,207.9c-0.1,0.2-0.3,0.4-0.5,0.5c-0.2,0.1-0.5,0.2-0.8,0.2
	c-0.3,0-0.6-0.1-0.8-0.2c-0.2-0.1-0.4-0.3-0.6-0.5c-0.2-0.2-0.3-0.4-0.4-0.7c-0.1-0.3-0.1-0.5-0.1-0.8c0-0.3,0-0.6,0.1-0.8
	c0.1-0.3,0.2-0.5,0.3-0.7c0.2-0.2,0.4-0.3,0.6-0.5c0.2-0.1,0.5-0.2,0.8-0.2c0.1,0,0.2,0,0.3,0c0.1,0,0.2,0.1,0.4,0.1
	c0.1,0.1,0.2,0.1,0.3,0.2c0.1,0.1,0.2,0.2,0.3,0.3h0v-2.1h0.7v5.6h-0.7V207.9z M98.4,205.8c0-0.2-0.1-0.4-0.2-0.5s-0.2-0.3-0.4-0.3
	c-0.2-0.1-0.4-0.1-0.6-0.1c-0.2,0-0.4,0-0.6,0.1c-0.2,0.1-0.3,0.2-0.4,0.4c-0.1,0.1-0.2,0.3-0.2,0.5c0,0.2-0.1,0.4-0.1,0.6
	c0,0.2,0,0.4,0.1,0.6c0.1,0.2,0.1,0.3,0.2,0.5s0.2,0.3,0.4,0.3c0.2,0.1,0.3,0.1,0.6,0.1c0.2,0,0.4,0,0.6-0.1
	c0.2-0.1,0.3-0.2,0.4-0.4c0.1-0.1,0.2-0.3,0.2-0.5c0-0.2,0.1-0.4,0.1-0.6C98.5,206.2,98.4,206,98.4,205.8z M91.7,206.6
	c0,0.2,0,0.3,0.1,0.5c0,0.2,0.1,0.3,0.2,0.4c0.1,0.1,0.2,0.2,0.4,0.3c0.2,0.1,0.4,0.1,0.6,0.1c0.3,0,0.5-0.1,0.7-0.2
	c0.2-0.1,0.3-0.3,0.4-0.6h0.7c-0.1,0.5-0.3,0.8-0.6,1c-0.3,0.2-0.7,0.3-1.2,0.3c-0.3,0-0.6-0.1-0.9-0.2c-0.2-0.1-0.4-0.3-0.6-0.4
	c-0.2-0.2-0.3-0.4-0.4-0.7c-0.1-0.3-0.1-0.6-0.1-0.9c0-0.3,0-0.6,0.1-0.9c0.1-0.3,0.2-0.5,0.4-0.7c0.2-0.2,0.4-0.3,0.6-0.4
	c0.2-0.1,0.5-0.2,0.8-0.2c0.4,0,0.7,0.1,0.9,0.2c0.2,0.2,0.4,0.3,0.6,0.6c0.1,0.2,0.2,0.5,0.3,0.8c0.1,0.3,0.1,0.5,0.1,0.8H91.7z
	 M93.9,205.5c-0.1-0.1-0.1-0.3-0.2-0.4c-0.1-0.1-0.2-0.2-0.4-0.2c-0.1-0.1-0.3-0.1-0.5-0.1c-0.2,0-0.3,0-0.5,0.1
	c-0.1,0.1-0.3,0.1-0.4,0.2c-0.1,0.1-0.2,0.2-0.2,0.4c-0.1,0.1-0.1,0.3-0.1,0.4H94C94,205.8,94,205.7,93.9,205.5z M90.2,205.1
	c-0.2,0.1-0.3,0.2-0.5,0.3c-0.1,0.1-0.2,0.3-0.3,0.5c-0.1,0.2-0.1,0.4-0.1,0.7v1.8h-0.7v-4.1h0.6v0.9h0c0.2-0.3,0.4-0.6,0.6-0.7
	c0.2-0.2,0.5-0.2,0.9-0.2v0.7C90.6,205,90.3,205,90.2,205.1z M85,206.6c0,0.2,0,0.3,0.1,0.5c0,0.2,0.1,0.3,0.2,0.4
	c0.1,0.1,0.2,0.2,0.4,0.3c0.2,0.1,0.4,0.1,0.6,0.1c0.3,0,0.5-0.1,0.7-0.2c0.2-0.1,0.3-0.3,0.4-0.6H88c-0.1,0.5-0.3,0.8-0.6,1
	c-0.3,0.2-0.7,0.3-1.2,0.3c-0.3,0-0.6-0.1-0.9-0.2c-0.2-0.1-0.4-0.3-0.6-0.4c-0.2-0.2-0.3-0.4-0.4-0.7c-0.1-0.3-0.1-0.6-0.1-0.9
	c0-0.3,0-0.6,0.1-0.9c0.1-0.3,0.2-0.5,0.4-0.7c0.2-0.2,0.4-0.3,0.6-0.4c0.2-0.1,0.5-0.2,0.8-0.2c0.4,0,0.7,0.1,0.9,0.2
	c0.2,0.2,0.4,0.3,0.6,0.6c0.1,0.2,0.2,0.5,0.3,0.8c0.1,0.3,0.1,0.5,0.1,0.8H85z M87.2,205.5c-0.1-0.1-0.1-0.3-0.2-0.4
	c-0.1-0.1-0.2-0.2-0.4-0.2c-0.1-0.1-0.3-0.1-0.5-0.1c-0.2,0-0.3,0-0.5,0.1c-0.1,0.1-0.3,0.1-0.4,0.2c-0.1,0.1-0.2,0.2-0.2,0.4
	c-0.1,0.1-0.1,0.3-0.1,0.4h2.3C87.3,205.8,87.3,205.7,87.2,205.5z M81.8,208.4l-0.8-3.3h0l-0.8,3.3h-0.7l-1.3-4.1h0.7l0.9,3.3h0
	l0.8-3.3h0.7l0.9,3.3h0l0.9-3.3h0.7l-1.3,4.1H81.8z M77.2,207.9c-0.2,0.2-0.4,0.3-0.6,0.5c-0.2,0.1-0.5,0.2-0.9,0.2
	c-0.3,0-0.6-0.1-0.9-0.2c-0.2-0.1-0.5-0.3-0.6-0.5c-0.2-0.2-0.3-0.4-0.4-0.7c-0.1-0.3-0.1-0.5-0.1-0.8c0-0.3,0-0.6,0.1-0.8
	c0.1-0.3,0.2-0.5,0.4-0.7c0.2-0.2,0.4-0.3,0.6-0.5c0.2-0.1,0.5-0.2,0.9-0.2c0.3,0,0.6,0.1,0.9,0.2c0.2,0.1,0.5,0.3,0.6,0.5
	c0.2,0.2,0.3,0.4,0.4,0.7c0.1,0.3,0.1,0.5,0.1,0.8c0,0.3,0,0.6-0.1,0.8C77.5,207.5,77.4,207.7,77.2,207.9z M76.9,205.7
	c-0.1-0.2-0.2-0.4-0.3-0.5c-0.1-0.1-0.3-0.2-0.4-0.3c-0.2-0.1-0.3-0.1-0.5-0.1s-0.3,0-0.5,0.1c-0.2,0.1-0.3,0.2-0.4,0.3
	c-0.1,0.1-0.2,0.3-0.3,0.5c-0.1,0.2-0.1,0.4-0.1,0.7c0,0.2,0,0.5,0.1,0.7c0.1,0.2,0.2,0.4,0.3,0.5c0.1,0.1,0.3,0.2,0.4,0.3
	c0.2,0.1,0.3,0.1,0.5,0.1s0.3,0,0.5-0.1c0.2-0.1,0.3-0.2,0.4-0.3c0.1-0.1,0.2-0.3,0.3-0.5c0.1-0.2,0.1-0.4,0.1-0.7
	C77,206.1,76.9,205.9,76.9,205.7z M71.4,206.1h-1.7v2.3h-0.8v-5.6h2.5c0.6,0,1,0.1,1.3,0.4c0.3,0.3,0.4,0.7,0.4,1.2
	c0,0.5-0.1,0.9-0.4,1.2C72.4,206,72,206.1,71.4,206.1z M72.1,203.7c-0.2-0.2-0.5-0.3-0.9-0.3h-1.5v2.1h1.5c0.4,0,0.7-0.1,0.9-0.3
	c0.2-0.2,0.3-0.4,0.3-0.8C72.4,204.1,72.3,203.9,72.1,203.7z"/>
<path id="XMLID_105_" class="st1" d="M108.7,224.3v-6.7c0-0.6-0.2-1.1-0.5-1.5c-0.4-0.4-0.8-0.5-1.5-0.5c-0.5,0-0.9,0.1-1.3,0.2
	c-0.4,0.2-0.7,0.4-0.9,0.7c-0.2,0.3-0.4,0.6-0.5,1c-0.1,0.4-0.2,0.8-0.2,1.2v5.6h-1.6v-9.9h1.5v1.6h0c0.7-1.2,1.7-1.8,3.2-1.8
	c0.7,0,1.2,0.1,1.6,0.3c0.4,0.2,0.8,0.4,1.1,0.7c0.3,0.3,0.5,0.7,0.6,1.1c0.1,0.4,0.2,0.9,0.2,1.5v6.5H108.7z M97.5,214.4h1.6v9.9
	h-1.6V214.4z M97.5,210.6h1.6v2h-1.6V210.6z M92,228.1c-0.3,0-0.6,0-0.8-0.1v-1.4c0.1,0,0.1,0,0.2,0c0,0,0.1,0,0.1,0h0.3
	c0.4,0,0.6-0.1,0.7-0.3c0.1-0.2,0.2-0.6,0.2-1.1v-10.9h1.6v11.1c0,0.9-0.2,1.5-0.6,1.9C93.3,227.9,92.7,228.1,92,228.1z M92.8,210.6
	h1.6v2h-1.6V210.6z M88.1,223L88.1,223c-0.3,0.5-0.7,0.9-1.3,1.2c-0.6,0.2-1.2,0.4-1.9,0.4c-0.8,0-1.4-0.1-2-0.4
	c-0.6-0.3-1-0.7-1.4-1.1c-0.4-0.5-0.7-1-0.9-1.6c-0.2-0.6-0.3-1.3-0.3-2c0-0.7,0.1-1.4,0.3-2c0.2-0.6,0.5-1.2,0.8-1.6
	c0.4-0.5,0.8-0.8,1.4-1.1c0.6-0.3,1.2-0.4,2-0.4c0.3,0,0.5,0,0.8,0.1c0.3,0.1,0.6,0.1,0.9,0.3c0.3,0.1,0.6,0.3,0.8,0.5
	c0.3,0.2,0.5,0.4,0.7,0.7h0v-5.1h1.6v13.7h-1.6V223z M87.9,218c-0.1-0.5-0.3-0.9-0.5-1.2c-0.2-0.3-0.6-0.6-1-0.8
	c-0.4-0.2-0.9-0.3-1.4-0.3c-0.5,0-1,0.1-1.4,0.3c-0.4,0.2-0.7,0.5-0.9,0.9c-0.2,0.4-0.4,0.8-0.5,1.2c-0.1,0.5-0.2,0.9-0.2,1.4
	c0,0.5,0.1,0.9,0.2,1.3c0.1,0.4,0.3,0.8,0.6,1.2c0.2,0.3,0.6,0.6,1,0.8c0.4,0.2,0.8,0.3,1.4,0.3c0.5,0,1-0.1,1.4-0.3
	c0.4-0.2,0.7-0.5,0.9-0.9c0.2-0.4,0.4-0.7,0.5-1.2c0.1-0.4,0.2-0.9,0.2-1.4C88.1,218.9,88.1,218.4,87.9,218z M68.9,210.6h9.4v1.5
	h-7.6v4.3h7.1v1.5h-7.1v4.7h7.7v1.5h-9.5V210.6z"/>
<g id="XMLID_6_">
	<g>
		<g id="XMLID_73_">
			<path class="st3" d="M207.3,123c-5.4,0-9.8-4.4-9.8-9.8c0-5.4,4.4-9.8,9.8-9.8s9.8,4.4,9.8,9.8C217.1,118.6,212.7,123,207.3,123z
				 M207.3,104.8c-4.7,0-8.5,3.8-8.5,8.5s3.8,8.5,8.5,8.5s8.5-3.8,8.5-8.5S212,104.8,207.3,104.8z"/>
		</g>
		<g id="XMLID_71_">
			<polygon class="st3" points="208.5,116.8 207.7,115.9 207.7,115.6 209.2,114.1 202.6,114.1 202.3,113.8 202.3,112.7 202.6,112.4 
				209.2,112.4 207.7,110.9 207.7,110.5 208.5,109.7 208.9,109.7 212.3,113.1 212.3,113.4 208.9,116.8 			"/>
		</g>
	</g>
</g>
<g id="XMLID_63_">
	<g>
		<g id="XMLID_65_">
			<path class="st4" d="M248.8,123c-5.4,0-9.8-4.4-9.8-9.8c0-5.4,4.4-9.8,9.8-9.8s9.8,4.4,9.8,9.8C258.5,118.6,254.2,123,248.8,123z
				 M248.8,104.8c-4.7,0-8.5,3.8-8.5,8.5s3.8,8.5,8.5,8.5s8.5-3.8,8.5-8.5S253.4,104.8,248.8,104.8z"/>
		</g>
		<g id="XMLID_64_">
			<polygon class="st4" points="250,116.8 249.1,115.9 249.1,115.6 250.6,114.1 244,114.1 243.8,113.8 243.8,112.7 244,112.4 
				250.6,112.4 249.1,110.9 249.1,110.5 250,109.7 250.3,109.7 253.7,113.1 253.7,113.4 250.3,116.8 			"/>
		</g>
	</g>
</g>
<path id="XMLID_1_" d="M214.3,141.2c-0.4-2.5-2.4-4.2-4.6-3.7c-2.2,0.4-4,2.4-3.6,4.9c0.1,0.5,0.3,1.4,0.6,2l-3.9,6.5
	c-0.1,0.2-0.2,0.7-0.2,1l0.3,1.7c0,0.3,0.3,0.5,0.5,0.4l1.2-0.2c0.2-0.1,0.6-0.3,0.7-0.5l1.6-2.8l0,0l1.1-0.2l1.8-3.3
	c0.6,0.1,1.5,0.1,2,0C213.8,146.4,214.7,143.7,214.3,141.2z M212.4,142.5c-0.6,1-1.2,0.3-2.1-0.4c-0.9-0.7-1.6-1.1-1-2.1
	c0.6-1,1.8-1.2,2.6-0.5C212.8,140.2,213,141.5,212.4,142.5z"/>
<path id="XMLID_2_" class="st5" d="M254,141.2c-0.4-2.5-2.4-4.2-4.6-3.7c-2.2,0.4-4,2.4-3.6,4.9c0.1,0.5,0.3,1.4,0.6,2l-3.9,6.5
	c-0.1,0.2-0.2,0.7-0.2,1l0.3,1.7c0,0.3,0.3,0.5,0.5,0.4l1.2-0.2c0.2-0.1,0.6-0.3,0.7-0.5l1.6-2.8l0,0l1.1-0.2l1.8-3.3
	c0.6,0.1,1.5,0.1,2,0C253.4,146.4,254.4,143.7,254,141.2z M252.1,142.5c-0.6,1-1.2,0.3-2.1-0.4c-0.9-0.7-1.6-1.1-1-2.1
	c0.6-1,1.8-1.2,2.6-0.5C252.4,140.2,252.6,141.5,252.1,142.5z"/>
<path id="XMLID_59_" class="st6" d="M-24.9,355.4l0-55.5l55.5,27.8L-24.9,355.4z"/>
<path id="XMLID_55_" class="st7" d="M-3.5,253.7c-40.9,0-74,33.1-74,74s33.1,74,74,74s74-33.1,74-74S37.4,253.7-3.5,253.7z
	 M-24.3,355.4l0-55.5l55.5,27.8L-24.3,355.4z"/>
</svg>
