<?xml version="1.0" encoding="UTF-8"?>
<svg width="251px" height="91px" viewBox="0 0 251 91" version="1.1" xmlns="http://www.w3.org/2000/svg" xmlns:xlink="http://www.w3.org/1999/xlink">
    <!-- Generator: Sketch 42 (36781) - http://www.bohemiancoding.com/sketch -->
    <title>Logo-ICE-EM</title>
    <desc>Created with Sketch.</desc>
    <defs></defs>
    <g id="Logos" stroke="none" stroke-width="1" fill="none" fill-rule="evenodd">
        <g id="Artboard" transform="translate(-250.000000, -339.000000)" fill="#FFFFFF">
            <path d="M250.097291,395.023461 L261.654693,395.023461 L261.654693,340.989145 L250.097291,340.989145 L250.097291,395.023461 Z M316.186646,355.02896 C313.721067,345.61849 307.171873,339.699 295.76857,339.699 C280.589849,339.699 270.034088,349.413034 270.034088,368.006303 C270.034088,386.599572 279.511158,396.313606 293.842336,396.313606 C312.642376,396.313606 316.340745,383.184482 316.803041,380.45241 L306.016132,378.099792 C305.399738,381.818446 302.317764,387.662044 294.612829,387.662044 C287.061994,387.662044 282.207885,381.742555 282.207885,368.006303 C282.207885,354.270051 287.601339,348.350562 295.76857,348.350562 C301.084974,348.350562 304.937442,352.069216 305.476787,357.229796 L316.186646,355.02896 Z M324.566041,395.023461 L360.933332,395.023461 L360.933332,386.371899 L336.123443,386.371899 L336.123443,371.497284 L358.853,371.497284 L358.853,362.845722 L336.123443,362.845722 L336.123443,349.640707 L360.162839,349.640707 L360.162839,340.989145 L324.566041,340.989145 L324.566041,395.023461 Z M366.770099,368.461648 L366.770099,376.20252 L385.724238,376.20252 L385.724238,368.461648 L366.770099,368.461648 Z M393.41019,395.023461 L429.77748,395.023461 L429.77748,386.371899 L404.967591,386.371899 L404.967591,371.497284 L427.697148,371.497284 L427.697148,362.845722 L404.967591,362.845722 L404.967591,349.640707 L429.006987,349.640707 L429.006987,340.989145 L393.41019,340.989145 L393.41019,395.023461 Z M464.7389,395.023461 L473.830723,395.023461 L486.081568,359.734196 C487.314358,356.167324 488.624197,350.930852 488.855345,349.337143 L489.548789,349.337143 C489.47174,351.386198 489.39469,353.28347 489.39469,355.180742 L489.39469,395.023461 L500.0275,395.023461 L500.0275,340.989145 L482.075003,340.989145 L471.904489,371.041939 C470.902848,374.077575 469.824157,378.706919 469.515959,380.45241 L469.053663,380.45241 C468.745466,378.706919 467.666775,374.077575 466.665134,371.041939 L456.49462,340.989145 L438.542123,340.989145 L438.542123,395.023461 L449.174932,395.023461 L449.174932,355.180742 C449.174932,353.28347 449.097883,351.386198 449.020834,349.337143 L449.714278,349.337143 C449.945426,350.930852 451.255265,356.167324 452.488054,359.734196 L464.7389,395.023461 Z M261.797067,429.11937 L265.881799,429.11937 L271.385802,413.264772 C271.939664,411.662264 272.528142,409.309647 272.631991,408.593633 L272.943538,408.593633 C272.908922,409.514222 272.874306,410.36662 272.874306,411.219018 L272.874306,429.11937 L277.651365,429.11937 L277.651365,404.843083 L269.58575,404.843083 L265.016389,418.345062 C264.566376,419.708899 264.081747,421.788749 263.943282,422.572955 L263.735583,422.572955 C263.597118,421.788749 263.112489,419.708899 262.662476,418.345062 L258.093115,404.843083 L250.0275,404.843083 L250.0275,429.11937 L254.804559,429.11937 L254.804559,411.219018 C254.804559,410.36662 254.769943,409.514222 254.735327,408.593633 L255.046874,408.593633 C255.150723,409.309647 255.739201,411.662264 256.293063,413.264772 L261.797067,429.11937 Z M289.167451,419.708899 L296.783053,419.708899 L294.048359,412.071415 C293.667579,411.014442 293.286799,409.786989 293.079101,408.730016 L292.906019,408.730016 C292.732937,409.786989 292.386773,411.048538 292.005993,412.071415 L289.167451,419.708899 Z M280.58259,429.11937 L289.859778,404.843083 L296.471505,404.843083 L305.437146,429.11937 L300.002375,429.11937 L298.029242,423.459449 L287.852028,423.459449 L285.809662,429.11937 L280.58259,429.11937 Z M310.964599,429.11937 L310.964599,408.8664 L304.214406,408.8664 L304.214406,404.843083 L322.907247,404.843083 L322.907247,408.8664 L316.157055,408.8664 L316.157055,429.11937 L310.964599,429.11937 Z M326.04617,429.11937 L331.238626,429.11937 L331.238626,418.276871 L340.792745,418.276871 L340.792745,429.11937 L345.985201,429.11937 L345.985201,404.843083 L340.792745,404.843083 L340.792745,414.389937 L331.238626,414.389937 L331.238626,404.843083 L326.04617,404.843083 L326.04617,429.11937 Z M351.374189,429.11937 L367.713116,429.11937 L367.713116,425.232436 L356.566644,425.232436 L356.566644,418.549638 L366.778474,418.549638 L366.778474,414.662704 L356.566644,414.662704 L356.566644,408.730016 L367.366953,408.730016 L367.366953,404.843083 L351.374189,404.843083 L351.374189,429.11937 Z M384.006261,429.11937 L388.090993,429.11937 L393.594996,413.264772 C394.148858,411.662264 394.737337,409.309647 394.841186,408.593633 L395.152733,408.593633 C395.118117,409.514222 395.0835,410.36662 395.0835,411.219018 L395.0835,429.11937 L399.86056,429.11937 L399.86056,404.843083 L391.794945,404.843083 L387.225584,418.345062 C386.775571,419.708899 386.290942,421.788749 386.152476,422.572955 L385.944778,422.572955 C385.806313,421.788749 385.321683,419.708899 384.87167,418.345062 L380.302309,404.843083 L372.236695,404.843083 L372.236695,429.11937 L377.013754,429.11937 L377.013754,411.219018 C377.013754,410.36662 376.979138,409.514222 376.944521,408.593633 L377.256069,408.593633 C377.359918,409.309647 377.948396,411.662264 378.502258,413.264772 L384.006261,429.11937 Z M411.376645,419.708899 L418.992247,419.708899 L416.257554,412.071415 C415.876774,411.014442 415.495993,409.786989 415.288295,408.730016 L415.115213,408.730016 C414.942132,409.786989 414.595968,411.048538 414.215188,412.071415 L411.376645,419.708899 Z M402.791785,429.11937 L412.068973,404.843083 L418.6807,404.843083 L427.64634,429.11937 L422.21157,429.11937 L420.238437,423.459449 L410.061223,423.459449 L408.018857,429.11937 L402.791785,429.11937 Z M433.173793,429.11937 L433.173793,408.8664 L426.423601,408.8664 L426.423601,404.843083 L445.116442,404.843083 L445.116442,408.8664 L438.366249,408.8664 L438.366249,429.11937 L433.173793,429.11937 Z M448.255365,429.11937 L453.447821,429.11937 L453.447821,404.843083 L448.255365,404.843083 L448.255365,429.11937 Z M478.533524,411.150826 C477.4258,406.922933 474.483409,404.263452 469.360186,404.263452 C462.54076,404.263452 457.798317,408.627729 457.798317,416.981226 C457.798317,425.334724 462.056131,429.699 468.494776,429.699 C476.941171,429.699 478.602757,423.800408 478.810455,422.572955 L473.964163,421.515982 C473.687232,423.186681 472.302577,425.812066 468.84094,425.812066 C465.448536,425.812066 463.267704,423.152586 463.267704,416.981226 C463.267704,410.809867 465.69085,408.150386 469.360186,408.150386 C471.748715,408.150386 473.479534,409.821085 473.721849,412.139607 L478.533524,411.150826 Z M499.499879,409.241455 C498.149841,405.252234 495.172833,404.263452 491.088101,404.263452 C484.441757,404.263452 482.122461,408.11629 482.122461,411.491785 C482.122461,415.344623 485.341783,417.083514 488.561106,418.276871 L491.849661,419.538419 C494.099725,420.390817 494.826669,421.345502 494.826669,422.607051 C494.826669,424.550518 493.234316,425.812066 490.741937,425.812066 C487.557231,425.812066 486.51874,423.8686 486.276425,422.266092 L481.603215,424.004983 C482.157077,426.493985 484.787921,429.699 490.499623,429.699 C496.765186,429.699 500.019125,426.187121 500.019125,422.095612 C500.019125,418.890597 498.322923,417.049418 494.826669,415.61739 L489.426515,413.401156 C487.764929,412.719238 487.314916,412.139607 487.314916,410.912154 C487.314916,409.548318 488.388024,408.014002 491.19195,408.014002 C493.857411,408.014002 494.445889,409.752894 494.792053,410.775771 L499.499879,409.241455 Z" id="Logo-ICE-EM"></path>
        </g>
    </g>
</svg>