<?xml version="1.0" encoding="UTF-8"?>
<svg width="190px" height="50px" viewBox="0 0 190 50" version="1.1" xmlns="http://www.w3.org/2000/svg" xmlns:xlink="http://www.w3.org/1999/xlink">
    <!-- Generator: Sketch 42 (36781) - http://www.bohemiancoding.com/sketch -->
    <title>Logo-Cambridge@2x</title>
    <desc>Created with Sketch.</desc>
    <defs></defs>
    <g id="Logos" stroke="none" stroke-width="1" fill="none" fill-rule="evenodd">
        <g id="Artboard" transform="translate(0.000000, -254.000000)">
            <g id="Logo-Cambridge" transform="translate(0.000000, 254.000000)">
                <rect id="Logo-BG" fill="#323232" x="0" y="0" width="190" height="50"></rect>
                <path d="M37.4987438,16.7134329 L38.3888062,21.3641791 L37.1904215,21.6149254 C36.4632463,18.5223881 33.9152244,16.5223881 30.6865666,16.5223881 C26.7365509,16.5223881 23.7871284,20.1104477 23.7871284,24.9283582 C23.7871284,29.8955223 26.852899,33.5134329 31.0588803,33.5134329 C34.386434,33.5134329 36.7133946,31.5552239 37.5976396,28.0149254 L38.7960243,28.1701492 L38.3015452,32.6656717 C35.2357746,34.3074627 33.0077098,34.958209 30.4306009,34.958209 C24.2467031,34.958209 20.0349044,30.8268657 20.0349044,24.761194 C20.0349044,18.9164179 24.1070855,15.0179104 30.215357,15.0179104 C32.6412135,15.0179104 34.1130161,15.3402985 36.9926298,16.5104477 C37.1031605,16.558209 37.2718651,16.6238806 37.4987438,16.7134329 L37.4987438,16.7134329 L37.4987438,16.7134329 Z M61.2162897,18.3731343 C61.7747603,19.6208956 61.9841868,20.0447761 62.682275,21.4776119 C63.2931021,22.7432836 63.6886854,23.5552239 63.8573901,23.919403 L64.8230787,25.9850746 L65.7713152,27.9492537 L66.102907,28.6477612 C66.6555602,27.561194 66.8475344,27.1552239 67.4118224,25.8835821 L68.4589547,23.5253731 L69.5584436,21.0537313 L70.4601408,18.9641791 L70.7161064,18.3791044 L76.1728288,18.3791044 L76.1728288,19.1134329 C75.765611,19.0358209 75.6667152,19.0238806 75.4398365,19.0238806 C73.9331295,19.0238806 73.6655291,19.5492537 73.6655291,22.5164179 L73.6655291,28.3731343 C73.6655291,31.2089552 73.9854861,31.8716418 75.3816625,31.8716418 C75.6085411,31.8716418 75.9284982,31.8358209 76.2542729,31.7701492 L76.2542729,32.4925373 L68.4065981,32.4925373 L68.4065981,31.7701492 C68.6509289,31.841791 68.8778075,31.8716418 69.0697819,31.8716418 C70.3786972,31.8716418 70.7510108,31.1552239 70.7510108,28.3731343 L70.7510108,21.1492537 C70.50668,21.5074627 70.419419,21.7701492 70.3379753,21.9492537 C70.273984,22.0865671 69.9365747,22.8089552 69.3490171,24.1164179 L68.2553456,26.5462687 L67.0511435,29.3283582 C66.4403164,30.7432836 66.0912723,31.561194 66.0040112,31.7701492 C65.9458372,31.9074627 65.8585762,32.158209 65.7480456,32.402985 L64.8463483,32.402985 L64.538026,31.6985075 C63.4152675,29.1432836 63.2174759,28.7134329 62.3914049,26.9641791 L61.2802812,24.6179104 C60.7043585,23.4 60.3436796,22.6238806 60.1749749,22.2895523 C60.0586269,22.0626866 59.9073744,21.7164179 59.6630436,21.2626866 L59.6630436,28.3671642 L59.6630436,29.0537313 C59.6630436,31.1671642 60.1400705,31.8656717 61.5769686,31.8656717 C61.8096647,31.8656717 61.9260128,31.841791 62.1703436,31.7641791 L62.1703436,32.4865671 L56.1086113,32.4865671 L56.1086113,31.7641791 C56.3529421,31.8298508 56.6089078,31.8716418 56.7659776,31.8716418 C58.1388844,31.8716418 58.4530241,31.2149254 58.4530241,28.3671642 L58.4530241,22.5104477 L58.4530241,21.8238806 C58.4530241,19.561194 58.1388844,19.0238806 56.8125169,19.0238806 C56.5449164,19.0238806 56.4285683,19.0477612 56.1842375,19.1134329 L56.1842375,18.3731343 L61.2162897,18.3731343 L61.2162897,18.3731343 L61.2162897,18.3731343 Z M119.035443,31.7641791 L119.035443,32.4865671 L109.896306,32.4865671 L109.896306,31.7641791 C110.37915,31.8358209 110.646751,31.8656717 110.98416,31.8656717 C112.636302,31.8656717 112.967894,31.2925373 112.967894,28.3671642 L112.967894,22.5104477 C112.967894,19.561194 112.682841,19.0238806 110.995795,19.0238806 C110.611846,19.0238806 110.460594,19.0358209 110.134819,19.1134329 L110.134819,18.3731343 L118.954,18.3731343 L118.954,19.1074627 C118.471156,19.0358209 118.343173,19.0179104 117.918503,19.0179104 C116.208186,19.0179104 115.882412,19.561194 115.882412,22.5044777 L115.882412,28.361194 C115.882412,31.2686567 116.231456,31.8597015 117.883598,31.8597015 C118.244277,31.8656717 118.634042,31.8298508 119.035443,31.7641791 L119.035443,31.7641791 L119.035443,31.7641791 Z M152.345885,18.6895523 L153.038155,22.3014925 L152.002658,22.4925373 C151.124231,19.9492537 149.716419,18.8089552 147.45345,18.8089552 C144.218975,18.8089552 142.078171,21.2746269 142.078171,25 C142.078171,28.9641791 144.445853,31.7820896 147.802494,31.7820896 C148.634382,31.7820896 149.285931,31.6686567 150.013107,31.3641791 L150.013107,27.8776119 L150.013107,27.4597015 C150.013107,26.361194 149.66988,25.9552239 148.704192,25.9552239 C148.593661,25.9552239 148.442408,25.961194 148.221347,25.9791044 L148.075912,25.9910448 L148.075912,25.1791044 L154.952081,25.1791044 L154.952081,25.9910448 L154.731019,25.9791044 L154.445967,25.9552239 L154.352888,25.9492537 C153.107964,25.9492537 152.846181,26.3134329 152.846181,28.0686567 C152.846181,29.0955223 152.875268,30.5701492 152.927625,31.7880597 C152.107371,31.9432836 151.234761,32.1223881 150.530855,32.2835821 C148.477313,32.7492537 147.627972,32.8686567 146.429587,32.8686567 C142.049084,32.8686567 139.076392,29.9014925 139.076392,25.5373134 C139.076392,20.9283582 142.113075,18.0328358 146.941519,18.0328358 C147.755955,18.0328358 148.680922,18.1104477 149.600071,18.2597015 L150.798456,18.4507463 L151.874675,18.6 L152.345885,18.6895523 L152.345885,18.6895523 L152.345885,18.6895523 Z M168.076138,18.3731343 L168.605522,21.4238806 L167.779451,21.5791044 C167.412954,19.7522388 166.586884,19.2626866 163.823618,19.2626866 C163.014999,19.2626866 162.468164,19.3164179 161.583918,19.4955223 L161.583918,24.4328358 L163.99814,24.4328358 C165.353594,24.4328358 165.737543,24.1283582 165.737543,23.0477612 C165.737543,22.8746269 165.731725,22.7731343 165.702638,22.5223881 L166.517075,22.5223881 L166.517075,27.3343283 L165.702638,27.3343283 C165.74336,26.9164179 165.749178,26.8328358 165.749178,26.6716418 C165.749178,25.7343283 165.29542,25.4238806 163.99814,25.4238806 L161.583918,25.4238806 L161.583918,31.238806 L164.13194,31.238806 L164.550793,31.238806 C166.854484,31.238806 167.599111,30.7731343 168.454269,28.7373134 C168.489174,28.6597015 168.541531,28.5462687 168.611339,28.3850746 L169.489767,28.6895523 L168.192486,32.4925373 L155.679256,32.4925373 L155.679256,31.7701492 C156.086474,31.841791 156.423883,31.8716418 156.79038,31.8716418 C158.395982,31.8716418 158.756661,31.2447761 158.756661,28.3731343 L158.756661,22.5164179 C158.756661,19.597015 158.407617,19.0238806 156.72057,19.0238806 C156.354075,19.0238806 156.167918,19.041791 155.84796,19.1134329 L155.84796,18.3731343 L168.076138,18.3731343 L168.076138,18.3731343 L168.076138,18.3731343 Z M47.7199182,17.4597015 L50.2272183,23.9253731 L50.3726533,24.3074627 C52.9090404,30.9223881 53.4733284,31.8776119 54.9393136,31.8776119 C55.119653,31.8776119 55.3872535,31.841791 55.5443233,31.7701492 L55.5443233,32.4925373 L47.9409795,32.4925373 L47.9409795,31.7701492 C48.266754,31.8597015 48.383102,31.8716418 48.6972417,31.8716418 C49.4767735,31.8716418 49.8549046,31.5850746 49.8549046,30.9940298 C49.8549046,30.8268657 49.7967306,30.5761194 49.6862,30.2776119 L48.860129,28.0089552 L44.1654859,28.0089552 L43.5139369,29.7402985 L43.3917715,30.080597 L43.2463364,30.4746269 C43.1997973,30.6358209 43.1648929,30.8208956 43.1648929,30.9701492 C43.1648929,31.5492537 43.6419197,31.8895523 44.456356,31.8895523 C44.7297739,31.8895523 44.8635741,31.8716418 45.2649748,31.7761194 L45.2649748,32.4985075 L39.2090598,32.4985075 L39.2090598,31.7761194 C39.5348343,31.8477612 39.6511824,31.8716418 39.8664262,31.8716418 C40.9717325,31.8716418 41.5069334,31.2746269 42.4202654,29.0119403 L42.7751269,28.1402985 L42.9845534,27.6149254 L47.0916389,17.4716418 L47.7199182,17.4716418 L47.7199182,17.4597015 L47.7199182,17.4597015 Z M46.3702811,21.9731343 L44.5377996,26.9641791 L48.295841,27.0179104 L46.3702811,21.9731343 L46.3702811,21.9731343 L46.3702811,21.9731343 Z M77.8656932,19.1074627 L77.8656932,18.3731343 L82.1822051,18.3731343 L82.7872144,18.3731343 C83.2293373,18.3731343 83.9623297,18.3432836 85.1839839,18.2955223 C85.7773593,18.2716418 86.2311161,18.2537313 86.5452559,18.2537313 C89.0641907,18.2537313 90.5650805,19.3761194 90.5650805,21.2626866 C90.5650805,23.0835821 89.3783305,24.2656717 87.0339178,24.7850746 C89.8088186,24.9940298 91.1177339,26.1164179 91.1177339,28.2955223 C91.1177339,31.0597015 89.0001992,32.5641791 85.0967229,32.5641791 C84.8116703,32.5641791 84.3753653,32.5402985 83.7761729,32.5223881 L82.4323534,32.480597 L81.8506127,32.480597 L77.6213619,32.480597 L77.6213619,31.758209 C78.0285805,31.8298508 78.3543542,31.8597015 78.7266686,31.8597015 C80.3555407,31.8597015 80.6987678,31.2746269 80.6987678,28.361194 L80.6987678,22.5044777 C80.6987678,19.5492537 80.3962627,19.0179104 78.6975814,19.0179104 C78.3485373,19.0179104 78.272911,19.0298508 77.8656932,19.1074627 L77.8656932,19.1074627 L77.8656932,19.1074627 Z M83.4503983,24.4925373 C83.7761729,24.5462687 84.1833907,24.6358209 84.5266178,24.6358209 C86.3998212,24.6358209 87.7843627,23.2567164 87.7843627,21.4597015 C87.7843627,20.0507463 86.5976127,19 85.0094619,19 C84.5324347,19 84.2532,19.0597015 83.4445814,19.3283582 L83.4445814,24.4925373 L83.4503983,24.4925373 L83.4503983,24.4925373 Z M83.4503983,31.4238806 C84.0961297,31.5671642 84.561522,31.6268657 85.1083576,31.6268657 C86.9001178,31.6268657 88.1624932,30.2238806 88.1624932,28.2238806 C88.1624932,26.397015 86.8710305,25.358209 84.5964263,25.358209 C84.2241127,25.358209 84.0146864,25.3820896 83.4503983,25.4835821 L83.4503983,31.4238806 L83.4503983,31.4238806 L83.4503983,31.4238806 Z M93.3981551,19.1074627 L93.3981551,18.3731343 L97.4819712,18.3731343 L97.9531805,18.3731343 L98.988678,18.3253731 L100.047445,18.2835821 C100.949142,18.2537313 101.251647,18.241791 101.484343,18.241791 C104.60247,18.241791 106.138264,19.3701492 106.138264,21.6626866 C106.138264,23.7641791 104.91661,24.9880597 102.548928,25.2686567 C103.927652,26.0149254 104.427948,26.5761194 105.428542,28.4865671 C106.766544,31.0358209 107.522806,31.8179104 108.616477,31.8179104 C108.738643,31.8179104 108.761913,31.8119403 109.244757,31.758209 L109.244757,32.480597 L107.73805,32.480597 L107.295927,32.480597 L106.626926,32.5223881 L106.033551,32.5462687 C104.683914,32.5462687 104.090539,32.1044777 103.212111,30.402985 L102.671093,29.3223881 C101.210925,26.4985075 100.588464,25.919403 98.9712254,25.9014925 L98.9712254,28.361194 C98.9712254,31.2925373 99.250461,31.8597015 100.896786,31.8597015 C101.210925,31.8597015 101.478525,31.8298508 101.798483,31.758209 L101.798483,32.480597 L93.142189,32.480597 L93.142189,31.758209 C93.5494076,31.8298508 93.9042686,31.8597015 94.2300432,31.8597015 C95.73675,31.8597015 96.2195949,31.1850746 96.2195949,29.0477612 L96.2195949,28.361194 L96.2195949,22.5044777 L96.2195949,21.8179104 C96.2195949,19.6746269 95.7600203,19.0179104 94.2649475,19.0179104 C93.9333559,19.0179104 93.7239297,19.041791 93.3981551,19.1074627 L93.3981551,19.1074627 L93.3981551,19.1074627 Z M98.9770432,25.1014925 C99.384261,25.1432836 99.5646008,25.1492537 99.8671051,25.1492537 C102.042814,25.1492537 103.206294,24.0089552 103.206294,21.8895523 C103.206294,20.1343283 102.124258,18.9641791 100.489568,18.9641791 C100.024175,18.9641791 99.4598873,19.0597015 98.9770432,19.2268657 L98.9770432,25.1014925 L98.9770432,25.1014925 L98.9770432,25.1014925 Z M120.571237,19.1074627 L120.571237,18.3731343 L124.870297,18.3731343 L125.376411,18.3731343 L126.365369,18.3253731 L127.540485,18.2835821 C128.35492,18.2597015 128.913392,18.2477612 129.215896,18.2477612 C134.04434,18.2477612 136.592361,20.438806 136.592361,24.5940298 C136.592361,29.4358209 133.253173,32.5641791 128.075686,32.5641791 L126.545708,32.5104477 L125.545116,32.480597 L124.86448,32.480597 L120.402533,32.480597 L120.402533,31.758209 C120.809751,31.8238806 121.199517,31.8597015 121.542743,31.8597015 C123.194886,31.8597015 123.555564,31.2686567 123.555564,28.361194 L123.555564,22.5044777 C123.555564,19.561194 123.218155,19.0179104 121.507839,19.0179104 C121.123891,19.0179104 120.978456,19.0358209 120.571237,19.1074627 L120.571237,19.1074627 L120.571237,19.1074627 Z M126.394457,31.3223881 C127.284519,31.6208956 127.819719,31.7164179 128.564347,31.7164179 C131.583579,31.7164179 133.509138,29.0537313 133.509138,24.8686567 C133.509138,21.202985 131.682475,19.0835821 128.517808,19.0835821 C127.79645,19.0835821 127.203075,19.1850746 126.394457,19.441791 L126.394457,31.3223881 L126.394457,31.3223881 L126.394457,31.3223881 Z" id="Combined-Shape" fill="#F2F2F2"></path>
            </g>
        </g>
    </g>
</svg>