<?xml version="1.0" encoding="UTF-8"?>
<svg width="400px" height="300px" viewBox="0 0 400 300" version="1.1" xmlns="http://www.w3.org/2000/svg" xmlns:xlink="http://www.w3.org/1999/xlink">
    <!-- Generator: Sketch 42 (36781) - http://www.bohemiancoding.com/sketch -->
    <title>sprite</title>
    <desc>Created with Sketch.</desc>
    <defs></defs>
    <g id="Sprite" stroke="none" stroke-width="1" fill="none" fill-rule="evenodd">
        <g id="sprite">
            <g id="Links" transform="translate(0.000000, 126.000000)">
                <path d="M10,20 C4.48979592,20 0,15.5102041 0,10 C0,4.48979592 4.48979592,0 10,0 C15.5102041,0 20,4.48979592 20,10 C19.8979592,15.5102041 15.5102041,20 10,20 Z M10,1.42857143 C5.20408163,1.42857143 1.32653061,5.30612245 1.32653061,10.1020408 C1.32653061,14.8979592 5.20408163,18.7755102 10,18.7755102 C14.7959184,18.7755102 18.6734694,14.8979592 18.6734694,10.1020408 C18.6734694,5.30612245 14.6938776,1.42857143 10,1.42857143 Z M11.2244898,13.6734694 L10.3061224,12.755102 L10.3061224,12.4489796 L11.8367347,10.9183673 L5.10204082,10.9183673 L4.89795918,10.6122449 L4.89795918,9.48979592 L5.10204082,9.18367347 L11.8367347,9.18367347 L10.3061224,7.65306122 L10.3061224,7.24489796 L11.2244898,6.42857143 L11.5306122,6.42857143 L15,9.89795918 L15,10.2040816 L11.5306122,13.6734694 L11.2244898,13.6734694 Z" id="White" fill="#FFFFFF"></path>
                <path d="M45,20 C39.4897959,20 35,15.5102041 35,10 C35,4.48979592 39.4897959,0 45,0 C50.5102041,0 55,4.48979592 55,10 C54.8979592,15.5102041 50.5102041,20 45,20 Z M45,1.42857143 C40.2040816,1.42857143 36.3265306,5.30612245 36.3265306,10.1020408 C36.3265306,14.8979592 40.2040816,18.7755102 45,18.7755102 C49.7959184,18.7755102 53.6734694,14.8979592 53.6734694,10.1020408 C53.6734694,5.30612245 49.6938776,1.42857143 45,1.42857143 Z M46.2244898,13.6734694 L45.3061224,12.755102 L45.3061224,12.4489796 L46.8367347,10.9183673 L40.1020408,10.9183673 L39.8979592,10.6122449 L39.8979592,9.48979592 L40.1020408,9.18367347 L46.8367347,9.18367347 L45.3061224,7.65306122 L45.3061224,7.24489796 L46.2244898,6.42857143 L46.5306122,6.42857143 L50,9.89795918 L50,10.2040816 L46.5306122,13.6734694 L46.2244898,13.6734694 Z" id="White-Copy" fill="#E5E5E5"></path>
            </g>
            <g id="Keys" transform="translate(1.000000, 166.000000)">
                <path d="M46.8963937,3.87553267 C46.4213033,1.31735902 44.0458514,-0.422199058 41.4328543,0.0894356709 C38.8198572,0.498743454 36.6819505,2.54528237 37.1570408,5.10345602 C37.2758134,5.61509075 37.5133586,6.53603326 37.8696764,7.14999493 L33.2375452,13.8012464 C33.1187726,14.0059003 33,14.517535 33,14.8245159 L33.3563178,16.564074 C33.3563178,16.8710548 33.7126356,17.0757087 33.9501808,16.9733817 L35.3754519,16.7687278 C35.6129971,16.6664009 36.0880875,16.461747 36.2068601,16.2570931 L38.1072216,13.3919386 L38.1072216,13.3919386 L39.4137202,13.1872847 L41.5516269,9.81049553 C42.2642625,9.91282247 43.3332158,9.91282247 43.9270788,9.81049553 C46.1837581,9.19653385 47.3714841,6.43370631 46.8963937,3.87553267 L46.8963937,3.87553267 Z M44.6397144,5.20578296 C43.9270788,6.22905242 43.2144432,5.5127638 42.1454899,4.79647518 C41.0765365,4.08018656 40.2451283,3.67087878 40.9577639,2.64760932 C41.6703995,1.62433986 43.0956706,1.41968597 44.0458514,2.13597459 C44.9960322,2.85226321 45.2335774,4.1825135 44.6397144,5.20578296 L44.6397144,5.20578296 Z" id="Light" fill="#E5E5E5"></path>
                <path d="M13.8963937,3.87553267 C13.4213033,1.31735902 11.0458514,-0.422199058 8.43285429,0.0894356709 C5.81985719,0.498743454 3.68195047,2.54528237 4.15704085,5.10345602 C4.27581344,5.61509075 4.51335863,6.53603326 4.86967642,7.14999493 L0.237545191,13.8012464 C0.118772596,14.0059003 0,14.517535 0,14.8245159 L0.356317787,16.564074 C0.356317787,16.8710548 0.712635574,17.0757087 0.950180765,16.9733817 L2.37545191,16.7687278 C2.6129971,16.6664009 3.08808749,16.461747 3.20686008,16.2570931 L5.10722161,13.3919386 L5.10722161,13.3919386 L6.41372017,13.1872847 L8.55162689,9.81049553 C9.26426246,9.91282247 10.3332158,9.91282247 10.9270788,9.81049553 C13.1837581,9.19653385 14.3714841,6.43370631 13.8963937,3.87553267 L13.8963937,3.87553267 Z M11.6397144,5.20578296 C10.9270788,6.22905242 10.2144432,5.5127638 9.14548987,4.79647518 C8.0765365,4.08018656 7.24512834,3.67087878 7.95776391,2.64760932 C8.67039948,1.62433986 10.0956706,1.41968597 11.0458514,2.13597459 C11.9960322,2.85226321 12.2335774,4.1825135 11.6397144,5.20578296 L11.6397144,5.20578296 Z" id="White" fill="#FFFFFF"></path>
            </g>
            <g id="Icons" fill="#323232">
                <path d="M80,0 C68.999039,0 60,9.00005058 60,20 C60,31.000961 68.999039,40 80,40 C90.9999494,40 100,31.000961 100,20 C99.9989884,9.00207374 90.9999494,0 80,0 L80,0 Z M91.8972232,13.9031915 L91.8972232,14.7003186 C91.8972232,22.804107 85.6982449,32.2047443 74.3968439,32.2047443 C70.896768,32.2047443 67.6961206,31.2032775 64.9962066,29.4016489 C65.4959284,29.5028071 65.9946386,29.5028071 66.4943604,29.5028071 C69.3945678,29.5028071 71.9953467,28.5053867 74.0974154,26.905063 C71.3964898,26.905063 69.0981741,25.1034343 68.3961358,22.6038137 C68.7967225,22.7049719 69.195286,22.7049719 69.5978959,22.7049719 C70.198776,22.7049719 70.6984978,22.6038137 71.1982196,22.5056902 C68.3961358,21.9027869 66.2971018,19.406201 66.2971018,16.5029589 C66.2971018,16.5029589 66.2971018,16.5029589 66.2971018,16.4038238 C67.0972637,16.9035456 68.0956957,17.1018158 69.0991857,17.2019625 C67.498862,16.1013606 66.3992717,14.20262 66.3992717,12.1025745 C66.3992717,11.0019726 66.6987001,9.90137069 67.1974103,9.00510849 C70.1977644,12.7034546 74.7994537,15.2030752 79.8998533,15.4043802 C79.7976835,15.0037934 79.69956,14.50306 79.69956,14.0033382 C79.69956,10.603409 82.5026554,7.80334834 85.9005614,7.80334834 C87.6991553,7.80334834 89.299479,8.50235193 90.3990693,9.70411208 C91.8001113,9.40367204 93.1010065,8.90395023 94.2977088,8.20494664 C93.7989985,9.60598857 92.89869,10.8026908 91.5988063,11.6048758 C92.7995549,11.5037176 93.9972687,11.105154 95.096859,10.6054322 C94.1995853,11.900258 93.0989834,13.0008598 91.8972232,13.9031915 L91.8972232,13.9031915 Z" id="Twitter"></path>
                <path d="M19.9999998,0 C9.0000505,0 0,9.00005058 0,20 C0,31.000961 8.99903892,40 19.9999998,40 C31.0009607,40 39.9999997,31.000961 39.9999997,20 C40.0020228,9.00207374 31.0009607,0 19.9999998,0 L19.9999998,0 Z M25.6001212,11.900258 L22.7980373,11.900258 C21.2988719,11.900258 21.0965554,12.6002731 21.0965554,13.700875 L21.0965554,13.9001568 L21.0965554,16.9986344 L25.096353,16.9986344 L25.096353,20.9964089 L21.0965554,20.9964089 L21.0965554,31.9973699 L17.0957461,31.9973699 L17.0957461,20.9964089 L14.0994385,20.9964089 L14.0994385,16.9996459 L17.0977693,16.9996459 L17.0977693,13.2001416 C17.0977693,10.499216 18.8002629,7.99959537 22.898184,7.99959537 C24.4985077,7.99959537 25.7963682,8.19685398 25.7963682,8.19685398 L25.6001212,11.900258 L25.6001212,11.900258 Z" id="Facebook"></path>
                <path d="M200,0 C189.000051,0 180,9.00005058 180,20 C180,31.000961 189.000051,40 200,40 C211.000961,40 220,31.000961 220,20 C220.002023,9.00207374 211.000961,0 200,0 L200,0 Z M194.500025,31.0019726 C189.200344,31.0019726 183.499064,27.0041981 183.499064,20.5007334 C183.499064,14.8014769 188.499317,10.0015174 194.301755,10.0015174 C199.001568,10.0015174 201.70047,12.8025897 201.801628,12.9007132 L202.102068,13.2021648 L199.402155,15.9010672 L199.001568,15.5004805 C199.001568,15.5004805 197.200951,13.6988519 194.301755,13.6988519 C190.402104,13.6988519 187.40175,16.7012291 187.40175,20.5007334 C187.40175,24.3022609 190.401092,27.3987153 194.301755,27.3987153 C196.802387,27.3987153 199.899853,26.0017197 200.399575,22.9973193 L193.00086,22.9973193 L193.00086,18.9995448 L204.302261,18.9995448 C204.302261,18.9995448 204.501542,19.8988417 204.501542,21.2998837 C204.499519,26.9020282 200.399575,31.0019726 194.500025,31.0019726 L194.500025,31.0019726 Z M213.00086,22.001922 L213.00086,25.0032876 L210.001517,25.0032876 L210.001517,22.001922 L207.000152,22.001922 L207.000152,19.0046027 L210.001517,19.0046027 L210.001517,16.0012139 L213.00086,16.0012139 L213.00086,19.0046027 L216.002225,19.0046027 L216.002225,22.001922 L213.00086,22.001922 L213.00086,22.001922 Z" id="Google-Plus"></path>
                <path d="M143.400941,23.502099 C142.799049,23.502099 142.299327,23.8035507 141.800617,24.4024076 L141.800617,21.00349 L140.302463,21.00349 L140.302463,32.004451 L141.800617,32.004451 L141.800617,31.2042891 C142.299327,31.8051692 142.901219,32.2027212 143.400941,32.2027212 C144.000809,32.2027212 144.399373,31.9022811 144.602701,31.3034242 C144.702847,30.9028375 144.800971,30.4010925 144.800971,29.6009307 L144.800971,26.202013 C144.800971,25.4018512 144.699813,24.9021294 144.602701,24.4995195 C144.400384,23.8025391 143.999797,23.502099 143.400941,23.502099 L143.400941,23.502099 Z M143.200647,29.6009307 C143.200647,30.4010925 143.000354,30.8026908 142.600779,30.8026908 C142.300339,30.8026908 142.100045,30.6995094 141.800617,30.4021041 L141.800617,25.3027161 C142.100045,25.0042992 142.300339,24.903141 142.600779,24.903141 C143.000354,24.903141 143.200647,25.1003996 143.200647,26.0037429 L143.200647,29.6009307 L143.200647,29.6009307 Z M137.399221,30.0035405 C137.099792,30.5012392 136.799352,30.700521 136.497901,30.700521 C136.299631,30.700521 136.198472,30.6013859 136.198472,30.4021041 L136.198472,29.801224 L136.198472,23.6012341 L134.598149,23.6012341 L134.598149,30.1977644 C134.598149,30.7996561 134.700319,31.197208 134.799454,31.3995246 C134.997724,31.8001113 135.298164,31.9983815 135.797886,31.9983815 C136.399777,31.9983815 136.898488,31.6999646 137.499368,30.9999494 L137.499368,31.9983815 L139.09868,31.9983815 L139.09868,23.599211 L137.499368,23.599211 L137.399221,30.0035405 L137.399221,30.0035405 L137.399221,30.0035405 Z M139.900865,13.6988519 C140.399575,13.6988519 140.700015,13.2982651 140.60088,12.3989682 L140.60088,9.00005058 C140.702038,8.19988873 140.399575,7.79829043 139.900865,7.79829043 C139.400131,7.79829043 139.100703,8.19887714 139.201861,9.00005058 L139.201861,12.3989682 C139.198826,13.3012999 139.400131,13.6988519 139.900865,13.6988519 L139.900865,13.6988519 Z M134.801477,20.5027566 L129.499772,20.5027566 L129.499772,22.1010571 L131.300389,22.1010571 L131.300389,32.0014162 L132.999848,32.0014162 L132.999848,22.1010571 L134.801477,22.1010571 L134.801477,20.5027566 Z M150.402104,28.1017652 L150.402104,26.4012948 C150.402104,25.4999747 150.20181,24.8009711 149.902382,24.3993728 C149.501795,23.7995043 148.902938,23.4980527 148.102777,23.4980527 C147.302615,23.4980527 146.703758,23.7995043 146.304183,24.3993728 C146.002731,24.7999595 145.803449,25.4999747 145.803449,26.4012948 L145.803449,29.299479 C145.803449,30.2007992 146.002731,30.7976329 146.304183,31.2002428 C146.704769,31.8011229 147.302615,32.0995397 148.102777,32.0995397 C148.902938,32.0995397 149.502807,31.8011229 149.902382,31.2002428 C150.101664,30.8998027 150.20181,30.5993627 150.302969,30.2989227 C150.302969,30.0996409 150.405139,29.7992008 150.405139,29.299479 L150.405139,29.1001973 L148.805826,29.1001973 L148.805826,30.2007992 C148.702645,30.6013859 148.505386,30.8006676 148.105811,30.8006676 C147.605078,30.8006676 147.406808,30.4000809 147.406808,29.5999191 L147.406808,28.1017652 L150.402104,28.1017652 L150.402104,28.1017652 L150.402104,28.1017652 Z M147.40175,25.9025846 C147.40175,25.1024227 147.60002,24.9021294 148.099742,24.9021294 C148.599464,24.9021294 148.798745,25.1024227 148.798745,25.9025846 L148.798745,26.8028931 L147.399727,26.8028931 L147.40175,25.9025846 L147.40175,25.9025846 L147.40175,25.9025846 Z M140,0 C128.999039,0 120,9.00005058 120,20 C120,31.000961 128.999039,40 140,40 C150.999949,40 160,31.000961 160,20 C160.002023,9.00207374 151.000961,0 140,0 L140,0 Z M143.400941,6.50042992 L145.001264,6.50042992 L145.001264,12.8015781 L145.001264,13.4034697 C145.001264,13.6017399 145.102423,13.7018866 145.300693,13.7018866 C145.600121,13.7018866 145.902584,13.4034697 146.202013,13.002883 L146.202013,6.50245309 L147.802337,6.50245309 L147.802337,15.0017703 L146.202013,15.0017703 L146.202013,14.098427 C145.600121,14.7994537 145.099388,15.0978706 144.499519,15.0978706 C143.999797,15.0978706 143.700369,14.8985888 143.501087,14.4990137 C143.399929,14.1985737 143.301805,13.797987 143.301805,13.2972536 L143.400941,6.50042992 L143.400941,6.50042992 L143.400941,6.50042992 Z M139.900865,6.50042992 C140.60088,6.50042992 141.200748,6.69870012 141.70047,7.29958019 C141.999899,7.70016691 142.200192,8.3991705 142.200192,9.30049062 L142.200192,12.3028678 C142.200192,13.2031764 142.099034,13.8010217 141.70047,14.2016084 C141.299883,14.8024885 140.60088,15.1019169 139.900865,15.1019169 C139.201861,15.1019169 138.500834,14.8024885 138.101259,14.2016084 C137.800819,13.8010217 137.601537,13.2031764 137.601537,12.3028678 L137.601537,9.30049062 C137.601537,8.40119367 137.800819,7.70117849 138.101259,7.29958019 C138.600981,6.70173486 139.198826,6.50042992 139.900865,6.50042992 L139.900865,6.50042992 Z M133.900157,3.70239239 L135.100905,8.10277679 L136.302665,3.70239239 L138.101259,3.70239239 L136.003237,10.3990693 L136.003237,15.0017703 L134.301755,15.0017703 L134.301755,10.3990693 C134.301755,10.3990693 132.600273,4.69778969 132.202721,3.70239239 L133.900157,3.70239239 L133.900157,3.70239239 Z M152.502149,27.5008851 C152.502149,29.5028071 152.200698,31.4996712 152.200698,31.4996712 C152.200698,31.4996712 152.002428,33.2021648 151.202266,34.0023266 C150.203834,35.0007587 149.201355,35.0007587 148.700622,35.1029285 C145.201558,35.4033686 139.901876,35.4033686 139.901876,35.4033686 C139.901876,35.4033686 133.400435,35.3011987 131.401548,35.1029285 C130.801679,35.0007587 129.602954,35.0007587 128.601487,34.0023266 C127.799302,33.2021648 127.601032,31.4996712 127.601032,31.4996712 C127.601032,31.4996712 127.302615,29.4987608 127.302615,27.5008851 L127.302615,25.6021446 C127.302615,23.6002225 127.601032,21.6033585 127.601032,21.6033585 C127.601032,21.6033585 127.799302,19.8988417 128.601487,19.100703 C129.599919,18.102271 130.602397,18.102271 131.101108,18.0001012 C134.600172,17.7016843 139.900865,17.7016843 139.900865,17.7016843 L139.900865,17.7016843 C139.900865,17.7016843 145.200546,17.7016843 148.69961,18.0001012 C149.199332,18.102271 150.299934,18.102271 151.201254,19.100703 C152.001416,19.9008649 152.199686,21.6033585 152.199686,21.6033585 C152.199686,21.6033585 152.500126,23.6022457 152.500126,25.6021446 L152.500126,27.5008851 L152.502149,27.5008851 L152.502149,27.5008851 Z" id="Youtube"></path>
            </g>
            <g id="Icons-Copy" transform="translate(0.000000, 60.000000)" fill="#181818">
                <path d="M80,0 C68.999039,0 60,9.00005058 60,20 C60,31.000961 68.999039,40 80,40 C90.9999494,40 100,31.000961 100,20 C99.9989884,9.00207374 90.9999494,0 80,0 L80,0 Z M91.8972232,13.9031915 L91.8972232,14.7003186 C91.8972232,22.804107 85.6982449,32.2047443 74.3968439,32.2047443 C70.896768,32.2047443 67.6961206,31.2032775 64.9962066,29.4016489 C65.4959284,29.5028071 65.9946386,29.5028071 66.4943604,29.5028071 C69.3945678,29.5028071 71.9953467,28.5053867 74.0974154,26.905063 C71.3964898,26.905063 69.0981741,25.1034343 68.3961358,22.6038137 C68.7967225,22.7049719 69.195286,22.7049719 69.5978959,22.7049719 C70.198776,22.7049719 70.6984978,22.6038137 71.1982196,22.5056902 C68.3961358,21.9027869 66.2971018,19.406201 66.2971018,16.5029589 C66.2971018,16.5029589 66.2971018,16.5029589 66.2971018,16.4038238 C67.0972637,16.9035456 68.0956957,17.1018158 69.0991857,17.2019625 C67.498862,16.1013606 66.3992717,14.20262 66.3992717,12.1025745 C66.3992717,11.0019726 66.6987001,9.90137069 67.1974103,9.00510849 C70.1977644,12.7034546 74.7994537,15.2030752 79.8998533,15.4043802 C79.7976835,15.0037934 79.69956,14.50306 79.69956,14.0033382 C79.69956,10.603409 82.5026554,7.80334834 85.9005614,7.80334834 C87.6991553,7.80334834 89.299479,8.50235193 90.3990693,9.70411208 C91.8001113,9.40367204 93.1010065,8.90395023 94.2977088,8.20494664 C93.7989985,9.60598857 92.89869,10.8026908 91.5988063,11.6048758 C92.7995549,11.5037176 93.9972687,11.105154 95.096859,10.6054322 C94.1995853,11.900258 93.0989834,13.0008598 91.8972232,13.9031915 L91.8972232,13.9031915 Z" id="Twitter"></path>
                <path d="M19.9999998,0 C9.0000505,0 0,9.00005058 0,20 C0,31.000961 8.99903892,40 19.9999998,40 C31.0009607,40 39.9999997,31.000961 39.9999997,20 C40.0020228,9.00207374 31.0009607,0 19.9999998,0 L19.9999998,0 Z M25.6001212,11.900258 L22.7980373,11.900258 C21.2988719,11.900258 21.0965554,12.6002731 21.0965554,13.700875 L21.0965554,13.9001568 L21.0965554,16.9986344 L25.096353,16.9986344 L25.096353,20.9964089 L21.0965554,20.9964089 L21.0965554,31.9973699 L17.0957461,31.9973699 L17.0957461,20.9964089 L14.0994385,20.9964089 L14.0994385,16.9996459 L17.0977693,16.9996459 L17.0977693,13.2001416 C17.0977693,10.499216 18.8002629,7.99959537 22.898184,7.99959537 C24.4985077,7.99959537 25.7963682,8.19685398 25.7963682,8.19685398 L25.6001212,11.900258 L25.6001212,11.900258 Z" id="Facebook"></path>
                <path d="M200,0 C189.000051,0 180,9.00005058 180,20 C180,31.000961 189.000051,40 200,40 C211.000961,40 220,31.000961 220,20 C220.002023,9.00207374 211.000961,0 200,0 L200,0 Z M194.500025,31.0019726 C189.200344,31.0019726 183.499064,27.0041981 183.499064,20.5007334 C183.499064,14.8014769 188.499317,10.0015174 194.301755,10.0015174 C199.001568,10.0015174 201.70047,12.8025897 201.801628,12.9007132 L202.102068,13.2021648 L199.402155,15.9010672 L199.001568,15.5004805 C199.001568,15.5004805 197.200951,13.6988519 194.301755,13.6988519 C190.402104,13.6988519 187.40175,16.7012291 187.40175,20.5007334 C187.40175,24.3022609 190.401092,27.3987153 194.301755,27.3987153 C196.802387,27.3987153 199.899853,26.0017197 200.399575,22.9973193 L193.00086,22.9973193 L193.00086,18.9995448 L204.302261,18.9995448 C204.302261,18.9995448 204.501542,19.8988417 204.501542,21.2998837 C204.499519,26.9020282 200.399575,31.0019726 194.500025,31.0019726 L194.500025,31.0019726 Z M213.00086,22.001922 L213.00086,25.0032876 L210.001517,25.0032876 L210.001517,22.001922 L207.000152,22.001922 L207.000152,19.0046027 L210.001517,19.0046027 L210.001517,16.0012139 L213.00086,16.0012139 L213.00086,19.0046027 L216.002225,19.0046027 L216.002225,22.001922 L213.00086,22.001922 L213.00086,22.001922 Z" id="Google-Plus"></path>
                <path d="M143.400941,23.502099 C142.799049,23.502099 142.299327,23.8035507 141.800617,24.4024076 L141.800617,21.00349 L140.302463,21.00349 L140.302463,32.004451 L141.800617,32.004451 L141.800617,31.2042891 C142.299327,31.8051692 142.901219,32.2027212 143.400941,32.2027212 C144.000809,32.2027212 144.399373,31.9022811 144.602701,31.3034242 C144.702847,30.9028375 144.800971,30.4010925 144.800971,29.6009307 L144.800971,26.202013 C144.800971,25.4018512 144.699813,24.9021294 144.602701,24.4995195 C144.400384,23.8025391 143.999797,23.502099 143.400941,23.502099 L143.400941,23.502099 Z M143.200647,29.6009307 C143.200647,30.4010925 143.000354,30.8026908 142.600779,30.8026908 C142.300339,30.8026908 142.100045,30.6995094 141.800617,30.4021041 L141.800617,25.3027161 C142.100045,25.0042992 142.300339,24.903141 142.600779,24.903141 C143.000354,24.903141 143.200647,25.1003996 143.200647,26.0037429 L143.200647,29.6009307 L143.200647,29.6009307 Z M137.399221,30.0035405 C137.099792,30.5012392 136.799352,30.700521 136.497901,30.700521 C136.299631,30.700521 136.198472,30.6013859 136.198472,30.4021041 L136.198472,29.801224 L136.198472,23.6012341 L134.598149,23.6012341 L134.598149,30.1977644 C134.598149,30.7996561 134.700319,31.197208 134.799454,31.3995246 C134.997724,31.8001113 135.298164,31.9983815 135.797886,31.9983815 C136.399777,31.9983815 136.898488,31.6999646 137.499368,30.9999494 L137.499368,31.9983815 L139.09868,31.9983815 L139.09868,23.599211 L137.499368,23.599211 L137.399221,30.0035405 L137.399221,30.0035405 L137.399221,30.0035405 Z M139.900865,13.6988519 C140.399575,13.6988519 140.700015,13.2982651 140.60088,12.3989682 L140.60088,9.00005058 C140.702038,8.19988873 140.399575,7.79829043 139.900865,7.79829043 C139.400131,7.79829043 139.100703,8.19887714 139.201861,9.00005058 L139.201861,12.3989682 C139.198826,13.3012999 139.400131,13.6988519 139.900865,13.6988519 L139.900865,13.6988519 Z M134.801477,20.5027566 L129.499772,20.5027566 L129.499772,22.1010571 L131.300389,22.1010571 L131.300389,32.0014162 L132.999848,32.0014162 L132.999848,22.1010571 L134.801477,22.1010571 L134.801477,20.5027566 Z M150.402104,28.1017652 L150.402104,26.4012948 C150.402104,25.4999747 150.20181,24.8009711 149.902382,24.3993728 C149.501795,23.7995043 148.902938,23.4980527 148.102777,23.4980527 C147.302615,23.4980527 146.703758,23.7995043 146.304183,24.3993728 C146.002731,24.7999595 145.803449,25.4999747 145.803449,26.4012948 L145.803449,29.299479 C145.803449,30.2007992 146.002731,30.7976329 146.304183,31.2002428 C146.704769,31.8011229 147.302615,32.0995397 148.102777,32.0995397 C148.902938,32.0995397 149.502807,31.8011229 149.902382,31.2002428 C150.101664,30.8998027 150.20181,30.5993627 150.302969,30.2989227 C150.302969,30.0996409 150.405139,29.7992008 150.405139,29.299479 L150.405139,29.1001973 L148.805826,29.1001973 L148.805826,30.2007992 C148.702645,30.6013859 148.505386,30.8006676 148.105811,30.8006676 C147.605078,30.8006676 147.406808,30.4000809 147.406808,29.5999191 L147.406808,28.1017652 L150.402104,28.1017652 L150.402104,28.1017652 L150.402104,28.1017652 Z M147.40175,25.9025846 C147.40175,25.1024227 147.60002,24.9021294 148.099742,24.9021294 C148.599464,24.9021294 148.798745,25.1024227 148.798745,25.9025846 L148.798745,26.8028931 L147.399727,26.8028931 L147.40175,25.9025846 L147.40175,25.9025846 L147.40175,25.9025846 Z M140,0 C128.999039,0 120,9.00005058 120,20 C120,31.000961 128.999039,40 140,40 C150.999949,40 160,31.000961 160,20 C160.002023,9.00207374 151.000961,0 140,0 L140,0 Z M143.400941,6.50042992 L145.001264,6.50042992 L145.001264,12.8015781 L145.001264,13.4034697 C145.001264,13.6017399 145.102423,13.7018866 145.300693,13.7018866 C145.600121,13.7018866 145.902584,13.4034697 146.202013,13.002883 L146.202013,6.50245309 L147.802337,6.50245309 L147.802337,15.0017703 L146.202013,15.0017703 L146.202013,14.098427 C145.600121,14.7994537 145.099388,15.0978706 144.499519,15.0978706 C143.999797,15.0978706 143.700369,14.8985888 143.501087,14.4990137 C143.399929,14.1985737 143.301805,13.797987 143.301805,13.2972536 L143.400941,6.50042992 L143.400941,6.50042992 L143.400941,6.50042992 Z M139.900865,6.50042992 C140.60088,6.50042992 141.200748,6.69870012 141.70047,7.29958019 C141.999899,7.70016691 142.200192,8.3991705 142.200192,9.30049062 L142.200192,12.3028678 C142.200192,13.2031764 142.099034,13.8010217 141.70047,14.2016084 C141.299883,14.8024885 140.60088,15.1019169 139.900865,15.1019169 C139.201861,15.1019169 138.500834,14.8024885 138.101259,14.2016084 C137.800819,13.8010217 137.601537,13.2031764 137.601537,12.3028678 L137.601537,9.30049062 C137.601537,8.40119367 137.800819,7.70117849 138.101259,7.29958019 C138.600981,6.70173486 139.198826,6.50042992 139.900865,6.50042992 L139.900865,6.50042992 Z M133.900157,3.70239239 L135.100905,8.10277679 L136.302665,3.70239239 L138.101259,3.70239239 L136.003237,10.3990693 L136.003237,15.0017703 L134.301755,15.0017703 L134.301755,10.3990693 C134.301755,10.3990693 132.600273,4.69778969 132.202721,3.70239239 L133.900157,3.70239239 L133.900157,3.70239239 Z M152.502149,27.5008851 C152.502149,29.5028071 152.200698,31.4996712 152.200698,31.4996712 C152.200698,31.4996712 152.002428,33.2021648 151.202266,34.0023266 C150.203834,35.0007587 149.201355,35.0007587 148.700622,35.1029285 C145.201558,35.4033686 139.901876,35.4033686 139.901876,35.4033686 C139.901876,35.4033686 133.400435,35.3011987 131.401548,35.1029285 C130.801679,35.0007587 129.602954,35.0007587 128.601487,34.0023266 C127.799302,33.2021648 127.601032,31.4996712 127.601032,31.4996712 C127.601032,31.4996712 127.302615,29.4987608 127.302615,27.5008851 L127.302615,25.6021446 C127.302615,23.6002225 127.601032,21.6033585 127.601032,21.6033585 C127.601032,21.6033585 127.799302,19.8988417 128.601487,19.100703 C129.599919,18.102271 130.602397,18.102271 131.101108,18.0001012 C134.600172,17.7016843 139.900865,17.7016843 139.900865,17.7016843 L139.900865,17.7016843 C139.900865,17.7016843 145.200546,17.7016843 148.69961,18.0001012 C149.199332,18.102271 150.299934,18.102271 151.201254,19.100703 C152.001416,19.9008649 152.199686,21.6033585 152.199686,21.6033585 C152.199686,21.6033585 152.500126,23.6022457 152.500126,25.6021446 L152.500126,27.5008851 L152.502149,27.5008851 L152.502149,27.5008851 Z" id="Youtube"></path>
            </g>
        </g>
    </g>
</svg>